<svg xmlns="http://www.w3.org/2000/svg" viewBox="0 0 71 62">
  <g fill="#FFF" stroke="#FFF" stroke-width=".8">
    <path d="M68.59 9.89H57.95l-8.53-8.56a1 1 0 0 0-.78-.33h-13.3a1 1 0 0 0-.77.33L26.04 9.9H2.11C1.44 9.89 1 10.33 1 11v48.89c0 .67.44 1.11 1.1 1.11h66.5c.66 0 1.1-.44 1.1-1.11V11c0-.67-.44-1.11-1.1-1.11zM3.22 12.1H14.3v46.67H3.22V12.1zm64.26 46.67H16.51V12.1h9.97a1 1 0 0 0 .78-.33l8.53-8.56H48.2l8.53 8.56a1 1 0 0 0 .78.33h9.97v46.67z"/>
    <path d="M42 18.78c-9.2 0-16.62 7.44-16.62 16.66a16.62 16.62 0 1 0 33.24 0c0-9.22-7.43-16.66-16.62-16.66zm0 31.1a14.4 14.4 0 0 1-14.4-14.44 14.4 14.4 0 1 1 28.8 0c0 8-6.43 14.45-14.4 14.45z"/>
  </g>
</svg>
