<svg xmlns="http://www.w3.org/2000/svg" viewBox="0 0 226 84"><defs><linearGradient id="a" x1="50%" x2="50%" y1="100%" y2="0%"><stop offset="0%" stop-color="#F6F6F6"/><stop offset="43.4%" stop-color="#BDBEC0"/><stop offset="100%" stop-color="#646567"/></linearGradient></defs><g fill="none" fill-rule="evenodd"><path fill="#4A4A4A" fill-rule="nonzero" d="M0 80.3c0-.5.2-1 .5-1.5.4-.5.8-.7 1.3-.7.3 0 .6 0 1 .3l.8.7a4.1 4.1 0 0 0 2.8 1c.6 0 1.3-.1 1.8-.4.5-.3.8-.7.8-1.3 0-.6-.3-1.1-1-1.5a10 10 0 0 0-2-1.3c-.8-.3-1.7-.7-2.5-1.2a6 6 0 0 1-2.1-2 5 5 0 0 1-1-2.9c0-1.9.8-3.3 2.1-4.2 1.3-1 3-1.4 4.8-1.4h1.5l1.7.4c.6.1 1.2.4 1.6.7.4.4.6.8.6 1.3s-.2 1-.5 1.5-.7.7-1.2.7c-.2 0-.7-.1-1.4-.5a5 5 0 0 0-2.2-.5c-1 0-1.6.2-2 .5-.5.3-.7.7-.7 1.1 0 .4.2.8.6 1.1.4.4 1 .7 1.6 1a19.9 19.9 0 0 1 4 2 5 5 0 0 1 1.6 2c.4.8.7 1.8.7 2.8 0 1.8-.7 3.3-1.9 4.3a7.3 7.3 0 0 1-4.8 1.5c-1.7 0-3.2-.3-4.5-1-1.3-.8-2-1.6-2-2.5m15-3v-7c0-2.2.6-3.8 1.8-4.8a7 7 0 0 1 4.7-1.5c2 0 3.6.5 4.8 1.5 1.2 1 1.8 2.6 1.8 4.8v7c0 2.2-.6 3.8-1.8 4.8a7.2 7.2 0 0 1-4.8 1.5 7 7 0 0 1-4.7-1.5c-1.2-1-1.8-2.6-1.8-4.8zm4.1 0c0 1.8.8 2.7 2.4 2.7 1.6 0 2.4-.9 2.4-2.6v-7.1c0-1.8-.8-2.7-2.4-2.7-1.6 0-2.4.9-2.4 2.7v7zm11.6 5v-17c0-.5.2-.8.7-1 .4-.2.9-.3 1.4-.3s1 0 1.5.3c.4.2.6.5.6 1v14.5h6c.5 0 .7.2 1 .6.2.3.3.8.3 1.3s-.1.9-.3 1.2c-.3.4-.5.6-1 .6h-8.4c-.5 0-.9-.1-1.2-.4a1 1 0 0 1-.6-1m11.8-.4v-.3l5-16.2c.2-.5.5-.8 1-1a4.7 4.7 0 0 1 3.5-.1c.5.2.9.6 1 1l5 16.3v.3c0 .5-.2.9-.8 1.2a3 3 0 0 1-1.8.5c-.8 0-1.2-.2-1.4-.7l-.9-3.4h-5.6l-1 3.4c0 .5-.5.7-1.3.7a3 3 0 0 1-1.8-.5c-.6-.3-.8-.7-.8-1.2zm5.8-5.6h4l-2-7.1-2 7.2zm11.3 6V65.3c0-.3.1-.6.4-.8s.5-.4.9-.4h5.5c4.4 0 6.6 1.9 6.6 5.7 0 2.8-1.1 4.6-3.3 5.4l3.3 6 .1.4c0 .5-.2 1-.8 1.5-.6.4-1.2.6-1.8.6s-1-.2-1.3-.7l-3.7-7.1h-1.7v6.4c0 .4-.2.7-.6 1a4 4 0 0 1-3 0c-.4-.3-.6-.6-.6-1zm4.2-9.6h2.6a3 3 0 0 0 1.8-.5c.4-.4.6-1 .6-2 0-.8-.2-1.5-.6-1.9a3 3 0 0 0-1.8-.5h-2.6v5zM81.2 83V64.6c0-.4.2-.6.7-.6.3 0 .7.3 1 1l5 9.6 4.9-9.5c.4-.8.8-1.1 1.1-1.1.5 0 .7.2.7.6V83c0 .4-.2.6-.7.6-.4 0-.6-.2-.6-.6V67l-4.8 9c-.2.5-.4.7-.6.7-.2 0-.5-.2-.6-.6L82.5 67v15.9c0 .4-.2.6-.6.6-.5 0-.7-.2-.7-.6m16.1 0v-.2l5.8-18.4c0-.3.3-.5.7-.5s.6.2.7.5l5.7 18.6v.2s0 .2-.2.3a1 1 0 0 1-.5.1c-.3 0-.5-.1-.6-.4l-1.3-4.2H100L98.6 83c0 .3-.2.4-.5.4l-.6-.1a.5.5 0 0 1-.2-.5zm3-5.3h7l-3.5-11.4-3.5 11.4zM113 83V64.5c0-.3.2-.5.6-.5.4 0 .7.3 1.1 1l7.7 15.3V64.5c0-.3.3-.5.7-.5.5 0 .7.2.7.5V83c0 .4-.2.6-.7.6-.3 0-.6-.3-1-1l-7.8-15.4V83c0 .4-.2.6-.7.6-.4 0-.6-.2-.6-.6m13.5 0v-.2l5.7-18.4c.1-.3.4-.5.8-.5s.6.2.7.5l5.7 18.6v.1c0 .2 0 .3-.2.4a1 1 0 0 1-.5.1c-.3 0-.5-.1-.6-.4l-1.3-4.2h-7.7l-1.3 4.2c0 .3-.2.4-.5.4l-.6-.1a.5.5 0 0 1-.2-.5zm3-5.3h7L133 66.2l-3.5 11.4zm12.5.5v-8.5c0-2 .4-3.4 1.4-4.3 1-.9 2.3-1.3 3.9-1.3 1.7 0 3 .4 4 1.3s1.4 1.9 1.4 3.2c0 .5-.2.7-.7.7-.4 0-.6-.2-.6-.6-.3-2.2-1.7-3.3-4-3.3-2.8 0-4.1 1.4-4.1 4.3V78c0 2.8 1.3 4.3 4 4.3a4 4 0 0 0 3-1.1c.7-.7 1-1.8 1-3.2v-3.6h-3.9c-.1 0-.3 0-.4-.2a.6.6 0 0 1-.1-.4l.1-.5.4-.1h4.8l.4.2.1.4V78c0 2-.5 3.3-1.5 4.2-1 1-2.3 1.4-3.9 1.4s-3-.5-3.9-1.4c-1-.9-1.4-2.3-1.4-4.2m14.5 4.8V64.6c0-.4.2-.6.6-.6h9.5c.4 0 .6.2.6.6l-.2.5-.4.2h-8.8V73h4.2c.2 0 .3 0 .4.2l.2.5c0 .4-.2.6-.6.6h-4.2v7.8h8.8l.4.2.1.5c0 .4-.2.6-.5.6H157c-.5 0-.7-.2-.7-.6m13.5 0V64.6c0-.4.2-.6.6-.6.4 0 .8.4 1.1 1l5 9.6 4.9-9.5c.3-.7.7-1.1 1-1.1.5 0 .7.2.7.6V83c0 .4-.2.6-.6.6-.5 0-.7-.2-.7-.6V67l-4.7 9c-.2.5-.4.7-.6.7-.3 0-.5-.2-.7-.6l-4.7-9.1v15.9c0 .4-.2.6-.6.6-.5 0-.7-.2-.7-.6m17.6 0V64.6c0-.4.2-.6.6-.6h9.5c.4 0 .6.2.6.6 0 .2 0 .3-.2.5l-.4.2h-8.8V73h4.3c.1 0 .3 0 .4.2l.1.5c0 .4-.1.6-.5.6h-4.3v7.8h8.8l.4.2c.2.2.2.3.2.5 0 .4-.2.6-.6.6H188c-.4 0-.6-.2-.6-.6m13.4 0V64.5c0-.3.2-.5.7-.5.3 0 .7.4 1 1l7.8 15.3V64.5c0-.3.2-.5.7-.5.4 0 .6.2.6.5V83c0 .4-.2.6-.6.6-.3 0-.6-.3-1-1l-7.8-15.4V83c0 .4-.3.6-.7.6-.5 0-.7-.2-.7-.6m13.5-17.8l-.2-.5.2-.4.4-.2h10.6c.4 0 .5.2.5.6 0 .5-.1.7-.5.7h-4.6V83c0 .4-.2.6-.7.6-.4 0-.6-.2-.6-.6V65.2h-4.7l-.4-.1"/><g transform="translate(59.5)"><mask id="b" fill="#fff"><path d="M60 0l-6.6 22.4L46.7 0l-1 23.4-12-20 5 22.8L22 9.8l10.5 20.9-20.2-11.8 15.3 17.7-22.5-6.4 19.3 13.3L1 42.9l22 8-23 5.4h106.5L83.8 51l22-8.1-23.5.6 19.3-13.3-22.5 6.4 15.3-17.7-20.2 11.8 10.5-21L68 26.3l5-22.9-12 20z"/></mask><path fill="url(#a)" fill-rule="nonzero" d="M.1 0h106.5v56.2H.2z" mask="url(#b)"/></g></g></svg>