<svg xmlns="http://www.w3.org/2000/svg" xmlns:xlink="http://www.w3.org/1999/xlink" viewBox="0 0 320 568"><path fill="#009BFF" d="M14.2 27v10c0 .7.2 1.3.8 1.6.5.3 1 .3 1.6 0 .5-.3.8-.9.7-1.7v-.1c0-.2 0-.4.2-.4l.4-.2h1.5c.4 0 .5.3.5.7a4.8 4.8 0 0 1-1.3 3.2 4 4 0 0 1-2.8 1.1c-1.3 0-2.3-.4-3-1.2a5.3 5.3 0 0 1-1.2-3.7v-8.6c0-1.6.4-2.8 1.2-3.6.7-.9 1.7-1.3 3-1.3a4 4 0 0 1 2.8 1.1c.8.7 1.2 1.8 1.3 3.2 0 .4-.1.7-.5.7h-1.5l-.4-.1-.2-.4V27c0-.8-.2-1.4-.7-1.7-.5-.3-1-.3-1.6 0-.6.3-.8.9-.8 1.7zm17.1.7v8.6c0 1.6-.4 2.8-1.2 3.7-.8.8-1.8 1.2-3 1.2s-2.3-.4-3-1.2a5.3 5.3 0 0 1-1.2-3.7v-8.6c0-1.6.4-2.8 1.2-3.6.7-.9 1.7-1.3 3-1.3s2.2.4 3 1.3c.8.8 1.1 2 1.1 3.6zM28.6 37v-9.8c.1-.8-.1-1.4-.7-1.7-.5-.3-1-.3-1.6 0-.6.3-.8.9-.8 1.7V37c0 .8.2 1.4.8 1.7.5.3 1 .3 1.6 0 .6-.3.8-.9.7-1.7zm11.5 4.1h-.5c-.3 0-.5-.1-.6-.4l-1.6-6.6-.1-.1v6.6l-.2.4-.4.1h-1.5l-.5-.1V23h1.6c.3 0 .5 0 .5.2l3 12.3h.2l2.9-12.3c0-.2.2-.3.5-.3h1.2l.4.1v18l-.4.1H43l-.4-.1-.1-.4V34l-.1-.1-1.7 6.7c0 .3-.3.4-.6.4zm14.1 0h-.5c-.3 0-.5-.1-.6-.4l-1.6-6.6-.2-.1v7l-.5.1h-1.6l-.4-.1V23h1.6c.3 0 .5 0 .5.2l3 12.3h.2L57 23.2c0-.2.2-.3.5-.3h1.2l.4.1v18l-.4.1H57l-.4-.1-.1-.4V34l-.1-.1-1.7 6.7c0 .3-.3.4-.6.4zm14.6 0h-5.5L63 41V23h6.2l.1.4v1.8l-.5.2h-3.3v4.8h3.4l.3.2.1.4v1.8l-.5.1H66l-.4.1v5.8H69l.3.2.1.4V41l-.5.1zm11.8 0h-1.1c-.3 0-.5 0-.5-.3l-3.5-9.7V31h-.1v9.6l-.2.4-.4.1h-1.6l-.4-.1V23h1.6c.3 0 .5 0 .5.2l3.5 9.7v.2h.1v-9.7l.2-.4H81v18l-.5.1zm3.3-16.3v-1.4l.1-.4h7.6l.1.4v1.4l-.1.4-.4.2h-2l-.1.5v14.7l-.1.4-.4.1H87l-.4-.1-.1-.4V25.4h-2.1c-.2 0-.3 0-.4-.2l-.1-.4zM103 27v10c0 .7.2 1.3.7 1.6.6.3 1.1.3 1.7 0 .5-.3.8-.9.7-1.7v-.1l.1-.4.4-.2h1.6c.4 0 .5.3.5.7-.1 1.4-.5 2.5-1.3 3.2s-1.7 1.1-2.8 1.1c-1.3 0-2.3-.4-3-1.2a5.3 5.3 0 0 1-1.2-3.7v-8.6c0-1.6.4-2.8 1.2-3.6.7-.9 1.7-1.3 3-1.3a4 4 0 0 1 2.8 1.1c.8.7 1.2 1.8 1.3 3.2 0 .4-.1.7-.5.7h-1.6l-.4-.1V27c0-.8-.3-1.4-.8-1.7-.6-.3-1.1-.3-1.7 0-.5.3-.7.9-.7 1.7zm17.2 14.1h-1.9l-.1-.1-.2-.3-.2-1.4-.2-.4-.4-.1h-2.7l-.2.5-.2 1.4-.1.3h-.2l-.3.1h-1.8l-.2-.1v-.3l3.3-17.3.1-.4h2.3l.1.4 3.3 17.3v.3l-.4.1zM116 29.5l-1.1 6.3v.5h2.3v-.5l-1-6.3h-.2zm15.7 11.6h-1.2c-.3 0-.5 0-.5-.3l-3.5-9.7V31h-.1v9.6l-.2.4-.4.1h-1.6l-.4-.1V23h1.6c.3 0 .5 0 .5.2l3.5 9.7v.1h.1v-9.6l.2-.4h2.4v18l-.4.1zm12.3 0h-1.8l-.2-.1-.1-.3-.3-1.4-.1-.4-.4-.1h-2.8l-.1.5-.3 1.4v.3h-.3l-.2.1h-1.9l-.1-.1v-.3l3.2-17.3.2-.4c0-.1.2 0 .4 0h1.8l.2.4 3.3 17.3-.1.3-.4.1zm-4.2-11.6l-1 6.3v.5h2.3v-.5l-1.1-6.3h-.2zm13.8 11.6H148l-.4-.1-.1-.4V23h2.5v15.1l.1.5h3.4l.4.2.1.4v1.4l-.1.4-.4.1zm5.8-17.7V41l-.5.1h-1.6l-.4-.1V23h2.4l.1.4zm7.1 17.8a4.2 4.2 0 0 1-4.2-4.3l.2-.4.4-.1h1.5c.4 0 .5.2.5.6 0 .5.2 1 .5 1.3s.6.5 1.1.5c.5 0 .8-.1 1.1-.4.3-.3.5-.7.5-1.1.2-1-.3-2.3-1.6-3.8a21 21 0 0 1-1.7-2l-.5-.7-.5-.7-.4-.8-.4-.7c-.2-.2-.2-.6-.2-.9l-.1-.8a3.8 3.8 0 0 1 3.8-4c.9 0 1.7.2 2.4.9.8.7 1.2 1.5 1.3 2.5v.7l-.5.1h-1.5l-.4-.1v-.4c0-.5-.2-.8-.4-1-.2-.3-.5-.4-1-.4-.4 0-.8.2-1 .5-.2.4-.3.8-.2 1.2 0 .6.4 1.4 1 2.1.5.9 1 1.6 1.7 2.3.6.6 1.2 1.5 1.7 2.4a7 7 0 0 1 1 2.8 4 4 0 0 1-1 3.3 4 4 0 0 1-3 1.4zm13.2-.1h-5.5l-.4-.1-.2-.4V23.4c0-.2 0-.3.2-.4h6.2v2.2l-.4.2h-3.4v4.8h3.4l.4.2v2.2l-.4.1h-3l-.4.1v5.8h3.4l.4.2V41l-.4.1zM184 23h3.5c1.2 0 2.1.3 2.8 1.1.7.8 1 2 1 3.6v.9c0 2-.5 3.4-1.5 4.2l1.5 7.8c.1.3 0 .5-.3.5h-1.9l-.2-.1v-.3l-1.4-7c0-.1-.1-.2-.3-.2h-1v7.1c0 .2 0 .3-.2.4l-.4.1h-1.5l-.4-.1-.1-.4V23h.5zm3.5 2.2h-1.3v5.9l.5.1h.8c.8 0 1.3-.6 1.3-1.8V27c0-1.3-.5-1.9-1.3-1.9zm17 16a4.2 4.2 0 0 1-4.2-4.3l.1-.4.4-.1h1.6c.3 0 .5.2.5.6 0 .5.1 1 .4 1.3s.7.5 1.2.5c.4 0 .8-.1 1-.4.3-.3.5-.7.6-1.1.1-1-.4-2.3-1.7-3.8a23 23 0 0 1-1.6-2l-.6-.7c0-.2-.2-.4-.5-.7l-.4-.8-.3-.7-.3-.9-.1-.8a3.8 3.8 0 0 1 3.8-4c1 0 1.7.2 2.5.9a4 4 0 0 1 1.2 2.5v.7l-.5.1h-1.4l-.4-.1-.1-.4c0-.5-.2-.8-.4-1-.2-.3-.5-.4-.9-.4-.5 0-.8.2-1 .5L203 27c.1.6.4 1.4 1 2.1.5.9 1 1.6 1.7 2.3.6.6 1.2 1.5 1.8 2.4a7 7 0 0 1 1 2.8 4 4 0 0 1-1 3.3 4 4 0 0 1-3.1 1.4zm13.1-.1H212l-.4-.1-.1-.4V23.4l.1-.4h6.4l.1.4v1.4l-.1.4-.4.2h-3.4v4.8h3.4l.4.2.1.4v1.4l-.1.4-.4.1h-2.9l-.5.1v5.8h3.4l.4.2.1.4v1.4l-.1.4-.4.1zm7.4.1a4.2 4.2 0 0 1-4.2-4.3v-.4l.5-.1h1.5c.4 0 .6.2.6.6 0 .5.1 1 .4 1.3s.6.5 1.1.5c.5 0 .9-.1 1.1-.4.3-.3.5-.7.6-1.1.1-1-.4-2.3-1.7-3.8a23 23 0 0 1-1.6-2l-.6-.7-.5-.7-.4-.8-.4-.7-.2-.9-.1-.8a3.8 3.8 0 0 1 3.8-4c.9 0 1.7.2 2.5.9a4 4 0 0 1 1.2 2.5v.7l-.5.1h-1.4l-.4-.1-.2-.4c0-.5 0-.8-.3-1-.2-.3-.5-.4-.9-.4-.5 0-.8.2-1 .5-.3.4-.3.8-.3 1.2.1.6.4 1.4 1 2.1.5.9 1 1.6 1.7 2.3.6.6 1.2 1.5 1.8 2.4a7 7 0 0 1 1 2.8 4 4 0 0 1-1 3.3 4 4 0 0 1-3.2 1.4zm21.5-.1h-1.8l-.2-.1-.1-.3-.3-1.4-.1-.4-.4-.1h-2.8l-.2.5-.2 1.4-.1.3h-.2l-.3.1H238l-.1-.1v-.3l3.2-17.3.2-.4c0-.1.2 0 .4 0h1.8l.2.4 3.2 17.3v.3l-.4.1zm-4.2-11.6l-1 6.3v.5h2.3v-.5l-1.1-6.3h-.2zm9.8 11.6h-1.5l-.4-.1-.1-.4V23h6.4v2.2l-.4.2h-3.4v4.8h2.5l.5.2v2.2l-.4.1h-2.1l-.5.1v7.8c0 .2 0 .3-.2.4l-.4.1zm9.7 0h-1.6l-.4-.1V23h6.3l.1.4v1.8l-.5.2h-3.3v4.8h2.5l.4.2.1.4v1.8l-.5.1h-2l-.5.1v7.8l-.2.4-.4.1zm13.6 0h-5.5l-.4-.1-.1-.4V23h6.4v2.2l-.4.2H272v4.8h3.4l.4.2v2.2l-.4.1h-3l-.4.1v5.8h3.4l.4.2V41l-.4.1zm6.2-14.1v10c0 .7.2 1.3.7 1.6.6.3 1.1.3 1.7 0 .5-.3.8-.9.7-1.7v-.1l.1-.4.4-.2h1.6c.4 0 .5.3.5.7-.1 1.4-.5 2.5-1.3 3.2s-1.7 1.1-2.8 1.1c-1.3 0-2.3-.4-3-1.2a5.3 5.3 0 0 1-1.2-3.7v-8.6c0-1.6.4-2.8 1.1-3.6.8-.9 1.8-1.3 3-1.3a4 4 0 0 1 3 1.1c.7.7 1 1.8 1.2 3.2 0 .4-.1.7-.5.7h-1.6l-.4-.1V27c0-.8-.3-1.4-.8-1.7-.6-.3-1.1-.3-1.7 0-.5.3-.8.9-.7 1.7zm8.1-2.2V23h7.7l.2.4v1.4c0 .2 0 .4-.2.4l-.4.2h-2v15.2c0 .2 0 .3-.2.4l-.4.1h-1.5l-.4-.1-.1-.4V25.9l-.1-.5h-2c-.2 0-.3 0-.4-.2l-.1-.4zm13.9 16.4a4.2 4.2 0 0 1-4.2-4.3l.2-.4.4-.1h1.5c.4 0 .6.2.6.6 0 .5.1 1 .4 1.3s.6.5 1.1.5c.5 0 .9-.1 1.1-.4.3-.3.5-.7.6-1.1.1-1-.4-2.3-1.7-3.8a23 23 0 0 1-1.6-2l-.6-.7-.5-.7-.4-.8-.4-.7c-.2-.2-.2-.6-.2-.9l-.1-.8a3.8 3.8 0 0 1 3.8-4c.9 0 1.7.2 2.5.9a4 4 0 0 1 1.2 2.5v.7l-.5.1h-1.4l-.4-.1-.2-.4c0-.5 0-.8-.3-1-.2-.3-.5-.4-1-.4-.4 0-.7.2-1 .5-.2.4-.2.8-.2 1.2.1.6.4 1.4 1 2.1.5.9 1 1.6 1.7 2.3.6.6 1.2 1.5 1.8 2.4a7 7 0 0 1 1 2.8 4 4 0 0 1-1 3.3 4 4 0 0 1-3.2 1.4z"/><path fill="#3DD4CD" d="M17.3 509.7v8.4c0 .6.2 1.1.6 1.4.5.3 1 .3 1.4 0 .5-.3.7-.8.6-1.4v-.2l.1-.3.4-.1h1.3c.3 0 .4.2.4.6 0 1.1-.4 2-1 2.7s-1.5.9-2.5.9-1.9-.4-2.5-1c-.7-.8-1-1.8-1-3.2v-7.2c0-1.4.3-2.4 1-3.1.6-.7 1.5-1 2.5-1s1.8.2 2.4.8a4 4 0 0 1 1.1 2.7c0 .4-.1.6-.4.6H20v-.7c0-.6-.2-1.1-.7-1.4-.4-.3-1-.3-1.4 0-.4.3-.6.8-.6 1.4zm8.9-3.1v14.9l-.4.1H24v-15.3l.4-.1h1.3l.3.1.1.3zm2.7-.4h2.8c1 0 1.9.3 2.4 1 .6.7 1 1.7 1 3.1v.7c0 1.7-.5 3-1.4 3.6L35 521c0 .4 0 .5-.3.5H33l-.1-.3-1.2-6-.2-.1h-.8v6l-.2.3-.3.1h-1.7v-15.3l.4-.1zm2.8 2h-1v5h1c.7 0 1.1-.5 1.1-1.5v-2c0-1-.4-1.6-1-1.6zm7.3 1.5v8.4c0 .6.2 1.1.6 1.4.5.3 1 .3 1.4 0 .5-.3.7-.8.6-1.4v-.2l.1-.3.4-.1h1.3c.3 0 .4.2.4.6 0 1.1-.4 2-1 2.7s-1.5.9-2.5.9-1.9-.4-2.5-1c-.7-.8-1-1.8-1-3.2v-7.2c0-1.4.3-2.4 1-3.1.6-.7 1.5-1 2.5-1s1.8.2 2.4.8a4 4 0 0 1 1.1 2.7c0 .4-.1.6-.4.6h-1.7v-.7c0-.6-.2-1.1-.7-1.4-.5-.3-1-.3-1.4 0-.4.3-.7.8-.6 1.4zm11.4 8.3v-11.4l.1-.3.4-.1h1.3l.3.1.1.3v11c0 1.3-.3 2.3-1 3-.6.7-1.4 1-2.5 1-1 0-1.9-.3-2.5-1-.7-.7-1-1.7-1-3v-11.3l.4-.1h1.4l.3.1v11.8c0 .6.3 1.1.7 1.4.5.3 1 .3 1.4 0 .5-.3.7-.8.6-1.4zm6.6-11.4v14.6l-.2.3-.3.1h-1.7v-15.3l.4-.1h1.3l.3.1.1.3zm1.4 1.2v-1.5l.4-.1h5.7l.4.1v1.9h-1.7l-.4.1v12.9l-.1.3-.4.1h-1.6l-.1-.4v-12.5l-.1-.4h-1.7l-.3-.1-.1-.4zm14.6-1.2v14.6l-.1.3-.4.1H71l-.1-.4v-14.9l.4-.1h1.3l.4.1v.3zm8.9 15h-1c-.2 0-.4 0-.4-.3l-3-8.2h-.1v8l-.1.4-.4.1h-1.6l-.1-.4v-14.9l.4-.1h1c.2 0 .4.1.5.3l2.9 8.2c0 .1 0 0 .1 0v-8l.1-.4.4-.1h1.3l.3.1.1.3v14.9l-.4.1zm5.6.1a4 4 0 0 1-2.6-1c-.6-.8-1-1.6-1-2.6l.1-.4.4-.1h1.3c.3 0 .4.2.4.5 0 .5.1.9.4 1.1.2.3.5.5 1 .5.3 0 .7-.2.9-.4.2-.2.4-.5.4-1 .2-.8-.3-1.9-1.4-3.1a17.4 17.4 0 0 1-1.4-1.7l-.4-.6a18.3 18.3 0 0 0-.8-1.3 34 34 0 0 0-.5-1.3l-.1-.7a3.2 3.2 0 0 1 3.2-3.5 3 3 0 0 1 2.1.9c.6.5 1 1.2 1 2v.6l-.4.1h-1.5l-.1-.4c0-.4-.1-.7-.3-.9a1 1 0 0 0-.8-.3 1 1 0 0 0-.9.5l-.2 1c.1.5.4 1.1.8 1.8l1.5 1.9 1.5 2c.5.8.8 1.6.9 2.4 0 1-.2 2-.9 2.8-.7.8-1.5 1.2-2.6 1.2zm4.3-13.9v-1.2l.1-.3.4-.1H98l.3.1.1.3v1.6h-1.8l-.4.1v12.9l-.2.3-.3.1H94v-12.9l-.1-.4h-1.6l-.4-.1v-.4zm10.2-1.2v14.9l-.4.1H100l-.1-.4v-14.9l.4-.1h1.3l.4.1v.3zm9 15h-1c-.2 0-.4 0-.5-.3l-2.9-8.2h-.1v8l-.1.4-.4.1h-1.6l-.1-.4v-14.9l.4-.1h1c.2 0 .4.1.4.3l3 8.2c0 .1 0 0 0 0h.1v-8l.1-.4.4-.1h1.3l.3.1.1.3v14.9l-.4.1zm4.6-11.9v8.4c0 .6.2 1.1.6 1.4.5.3 1 .3 1.4 0 .5-.3.7-.8.6-1.4v-.2l.1-.3.4-.1h1.3c.3 0 .4.2.4.6 0 1.1-.4 2-1 2.7s-1.5.9-2.5.9-1.9-.4-2.5-1c-.7-.8-1-1.8-1-3.2v-7.2c0-1.4.3-2.4 1-3.1.6-.7 1.5-1 2.5-1s1.8.2 2.4.8a4 4 0 0 1 1.1 2.7c0 .4-.1.6-.4.6h-1.7v-.7c0-.6-.2-1.1-.7-1.4-.5-.3-1-.3-1.4 0-.4.3-.6.8-.6 1.4zm5.9-1.9v-1.2l.1-.3.4-.1h5.7l.3.1.1.3v1.6h-1.8l-.4.1v12.9l-.2.3-.3.1h-1.6v-12.9l-.1-.4H122l-.4-.1v-.4zm10.3-1.2v14.6l-.1.3-.4.1h-1.6l-.1-.4v-14.9l.4-.1h1.3l.4.1v.3zm3.9 15h-1.6l-.1-.4v-14.9l.4-.1h4.6l.4.1v1.9h-2.8l-.4.1v4.1h2.2c.1 0 .2 0 .3.2l.1.3v1.2l-.1.3-.3.1h-2.2v6.7l-.1.3-.4.1z"/><path fill="#009BFF" d="M190.9 509.7v8.4c0 .6.1 1.1.6 1.4.5.3 1 .3 1.4 0 .5-.3.7-.8.6-1.4v-.2l.1-.3.4-.1h1.3c.3 0 .4.2.4.6 0 1.1-.4 2-1 2.7s-1.5.9-2.5.9-1.9-.4-2.5-1c-.7-.8-1-1.8-1-3.2v-7.2c0-1.4.3-2.4 1-3.1.6-.7 1.4-1 2.5-1 1 0 1.8.2 2.4.8a4 4 0 0 1 1.1 2.7c0 .4-.1.6-.4.6h-1.7v-.7c0-.6-.2-1.1-.7-1.4-.5-.3-1-.3-1.4 0-.4.3-.7.8-.6 1.4zm8.9-3.1v14.6l-.1.3-.3.1h-1.7l-.1-.4v-14.9l.4-.1h1.4l.3.1v.3zm2.6-.4h2.9c1 0 1.8.3 2.4 1 .6.7.9 1.7.9 3.1v.7c0 1.7-.5 3-1.3 3.6l1.3 6.5c0 .4 0 .5-.3.5h-1.7v-.3l-1.2-6-.2-.1h-.9v6l-.1.3-.3.1H202l-.1-.4v-14.9l.4-.1zm2.9 2h-1.1v5h1.1c.7 0 1-.5 1-1.5v-2c0-1-.3-1.6-1-1.6zm7.3 1.5v8.4c0 .6.1 1.1.6 1.4.5.3 1 .3 1.4 0 .5-.3.7-.8.6-1.4v-.2l.1-.3.4-.1h1.3c.3 0 .4.2.4.6a4 4 0 0 1-1 2.7c-.7.6-1.5.9-2.5.9s-2-.4-2.6-1a5 5 0 0 1-1-3.2v-7.2c0-1.4.4-2.4 1-3.1.7-.7 1.5-1 2.6-1 1 0 1.8.2 2.4.8a4 4 0 0 1 1 2.7c.1.4 0 .6-.3.6h-1.7v-.7c0-.6-.2-1.1-.7-1.4-.5-.3-1-.3-1.4 0-.5.3-.7.8-.6 1.4zM224 518v-11.4l.1-.3.4-.1h1.3l.3.1.1.3v11c0 1.3-.3 2.3-1 3-.6.7-1.4 1-2.5 1-1 0-2-.3-2.6-1-.6-.7-1-1.7-1-3v-11l.2-.3.3-.1h1.3l.4.1v11.8c0 .6.2 1.1.7 1.4.5.3 1 .3 1.4 0 .5-.3.7-.8.6-1.4zm6.5-11.4v14.9l-.4.1h-1.7v-15.3l.3-.1h1.4l.3.1.1.3zm1.5 1.2v-1.5l.4-.1h5.7l.3.1.1.3v1.6h-1.8l-.4.1v12.9l-.2.3-.3.1h-1.6v-12.9l-.1-.4h-1.7l-.4-.1v-.4zm12.8-1.6h2.9c1 0 1.8.3 2.4 1 .6.7.9 1.7.9 3.1v.7c0 1.7-.5 3-1.4 3.6l1.3 6.5c.1.4 0 .5-.2.5h-1.9v-.3l-1.2-6-.3-.1h-.8v6l-.1.3-.4.1h-1.6l-.1-.4v-14.9l.4-.1zm2.9 2h-1.1v5h1.1c.7 0 1-.5 1-1.5v-2c0-1-.3-1.6-1-1.6zm12.2 13.4h-1.7l-.1-.3-.2-1.2-.1-.4H255l-.2.4-.2 1.2v.2h-.2l-.2.1h-1.6l-.1-.1v-.3l2.7-14.6c0-.2.1-.3.2-.3l.3-.1h1.6l.1.4 2.8 14.6v.3l-.4.1zm-3.6-9.8l-.9 5.3v.4h2v-.4l-.9-5.3v-.1h-.2zm7.9-5.2v14.9l-.4.1H262v-15.3l.4-.1h1.3l.3.1.1.3zm5.2 15.1a4 4 0 0 1-2.6-1c-.6-.8-1-1.6-1-2.6l.1-.4.4-.1h1.3c.3 0 .4.2.4.5 0 .5.1.9.4 1.1.2.3.5.5 1 .5.3 0 .7-.2.9-.4.2-.2.4-.5.4-1 .2-.8-.3-1.9-1.4-3.1a17.4 17.4 0 0 1-1.4-1.7l-.4-.6a18.3 18.3 0 0 0-.8-1.3 34 34 0 0 0-.5-1.3l-.1-.7a3.2 3.2 0 0 1 3.2-3.5 3 3 0 0 1 2.1.9c.6.5 1 1.2 1 2v.6l-.4.1h-1.5l-.1-.4c0-.4-.1-.7-.3-.9a1 1 0 0 0-.8-.3 1 1 0 0 0-.9.5l-.2 1c.1.5.4 1.1.8 1.8l1.5 1.9 1.5 2c.5.8.8 1.6.9 2.4 0 1-.2 2-.9 2.8-.7.8-1.5 1.2-2.6 1.2zm11.9-11.4v7.2c0 1.4-.3 2.4-1 3.1-.6.7-1.4 1-2.5 1-1 0-1.9-.3-2.5-1-.7-.7-1-1.7-1-3v-7.3c0-1.4.3-2.4 1-3.1.6-.7 1.4-1 2.5-1 1 0 2 .3 2.6 1 .6.7 1 1.7 1 3.1zm-2.2 7.8v-8.4c0-.6-.1-1.1-.6-1.4-.5-.3-1-.3-1.4 0-.5.3-.7.8-.6 1.4v8.4c0 .6.1 1.1.6 1.4.5.3 1 .3 1.4 0 .5-.3.7-.8.6-1.4zm10.9 3.5h-1c-.2 0-.4 0-.4-.3l-3-8.2h-.1v8.4l-.4.1h-1.7v-15.3l.3-.1h1c.3 0 .4.1.5.3l2.9 8.2c0 .1.1 0 .1 0v-8c0-.2 0-.3.2-.4l.3-.1h1.3l.4.1v15.2l-.4.1zm9.4 0h-1c-.3 0-.4 0-.5-.3l-2.9-8.2h-.1v8l-.1.4-.4.1h-1.6l-.1-.4v-14.9l.4-.1h1c.2 0 .4.1.4.3l3 8.2c0 .1 0 0 0 0h.1v-8l.1-.4.3-.1h1.4l.3.1.1.3v14.9l-.4.1zm7.6 0h-4.8l-.1-.4v-14.6l.1-.3.3-.1h4.7l.3.1.1.3v1.6h-2.9l-.3.1-.1.4v3.7h2.9c.1 0 .3 0 .3.2l.1.3v1.5l-.4.1h-2.8l-.1.5v4.5h2.9l.3.1.1.4v1.5l-.4.1zm-2-16.2h-.7c-.2 0-.2 0-.2-.2v-2.5l.4-.1h1.3c.4 0 .5.2.3.6l-.6 1.9-.2.3h-.2z"/><path fill="#6D6D6D" d="M8 356c.4 0 .7 0 .9-.2l.2-.4v-9l.3-.1h1.3v8.1c0 1.2-.2 2-.6 2.5-.4.5-1 .7-2 .7h-.3v-1.4l.3-.1zm5.7-1.8v.7c0 .9.3 1.3.8 1.3l.6-.2.2-.7v-.2l.1-.1.2-.1h1.2v.3c.1.6 0 1.1-.5 1.7-.4.5-1 .8-1.8.8-.6 0-1.2-.3-1.7-.8-.5-.4-.7-1.2-.7-2.2v-2.3c0-1 .2-1.8.7-2.2.5-.5 1-.8 1.7-.8s1.3.3 1.7.8c.5.4.8 1.2.8 2.2v1.1l-.1.3H14l-.2.1v.3zm1.6-2.1c0-.8-.2-1.2-.8-1.2-.5 0-.7.4-.8 1.2v.2h1.6v-.2zm6.7-2.6h1.2v.5c.3-.3.7-.5 1.3-.6.6 0 1.2.2 1.5.7.4.5.6 1.2.6 2.1v2.7c0 1-.2 1.6-.6 2.1-.3.5-.9.7-1.5.7-.5 0-1-.3-1.2-.7v3.2l-.1.2-.3.1h-1.2v-10.8c0-.2 0-.3.3-.3zm1.3 2.7v2.7c0 .9.3 1.3.8 1.3s1-.4 1-1.3v-2.7c0-.9-.4-1.3-1-1.3s-.8.4-.8 1.3zm9.4-.2v4.5c0 .3 0 .5.2.8 0 .2-.1.3-.4.3h-1.1l-.1-.5c-.4.4-.8.6-1.4.6a2 2 0 0 1-1.5-.6c-.3-.4-.5-1-.5-1.6v-.7c0-.8.3-1.4.9-1.7l.5-.3.6-.2.5-.1c.5-.2.7-.5.7-.8 0-.2 0-.4-.2-.6a.7.7 0 0 0-.5-.2l-.6.3c-.2.2-.2.4-.2.7v.2l-.3.1h-1.2v-.3c0-.7.2-1.3.6-1.7.5-.5 1-.8 1.7-.8a2.4 2.4 0 0 1 2.3 2.5zm-2.4 4.2c.3 0 .5-.1.6-.3l.2-1v-1.3H31l-.3.2-.7.3a1 1 0 0 0-.5.9c0 .8.3 1.2.8 1.2zm6.9-5.2h-.5c-.4 0-.7.2-.7.5l-.1 1.1v4.9l-.3.1h-1.3v-8h1.5v.4a2 2 0 0 1 1.2-.5h.5v1.5h-.3zm1.3 3.4v-8l.3-.1H40l.1.3v8.8l.3.5.6.2h.2l.1.3v1.1l-.3.1c-1 0-1.6-.2-2-.7a5 5 0 0 1-.5-2.5zm5.4-.2v.7c0 .9.3 1.3.8 1.3l.5-.2c.2-.2.3-.4.3-.7v-.2l.1-.1.2-.1H47v.3c0 .6-.1 1.1-.5 1.7-.4.5-1 .8-1.8.8-.7 0-1.2-.3-1.7-.8-.5-.4-.7-1.2-.7-2.2v-2.3c0-1 .2-1.8.7-2.2.5-.5 1-.8 1.7-.8s1.3.3 1.7.8c.5.4.7 1.2.7 2.2v1.4h-2.9l-.2.1-.1.3zm1.6-2.1c0-.8-.3-1.2-.8-1.2s-.8.4-.8 1.2v.2h1.6v-.2zm2.7 4.6c0-.3 0-.5.2-.7l.7-.2c.2 0 .4 0 .6.2l.3.5c0 .2.1.5 0 .8l-.2.9-.8 1h-.2l-.3-.2c-.1 0-.1-.1 0-.2l.4-.8c0-.2 0-.3-.2-.4l-.3-.4-.2-.5zm-40.4 17c.2 0 .4-.2.5-.6v-8.6l.1-.2h1.5v8.1c0 1.9-.7 2.8-2.1 2.8h-.3v-1.4l.3-.1zm.4-11.1c0-.3.1-.5.3-.7l.6-.2c.3 0 .5 0 .7.2.2.2.2.4.2.7 0 .2 0 .5-.2.6a1 1 0 0 1-.7.3l-.6-.3a.8.8 0 0 1-.3-.6zm3-.7c0-.2 0-.5.2-.6.2-.2.4-.3.7-.3.2 0 .4 0 .5.2l.4.5v.8c0 .3 0 .6-.3 1l-.7 1h-.3l-.3-.3v-.2c.3-.3.4-.6.4-.8v-.4c-.2 0-.3-.2-.5-.3a.8.8 0 0 1-.1-.6zm7.8 4.7v5.4c.1.2 0 .3-.3.3h-1.1l-.1-.5c-.4.4-.8.6-1.4.6a2 2 0 0 1-1.5-.6c-.3-.4-.5-1-.5-1.6v-.7c0-.8.3-1.4.9-1.7l.5-.3.6-.2.5-.1c.5-.2.7-.5.7-.8 0-.2 0-.4-.2-.6a.7.7 0 0 0-.5-.2c-.3 0-.4.1-.6.3s-.2.4-.2.7v.2l-.3.1h-1.2v-.3c0-.7.2-1.3.6-1.7.5-.5 1-.8 1.7-.8a2.4 2.4 0 0 1 2.3 2.5zm-2.5 4.3c.3 0 .5-.1.6-.3l.2-1v-1.3h-.2l-.2.2-.7.3a1 1 0 0 0-.5.9c0 .8.3 1.2.8 1.2zm4-1.3V367c0-.9.2-1.6.6-2 .3-.5.8-.8 1.5-.8.6 0 1 .3 1.3.7v-.5h1.5l.1.2v7.8c0 1-.2 1.6-.7 2.2-.5.5-1.2.8-2 .8-1 0-1.8-.5-2.3-1.5-.1-.2 0-.3.1-.4l1-.3c.2 0 .4 0 .5.2.2.3.4.4.7.4a1 1 0 0 0 .7-.2l.3-.5v-1.3c-.2.5-.7.7-1.2.7-.7 0-1.2-.3-1.5-.7-.4-.5-.6-1.2-.6-2zm3.4 0V367c0-.9-.3-1.3-.9-1.3s-.9.4-.9 1.3v2.7c0 .9.3 1.3 1 1.3s.8-.4.8-1.3zm3-7c0-.3 0-.5.2-.7l.7-.2c.2 0 .4 0 .6.2.2.2.3.4.3.7 0 .2-.1.5-.3.6l-.6.3c-.3 0-.5-.1-.7-.3s-.2-.4-.2-.6zm1.4 9.7H27v-8h1.5v7.9l-.2.1zm3.2-6c0 .2 0 .4.3.6l.8.6.9.7.7.9c.2.4.3.7.2 1.1 0 .6-.3 1.1-.7 1.5-.4.4-1 .7-1.6.7-.7 0-1.3-.3-1.7-.8a2 2 0 0 1-.7-1.5v-.3h1.5l.1.3c0 .2 0 .4.2.5a.8.8 0 0 0 1.1 0c.2-.1.2-.3.3-.5 0-.3-.1-.5-.3-.8l-.7-.6-.8-.6c-.2-.2-.6-.4-.8-.8a2 2 0 0 1-.3-1c0-.6.1-1.1.6-1.5a2.1 2.1 0 0 1 3 0c.4.4.6 1 .6 1.6v.2h-1.4v-.3l-.2-.5a.6.6 0 0 0-.5-.2c-.2 0-.3 0-.4.2-.2.1-.2.3-.2.4zm8.5 0c0 .2.2.4.4.6l.8.6.9.7.7.9c.2.4.3.7.2 1.1 0 .6-.3 1.1-.7 1.5-.4.4-1 .7-1.6.7-.7 0-1.3-.3-1.7-.8a2 2 0 0 1-.7-1.5v-.3h1.5l.1.3c0 .2 0 .4.2.5a.8.8 0 0 0 1.1 0c.2-.1.2-.3.3-.5 0-.3-.1-.5-.3-.8l-.7-.6-.8-.6c-.2-.2-.6-.4-.8-.8a2 2 0 0 1-.3-1c0-.6.1-1.1.6-1.5a2.1 2.1 0 0 1 3 0c.4.4.6 1 .6 1.6v.2h-1.4v-.3l-.2-.5a.6.6 0 0 0-.5-.2c-.2 0-.3 0-.4.2-.2.1-.2.3-.2.4zm8.9.8v2.3c0 1-.3 1.8-.7 2.3-.5.4-1 .7-1.8.7-.6 0-1.2-.3-1.7-.7-.5-.5-.7-1.3-.7-2.3V367c0-1 .3-1.7.7-2.2.5-.5 1-.8 1.7-.8s1.3.3 1.8.8c.4.5.7 1.2.7 2.2zm-1.7 2.5V367c0-.9-.2-1.3-.8-1.3-.5 0-.8.4-.8 1.3v2.7c0 .9.3 1.3.8 1.3.6 0 .8-.4.8-1.3zm4.7-5.1v5.1c0 .9.2 1.3.8 1.3s.9-.4.9-1.3v-5.3h1.5l.1.2v7.7l-.3.1h-1.2v-.6c-.4.4-.8.6-1.3.7-.7 0-1.2-.2-1.6-.7-.4-.5-.6-1.2-.6-2v-5.2l.1-.2h1.5v.2zm13 7.8h-1.3v-5.5c0-.9-.3-1.3-1-1.3s-.8.4-.8 1.3v5.3l-.3.1h-1.2l-.1-.3v-5.1c0-.9-.3-1.3-.9-1.3s-.8.4-.8 1.3v5l-.1.3-.3.1h-1.2v-8h1.4v.7a2 2 0 0 1 1.3-.8 2 2 0 0 1 1.7.8c0-.1 0-.2.2-.3l.6-.3.9-.2a2 2 0 0 1 1.6.7c.4.5.6 1.2.6 2.1v5.3l-.3.1zm1.7-9.7c0-.3.1-.5.3-.7l.6-.2c.3 0 .5 0 .7.2l.2.7c0 .2 0 .5-.2.6a1 1 0 0 1-.7.3c-.2 0-.5-.1-.6-.3l-.3-.6zm1.4 9.7h-1.2v-8h1.5v7.9l-.3.1zm3.2-6l.3.6.8.6.9.7.7.9c.2.4.3.7.3 1.1 0 .6-.3 1.1-.7 1.5-.5.4-1 .7-1.7.7s-1.3-.3-1.7-.8c-.4-.4-.6-1-.6-1.5v-.3H71v.3c0 .2.1.4.3.5a.8.8 0 0 0 1 0c.2-.1.3-.3.3-.5 0-.3 0-.5-.3-.8l-.7-.6-.8-.6c-.3-.2-.5-.4-.7-.8a2 2 0 0 1-.4-1 2.1 2.1 0 0 1 3.6-1.5c.5.4.7 1 .7 1.6l-.1.2h-1.3l-.1-.3c0-.2 0-.4-.2-.5a.6.6 0 0 0-.5-.2c-.1 0-.3 0-.4.2l-.2.4zm-58.2 15v5.4c.1.2 0 .3-.2.3h-1.2v-.5a2 2 0 0 1-1.4.6 2 2 0 0 1-1.5-.6c-.4-.4-.6-1-.6-1.6v-.7c0-.8.4-1.4.9-1.7l.5-.3.6-.2.5-.1c.5-.2.7-.5.7-.8 0-.2 0-.4-.2-.6a.7.7 0 0 0-.5-.2c-.2 0-.4.1-.5.3l-.2.7-.1.2-.3.1H8.4v-.3c-.1-.7.1-1.3.6-1.7a2 2 0 0 1 1.6-.8c.7 0 1.2.3 1.7.7.4.5.7 1.1.7 1.8zm-2-3.2h-.7l-.1-.3-.5-1.3c-.1-.3 0-.5.2-.5h1l.2.1.1.3v1.6l-.2.1zm-.5 7.5c.3 0 .6-.1.7-.3l.2-1V383h-.2l-.3.2-.7.3a1 1 0 0 0-.5.9c0 .8.3 1.2.8 1.2zm7.2-1.8v-8l.3-.1h1.2v8.1l.1 1c0 .2.2.4.3.5l.5.2h.3v1.4l-.3.1c-.9 0-1.5-.2-1.9-.7-.4-.5-.5-1.3-.5-2.5zm3.5-7.2c0-.2 0-.5.3-.6.1-.2.4-.3.6-.3.2 0 .4 0 .6.2l.3.5c0 .2.1.5 0 .8l-.2 1-.8 1h-.2l-.3-.3c-.1 0-.1 0 0-.2l.4-.8-.1-.4c-.2 0-.3-.2-.4-.3a.8.8 0 0 1-.2-.6zm4.6 7v.7c0 .9.2 1.3.8 1.3l.5-.2c.2-.2.2-.4.3-.7v-.3l.3-.1h1.1l.1.3c0 .6-.1 1.1-.6 1.7-.4.5-1 .8-1.7.8s-1.3-.3-1.7-.7c-.5-.5-.7-1.3-.7-2.3v-2.3c0-1 .2-1.8.7-2.2.4-.5 1-.8 1.7-.8s1.2.3 1.7.8c.5.4.7 1.2.7 2.2v1.4h-3l-.3.1v.3zm1.6-2.1c0-.8-.3-1.2-.8-1.2s-.8.4-.8 1.2v.3h1.5v-.3zm-.5-3.4h-.6l-.2-.1v-1.9h1.4c.2 0 .2 0 .1.4l-.5 1.3v.3h-.2zm11.6 8.9h-1.2l-.1-.3v-5.1c0-.9-.3-1.3-.9-1.3s-.9.4-.9 1.3v5.3l-.3.1h-1.2v-5.5c0-.9-.4-1.3-1-1.3s-.8.4-.8 1.3v5.3l-.3.1h-1.3v-8H32v.7a2 2 0 0 1 1.4-.8 2 2 0 0 1 1.6.8c0-.1 0-.2.2-.3l.6-.3.9-.2a2 2 0 0 1 1.6.7c.4.5.6 1.2.6 2.1v5.3l-.3.1zm6.5-5.2v2.3c0 1-.2 1.8-.7 2.3-.5.4-1 .7-1.7.7s-1.2-.3-1.7-.7c-.5-.5-.7-1.3-.7-2.3v-2.3c0-1 .2-1.7.7-2.2.5-.5 1-.8 1.7-.8s1.3.3 1.7.8c.5.5.7 1.2.7 2.2zm-1.6 2.5v-2.7c0-.9-.3-1.3-.8-1.3s-.8.4-.8 1.3v2.7c0 .9.3 1.3.8 1.3s.8-.4.8-1.3zm3.1-.5v-3.2c0-.1 0-.2-.2-.2h-.2l-.1-.3V379h.3l.2-.2v-1.5l.3-.1H48l.1.3v1.3l.2.1h.6v1.5h-.6c-.1 0-.2 0-.2.2v4.2l.3.5.6.2h.2l.1.3v1.1l-.3.1c-1 0-1.6-.2-2-.7a5 5 0 0 1-.5-2.5zm3.8-6.5c0-.3.1-.5.3-.7l.6-.2c.3 0 .5 0 .7.2.2.2.2.4.2.7 0 .2 0 .5-.2.6a1 1 0 0 1-.7.3l-.6-.3a.8.8 0 0 1-.3-.6zm1.4 9.7h-1.2v-8H52v7.9l-.3.1zm6.7-5.2v2.3c0 1-.3 1.8-.8 2.3-.4.4-1 .7-1.7.7s-1.2-.3-1.7-.7c-.5-.5-.7-1.3-.7-2.3v-2.3c0-1 .2-1.7.7-2.2.5-.5 1-.8 1.7-.8s1.3.3 1.7.8c.5.5.8 1.2.8 2.2zm-1.7 2.5v-2.7c0-.9-.2-1.3-.8-1.3s-.8.4-.8 1.3v2.7c0 .9.3 1.3.8 1.3s.8-.4.8-1.3zm6.5 2.4v-5.1c0-.9-.3-1.3-.9-1.3s-.9.4-.9 1.3v5.3l-.3.1h-1.2v-8h1.4v.5c.4-.4.8-.6 1.3-.6.7 0 1.2.1 1.6.6.4.5.6 1.2.6 2.1v5.3l-.3.1h-1.3v-.3zm6.3-4.9c-.2-.1-.3-.4-.3-.6l.3-.7.6-.2c.2 0 .5 0 .7.2.2.2.3.4.3.7s-.1.5-.3.6c-.2.2-.4.3-.7.3s-.4 0-.6-.3zm0 5a1 1 0 0 1-.3-.7l.3-.7.6-.2c.2 0 .5 0 .7.2.2.2.3.4.3.7s-.1.5-.3.6c-.2.2-.4.3-.7.3s-.4 0-.6-.3zm-56.7 14.9h-1.2v-.5c-.3.3-.7.5-1.3.6a2 2 0 0 1-1.6-.7 4 4 0 0 1-.5-2v-2.8c0-1 .2-1.6.5-2 .4-.6 1-.8 1.6-.8.5 0 1 .3 1.2.7v-3.5l.1-.2.2-.1h1.3v11.2l-.3.1zm-1.3-2.7v-2.7c0-.9-.3-1.3-.8-1.3-.6 0-1 .4-1 1.3v2.7c0 .9.4 1.3 1 1.3.5 0 .8-.4.8-1.3zm4.7-.7v.7c0 .9.3 1.3.8 1.3l.6-.2.2-.7v-.2l.1-.1.2-.1h1.2v.3c.1.6 0 1.1-.5 1.7-.4.5-1 .8-1.8.8-.6 0-1.2-.3-1.7-.8-.5-.4-.7-1.2-.7-2.2v-2.3c0-1 .2-1.8.7-2.2.5-.5 1-.8 1.7-.8s1.3.3 1.7.8c.5.4.8 1.2.8 2.2v1.1l-.1.3h-2.9l-.2.1v.3zm1.6-2.1c0-.8-.2-1.2-.8-1.2-.5 0-.8.4-.8 1.2v.2h1.6v-.2zm-.5-3.4h-.6l-.1-.1v-2H18c.2 0 .3 0 .2.4l-.5 1.3-.1.3h-.2zm4.9 8.9H21v-6.5c0-.1-.1-.2-.3-.2h-.2v-1.4h.2c.2 0 .2-.1.2-.2 0-1.2.2-2 .6-2.4.3-.5 1-.7 1.9-.7h.2l.1.3v1.1l-.3.1c-.4 0-.6.1-.7.3a3 3 0 0 0-.2 1.3l.2.1h.6l.1.3v1.2h-.7c-.1 0-.2 0-.2.2v6.3l-.3.1zm7.1-5.2v2.3c0 1-.2 1.8-.7 2.3-.5.4-1 .7-1.7.7s-1.3-.3-1.7-.7c-.5-.5-.8-1.3-.8-2.3v-2.3c0-1 .3-1.8.8-2.2.4-.5 1-.8 1.7-.8s1.2.3 1.7.8c.5.4.7 1.2.7 2.2zm-1.6 2.5v-2.7c0-.9-.3-1.3-.8-1.3s-.8.4-.8 1.3v2.7c0 .9.2 1.3.8 1.3s.8-.4.8-1.3zm4.6-5v5c0 .9.3 1.3.9 1.3s.8-.4.8-1.3v-5l.1-.3h1.5v7.9l-.3.1h-1.1l-.1-.3v-.3c-.3.4-.7.6-1.3.7-.6 0-1.2-.2-1.5-.7-.4-.5-.6-1.2-.6-2v-5.4h1.5v.2zm4.9 4.5v-8l.3-.1h1.2l.1.3v8.8l.3.5.6.2h.2l.1.3v1.1l-.3.1c-1 0-1.6-.2-2-.7a5 5 0 0 1-.5-2.5zm5.4-.2v.7c0 .9.3 1.3.8 1.3l.5-.2c.2-.2.3-.4.3-.7v-.3l.3-.1h1.2v.3c0 .6-.1 1.1-.5 1.7-.4.5-1 .8-1.8.8-.7 0-1.2-.3-1.7-.8-.5-.4-.7-1.2-.7-2.2v-2.3c0-1 .2-1.8.7-2.2.4-.5 1-.8 1.7-.8s1.2.3 1.7.8c.5.4.7 1.2.7 2.2v1.5h-2.9l-.2.1-.1.3zm1.6-2.1c0-.8-.3-1.2-.8-1.2s-.8.4-.8 1.2v.2h1.6v-.2zm11.1 5.5h-1.2v-5.5c0-.9-.4-1.3-1-1.3s-.8.4-.8 1.3v5l-.1.3-.3.1h-1.2v-5.4c0-.9-.3-1.3-1-1.3-.5 0-.8.4-.8 1.3v5.3l-.3.1h-1.2l-.1-.3v-7.7h1.4v.7a2 2 0 0 1 1.4-.8 2 2 0 0 1 1.6.8l.2-.3.6-.3 1-.2a2 2 0 0 1 1.5.7c.4.5.6 1.2.6 2.1v5.3l-.3.1zm3.3-3.4v.7c0 .9.3 1.3.8 1.3l.6-.2.2-.7v-.2l.1-.1.2-.1h1.2v.3c.1.6-.1 1.1-.5 1.7-.4.5-1 .8-1.8.8-.6 0-1.2-.3-1.7-.8-.5-.4-.7-1.2-.7-2.2v-2.3c0-1 .2-1.8.7-2.2.5-.5 1-.8 1.7-.8s1.3.3 1.7.8c.5.4.7 1.2.7 2.2v1.5h-2.9l-.2.1v.3zm1.6-2.1c0-.8-.3-1.2-.8-1.2s-.8.4-.8 1.2v.2h1.6v-.2zm6.5 5.2v-5.1c0-.9-.3-1.3-1-1.3s-.8.4-.8 1.3v5.3l-.3.1h-1.2l-.1-.3v-7.7h1.5v.5c.4-.4.8-.6 1.3-.7.7 0 1.2.2 1.6.7.4.5.6 1.2.6 2.1v5.3l-.3.1h-1.3v-.3zm3.1-2.9v-3.2l-.1-.2h-.3v-1.4h.3l.1-.2V392l.3-.1h1.3v1.6l.2.1h.7v1.5h-.7c-.1 0-.2 0-.2.2v4.2l.3.5.6.2h.3v1.4l-.3.1c-1 0-1.6-.2-2-.7a5 5 0 0 1-.5-2.5z"/><circle cx="42.6" cy="323" r="12.1" fill="#3DD4CD"/><path fill="#FFF" d="M41.8 326v.9h2.7l.2.1.1.3v1h-4.5V326a3.4 3.4 0 0 1 .5-1.8 9.2 9.2 0 0 1 .7-1l.2-.3.2-.2v-.1a11.4 11.4 0 0 0 .7-1 5.8 5.8 0 0 0 .5-.8l.2-.7c0-.7-.3-1-.8-1s-.8.4-.8 1.2v.2h-1.4v-.2c0-.8.1-1.4.5-1.9s1-.7 1.7-.7c.5 0 1 .1 1.3.4.6.4.9 1 1 1.8 0 .7-.2 1.3-.6 2l-.5.7a10.6 10.6 0 0 0-.6.9 32 32 0 0 0-1.1 1.7 2 2 0 0 0-.2.8z"/><path fill="#6D6D6D" d="M249 361c.4 0 .7 0 .8-.2l.2-.4v-8.8l.1-.2.3-.1h1.2v8.1c0 1.2-.1 2-.5 2.5s-1.1.7-2 .7h-.3v-1.4l.2-.1zm5.7-1.8v.7c0 .9.2 1.3.8 1.3l.5-.2c.2-.2.2-.4.3-.7v-.3l.3-.1h1.1l.1.3c0 .6-.1 1.1-.6 1.7-.4.5-1 .8-1.7.8s-1.3-.3-1.7-.8c-.5-.4-.7-1.2-.7-2.2v-2.3c0-1 .2-1.8.7-2.2.4-.5 1-.8 1.7-.8s1.2.3 1.7.8c.5.4.7 1.2.7 2.2v1.4H255l-.3.1v.3zm1.6-2.1c0-.8-.3-1.2-.8-1.2s-.8.4-.8 1.2v.2h1.5v-.2zm9.2-1.1h-.5c-.4 0-.6.2-.7.5v5.8l-.2.2-.2.1h-1.2l-.1-.3v-7.7h1.5l.1.2v.2c.3-.3.7-.5 1.2-.5h.4v1.5h-.3zm2.7 3.2v.7c0 .9.3 1.3.8 1.3l.6-.2.2-.7v-.2l.1-.1.2-.1h1.2v.3c0 .6-.1 1.1-.5 1.7-.4.5-1 .8-1.8.8-.7 0-1.2-.3-1.7-.8-.5-.4-.7-1.2-.7-2.2v-2.3c0-1 .2-1.8.7-2.2.5-.5 1-.8 1.7-.8s1.3.3 1.7.8c.5.4.7 1.2.7 2.2v1.4h-2.9l-.2.1v.3zm1.6-2.1c0-.8-.3-1.2-.8-1.2s-.8.4-.8 1.2v.2h1.6v-.2zm-.5-3.4h-.6l-.2-.1V352l.1-.3h1.3c.2 0 .3 0 .2.4l-.5 1.3-.1.3h-.2zm4.9 8.9H273l-.1-.3v-6.1c0-.1 0-.2-.2-.2h-.2v-1.4h.2l.2-.2c0-1.2.2-2 .5-2.4.4-.5 1-.7 2-.7h.2l.1.3v1.1l-.3.1c-.4 0-.6.1-.7.3a3 3 0 0 0-.2 1.3l.2.1h.6l.1.3v1.2h-.7c-.1 0-.2 0-.2.2v6.3l-.3.1zm2.3-3.2v-8l.3-.1h1.3v9.1l.3.5.6.2h.3v1.4l-.3.1c-1 0-1.6-.2-2-.7a5 5 0 0 1-.5-2.5zm5.5-.2v.7c0 .9.2 1.3.7 1.3l.6-.2.2-.7v-.2l.1-.1.2-.1h1.2v.3c.1.6 0 1.1-.5 1.7-.4.5-1 .8-1.8.8-.6 0-1.2-.3-1.7-.8-.5-.4-.7-1.2-.7-2.2v-2.3c0-1 .2-1.8.7-2.2.5-.5 1-.8 1.7-.8s1.3.3 1.7.8c.5.4.8 1.2.8 2.2v1.1l-.1.3h-2.9l-.2.1v.3zm1.5-2.1c0-.8-.2-1.2-.8-1.2-.5 0-.7.4-.8 1.2v.2h1.6v-.2zm-.5-3.4h-.6l-.1-.1v-1.9h1.3c.2 0 .3 0 .2.4l-.5 1.3-.1.3h-.2zm5.9 9c-.7 0-1.3-.3-1.7-.7-.5-.5-.8-1.3-.8-2.3v-2.3c0-1 .3-1.8.8-2.2.4-.5 1-.8 1.7-.8a2 2 0 0 1 1.7.9c.5.5.6 1 .6 1.6v.2l-.3.1h-1.1l-.1-.2v-.2a1 1 0 0 0-.3-.7.8.8 0 0 0-.5-.2c-.6 0-.8.4-.8 1.3v2.7c0 .9.2 1.3.8 1.3l.5-.2c.2-.2.2-.4.2-.7v-.2l.2-.1.2-.1h1.1l.1.3c0 .6-.1 1.1-.6 1.7-.4.5-1 .8-1.7.8zm7.1-.4v-5.1c0-.9-.2-1.3-.8-1.3s-.9.4-.9 1.3v5.3l-.3.1h-1.2l-.1-.3v-10.9l.3-.1h1.2l.1.3v3.5c.3-.4.7-.6 1.2-.7.7 0 1.2.2 1.6.7.4.5.6 1.2.6 2.1v5l-.1.3-.3.1h-1.2v-.3zm3.1-9.4c0-.3 0-.5.3-.7l.6-.2c.3 0 .5 0 .7.2l.2.7c0 .2 0 .5-.2.6a1 1 0 0 1-.7.3c-.2 0-.5-.1-.6-.3l-.3-.6zm1.4 9.7h-1.2l-.1-.3v-7.7h1.5l.1.2v7.7l-.3.1zm3.2-6l.3.6.8.6.9.7.7.9c.2.4.3.7.3 1.1-.1.6-.3 1.1-.8 1.5-.4.4-1 .7-1.6.7-.7 0-1.3-.3-1.7-.8-.4-.4-.6-1-.6-1.5v-.3h1.5v.3c0 .2.1.4.3.5a.8.8 0 0 0 1 0c.2-.1.3-.3.3-.5 0-.3 0-.5-.3-.8l-.7-.6-.8-.6-.7-.7a2 2 0 0 1-.4-1 2.1 2.1 0 0 1 3.6-1.5c.4.3.7.9.7 1.5l-.1.2H305l-.1-.3c0-.2 0-.4-.2-.5a.6.6 0 0 0-.5-.2c-.1 0-.3 0-.4.2l-.2.4zm-57.6 15v4.6c0 .3 0 .5.2.8 0 .2-.1.3-.4.3h-1.1l-.1-.5c-.4.4-.8.6-1.4.6a2 2 0 0 1-1.5-.6c-.3-.4-.5-1-.5-1.6v-.7c0-.8.3-1.4.9-1.7l.5-.3.6-.2.5-.1c.5-.2.7-.5.7-.8 0-.2 0-.4-.2-.6a.7.7 0 0 0-.5-.2l-.6.3c-.2.2-.2.4-.2.7v.2l-.3.1h-1.1l-.1-.3c0-.7.2-1.3.6-1.7.5-.5 1-.8 1.7-.8a2.4 2.4 0 0 1 2.3 2.5zm-1.9-3.2h-.7l-.2-.3-.4-1.3c-.2-.3 0-.5.2-.5h1l.2.1v1.9l-.1.1zm-.5 7.5c.3 0 .5-.1.6-.3l.2-1v-1.3h-.1l-.3.2-.7.3a1 1 0 0 0-.5.9c0 .8.3 1.2.8 1.2zm15.3 1.4h-1.3v-5.5c0-.9-.4-1.3-1-1.3s-.8.4-.8 1.3v5.3l-.3.1h-1.3v-5.4c0-.9-.3-1.3-1-1.3s-.8.4-.8 1.3v5.3l-.3.1H251l-.1-.3v-7.7h1.4l.1.2v.4c.3-.5.8-.7 1.3-.8a2 2 0 0 1 1.6.8l.3-.3.6-.3.8-.2a2 2 0 0 1 1.7.7c.3.5.5 1.2.5 2.1v5.3l-.3.1zm6.5-5.2v2.3c0 1-.3 1.8-.7 2.3-.5.4-1 .7-1.8.7s-1.2-.3-1.7-.7c-.4-.5-.7-1.3-.7-2.3V372c0-1 .3-1.7.7-2.2.5-.5 1-.8 1.7-.8s1.3.3 1.8.8c.4.5.7 1.2.7 2.2zm-1.6 2.5V372c0-.9-.3-1.3-.9-1.3s-.8.4-.8 1.3v2.7c0 .9.3 1.3.8 1.3s.9-.4.9-1.3zm6.4 2.4v-5.1c0-.9-.3-1.3-.9-1.3s-.9.4-.9 1.3v5.3l-.3.1H267v-8h1.4v.5c.4-.4.8-.6 1.3-.6.7 0 1.2.1 1.6.6.4.5.6 1.2.6 2.1v5.3l-.3.1h-1.2l-.1-.3zm11.1-4.9v2.3c0 1-.3 1.8-.7 2.3-.5.4-1.1.7-1.8.7-.6 0-1.2-.3-1.7-.7-.5-.5-.7-1.3-.7-2.3V372c0-1 .2-1.7.7-2.2.5-.5 1-.8 1.7-.8s1.3.3 1.8.8c.4.5.7 1.2.7 2.2zm-1.7 2.5V372c0-.9-.2-1.3-.8-1.3-.5 0-.8.4-.8 1.3v2.7c0 .9.3 1.3.8 1.3.6 0 .8-.4.8-1.3zm4.4 2.7h-1.2v-11.2l.2-.1h1.3v3.8c.3-.4.7-.6 1.2-.7.7 0 1.2.2 1.6.7.4.5.6 1.2.6 2.1v2.7c0 1-.2 1.6-.6 2.1-.4.5-.9.7-1.6.7-.5 0-.9-.3-1.2-.6v.4l-.3.1zm.3-5.4v2.7c0 .9.3 1.3 1 1.3s.8-.4.8-1.3V372c0-.9-.3-1.3-.9-1.3s-.9.4-.9 1.3zm4.3 6.8c.3 0 .4-.2.5-.6v-8.6l.1-.2h1.5v8.1c0 1.9-.7 2.8-2.1 2.8h-.2l-.1-.3v-1.1l.3-.1zm.5-11.1c0-.3 0-.5.2-.7l.7-.2c.2 0 .4 0 .6.2.2.2.3.4.3.7 0 .2-.1.5-.3.6l-.6.3c-.3 0-.5-.1-.7-.3s-.2-.4-.2-.6zm4.8 6.3v.7c0 .9.2 1.3.7 1.3l.6-.2.2-.7v-.2l.1-.1.2-.1h1.2l.1.3a3 3 0 0 1-.6 1.7c-.4.5-1 .8-1.7.8s-1.3-.3-1.8-.7c-.4-.5-.7-1.3-.7-2.3V372c0-1 .3-1.8.7-2.2.5-.5 1-.8 1.8-.8s1.2.3 1.7.8c.4.4.7 1.2.7 2.2v1.1l-.1.3h-2.8l-.3.1v.3zm1.6-2.1c0-.8-.3-1.2-.8-1.2-.6 0-.8.4-.9 1.2v.3h1.7v-.3zm5.3 5.6c-.7 0-1.2-.3-1.7-.7-.5-.5-.7-1.3-.7-2.3V372c0-1 .2-1.8.7-2.2.4-.5 1-.8 1.7-.8a2 2 0 0 1 1.8.9c.4.5.6 1 .5 1.6v.2l-.3.1h-1.1l-.1-.2c-.1 0 0 0 0-.2a1 1 0 0 0-.3-.7.7.7 0 0 0-.5-.2c-.5 0-.8.4-.8 1.3v2.7c0 .9.3 1.3.8 1.3l.5-.2c.2-.2.3-.4.3-.7v-.3l.3-.1h1.2v.3c0 .6-.1 1.1-.5 1.7-.4.5-1 .8-1.8.8zm3.8-3.4v-3c0-.1 0-.2-.2-.2h-.2v-1.4h.2c.2 0 .2-.1.2-.2v-1.5l.3-.1h1.3v1.6l.2.1h.5l.1.3v1.2h-.7c-.1 0-.2 0-.2.2v4.2l.3.5.6.2h.3v1.4l-.3.1c-1 0-1.6-.2-2-.7a5 5 0 0 1-.5-2.5zm3.9-6.4c0-.3 0-.5.2-.7l.7-.2c.2 0 .4 0 .6.2.2.2.3.4.3.7 0 .2-.1.5-.3.6l-.6.3c-.3 0-.5-.1-.7-.3s-.2-.4-.2-.6zm1.3 9.7h-1.2v-8h1.5v7.9l-.3.1zm3.3 0H312l-.1-.3v-6.1c0-.1 0-.2-.2-.2h-.2v-1.4h.2l.2-.2c0-1.2.2-2 .5-2.4.4-.5 1-.7 2-.7h.2l.1.3v1.1l-.3.1c-.4 0-.6.1-.7.3a3 3 0 0 0-.2 1.3l.2.1h.6l.1.3v1.2h-.7c-.1 0-.2 0-.2.2v6.3l-.3.1zM253.7 440c.3 0 .6-.1.8-.3l.1-.4.1-1v-8h1.5l.1.2v7.8c0 1.2-.2 2-.6 2.5-.4.5-1 .7-2 .7h-.3v-1.4h.3zm5.6-2v.9c0 .8.3 1.2.8 1.2.2 0 .4 0 .6-.2l.2-.6v-.3l.1-.1c.1-.1.1 0 .2 0h1.2v.3c0 .5-.1 1-.5 1.6-.4.5-1 .8-1.8.8-.7 0-1.2-.2-1.7-.7-.5-.5-.7-1.3-.7-2.3v-2.2c0-1 .2-1.8.7-2.3.5-.5 1-.7 1.7-.7s1.3.2 1.7.7c.5.5.7 1.2.7 2.3v1.3h-2.9l-.2.1v.3zm1.6-2c0-.7-.3-1.1-.8-1.1s-.8.4-.8 1.1v.3h1.6v-.3zm8.6 5.6c-.7 0-1.2-.2-1.7-.7-.5-.5-.7-1.3-.7-2.3v-2.2c0-1 .2-1.8.7-2.3.4-.5 1-.7 1.7-.7a2 2 0 0 1 1.8.8c.4.5.6 1 .5 1.6v.3h-1.4l-.1-.1v-.3c0-.3-.1-.5-.3-.6a.8.8 0 0 0-.5-.2c-.5 0-.8.4-.8 1.2v2.8c0 .8.3 1.2.8 1.2.2 0 .4 0 .5-.2.2-.1.3-.4.3-.6v-.4h1.5v.3c0 .5-.1 1-.5 1.6-.4.5-1 .8-1.8.8zm7.2-.4v-5.1c0-.8-.3-1.2-.9-1.2s-.9.4-.9 1.2v5.4h-1.5v-11.2h1.5v3.7c.3-.4.7-.6 1.2-.6.7 0 1.2.2 1.6.6.4.5.6 1.2.6 2.1v5.4h-1.6v-.3zm7.8-4.8v2.2c0 1-.2 1.8-.7 2.3-.5.5-1 .7-1.7.7s-1.3-.2-1.7-.7c-.5-.5-.7-1.3-.7-2.3v-2.2c0-1 .2-1.8.7-2.3.4-.5 1-.7 1.7-.7s1.2.2 1.7.7c.5.5.7 1.2.7 2.3zm-1.6 2.5V436c0-.8-.3-1.2-.8-1.2s-.8.4-.8 1.2v2.8c0 .8.2 1.2.8 1.2s.8-.4.8-1.2zm3-7.1c0-.2 0-.4.2-.6.2-.2.4-.3.7-.3l.6.3.3.6c0 .3-.1.5-.3.7l-.6.2c-.3 0-.5 0-.7-.2s-.2-.4-.2-.7zm1.4 9.7H286v-8h1.5v8h-.2zm3.2-6c0 .2 0 .4.3.6l.8.7.9.7.7.8c.2.4.3.8.2 1.2 0 .5-.3 1-.7 1.5-.4.4-1 .6-1.6.6-.7 0-1.3-.2-1.7-.7-.5-.5-.7-1-.7-1.6v-.2h1.5l.1.2c0 .3 0 .4.2.6a.8.8 0 0 0 1.1 0l.3-.6a1 1 0 0 0-.3-.7c-.2-.2-.4-.5-.7-.6l-.8-.6a3 3 0 0 1-.8-.8 2 2 0 0 1-.3-1c0-.7.1-1.2.6-1.6a2.1 2.1 0 0 1 3 0c.4.5.6 1 .6 1.6v.3h-1.4v-.4l-.2-.5a.6.6 0 0 0-.5-.2l-.4.2c-.2.1-.2.3-.2.5zm4-3.7c0-.2 0-.4.2-.6.2-.2.4-.3.7-.3l.6.3.3.6c0 .3-.1.5-.3.7l-.6.2c-.3 0-.5 0-.7-.2s-.2-.4-.2-.7zm1.4 9.7h-1.3v-8h1.5v8h-.2zm3.1-6c0 .2.2.4.4.6l.8.7.9.7.7.8c.2.4.3.8.2 1.2 0 .5-.3 1-.7 1.5-.4.4-1 .6-1.6.6-.7 0-1.3-.2-1.7-.7-.5-.5-.7-1-.7-1.6v-.2h1.5l.1.2c0 .3 0 .4.2.6a.8.8 0 0 0 1.1 0l.3-.6a1 1 0 0 0-.3-.7c-.2-.2-.4-.5-.7-.6l-.8-.6-.8-.8a2 2 0 0 1-.3-1c0-.7.1-1.2.6-1.6a2.1 2.1 0 0 1 3 0c.4.5.6 1 .6 1.6v.3h-1.4v-.4l-.2-.5a.6.6 0 0 0-.5-.2l-.4.2c-.2.1-.2.3-.2.5zM255 453v-8h1.5l.1.2v8.8l.3.5.6.2.2.1.1.2v1.2h-.3c-1 0-1.6-.2-2-.7-.3-.4-.5-1.3-.5-2.5zm3.5-7.2l.3-.6.6-.3c.3 0 .4 0 .6.2l.4.5v.8l-.3 1-.8 1h-.2l-.3-.2v-.2l.4-.8-.1-.5-.4-.3a.8.8 0 0 1-.2-.6zm7.8 4.8v4.5l.1.8c0 .2 0 .3-.3.3H265v-.4c-.4.3-.8.5-1.4.5a2 2 0 0 1-1.5-.6c-.4-.3-.6-.9-.6-1.5v-.8c0-.8.4-1.4 1-1.7l.5-.2.5-.2.6-.2c.4-.2.7-.4.7-.8 0-.2 0-.4-.2-.5a.7.7 0 0 0-.5-.2c-.3 0-.5 0-.6.2l-.2.7v.3h-1.5v-.3c0-.7.1-1.2.6-1.7.4-.5 1-.7 1.7-.7.6 0 1.1.2 1.6.7.5.4.7 1 .7 1.8zm-2.4 4.2c.3 0 .5 0 .6-.3l.2-1v-1.3h-.2l-.2.2-.7.4a1 1 0 0 0-.5.8v.1c0 .8.2 1.1.8 1.1zm3.9-1.8v-3.2l-.1-.1-.3-.1v-1.4h.3l.1-.2v-1.3l.1-.2h1.5v1.5l.2.2h.7v1.4h-.7l-.1.2v4.2c0 .3.1.4.3.5l.5.2.3.1v1.4h-.3c-.9 0-1.5-.2-2-.7-.3-.4-.5-1.3-.5-2.5zm4 0v-3.2l-.2-.1-.2-.1-.1-.3v-1.1h.3l.2-.2v-1.5h1.5l.1.2v1.3c0 .1 0 .2.2.2h.6v1.4h-.6l-.2.2v4.2l.3.5.6.2.2.1v1.4h-.2c-1 0-1.6-.2-2-.7-.3-.4-.5-1.3-.5-2.5zm3.8-6.5l.3-.6.6-.3c.3 0 .5.1.7.3.2.2.2.4.2.6 0 .3 0 .5-.2.7l-.7.2c-.2 0-.4 0-.6-.2s-.3-.4-.3-.7zm1.4 9.7h-1.2v-8h1.5v8h-.3zm2-3.2v-3.2l-.2-.1-.3-.1v-1.4h.3l.2-.2v-1.5h1.5v1.5l.2.2h.7v1.4h-.7l-.1.2v4.2c0 .3.2.4.3.5l.5.2.3.1v1.4h-.3c-.9 0-1.5-.2-1.9-.7-.4-.4-.5-1.3-.5-2.5zm5.4-4.5v5c0 .9.3 1.3 1 1.3s.8-.4.8-1.2v-5.4h1.5l.1.3v7.7h-1.5v-.6c-.4.4-.8.7-1.3.7-.7 0-1.2-.2-1.6-.7-.4-.4-.6-1.1-.6-2v-5.1l.1-.3h1.5v.3zm9.6 7.7h-1.3v-.5c-.3.4-.7.6-1.3.6a2 2 0 0 1-1.6-.7c-.3-.4-.5-1.1-.5-2v-2.8c0-.9.2-1.6.5-2a2 2 0 0 1 1.6-.7c.5 0 1 .2 1.2.6v-3.5l.1-.2h1.5v11.2h-.3zm-1.4-2.6v-2.8c0-.8-.3-1.2-.8-1.2-.6 0-1 .4-1 1.2v2.8c0 .8.4 1.2 1 1.2.5 0 .8-.4.8-1.2zm4.7-.8v.8c0 .8.3 1.2.8 1.2.2 0 .4 0 .6-.2l.2-.6v-.3l.1-.1c.1-.1.1 0 .2 0h1.2v.3c.1.5 0 1-.5 1.6-.4.5-1 .8-1.8.8-.6 0-1.2-.2-1.7-.7-.5-.5-.7-1.3-.7-2.3v-2.2c0-1 .2-1.8.7-2.3.5-.5 1-.7 1.7-.7s1.3.2 1.7.7c.5.5.7 1.2.7 2.3v1.3h-2.9l-.2.1v.3zm1.6-2.1c0-.7-.2-1.1-.8-1.1-.5 0-.8.4-.8 1.1v.3h1.6v-.3zm-43.5 14.6v4.5l.1.8c0 .2 0 .3-.3.3H254v-.4c-.4.3-.9.5-1.4.5a2 2 0 0 1-1.5-.6c-.4-.3-.6-.9-.6-1.5v-.8c0-.8.4-1.4 1-1.7l.4-.2.6-.2.5-.2c.5-.2.8-.4.8-.8l-.2-.5a.7.7 0 0 0-.6-.2c-.2 0-.4 0-.5.2l-.2.7v.3h-1.5v-.3c-.1-.7.1-1.2.6-1.7a2 2 0 0 1 1.6-.7c.7 0 1.2.2 1.7.7.4.4.7 1 .7 1.8zm-2.5 4.2c.3 0 .6 0 .7-.3l.2-1V467h-.2l-.3.2-.7.4a1 1 0 0 0-.5.8v.1c0 .8.3 1.1.8 1.1zm4.3-6.6h1.2l.1.3v.2c.3-.4.7-.6 1.2-.6.7 0 1.2.2 1.6.6.4.5.6 1.2.6 2.1v2.8c0 .9-.2 1.6-.6 2a2 2 0 0 1-1.6.7c-.5 0-.9-.2-1.2-.6v3.4H257v-10.6c-.1-.2 0-.3.2-.3zm1.3 2.6v2.8c0 .8.3 1.2.9 1.2.6 0 .9-.4.9-1.2v-2.8c0-.8-.3-1.2-1-1.2-.5 0-.8.4-.8 1.2zm5.2-2.6h1.2v.5c.3-.4.7-.6 1.3-.6.6 0 1.2.2 1.5.6.4.5.6 1.2.6 2.1v2.8c0 .9-.2 1.6-.6 2-.3.5-.9.7-1.5.7s-1-.2-1.2-.6v3.1l-.1.3h-1.5v-10.6c0-.2 0-.3.3-.3zm1.3 2.6v2.8c0 .8.2 1.2.8 1.2s.9-.4.9-1.2v-2.8c0-.8-.3-1.2-.9-1.2s-.8.4-.8 1.2zm7.7-1.1h-.5c-.4 0-.6 0-.7.5l-.1 1v5h-1.6v-8h1.5v.5c.4-.4.8-.5 1.3-.5h.4v1.5h-.3zm5.9 1.4v2.2c0 1-.2 1.8-.7 2.3-.5.5-1 .7-1.7.7s-1.2-.2-1.7-.7c-.5-.5-.7-1.3-.7-2.3v-2.2c0-1 .2-1.8.7-2.3.4-.5 1-.7 1.7-.7s1.2.2 1.7.7c.5.5.7 1.2.7 2.3zm-1.6 2.5v-2.8c0-.8-.3-1.2-.8-1.2s-.8.4-.8 1.2v2.8c0 .8.3 1.2.8 1.2s.8-.4.8-1.2zm3.4-5.4h1.2v.5c.4-.4.8-.6 1.3-.6.7 0 1.2.2 1.6.6.4.5.6 1.2.6 2.1v2.8c0 .9-.2 1.6-.6 2a2 2 0 0 1-1.6.7c-.5 0-1-.2-1.2-.6v3.4H280v-10.6c0-.2 0-.3.3-.3zm1.3 2.6v2.8c0 .8.3 1.2.9 1.2s.8-.4.8-1.2v-2.8c0-.8-.3-1.2-.8-1.2s-1 .4-1 1.2zm7.8-1.1h-.6c-.4 0-.6 0-.7.5v5.7l-.1.3h-1.5v-8h1.5v.5c.4-.4.8-.5 1.2-.5h.4v1.5h-.2zm1.2-3.2l.3-.6.6-.3c.3 0 .5.1.7.3.2.2.2.4.2.6 0 .3 0 .5-.2.7l-.7.2c-.2 0-.4 0-.6-.2s-.3-.4-.3-.7zm1.4 9.7h-1.2v-8h1.5v8h-.3zm3.4-3.4v.8c0 .8.3 1.2.8 1.2.2 0 .4 0 .6-.2l.2-.6v-.3l.1-.1c.1-.1.1 0 .2 0h1.2v.3c.1.5 0 1-.5 1.6-.4.5-1 .8-1.8.8-.6 0-1.2-.2-1.7-.7-.5-.5-.7-1.3-.7-2.3v-2.2c0-1 .2-1.8.7-2.3.5-.5 1-.7 1.7-.7s1.3.2 1.7.7c.5.5.8 1.2.8 2.3v1l-.1.3h-2.9l-.2.1v.3zm1.6-2.1c0-.7-.2-1.1-.8-1.1-.5 0-.8.4-.8 1.1v.3h1.6v-.3zm-.5-3.3h-.6l-.1-.2V460h1.3c.2 0 .3.1.2.4l-.5 1.4-.1.2h-.2zm5.1 5.4v.8c0 .8.2 1.2.8 1.2.2 0 .4 0 .5-.2.2-.1.2-.4.2-.6v-.3l.2-.1c0-.1 0 0 .2 0h1.1l.1.3c0 .5-.1 1-.6 1.6-.4.5-1 .8-1.7.8s-1.3-.2-1.7-.7c-.5-.5-.8-1.3-.8-2.3v-2.2c0-1 .3-1.8.8-2.3.4-.5 1-.7 1.7-.7s1.2.2 1.7.7c.5.5.7 1.2.7 2.3v1.3H302l-.3.1v.3zm1.6-2.1c0-.7-.3-1.1-.8-1.1s-.8.4-.8 1.1v.3h1.5v-.3z"/><circle cx="277.5" cy="331.8" r="12.1" fill="#009BFF"/><path fill="#FFF" d="M276.6 334.8v1h3v1.5h-4.4V335a3.4 3.4 0 0 1 .5-1.9 9.2 9.2 0 0 1 .7-1l.2-.3.1-.2h.1a11.4 11.4 0 0 0 .7-1 5.8 5.8 0 0 0 .5-.8l.1-.7c0-.7-.2-1-.7-1-.5 0-.8.3-.8 1.1v.3h-1.4v-.3c0-.7.1-1.3.5-1.8s1-.8 1.7-.8c.5 0 1 .1 1.3.4.6.4.9 1 1 1.9 0 .7-.2 1.3-.6 2l-.5.7a10.6 10.6 0 0 0-.6.8 32 32 0 0 0-1.1 1.7 2 2 0 0 0-.3.8z"/><circle cx="277.5" cy="413.5" r="12.1" fill="#009BFF"/><path fill="#FFF" d="M279.6 414.9v1.1c0 1-.2 1.7-.6 2.2a2 2 0 0 1-1.7.7c-.7 0-1.2-.2-1.6-.6s-.6-1-.7-1.8c0-.3 0-.5.3-.5h1.1l.1.3v.1c0 .8.3 1.1.8 1.1s.7-.3.7-1V415l-.1-.9c-.1-.2-.3-.2-.6-.2h-.2c-.2 0-.3-.1-.3-.3v-1.1h.5c.3 0 .5-.2.6-.3l.1-.9v-.8c0-.7-.2-1-.7-1s-.8.3-.8 1v.4h-1.2c-.2 0-.3 0-.3-.4 0-.8.3-1.4.7-1.8s1-.7 1.6-.7a2 2 0 0 1 1.7.8c.4.5.6 1.2.6 2.1v.6c0 .6-.2 1.2-.5 1.6.3.5.5 1 .5 1.7z"/><circle cx="65.4" cy="236.2" r="20.7" fill="none" stroke="#3DD4CD" stroke-miterlimit="10"/><path fill="#3DD4CD" d="M71.5 229.4c-1.8-.2-4.8 1-5.3 3.8-.5-2.9-3.5-4-5.4-3.8-2.2.2-5.1 1.2-4.4 5.7.8 4.6 9.8 12.4 9.8 12.4s9-7.8 9.7-12.3c.8-4.6-2.2-5.6-4.4-5.8z"/><circle cx="266.6" cy="236.2" r="20.7" fill="none" stroke="#009BFF" stroke-miterlimit="10" stroke-width=".8"/><path fill="#009BFF" d="M279.6 233c-.6-3.2-3-3.7-3-3.7-1.3-2.6-3.2-2.2-3.2-2.2-2.7-2-3-1-3-1-.9-.6-1.7-.2-1.7-.2-2-1.3-3.3-.1-3.3-.1-3-.5-4.3 1.2-4.3 1.2-1.9-.7-3.3 1.7-3.3 1.7-2.8-.3-3 3.8-3 3.8-1.3 0-1 2.2-1 2.2-1.7 2 .6 4.8.6 4.8-.3 3.6 7 1.2 7 1.2-.5 2.2 1.5 2.3 1.5 2.3 1 2.8 5.9 1 5.9 1s-.9 1.5 1.8 3c5.3 2 7.4-3.3 7.8-4.3h-.3a8.4 8.4 0 0 1-3.2-1.4v-.1h-.2v-.2l-.2.2-.2.1-.2.3-.3.3-.2.3-.1.1-.2.2-.1.1-.2.1a7.8 7.8 0 0 1-.4.2l-.2.1h-.7l-.1-.2-.3.2h-.2v.1l-.4.2a29.6 29.6 0 0 1-1.5.7h-.5a.2.2 0 0 1 0-.2v-.2l.2-.3.4-.5v-.3l-.1-.2-.3-.2h-.3l.6.1.2.3v.4l-.1.3-.2.3-.1.2h.1l.3-.1.6-.3.6-.3.3-.2h.1l.2-.1.1-.1h.1a2.3 2.3 0 0 0 .5-.3l.2-.2.1-.2.1-.2v-.2l.1-.3v-1.6h-.1l-.1-.1-.3-.2h.2l.2.2.3.3v.3l.2.3.2.2v.3l-.2.3v.3l-.1.1-.1.2-.1.3a1.9 1.9 0 0 1-.4.4l-.3.2c.1 0 .2.1.2 0h.5l.1-.1.2-.1.1-.1.2-.2.1-.1.2-.2.2-.2.3-.3.1-.1.2-.1.2-.2h.2l-.2-.2v-.6l.1-.2.2-.1.4-.2h.3v-.6l.1-.2.1-.1.1-.2.2-.2.2-.2.4-.3a2.8 2.8 0 0 0-.4.4l-.1.2-.1.1v.1l-.1.1v.2h-.1v.7l-.1.1a3 3 0 0 0-.7.3l-.2.3v.2l.3.3h.1l.2.2a6.7 6.7 0 0 0 1.4.8l.3.2.4.1a13.4 13.4 0 0 0 1 .4v-.1c3-.5 2-5.4 2-5.4 1.4-2.2-.8-4-.8-4zm-6.6-1.4a1.4 1.4 0 0 0 .3 0l.3-.2h.2l.4-.2h.1l-.2.2-.2.1a2 2 0 0 1-1.2.4 1.6 1.6 0 0 1-.6-.2 1.5 1.5 0 0 1-.7-1 3 3 0 0 0 .4.4 2 2 0 0 0 .7.4 1.7 1.7 0 0 0 .5 0zm-1.7-2.7a1 1 0 0 1 .5 0 1.5 1.5 0 0 1 .5 0h.2v.2h.1v.1h-.4a35 35 0 0 1-.7-.2h-.2v-.1zm-5 .8l.2-.2.3-.2.2-.1v-.9l.1-.3v-.2l.2-.2v-.2l.2-.3.2-.2.2-.1.2-.1.1-.1h.2l.2-.1h.2l.2-.1h-.2l-.2.1h-.1l-.1.2h-.2l-.1.1-.1.1-.2.2-.1.1-.1.2v.1l-.1.1v.3l-.1.2v.7l-.1.5-.3.3-.3.2-.2.2-.2.2-.2.2-.2.3-.2.2v.2l-.1.2v.7l.2.2a1.6 1.6 0 0 0 .5.3 3.4 3.4 0 0 0 .6.3h.1v.4l.4.2a4 4 0 0 0 .6.5l-.7-.4a1.9 1.9 0 0 1-.4-.3.7.7 0 0 1-.1-.2 2.8 2.8 0 0 1-.9-.4l-.3-.2-.2-.3-.1-.3v-.8l.2-.1v-.2l.1-.1.2-.3.3-.2.2-.3zm-4.7-1.8h.1a2.4 2.4 0 0 1 .4.5l.1.2h.1l.3-.1.2-.1h.5l.3-.1h.8l.2.1.3.1a4.3 4.3 0 0 1 .4.2l.2.2.2.1.2.2-.2-.1-.2-.1-.3-.1h-.2l-.2-.1h-.2l-.2-.1-.3.1-.3.2h-.2l-.2-.2h-1l-.2.1h-.1v-.2h-.1v-.2l-.2-.1v-.2l-.2-.1v-.2c-.2 0-.2-.2-.3-.2 0 0 .2 0 .3.2zm-5 2.7h.9l.2.1.1.1.2.2h.1l.1.2.1.2.1.1.1.3h.1a3.8 3.8 0 0 1 .6 0 2.7 2.7 0 0 1 .9.2l.1-.2h.1l.1-.2h.2l.3-.1h1.1l.2.2h-.4l-.2.2-.1.1h-.1l-.3-.1-.2-.1h-.4v.1h-.2c-.1 0 0 0 0 .1h-.1v.1l.2.1.2.2.1.1.2.2v.2l.2.2h1.2l.2.2.2.1v.1l.1.1.2.2.1.1.1.2.1.2.1.2.2.4-.2-.4-.2-.1v-.2l-.2-.2-.2-.1-.1-.2h-.1l-.3-.2h-.1l-.2-.1h-.7c-.1 0 0 0 0 0l-.2.1-.2.1v-.2a2.7 2.7 0 0 0-.3-.5l-.1-.2h-.1l-.2-.2a1.5 1.5 0 0 0-.3-.2 2 2 0 0 0-.7-.2 2.7 2.7 0 0 0-.8 0l-.1-.1-.1-.4-.1-.1v-.1l-.2-.2v-.1l-.2-.1-.1-.1h-.1l-.2-.2h-.6a1.9 1.9 0 0 0-.4 0h.3zm4.8 8.2h-.2l-.1-.1h-.2l-.2-.1h-.2v.2l-.2.2h-.2v-.1s0-.1 0 0h.1v.3-.2l-.1-.1-.1-.1-.2-.1h-.1l-.2-.1h-.2l-.3-.2-.1-.1h-.2l-.1-.1h-.2l-.1-.1h-.8a1.2 1.2 0 0 0-.3 0l-.2.2.1-.2a1.2 1.2 0 0 1 .3-.2h.2l.2-.1a3 3 0 0 1-.2-.3l-.1-.2-.2-.2-.2-.3-.3-.2-.3-.3-.2-.2-.3-.2-.2-.1-.1-.1-.2-.1-.3-.2h-.3v-.1h.5l.3.2h.2l.1.1.4.2.3.3.2.2.3.3.2.3.1.3.1.1v.2l.1.2h.5l.2.1h.2l.2.1.1.1h.2l.3.2.1.1h.2v.1h.2a.7.7 0 0 1 .3-.1h.4a1 1 0 0 1 .7.5zm6.3 4h-.3c0-.1-.1-.1-.2 0h-.8a5 5 0 0 1-.8.2h-.6v-.1h-.2l-.3-.1-.2-.1a1.9 1.9 0 0 1-.4-.3l-.2-.3h-.1v-.1h.1a2.2 2.2 0 0 0 1 .5h.2v.1h.7a8.7 8.7 0 0 0 1.1 0h.4a1 1 0 0 1 .4 0h.1l.1.2zm1.4-1.8h-.9l-.2.1h-.1l-.1.1h-.2v.4l.2.3.2.2v-.3h-.2l-.2.1v.1h-.1v-.1l-.2-.1-.1-.2v-.1l-.1-.1-.2-.1-.1-.1-.2-.1h-.2l-.2-.1h-.3a3.8 3.8 0 0 0-.8-.1h-.1v-.1l-.1-.2-.1-.2-.1-.2-.1-.1-.1-.2-.2-.1a1.5 1.5 0 0 0-.5-.3h-.6a3.4 3.4 0 0 0-.8.1 2.5 2.5 0 0 1 .8-.3 2.6 2.6 0 0 1 .4 0 2.8 2.8 0 0 1 .4 0 1.4 1.4 0 0 1 .5.3l.1.1.2.2.1.2.2.2v.2h.2a4.8 4.8 0 0 1 .6 0l.2.1h.2l.2.1h.2l.2.2.2.1.2.1v.2h.1l.1-.1h.2l.1-.1h.4l.2-.1h.7l.2.2h-.2zm1.7-6.2h-.1a2.2 2.2 0 0 1-.5 0h-.1l-.2.1-.1.1h-.1l-.1.1-.2.1h-.2l-.2.1h-.5l-.2-.1-.1.1a1.6 1.6 0 0 1-.2.3l-.2.3h-.2v.2l-.4.2h-.1l-.2.1h-.2l-.1.1H265l-.3.2a4 4 0 0 0-.7.6h-.2v-.1h-.1a1.1 1.1 0 0 0-.4-.3 5.5 5.5 0 0 0-1.8-.4l-.3-.3v-.1l-.2-.1v-.1l-.2-.2-.2-.1-.1-.1-.1-.1h-.1l-.1-.1h-.3v-.1h-.8a1.8 1.8 0 0 1 .6 0h.7a1.6 1.6 0 0 1 .2.2l.1.1h.2v.1l.1.2h.2v.1l.2.2.1.2a7 7 0 0 1 1.3.2l.6.1a1.8 1.8 0 0 1 .5.3h.1a4.3 4.3 0 0 1 .9-.6h.2l.1-.1h.9v-.1h-.1v-.1h.2v.1h.7l.2-.1.2-.2h.1l.1-.2a2.7 2.7 0 0 0 .3-.3l.1-.1v-.2l.2-.3.1.1h.1l.1.1h1.1l.1-.1.1-.1h.1l.1-.2h1.2l.1-.1.1-.1.1-.1.1-.1.1-.1v-.1h.1v-.2l.1-.2v.4l.1-.1.1-.2v-.2.1h.3l.2-.2.6-.3.2-.2v-.3l.1-.1v-.5.5a1 1 0 0 1 0 .4 1 1 0 0 1-.3.3l-.5.3h-.3l-.2.3-.1.3h-.1v-.1.1h-.1l-.1.2-.1.1-.1.2h-.1l-.2.2h-.4zm5-1.5c0 .2-.2.3-.4.4l-.5.3-.5.2a3 3 0 0 1-.2.4 5 5 0 0 1-.3.5l-.2.2-.2.2-.2.2-.2.2-.3.1-.2.2-.2.2h.4c.1 0 .3 0 .4.2a1.6 1.6 0 0 1 .2.7v.3l.3.2h.3l.4.2h1l.3-.3-.3.3a1 1 0 0 1-.3 0l-.8.1a5.9 5.9 0 0 1-.8-.2l-.2-.2v-.4a1.5 1.5 0 0 0-.2-.4l-.1-.1-.2-.1h-.4a4 4 0 0 0-1 .2l-.2.1-.2-.3h.3l.2-.2c.2 0 .3-.2.5-.3h.2l.2-.2.3-.2.2-.2.2-.1.2-.2.2-.2.2-.2a5.4 5.4 0 0 0 .6-.8v-.1h.3a4.6 4.6 0 0 0 .8-.4l.4-.3.1-.3v-.2.5zm3.8 5.8h-.2l-.2-.1h-.2l-.1.1h-.3v.2a2 2 0 0 1 .1.4v.3h-.1l-.1-.2-.1-.2-.1-.2-.1-.2-.3-.3a15.6 15.6 0 0 1-.3-.6 2 2 0 0 1 .6.4l.2.4v-.1l.3-.1.1-.1h.3a.6.6 0 0 1 .3 0l.1.1.1.1v.1z"/><path fill="#FFF" d="M268.3 235h-.2l.1.1h.1zm-6.7 1.4h-.1zM272 234l.1-.3.2-.2a1.4 1.4 0 0 1-.3 0v.3h-.1v.2zm-11.3 1.5h-.1zm3.3 1.5h-.2.2zm2.1-1h.1zm5.9-2.5zm-5.9 2.5h-.1v.1h.1v-.1zm6.5-2.6c.2 0 .4-.2.5-.3a1.1 1.1 0 0 0 .2-.3.8.8 0 0 0 .1-.3v-.6.8l-.1.1-.1.1-.1.2-.5.2-.3.2.3-.1zm-2.6 1.4h.1-.1zm2.2-3.4a2 2 0 0 1-.4-.3 3.2 3.2 0 0 1-.4-.4v.2l.2.3.5.5.3.1a1.5 1.5 0 0 0 1 0 2 2 0 0 0 .5-.3l.2-.1.1-.1.1-.1h-.1l-.4.2h-.2l-.3.1h-.3a1.8 1.8 0 0 1-.5 0l-.3-.1zm-5.4 1.5zm.2-3.8v.1zm-8.5 2.8v-.1h-.1.1zm1.5.3l.1-.1v-.1.2zm2.3-3.5v-.1h-.2l.2.1zm-2.4 9.9v-.1l-.1-.1-.2-.1h-.1l-.3-.2-.2-.1h-.2l-.1-.1h-.2l-.2-.1h-.7l-.2.1h-.1a1.2 1.2 0 0 0-.3.3v.1l.2-.1h.1l.2-.1h1.1l.1.1.2.1h.1l.3.2h.2l.2.1h.1l.2.2v.1h.1v.2l.1.1v-.6h-.3zm-2.1-.8z"/><path fill="#FFF" d="M261.3 238.6a1.2 1.2 0 0 0-.6-.3h-.7l-.1.2h.7l.1.1h.1l.2.1.3.1-.1-.2zm-1.3-.1h-.1.1zm8 3.1zm-.4.4v-.2.2zm-.2-.8h-.1l-.1.2.1.1.2.2v-.2h-.1v-.1h.1v-.2h-.1zm.2.5v.1zm0 0v.1h.1l.1-.1h-.2zm-.1-.2v.1h.3l-.2-.2zm.2.1h-.1v.1h.4-.3z"/><path fill="#FFF" d="M269 241h-.5l-.1-.1h-.6l-.1.1h-.2l-.1.2.1.2.1-.1h.2v-.1h.2l.1-.1h1.2l-.2-.1h-.2zm-3.8-.4v-.1h-.1.1zm2.2.9v-.1.1zm.1.1zm.1.1h-.1l-.2-.2-.1-.1v.1a4.1 4.1 0 0 0 .2.3h.1zm0-.1zm-.1 0zm3.9-5a4 4 0 0 0-.4.2l.2.3.2-.2.2-.1c.2 0 .4-.2.5-.3l.3-.1a3.4 3.4 0 0 0-1 .2zm3-2.4zm-3.3 2.9l.1-.1-.1.1zm-3.5 5.6l-.2-.1h-.7a14.5 14.5 0 0 0-1.1 0h-1l-.2-.1a2.8 2.8 0 0 1-.5-.3l-.2-.1-.1-.1v.1l.2.2.1.1.1.1.3.2h.2a1.4 1.4 0 0 0 .3.2h.8a4.7 4.7 0 0 0 .8 0l.7-.2a1.3 1.3 0 0 1 .4 0l.2.1v-.1zm10.9 0l-.1-.1h.1zm-3-3.1h-.1v.1l.1-.1z"/><path fill="#FFF" d="M277.4 242.2l-.4-.1-.4-.2a9.1 9.1 0 0 1-1.3-.8l-.2-.1-.1-.1-.3-.3v-.2c0-.1 0-.2.2-.3l.3-.1.4-.2h.1v-1l.1-.2.2-.2.1-.2a3 3 0 0 1 .4-.3l-.4.3h-.1l-.1.1-.1.1-.1.1v.2h-.2v.4l-.1.1v.4h.1v.1h-.4a2 2 0 0 0-.4.2l-.2.1-.1.3v.5l.2.2h.1v.1l.1.1h.1a3.5 3.5 0 0 0 .5.4 6.1 6.1 0 0 0 1.1.6 11 11 0 0 0 1.6.4h.3a11 11 0 0 1-1-.4zm-6.1.8zm-2.4.8zm2.4-1.3v.1zm3.5-1.5h-.2.2zm-3.2 1.7h-.2v-.1a.9.9 0 0 0 .2.2h.1zm6.7-3.5l.1-.1a2.5 2.5 0 0 0-.7-.8h-.1a4 4 0 0 0 .2.2l.1.4.3.3v.2l.2.2v.2l.2.1v.2l.1.1v-.5a1.7 1.7 0 0 0-.1-.4v-.1h-.2z"/><path fill="#FFF" d="M279.6 239h-.1v-.1h-.1l-.1-.1h-.6l-.2.2v.2h.3l.2-.1h.7l-.1-.1z"/><path fill="#FFF" d="M278.4 239v.2h.1v-.1zm-6.9-10a3.6 3.6 0 0 0 .6.2h.6l-.1-.1-.1-.1h-.2a1.5 1.5 0 0 0-.5-.2 1.2 1.2 0 0 0-.5.1l.2.1z"/><defs><path id="a" d="M86 328v-46c0-13.1 4.3-24 9.8-24H124"/></defs><clipPath id="b"><use overflow="visible" xlink:href="#a"/></clipPath><ellipse cx="105.2" cy="293.2" fill="#FCFCFC" clip-path="url(#b)" rx="9.7" ry="23"/><ellipse cx="105.2" cy="293.2" fill="#FDFDFD" clip-path="url(#b)" rx="7.2" ry="17.2"/><ellipse cx="105.2" cy="293.2" fill="#FEFEFE" clip-path="url(#b)" rx="4.8" ry="11.5"/><ellipse cx="105.2" cy="293.2" fill="#FFF" clip-path="url(#b)" rx="2.4" ry="5.7"/><path fill="#009BFF" d="M236.2 333.6l.7-5.1v-41.2c0-14.7-5-26.7-11-26.7l-28.7 2.7 29 2.6c5 0 9.2 9.6 9.2 21.4v41l.8 5.3z"/><radialGradient id="c" cx="1465.8" cy="377.5" r="98" gradientTransform="matrix(.3687 0 0 .8773 -316.9 12.9)" gradientUnits="userSpaceOnUse"><stop offset="0" stop-color="#fff"/><stop offset="1" stop-color="#c4c4c4"/></radialGradient><path fill="url(#c)" d="M223.3 438.1c1.9 0 3.7 1.8 4.7 4.6V342.3c-1 2.7-2.8 4.4-4.7 4.4-1.7 0-3.3-1.3-4.3-3.7v99c1-2.4 2.6-3.8 4.3-3.8z"/><path fill="#919191" d="M225 283.9c-2-5-4.9-7.7-7.9-7.7h-49.6c-1 0-1.7-2.3-1.7-4.8V154h-.4l-8.8 1-.3-.8-.3 106.1c0 17.8-9.2 22.7-18.9 22.6-9.6-.1-12.3-10.5-18.5-13.5-6-3-16.5-1.7-22 14.5-1.6 5.8-2.1 10.1-3.2 18.7 0 0-.8 5.4 0 15.5.5 7.8 4.3 13.9 4.3 20.7s-8.4 21.2-8.4 30.8.3 10.8 4 27.6c5 21.9-4.3 37.6-5.7 61.2 3.2.8 6.2 3 9 6 .4-25.4 11-48 6.3-67.2-2.7-10.6-4.1-18.2-4.1-27.3s8.4-22.7 8.4-31.8c0-9-3.8-9.2-4.9-18-1-9-.3-14.5.6-17.5.8-3 1.6-6.6 2-6.6 0 0 2.6-9.8 13.8-4.3 3.8 1.8 12 11.9 19 14.2 12.6 4.4 20.7-12.3 22.5-15.6 1.9 3.3 4.8 8.1 7.3 8.1h49.6c1 0 1.9 1.7 1.9 4.2v170h9.3v-170c0-7.2-1.1-13.7-3.2-18.7z"/><radialGradient id="d" cx="1291" cy="163.5" r="362.1" gradientTransform="matrix(.3687 0 0 .8773 -316.9 12.9)" gradientUnits="userSpaceOnUse"><stop offset="0" stop-color="#fff"/><stop offset="1" stop-color="#e8e8e8"/></radialGradient><path fill="url(#d)" d="M225 280.2c-2-5-4.9-7.7-7.9-7.7h-49.6c-1 0-1.7-2.3-1.7-4.8V150.3H156l.1 106.3c-.1 17.8-9.3 22.7-19 22.6-9.6-.1-12.3-10.5-18.5-13.5-6-3-16.5-1.7-22 14.5-1.6 5.8-2.1 10.1-3.2 18.7 0 0-.8 5.4 0 15.5.5 7.8 4.3 13.9 4.3 20.7 0 6.9-8.4 21.2-8.4 30.8a92 92 0 0 0 4 27.6c6.8 29.5-12.6 48-3.2 89.4l9.4.2c-9.9-34.6 9.5-65 3.4-89.6a106.6 106.6 0 0 1-4.1-27.3c0-9 8.4-22.7 8.4-31.8s-3.8-9.2-4.9-18c-1-9-.3-14.5.6-17.5.8-3 1.6-6.6 2-6.6 0 0 2.6-9.8 13.8-4.3 3.8 1.8 12 11.9 19 14.2 12.6 4.4 20.7-12.3 22.5-15.6 1.9 3.3 4.8 8.1 7.3 8.1h49.6c1 0 1.9 1.7 1.9 4.2v184.7h9.3V298.9c0-7.2-1.1-13.7-3.2-18.7z"/><path fill="none" stroke="#6D6D6D" stroke-dasharray="1.9" stroke-miterlimit="10" d="M160.5 191.9V271"/><linearGradient id="e" x1="223.7" x2="223.7" y1="482.6" y2="427.8" gradientUnits="userSpaceOnUse"><stop offset="0" stop-color="#f9f9f9"/><stop offset="1" stop-color="#e9e9ea"/></linearGradient><path fill="url(#e)" d="M219 483.7h9.3v-57.4l-9.3-.3v57.7z"/><path fill="none" stroke="#009BFF" stroke-dasharray="1.9" stroke-miterlimit="10" d="M160.9 273.3c.2 3.8 1 11.2 7.6 11.2h47.7s8.3-1.6 8.3 16.6V484"/><path fill="#3DD4CD" d="M117.5 253.4c-9.5-5.7-22.2-4.3-31.7 29.6v5.2l2.3-2.6c8.7-30.7 20-32.9 28.8-28.2 7.7 4.1 13.7 11.8 13.7 11.8s-5.3-11.2-13.1-15.8z"/><linearGradient id="f" x1="94.6" x2="94.6" y1="482.9" y2="431.8" gradientUnits="userSpaceOnUse"><stop offset="0" stop-color="#fafafa"/><stop offset="1" stop-color="#e8e8e8"/></linearGradient><path fill="url(#f)" d="M92.6 424.7c-3.2 16-8.3 32.7-2.5 58.2l9.4.2c-6-21.3-1-41 2.2-58.7-3 .2-6 .4-9 .3z"/><path fill="none" stroke="#3DD4CD" stroke-dasharray="1.9" stroke-miterlimit="10" d="M160.4 243.8v14.5c-.3 20.9-13.4 32.4-19 32.4-9.6-.2-11.6-7-18.3-11.4-6-4-14.1-9.5-20.5 2a69.6 69.6 0 0 0-4.8 19.3s-.7 5.4 0 15.5c.6 7.8 4.4 13.9 4.4 20.7 0 6.9-8.4 21.2-8.4 30.8a92 92 0 0 0 4 27.6c5.5 24.4-11.8 50-3.2 87.7"/><radialGradient id="g" cx="1058.8" cy="377.2" r="51.7" gradientTransform="matrix(.3683 -.041 .0172 .8763 -289.7 91.1)" gradientUnits="userSpaceOnUse"><stop offset="0" stop-color="#fc0"/><stop offset="1" stop-color="#ff8a15"/></radialGradient><path fill="url(#g)" stroke="#F7F7F7" stroke-miterlimit="10" stroke-width=".2" d="M111.2 348l-7.3 19 2.8-.4-1.9 14 7.5-19-2.9.4z"/><radialGradient id="h" cx="-2579.3" cy="164.2" r="51.7" gradientTransform="matrix(-.3683 -.041 -.0172 .8763 -857 91.1)" gradientUnits="userSpaceOnUse"><stop offset="0" stop-color="#fc0"/><stop offset="1" stop-color="#ff8a15"/></radialGradient><path fill="url(#h)" stroke="#F7F7F7" stroke-miterlimit="10" stroke-width=".2" d="M85.7 310.5l7.3 19-2.9-.4 2 14-7.5-19 2.8.4z"/><radialGradient id="i" cx="-2580" cy="248.6" r="51.7" gradientTransform="matrix(-.3683 -.041 -.0172 .8763 -857 91.1)" gradientUnits="userSpaceOnUse"><stop offset="0" stop-color="#fc0"/><stop offset="1" stop-color="#ff8a15"/></radialGradient><path fill="url(#i)" stroke="#F7F7F7" stroke-miterlimit="10" stroke-width=".2" d="M84.5 384.5l7.3 18.9-2.8-.3 1.9 14-7.5-19 2.8.3z"/><radialGradient id="j" cx="1070.5" cy="298.4" r="51.7" gradientTransform="matrix(.3683 -.041 .0172 .8763 -289.7 91.1)" gradientUnits="userSpaceOnUse"><stop offset="0" stop-color="#fc0"/><stop offset="1" stop-color="#ff8a15"/></radialGradient><path fill="url(#j)" stroke="#F7F7F7" stroke-miterlimit="10" stroke-width=".2" d="M114.1 278.4l-7.3 19 2.9-.4-1.9 14 7.4-18.9-2.8.3z"/><circle cx="160.9" cy="103.5" r="16.4" fill="#009BFF"/><path fill="#FFF" d="M157.6 100.1l1.7-3.5.4-.2h1.6v14.4h-1.9v-10.1l-.3-.2h-1.3c-.3 0-.4-.1-.2-.4z"/><path fill="#6D6D6D" d="M75.3 143.8c.4 0 .8-.1 1-.4.2-.1.2-.3.3-.5v-12c0-.1 0-.2.2-.3l.3-.1h1.7v11c0 1.6-.2 2.7-.8 3.4s-1.5 1-2.7 1l-.4-.1v-1.9h.3zm7.7-2.6v1c0 1.2.3 1.8 1 1.8.3 0 .6-.1.8-.3s.3-.5.3-1v-.2l.1-.2h1.9l.1.4c0 .7-.2 1.5-.8 2.2-.5.7-1.3 1-2.4 1-.9 0-1.7-.2-2.3-.9-.7-.7-1-1.7-1-3v-3.2c0-1.3.3-2.4 1-3 .6-.7 1.4-1 2.3-1s1.7.3 2.4 1c.6.6 1 1.7 1 3v1.5l-.2.4h-3.8l-.4.2v.3zm2.1-2.8c0-1-.4-1.6-1-1.6-.8 0-1.1.5-1.2 1.6v.3l.5.1H85v-.4zm12.6-1.4l-.7-.1c-.5 0-.9.2-1 .7v7.8l-.2.4h-2V135l.3-.1h1.7l.1.4v.3c.5-.5 1-.7 1.6-.7h.5v2c-.1.1-.2.1-.4 0zm3.6 4.2v1c0 1.2.4 1.8 1.1 1.8.3 0 .6-.1.8-.3s.3-.5.3-1v-.2s0-.2.2-.2h1.8l.1.4c0 .7-.2 1.5-.8 2.2-.5.7-1.3 1-2.4 1a3 3 0 0 1-2.3-.9c-.6-.7-1-1.7-1-3v-3.2c0-1.3.4-2.4 1-3 .6-.7 1.4-1 2.3-1s1.7.3 2.4 1c.6.6 1 1.7 1 3v1.5c0 .2 0 .3-.2.4h-3.8l-.4.2v.3zm2.2-2.8c0-1-.3-1.6-1-1.6s-1.1.5-1.2 1.6l.1.3.4.1h1.7v-.4zm5.9-.7c0 .3.2.5.5.8l1 1 1.3.8 1 1.2c.2.4.3 1 .3 1.6a3.2 3.2 0 0 1-3.2 2.9 3 3 0 0 1-2.4-1 3 3 0 0 1-.8-2.1v-.3l.4-.1h1.6l.1.4c0 .3.1.5.3.7a1 1 0 0 0 1.5 0c.2-.2.3-.4.3-.7 0-.4 0-.7-.3-1l-1-.9-1.1-.8-1-1a3 3 0 0 1-.5-1.4c0-.9.2-1.6.8-2.1a2.9 2.9 0 0 1 4.1 0c.6.6.9 1.3.9 2.1l-.1.4h-1.8l-.1-.5a1 1 0 0 0-.3-.7.8.8 0 0 0-.6-.2c-.2 0-.4 0-.6.2a1 1 0 0 0-.3.7zm7.3 0c0 .3.2.5.5.8l1 1 1.3.8 1 1.2c.2.4.3 1 .3 1.6a3.2 3.2 0 0 1-3.2 2.9 3 3 0 0 1-2.4-1 3 3 0 0 1-.8-2.1v-.3l.4-.1h1.6l.1.4c0 .3.1.5.3.7a1 1 0 0 0 1.5 0c.2-.2.3-.4.3-.7 0-.4 0-.7-.3-1l-1-.9-1.1-.8-1-1a3 3 0 0 1-.5-1.4c0-.9.2-1.6.8-2.1a2.9 2.9 0 0 1 4.1 0c.6.6.9 1.3.9 2.1l-.1.4h-1.8l-.1-.5a1 1 0 0 0-.3-.7.8.8 0 0 0-.6-.2c-.2 0-.4 0-.6.2a1 1 0 0 0-.3.7zm7.6 3.5v1c0 1.2.4 1.8 1.1 1.8.3 0 .5-.1.7-.3s.3-.5.4-1v-.2l.1-.2h1.9l.1.4c0 .7-.2 1.5-.8 2.2-.5.7-1.3 1-2.4 1-.9 0-1.7-.2-2.3-.9-.7-.7-1-1.7-1-3v-3.2c0-1.3.3-2.4 1-3 .6-.7 1.4-1 2.3-1s1.7.3 2.3 1c.7.6 1 1.7 1 3v1.9h-4l-.3.2v.3zm2.2-2.8c0-1-.4-1.6-1-1.6-.8 0-1.1.5-1.2 1.6v.3l.4.1h1.8v-.4zm8.8 7v-6.9c0-1.1-.4-1.7-1.2-1.7s-1.2.6-1.2 1.7v7l-.1.3h-2l-.1-.4V135l.4-.1h1.6l.1.4v.4c.4-.5 1-.9 1.7-.9 1 0 1.6.3 2.2.9.5.6.8 1.6.8 2.8v7l-.1.3h-2l-.1-.4zm6-7.7c0 .3.1.5.4.8l1 1 1.3.8c.4.3.7.8 1 1.2.2.5.3 1 .3 1.6a3.2 3.2 0 0 1-3.2 2.9 3 3 0 0 1-2.3-1 3 3 0 0 1-1-2.1c0-.2.1-.3.2-.3l.3-.1h1.7v.4c0 .3.2.5.4.7a1 1 0 0 0 1.4 0l.4-.7c0-.4-.1-.7-.4-1l-1-.9a35 35 0 0 1-1-.8c-.5-.3-.8-.6-1-1-.4-.5-.5-1-.6-1.4 0-.9.2-1.6.8-2.1.6-.6 1.3-.9 2.1-.9s1.5.3 2 .9a3 3 0 0 1 1 2.1l-.2.4h-1.8v-.5c0-.3-.2-.5-.3-.7a.8.8 0 0 0-.7-.2c-.2 0-.4 0-.6.2l-.2.7z"/><path fill="#009BFF" d="M153.3 135.3v7c0 1 .4 1.7 1.2 1.7s1.2-.6 1.2-1.7v-7l.1-.3.4-.1h1.6l.1.4v10.5h-2l-.1-.4v-.4c-.4.6-1 1-1.7 1-1 0-1.6-.3-2.2-1-.5-.6-.8-1.5-.8-2.8v-6.9l.1-.3.4-.1h1.6l.1.4zm11.4 10.1v-6.9c0-1.1-.4-1.7-1.2-1.7s-1.2.6-1.2 1.7v7.3h-2.1V135l.4-.1h1.6v.8c.5-.5 1-.9 1.8-.9.9 0 1.6.3 2.1.9.5.6.8 1.6.8 2.8v7l-.1.3h-2l-.1-.4zm6.3-4.2v1c0 1.2.3 1.8 1 1.8.4 0 .6-.1.8-.3.2-.2.3-.5.3-1v-.2l.2-.2h1.8l.2.4a4 4 0 0 1-.8 2.2c-.6.7-1.4 1-2.4 1s-1.7-.2-2.4-.9c-.6-.7-1-1.7-1-3v-3.2c0-1.3.4-2.4 1-3 .7-.7 1.4-1 2.4-1 .9 0 1.7.3 2.3 1 .6.6 1 1.7 1 3v1.5l-.1.4h-3.9c-.2 0-.3.1-.3.2l-.1.3zm2.2-2.8c0-1-.4-1.6-1.1-1.6-.7 0-1 .5-1.1 1.6v.3l.4.1h1.7v-.4zm10.5 2.8v1c0 1.2.4 1.8 1.1 1.8.3 0 .6-.1.8-.3.2-.2.3-.5.3-1v-.2l.1-.2h2l.1.4c0 .7-.2 1.5-.8 2.2-.5.7-1.3 1-2.4 1-.9 0-1.7-.2-2.3-.9-.6-.7-1-1.7-1-3v-3.2c0-1.3.4-2.4 1-3 .6-.7 1.4-1 2.3-1 1 0 1.7.3 2.4 1 .6.6 1 1.7 1 3v1.5l-.2.4h-3.8l-.4.2v.3zm2.2-2.8c0-1-.4-1.6-1-1.6-.8 0-1.1.5-1.2 1.6v.3l.5.1h1.7v-.4zm-.7-4.6h-.8c-.1 0-.2 0-.2-.2v-2.5l.5-.1h1.3c.3 0 .4.2.2.6l-.6 1.8c0 .2-.1.3-.2.3l-.2.1zm15.8 12.1h-1.3l-.3-.1-.1-.4v-6.9c0-1.1-.4-1.7-1.2-1.7s-1.2.6-1.2 1.7v7l-.1.3h-2l-.1-.4v-6.9c0-1.1-.4-1.7-1.2-1.7s-1.2.6-1.2 1.7v7.3h-2.2V135l.3-.1h1.6v.9c.5-.6 1-1 1.8-1 1 0 1.7.3 2.2 1l.3-.4.9-.4 1.1-.2c1 0 1.7.3 2.3 1 .5.6.8 1.5.8 2.7v7l-.1.3h-.4zm9-7.1v3.1c0 1.4-.4 2.4-1 3.1-.7.7-1.5 1-2.4 1s-1.7-.3-2.3-1c-.6-.7-1-1.7-1-3v-3.2c0-1.3.4-2.4 1-3 .6-.7 1.4-1 2.3-1s1.7.3 2.4 1c.6.6 1 1.7 1 3zm-2.3 3.5v-3.8c0-1.1-.3-1.7-1-1.7s-1.2.6-1.2 1.7v3.8c0 1 .4 1.7 1.1 1.7s1.1-.6 1.1-1.7zm4.3-.8v-4.3c0-.2-.2-.2-.3-.2l-.4-.1V135l.4-.1c.1 0 .2 0 .2-.2V133l.1-.4h2l.1.4v1.7c0 .1 0 .2.2.2h.9l.1.4v1.6h-1c-.1 0-.2.1-.2.3v5.7l.4.7.8.2.3.1.1.4v1.5h-.4c-1.3 0-2.1-.2-2.6-.9-.5-.6-.8-1.7-.8-3.4zm5.1-8.8c0-.4.2-.7.4-.9s.5-.4.9-.4c.3 0 .6.2.8.4.3.2.4.5.4.9 0 .3-.1.6-.4.8a1 1 0 0 1-.8.4 1.2 1.2 0 0 1-1.3-1.2zm2 13.2h-1.4l-.3-.1-.1-.4V135l.4-.1h1.7v10.9h-.4zm8.9-7.1v3.1c0 1.4-.3 2.4-1 3.1-.6.7-1.3 1-2.2 1-1 0-1.7-.3-2.4-1-.6-.7-1-1.7-1-3v-3.2c0-1.3.4-2.4 1-3 .7-.7 1.4-1 2.4-1 .9 0 1.7.3 2.3 1 .6.6 1 1.7 1 3zm-2.1 3.5v-3.8c0-1.1-.4-1.7-1.1-1.7-.8 0-1.1.6-1.1 1.7v3.8c0 1 .3 1.7 1 1.7.8 0 1.2-.6 1.2-1.7zm8.7 3.1v-6.9c0-1.1-.4-1.7-1.2-1.7s-1.2.6-1.2 1.7v7.3H230V135l.4-.1h1.6v.8c.5-.5 1-.9 1.8-.9.9 0 1.6.3 2.1.9.5.6.8 1.6.8 2.8v7.3h-2.1v-.4zm8.6-6.5c-.2-.3-.3-.6-.3-1a1.2 1.2 0 0 1 1.2-1.2c.3 0 .6.2.9.4.2.3.4.6.4.9 0 .3-.2.6-.4.9l-.9.3c-.3 0-.6 0-.9-.3zm0 6.6c-.2-.2-.3-.5-.3-.8a1.2 1.2 0 0 1 1.2-1.3c.3 0 .6.1.9.4.2.2.4.5.4.9 0 .3-.2.6-.4.8a1.2 1.2 0 0 1-1.8 0z"/><path fill="#6D6D6D" d="M13.9 172.4c-1 0-1.7-.3-2.4-1-.6-.7-1-1.7-1-3v-3.2c0-1.3.4-2.4 1-3 .7-.7 1.4-1 2.4-1s1.8.4 2.4 1.1c.5.7.8 1.5.7 2.2v.4h-2l-.1-.2v-.3c-.1-.4-.2-.7-.4-.9a1 1 0 0 0-.7-.3c-.8 0-1.1.6-1.1 1.7v3.8c0 1.1.3 1.7 1 1.7.4 0 .6-.1.8-.3.2-.2.3-.5.3-1v-.2l.2-.2h1.8l.1.4c0 .7-.2 1.5-.7 2.2a3 3 0 0 1-2.4 1zm11.5-7.2v3.1c0 1.4-.3 2.4-1 3.1-.6.7-1.4 1-2.3 1s-1.7-.3-2.3-1c-.6-.7-1-1.7-1-3v-3.2c0-1.3.4-2.4 1-3 .6-.7 1.4-1 2.3-1s1.7.3 2.4 1c.6.6 1 1.7 1 3zm-2.2 3.5v-3.8c0-1.1-.3-1.7-1-1.7s-1.2.6-1.2 1.7v3.8c0 1.1.4 1.7 1.1 1.7s1.1-.6 1.1-1.7zm4.1-.8v-10.6l.1-.3.3-.1h1.7l.1.4v12l.4.7.8.2.3.1.1.4v1.5h-.4c-1.3 0-2.2-.2-2.7-.9-.4-.6-.7-1.7-.7-3.4zm7.3-.3v1c0 1.2.4 1.8 1.1 1.8.3 0 .6-.1.8-.3.2-.2.3-.5.3-1v-.2l.2-.2h1.8l.1.4c0 .7-.2 1.5-.8 2.2-.5.7-1.3 1-2.4 1a3 3 0 0 1-2.3-.9c-.6-.7-1-1.7-1-3v-3.1c0-1.4.4-2.5 1-3.1a3 3 0 0 1 2.4-1c.9 0 1.7.3 2.3 1 .6.6 1 1.7 1 3v1.5c0 .2 0 .3-.2.4h-3.8l-.4.2v.3zm1.5-7.4h-1l-.1-.4-.7-1.8c-.1-.4 0-.6.3-.6h1.6l.1.4v2.2c0 .1 0 .2-.2.2zm.8 4.6c0-1-.4-1.6-1.1-1.6-.7 0-1.1.5-1.2 1.6l.1.4h2.1v-.4zm8.1-1.4l-.7-.1c-.5 0-.8.2-1 .7v7.8l-.2.4h-2v-10.8l.4-.1H43l.1.4v.3c.5-.5 1-.7 1.6-.7h.7v2c0 .1-.2.1-.4 0zm3.7 4.2v1c0 1.2.3 1.8 1 1.8.4 0 .6-.1.8-.3.2-.2.3-.5.3-1v-.2l.2-.2h1.8l.2.4a4 4 0 0 1-.8 2.2c-.6.7-1.4 1-2.4 1s-1.7-.2-2.4-.9c-.6-.7-1-1.7-1-3v-3.1c0-1.4.4-2.5 1-3.1.7-.7 1.4-1 2.4-1 .9 0 1.7.3 2.3 1 .6.6 1 1.7 1 3v1.5l-.1.4h-4c-.2 0-.3.1-.3.2l-.1.3zm2.2-2.8c0-1-.4-1.6-1.1-1.6-.7 0-1 .5-1.1 1.6v.4h2.1v-.4zm3.6 6.2c0-.3.1-.6.4-.8.2-.3.5-.4.8-.4.3 0 .6 0 .8.3.2.1.4.4.5.7v1c0 .4-.1.8-.4 1.3-.2.5-.6 1-1 1.4h-.3l-.4-.3c-.1 0-.2-.2-.1-.3.4-.4.6-.8.6-1l-.1-.6-.5-.5a1 1 0 0 1-.3-.7zm8.7-9.7H65l.1.4v.3a2 2 0 0 1 1.6-.8c1 0 1.7.3 2.2.9.5.6.8 1.6.8 2.8v3.7c0 1.3-.3 2.2-.8 2.9-.5.6-1.3 1-2.2.9-.7 0-1.2-.3-1.6-.9v4.7h-2.3v-14.4c0-.4 0-.5.3-.5zm1.8 3.6v3.8c0 1 .4 1.7 1.2 1.7s1.2-.6 1.2-1.7v-3.8c0-1.1-.4-1.7-1.2-1.7s-1.2.6-1.2 1.7zm8.5 2.7v1c0 1.2.4 1.8 1.1 1.8.3 0 .6-.1.8-.3.2-.2.3-.5.3-1v-.2l.2-.2h1.8l.1.4c0 .7-.2 1.5-.8 2.2-.5.7-1.3 1-2.4 1a3 3 0 0 1-2.3-.9c-.6-.7-1-1.7-1-3v-3.1c0-1.4.4-2.5 1-3.1.6-.7 1.4-1 2.3-1 1 0 1.7.3 2.4 1 .6.6 1 1.7 1 3v1.5c0 .2 0 .3-.2.4H74l-.4.2v.3zm2.2-2.8c0-1-.3-1.6-1-1.6s-1.1.5-1.2 1.6l.1.4h2.1v-.4zm6.3-3.1v7c0 1.1.4 1.7 1.2 1.7s1.2-.6 1.2-1.7v-7.3l.4-.1h1.7v10.9h-1.9l-.1-.4v-.4c-.5.6-1 1-1.7 1-1 0-1.7-.3-2.2-1-.5-.6-.8-1.5-.8-2.8v-6.9l.1-.3.4-.1h1.6l.1.4zm10.8 1.7l-.7-.1c-.6 0-.9.2-1 .7l-.1 1.5v6.3l-.1.4h-2l-.1-.4v-10.4l.4-.1H91v.7c.5-.5 1-.7 1.7-.7h.5l.1.4v1.6s-.2.1-.4 0zm1 7.6c0-.3.1-.6.3-.8.3-.3.6-.4 1-.4.2 0 .5 0 .7.3.2.1.4.4.5.7v1c0 .4-.1.8-.4 1.3-.2.5-.6 1-1 1.4h-.3l-.4-.3c-.2 0-.2-.2-.1-.3.4-.4.6-.8.6-1s0-.5-.2-.6l-.5-.5c-.2-.2-.2-.4-.2-.7zm14.4 1.3H107l-.3-.1-.1-.4v-.2a2 2 0 0 1-1.7.8c-.9 0-1.6-.3-2.1-1-.6-.6-.8-1.5-.8-2.8V165c0-1.2.2-2.2.8-2.8.5-.6 1.2-1 2.1-.9.7 0 1.3.3 1.7.8v-5l.4-.1h1.6v15.3h-.4zm-1.7-3.6v-3.8c0-1.1-.4-1.7-1.2-1.7s-1.2.6-1.2 1.7v3.8c0 1.1.4 1.7 1.2 1.7s1.2-.6 1.2-1.7zm6.3-1.1v1c0 1.2.4 1.8 1.1 1.8.3 0 .6-.1.8-.3s.3-.5.3-1v-.2l.1-.2h1.9l.1.4c0 .7-.2 1.5-.8 2.2-.5.7-1.3 1-2.4 1-.9 0-1.7-.2-2.3-.9-.6-.7-1-1.7-1-3v-3.1c0-1.4.4-2.5 1-3.1.6-.7 1.4-1 2.3-1s1.7.3 2.4 1c.6.6 1 1.7 1 3v1.5l-.2.4h-3.8l-.4.2v.3zm2.2-2.8c0-1-.3-1.6-1-1.6-.8 0-1.1.5-1.2 1.6v.4h2.2v-.4zm-.7-4.6h-.8c-.1 0-.2 0-.2-.2v-2.2l.1-.3.4-.1h1.3c.3 0 .4.2.2.6l-.6 1.8c0 .2-.1.3-.2.3l-.2.1zm5 8.4V165c0-1.2.3-2.1.8-2.7s1.2-1 2-1 1.4.3 1.8 1v-.5l.1-.3.4-.1h1.6v11c0 1.2-.2 2.2-1 3-.6.7-1.4 1-2.5 1-1.5 0-2.6-.6-3.2-2-.1-.2 0-.4.2-.5l1.3-.4c.3-.1.5 0 .6.2.3.4.7.6 1 .6h.5l.4-.3c.2 0 .3-.3.4-.7l.2-1.1v-.6a2 2 0 0 1-1.8.9c-.9 0-1.5-.3-2-1-.5-.6-.8-1.5-.8-2.8zm4.6 0V165c0-1.1-.4-1.7-1.2-1.7s-1.2.6-1.2 1.7v3.8c0 1.1.4 1.7 1.2 1.7s1.2-.6 1.2-1.7zm10.6-3.4v3.1c0 1.4-.4 2.4-1 3.1-.7.7-1.4 1-2.3 1s-1.7-.3-2.4-1c-.6-.7-1-1.7-1-3v-3.2c0-1.3.4-2.4 1-3 .7-.7 1.4-1 2.4-1s1.7.3 2.3 1c.6.6 1 1.7 1 3zm-2.2 3.5v-3.8c0-1.1-.4-1.7-1.1-1.7s-1.1.6-1.1 1.7v3.8c0 1.1.3 1.7 1 1.7s1.2-.6 1.2-1.7zm6.2-7v7c0 1.1.4 1.7 1.2 1.7s1.2-.6 1.2-1.7v-7l.1-.3.3-.1h1.7l.1.4v10.5h-2l-.1-.4v-.4c-.4.6-1 1-1.7 1-1 0-1.6-.3-2.2-1-.5-.6-.8-1.5-.8-2.8v-6.9l.1-.3.4-.1h1.6l.1.4zm6.8 6.2v-4.3c0-.2 0-.2-.2-.2l-.4-.1v-1.9l.4-.1c.1 0 .2 0 .2-.2v-1.7l.1-.4h2l.1.4v1.7c0 .1 0 .2.2.2h.9l.1.4v1.6h-1c-.1 0-.2.1-.2.3v5.7l.4.7.8.2.3.1.1.4v1.5h-.4c-1.3 0-2.1-.2-2.6-.9-.5-.6-.8-1.7-.8-3.4zm4.8 3.1c0-.3.1-.6.4-.8.2-.3.5-.4.9-.4.3 0 .5 0 .7.3.2.1.4.4.5.7v1c0 .4 0 .8-.3 1.3l-1 1.4h-.4l-.4-.3v-.3l.6-1c0-.3 0-.5-.2-.6l-.5-.5a1 1 0 0 1-.3-.7zm10.1-7c0 .4.1.6.4 1l1 .8 1.3 1 1 1.1c.3.4.3 1 .3 1.6a3.2 3.2 0 0 1-3.2 2.9 3 3 0 0 1-2.3-1 3 3 0 0 1-1-2.1c0-.2.1-.3.2-.3l.3-.1h1.6l.1.4c0 .3.1.5.4.7a1 1 0 0 0 1.4 0c.2-.2.3-.4.3-.7 0-.4 0-.7-.3-1l-1-.9-1-.8c-.4-.3-.8-.6-1-1-.4-.5-.5-1-.6-1.4 0-.9.2-1.6.8-2.1a2.9 2.9 0 0 1 4.1 0 3 3 0 0 1 1 2.1l-.2.4H162l-.1-.5c0-.2 0-.5-.3-.7a.8.8 0 0 0-.6-.2c-.2 0-.4 0-.6.2-.2.2-.2.4-.2.7zm7.6-2.3v7c0 1.1.4 1.7 1.2 1.7s1.2-.6 1.2-1.7v-7l.1-.3.4-.1h1.6l.1.4v10.5h-2l-.1-.4v-.4c-.4.6-1 1-1.7 1-1 0-1.6-.3-2.2-1-.5-.6-.8-1.5-.8-2.8v-6.9l.1-.3.4-.1h1.6l.1.4zm10.8 1.7l-.7-.1c-.5 0-.9.2-1 .7v7.8l-.2.4h-2v-10.8l.4-.1h1.6l.1.4v.3c.5-.5 1-.7 1.6-.7h.6v2c-.1.1-.2.1-.4 0zm2.4-2.1h1.6v.7a2 2 0 0 1 1.7-.8c1 0 1.6.3 2.2.9.5.6.8 1.6.8 2.8v3.7c0 1.3-.3 2.2-.8 2.9-.6.6-1.3 1-2.2.9-.7 0-1.2-.3-1.6-.9v4.3l-.1.4h-2l-.1-.4v-14c0-.4.1-.5.4-.5zm1.7 3.6v3.8c0 1 .4 1.7 1.2 1.7s1.2-.6 1.2-1.7v-3.8c0-1.1-.4-1.7-1.2-1.7s-1.2.6-1.2 1.7zm10.5-1.5l-.7-.1c-.5 0-.8.2-1 .7v7.8c0 .2 0 .3-.2.4h-2v-10.8l.4-.1h1.6l.1.4v.3c.5-.5 1-.7 1.6-.7h.6v2c0 .1-.2.1-.4 0zm1.8-4.4c0-.3.1-.6.3-.8s.6-.4 1-.4c.3 0 .5.2.8.4.2.2.3.5.3.9 0 .3 0 .6-.3.8-.3.3-.5.4-.9.4a1.2 1.2 0 0 1-1.2-1.2zm1.9 13.3h-1.3l-.4-.1v-10.8l.4-.1h1.6l.1.4v10.5h-.4zm4.3-8.3c0 .4.2.6.5 1l1 .8 1.2 1c.4.3.8.7 1 1.1.3.5.4 1 .4 1.6a3.2 3.2 0 0 1-3.2 2.9 3 3 0 0 1-2.4-1 3 3 0 0 1-.8-2.1v-.3l.4-.1h1.6l.1.4c0 .3.1.5.3.7a1 1 0 0 0 1.5 0c.2-.2.3-.4.3-.7 0-.4 0-.7-.3-1l-1-.9a35 35 0 0 1-1.1-.8l-1-1a3 3 0 0 1-.5-1.4c0-.9.2-1.6.8-2.1.6-.6 1.3-.9 2-.9s1.5.3 2.1 1c.6.5.9 1.2.9 2l-.1.4H203l-.1-.5a1 1 0 0 0-.3-.7.8.8 0 0 0-.6-.2c-.2 0-.5 0-.6.2a1 1 0 0 0-.3.7zm7.6 3.6v1c0 1.2.4 1.8 1.1 1.8.3 0 .5-.1.7-.3.2-.2.3-.5.4-1v-.2l.1-.2h1.9v.4c.1.7-.1 1.5-.7 2.2-.5.7-1.3 1-2.4 1-1 0-1.7-.2-2.3-.9-.7-.7-1-1.7-1-3v-3.1c0-1.4.3-2.5 1-3.1.6-.7 1.4-1 2.3-1 1 0 1.7.3 2.3 1 .7.6 1 1.7 1 3v1.5l-.1.4h-3.9l-.3.2-.1.3zm2.2-2.8c0-1-.4-1.6-1.1-1.6-.7 0-1 .5-1.1 1.6v.4h2.2l.1-.4zm3.6 6.2c0-.3.1-.6.4-.8.2-.3.5-.4.9-.4.3 0 .5 0 .7.3.3.1.4.4.5.7v1c0 .4 0 .8-.3 1.3l-1 1.4h-.4l-.4-.3v-.3l.6-1c0-.3 0-.5-.2-.6l-.5-.5a1 1 0 0 1-.3-.7zm7.6 3.2c.3 0 .6-.3.7-.8v-11.6l.1-.4.4-.1h1.6l.1.4v10.7c0 2.6-1 3.8-2.9 3.8h-.3l-.1-.4v-1.5l.4-.1zm.6-15.1c0-.4.1-.7.4-.9s.5-.4.8-.4c.4 0 .7.2 1 .4.2.2.3.5.3.9 0 .3-.1.6-.4.8-.2.3-.5.4-.9.4a1.2 1.2 0 0 1-1.2-1.2zm10.9 6.1v3.1c0 1.4-.3 2.4-1 3.1-.6.7-1.4 1-2.3 1-.9 0-1.7-.3-2.3-1-.7-.7-1-1.7-1-3v-3.2c0-1.3.3-2.4 1-3 .6-.7 1.4-1 2.3-1 1 0 1.7.3 2.4 1 .6.6 1 1.7 1 3zm-2.2 3.5v-3.8c0-1.1-.3-1.7-1-1.7-.8 0-1.2.6-1.2 1.7v3.8c0 1.1.4 1.7 1.1 1.7.8 0 1.1-.6 1.1-1.7zm4.1-9.7c0-.3 0-.6.3-.8s.6-.4 1-.4l.8.4c.2.2.3.5.3.9 0 .3 0 .6-.3.8-.3.3-.6.4-.9.4a1.2 1.2 0 0 1-1.2-1.2zm1.9 13.3H236l-.3-.1-.1-.4v-10l.1-.4.3-.1h1.7l.1.4v10.5h-.4zm4.5-4.7v1c0 1.2.5 1.8 1.2 1.8.3 0 .5-.1.7-.3.2-.2.3-.5.3-1v-.2l.2-.2h1.9v.4c.1.7-.1 1.5-.7 2.2-.6.7-1.4 1-2.4 1s-1.7-.2-2.3-.9c-.7-.7-1-1.7-1-3v-3.1c0-1.4.3-2.5 1-3.1.6-.7 1.4-1 2.3-1 1 0 1.7.3 2.3 1 .7.6 1 1.7 1 3v1.5l-.1.4h-3.9l-.3.2-.1.3zm2.3-2.8c0-1-.4-1.6-1.1-1.6-.7 0-1 .5-1.1 1.6v.4h2.1v-.4zm3.7 6.2c0-.3 0-.6.3-.8.2-.3.5-.4.8-.4.3 0 .6 0 .8.3.2.1.4.4.5.7v1c0 .4-.1.8-.4 1.3-.2.5-.5 1-1 1.4h-.3l-.4-.3c-.1 0-.2-.2 0-.3l.5-1-.1-.6-.5-.5a1 1 0 0 1-.3-.7zm8.2-3.1v-4.3c0-.2 0-.2-.2-.2l-.3-.1-.1-.4v-1.5l.4-.1c.2 0 .2 0 .2-.2v-1.7l.1-.4h2l.1.4v1.7c0 .1.1.2.3.2h.8l.1.4v1.6h-.9c-.2 0-.3.1-.3.3v4.3l.1 1.4c0 .3.2.5.3.7l.8.2.4.1v1.9h-.4c-1.2 0-2.1-.2-2.6-.9-.5-.6-.8-1.7-.8-3.4zm9.4-4.5l-.7-.1c-.5 0-.9.2-1 .7l-.1 1.5v6.3l-.1.4h-2l-.1-.4v-10l.1-.4.3-.1h1.7l.1.4v.3c.5-.5 1-.7 1.6-.7h.5l.1.4v1.6c-.1.1-.2.1-.4 0zm1.7-4.4c0-.3.2-.6.4-.8s.5-.4.9-.4c.3 0 .6.2.8.4s.4.5.4.9c0 .3-.1.6-.4.8s-.5.4-.8.4c-.4 0-.7-.1-1-.4s-.3-.5-.3-.8zm2 13.3h-1.4l-.3-.1-.1-.4v-10.4l.4-.1h1.7v10.9h-.4zm4.3-8.3c0 .4.1.6.4 1l1 .8 1.3 1 1 1.1c.3.4.4 1 .3 1.6a3.2 3.2 0 0 1-3.2 2.9 3 3 0 0 1-2.3-1 3 3 0 0 1-.9-2.1l.1-.3.4-.1h1.6v.4c0 .3.2.5.4.7a1 1 0 0 0 1.4 0c.3-.2.4-.4.4-.7 0-.4-.1-.7-.4-1l-1-.9-1-.8c-.4-.3-.8-.6-1-1-.4-.5-.5-1-.5-1.4-.1-.9.2-1.6.8-2.1a2.9 2.9 0 0 1 4 0c.7.6 1 1.3 1 2.1 0 .2 0 .3-.2.4h-1.8v-.5l-.3-.7a.8.8 0 0 0-.7-.2c-.2 0-.4 0-.6.2l-.2.7zm5.6 3.9v-4.3c0-.2-.1-.2-.2-.2l-.4-.1v-1.9l.4-.1c.1 0 .2 0 .2-.2V159h2.1v2.1c0 .1.1.2.3.2h.9v2h-.9c-.1 0-.2.1-.2.3v5.7l.4.7.8.2.3.1.1.4v1.1l-.1.4h-.3c-1.3 0-2.2-.2-2.7-.9-.5-.6-.7-1.7-.7-3.4zm7.3-.3v1c0 1.2.4 1.8 1.1 1.8.3 0 .6-.1.8-.3s.3-.5.3-1v-.2l.1-.2h1.9l.1.4c0 .7-.2 1.5-.8 2.2-.5.7-1.3 1-2.4 1-.9 0-1.7-.2-2.3-.9-.7-.7-1-1.7-1-3v-3.1c0-1.4.3-2.5 1-3.1.6-.7 1.4-1 2.3-1s1.7.3 2.4 1c.6.6 1 1.7 1 3v1.5l-.2.4H287l-.4.2v.3zm2.2-2.8c0-1-.4-1.6-1-1.6-.8 0-1.1.5-1.2 1.6v.4h2.2v-.4zm5.9-.8c0 .4.2.6.5 1l1 .8 1.2 1c.4.3.8.7 1 1.1s.4 1 .3 1.6a3.2 3.2 0 0 1-3.1 2.9 3 3 0 0 1-2.4-1 3 3 0 0 1-.9-2.1l.1-.3.4-.1h1.6l.1.4c0 .3.1.5.3.7a1 1 0 0 0 1.5 0c.2-.2.3-.4.3-.7 0-.4 0-.7-.3-1l-1-.9-1.1-.8-1-1a3 3 0 0 1-.5-1.4c0-.9.2-1.6.8-2.1a2.9 2.9 0 0 1 4.1 0c.6.6.9 1.3.9 2.1l-.1.4h-1.8l-.1-.5a1 1 0 0 0-.3-.7.8.8 0 0 0-.6-.2c-.3 0-.5 0-.6.2a1 1 0 0 0-.3.7zm7.4 0c0 .4 0 .6.4 1l1 .8 1.2 1c.4.3.8.7 1 1.1s.4 1 .3 1.6a3.2 3.2 0 0 1-3.1 2.9 3 3 0 0 1-2.4-1 3 3 0 0 1-.9-2.1l.1-.3.4-.1h1.6l.1.4c0 .3.1.5.3.7a1 1 0 0 0 1.5 0c.2-.2.3-.4.3-.7 0-.4 0-.7-.3-1l-1-.9-1.1-.8-1-1a3 3 0 0 1-.5-1.4c0-.9.2-1.6.8-2.1a2.9 2.9 0 0 1 4.1 0c.6.6.9 1.3.9 2.1l-.1.4h-1.8l-.1-.5a1 1 0 0 0-.3-.7.8.8 0 0 0-.6-.2c-.3 0-.5 0-.6.2a1 1 0 0 0-.3.7zm7.5 3.6v1c0 1.2.4 1.8 1 1.8.4 0 .6-.1.8-.3s.3-.5.3-1v-.2l.2-.2h1.9v.4c.1.7-.1 1.5-.7 2.2-.6.7-1.4 1-2.4 1s-1.7-.2-2.3-.9c-.7-.7-1-1.7-1-3v-3.1c0-1.4.3-2.5 1-3.1.6-.7 1.4-1 2.3-1s1.7.3 2.3 1c.7.6 1 1.7 1 3v1.5l-.1.4h-3.9l-.3.2-.1.3zm2.2-2.8c0-1-.4-1.6-1.1-1.6-.7 0-1 .5-1.1 1.6v.4h2.1v-.4z"/></svg>