<svg xmlns="http://www.w3.org/2000/svg" viewBox="0 0 320 568"><path fill="#002CFF" d="M23.5 41.2H23c-.3 0-.5-.1-.6-.4l-1.7-7.1-.2-.1v7l-.1.5h-2.5l-.2-.5V22.3c0-.2 0-.3.2-.4l.4-.1h1.2c.3 0 .5.1.6.3l3.1 13 .1.2.1-.1 3.2-13c0-.3.2-.4.5-.4h1.2l.5.1v19.2H26v-7.5h-.2L24 40.9c0 .3-.3.4-.6.4zM41.3 27v9c0 1.7-.5 3-1.3 4-.8.8-1.8 1.3-3.2 1.3s-2.4-.5-3.2-1.3-1.2-2.3-1.2-4v-9c0-1.8.4-3 1.2-4s1.9-1.3 3.2-1.3 2.4.4 3.2 1.3a6 6 0 0 1 1.3 4zm-2.8 9.8V26.2c0-.8-.2-1.4-.8-1.7-.6-.4-1.2-.4-1.8 0-.5.3-.8.9-.7 1.7v10.6c-.1.8.2 1.4.7 1.7.6.4 1.2.4 1.8 0 .6-.3.8-1 .8-1.7zm14.8 4.4h-1.2c-.3 0-.5-.1-.6-.3l-3.7-10.4h-.1v10.1l-.2.5H45l-.1-.5V22l.5-.1h1.3c.3 0 .4.1.5.4L51 32.5v.1h.1V22.3l.2-.4.4-.1h1.7l.4.1.2.4v18.3c0 .2 0 .4-.2.5h-.4zm13.6-15v10.6c0 .8.2 1.4.8 1.7.6.4 1.1.4 1.7 0 .6-.3.9-1 .8-1.7v-.2l.1-.5.5-.1h1.6c.4 0 .6.2.6.7a5.1 5.1 0 0 1-1.4 3.4 4 4 0 0 1-3 1.2c-1.4 0-2.5-.5-3.3-1.3s-1.2-2.2-1.2-4v-9c0-1.8.4-3 1.2-4s2-1.3 3.2-1.3c1.3 0 2.3.4 3.1 1.1.8.8 1.2 2 1.4 3.5 0 .4-.2.7-.6.7h-1.6c-.2 0-.4 0-.5-.2v-.6c0-.8-.3-1.4-.9-1.7-.6-.4-1.1-.4-1.7 0-.6.3-.9.9-.8 1.7zM85 27v9c0 1.7-.4 3-1.2 4-.8.8-1.9 1.3-3.2 1.3s-2.4-.5-3.2-1.3-1.2-2.3-1.2-4v-9c0-1.8.4-3 1.2-4s1.9-1.3 3.2-1.3 2.4.4 3.2 1.3a6 6 0 0 1 1.2 4zm-2.7 9.8V26.2c0-.8-.2-1.4-.8-1.7-.6-.4-1.2-.4-1.8 0-.6.3-.8.9-.8 1.7v10.6c0 .8.2 1.4.8 1.7.6.4 1.2.4 1.8 0 .6-.3.8-1 .8-1.7zM95 41.2h-5.8l-.4-.1-.2-.5V22.3c0-.2 0-.3.2-.4l.4-.1h1.7l.4.1.1.4v16.2H95l.5.2v2.4H95zm9.9 0h-5.8l-.5-.1-.1-.5V22.3l.1-.4.5-.1h1.6l.4.1.2.4v16.2h3.6l.4.2.2.4v1.5c0 .2 0 .4-.2.5h-.4zm12.1 0h-1.6a2 2 0 0 1-.3 0l-.2-.1v-.3l-.3-1.5c0-.3-.1-.5-.2-.5H111l-.1.5-.3 1.5-.1.3h-2.6v-.4l3.5-18.4.1-.4.5-.1h1.9l.2.5 3.5 18.4-.1.4h-.4zm-4.4-12.4l-1.1 6.8v.4l.4.1h2.1v-.5l-1.2-6.8h-.2zm16.6-1.8c0 1.6-.4 2.9-1.1 3.8v.3c.7 1 1.1 2.2 1.1 3.8v1c0 1.7-.4 3-1.2 4s-2 1.3-3.2 1.3h-3.4l-.4-.1-.1-.5V22.3l.1-.4.4-.1h3.4c1.3 0 2.4.4 3.2 1.3s1.2 2.2 1.2 4zm-5.5-2v4.6h1.1c1 0 1.6-.7 1.6-2v-1.2c0-.7-.1-1.2-.4-1.5s-.7-.5-1.2-.5h-1.1v.5zm0 7.8v5.7h1.1c.5 0 .9 0 1.2-.4s.4-.8.4-1.5v-2.3c0-.7-.1-1.2-.4-1.5s-.7-.5-1.2-.5h-1.1v.5zm17.7-5.8v9c0 1.7-.4 3-1.2 4-.8.8-2 1.3-3.2 1.3s-2.4-.5-3.3-1.3-1.2-2.3-1.2-4v-9c0-1.8.4-3 1.2-4s2-1.3 3.3-1.3 2.4.4 3.2 1.3a6 6 0 0 1 1.2 4zm-2.8 9.8V26.2c0-.8-.2-1.4-.8-1.7-.6-.4-1.1-.4-1.7 0-.6.3-.9.9-.8 1.7v10.6c0 .8.2 1.4.8 1.7.6.4 1.1.4 1.7 0 .6-.3.9-1 .8-1.7zm6.9-15h3.6c1.4 0 2.4.4 3.1 1.3.7.8 1.1 2.1 1.1 3.8v1c0 2.1-.6 3.6-1.7 4.4l1.7 8.3c0 .4 0 .6-.4.6h-2l-.2-.1-.1-.3-1.4-7.5-.4-.2h-1v7.5c0 .2 0 .4-.2.5h-2.5l-.1-.5V22.3l.1-.4.4-.1zm3.6 2.4h-.8l-.5.1v6.3h1.3c1 0 1.4-.6 1.4-2v-2.4c0-1.3-.4-2-1.4-2zm16.6 17H164a2 2 0 0 1-.3 0l-.2-.1-.1-.3-.3-1.5-.1-.5h-3.4l-.2.5-.2 1.5-.1.3h-2.6v-.4l3.4-18.4.2-.4.4-.1h2l.1.5 3.5 18.4v.4h-.4zm-4.5-12.4l-1.2 6.8v.4l.5.1h2v-.5l-1.1-6.8h-.2zm6.3-5v-1.5l.1-.4.5-.1h7.2l.4.1.1.4v2h-2.2c-.3 0-.4.1-.5.2v16.1c0 .2 0 .4-.2.5h-2.5l-.1-.5v-16l-.5-.1H168l-.5-.1v-.5zm17.6 17.4h-5.8l-.4-.1-.2-.5V22.3c0-.2 0-.3.2-.4l.4-.1h5.8l.5.1.1.4v1.5l-.1.5H182c-.3 0-.5.1-.5.2v5.1h3.5l.5.2.1.4v1.5l-.1.4-.5.2h-3.5v6.2h3.5l.5.2.1.4v1.5l-.1.5h-.5zm10.2-4.4V22l.5-.1h1.7l.4.1.1.4V36a6 6 0 0 1-1.2 4c-.8.8-1.9 1.3-3.2 1.3-1.3 0-2.4-.5-3.2-1.3s-1.2-2.2-1.2-4V22l.5-.1h1.7l.4.1.1.4v14.5c0 .8.2 1.4.8 1.7.6.4 1.2.4 1.8 0 .5-.3.8-1 .8-1.7zm7-15h3.6c1.3 0 2.4.4 3 1.3.8.8 1.2 2.1 1.2 3.8v1c0 2.1-.6 3.6-1.7 4.4l1.7 8.3c0 .4 0 .6-.4.6h-2l-.2-.1-.1-.3-1.5-7.5c0-.1 0-.2-.3-.2h-1v7.5l-.2.5H202l-.1-.5V22l.5-.1zm3.6 2.4h-.8l-.5.1v6.3h1.3c1 0 1.4-.6 1.4-2v-2.4c0-1.3-.5-2-1.4-2zm23.1 17h-1.6a2 2 0 0 1-.3 0l-.2-.1v-.3l-.3-1.5c0-.3-.1-.5-.2-.5H223l-.1.5-.3 1.5-.1.3h-2.6v-.4l3.4-18.4.2-.4.5-.1h1.9l.2.5 3.5 18.4-.1.4h-.4zm-4.4-12.4l-1.1 6.8v.4l.4.1h2.1v-.5l-1.2-6.8h-.2zm15.4-7h3.7c1.3 0 2.3.4 3 1.3.8.8 1.1 2.1 1.1 3.8v1c0 2.1-.5 3.6-1.6 4.4l1.6 8.3c.1.4 0 .6-.3.6h-2.1l-.1-.1-.2-.3-1.4-7.5c0-.1-.1-.2-.3-.2h-1v7.5l-.2.5h-2.5l-.2-.5V22.3c0-.2 0-.3.2-.4l.4-.1zm3.7 2.4h-.8l-.5.1-.1.5v5.8h1.4c1 0 1.4-.6 1.4-2v-2.4c0-1.3-.5-2-1.4-2zm14.2 17H252l-.4-.1-.1-.5V22.3l.1-.4.4-.1h5.9l.4.1.1.4v2h-3.6c-.3 0-.4.1-.5.2v5.1h3.5c.3 0 .4.1.5.2l.1.4v1.9l-.5.2h-3.6v6.2h3.5c.3 0 .4.1.5.2l.1.4v2h-.5zm-2.5-20.4h-1c-.2 0-.3 0-.3-.3v-2.7l.1-.4c0-.1.2-.2.5-.2h1.6c.4 0 .6.3.4.8l-.9 2.3c0 .3-.1.4-.2.5h-.2zm12.6 16V22.3l.1-.4.4-.1h1.7l.4.1.2.4V36c0 1.8-.4 3-1.3 4-.8.8-1.8 1.3-3.2 1.3-1.3 0-2.4-.5-3.2-1.3s-1.2-2.2-1.2-4V22.3l.1-.4.4-.1h1.7l.4.1.2.4v14.5c0 .8.2 1.4.8 1.7.5.4 1.1.4 1.7 0 .6-.3.8-1 .8-1.7zm10.2 4.5A4 4 0 0 1 275 40a4 4 0 0 1-1.2-3.2v-.5l.5-.2h1.6c.4 0 .6.3.6.7 0 .6.1 1 .4 1.4.3.4.7.5 1.3.5.5 0 .9-.1 1.2-.4s.4-.7.5-1.2c.2-1.1-.4-2.5-1.8-4a22.4 22.4 0 0 1-1.1-1.4l-.6-.7a23.3 23.3 0 0 0-1.6-2.4 47.1 47.1 0 0 0-.6-1.7l-.1-.8a4 4 0 0 1 4-4.4 4 4 0 0 1 4 3.7v.7l-.6.2H280c-.2 0-.3 0-.4-.2l-.1-.4c0-.5-.2-.8-.4-1.1-.2-.2-.6-.4-1-.4-.5 0-.9.2-1 .6a2 2 0 0 0-.3 1.2c0 .7.4 1.5 1 2.3.5.9 1.2 1.7 1.8 2.4.7.7 1.3 1.6 2 2.6.5 1 .9 2 1 3 .2 1.3-.2 2.4-1 3.5-1 1-2 1.5-3.4 1.5zm11.3 0a4 4 0 0 1-3.2-1.3c-.9-1-1.3-2-1.3-3.2l.1-.5.5-.2h1.6c.4 0 .6.3.6.7 0 .6.1 1 .4 1.4.3.4.7.5 1.3.5.4 0 .8-.1 1.1-.4s.5-.7.6-1.2c.2-1.1-.4-2.5-1.8-4a22.4 22.4 0 0 1-1.2-1.4l-.5-.7a23.3 23.3 0 0 0-1.6-2.4 47.1 47.1 0 0 0-.7-1.7v-.8a4 4 0 0 1 4-4.4 4 4 0 0 1 4 3.7v.7l-.6.2h-1.5c-.2 0-.4 0-.4-.2l-.2-.4c0-.5 0-.8-.3-1.1-.3-.2-.6-.4-1-.4-.5 0-.9.2-1.1.6a2 2 0 0 0-.2 1.2c0 .7.4 1.5 1 2.3.5.9 1.1 1.7 1.8 2.4s1.3 1.6 1.9 2.6c.6 1 1 2 1 3 .2 1.3-.1 2.4-1 3.5-.8 1-2 1.5-3.3 1.5zm10.3-19v18.3l-.1.5h-2.5l-.1-.5V22l.5-.1h1.7l.4.1.1.4z"/><g fill="#002CFF"><path d="M262 520v-17.3c0-1.3.5-.7-.8-.7h-.2c-1.4 0-4-.6-4 .7v28.9c0 1.1 2.5 4.4 3.6 4.4h30.9c1.1 0 .5-3.3.5-4.4v-.2c0-1 .6-.4-.5-.4H262v-11"/><path d="M264 520.3l6.4-2c.4-.2 1-.1 1.3.1l5.7 4.4c.3.3.7.3 1 0l12.1-9.2-.6 2.4 2.7.7 2.8-10.1-9.9 1.8.5 2.7 2-.4-3 2.3-6.2 5c-.4.2-.7.3-1.1 0l-5.5-3.7H271c-1.8.5-4.9 1.1-6.9 1.7v4.3z"/></g><path fill="#4A4A4A" d="M19.9 511.4l1.1-3h.7V520l-.3.1H21l-.1-.3v-8c0-.1 0-.2-.2-.2H20c-.2 0-.2-.1-.1-.3zm6.8 4.2v-.1c0-.3.1-.4.3-.4h2.9c.1 0 .2.1.2.4 0 .3 0 .4-.2.4h-3s-.2 0-.2-.3zM36 511v6.5c0 .6 0 1.1.4 1.5.3.3.7.5 1.2.5s1-.2 1.2-.5c.3-.4.5-.9.5-1.5v-.2c0-.2 0-.3.3-.3h.2c.2 0 .4.1.4.3 0 1-.3 1.8-.7 2.3s-1.1.7-1.9.7c-.8 0-1.4-.3-1.9-.7s-.6-1.3-.6-2.2V511c0-1 .2-1.6.6-2.1.5-.5 1.1-.8 2-.8.7 0 1.3.3 1.8.8.4.5.7 1.2.7 2.1v.1c0 .2-.2.3-.4.3h-.2c-.2 0-.3-.1-.3-.3v-.1c0-.7-.2-1.2-.5-1.5-.3-.4-.7-.5-1.2-.5s-.9.1-1.2.5c-.3.3-.5.8-.5 1.5zm5.8 6.3v-2.7c0-1 .2-1.7.6-2.2.4-.5 1-.8 1.7-.8s1.2.3 1.6.8c.4.5.6 1.2.6 2.2v2.7c0 1-.2 1.7-.6 2.2-.4.5-1 .8-1.6.8s-1.3-.3-1.7-.8c-.4-.5-.6-1.2-.6-2.2zm3.6.3v-3.3c0-.6 0-1-.3-1.4-.3-.3-.6-.4-1-.4s-.8.1-1 .4c-.3.3-.4.8-.4 1.4v3.3c0 .7 0 1.1.3 1.4.3.3.6.5 1 .5s.8-.2 1-.5c.3-.3.4-.7.4-1.4zm6.3 2.3v-5.6c0-1.2-.4-1.8-1.3-1.8s-1.3.6-1.3 1.8v5.8l-.4.1h-.4l-.1-.3v-8.2h.8v.6c.4-.5.9-.7 1.4-.8.7 0 1.3.3 1.6.8.4.4.6 1.2.6 2.2v5.5l-.3.1h-.5v-.3zm6.6-6.3v.3h-.5c-.2 0-.3 0-.3-.3s-.1-.6-.4-.8c-.2-.2-.5-.3-.8-.3s-.5 0-.7.3a1 1 0 0 0-.4.8c0 .3.1.6.4.9l.8.8 1 .7.9 1c.2.3.3.7.3 1.1a2 2 0 0 1-.7 1.6 2.5 2.5 0 0 1-3.2 0c-.4-.5-.6-1-.6-1.6v-.3h.5c.2 0 .3 0 .3.3 0 .4.2.8.5 1 .2.2.5.4 1 .4a1.3 1.3 0 0 0 1.3-1.4c0-.4-.2-.8-.5-1.1a6 6 0 0 0-1.2-1l-1.1-1a2 2 0 0 1-.6-1.4c0-.5.2-1 .6-1.4.4-.4.9-.6 1.4-.6s1 .2 1.4.6c.4.3.6.8.6 1.4zm2.7-3.4v1.8l.2.1h.3l.2.1.1.3v.4h-.6l-.2.2v5.8c.1.3.3.5.6.5h.3v.7l-.3.1c-.6 0-1-.2-1.2-.6l-.3-1V513c0-.1 0-.2-.2-.2h-.2v-.7h.2c.2 0 .2-.1.2-.2v-2l.4-.1h.4l.1.3zm4.6 2.3c-.8 0-1.2.5-1.3 1.4l-.1.4h-.7v-.3c0-.6.1-1.2.5-1.6.3-.5.8-.8 1.6-.8 1.5 0 2.2 1 2.2 3v4.3l.2 1c0 .2-.1.3-.4.3h-.5l-.1-.5c-.5.4-1 .6-1.6.6-.7 0-1.2-.2-1.6-.6s-.5-1-.5-1.7v-.5c0-.5 0-1 .3-1.3l1-.7 1-.4 1-.5c.2-.2.3-.3.3-.6 0-.4 0-.8-.3-1-.2-.4-.6-.5-1-.5zm0 7c.5 0 .8-.2 1-.5s.3-.6.3-1.2v-2.5a9 9 0 0 1-.8.3l-.8.3c-.9.4-1.2 1-1.2 1.9 0 1.2.6 1.7 1.6 1.7zm5.1-9.3v1.8l.1.1h.3l.3.1v.7h-.6l-.1.2v5.8c0 .3.3.5.6.5h.2l.1.3v.4l-.3.1c-.6 0-1-.2-1.3-.6l-.2-1V513c0-.1 0-.2-.2-.2h-.3v-.7h.3l.2-.2v-2l.3-.1h.5v.3zM20.7 399v1.6h3.4l.2.1v.7H20v-2.6c0-.9.4-1.9 1.2-2.9a44.2 44.2 0 0 0 2.3-3.2l.1-.6c0-1.2-.5-1.8-1.4-1.8-.4 0-.8.1-1 .4-.3.3-.4.8-.4 1.4v.6H20v-.3c0-.9.1-1.6.5-2.1s1-.8 1.7-.8c.4 0 .8 0 1.1.3.4.1.6.4.7.7l.4.8v.8c0 1-.4 2-1.2 3a79.1 79.1 0 0 1-2 2.5l-.3.7v.7zm8.6-2.2v-.1c0-.2.1-.3.3-.3h2.9c.1 0 .2 0 .2.3v.1c0 .3 0 .4-.2.4h-3s-.2-.1-.2-.4zm11.7 4.7c-.3 0-.4-.1-.5-.3l-1.7-7.1s0-.1 0 0v7l-.2.3H38v-11.8h.3c.2 0 .3 0 .4.2l2.3 9.6h.1l2.4-9.6c0-.2.1-.2.3-.2h.3l.1.3v11.5h-.8V394s0-.1-.1 0l-1.8 7.1c0 .2-.2.3-.4.3zm5.6-9.3a.5.5 0 0 1-.5-.3v-.5c.1-.2.3-.3.5-.3s.4 0 .5.3v.5c-.1.2-.3.3-.5.3zm.4 1v8.2h-.8V393h.8v.3zm5.8 1.6v.3h-.5c-.2 0-.3 0-.3-.2 0-.3-.1-.6-.4-.9-.2-.2-.4-.3-.7-.3s-.6.1-.8.3a1 1 0 0 0-.4.8c0 .3.1.6.4.9l.8.8a45 45 0 0 1 1.9 1.7l.3 1.2a2 2 0 0 1-.7 1.5c-.5.4-1 .6-1.6.6-.6 0-1.1-.2-1.6-.6-.4-.4-.6-1-.6-1.6v-.2l.3-.1h.2c.2 0 .3.1.3.3 0 .5.2.8.5 1 .2.3.6.4 1 .4.3 0 .6-.1.9-.4s.4-.6.4-1-.2-.7-.5-1.1a6 6 0 0 0-1.2-1c-.4-.2-.8-.6-1.1-1a2 2 0 0 1-.6-1.3c0-.6.2-1 .6-1.4.4-.4.9-.6 1.4-.6s1 .2 1.4.5.6.8.6 1.4zm1.7 3.7V396c0-1 .2-1.8.6-2.3.4-.5 1-.7 1.6-.7s1.3.2 1.7.7c.4.5.6 1.3.6 2.3v1.2h-3.7v1.8c0 .6 0 1 .3 1.4.3.3.6.4 1 .4s.8-.1 1-.4c.2-.3.4-.6.4-1v-.4h.8v.2c0 .6-.1 1.2-.5 1.7s-1 .7-1.7.7a2 2 0 0 1-1.6-.7c-.4-.5-.6-1.3-.6-2.3zm.8-3v.8h2.8v-.8c0-.6-.1-1-.3-1.3-.3-.4-.6-.5-1-.5s-.8.1-1 .5c-.3.3-.5.7-.5 1.3zm8.8 3V396c0-1 .2-1.8.6-2.3.4-.5 1-.7 1.7-.7s1.3.2 1.7.7c.4.5.6 1.3.6 2.3v1.2H65v1.8c0 .6 0 1 .3 1.4.2.3.6.4 1 .4s.7-.1 1-.4l.4-1v-.4h.8v.2c0 .6-.2 1.2-.5 1.7-.4.5-1 .7-1.7.7a2 2 0 0 1-1.7-.7c-.4-.5-.6-1.3-.6-2.3zm1-3v.8h2.7v-.8c0-.6-.1-1-.4-1.3-.2-.4-.6-.5-1-.5s-.8.1-1 .5c-.3.3-.4.7-.4 1.3zm8.9 5.6v-5.6c0-1.2-.4-1.8-1.2-1.8-1 0-1.4.6-1.4 1.8v5.9h-.8V393h.8v.6c.4-.5.8-.7 1.4-.7.7 0 1.2.2 1.6.7.4.5.6 1.2.6 2.3v5.2l-.1.3h-.7l-.1-.3zm6.2-2.6V396c0-1 .2-1.8.6-2.3.4-.5 1-.7 1.7-.7s1.2.2 1.6.7c.4.5.6 1.3.6 2.3v1.2H81v1.8c0 .6 0 1 .3 1.4.3.3.6.4 1 .4.5 0 .8-.1 1-.4.3-.3.4-.6.4-1l.1-.4h.7v.2c0 .6-.1 1.2-.5 1.7s-1 .7-1.6.7a2 2 0 0 1-1.7-.7c-.4-.5-.6-1.3-.6-2.3zm.9-3v.8h2.7v-.8c0-.6 0-1-.3-1.3-.3-.4-.6-.5-1-.5s-.8.1-1 .5c-.3.3-.4.7-.4 1.3zm1.4-3.4c-.2 0-.2 0-.2-.2V390h.8v.3l-.3 1.6v.2h-.3zm7.6 9v-5.6c0-1.2-.4-1.8-1.3-1.8s-1.3.6-1.3 1.8v5.9h-.9l-.1-.3V393h.8v.6c.4-.5.9-.7 1.4-.7.7 0 1.3.2 1.6.7.4.5.6 1.2.6 2.3v5.5h-.8v-.3zm2.7-2.6V396c0-1 .2-1.8.6-2.3.4-.5 1-.7 1.7-.7s1.2.2 1.7.7c.4.5.6 1.3.6 2.3v.9l-.1.3h-3.6v1.8c0 .6.1 1 .4 1.4.2.3.6.4 1 .4s.7-.1 1-.4l.4-1v-.4h.8v.2c0 .6-.2 1.2-.6 1.7-.3.5-.9.7-1.6.7a2 2 0 0 1-1.7-.7c-.4-.5-.6-1.3-.6-2.3zm.9-3v.8h2.7v-.8c0-.6 0-1-.3-1.3-.2-.4-.6-.5-1-.5s-.8.1-1 .5c-.3.3-.4.7-.4 1.3zm7.7-1.5l-.4-.2c-.4 0-.7.2-.8.6v6.7l-.2.3h-.7V393h.7l.1.3v.2c.4-.4.8-.5 1.2-.5h.3l.1.3v.6h-.3zm4.8 8v-1.2c-.3.5-.8.7-1.4.7a2 2 0 0 1-1.6-.7c-.3-.5-.5-1.2-.5-2.3V396c0-1 .2-1.8.5-2.3a2 2 0 0 1 1.6-.7c.6 0 1 .2 1.4.7v-.6h.8v8.5c0 1-.1 1.7-.5 2.2a2 2 0 0 1-1.7.8c-1 0-1.8-.6-2.1-1.7 0-.1 0-.2.2-.3h.6c.2.8.6 1.1 1.3 1.1.4 0 .8-.1 1-.4.3-.3.4-.8.4-1.4zm-2.6-6.5v3.4c0 1.2.4 1.8 1.3 1.8s1.3-.6 1.3-1.8v-3.4c0-1.2-.4-1.8-1.3-1.8s-1.3.6-1.3 1.8zm6-3.3c-.3 0-.4-.1-.5-.3v-.5c0-.2.2-.3.5-.3.2 0 .3 0 .4.3v.5c0 .2-.2.3-.4.3zm.4 1v8.2h-.8V393h.7v.3zm1.9 5.3V396c0-1 .2-1.8.6-2.3.4-.5 1-.7 1.6-.7s1.3.2 1.7.7c.4.5.6 1.3.6 2.3v1.2h-3.7v1.8c0 .6 0 1 .3 1.4.3.3.6.4 1 .4s.8-.1 1-.4c.2-.3.4-.6.4-1v-.4h.8v.2c0 .6-.1 1.2-.5 1.7s-1 .7-1.7.7a2 2 0 0 1-1.6-.7c-.4-.5-.6-1.3-.6-2.3zm.8-3v.8h2.8v-.8c0-.6 0-1-.3-1.3-.3-.4-.6-.5-1-.5s-.8.1-1 .5c-.3.3-.5.7-.5 1.3zM23.9 152v4l-.3.1h-.5v-4l-.3-.1h-3l-.2-.1-.1-.3.1-.6 3.3-6.6.4-.2h.5v6.8l.3.1.3.1v.7h-.3c-.2 0-.2.1-.2.2zm-1-6l-2.4 4.9v.1h2.3l.2-.1V146h-.1zm6.5 5.4v-.2c0-.2.1-.3.3-.3h2.9c.1 0 .2.1.2.3v.2c0 .2 0 .3-.2.3h-3s-.2 0-.2-.3zm9.2-4.6v6.5c0 .6.2 1.1.5 1.4.3.4.7.6 1.2.6s1-.2 1.2-.6c.3-.3.5-.8.5-1.4v-.2c0-.2 0-.3.3-.3h.2c.2 0 .4.1.4.3 0 1-.3 1.8-.7 2.2s-1.1.8-1.9.8c-.8 0-1.4-.3-1.8-.8s-.7-1.2-.7-2.1v-6.3c0-1 .2-1.6.7-2.1s1-.8 1.8-.8 1.4.3 1.9.8.7 1.2.7 2.1v.1c0 .2-.2.3-.4.3h-.2c-.2 0-.3-.1-.3-.3v-.2a2 2 0 0 0-.5-1.4c-.3-.4-.7-.5-1.2-.5s-.9.1-1.2.5a2 2 0 0 0-.5 1.4zm5.9 6.2v-2.6c0-1 .2-1.7.6-2.2.4-.5 1-.8 1.7-.8s1.2.3 1.6.8c.4.5.6 1.2.6 2.2v2.7c0 1-.2 1.7-.6 2.2-.4.5-1 .8-1.6.8s-1.3-.3-1.7-.8c-.4-.5-.6-1.2-.6-2.2zm3.6.4v-3.3c0-.6 0-1.1-.3-1.4-.3-.3-.6-.4-1-.4s-.8.1-1 .4c-.3.3-.4.8-.4 1.4v3.3c0 .6 0 1.1.3 1.4.3.3.6.5 1 .5s.8-.2 1-.5c.3-.3.4-.8.4-1.4zm7.2-3.4v5.9l-.3.1h-.5v-6c0-1.2-.5-1.8-1.4-1.8-.9 0-1.3.6-1.3 1.8v5.8l-.4.1H51l-.1-.3v-8.1l.3-.1h.5v.7c.4-.5.9-.8 1.4-.8.9 0 1.5.3 1.8 1 .5-.6 1-1 1.8-1 .7 0 1.2.2 1.6.7.4.5.6 1.3.6 2.3v5.3l-.1.2-.3.1H58V150c0-1.2-.5-1.8-1.4-1.8-.8 0-1.3.6-1.3 1.8zm5.5 8.7v-11.1l.4-.1h.4l.1.3v.3c.3-.4.8-.6 1.4-.7a2 2 0 0 1 1.6.7c.3.5.5 1.3.5 2.3v2.7c0 1-.2 1.8-.5 2.3a2 2 0 0 1-1.6.7c-.6 0-1-.3-1.4-.8v3.7h-.8v-.3zm3.5-5.3v-3.3c0-1.2-.4-1.8-1.3-1.8s-1.3.6-1.3 1.8v3.3c0 1.3.4 1.9 1.3 1.9 1 0 1.3-.7 1.3-1.9zm4.2 1.8h.3v.7l-.3.1c-.6 0-1-.2-1.2-.7l-.2-1v-10.1l.3-.1h.4l.1.3v10.3c.1.3.3.5.6.5zm2.3-8.5c-.2 0-.3 0-.4-.2v-.6c0-.2.2-.3.4-.3s.4.1.5.3v.6c0 .1-.2.2-.5.2zm.5 1.1v7.9l-.1.2-.3.1h-.4l-.1-.3v-8.1l.3-.1h.5v.3zm6.4 2.2v5.9l-.3.1h-.5v-6c0-1.2-.5-1.8-1.4-1.8-.9 0-1.3.6-1.3 1.8v5.8l-.3.1h-.5v-8.4l.2-.1h.5v.7c.4-.5.9-.8 1.5-.8.8 0 1.4.3 1.8 1 .4-.6 1-1 1.7-1s1.2.2 1.6.7c.4.5.6 1.3.6 2.3v5.3l-.1.2-.3.1h-.4l-.1-.3V150c0-1.2-.5-1.8-1.3-1.8-1 0-1.4.6-1.4 1.8zm5.3 3v-2.6c0-1 .3-1.7.7-2.2.4-.5 1-.8 1.6-.8s1.3.3 1.7.8c.4.5.6 1.2.6 2.2v1.2h-3.3l-.3.1v1.7c0 .6 0 1.1.3 1.4.3.3.6.5 1 .5s.8-.2 1-.4c.2-.3.4-.7.4-1.1v-.4h.8v.3c0 .6-.2 1.1-.5 1.7-.4.4-1 .7-1.7.7a2 2 0 0 1-1.6-.8c-.4-.5-.7-1.2-.7-2.2zm1-3v.8h2.7v-.7c0-.6-.1-1.1-.4-1.4-.2-.3-.5-.4-1-.4s-.7.1-1 .4c-.2.3-.4.8-.4 1.4zm9 5.7V150c0-1.2-.4-1.8-1.3-1.8s-1.3.6-1.3 1.8v5.6l-.1.2-.3.1h-.4l-.1-.3v-8.1l.3-.1h.5v.7c.4-.5.8-.8 1.4-.8.7 0 1.2.2 1.6.7.4.5.6 1.3.6 2.3v5.5l-.3.1H93v-.3zm3.7-9.7v1.7c0 .2 0 .2.2.2h.6v.8h-.6c-.1 0-.2 0-.2.2v4.5l.1 1.3c0 .3.2.5.5.5h.3v.7l-.3.1c-.6 0-1-.2-1.2-.7l-.2-1v-5.4l-.2-.2h-.3v-.7h.3l.1-.3V146l.1-.2.3-.1h.5v.3zm6.3 3.4l-.1.2-.3.1h-.2c-.1 0-.2 0-.3-.3 0-.3-.1-.6-.3-.8-.2-.2-.5-.3-.8-.3s-.6 0-.8.3a1 1 0 0 0-.3.8c0 .3 0 .6.3.8l.9.9 1 .7c.4.2.6.6.8 1 .2.3.3.7.3 1.1a2 2 0 0 1-.7 1.6c-.4.4-1 .6-1.5.6-.7 0-1.2-.2-1.6-.7-.5-.4-.7-.9-.7-1.5v-.3h.5c.2 0 .3 0 .4.3 0 .4.2.7.4 1 .3.2.6.4 1 .4a1.3 1.3 0 0 0 1.3-1.4c0-.4-.1-.8-.5-1.1a6 6 0 0 0-1.2-1l-1-1a2 2 0 0 1-.6-1.4c0-.5.2-1 .6-1.4.3-.4.8-.6 1.4-.6s1 .2 1.3.6c.4.3.6.8.7 1.4zM21.6 272.5v-.4h.7c.8 0 1.1-.6 1.1-1.6v-1.1c0-.6 0-1-.4-1.4-.2-.3-.6-.4-1-.4s-.8 0-1 .4c-.3.2-.4.6-.5 1v.3l-.2.1h-.6v-.3c0-.6.2-1.1.6-1.6.3-.5 1-.8 1.7-.8s1.3.3 1.7.8.6 1.2.6 2.2v.7c0 1-.2 1.5-.6 2 .4.5.6 1.1.6 2v1.4c0 1-.2 1.7-.6 2.2-.4.5-1 .8-1.7.8-.8 0-1.4-.3-1.7-.7-.4-.5-.6-1.1-.6-1.7v-.3h.8v.4c0 .4.2.8.5 1 .2.3.6.5 1 .5s.8-.2 1-.5c.3-.3.4-.8.4-1.4v-1.8c0-1-.3-1.5-1-1.5h-.7l-.1-.3zm7.7 1.5c0-.3 0-.4.2-.4h3s.2.1.2.3v.2c0 .2-.1.3-.3.3h-2.9c-.1 0-.2 0-.2-.3zm9.2-4.5v6.5c0 .6.1 1.1.5 1.4.3.4.7.6 1.2.6s.9-.2 1.2-.6c.3-.3.4-.8.4-1.4v-.2c0-.2.1-.3.4-.3h.2c.2 0 .3.1.3.3 0 1-.2 1.8-.7 2.2s-1 .8-1.8.8-1.4-.3-1.9-.8-.7-1.2-.7-2.1v-6.3c0-1 .2-1.6.7-2.1s1-.8 1.9-.8c.7 0 1.4.3 1.8.8s.7 1.2.7 2.1v.1c0 .2-.1.3-.3.3h-.2c-.3 0-.4-.1-.4-.3v-.2c0-.6-.1-1.1-.4-1.4-.3-.4-.7-.5-1.2-.5s-1 .1-1.2.5c-.4.3-.5.8-.5 1.4zm5.8 6.3V273c0-1 .2-1.7.6-2.2.4-.5 1-.8 1.7-.8s1.3.3 1.7.8c.4.5.6 1.2.6 2.2v2.7c0 1-.2 1.7-.6 2.2-.4.5-1 .8-1.7.8s-1.3-.3-1.7-.8c-.4-.5-.6-1.2-.6-2.2zm3.7.3v-3.3c0-.6-.1-1-.4-1.4-.2-.3-.6-.4-1-.4s-.8.1-1 .4c-.3.3-.4.8-.4 1.4v3.3c0 .7.1 1.1.4 1.4.2.3.6.5 1 .5s.8-.2 1-.5c.3-.3.4-.7.4-1.4zm7.2-3.3v5.6l-.1.2-.3.1h-.4l-.1-.3v-5.6c0-1.2-.5-1.8-1.3-1.8-1 0-1.4.6-1.4 1.8v5.8l-.3.1h-.5v-8.5h.8v.7c.4-.5.8-.8 1.4-.8.8 0 1.4.3 1.8 1 .4-.6 1-1 1.7-1s1.2.3 1.6.7c.4.5.6 1.3.6 2.3v5.5l-.3.1h-.5v-6c0-1.2-.5-1.8-1.4-1.8-.9 0-1.3.6-1.3 1.8zm5.5 8.6v-11.1h.8v.6a2 2 0 0 1 1.4-.8c.7 0 1.2.3 1.6.7.4.5.6 1.3.6 2.3v2.7c0 1-.2 1.8-.6 2.3a2 2 0 0 1-1.6.7c-.6 0-1-.3-1.4-.8v3.7h-.8v-.3zm3.5-5.3v-3.3c0-1.2-.4-1.8-1.3-1.8-1 0-1.4.6-1.4 1.8v3.3c0 1.3.5 1.9 1.4 1.9.9 0 1.3-.6 1.3-1.9zm4.8-4.9l-.3-.1c-.4 0-.7.2-.8.6v6.7l-.1.2-.3.1H67v-8.5h.8v.5c.4-.4.8-.6 1.3-.6h.3v1.1H69zm1.4 4.6V273c0-1 .2-1.7.6-2.2.4-.5 1-.8 1.6-.8s1.3.3 1.7.8c.4.5.6 1.2.6 2.2v1.2h-3.3l-.3.1v1.7c0 .7 0 1.1.3 1.4.3.3.6.5 1 .5.5 0 .8-.2 1-.4.3-.3.4-.7.4-1.1v-.4h.8v.3c0 .6-.1 1.2-.5 1.7-.4.4-1 .7-1.7.7a2 2 0 0 1-1.6-.8c-.4-.5-.6-1.2-.6-2.2zm.9-3v.7H74v-.7c0-.6 0-1-.3-1.4-.3-.3-.6-.4-1-.4s-.8.1-1 .4c-.3.3-.4.8-.4 1.4zm1.4-3.4c-.2 0-.2 0-.2-.2v-1.9l.3-.1h.5v.4L73 269l-.1.2h-.2zm7.6 9v-5.6c0-1.2-.4-1.8-1.3-1.8s-1.3.6-1.3 1.8v5.6l-.1.2-.3.1h-.4l-.1-.3v-11.6h.8v4c.4-.5.9-.7 1.4-.8.7 0 1.2.3 1.6.7.4.5.6 1.3.6 2.3v5.5l-.3.1h-.5v-.3zm2.7-2.6V273c0-1 .2-1.7.6-2.2.4-.5 1-.8 1.7-.8s1.2.3 1.6.8c.4.5.7 1.2.7 2.2v1l-.1.2h-3.3l-.3.1v1.7c0 .7.1 1.1.4 1.4.2.3.5.5 1 .5.4 0 .7-.2 1-.4l.4-1.1v-.4h.7l.1.3c0 .6-.2 1.2-.6 1.7a2 2 0 0 1-1.6.7 2 2 0 0 1-1.7-.8c-.4-.5-.6-1.2-.6-2.2zm.9-3v.7h2.7v-.7c0-.6 0-1-.3-1.4-.3-.3-.6-.4-1-.4s-.8.1-1 .4c-.3.3-.4.8-.4 1.4zm9.1 5.6v-5.6c0-1.2-.5-1.8-1.4-1.8-.9 0-1.3.6-1.3 1.8v5.8l-.3.1h-.5v-8.5h.7l.1.2v.4c.3-.5.8-.7 1.4-.8.6 0 1.2.3 1.6.7.4.5.5 1.3.5 2.3v5.5l-.3.1H93v-.3zm6.5-6.4v.3l-.3.1H99c-.2 0-.3 0-.3-.3s-.1-.6-.3-.8c-.3-.2-.5-.3-.8-.3s-.6 0-.8.3a1 1 0 0 0-.4.8c0 .3.2.6.4.9l.8.8 1 .7c.3.2.7.6.9 1 .2.3.3.7.3 1.1a2 2 0 0 1-.7 1.6c-.4.4-1 .6-1.6.6-.6 0-1.1-.2-1.5-.7-.5-.4-.7-.9-.7-1.5v-.3h.5c.2 0 .3 0 .3.3 0 .4.2.7.5 1 .3.2.6.4 1 .4a1.3 1.3 0 0 0 1.3-1.4c0-.4-.2-.8-.5-1.1a6 6 0 0 0-1.2-1l-1.1-1a2 2 0 0 1-.5-1.4c0-.5.2-1 .5-1.4.4-.4.9-.6 1.4-.6s1 .2 1.4.6c.4.3.6.8.6 1.4zm2.3-2.6c-.2 0-.4 0-.5-.2v-.6c.1-.2.3-.2.5-.2s.4 0 .5.2v.6c-.1.2-.3.2-.5.2zm.4 1.1v8.1l-.3.1h-.5v-8.5h.7l.1.2zm1.8 5.3V273c0-1 .3-1.7.7-2.2.4-.5 1-.8 1.7-.8s1.2.3 1.6.8c.4.5.7 1.2.7 2.2v2.7c0 1-.3 1.7-.7 2.2-.4.5-1 .8-1.6.8s-1.3-.3-1.7-.8c-.4-.5-.6-1.2-.6-2.2zm3.8.3v-3.3c0-.6-.2-1-.4-1.4-.3-.3-.6-.4-1-.4s-.8.1-1 .4c-.3.3-.4.8-.4 1.4v3.3c0 .7.1 1.1.4 1.4.2.3.5.5 1 .5s.7-.2 1-.5c.2-.3.4-.7.4-1.4zm6.2 2.3v-5.6c0-1.2-.4-1.8-1.3-1.8s-1.3.6-1.3 1.8v5.8l-.3.1h-.5v-8.5h.7l.1.2v.4c.3-.5.8-.7 1.4-.8.6 0 1.2.3 1.6.7.3.5.5 1.3.5 2.3v5.5l-.3.1h-.5v-.3z"/><path fill="#002CFF" d="M177.6 211.6h10.5v19.9h-10.5z"/><path fill="#002CFF" d="M182.9 198.2l7.7 18.9-7.7-4.5-7.7 4.5zm-5.3-110.5h10.5v19.9h-10.5z"/><path fill="#002CFF" d="M182.9 74.3l7.7 18.9-7.7-4.5-7.7 4.5zM177.6 333h10.5v19.9h-10.5z"/><path fill="#002CFF" d="M182.9 319.6l7.7 18.9-7.7-4.5-7.7 4.5zm-5.3 136.6h10.5v19.9h-10.5z"/><path fill="#002CFF" d="M182.9 442.8l7.7 18.9-7.7-4.5-7.7 4.5z"/><path fill="#002CFF" stroke="#41D5CF" stroke-miterlimit="10" stroke-width="5" d="M227.3 395.7a44.5 44.5 0 1 1-89 0 44.5 44.5 0 0 1 89 0zm0 120a44.5 44.5 0 1 1-89-.1 44.5 44.5 0 0 1 89 0zm0-242.1a44.5 44.5 0 1 1-89-.1 44.5 44.5 0 0 1 89 0zm-88.9-122.3a44.5 44.5 0 1 1 89 0 44.5 44.5 0 0 1-89 0z"/><path fill="#FFF" d="M166.7 499h-.2l-.2-.2-.1-.2v-10.8h3.8v.6h-2.7l-.2.1v4.1h2.4v.7h-2.2l-.2.1v5.2l-.1.2-.3.1zm6.6-7.4c-.7 0-1.1.5-1.2 1.4l-.1.3h-.7v-.2c0-.6.1-1.1.5-1.6.3-.4.8-.7 1.5-.7 1.4 0 2.1 1 2.1 2.9v4l.1.9c0 .2 0 .3-.3.3h-.5l-.1-.5a2 2 0 0 1-1.5.6 2 2 0 0 1-1.4-.6c-.4-.3-.6-.9-.6-1.6v-.4c0-.5.1-1 .4-1.2.2-.3.5-.6.8-.7l1-.4 1-.4.3-.6c0-.4-.1-.8-.3-1-.3-.3-.6-.5-1-.5zm.1 6.6c.4 0 .7-.2.9-.4s.3-.6.3-1.1v-2.4l-.8.3-.8.3c-.8.4-1.1 1-1 1.7 0 1.2.4 1.7 1.4 1.6zm4.3-8a.5.5 0 0 1-.5-.3v-.5l.5-.2c.2 0 .3 0 .4.2v.5c0 .2-.2.3-.4.3zm.4 1v7.6l-.3.1h-.5V491h.7v.2zm3.9.6h-.4c-.3 0-.6.1-.7.5v6.3l-.1.2-.3.1h-.4l-.1-.3V491h.8v.4c.4-.3.7-.5 1.2-.5h.3v1h-.3zm1.2 4.4v-2.5c0-1 .2-1.7.6-2.2a2 2 0 0 1 1.6-.7 2 2 0 0 1 1.5.7c.4.5.6 1.2.6 2.2v1.1H184v1.8c0 .6 0 1 .3 1.3.2.3.6.4 1 .4.3 0 .7-.1.9-.4.2-.2.3-.6.4-1v-.3h.7v.2c0 .6-.1 1.1-.5 1.6-.3.4-.8.7-1.5.7a2 2 0 0 1-1.6-.7c-.4-.5-.6-1.2-.6-2.1zm.9-2.9v.7h2.5v-.7c0-.5 0-1-.3-1.3-.2-.2-.5-.4-1-.4-.3 0-.7.2-.9.4-.2.3-.3.8-.3 1.3zm9.7 4.8l.3.1v.6l-.3.1c-.6 0-1-.2-1.1-.6-.2-.3-.2-.6-.3-1v-9.5h.8v8.7l.1 1.1c0 .4.2.5.5.5zm1.6-1.9v-2.5c0-1 .2-1.7.6-2.2a2 2 0 0 1 1.6-.7 2 2 0 0 1 1.5.7c.4.5.6 1.2.6 2.2v1.1h-3.5v1.8c0 .6 0 1 .3 1.3.2.3.5.4 1 .4.3 0 .6-.1.9-.4.2-.2.3-.6.4-1v-.3h.7v.2c0 .6-.1 1.1-.5 1.6a2 2 0 0 1-1.5.7 2 2 0 0 1-1.6-.7c-.4-.5-.6-1.2-.6-2.1zm.8-2.9v.7h2.6v-.7c0-.5 0-1-.3-1.3-.2-.2-.5-.4-1-.4-.4 0-.7.2-1 .4-.1.3-.3.8-.3 1.3zM150 521a2 2 0 0 1-1.6-.7c-.4-.5-.6-1.2-.6-2.1v-2.5c0-1 .2-1.7.6-2.2a2 2 0 0 1 1.6-.7c.7 0 1.2.3 1.5.7.4.5.6 1 .6 1.6v.2h-.8v-.3c0-.4-.2-.8-.4-1-.2-.3-.5-.4-1-.4-.3 0-.6.2-.9.4-.2.3-.3.8-.3 1.3v3.2c0 .6 0 1 .3 1.3.3.3.6.4 1 .4s.7-.1.9-.4c.2-.2.3-.6.4-1v-.3h.7v.2c0 .6-.1 1.1-.5 1.6-.3.5-.8.7-1.5.7zm3.7-2.8v-2.5c0-1 .2-1.7.6-2.2a2 2 0 0 1 1.5-.7 2 2 0 0 1 1.6.7c.4.5.6 1.2.6 2.2v2.5c0 1-.2 1.6-.6 2a2 2 0 0 1-1.6.8 2 2 0 0 1-1.5-.7c-.4-.5-.6-1.2-.6-2.1zm3.4.3v-3.2c0-.5 0-1-.3-1.3-.3-.2-.6-.4-1-.4s-.7.2-1 .4c-.2.3-.3.8-.3 1.3v3.2c0 .6.1 1 .4 1.3.2.3.5.4 1 .4.3 0 .6-.1.9-.4.2-.3.3-.7.3-1.3zm5.9 2.1v-5.3c0-1.1-.4-1.7-1.2-1.7s-1.2.6-1.2 1.7v5.3l-.1.2-.3.1h-.4V513h.7v.5c.4-.4.8-.6 1.3-.7.7 0 1.2.2 1.5.7.4.5.6 1.2.6 2.2v5.1l-.3.1h-.5v-.3zm6.2-5.9v.2h-.4c-.2 0-.3 0-.3-.2 0-.3-.2-.5-.4-.8s-.4-.3-.7-.3-.5.1-.8.3a1 1 0 0 0-.3.8c0 .2.1.5.4.8l.8.8.9.7c.3.2.6.5.8.9l.3 1c0 .6-.2 1.1-.7 1.5a2 2 0 0 1-1.4.6 2 2 0 0 1-1.5-.6 2 2 0 0 1-.7-1.5l.1-.2h.4c.2 0 .3 0 .3.2 0 .4.2.7.5 1s.5.3.9.3a1.3 1.3 0 0 0 1.3-1.3c0-.4-.2-.7-.5-1l-1.1-1a5 5 0 0 1-1.1-1 2 2 0 0 1-.5-1.2c0-.5.2-1 .5-1.3.4-.4.8-.5 1.4-.5s.9.1 1.3.4c.3.4.5.8.5 1.4zm2.6-3.2v1.6l.1.2h.6v.7h-.6l-.1.2v5.4c.1.4.3.5.5.5l.3.1v.6l-.3.1c-.5 0-1-.2-1.1-.6l-.2-1v-5.1l-.2-.1-.3-.1v-.6l.3-.1.1-.2v-1.6l.1-.2.3-.1h.4v.3zm4.2 2.1c-.7 0-1 .5-1.2 1.4v.3h-.7v-.2c0-.6.1-1.1.5-1.6.3-.4.8-.7 1.5-.7 1.4 0 2 1 2 2.9v4l.2.9c0 .2 0 .3-.3.3h-.5l-.1-.5a2 2 0 0 1-1.5.6 2 2 0 0 1-1.5-.6c-.3-.3-.5-.9-.5-1.6v-.4c0-.5.1-1 .4-1.2.2-.3.5-.6.8-.7l1-.4.9-.4.3-.6c0-.4 0-.8-.3-1-.2-.3-.5-.5-1-.5zm.2 6.6c.4 0 .7-.2.9-.4s.3-.6.3-1.1v-2.4l-.8.3-.8.3c-.8.4-1.1 1-1 1.7 0 1.2.4 1.7 1.4 1.6zm4.7-8.7v1.6l.1.2h.6v.7h-.6l-.1.2v5.4c0 .4.3.5.5.5l.3.1v.6l-.3.1c-.5 0-1-.2-1.1-.6l-.2-1v-5.1l-.2-.1-.3-.1v-.6l.3-.1.1-.2v-1.6l.1-.2.2-.1h.5v.3zm7.5-1c-.5 0-.8.2-1 .4l-.2 1.6v.6l.2.2h.9v.7h-.9l-.2.2v6.6l-.3.1h-.4v-6.7l-.2-.2h-.3v-.6l.3-.1.1-.2v-1.4a6 6 0 0 1 .3-1.2v-.1l.2-.1a3.9 3.9 0 0 1 .3-.3c.3-.2.7-.3 1.2-.3h.2l.1.3v.4h-.3zm3.3 3.1c-.7 0-1.1.5-1.2 1.4v.3h-.8v-.2c0-.6.2-1.1.5-1.6.3-.4.8-.7 1.5-.7 1.4 0 2.1 1 2.1 2.9v4c0 .1 0 .5.2.9 0 .2 0 .3-.4.3h-.5v-.5a2 2 0 0 1-1.6.6 2 2 0 0 1-1.4-.6c-.4-.3-.5-.9-.5-1.6v-.4c0-.5 0-1 .3-1.2.2-.3.5-.6.9-.7l1-.4.8-.4c.3-.2.4-.4.4-.6 0-.4-.1-.8-.3-1-.2-.3-.5-.5-1-.5zm.1 6.6c.4 0 .7-.2 1-.4s.2-.6.2-1.1v-2.4l-.8.3-.7.3c-.8.4-1.2 1-1.1 1.7 0 1.2.5 1.7 1.4 1.6zm5.9.8a2 2 0 0 1-1.6-.7c-.4-.5-.6-1.2-.6-2.1v-2.5c0-1 .2-1.7.6-2.2a2 2 0 0 1 1.6-.7c.7 0 1.2.3 1.5.7.4.5.5 1 .6 1.6l-.1.2h-.7v-.3c0-.4-.2-.8-.4-1-.3-.3-.6-.4-1-.4-.3 0-.7.2-.9.4-.2.3-.4.8-.4 1.3v3.2c0 .6.2 1 .4 1.3.2.3.6.4 1 .4.3 0 .6-.1.9-.4.2-.2.3-.6.4-1v-.3h.7v.2c0 .6-.1 1.1-.5 1.6-.3.5-.8.7-1.5.7zm4.6-9.5v1.6l.2.2h.5l.1.3v.4h-.6l-.2.2v4.3l.1 1.1c0 .4.2.5.5.5l.3.1v.6l-.3.1c-.6 0-1-.2-1.1-.6l-.3-1v-5.1l-.1-.1-.3-.1v-.6l.3-.1.1-.2v-1.8l.3-.1h.5v.3zm3.1 1.7v5.3c0 1.1.5 1.7 1.3 1.7s1.2-.6 1.2-1.7v-5.3l.1-.2h.7v7.8l-.3.1h-.4v-.6c-.4.4-.8.7-1.3.7-.7 0-1.2-.2-1.6-.7a4 4 0 0 1-.5-2.1V513h.8v.2zm5.1 5v-2.5c0-1 .2-1.7.6-2.2a2 2 0 0 1 1.6-.7 2 2 0 0 1 1.5.7c.4.5.6 1.2.6 2.2v1.1h-3.5v1.8c0 .6 0 1 .3 1.3.2.3.6.4 1 .4s.7-.1.9-.4c.2-.2.3-.6.4-1v-.3h.7v.2c0 .6-.1 1.1-.5 1.6-.3.4-.8.7-1.5.7a2 2 0 0 1-1.6-.7c-.4-.5-.6-1.2-.6-2.1zm.9-2.9v.7h2.5v-.7c0-.5 0-1-.3-1.3-.2-.2-.5-.4-1-.4-.3 0-.7.2-.9.4-.2.3-.3.8-.3 1.3zm6.5 4.8l.2.1.1.3v.3l-.3.1c-.6 0-1-.2-1.2-.6l-.2-1v-9.5h.7l.1.2v9.6c.1.4.3.5.6.5zM162.3 532v10.8l-.3.1h-.4v-.6c-.4.4-.8.7-1.4.7-.6 0-1.1-.2-1.5-.7a4 4 0 0 1-.5-2.1v-2.5c0-1 .2-1.7.5-2.2.4-.5.9-.7 1.5-.7s1 .3 1.3.7v-3.7h.8v.2zm-3.3 5.3v3.2c0 1.1.4 1.7 1.3 1.7s1.2-.6 1.2-1.7v-3.2c0-1.1-.4-1.7-1.2-1.7s-1.3.6-1.3 1.7zm6-2.1v5.3c0 1.1.4 1.7 1.3 1.7s1.2-.6 1.2-1.7V535h.8v7.8l-.3.1h-.4v-.6c-.4.4-.8.7-1.4.7-.6 0-1.1-.2-1.5-.7a4 4 0 0 1-.5-2.1V535h.7l.1.2zm10.5.6h-.4c-.3 0-.6.1-.7.5v6.3l-.2.2-.2.1h-.4l-.1-.3V535h.7l.1.2v.2c.3-.3.7-.5 1.2-.5h.2l.1.3v.6h-.3zm1.2 4.4v-2.5c0-1 .2-1.7.6-2.2a2 2 0 0 1 1.5-.7 2 2 0 0 1 1.6.7c.4.5.6 1.2.6 2.2v1.1h-3.5v1.8c0 .6 0 1 .3 1.3.2.3.5.4 1 .4.3 0 .6-.1.9-.4.2-.2.3-.6.3-1l.1-.3h.7v.2a3 3 0 0 1-.5 1.6 2 2 0 0 1-1.6.7 2 2 0 0 1-1.5-.7c-.4-.5-.6-1.2-.6-2.1zm.8-2.9v.7h2.7v-.7c0-.5 0-1-.3-1.3-.2-.2-.6-.4-1-.4s-.7.2-1 .4c-.2.3-.3.8-.3 1.3zm1.4-3.2l-.2-.1v-1.9h.8v.3l-.3 1.5-.1.2h-.2zm7.4 2.6l-.1.2h-.4c-.2 0-.3 0-.3-.2 0-.3-.1-.5-.3-.8s-.5-.3-.8-.3-.5.1-.7.3a1 1 0 0 0-.3.8c0 .2 0 .5.3.8l.8.8 1 .7.7.9.3 1a2 2 0 0 1-.6 1.5c-.5.4-1 .6-1.5.6a2 2 0 0 1-1.5-.6 2 2 0 0 1-.6-1.5v-.2h.4c.2 0 .3 0 .4.2 0 .4.2.7.4 1s.5.3.9.3a1.3 1.3 0 0 0 1.3-1.3c0-.4-.2-.7-.5-1l-1.1-1a5 5 0 0 1-1-1 2 2 0 0 1-.6-1.2c0-.5.2-1 .6-1.3.3-.4.8-.5 1.3-.5s1 .1 1.3.4c.3.4.5.8.6 1.4zm2.4-1.5v5.3c0 1.1.4 1.7 1.3 1.7s1.2-.6 1.2-1.7V535h.8v7.8l-.3.1h-.4v-.6c-.4.4-.8.7-1.4.7-.6 0-1.1-.2-1.5-.7a4 4 0 0 1-.5-2.1V535h.7l.1.2zm6.6 6.9l.2.1.1.3v.3l-.3.1c-.6 0-1-.2-1.2-.6l-.2-1v-9.5h.7l.1.2v9.6c.1.4.3.5.6.5zm2.6-8.6v1.6l.1.2h.6v.7h-.6l-.1.2v5.4c.1.4.3.5.6.5l.2.1v.6l-.2.1c-.6 0-1-.2-1.2-.6l-.2-1v-5.1l-.2-.1-.3-.1v-.6l.3-.1c.1 0 .2 0 .2-.2v-1.8l.3-.1h.4v.3zm4.3 2.1c-.7 0-1.2.5-1.2 1.4l-.1.3h-.7v-.2c0-.6.1-1.1.5-1.6.3-.4.8-.7 1.5-.7 1.4 0 2.1 1 2.1 2.9v4l.1.9c0 .2 0 .3-.3.3h-.5l-.1-.5a2 2 0 0 1-1.5.6 2 2 0 0 1-1.5-.6c-.3-.3-.5-.9-.5-1.6v-.4c0-.5.1-1 .4-1.2.2-.3.5-.6.8-.7l1-.4.9-.4c.2-.2.4-.4.4-.6 0-.4-.1-.8-.4-1a1 1 0 0 0-.9-.5zm.1 6.6c.4 0 .7-.2.9-.4s.3-.6.3-1.1v-2.4l-.8.3-.8.3c-.8.4-1.1 1-1 1.7 0 1.2.4 1.7 1.4 1.6zm4.7-8.7v1.6l.1.2h.6v.7h-.6l-.1.2v5.4c.1.4.3.5.5.5l.3.1v.6l-.3.1c-.5 0-1-.2-1.1-.6l-.2-1v-5.1l-.2-.1-.3-.1v-.6l.3-.1.1-.2v-1.6l.1-.2.3-.1h.4v.3zm-55.7-153.9h-.4l-.1-.3v-10.8h3.8v.6h-2.7l-.2.1v4.1h2.4v.7l-.2.1h-2.2v5.3l-.1.2h-.3zm6.7-7.3c-.8 0-1.2.5-1.3 1.4v.3l-.3.1h-.5v-.3c0-.6.2-1.1.5-1.6.3-.4.8-.6 1.5-.6 1.4 0 2.1.9 2.1 2.8v4l.1 1c.1.1 0 .2-.3.2h-.5l-.1-.5a2 2 0 0 1-1.5.6c-.6 0-1-.2-1.4-.6s-.6-.9-.6-1.5v-.5c0-.5.1-.9.4-1.2.2-.3.5-.6.8-.7l1-.4 1-.4.3-.6c0-.4-.1-.8-.3-1-.3-.3-.6-.5-1-.5zm0 6.6c.4 0 .7-.1.9-.4s.3-.6.3-1.1V375l-.8.3-.8.3c-.8.4-1.1 1-1 1.7 0 1.2.4 1.7 1.4 1.6zm4.3-7.9c-.2 0-.4-.2-.5-.3v-.6l.5-.2c.2 0 .3 0 .4.2v.6l-.4.2zm.4 1v7.6h-.8v-7.9h.7v.2zm3.9.5h-.4c-.3 0-.6.1-.7.5v6.3l-.1.3h-.7v-7.9h.7v.4a2 2 0 0 1 1.2-.5l.3.1v.8h-.3zm1.2 4.4v-2.5c0-1 .2-1.7.6-2.1a2 2 0 0 1 1.6-.7 2 2 0 0 1 1.5.7c.4.4.6 1.1.6 2v1.2H169l-.3.1v1.6c0 .6 0 1 .3 1.3.2.3.6.4 1 .4.3 0 .7-.1.9-.4.2-.2.3-.5.4-1v-.3h.7v.2c0 .6-.1 1.1-.5 1.6-.3.5-.8.7-1.5.7a2 2 0 0 1-1.6-.7c-.4-.5-.6-1.2-.6-2.1zm.9-2.9v.8h2.5v-.8c0-.5 0-1-.3-1.2-.2-.3-.5-.5-1-.5-.3 0-.7.2-.9.5-.2.2-.3.7-.3 1.2zm10.4-1.5h-.4c-.3 0-.6.1-.7.5v6.3l-.2.3h-.6l-.1-.3v-7.5h.7l.1.2v.2c.3-.3.7-.5 1.2-.5l.2.1.1.2v.6h-.3zm3.3-.2c-.7 0-1.1.5-1.2 1.4v.3l-.3.1h-.4l-.1-.3c0-.6.2-1.1.5-1.6.3-.4.8-.6 1.5-.6 1.4 0 2.1.9 2.1 2.8v4l.2 1c0 .1 0 .2-.4.2h-.5v-.5a2 2 0 0 1-1.6.6c-.6 0-1-.2-1.4-.6s-.5-.9-.5-1.5v-.5c0-.5 0-.9.3-1.2.2-.3.5-.6.9-.7l1-.4.8-.4c.3-.2.4-.4.4-.6 0-.4-.1-.8-.3-1-.2-.3-.5-.5-1-.5zm.1 6.6c.4 0 .7-.1 1-.4s.2-.6.2-1.1V375l-.8.3-.7.3c-.8.4-1.2 1-1.1 1.7 0 1.2.5 1.7 1.4 1.6zm5.9.8a2 2 0 0 1-1.6-.7c-.4-.5-.6-1.2-.6-2.1v-2.5c0-1 .2-1.7.6-2.1a2 2 0 0 1 1.6-.7c.7 0 1.2.2 1.5.7.4.4.5 1 .6 1.5l-.1.2-.2.1h-.5v-.4c0-.4-.2-.7-.4-1-.2-.2-.6-.4-1-.4-.3 0-.7.2-.9.5-.2.2-.3.7-.3 1.2v3.2c0 .6 0 1 .3 1.3.2.3.6.4 1 .4.3 0 .7-.1.9-.4.2-.2.3-.5.4-1v-.3h.7v.2c0 .6-.1 1.1-.5 1.6-.3.5-.8.7-1.5.7zm3.6-2.8v-2.5c0-1 .3-1.7.6-2.1a2 2 0 0 1 1.6-.7 2 2 0 0 1 1.6.7c.4.4.5 1.1.5 2v2.6c0 1-.1 1.6-.5 2.1a2 2 0 0 1-1.6.7 2 2 0 0 1-1.6-.7 4 4 0 0 1-.5-2.1zm3.5.3V374c0-.5-.1-1-.3-1.2-.3-.3-.6-.5-1-.5s-.7.2-1 .5c-.2.2-.3.7-.3 1.2v3.2c0 .6.1 1 .3 1.3.3.3.6.4 1 .4s.7-.1 1-.4c.2-.3.3-.7.3-1.3zm5.9 2.1V374c0-1.1-.4-1.7-1.2-1.7s-1.3.6-1.3 1.7v5.6h-.7v-7.9h.7v.6c.3-.5.8-.7 1.3-.7.7 0 1.2.2 1.5.6.4.5.6 1.2.6 2.2v5l-.1.2h-.7v-.3zm3.6-9.1v1.7l.1.1h.5l.1.3v.4h-.6l-.2.2v4.3l.1 1.2c0 .3.2.4.5.5h.3v.7h-.3c-.6 0-1-.2-1.1-.6-.2-.3-.2-.6-.3-1v-5l-.2-.1h-.2v-.7h.2c.2 0 .2-.1.2-.2v-1.9h.8v.2zm2.1 6.7v-2.5c0-1 .2-1.7.6-2.1a2 2 0 0 1 1.6-.7 2 2 0 0 1 1.5.7c.4.4.6 1.1.6 2v1.2h-3.2l-.3.1v1.6c0 .6 0 1 .3 1.3.2.3.6.4 1 .4.3 0 .6-.1.9-.4.2-.2.3-.5.4-1v-.3h.7v.2c0 .6-.1 1.1-.5 1.6-.3.5-.8.7-1.5.7a2 2 0 0 1-1.6-.7c-.4-.5-.6-1.2-.6-2.1zm.8-2.9v.8h2.6v-.8c0-.5 0-1-.3-1.2-.2-.3-.5-.5-1-.5-.3 0-.7.2-.9.5-.2.2-.4.7-.4 1.2zm7.3-1.5h-.4c-.4 0-.6.1-.7.5l-.1 1v5.6h-.8v-7.9h.7v.4a2 2 0 0 1 1.2-.5l.3.1.1.2v.6h-.3zm-54.9 28.4h.3v.7h-.3c-.6 0-1-.2-1.1-.6l-.3-1v-9.5h.8v8.7l.1 1.2c0 .3.2.4.5.5zm1.2-9.9c0-.2 0-.3.2-.4l.3-.2c.2 0 .4.1.5.3v.6c0 .4-.2.7-.5 1h-.3v-.2l.2-.5-.2-.3-.2-.4zm4.5 3.3c-.8 0-1.2.5-1.3 1.4v.3l-.3.1h-.4l-.1-.3c0-.6.2-1.1.5-1.6.3-.4.8-.6 1.5-.6 1.4 0 2.1.9 2.1 2.8v4l.2 1c0 .1 0 .2-.4.2h-.5v-.5a2 2 0 0 1-1.6.6c-.6 0-1-.2-1.4-.6s-.5-.9-.5-1.5v-.5c0-.5 0-.9.3-1.2.2-.3.5-.6.9-.7l1-.4.8-.4c.3-.2.4-.4.4-.6 0-.4-.1-.8-.3-1-.2-.3-.5-.5-1-.5zm0 6.6c.4 0 .7-.1 1-.4s.2-.6.2-1.1V397l-.8.3-.7.3c-.8.4-1.2 1-1.1 1.7 0 1.2.5 1.7 1.4 1.6zm5.9.8a2 2 0 0 1-1.6-.7c-.4-.5-.6-1.2-.6-2.1v-2.5c0-1 .2-1.7.6-2.1a2 2 0 0 1 1.6-.7c.7 0 1.2.2 1.5.7.4.4.5 1 .6 1.5l-.1.2-.2.1h-.5v-.4c0-.4-.2-.7-.4-1-.3-.2-.6-.4-1-.4-.3 0-.7.2-.9.5-.2.2-.4.7-.4 1.2v3.2c0 .6.2 1 .4 1.3.2.3.6.4 1 .4.3 0 .6-.1.9-.4.2-.2.3-.5.4-1v-.3h.7v.2c0 .6-.1 1.1-.5 1.6-.3.5-.8.7-1.5.7zm4.6-9.5v1.7l.2.1h.5l.1.3v.4h-.6l-.2.2v4.3l.1 1.2c0 .3.2.4.5.5h.3v.7h-.3c-.6 0-1-.2-1.1-.6l-.3-1v-5l-.1-.1h-.3v-.7h.3l.1-.2v-1.9h.8v.2zm2.8.8c-.2 0-.3-.2-.4-.3v-.6l.4-.2c.2 0 .4 0 .4.2v.6l-.4.2zm.4 1v7.6h-.7l-.1-.3v-7.5h.7l.1.2zm1.8 4.9v-2.5c0-1 .2-1.7.6-2.1a2 2 0 0 1 1.5-.7 2 2 0 0 1 1.6.7c.4.4.6 1.1.6 2v2.6c0 1-.2 1.6-.6 2.1a2 2 0 0 1-1.6.7 2 2 0 0 1-1.5-.7c-.4-.5-.6-1.2-.6-2.1zm3.4.3V396c0-.5 0-1-.3-1.2-.3-.3-.6-.5-1-.5s-.7.2-1 .5c-.2.2-.3.7-.3 1.2v3.2c0 .6.1 1 .4 1.3.2.3.5.4 1 .4.3 0 .6-.1.9-.4.2-.3.3-.7.3-1.3zm6 2.1V396c0-1.1-.5-1.7-1.3-1.7s-1.2.6-1.2 1.7v5.3l-.1.3h-.7v-7.9h.7v.6c.4-.5.8-.7 1.3-.7.7 0 1.2.2 1.5.6.4.5.6 1.2.6 2.2v5.2h-.8v-.3zm7.8-7c-.7 0-1.1.5-1.2 1.4v.3l-.3.1h-.5v-.3c0-.6.2-1.1.5-1.6.3-.4.8-.6 1.5-.6 1.4 0 2.1.9 2.1 2.8v4l.1 1c.1.1 0 .2-.3.2h-.5v-.5a2 2 0 0 1-1.6.6c-.6 0-1-.2-1.4-.6s-.6-.9-.6-1.5v-.5c0-.5.2-.9.4-1.2.2-.3.5-.6.8-.7l1-.4 1-.4.3-.6c0-.4-.1-.8-.3-1-.2-.3-.6-.5-1-.5zm.1 6.6c.4 0 .7-.1.9-.4s.3-.6.3-1.1V397l-.8.3-.8.3c-.8.4-1.1 1-1 1.7 0 1.2.4 1.7 1.4 1.6zm4.6-6.9v5.2c0 1.2.4 1.7 1.3 1.7s1.2-.5 1.2-1.7v-5.4h.8v7.9h-.7v-.6c-.4.5-.8.7-1.4.7-.6 0-1.1-.2-1.5-.7s-.5-1.2-.5-2.1v-5.2h.7l.1.2zM154 423.7a2 2 0 0 1-1.6-.7c-.4-.5-.6-1.2-.6-2.1v-2.5c0-1 .2-1.7.6-2.1a2 2 0 0 1 1.6-.7c.7 0 1.2.2 1.5.7.4.4.6 1 .6 1.5v.2l-.3.1h-.5v-.4c0-.4-.2-.7-.4-1-.2-.2-.5-.4-1-.4-.3 0-.7.2-.9.5-.2.2-.3.7-.3 1.2v3.2c0 .6 0 1 .3 1.3.2.3.6.4 1 .4s.7-.1.9-.4c.2-.2.3-.5.4-1v-.3h.7v.2c0 .6-.1 1.1-.5 1.6-.3.5-.8.7-1.5.7zm3.7-2.8v-2.5c0-1 .2-1.7.5-2.1a2 2 0 0 1 1.6-.7 2 2 0 0 1 1.6.7c.4.4.6 1.1.6 2v2.6c0 1-.2 1.6-.6 2.1a2 2 0 0 1-1.6.7 2 2 0 0 1-1.6-.7 4 4 0 0 1-.5-2.1zm3.4.3V418c0-.5 0-1-.3-1.2-.3-.3-.6-.5-1-.5s-.7.2-1 .5c-.2.2-.3.7-.3 1.2v3.2c0 .6.1 1 .4 1.3.2.3.5.4 1 .4.3 0 .6-.1.9-.4.2-.3.3-.7.3-1.3zm3.9 1.7h.3v.7h-.3c-.5 0-1-.2-1.1-.6l-.2-1v-9.5h.7v8.7l.1 1.2c.1.3.3.4.5.5zm3.1 0h.3v.7h-.3c-.5 0-1-.2-1.1-.6l-.2-1v-9.5h.7v8.7l.1 1.2c0 .3.3.4.5.5zm3.8-6.6c-.8 0-1.2.5-1.3 1.4v.3l-.2.1h-.5v-.3c0-.6.1-1.1.4-1.6.4-.4.9-.6 1.6-.6 1.4 0 2 .9 2 2.8v4l.2 1c0 .1 0 .2-.3.2h-.5l-.1-.5a2 2 0 0 1-1.5.6c-.6 0-1.1-.2-1.5-.6s-.5-.9-.5-1.5v-.5c0-.5.1-.9.3-1.2.3-.3.6-.6.9-.7l1-.4.9-.4.3-.6c0-.4 0-.8-.3-1-.2-.3-.5-.5-1-.5zm0 6.6c.5 0 .8-.1 1-.4s.2-.6.2-1.1V419l-.8.3-.7.3c-.8.4-1.2 1-1 1.7 0 1.2.4 1.7 1.4 1.6zm3.9.4v-10.8h.8v3.8c.4-.5.8-.7 1.3-.7.7 0 1.2.2 1.5.6.4.5.6 1.2.6 2.2v2.5c0 1-.2 1.7-.6 2.1-.3.5-.8.7-1.5.7-.5 0-1-.3-1.3-.7v.6h-.7v-.3zm3.3-2V418c0-1.1-.4-1.7-1.2-1.7s-1.3.6-1.3 1.7v3.2c0 1.2.5 1.7 1.3 1.7s1.2-.5 1.2-1.7zm2.5-.4v-2.5c0-1 .2-1.7.5-2.1a2 2 0 0 1 1.6-.7 2 2 0 0 1 1.6.7c.4.4.6 1.1.6 2v2.6c0 1-.2 1.6-.6 2.1a2 2 0 0 1-1.6.7 2 2 0 0 1-1.6-.7 4 4 0 0 1-.5-2.1zm3.4.3V418c0-.5 0-1-.3-1.2-.3-.3-.6-.5-1-.5s-.7.2-1 .5c-.2.2-.3.7-.3 1.2v3.2c0 .6.1 1 .4 1.3.2.3.5.4 1 .4.3 0 .6-.1.9-.4.2-.3.3-.7.3-1.3zm4.6-4.7h-.3c-.4 0-.6.1-.8.5v6.3l-.1.3h-.7v-7.9h.7v.4a2 2 0 0 1 1.2-.5l.3.1v.8h-.3zm3.4-.2c-.8 0-1.2.5-1.3 1.4v.3l-.2.1h-.5v-.3c0-.6.1-1.1.4-1.6.4-.4.9-.6 1.6-.6 1.4 0 2 .9 2 2.8v4l.2 1c0 .1 0 .2-.3.2h-.5l-.1-.5a2 2 0 0 1-1.5.6c-.6 0-1.1-.2-1.5-.6s-.5-.9-.5-1.5v-.5c0-.5.1-.9.3-1.2.3-.3.6-.6.9-.7l1-.4.9-.4.3-.6c0-.4 0-.8-.3-1-.2-.3-.5-.5-1-.5zm0 6.6c.5 0 .8-.1 1-.4s.2-.6.2-1.1V419l-.8.3-.7.3c-.8.4-1.2 1-1 1.7 0 1.2.4 1.7 1.4 1.6zm4.7-8.7v1.7l.2.1h.5l.1.3v.4h-.6l-.2.2v4.3l.1 1.2c0 .3.2.4.5.5h.3v.7h-.3c-.6 0-1-.2-1.1-.6l-.3-1v-5l-.1-.1h-.3v-.7h.3l.1-.2v-1.9h.8v.2zm2.3 6.7v-2.5c0-1 .1-1.7.5-2.1a2 2 0 0 1 1.6-.7 2 2 0 0 1 1.5.7c.4.4.6 1.1.6 2v1.2H201l-.3.1v1.6c0 .6 0 1 .3 1.3.2.3.6.4 1 .4s.7-.1.9-.4c.2-.2.3-.5.4-1v-.3h.7v.2c0 .6-.1 1.1-.5 1.6-.3.5-.8.7-1.5.7a2 2 0 0 1-1.6-.7c-.4-.5-.6-1.2-.6-2.1zm.8-2.9v.8h2.5v-.8c0-.5 0-1-.3-1.2-.2-.3-.5-.5-1-.5-.3 0-.7.2-.9.5-.2.2-.3.7-.3 1.2zm5.9-2v5.2c0 1.2.4 1.7 1.3 1.7s1.2-.5 1.2-1.7v-5.4h.8v7.9h-.7v-.6c-.4.5-.8.7-1.4.7-.6 0-1.1-.2-1.5-.7s-.5-1.2-.5-2.1v-5.2h.8v.2zm7.3.5h-.4c-.4 0-.6.1-.7.5l-.1 1v5.6h-.8v-7.9h.7l.1.2v.2c.3-.3.7-.5 1.2-.5l.2.1.1.2v.6h-.3zm-46.8-294.7h.5v.3l-2 10.6v.3h-1l-.1-.3-2-10.6v-.2h.7l.1.1 1.7 9v.1h.1l1.7-9v-.2h.4zm3.5 3.9c-.8 0-1.2.5-1.3 1.4v.3h-.7v-.2c0-.6 0-1.1.4-1.6a2 2 0 0 1 1.6-.7c1.4 0 2 1 2 2.9v4c0 .1 0 .5.2.9 0 .2 0 .3-.3.3h-.6v-.5a2 2 0 0 1-1.6.6 2 2 0 0 1-1.4-.6c-.4-.3-.5-.9-.5-1.6v-.5c0-.4 0-.8.3-1.1.3-.3.5-.6.9-.7l1-.4.9-.4.3-.6c0-.4-.1-.8-.3-1-.2-.3-.5-.5-1-.5zm0 6.6c.4 0 .7-.2 1-.4l.2-1.1v-2.4a9 9 0 0 1-.8.3l-.7.3c-.8.4-1.2 1-1.1 1.7 0 1.2.5 1.7 1.4 1.6zm5.3-.1l.2.1v.6l-.3.1c-.6 0-1-.2-1.1-.6-.2-.3-.2-.6-.3-1v-9.5h.8v8.7l.1 1.1c0 .4.2.5.5.5zm1.5-1.9v-2.5c0-1 .2-1.7.6-2.2a2 2 0 0 1 1.6-.7 2 2 0 0 1 1.5.7c.4.5.6 1.2.6 2.2v2.5c0 .9-.2 1.6-.6 2a2 2 0 0 1-1.5.8 2 2 0 0 1-1.6-.7c-.4-.5-.6-1.2-.6-2.1zm3.5.3v-3.2c0-.6-.1-1-.4-1.3-.2-.2-.5-.4-1-.4-.3 0-.7.2-.9.4-.2.3-.4.7-.4 1.3v3.2c0 .6.2 1 .4 1.3.2.3.6.4 1 .4s.7-.1 1-.4c.2-.3.3-.7.3-1.3zm4.6-4.6l-.4-.2c-.4 0-.6.2-.7.6l-.1 1v5.5l-.3.1h-.5v-7.9h.7l.1.2v.2c.3-.3.7-.5 1.1-.5h.3l.1.3v.6h-.3zm2.1-1.7a.5.5 0 0 1-.5-.3v-.5c.1-.2.3-.2.5-.2s.3 0 .4.2v.5c0 .2-.2.3-.4.3zm.4 1v7.7l-.3.1h-.5v-7.9h.7v.2zm5.4 1.5v.2h-.4c-.2 0-.3 0-.3-.2 0-.3-.2-.5-.4-.8s-.4-.3-.7-.3-.6.1-.8.3-.3.5-.3.8l.3.8.8.8 1 .7c.3.2.6.5.8.9l.3 1c0 .6-.3 1.1-.7 1.5a2 2 0 0 1-1.5.6 2 2 0 0 1-1.4-.6 2 2 0 0 1-.7-1.5l.1-.2.2-.1h.2c.2 0 .3.1.3.3 0 .4.2.7.5 1s.5.3.8.3a1.3 1.3 0 0 0 1.3-1.3c0-.4-.1-.7-.5-1l-1-1a5 5 0 0 1-1.1-1 2 2 0 0 1-.5-1.2c0-.5.2-1 .5-1.3.4-.4.8-.6 1.3-.6s1 .2 1.3.5c.4.4.6.8.6 1.4zm1.5 3.5v-2.5c0-1 .3-1.7.6-2.2a2 2 0 0 1 1.6-.7 2 2 0 0 1 1.6.7c.4.5.6 1.2.6 2.2v.8l-.1.3h-3.4v1.8c0 .6.1 1 .4 1.3.2.3.5.4 1 .4.3 0 .6-.1.8-.4.2-.2.4-.6.4-1v-.3h.8v.2a3 3 0 0 1-.5 1.6c-.4.4-.9.7-1.6.7a2 2 0 0 1-1.6-.7 4 4 0 0 1-.5-2.1zm.9-2.9v.7h2.6v-.7c0-.6-.1-1-.3-1.3-.3-.2-.6-.4-1-.4s-.7.2-1 .4c-.2.3-.3.7-.3 1.3zm7.2-1.4l-.4-.2c-.3 0-.6.2-.7.6v6.3l-.1.2-.3.1h-.4v-7.9h.7v.4a2 2 0 0 1 1.2-.5h.3v1h-.3zm-47.9 28.2l.2.1v.6l-.2.1c-.6 0-1-.2-1.2-.6l-.2-1v-9.5h.7v8.7l.1 1.1c.1.4.3.5.6.5zm3.7-6.5c-.7 0-1.2.5-1.2 1.4l-.1.3h-.7v-.2c0-.6.1-1.1.5-1.6.3-.4.8-.7 1.5-.7 1.4 0 2.1 1 2.1 2.9v4l.1.9c0 .2 0 .3-.3.3h-.5l-.1-.5a2 2 0 0 1-1.5.6 2 2 0 0 1-1.5-.6c-.3-.3-.5-.9-.5-1.6v-.5c0-.4.1-.8.4-1.1.2-.3.5-.6.8-.7l1-.4.9-.4c.2-.2.4-.4.4-.6 0-.4-.2-.8-.4-1a1 1 0 0 0-.9-.5zm.1 6.6c.4 0 .7-.2.9-.4.2-.2.3-.6.3-1.1v-2.4a9 9 0 0 1-.8.3l-.8.3c-.8.4-1.1 1-1 1.7 0 1.2.4 1.7 1.4 1.6zm7 3.3v-10.3l.1-.2h.7v.5c.4-.4.8-.6 1.4-.7.6 0 1.1.2 1.5.7.3.5.5 1.2.5 2.2v2.5c0 1-.2 1.6-.5 2.1-.4.5-.9.7-1.5.7s-1-.3-1.3-.7v3.4h-.8v-.2zm3.4-5v-3.2c0-1.1-.4-1.7-1.3-1.7s-1.2.6-1.2 1.7v3.2c0 1.1.4 1.7 1.2 1.7s1.3-.6 1.3-1.7zm4.6-4.6l-.4-.2c-.4 0-.6.2-.7.6l-.1 1v5.5l-.3.1h-.5v-7.9h.7l.1.2v.2c.3-.3.7-.5 1.2-.5h.2l.1.3v.6h-.3zm2-1.7c-.1 0-.3-.1-.3-.3v-.5c0-.2.2-.2.4-.2s.3 0 .4.2v.5c0 .2-.2.3-.4.3zm.5 1v7.7l-.3.1h-.5v-7.9h.7l.1.2zm5.2 7.4v-5.3c0-1.1-.4-1.7-1.2-1.7s-1.2.6-1.2 1.7v5.3l-.1.2-.3.1h-.4v-7.9h.7v.5c.4-.4.8-.6 1.3-.7.7 0 1.2.2 1.5.7.4.5.6 1.2.6 2.2v5.1l-.3.1h-.5v-.3zm4.7.3a2 2 0 0 1-1.6-.6 4 4 0 0 1-.5-2.1v-2.5c0-1 .2-1.7.5-2.2a2 2 0 0 1 1.6-.7c.7 0 1.2.3 1.6.7.3.5.5 1 .5 1.6v.2h-.7l-.1-.3c0-.4-.2-.8-.4-1-.2-.3-.5-.4-.9-.4s-.7.2-1 .4c-.2.3-.3.7-.3 1.3v3.2c0 .6.1 1 .3 1.3.3.3.6.4 1 .4s.7-.1 1-.4c.1-.2.3-.6.3-1v-.3h.7l.1.2a3 3 0 0 1-.5 1.6c-.4.4-.9.7-1.6.7zm4.3-8.7a.5.5 0 0 1-.5-.3v-.5c.1-.2.3-.2.5-.2s.3 0 .4.2v.5c0 .2-.2.3-.4.3zm.4 1v7.7l-.3.1h-.5v-7.9h.7v.2zm1.9 10.3v-10.5h.8v.5a2 2 0 0 1 1.3-.7c.7 0 1.2.2 1.5.7.4.5.6 1.2.6 2.2v2.5c0 1-.2 1.6-.6 2.1-.3.5-.8.7-1.5.7-.5 0-1-.3-1.3-.7v3.4h-.7v-.2zm3.3-5v-3.2c0-1.1-.4-1.7-1.2-1.7s-1.3.6-1.3 1.7v3.2c0 1.1.5 1.7 1.3 1.7s1.2-.6 1.2-1.7zm4.7-4.9c-.8 0-1.2.5-1.3 1.4v.3h-.8v-.2c0-.6.2-1.1.5-1.6.3-.4.8-.7 1.5-.7 1.4 0 2.1 1 2.1 2.9v4l.1.9c.1.2 0 .3-.3.3h-.5l-.1-.5a2 2 0 0 1-1.5.6 2 2 0 0 1-1.4-.6c-.4-.3-.6-.9-.6-1.6v-.5c0-.4.1-.8.4-1.1.2-.3.5-.6.8-.7l1-.4 1-.4.3-.6c0-.4-.1-.8-.3-1-.3-.3-.6-.5-1-.5zm0 6.6c.4 0 .7-.2.9-.4.2-.2.3-.6.3-1.1v-2.4a9 9 0 0 1-.8.3l-.8.3c-.8.4-1.1 1-1 1.7 0 1.2.4 1.7 1.4 1.6zm5.2-.1l.2.1.1.3v.3l-.3.1c-.6 0-1-.2-1.2-.6l-.2-1v-9.5h.7l.1.2v9.6c.1.4.3.5.6.5zm1.6-1.9v-2.5c0-1 .2-1.7.6-2.2a2 2 0 0 1 1.5-.7 2 2 0 0 1 1.6.7c.4.5.6 1.2.6 2.2v.8l-.1.3h-3.3v1.8c0 .6 0 1 .3 1.3.2.3.5.4 1 .4.3 0 .6-.1.8-.4.3-.2.4-.6.4-1v-.3h.8v.2a3 3 0 0 1-.5 1.6c-.4.4-.9.7-1.6.7a2 2 0 0 1-1.5-.7c-.4-.5-.6-1.2-.6-2.1zm.8-2.9v.7h2.7v-.7c0-.6 0-1-.3-1.3-.3-.2-.6-.4-1-.4s-.7.2-1 .4c-.2.3-.3.7-.3 1.3zm-37.1 19.9v10.3l-.1.2h-.7v-3.4c-.4.4-.8.7-1.4.7-.6 0-1-.2-1.5-.7s-.5-1.2-.5-2.1v-2.5c0-1 .2-1.7.5-2.2s1-.7 1.5-.7c.6 0 1 .3 1.3.7v-.3l.1-.2h.7v.2zm-3.4 2.1v3.2c0 1.1.4 1.7 1.3 1.7s1.2-.6 1.2-1.7v-3.2c0-1.1-.4-1.7-1.2-1.7s-1.3.6-1.3 1.7zm6-2.1v5.3c0 1.1.4 1.7 1.3 1.7s1.2-.6 1.2-1.7v-5.3l.1-.2h.7v7.8l-.3.1h-.4v-.6c-.4.4-.8.7-1.4.7-.6 0-1-.2-1.5-.7s-.5-1.2-.5-2.1v-5.2h.8v.2zm7.3.4c-.8 0-1.2.5-1.3 1.4v.3h-.7v-.2c0-.6.1-1.1.4-1.6a2 2 0 0 1 1.6-.7c1.4 0 2 1 2 2.9v4l.2.9c0 .2 0 .3-.3.3h-.5l-.2-.5a2 2 0 0 1-1.4.6 2 2 0 0 1-1.5-.6c-.3-.3-.5-.9-.5-1.6v-.5c0-.4 0-.8.3-1.1.3-.3.5-.6.9-.7l1-.4.9-.4.3-.6c0-.4 0-.8-.3-1-.2-.3-.5-.5-1-.5zm0 6.6c.5 0 .7-.2 1-.4l.2-1.1v-2.4a9 9 0 0 1-.8.3l-.7.3c-.8.4-1.2 1-1.1 1.7 0 1.2.5 1.7 1.5 1.6zm5.2-.1l.3.1v.6l-.3.1c-.5 0-1-.2-1.1-.6l-.2-1v-9.5h.7v8.7l.1 1.1c0 .4.3.5.5.5zm2.2-7.9c-.2 0-.3-.1-.4-.3v-.5c0-.2.2-.2.4-.2s.4 0 .4.2v.5c0 .2-.2.3-.4.3zm.4 1v7.7l-.3.1h-.4l-.1-.3v-7.6h.7l.1.2zm2.8-1.7v1.6l.1.2h.6v.7h-.6l-.1.2v5.4c.1.4.3.5.5.5l.3.1v.6l-.3.1c-.5 0-1-.2-1.1-.6l-.2-1v-5.1l-.2-.1-.3-.1v-.6l.3-.1.1-.2v-1.6l.1-.2.3-.1h.4v.3zm2.1 6.7v-2.5c0-1 .2-1.7.6-2.2a2 2 0 0 1 1.6-.7 2 2 0 0 1 1.6.7c.3.5.5 1.2.5 2.2v1.1H195v1.8c0 .6.1 1 .3 1.3.3.3.6.4 1 .4s.7-.1 1-.4c.1-.2.3-.6.3-1v-.3h.7v.2c0 .6-.1 1.1-.5 1.6-.3.4-.8.7-1.5.7a2 2 0 0 1-1.6-.7c-.4-.5-.6-1.2-.6-2.1zm.9-2.9v.7h2.6v-.7c0-.6-.1-1-.3-1.3-.3-.2-.6-.4-1-.4s-.7.2-1 .4c-.2.3-.3.7-.3 1.3zm1.4-3.2h-.1l-.2-.1v-1.6l.1-.3h.7v.3l-.3 1.5v.2h-.2zm-38.7 84.7h-1.2v4.9h-.8v-11l.3-.1h1.8c.7 0 1.3.2 1.8.7.4.4.6 1.1.6 2v.7c0 1.2-.3 2-1 2.4l1 5.1v.2h-.7l-.1-.2-1-4.6v-.1h-.7zm-1.2-5.1v4.3h1.3c.4 0 .8-.2 1.1-.5.3-.3.5-.8.5-1.5v-.7c0-.6-.2-1.1-.5-1.5-.3-.3-.7-.4-1.2-.4h-1.2v.3zm5.3 7.3v-2.5c0-1 .2-1.6.6-2a2 2 0 0 1 1.5-.8 2 2 0 0 1 1.6.7c.4.5.6 1.2.6 2.1v1.1l-.3.1h-3.1v1.7c0 .5 0 1 .3 1.3.2.2.5.4 1 .4.3 0 .6-.1.9-.4.2-.2.3-.6.3-1l.1-.3.2-.1h.5v.3c0 .6-.1 1-.5 1.6-.3.4-.9.6-1.6.6a2 2 0 0 1-1.5-.7c-.4-.4-.6-1.1-.6-2zm.8-2.8v.7h2.6v-.7c0-.6 0-1-.3-1.3-.2-.3-.5-.4-1-.4-.4 0-.7.1-1 .4-.1.3-.3.7-.3 1.3zm7.2-4.9c-.4 0-.8.2-.9.5l-.2 1.5v.7l.1.2h.9l.1.3v.3l-.3.1h-.7l-.1.2v6.6h-.8v-6.6l-.2-.2h-.3v-.7h.3l.2-.2v-1.4a6 6 0 0 1 .3-1.2v-.1l.1-.2h.1l.1-.2h.2c.2-.2.6-.3 1.1-.3h.3v.7h-.3zm1.2 7.7v-2.5c0-1 .2-1.6.6-2a2 2 0 0 1 1.6-.8 2 2 0 0 1 1.5.7c.4.5.6 1.2.6 2.1v2.5c0 1-.2 1.7-.6 2.2a2 2 0 0 1-1.5.6 2 2 0 0 1-1.6-.6c-.4-.5-.6-1.2-.6-2.2zm3.5.4v-3.2c0-.6-.1-1-.4-1.3-.2-.3-.5-.4-1-.4-.3 0-.6.1-.9.4-.2.3-.3.7-.3 1.3v3.2c0 .5 0 1 .3 1.3.3.2.6.4 1 .4s.7-.2 1-.4c.2-.3.3-.8.3-1.3zm4.6-4.7h-.4c-.3 0-.6 0-.7.4v6.4l-.2.2h-.6l-.1-.2V250l.3-.1h.4l.1.3v.2c.3-.3.7-.5 1.2-.5h.2l.1.3v.6h-.3zm5.9 1.5v5.3l-.1.2h-.7v-5.5c0-1.1-.5-1.7-1.3-1.7s-1.3.6-1.3 1.7v5.5h-.7l-.1-.2V250l.3-.1h.4l.1.3v.3c.3-.4.7-.7 1.3-.7.8 0 1.3.3 1.7 1 .4-.6 1-1 1.6-1 .7 0 1.2.2 1.5.7.4.4.6 1.2.6 2.1v5l-.1.2h-.7v-5.5c0-1.1-.5-1.7-1.3-1.7s-1.3.6-1.3 1.7zm5.9-2.1v5.3c0 1.1.4 1.7 1.2 1.7s1.3-.6 1.3-1.7V250l.3-.1h.4v7.9h-.7v-.5c-.4.4-.8.6-1.3.6-.7 0-1.2-.2-1.5-.6s-.6-1.2-.6-2.2v-4.9l.1-.2.2-.1h.5v.3zm6.5 6.9h.3v.7h-.3c-.5 0-1-.1-1.1-.5l-.2-1v-9.5l.2-.1h.5v8.8l.1 1.2c0 .3.3.5.5.5zm1.6-2v-2.5c0-1 .2-1.6.6-2a2 2 0 0 1 1.6-.8 2 2 0 0 1 1.5.7c.4.5.6 1.2.6 2.1v1.1l-.3.1h-3.1v1.7c0 .5 0 1 .3 1.3.3.2.6.4 1 .4s.7-.1.9-.4c.2-.2.3-.6.4-1v-.3l.2-.1h.5v.3c0 .6-.1 1-.5 1.6-.3.4-.8.6-1.5.6a2 2 0 0 1-1.6-.7c-.4-.4-.6-1.1-.6-2zm.9-2.8v.7h2.5v-.7c0-.6 0-1-.3-1.3-.2-.3-.5-.4-1-.4-.3 0-.6.1-.9.4-.2.3-.3.7-.3 1.3zm7.2-1.5h-.4c-.3 0-.6 0-.7.4v6.4l-.2.2h-.6l-.1-.2V250l.3-.1h.4l.1.3v.2c.3-.3.7-.5 1.2-.5h.2l.1.3v.6h-.3zm-54.3 28.3h.2l.1.3v.4h-.3c-.6 0-1-.1-1.2-.5l-.2-1v-9.5l.3-.1h.4l.1.3v9.6c.1.3.3.5.6.5zm1.6-2v-2.5c0-1 .2-1.6.6-2a2 2 0 0 1 1.5-.8 2 2 0 0 1 1.6.7c.4.5.6 1.2.6 2.1v1.1l-.3.1h-3.1v1.7c0 .5 0 1 .3 1.3.2.2.5.4 1 .4.3 0 .6-.1.9-.4.2-.2.3-.6.3-1l.1-.3.2-.1h.5v.3c0 .6-.2 1-.5 1.6-.3.4-.9.6-1.6.6a2 2 0 0 1-1.5-.7c-.4-.4-.6-1.1-.6-2zm.8-2.8v.7h2.7v-.7c0-.6 0-1-.3-1.3-.2-.3-.6-.4-1-.4s-.7.1-1 .4c-.2.3-.3.7-.3 1.3zm8.8-.7l-.1.3h-.4c-.2 0-.3 0-.3-.2 0-.3-.1-.6-.3-.8s-.5-.3-.8-.3-.5 0-.7.3l-.3.7c0 .3 0 .6.3.9l.8.7 1 .8.7.8c.2.3.3.7.3 1.1 0 .6-.2 1-.7 1.5-.4.4-.9.5-1.4.5a2 2 0 0 1-1.5-.5 2 2 0 0 1-.6-1.5v-.3h.4c.2 0 .3 0 .4.3 0 .4.2.7.4 1s.5.3.9.3a1.3 1.3 0 0 0 1.3-1.3c0-.4-.2-.7-.5-1-.4-.4-.7-.8-1.1-1a5 5 0 0 1-1-1 2 2 0 0 1-.6-1.2c0-.5.2-1 .6-1.3.3-.4.8-.6 1.3-.6s1 .2 1.3.5c.3.3.5.8.6 1.3zm8.9-4.6v10.6l-.1.2h-.7v-.5c-.4.4-.8.6-1.3.6-.7 0-1.2-.2-1.5-.6s-.6-1.2-.6-2.2v-2.5c0-1 .2-1.7.6-2.1s.8-.7 1.5-.7c.5 0 1 .3 1.2.7V269l.1-.2.3-.1h.4v.3zm-3.4 5.3v3.2c0 1.1.5 1.7 1.3 1.7s1.2-.6 1.2-1.7v-3.2c0-1.1-.4-1.7-1.2-1.7s-1.3.6-1.3 1.7zm5.7-3.1c-.2 0-.3-.1-.4-.3v-.5c0-.2.2-.3.4-.3s.4.1.5.3v.5c-.1.2-.3.3-.5.3zm.4 1v7.6h-.7l-.1-.2V272l.3-.1h.5v.3zm3.9-2.8c-.4 0-.8.2-.9.5l-.2 1.5v.7l.1.1h.7l.2.1.1.3v.3l-.3.1h-.7l-.1.2v6.6h-.8v-6.6l-.2-.2h-.3v-.7h.3l.1-.2v-1.4a6 6 0 0 1 .4-1.2v-.1l.1-.2h.1l.1-.2h.2c.2-.2.6-.3 1.1-.3h.3v.7h-.3zm3.4 0c-.5 0-.8.2-1 .5l-.2 1.5v.7l.2.1h.6l.3.1v.7l-.3.1h-.6c-.1 0-.2 0-.2.2v6.5h-.7l-.1-.2v-6.4c0-.1 0-.2-.2-.2h-.2v-.7h.2l.2-.2v-1.4a6 6 0 0 1 .3-1.2v-.1l.2-.2.2-.2h.1c.2-.2.6-.3 1.2-.3h.2l.1.3v.4h-.3zm1.8 1.8c-.3 0-.4-.1-.5-.3v-.5c.1-.2.2-.3.5-.3.2 0 .3.1.4.3v.5c0 .2-.2.3-.4.3zm.4 1v7.4l-.1.2h-.7V272l.3-.1h.4v.3zm3.9 7.8a2 2 0 0 1-1.6-.7c-.4-.5-.6-1.2-.6-2.2v-2.5c0-1 .2-1.6.6-2a2 2 0 0 1 1.6-.8c.7 0 1.2.2 1.5.7.4.5.6 1 .6 1.6v.2h-.8v-.3c0-.4-.2-.8-.4-1-.2-.3-.5-.4-1-.4-.3 0-.7.1-.9.4-.2.3-.3.7-.3 1.3v3.2c0 .5 0 1 .3 1.3.2.2.6.4 1 .4s.7-.1.9-.4c.2-.2.3-.6.4-1v-.3l.2-.1h.5v.3c0 .6-.1 1-.5 1.6-.3.4-.8.6-1.5.6zm4.6-7.8v5.3c0 1.1.4 1.7 1.2 1.7s1.3-.6 1.3-1.7V272l.3-.1h.4l.1.3v7.6h-.8v-.5c-.3.4-.8.6-1.3.6-.6 0-1.1-.2-1.5-.6s-.6-1.2-.6-2.2v-4.9l.1-.2.3-.1h.4v.3zm6.6 6.9h.2v.7h-.2c-.6 0-1-.1-1.2-.5l-.2-1v-9.5l.3-.1h.4v8.8l.1 1.2c.1.3.3.5.6.5zm2.5-8.6v1.6l.2.2h.5l.1.3v.4h-.6c-.1 0-.2 0-.2.2v4.3l.1 1.1c0 .3.2.5.5.5h.3v.7h-.3c-.6 0-1-.1-1.1-.5l-.3-1v-5.1l-.1-.2h-.3v-.7h.3l.1-.2v-1.9h.8v.3zm2.3 6.6v-2.5c0-1 .1-1.6.5-2a2 2 0 0 1 1.6-.8 2 2 0 0 1 1.5.7c.4.5.6 1.2.6 2.1v1.1l-.3.1h-3.1v1.7c0 .5 0 1 .3 1.3.2.2.6.4 1 .4s.7-.1.9-.4c.2-.2.3-.6.4-1v-.3l.2-.1h.5v.3c0 .6-.1 1-.5 1.6-.3.4-.8.6-1.5.6a2 2 0 0 1-1.6-.7c-.4-.4-.6-1.1-.6-2zm.8-2.8v.7h2.5v-.7c0-.6 0-1-.3-1.3-.2-.3-.5-.4-1-.4-.3 0-.7.1-.9.4-.2.3-.3.7-.3 1.3zm1.3-3.2c-.1 0-.2 0-.2-.2v-1.8h.8v.3l-.3 1.5v.2h-.3zm7.4 2.5v.3h-.5c-.2 0-.3 0-.3-.2 0-.3-.1-.6-.3-.8s-.5-.3-.8-.3-.5 0-.7.3l-.3.7c0 .3 0 .6.3.9l.8.7 1 .8.7.8c.2.3.3.7.3 1.1 0 .6-.2 1-.6 1.5-.4.4-1 .5-1.5.5a2 2 0 0 1-1.5-.5 2 2 0 0 1-.6-1.5v-.3h.5c.2 0 .3 0 .3.3 0 .4.2.7.4 1s.6.3.9.3a1.3 1.3 0 0 0 1.3-1.3c0-.4-.2-.7-.5-1l-1-1a5 5 0 0 1-1.2-1 2 2 0 0 1-.5-1.2c0-.5.2-1 .6-1.3.4-.4.8-.6 1.3-.6s1 .2 1.3.5c.4.3.6.8.6 1.3zm-55.3 22v.3h-.5c-.1 0-.2 0-.3-.2 0-.3-.1-.6-.3-.8s-.5-.3-.8-.3-.5 0-.7.3l-.3.7.3.9.8.7 1 .8.7.8c.3.4.4.7.3 1.1 0 .6-.2 1-.6 1.5-.4.4-1 .5-1.5.5a2 2 0 0 1-1.5-.5 2 2 0 0 1-.6-1.5v-.3h.5c.2 0 .3 0 .3.3 0 .4.2.7.4 1 .3.2.6.3 1 .3a1.3 1.3 0 0 0 1.2-1.3c0-.4-.2-.7-.5-1l-1-1a5 5 0 0 1-1.1-1 2 2 0 0 1-.5-1.2c0-.5.1-1 .5-1.3.4-.4.8-.6 1.3-.6s1 .2 1.3.5c.4.3.6.8.6 1.3zm2.5-1.4v5.3c0 1.1.4 1.7 1.2 1.7s1.2-.6 1.2-1.7v-5.3l.1-.2.3-.1h.4v7.9h-.7v-.5c-.4.4-.8.6-1.3.6-.7 0-1.2-.2-1.5-.6s-.6-1.2-.6-2.2V294l.3-.1h.5v.3zm7.3.6h-.5c-.3 0-.6 0-.7.4v6.4l-.1.2h-.7l-.1-.2V294l.3-.1h.5v.5c.4-.3.7-.5 1.2-.5h.3v1h-.3zm5.8 1.5v5.3l-.1.2h-.7v-5.5c0-1.1-.5-1.7-1.3-1.7s-1.3.6-1.3 1.7v5.5h-.7l-.1-.2V294l.3-.1h.5v.6c.3-.4.8-.7 1.3-.7.8 0 1.4.3 1.7 1 .4-.6 1-1 1.6-1 .7 0 1.2.2 1.5.7.4.4.6 1.2.6 2.1v5.2h-.8v-5.5c0-1.1-.5-1.7-1.3-1.7s-1.2.6-1.2 1.7zm5 2.8v-2.5c0-1 .2-1.6.5-2a2 2 0 0 1 1.6-.8 2 2 0 0 1 1.6.7c.4.5.6 1.2.6 2.1v2.5c0 1-.2 1.7-.6 2.1a2 2 0 0 1-1.6.7 2 2 0 0 1-1.6-.6c-.3-.5-.5-1.2-.5-2.2zm3.4.4v-3.2c0-.6-.1-1-.3-1.3-.3-.3-.6-.4-1-.4s-.7.1-1 .4c-.2.3-.3.7-.3 1.3v3.2c0 .5.1 1 .3 1.3.3.2.6.4 1 .4s.7-.2 1-.4c.2-.3.3-.8.3-1.3zm5.9 2.1v-5.3c0-1.1-.4-1.7-1.2-1.7s-1.3.6-1.3 1.7v5.5h-.7V294l.2-.1h.5v.6c.4-.4.8-.7 1.3-.7.7 0 1.2.2 1.5.7.4.4.6 1.2.6 2.1v5l-.1.2h-.7v-.2zm3.5-9.1v1.6l.2.2h.5l.1.3v.4h-.6c-.1 0-.2 0-.2.2v4.2l.1 1.2c0 .3.2.5.5.5h.3v.7h-.3c-.6 0-1-.1-1.1-.5l-.3-1v-5.1l-.1-.2h-.3v-.7h.3l.1-.2v-1.9h.8v.3zm2.2 6.6v-2.5c0-1 .2-1.6.6-2a2 2 0 0 1 1.6-.8 2 2 0 0 1 1.5.7c.4.5.6 1.2.6 2.1v1.1l-.3.1h-3.1v1.7c0 .5 0 1 .3 1.3.2.2.6.4 1 .4.3 0 .7-.1.9-.4.2-.2.3-.6.4-1v-.3l.2-.1h.5v.3c0 .6-.1 1-.5 1.6-.3.4-.8.6-1.5.6a2 2 0 0 1-1.6-.7c-.4-.4-.6-1.1-.6-2zm.9-2.8v.7h2.5v-.7c0-.6 0-1-.3-1.3-.2-.3-.5-.4-1-.4-.3 0-.7.1-.9.4-.2.3-.3.7-.3 1.3zm1.3-3.2c-.1 0-.2 0-.2-.2v-1.8h.8v.3l-.3 1.5-.1.2h-.2zm3.7 6v-2.5c0-1 .2-1.6.6-2a2 2 0 0 1 1.6-.8 2 2 0 0 1 1.5.7c.4.5.6 1.2.6 2.1v1.1l-.3.1h-3.1v1.7c0 .5 0 1 .3 1.3.2.2.5.4 1 .4.3 0 .6-.1.9-.4.2-.2.3-.6.3-1l.1-.3.2-.1h.5v.3c0 .6-.1 1-.5 1.6-.3.4-.9.6-1.5.6a2 2 0 0 1-1.6-.7c-.4-.4-.6-1.1-.6-2zm.8-2.8v.7h2.6v-.7c0-.6 0-1-.3-1.3-.2-.3-.5-.4-1-.4-.4 0-.7.1-1 .4-.1.3-.3.7-.3 1.3zm8.8-.7v.3h-.5c-.2 0-.3 0-.3-.2 0-.3-.1-.6-.3-.8s-.5-.3-.8-.3-.5 0-.7.3l-.3.7c0 .3 0 .6.3.9l.8.7 1 .8.7.8c.2.4.3.7.3 1.1 0 .6-.2 1-.6 1.5-.5.4-1 .5-1.5.5a2 2 0 0 1-1.5-.5 2 2 0 0 1-.6-1.5v-.3h.5c.1 0 .3 0 .3.3 0 .4.2.7.4 1 .3.2.5.3.9.3a1.3 1.3 0 0 0 1.3-1.3c0-.4-.2-.7-.5-1l-1.1-1a5 5 0 0 1-1-1 2 2 0 0 1-.6-1.2c0-.5.2-1 .6-1.3.3-.4.8-.6 1.3-.6s1 .2 1.3.5c.3.3.5.8.6 1.3z"/><path fill="#002CFF" d="M275.8 121.9a13.6 13.6 0 1 0 0 27.2 13.6 13.6 0 0 0 0-27.2zm0 25.4a11.8 11.8 0 1 1 0-23.7 11.8 11.8 0 0 1 0 23.7zm17.1-11.8l2.7-4.7a1 1 0 0 0 .1-.7 1 1 0 0 0-.4-.5l-5-2.9v-4.8c0-.5-.4-1-1-1h-4.7l-3-5a1 1 0 0 0-1.2-.3l-4.6 2.7-4.7-2.7a1 1 0 0 0-1.2.3l-2.9 5h-4.8a1 1 0 0 0-1 1v4.8l-5 2.9a1 1 0 0 0-.3 1.2l2.7 4.7-2.7 4.6a.9.9 0 0 0 .4 1.3l5 2.8v4.9c0 .5.4.9.9.9h1l-5.4 8.6a1 1 0 0 0 .7 1.4h6.8l3.3 5.9c.2.3.5.4.9.4.3 0 .6-.2.7-.5l5.6-11 5.5 11c.2.3.5.5.8.5.4 0 .7-.1.8-.4l3.4-6h6.7a1 1 0 0 0 .8-1.3l-5.5-8.6h1.1c.5 0 1-.4 1-1v-4.8l4.9-2.8c.2-.2.4-.4.4-.6v-.7l-2.8-4.6zm-23.5 28l-2.8-4.9a1 1 0 0 0-.8-.4h-5.6l5-8.2h1.8l2.9 5c.2.4.8.6 1.2.3l3.3-1.9-5 10.1zm22-5.3h-5.6a1 1 0 0 0-.8.4l-2.8 4.9-5-10 3.2 1.8a.9.9 0 0 0 1.3-.3l2.9-5h1.6l5.2 8.2zm-2.5-15.3a1 1 0 0 0-.4.8v4.5H284a1 1 0 0 0-.8.4l-2.6 4.7-4.4-2.5a.9.9 0 0 0-.9 0l-4.3 2.5-2.7-4.7a1 1 0 0 0-.8-.4h-4.4v-4.5a1 1 0 0 0-.5-.8l-4.6-2.7 2.5-4.3a1 1 0 0 0 0-.9l-2.5-4.3 4.6-2.7c.3-.2.5-.5.5-.8v-4.4h4.4c.4 0 .7-.2.8-.5l2.7-4.6 4.3 2.4c.3.2.7.2 1 0l4.3-2.4 2.6 4.6c.2.3.5.5.8.5h4.5v4.4c0 .3.2.6.4.8l4.7 2.7-2.5 4.3a1 1 0 0 0 0 1l2.5 4.2-4.7 2.7zm-5.7-10l-4.6-.7-2-4.4a1 1 0 0 0-1.6 0l-2 4.4-4.6.7a1 1 0 0 0-.5 1.5l3.3 3.4-.8 4.8a1 1 0 0 0 1.3 1l4-2.3 4.1 2.2.5.1a1 1 0 0 0 .8-1.2l-.7-4.6 3.3-3.4a1 1 0 0 0-.5-1.5zm-4.4 4a1 1 0 0 0-.3.7l.6 3.4-2.9-1.5a1 1 0 0 0-.9 0l-2.8 1.5.5-3.4c0-.3 0-.6-.2-.8l-2.4-2.4 3.3-.5c.3 0 .5-.2.7-.5l1.4-3 1.4 3c.1.2.4.4.7.5l3.3.5-2.4 2.4z"/><path fill="#BABABA" d="M280.5 397.3h20v20.6h-20z"/><path fill="#4A4A4A" d="M280.5 397.1h20v20.8h-20z"/><path fill="#002CFF" d="M251 359.5h20V418h-20z"/><path fill="none" stroke="#41D5CF" stroke-linecap="round" stroke-linejoin="round" stroke-miterlimit="10" d="M300 397.5h-20.7.1H252"/><path fill="#FFF" d="M252.8 380.2v2c0 .3.1.6.4.6.3 0 .4-.2.4-.5v-.2h.4l.1.2c0 .3-.1.5-.3.7s-.3.2-.6.2-.5-.1-.7-.3-.2-.4-.2-.8v-1.9c0-.3 0-.6.2-.8s.4-.2.7-.2c.3 0 .5 0 .6.2.2.1.3.4.3.7l-.1.1h-.3v-.1c-.1-.3-.2-.5-.5-.5s-.4.2-.4.6zm3.5 1.1v.8c0 .4-.1.7-.3.8l-.6.3c-.2 0-.4 0-.6-.3-.2-.1-.3-.4-.3-.8v-.8c0-.3.1-.6.3-.7l.6-.3c.2 0 .4 0 .6.3.2.1.3.4.3.7zm-.5 1v-1l-.1-.4-.2-.1h-.2l-.2.1v1.7l.2.1h.2l.2-.1v-.3zm1.5-1.1v1.9h-.5v-2.7h.4v.1l.5-.2c.2 0 .4 0 .5.2.2.2.2.4.2.8v1.8h-.4v-2l-.1-.2-.2-.2h-.2l-.2.2v.3zm2 2h-.2l-.1-.1v-2.3h-.2v-.4h.1v-.2c0-.4.1-.6.3-.8l.6-.2h.1v.4c-.2 0-.3 0-.4.2v.5h.2l.1.1v.4h-.3v2.3h-.2zm1-3.2v-.4h.4v.4h-.4zm.3 3.2h-.3v-2.9h.4v2.7zm2.3 0h-.3l-.1-.2-.6.2c-.2 0-.3 0-.5-.2a.8.8 0 0 1-.2-.6l.1-.5.3-.3h.2l.3-.1.1-.1.2-.1v-.5h-.6v.4h-.5c0-.3 0-.5.2-.6l.6-.3c.2 0 .4 0 .6.2.2.2.2.4.2.7v1.8c.1 0 0 0 0 0zm-.8-.4c.2 0 .4-.2.4-.5v-.6a10 10 0 0 1-.5.2l-.2.1-.1.4v.2l.4.2zm1.9-1.6v1.9h-.5v-2.7h.4v.1l.5-.2c.2 0 .4 0 .5.2.2.2.2.4.2.8v1.8h-.4v-2l-.1-.2-.2-.2h-.2l-.2.2v.3zm2.1 0v1.1l.1.3.3.2s.2 0 .2-.2l.2-.2v-.1h.4c0 .2 0 .4-.2.6-.1.2-.3.3-.6.3s-.5 0-.6-.3c-.2-.1-.3-.4-.3-.8v-.8c0-.3.1-.6.3-.7.1-.2.3-.3.6-.3s.5 0 .6.3c.2.2.2.4.2.6h-.4c0-.2 0-.3-.2-.4h-.5v.4zm1.7.9v-.8c0-.3 0-.6.2-.7l.6-.3c.2 0 .5 0 .6.3.2.1.3.4.3.7v.5h-1.2v.8l.3.1h.3l.1-.3v-.1h.4l-.1.6a1 1 0 0 1-.7.3c-.2 0-.4 0-.6-.3l-.2-.8zm1.2-.8v-.1c0-.2 0-.3-.2-.4s-.2 0-.4 0c-.1 0-.2.2-.1.4v.2h.7z"/><path fill="#002CFF" d="M258.2 427.5h-.2l-.2-.1-.8-3.3v3.2l-.1.1h-.8v-7h.7l1.3 5v.1l1.3-5 .2-.1h.5v7h-.7v-3.3h-.1l-.8 3.3h-.3zm6.7-5.1v.9h1v.8h-.9l-.1.1v1h-.9v-1h-.7l-.2-.1v-.7h.9v-1l.1-.1h.7v.1z"/><path fill="#4A4A4A" d="M288.7 427.5h-.2l-.2-.1-.8-3.3v3.2l-.1.1h-.8v-7h.7l1.3 5v.1l1.3-5 .2-.1h.5v7h-.7v-3.3h-.1l-.8 3.3h-.3zm4.9-2.6v-.4l.1-.2h2v.8h-2l-.1-.2z"/><path fill="#FFF" d="M286 405.8h.8c.2 0 .4 0 .6.2s.3.5.3.8v1.9c0 .3-.1.6-.3.8l-.6.3h-.8v-4.1zm.4.5v3h.4c.2 0 .4-.2.4-.6v-1.9c0-.4-.2-.6-.4-.6h-.3v.1zm3.4 1.7v.7c0 .4 0 .7-.2.8l-.6.3c-.3 0-.5-.1-.6-.3-.2-.1-.3-.4-.3-.8v-.8c0-.3.1-.6.3-.8l.6-.2c.2 0 .4 0 .6.2.2.2.2.5.2.8zm-.4.9v-1.1l-.1-.3-.2-.2h-.2l-.2.2-.1.3v1.4l.3.1h.2l.2-.1v-.3zm2.1 0V407l.1-.1h.3v2.8h-.3v-.1l-.5.2c-.2 0-.4 0-.6-.3l-.2-.7V407l.1-.1h.3l.1.1v2.2l.2.1h.3l.1-.1.1-.3zm1.5-1.5v1.4l.1.4.3.1v.4c-.3 0-.5 0-.7-.2s-.1-.4-.1-.7v-1.4h-.1l-.1-.1v-.3h.1v-.6l.2-.1h.3v.6h.3v.4h-.2v.1zm.8 1.3v-.8c0-.3.1-.6.3-.8l.6-.2c.2 0 .4 0 .6.2l.2.8v.5c0 .1 0 0 0 0h-1.2v.5l.1.3.3.1h.2l.1-.3v-.2h.4l.1.1c0 .2 0 .4-.2.6-.1.2-.4.3-.6.3-.3 0-.5-.1-.6-.3-.2-.1-.3-.4-.3-.8zm1.3-.8v-.1c0-.2 0-.3-.2-.4s-.3-.1-.4 0l-.2.4v.2h.7v-.1z"/><path fill="#41D5CF" d="M275.9 383h-2.6v-7.9h2.7v.8h-1.8v2.5h1.8v.8h-1.6l-.2.1v2.8h1.7l.1.1v.8h-.1zm4.7 0h-.7l-1.7-4.9h-.1v4.9h-.9v-7.9h.6l.2.1 1.8 4.8v-4.7l.1-.2h.9v7.9h-.2zm4 0H282v-7.9h2.8v.8h-2v2.5h1.9v.8H283l-.2.1v2.8h1.7l.2.1v.8h-.2zm1.4-8h1.4c.6 0 1 .2 1.4.6.3.4.5 1 .5 1.6v.3c0 1-.3 1.5-.8 1.9a184.2 184.2 0 0 1 .6 3.6h-.8v-.1l-.6-3c0-.2 0-.2-.2-.2h-.7v3.2l-.2.1h-.7v-7.9h.2zm.8 1.2v2.6h.6c.6 0 1-.4 1-1.2v-.4c0-.8-.4-1.2-1-1.2h-.6v.2zm4.3.9v3.9c0 .8.3 1.2.9 1.2.5 0 .8-.3.9-1v-2h-.5v-.9h1.4v2.5c0 .7-.1 1.3-.5 1.6-.3.4-.7.6-1.3.6-.5 0-1-.2-1.3-.6-.4-.3-.5-.9-.5-1.6v-3.7c0-.7.1-1.3.5-1.6.3-.4.8-.6 1.3-.6s1 .2 1.3.5.5.8.5 1.4c0 .2 0 .3-.2.3h-.7v-.3c-.1-.7-.4-1-.9-1-.6 0-.9.4-.9 1.2zm4.7-1.8v7.7h-.9v-7.9h.9v.2zm3.8 7.7H297v-7.9h2.8v.8h-2v2.5h1.9v.8H298l-.2.1v2.8h1.7l.2.1v.8h-.2z"/><g fill="#002CFF" fill-rule="evenodd" clip-rule="evenodd"><path d="M275.8 243.6c-.5-1-1-2-.2-3.2l2.3-3.2c.7-1 1.7-1.5 3-1.1l1 .1c2.8.6 5.6 1.3 8 2.8 1.2.7 2.2 1.5 2.7 2.8l.8 3.4c.2 1.5.2 3 .5 4.6l2.4 10.5c1 3.8 1.4 7.7.7 11.6-.3 1.7-.7 3.4-1.8 5-.3.4-.6 1-.7 1.5-.2.7-.5 1-1.2 1.2-1.8.5-3.6.6-5.4.4l-2.2-.1c-.6 0-1 .1-1.4.6a10 10 0 0 1-5.5 3.2c-2.5.6-5.1.5-7.7.5-2.7 0-5.5 0-8.2.2-3.4.4-6.1 2.1-8 5-.3.5-.5 1-.1 1.4.4.4 1 .5 1.6 0 .4-.2.7-.6 1-1 1.5-2.3 3.6-4 6.5-4.2h5.1c2.6 0 5.1 0 7.6-.3 3-.3 5.6-1.4 7.7-3.5.2-.2.6-.4.9-.4h3.7l4.5-.3c1.2 0 2-.7 2.3-1.9 0-.4.3-.9.6-1.2a10 10 0 0 0 1.9-3.8c1.2-4.5 1-9-.2-13.4-1.5-5.7-3.4-11.2-3.5-17.1 0-2.4-1.4-4-3.5-5.1a38 38 0 0 0-9.9-3.5c-1.6-.3-2.9 0-3.9 1.4l-2.4 3.2c-.9 1.3-.8 2.6-.3 4 .2.5.3.8 0 1.3-.4 1-.2 2 .5 2.7.7.7 1.5.8 2.6.3.3-.2.6-.5 1-.6.2-.1.5-.2.8-.1l2.4.6c1.1.2 1.8-.2 2.3-1.2 0-.1.2-.3.4-.3h2.3c.1 2-.5 4.6-1.4 6.7-1.5 3.1-3 6.3-2.7 9.9-4.7-3.3-9.5-3.1-14.2-.2l-.4-.6a9.9 9.9 0 0 0-5.2-4.7c-2.4-1-5-1.3-7.5-.2-.7.3-1 .7-.7 1.3.3.7.7.6 1.3.4a9 9 0 0 1 8.2 1.3 8 8 0 0 1 3.7 8.5c-.2.9-.7 1.7-1 2.6v.8l.7-.4a9 9 0 0 0 1.4-6.6c0-.2 0-.6.2-.7 1-.6 2-1.3 3-1.6a10 10 0 0 1 6.8-.2c3 1 5 2.8 5.9 5.9l.3 1.2c0 .2.2.4.4.3l.4-.3v-.5c-.3-1.1-.5-2.3-1-3.2a7.8 7.8 0 0 1-1-4.9c.2-2.2 1-4.3 2-6.3 1.2-2.6 2.1-5.3 2-8.3 0-.5.4-.5.8-.5v.3c.1 2.8-.5 5.4-1.4 8L286 258c-.3.8-.3 1.7-.4 2.6l.2.4c.2-.1.4-.2.4-.4.1-.4 0-.8.2-1.2.5-1.4 1-2.8 1.7-4.2 1.3-3 2.2-6.1 1.9-9.5l.3-.8c.4-.7.9-1.3.7-2.2a1 1 0 0 0-.5.6c-.4 1-1.2 1.4-2.2 1.6-1.7.5-3.5.3-5.2 0-1.9-.2-3.6 0-5 1.3l-1 .6c-.7.4-1.1.3-1.4-.3-.3-.6-.2-1.2.4-1.5l1.6-1a9 9 0 0 0 2.9-2.3c.4-.6 1.2-1 1.9-1.5l.4-.3-.1-.2-1.8.3 1-2.4-.3-.1-.5.4a5 5 0 0 0-1.4 2.7c-.2.8-.7 1.1-1.5 1-.5-.2-1.1-.2-1.7-.1l-.7.3v.2c.3 0 .6 0 .9.2.3 0 .6.2 1 .4l-2 1zm-5.5 33.2l2-1.5c.3-.3.4-.7 0-.9-.2-.2-.6-.1-.9 0l-1.4 1a19.4 19.4 0 0 1-10.4 3.8c-.3 0-.5.3-.8.4.3.1.5.4.8.4l2.7-.2c2.5-.4 4.8-1 6.9-2.3l.6.5c2.9 2.3 6 3.3 9.8 1.9l1.6-.8c.3-.1.8-.6.8-.7-.4-.5-.8-.2-1.2 0a9.4 9.4 0 0 1-10.5-1.6zm19.6-.7l.2.2h.4a6 6 0 0 0 3.1-1.4c1.5-1.4 1.6-3.2 1.4-5-.1-1.5-.4-3-.6-4.4-.1-.5 0-1.3-.9-1.2-.8.2-.4.9-.4 1.4.3 1.9.6 3.7.7 5.6 0 2.3-1 4-3.4 4.5l-.5.3z"/><path d="M275.8 243.6l2-1-1-.4-.9-.2v-.2l.7-.3h1.7c.8.2 1.3 0 1.5-.9.2-1 .6-1.9 1.3-2.7l.6-.4h.2l-.9 2.5 1.8-.3v.2l-.3.3c-.7.5-1.5.9-2 1.5a7 7 0 0 1-2.8 2.3l-1.6 1c-.6.3-.7 1-.5 1.5.4.6.8.7 1.5.3l1-.6c1.4-1.4 3.1-1.5 5-1.2 1.7.2 3.5.4 5.2 0 1-.3 1.8-.8 2.2-1.7 0-.3.3-.5.5-.6.2.9-.3 1.5-.7 2.2l-.3.8c.3 3.4-.6 6.5-2 9.5l-1.6 4.2c-.1.4 0 .8-.2 1.2 0 .2-.2.3-.4.4l-.2-.4c0-.9.1-1.8.4-2.6l1.4-3.7c1-2.5 1.5-5.1 1.4-7.9v-.3c-.4 0-.7 0-.7.5 0 3-1 5.7-2.2 8.3-.9 2-1.7 4-1.9 6.3-.1 1.7 0 3.3 1 4.9.5.9.7 2 1 3.2v.5c-.1.2-.3.3-.4.3-.2 0-.4-.1-.4-.3l-.3-1.2a8 8 0 0 0-5.9-6c-2.3-.7-4.5-.5-6.7.3-1.1.3-2 1-3 1.6-.3 0-.4.5-.3.7.4 2.4-.1 4.5-1.3 6.5l-.8.5v-.8c.3-.9.8-1.7 1-2.7a8 8 0 0 0-3.7-8.4 9 9 0 0 0-8.2-1.3c-.6.2-1 .3-1.3-.4-.2-.6 0-1 .7-1.3 2.5-1.1 5-.8 7.5.2a10 10 0 0 1 5.2 4.7l.4.6c4.7-3 9.5-3.1 14.2.2-.2-3.6 1.2-6.8 2.7-10 1-2 1.5-4.6 1.4-6.6h-2.4l-.3.3c-.5 1-1.2 1.4-2.3 1.2l-2.4-.6h-.8l-1 .7c-1 .5-1.9.4-2.6-.3-.7-.7-1-1.8-.5-2.7.3-.5.2-.8 0-1.3-.5-1.4-.6-2.7.3-4l2.4-3.2c1-1.3 2.3-1.7 4-1.4a38 38 0 0 1 9.8 3.5c2.1 1 3.4 2.7 3.5 5 0 6 2 11.5 3.5 17.2 1.2 4.5 1.4 9 .2 13.4-.4 1.4-1 2.7-2 3.8l-.5 1.2c-.4 1.2-1.1 1.8-2.3 2l-4.5.2h-3.7c-.3 0-.7.2-.9.4a12.2 12.2 0 0 1-7.7 3.5c-2.5.3-5 .2-7.6.3h-5c-3 .2-5 1.9-6.7 4.2-.2.4-.5.8-.9 1-.5.5-1.2.4-1.6 0-.5-.5-.2-1 0-1.4a11 11 0 0 1 8.1-5c2.7-.3 5.5-.2 8.2-.2 2.6 0 5.2 0 7.7-.5a10 10 0 0 0 5.5-3.2c.4-.5.8-.7 1.4-.6l2.2.1c1.8.2 3.6 0 5.4-.4.7-.2 1-.5 1.2-1.2 0-.5.4-1 .7-1.5a12 12 0 0 0 1.8-5c.7-4 .2-7.8-.7-11.6l-2.4-10.5c-.3-1.5-.3-3.1-.5-4.6l-.8-3.4c-.5-1.3-1.5-2-2.7-2.8a24.8 24.8 0 0 0-8-2.8l-1-.1c-1.3-.4-2.3 0-3 1.1l-2.3 3.2c-.8 1.1-.3 2.2.2 3.2zm7 2.8h-2.5c1.2.7 2 .7 2.4 0z"/><path d="M270.3 276.8a9.4 9.4 0 0 0 10.5 1.6c.4-.2.8-.5 1.2 0 0 0-.5.6-.8.7l-1.6.8c-3.7 1.4-7 .4-9.8-2-.2 0-.4-.2-.6-.4a18.8 18.8 0 0 1-9.6 2.5c-.3 0-.5-.3-.8-.4.3-.1.5-.4.8-.4 3.8-.2 7.2-1.6 10.4-3.7l1.4-1.1c.3-.1.7-.2 1 0 .3.2.2.6-.2.9l-1.9 1.5zm19.6-.8l.5-.2c2.5-.5 3.4-2.2 3.4-4.5 0-1.9-.4-3.7-.7-5.6 0-.5-.4-1.2.4-1.4.8 0 .8.7.9 1.2l.6 4.4c.2 1.8 0 3.6-1.4 5a6 6 0 0 1-3.1 1.4h-.4l-.2-.2zm-7.2-29.6c-.5.7-1.2.7-2.4 0h2.4z"/></g></svg>