<svg xmlns="http://www.w3.org/2000/svg" viewBox="0 0 320 568"><g fill="#009BFF" fill-rule="evenodd" clip-rule="evenodd"><path d="M268.9 350.9l-1.1-1.3c-.5-.7-1-1.3-1.3-2a15.2 15.2 0 0 1-2-5.2c-.4-1.4-.4-2.9-.2-4.3 0-1 .4-2.1.9-3a17.9 17.9 0 0 1 2.4-3.8l1.7-1.5a13.5 13.5 0 0 1 6.8-3c1.4-.1 3 0 4.4.1 1.3.2 2.5.5 3.6 1l2 1a20 20 0 0 1 8.3 11.5 27.9 27.9 0 0 1 0 13.8 34.3 34.3 0 0 1-4.2 10.6 82.5 82.5 0 0 1-3.4 5.1 29.7 29.7 0 0 1-4.2 4.5c-1 .8-2.1 1.6-3.4 2a9 9 0 0 1-8.1-.4l-1.6-1.3a7.1 7.1 0 0 1-1.4-7l.3-.9c.2-.5.1-1 0-1.4-.3-.6-.5-1.3-.6-2-.2-.7 0-1.5.2-2.2l.6-1.4c.2-.6 0-1-.4-1.5a5 5 0 0 1-.9-4.3c.1-.7.3-1.3.7-1.9l.9-1.2zm3.2.2c-.5.3-.9.5-1.2.9-.5.5-1 1-1.4 1.8-.5 1.2-.3 2.3.4 3.4.6.8 1 1.6.8 2.6 0 .6-.3 1.1-.6 1.6a3 3 0 0 0-.2 2.1c0 .4.2.7.3 1 .5 1.1.5 2.2 0 3.3a7 7 0 0 0-.4 2.2c0 1.2.4 2.2 1.1 3.2.6.7 1.4 1.2 2.2 1.5 2.2.9 4.2.5 6.2-.6a8 8 0 0 0 2.4-1.7l1.5-1.5 2-2.2.6-1c.5-.5.9-1.2 1.3-1.8l1.6-2.6a39.3 39.3 0 0 0 3.7-9.3l.6-3.4a25.5 25.5 0 0 0-1.8-12.8l-1.4-2.5a14.2 14.2 0 0 0-6-5.2l-2.5-1c-1.4-.3-3-.4-4.4-.3a12 12 0 0 0-9.5 6.5l-.8 1.7a11.6 11.6 0 0 0 1 8.4 20.1 20.1 0 0 0 3.8 5.1l.7.6z"/><path d="M273.4 343.2l.1.3 1 .7 1.6 1 2.3 1.2 1.4.8c1 .6 2 1.4 2.7 2.4 1 1.5 1.4 3 .6 4.8-.5 1-1.1 2-2 2.6l-2 1c-.4 0-.8.2-1 .4a8 8 0 0 0-1.6 1l-1 1.4c-.3.6-.4 1.3-.6 2 0 .4-.3.7-.6 1-.6.2-1.2 0-1.4-.6-.1-.7-.2-1.4 0-2l.2-2.3a3 3 0 0 0-.5-1.9c-.3-.5-.7-1-.9-1.6-.1-.6 0-1.1.5-1.5l.6-.6a2 2 0 0 1 1-.6c.5-.2.8.1 1.2.3a8 8 0 0 0 3.5 1.3 3 3 0 0 0 1.6-.4c.3-.2.4-.7.2-1a3 3 0 0 0-1.4-1.2l-.8-.5-2.1-1.4-1.8-1.4-1.6-1.7c-.7-.8-1.3-1.7-1.7-2.6a7.9 7.9 0 0 1 .3-8 5 5 0 0 1 1.6-1.7l1.5-1c1-.4 2-.8 3.2-.9 1.5 0 2.8.2 4.2.7 1 .5 1.9 1 2.7 1.8l1.5 1.6a9 9 0 0 1 2 3.4c.3.6.4 1.2.6 1.9.6 2.1.7 4.3.6 6.5a31.4 31.4 0 0 1-2.5 10.6c-.6 1.6-1.4 3.1-2.6 4.4l-.5.4v-.4l1-2.6.9-3.2c.7-3 1.1-6.2 1-9.3l-.5-3.3c-.2-1.7-.8-3.2-1.5-4.7a8.4 8.4 0 0 0-2.7-3.3 6.4 6.4 0 0 0-4.2-1.1h-.3l.1.3.1.1 1.6 1.5.6.7c1 1.2 1.4 2.5 1.7 4 .1.8-.2 1.6-1 1.7h-1.5c-1-.1-2-.5-3-.7l-1.8-.3h-.6z"/></g><path fill="#009BFF" d="M68.5 41.2H68c-.3 0-.5-.1-.6-.4l-1.7-7.1-.2-.1v7l-.1.5h-2.5l-.2-.5V22.3c0-.2 0-.3.2-.4l.4-.1h1.2c.3 0 .5.1.6.3l3.1 13 .1.2.1-.1 3.2-13c0-.3.2-.4.5-.4h1.2l.5.1v19.2H71v-7.5h-.2L69 40.9c0 .3-.3.4-.6.4zM86.3 27v9a6 6 0 0 1-1.3 4c-.8.8-1.9 1.3-3.2 1.3s-2.4-.4-3.2-1.3-1.2-2.2-1.2-4v-9c0-1.8.4-3 1.2-4s1.9-1.3 3.2-1.3 2.4.4 3.2 1.3a6 6 0 0 1 1.3 4zm-2.8 9.8V26.2c0-.8-.2-1.4-.8-1.7-.6-.4-1.2-.4-1.8 0s-.8.9-.7 1.7v10.6c-.1.8.2 1.4.7 1.7.6.4 1.2.4 1.8 0 .6-.3.8-1 .8-1.7zm14.8 4.4h-1.2c-.3 0-.5-.1-.6-.3l-3.7-10.4c0-.1-.1-.1-.1 0v10.1l-.2.5H90l-.1-.5V22l.5-.1h1.3c.2 0 .4.1.5.4L96 32.5v.1h.1V22.3l.2-.4.4-.1h1.7l.4.1.2.4v18.3c0 .2 0 .4-.2.5h-.4zm13.6-15v10.6c0 .8.2 1.4.8 1.7.6.4 1.1.4 1.7 0 .6-.3.9-1 .8-1.7v-.2l.1-.5.5-.1h1.6c.4 0 .6.2.6.7a5.1 5.1 0 0 1-1.4 3.4 4 4 0 0 1-3 1.2c-1.4 0-2.5-.5-3.3-1.3s-1.2-2.3-1.2-4v-9c0-1.8.4-3 1.2-4s2-1.3 3.2-1.3a4 4 0 0 1 3 1.1c.9.8 1.3 2 1.5 3.5 0 .4-.2.7-.6.7h-1.6c-.2 0-.4 0-.5-.2v-.6a2 2 0 0 0-.9-1.8c-.6-.3-1.1-.3-1.7 0s-.9 1-.8 1.8zm18.1.8v9a6 6 0 0 1-1.2 4c-.8.8-1.9 1.3-3.2 1.3s-2.4-.4-3.2-1.3-1.2-2.2-1.2-4v-9c0-1.8.4-3 1.2-4s1.9-1.3 3.2-1.3 2.4.4 3.2 1.3a6 6 0 0 1 1.2 4zm-2.7 9.8V26.2c0-.8-.2-1.4-.8-1.7-.6-.4-1.2-.4-1.8 0s-.8.9-.8 1.7v10.6c0 .8.2 1.4.8 1.7.6.4 1.2.4 1.8 0 .6-.3.8-1 .8-1.7zm12.7 4.4h-5.8l-.4-.1-.2-.5V22.3c0-.2 0-.3.2-.4l.4-.1h1.6l.5.1.1.4v16.2h3.6l.5.2v2.4h-.5zm9.9 0H144l-.4-.1-.1-.5V22.3l.1-.4.4-.1h1.7l.4.1.2.4v16.2h3.6l.4.2.1.4v2h-.5zm12.1 0h-1.6a2 2 0 0 1-.3 0l-.2-.1v-.3l-.3-1.5c0-.3-.1-.5-.2-.5H156l-.1.5-.3 1.5-.1.3h-2.6v-.4l3.5-18.4.1-.4.5-.1h1.9l.2.5 3.5 18.4-.1.4h-.4zm-4.4-12.4l-1.1 6.8v.4l.4.1h2.1v-.5l-1.2-6.8h-.2zm16.6-1.8c0 1.6-.4 2.9-1.1 3.8v.3c.7 1 1 2.2 1 3.8v1c0 1.7-.3 3-1.1 4-.8.8-2 1.3-3.2 1.3h-3.4l-.4-.1-.1-.5V22.3l.1-.4.4-.1h3.4a4 4 0 0 1 3.2 1.3 6 6 0 0 1 1.2 4zm-5.5-2v4.6h1.1c1 0 1.6-.7 1.6-2v-1.2c0-.7-.1-1.2-.4-1.5s-.7-.5-1.2-.5h-1.1v.5zm0 7.8v5.7h1.1c.5 0 .9 0 1.2-.4.3-.4.4-.8.4-1.5v-2.3c0-.7-.1-1.2-.4-1.5s-.7-.5-1.2-.5h-1.1v.5zm17.7-5.8v9a6 6 0 0 1-1.2 4c-.8.8-2 1.3-3.2 1.3s-2.4-.4-3.3-1.3-1.2-2.2-1.2-4v-9c0-1.8.4-3 1.2-4s2-1.3 3.3-1.3 2.4.4 3.2 1.3a6 6 0 0 1 1.2 4zm-2.8 9.8V26.2c0-.8-.2-1.4-.8-1.7-.6-.4-1.1-.4-1.7 0s-.9.9-.8 1.7v10.6c0 .8.2 1.4.8 1.7.6.4 1.1.4 1.7 0 .6-.3.9-1 .8-1.7zm6.9-15h3.6c1.4 0 2.4.4 3.1 1.3.7.8 1.1 2.1 1.1 3.8v1c0 2.1-.6 3.6-1.7 4.4l1.7 8.3c0 .4 0 .6-.4.6h-1.7a2 2 0 0 1-.3 0l-.2-.1-.1-.3-1.4-7.5-.4-.2h-1v7.5c0 .2 0 .4-.2.5h-2.5l-.1-.5V22.3l.1-.4.4-.1zm3.6 2.4h-.8l-.5.1v6.3h1.3c1 0 1.4-.6 1.4-2v-2.4c0-1.3-.4-2-1.4-2zm16.6 17H209a2 2 0 0 1-.3 0l-.2-.1-.1-.3-.3-1.5-.1-.5h-3.4l-.2.5-.2 1.5c0 .1 0 .2-.2.3h-2.5v-.4l3.4-18.4.2-.4.4-.1h2l.1.5 3.5 18.4v.4h-.4zm-4.5-12.4l-1.2 6.8v.4l.5.1h2v-.5l-1.1-6.8h-.2zm6.3-5v-1.5l.1-.4.5-.1h7.2l.4.1.1.4v1.5l-.1.5h-2.1c-.3 0-.4.1-.5.2v16.1c0 .2 0 .4-.2.5h-2.5l-.1-.5v-16l-.5-.1H213l-.5-.1v-.5zm17.6 17.4h-5.8l-.4-.1-.2-.5V22.3c0-.2 0-.3.2-.4l.4-.1h5.8l.5.1v2.4H227c-.3 0-.5.1-.5.2v5.1h3.5l.5.2V32l-.5.2h-3.5v6.2h3.5l.5.2V41h-.5zm10.2-4.4V22l.5-.1h1.7l.4.1.1.4V36a6 6 0 0 1-1.2 4c-.8.8-1.9 1.3-3.2 1.3-1.3 0-2.4-.4-3.2-1.3s-1.2-2.2-1.2-4V22l.5-.1h1.7l.4.1.1.4v14.5c0 .8.2 1.4.8 1.7.6.4 1.2.4 1.8 0 .5-.3.8-1 .8-1.7zm7-15h3.6c1.3 0 2.4.4 3 1.3.8.8 1.2 2.1 1.2 3.8v1c0 2.1-.6 3.6-1.7 4.4l1.6 8.3c.1.4 0 .6-.3.6H253a2 2 0 0 1-.3 0l-.2-.1-.1-.3-1.5-7.5c0-.1 0-.2-.3-.2h-1v7.5l-.2.5H247l-.1-.5V22l.5-.1zm3.6 2.4h-.8l-.5.1v6.3h1.3c1 0 1.4-.6 1.4-2v-2.4c0-1.3-.5-2-1.4-2zM56 53.2h3.3c1.3 0 2.4.4 3.2 1.3s1.2 2.2 1.2 4v8.8c0 1.7-.4 3-1.2 4s-1.9 1.3-3.2 1.3H56l-.5-.1V53.3l.5-.1zm2.2 3.2v13.5h1.1c.5 0 .9 0 1.2-.4s.5-.8.5-1.5V57.8c0-.7-.2-1.2-.5-1.5-.3-.3-.7-.5-1.2-.5h-1l-.1.6zm15.5 16.2H68l-.4-.1-.2-.5V53.7c0-.2 0-.3.2-.4l.4-.1h5.8l.5.1v2.4l-.5.1h-3.5l-.1.6V61h3.6l.5.2v2.3l-.5.2h-3.5l-.1.5V70h3.6l.5.2v2.4h-.5zm-2.5-20.4h-1c-.2 0-.3 0-.3-.3v-2.7c0-.2 0-.3.2-.4l.4-.2h1.6c.5 0 .6.3.4.8l-.8 2.4-.2.4h-.3zm7.2 1H82c1.4 0 2.4.4 3.1 1.3.7.8 1.1 2.1 1.1 3.8v1c0 2.1-.6 3.6-1.7 4.5l1.7 8.2c0 .4 0 .6-.4.6h-2l-.2-.1-.1-.3-1.4-7.5-.4-.2h-1V72c0 .2 0 .4-.2.5H78V53.7l.1-.4.4-.1zm3.6 2.4h-.8l-.5.1V62H82c1 0 1.4-.6 1.4-2v-2.4c0-1.3-.4-2-1.4-2zm10.6-1.9V72l-.1.5H90l-.2-.5V53.7c0-.2 0-.3.2-.4l.4-.1H92l.5.1.1.4zm10.8-.5h2l.1.1v.4L102.2 72l-.2.4h-2.4l-.1-.4L96 53.6v-.4l.4-.1h2l.2.1.1.3 2 12h.2l2-12 .1-.3h.2l.3-.1zm11.7 19.4h-5.8l-.5-.1V53.3l.5-.1h5.8l.5.1v2.4l-.5.1h-3.5l-.1.6V61h3.6l.5.2v2.3l-.5.2h-3.5l-.1.5V70h3.6l.5.2v2.4h-.5zm14.5.1c-1.3 0-2.3-.4-3.2-1.3-.8-1-1.2-2-1.2-3.2v-.5l.6-.2h1.6c.3 0 .5.3.5.7 0 .6.2 1 .5 1.4.3.4.7.6 1.2.6s.9-.2 1.2-.5.5-.7.5-1.2c.2-1.1-.4-2.4-1.7-4a23.2 23.2 0 0 1-1.8-2l-.6-.9a23.3 23.3 0 0 0-1-1.6 43.6 43.6 0 0 0-.6-1.7l-.1-.8a4 4 0 0 1 4-4.4 4 4 0 0 1 4 3.7v.7l-.5.2h-1.6c-.2 0-.3 0-.4-.2l-.1-.4c0-.5-.1-.8-.4-1-.2-.3-.5-.5-1-.5s-.8.2-1 .6l-.3 1.2a5 5 0 0 0 1 2.3l1.8 2.4c.7.7 1.4 1.6 2 2.6.6 1 1 2 1 3 .2 1.3-.2 2.4-1 3.5-.9 1-2 1.5-3.4 1.5zm13.6-4.5V53.3l.5-.1h1.7l.4.1.1.4v13.7a6 6 0 0 1-1.2 4 4 4 0 0 1-3.2 1.3 4 4 0 0 1-3.2-1.3 6 6 0 0 1-1.2-4V53.3l.5-.1h1.7l.4.1.1.4v14.5c0 .8.2 1.4.8 1.7s1.2.4 1.8 0 .8-1 .8-1.7zm7-15h3.6c1.3 0 2.4.4 3 1.3.8.8 1.2 2.1 1.2 3.8v1c0 2.1-.6 3.6-1.7 4.5L158 72c0 .4 0 .6-.4.6h-2l-.2-.1-.1-.3-1.4-7.5-.4-.2h-1V72c0 .2 0 .4-.2.5h-2.5l-.1-.5V53.7l.1-.4.4-.1zm3.6 2.4h-.8l-.5.1V62h1.3c1 0 1.4-.6 1.4-2v-2.4c0-1.3-.4-2-1.4-2zm20.4 12.6V53.7c0-.2 0-.3.2-.4l.4-.1h1.6l.5.1.1.4v13.7a6 6 0 0 1-1.2 4c-.8.9-2 1.3-3.2 1.3-1.4 0-2.4-.4-3.2-1.3-.9-1-1.3-2.2-1.3-4V53.7c0-.2 0-.3.2-.4l.4-.1h1.6l.5.1.1.4v14.5c0 .8.2 1.4.8 1.7s1.2.4 1.7 0 .9-1 .8-1.7zm15 4.4h-1.3c-.3 0-.4-.1-.5-.3l-3.7-10.4h-.2V72l-.1.5h-2.5l-.2-.5V53.7c0-.2 0-.3.2-.4l.4-.1h1.2c.3 0 .5.1.6.4l3.6 10.3.1.1h.1V53.7l.2-.4.4-.1h1.7l.4.1.1.4v18.8h-.5zm10.8 0h-5.8l-.5-.1V53.3l.5-.1h5.8l.5.1v2.4l-.5.1h-3.5l-.1.6V61h3.6l.5.2v2.3l-.5.2h-3.5l-.1.5V70h3.6l.5.2v2.4h-.5zm11.4-19.4h3.6c1.3 0 2.3.4 3 1.3.8.8 1.1 2.1 1.1 3.8v1c0 2.1-.5 3.6-1.6 4.5L219 72c.1.4 0 .6-.3.6h-2.1l-.1-.1-.2-.3-1.4-7.5c0-.1-.1-.2-.3-.2h-1l-.1.5v7l-.1.5H211l-.2-.5V53.7c0-.2 0-.3.2-.4l.4-.1zm3.6 2.4h-.8l-.5.1-.1.5V62h1.4c1 0 1.4-.6 1.4-2v-2.4c0-1.3-.5-2-1.4-2zm14.2 17h-5.9l-.4-.1-.1-.5V53.3l.5-.1h5.9l.4.1.1.4v1.5l-.1.5-.4.1h-3.6V61h3.5c.3 0 .4.1.5.2l.1.4v1.5l-.1.4-.4.2h-3.6V70h3.5c.3 0 .4.1.5.2l.1.4V72l-.1.5h-.4zm-2-20.4H226l-.2-.4-.8-2.4c-.2-.5 0-.8.3-.8h1.7c.2 0 .4 0 .4.2l.2.4V52c0 .2-.1.3-.3.3zm8.6 5.4v10.6c0 .8.2 1.4.8 1.7s1.2.4 1.8 0c.5-.3.8-1 .7-1.7v-4.5h-.7l-.5-.1v-2.4l.5-.1h3.4l.1.5v5.8c0 1.7-.4 3-1.2 3.9a4 4 0 0 1-3.2 1.4 4 4 0 0 1-3.2-1.3 6 6 0 0 1-1.3-4v-9c0-1.8.5-3 1.3-4a4 4 0 0 1 3.2-1.3c1.2 0 2.2.4 3 1.1.8.8 1.3 2 1.4 3.5 0 .4-.2.7-.6.7h-1.6l-.4-.1-.2-.5v-.2c.1-.8-.2-1.4-.7-1.7-.6-.4-1.2-.4-1.8 0-.6.3-.8.9-.8 1.7zm16.2 15h-6l-.4-.1V53.3l.5-.1h1.6l.5.1v16.1c0 .3.1.5.2.5h3.5l.4.2.2.4V72c0 .2 0 .4-.2.5h-.4zm9.8 0h-5.9l-.4-.1-.1-.5V53.7l.1-.4.4-.1h5.9l.4.1.1.4v2l-.5.1h-3.6V61h3.5c.3 0 .4.1.5.2l.1.4v1.9l-.5.2h-3.6V70h3.5c.3 0 .4.1.5.2l.1.4v2h-.5zM172 278.1h13.1v24.7H172z"/><path fill="#009BFF" d="M178.6 261.5l9.5 23.3-9.5-5.5-9.6 5.5zM172 124.7h13.1v24.7H172z"/><path fill="#009BFF" d="M178.6 108.1l9.5 23.4-9.5-5.5-9.6 5.5zm-6.6 319h13.1v24.7H172z"/><path fill="#009BFF" d="M178.6 410.5l9.5 23.4-9.5-5.6-9.6 5.6z"/><path fill="#009BFF" stroke="#41D5CF" stroke-miterlimit="10" stroke-width="5" d="M233.6 504.3a55 55 0 1 1-110.2-.1 55 55 0 0 1 110.2.1zm0-150a55 55 0 1 1-110.2-.2 55 55 0 0 1 110.2.2zm-110-149.4a55 55 0 1 1 110.1.1 55 55 0 0 1-110.1-.1z"/><path fill="#FFF" d="M159 183.6h-1v5l-.1.2h-.8v-11.7l.3-.1h2c.7 0 1.3.2 1.8.7s.7 1.2.7 2.2v.7c0 1.2-.4 2-1.1 2.6l1 5.4v.2h-.7l-.1-.2-1-4.9v-.1h-.2a7 7 0 0 1-.6 0zm-1.2-5.5v4.6h1.4c.5 0 1-.1 1.2-.5s.5-.8.5-1.5v-.8c0-.7-.2-1.2-.5-1.6-.3-.3-.7-.5-1.2-.5h-1.3v.3zm8 3c-.8 0-1.3.5-1.4 1.5v.4h-.8v-.3c0-.6.2-1.2.5-1.7.4-.4 1-.7 1.7-.7 1.4 0 2.2 1 2.2 3v4.2l.1 1c0 .3 0 .4-.3.4h-.3l-.3-.1v-.5c-.5.5-1 .7-1.7.7-.6 0-1.1-.2-1.5-.6s-.6-1-.6-1.7v-.5c0-.5.2-1 .4-1.3.3-.3.6-.6 1-.7l1-.4 1-.5c.2-.2.3-.3.3-.6a2 2 0 0 0-.3-1.1c-.3-.3-.6-.5-1-.5zm0 7c.5 0 .8-.1 1-.4s.3-.7.3-1.2V184l-.9.3-.8.3c-.8.4-1.2 1-1 1.8 0 1.3.4 1.8 1.5 1.7zm4.2 3.5v-11.1l.3-.1h.4l.1.3v.3c.3-.4.8-.7 1.4-.7.7 0 1.2.2 1.6.7.4.5.6 1.3.6 2.3v2.7c0 1-.2 1.8-.6 2.3-.4.4-1 .7-1.6.7-.6 0-1-.3-1.4-.8v3.8h-.8v-.3zm3.5-5.3V183c0-1.3-.5-1.9-1.4-1.9-.8 0-1.3.6-1.3 1.9v3.3c0 1.2.5 1.8 1.3 1.8 1 0 1.4-.6 1.4-1.8zm2.7 5.3v-10.9l.1-.2.3-.1h.4l.1.3v.3c.3-.4.8-.7 1.4-.7.7 0 1.2.2 1.6.7.4.5.5 1.3.5 2.3v2.7c0 1-.1 1.8-.5 2.3-.4.4-1 .7-1.6.7-.6 0-1-.3-1.4-.8v3.8h-.8v-.3zm3.6-5.3V183c0-1.3-.5-1.9-1.4-1.9-.8 0-1.3.6-1.3 1.9v3.3c0 1.2.5 1.8 1.3 1.8 1 0 1.4-.6 1.4-1.8zm2.5-.3v-2.7c0-1 .3-1.7.7-2.2.4-.5 1-.8 1.6-.8s1.3.3 1.7.8c.4.5.6 1.2.6 2.2v1.2h-3.3l-.3.1v1.7c0 .6 0 1 .3 1.4.3.3.6.4 1 .4s.8 0 1-.4c.2-.2.4-.6.4-1v-.4h.8v.3a3 3 0 0 1-.5 1.6c-.4.5-1 .8-1.7.8a2 2 0 0 1-1.6-.8c-.4-.5-.7-1.2-.7-2.2zm1-3v.7h2.7v-.7c0-.7-.1-1.1-.4-1.4-.2-.3-.5-.5-1-.5s-.7.2-1 .5c-.2.3-.4.7-.4 1.4zm6.9 5l.2.2.1.2v.4h-.3c-.6 0-1-.1-1.2-.6-.2-.3-.2-.6-.3-1v-10.1l.3-.1h.5v9.3l.1 1.2c.1.4.3.6.6.6zm1.7-2v-2.7c0-1 .2-1.7.6-2.2.4-.5 1-.8 1.7-.8s1.2.3 1.6.8c.4.5.6 1.2.6 2.2v1.2H193l-.3.1v1.7c0 .6 0 1 .3 1.4.3.3.6.4 1 .4.5 0 .8 0 1-.4.3-.2.4-.6.4-1l.1-.4h.7v.3c0 .6-.1 1.1-.5 1.6s-.9.8-1.6.8a2 2 0 0 1-1.7-.8c-.4-.5-.6-1.2-.6-2.2zm.9-3v.7h2.7v-.7c0-.7 0-1.1-.3-1.4-.3-.3-.6-.5-1-.5s-.8.2-1 .5c-.3.3-.4.7-.4 1.4zm7.7-1.6l-.5-.1c-.3 0-.6.2-.7.5l-.1 1.2v5.8h-.8v-8.3l.2-.1h.5v.5c.4-.3.9-.5 1.3-.5h.3v1h-.2zM161.7 210l.2.2.1.2v.4h-.3c-.6 0-1-.1-1.2-.6-.2-.3-.3-.6-.3-1v-10.1l.3-.1h.5v9.3l.1 1.2c.1.4.3.6.6.6zm4-6.9c-.8 0-1.3.5-1.4 1.5v.4h-.8v-.3c0-.6.2-1.2.5-1.7.4-.4.9-.7 1.7-.7 1.4 0 2.2 1 2.2 3v4.2l.1 1c0 .3 0 .4-.3.4h-.3l-.3-.1v-.5c-.5.5-1 .7-1.7.7-.6 0-1.1-.2-1.5-.6s-.6-1-.6-1.7v-.5c0-.5.2-1 .4-1.3.2-.3.6-.6 1-.7l1-.4 1-.5c.2-.2.3-.3.3-.6 0-.4-.1-.8-.4-1.1-.2-.3-.5-.5-1-.5zm0 7c.5 0 .8-.1 1-.4s.3-.7.3-1.2V206l-.9.3-.8.3c-.8.4-1.2 1-1 1.8 0 1.3.4 1.8 1.5 1.7zm9.7-6.7l-.4-.1c-.4 0-.6.2-.8.5v6.8l-.1.2h-.8v-8.3l.3-.1h.5v.5c.4-.3.8-.5 1.3-.5h.3v1h-.3zm1.3 4.6v-2.7c0-1 .2-1.7.6-2.2.4-.5 1-.8 1.6-.8s1.3.3 1.7.8c.4.5.6 1.2.6 2.2v1.2h-3.3l-.3.1v1.7c0 .6 0 1 .3 1.4.3.3.6.4 1 .4.5 0 .8 0 1-.4.3-.2.4-.6.4-1v-.4h.8v.3c0 .6-.1 1.1-.5 1.6s-1 .8-1.7.8a2 2 0 0 1-1.6-.8c-.4-.5-.6-1.2-.6-2.2zm.9-3v.7h2.7v-.7c0-.7 0-1.1-.3-1.4-.3-.3-.6-.5-1-.5s-.8.2-1 .5c-.3.3-.4.7-.4 1.4zm1.3-3.4h-.3v-.3l-.4-1.6c-.1-.2 0-.3.3-.3h.1c.3 0 .4 0 .4.3v1.7l-.1.2zm7.6 9.8v-1.2a2 2 0 0 1-1.4.8c-.7 0-1.2-.3-1.6-.7-.4-.5-.6-1.3-.6-2.3v-2.7c0-1 .2-1.8.6-2.3a2 2 0 0 1 1.6-.7c.6 0 1 .3 1.4.7v-.5l.3-.1h.5v8.6c0 1-.1 1.8-.5 2.3a2 2 0 0 1-1.7.7c-1.1 0-1.8-.5-2.1-1.6l.1-.3.4-.1.3.1c.2.7.6 1 1.3 1 .4 0 .8 0 1-.4.3-.3.4-.7.4-1.3zm-2.7-6.4v3.3c0 1.2.5 1.8 1.4 1.8s1.3-.6 1.3-1.8V205c0-1.3-.5-1.9-1.3-1.9s-1.4.6-1.4 1.9zm7 5l.3.2v.6h-.3c-.6 0-1-.1-1.2-.6-.2-.3-.2-.6-.3-1v-10.1l.3-.1h.5v9.3l.2 1.2c0 .4.2.6.5.6zm1.7-2v-2.7c0-1 .2-1.7.6-2.2.4-.5 1-.8 1.7-.8s1.2.3 1.6.8c.4.5.7 1.2.7 2.2v1l-.1.2h-3.3l-.3.1v1.7c0 .6.1 1 .4 1.4.2.3.5.4 1 .4.4 0 .7 0 1-.4.2-.2.3-.6.3-1l.1-.4h.7l.1.3c0 .6-.2 1.1-.6 1.6-.3.5-.9.8-1.6.8a2 2 0 0 1-1.7-.8c-.4-.5-.6-1.2-.6-2.2zm.9-3v.7h2.7v-.7c0-.7 0-1.1-.3-1.4-.3-.3-.6-.5-1-.5s-.8.2-1 .5c-.3.3-.4.7-.4 1.4zm-43.1 25v-2.7c0-1 .2-1.7.6-2.2.4-.5 1-.8 1.6-.8s1.3.3 1.7.8c.4.5.6 1.2.6 2.2v1.2h-3.3l-.3.1v1.7c0 .6 0 1 .3 1.4.3.3.6.4 1 .4s.8 0 1-.4c.2-.2.4-.6.4-1v-.4h.8v.3c0 .6-.1 1.1-.5 1.6s-1 .8-1.7.8a2 2 0 0 1-1.6-.8c-.4-.5-.7-1.2-.7-2.2zm.8-3v.7h2.8v-.7c0-.7-.1-1.1-.4-1.4-.2-.3-.5-.5-1-.5s-.7.2-1 .5c-.2.3-.4.7-.4 1.4zm6.5-4v1.6l.1.2h.6v.7l-.3.1h-.3l-.1.2v5.7c.1.4.3.6.6.6h.2l.1.3v.4h-.3c-.6 0-1-.1-1.3-.6l-.2-1v-5.4c0-.1 0-.2-.2-.2h-.3v-.7l.3-.1c.1 0 .2 0 .2-.2v-1.9h.8v.3zm9.6 3.3v.2l-.3.1h-.2c-.2 0-.3-.1-.3-.3 0-.3-.2-.6-.4-.8-.2-.2-.5-.4-.8-.4s-.5.1-.8.4a1 1 0 0 0-.3.8c0 .3.1.5.4.8l.8.8a45 45 0 0 1 1.8 1.8c.3.3.4.7.4 1.1a2 2 0 0 1-.7 1.5c-.5.5-1 .7-1.6.7a2.2 2.2 0 0 1-2.2-2.2v-.3h.5c.2 0 .3 0 .3.3 0 .4.2.7.5 1 .2.2.5.3.9.3s.7 0 1-.3.4-.6.4-1-.2-.8-.6-1.2a6 6 0 0 0-1.1-1c-.4-.2-.8-.5-1.1-1a2 2 0 0 1-.6-1.3c0-.5.2-1 .6-1.4.4-.4.9-.6 1.4-.6s1 .2 1.4.5.6.9.6 1.5zm1.6 3.7v-2.7c0-1 .2-1.7.6-2.2.5-.5 1-.8 1.7-.8s1.3.3 1.7.8c.4.5.6 1.2.6 2.2v2.7c0 1-.2 1.7-.6 2.2-.4.5-1 .8-1.7.8s-1.2-.3-1.7-.8c-.4-.5-.6-1.2-.6-2.2zm3.7.3V227c0-.7-.1-1.1-.4-1.4-.2-.3-.6-.5-1-.5s-.8.2-1 .5c-.3.3-.4.7-.4 1.4v3.3c0 .6.1 1 .4 1.4.2.3.6.4 1 .4s.8-.1 1-.4c.3-.3.4-.8.4-1.4zm6.3 2.3V227c0-1.3-.4-1.9-1.3-1.9-1 0-1.4.6-1.4 1.9v5.8h-.8v-8.3l.3-.1h.5v.7c.4-.5.8-.8 1.4-.8.7 0 1.2.2 1.6.7.4.5.6 1.3.6 2.3v5.3l-.1.2h-.7l-.1-.2zm10-6.3v.2l-.4.1h-.1c-.2 0-.3-.1-.3-.3 0-.3-.2-.6-.4-.8-.2-.2-.5-.4-.8-.4s-.6.1-.8.4a1 1 0 0 0-.3.8c0 .3.1.5.3.8l.9.8a45 45 0 0 1 1.8 1.8c.3.3.4.7.3 1.1a2 2 0 0 1-.7 1.5 2 2 0 0 1-1.5.7c-.7 0-1.2-.3-1.6-.7a3 3 0 0 1-.7-1.5l.1-.3h.4c.3 0 .4 0 .4.3 0 .4.2.7.4 1 .3.2.6.3 1 .3s.7 0 1-.3.4-.6.4-1-.2-.8-.6-1.2a6 6 0 0 0-1.1-1c-.4-.2-.8-.5-1.2-1a2 2 0 0 1-.5-1.3c0-.5.2-1 .6-1.4.4-.4.8-.6 1.4-.6s1 .2 1.4.5.6.9.6 1.5zm1.6 3.7v-2.7c0-1 .2-1.7.6-2.2.4-.5 1-.8 1.7-.8s1.3.3 1.7.8c.4.5.6 1.2.6 2.2v1l-.1.2h-3.3l-.3.1v1.7c0 .6.1 1 .4 1.4.2.3.6.4 1 .4s.7 0 1-.4c.2-.2.3-.6.4-1v-.4h.8v.3c0 .6-.2 1.1-.6 1.6-.3.5-.9.8-1.6.8a2 2 0 0 1-1.7-.8c-.4-.5-.6-1.2-.6-2.2zm1-3v.7h2.7v-.7c0-.7-.1-1.1-.4-1.4-.2-.3-.6-.5-1-.5s-.8.2-1 .5c-.3.3-.4.7-.4 1.4zm9 5.6V227c0-1.3-.5-1.9-1.3-1.9-1 0-1.4.6-1.4 1.9v5.8h-.8v-8.3l.3-.1h.5v.7c.4-.5.8-.8 1.4-.8.7 0 1.2.2 1.6.7.4.5.6 1.3.6 2.3v5.3l-.1.2h-.7l-.1-.2zm6.6-6.3l-.1.2-.3.1h-.1c-.2 0-.3-.1-.4-.3 0-.3-.1-.6-.3-.8-.2-.2-.5-.4-.8-.4s-.6.1-.8.4a1 1 0 0 0-.3.8c0 .3 0 .5.3.8l.9.8a45 45 0 0 1 1.8 1.8c.2.3.3.7.3 1.1a2 2 0 0 1-.7 1.5 2 2 0 0 1-1.5.7c-.7 0-1.2-.3-1.6-.7a2 2 0 0 1-.7-1.5v-.3h.5c.2 0 .3 0 .4.3 0 .4.2.7.4 1 .3.2.6.3 1 .3.3 0 .7 0 1-.3s.3-.6.3-1-.1-.8-.5-1.2a6 6 0 0 0-1.1-1c-.5-.2-.8-.5-1.2-1a2 2 0 0 1-.5-1.3c0-.5.2-1 .6-1.4.4-.4.8-.6 1.4-.6s1 .2 1.3.5.6.9.7 1.5z"/><path fill="#4A4A4A" d="M21.5 201.3v-.3h.7c.7 0 1.1-.6 1.1-1.6v-1.1c0-.6-.1-1.1-.4-1.4-.3-.3-.6-.5-1-.5-.5 0-.8.2-1 .4-.3.3-.5.7-.5 1.1v.3l-.3.1h-.5v-.3c0-.6.1-1.2.5-1.7a2.4 2.4 0 0 1 3.5.1c.5.5.6 1.2.6 2.2v.7a3 3 0 0 1-.6 2c.4.5.6 1.1.6 2v1.4c0 1-.2 1.7-.6 2.2-.5.5-1 .8-1.8.8-.7 0-1.3-.3-1.7-.8-.4-.5-.6-1-.6-1.6v-.3h.8l.1.4c0 .4.2.8.4 1s.6.4 1 .4c.5 0 .8-.1 1.1-.4.3-.3.4-.8.4-1.4v-1.8c0-1-.4-1.5-1.1-1.5h-.7v-.4zm7.6 1.7v-.2c0-.2.1-.3.3-.3h2.9c.2 0 .2.1.2.3v.2c0 .2 0 .3-.2.3h-3s-.2-.1-.2-.3zm10.7-.7h-1.2v4.9l-.1.3h-.8v-11.7l.3-.1h2c.7 0 1.3.2 1.8.7s.7 1.2.7 2.2v.7c0 1.2-.4 2-1.1 2.6l1 5.4v.2h-.7l-.1-.2-1-4.9v-.2h-.8zm-1.3-5.5v4.6H40c.5 0 1-.1 1.2-.5s.5-.8.5-1.5v-.8c0-.7-.2-1.2-.5-1.6-.3-.3-.7-.5-1.2-.5h-1.3v.3zm8 3c-.8 0-1.3.5-1.4 1.5v.3l-.2.1h-.6v-.3c0-.6.2-1.2.5-1.7.4-.4 1-.7 1.7-.7 1.4 0 2.2 1 2.2 3v4.2l.1 1c0 .3 0 .4-.3.4h-.3l-.3-.1v-.5c-.5.4-1 .7-1.7.7-.6 0-1.1-.2-1.5-.6s-.6-1-.6-1.7v-.5c0-.5.2-1 .4-1.3.3-.3.6-.6 1-.7l1-.4 1-.5.3-.6a2 2 0 0 0-.3-1.1c-.3-.3-.6-.5-1-.5zm0 7c.5 0 .8-.1 1-.4s.3-.7.3-1.2v-2.5l-.8.3-.8.3c-.9.4-1.3 1-1.2 1.8 0 1.3.5 1.8 1.6 1.7zm4.1 3.5v-10.9l.1-.2.3-.1h.4l.1.3v.3c.3-.4.8-.7 1.4-.7.7 0 1.2.2 1.6.7.4.5.6 1.3.6 2.3v2.7c0 1-.2 1.8-.6 2.2a2 2 0 0 1-1.6.8c-.6 0-1-.3-1.4-.8v3.7h-.8v-.3zm3.6-5.3v-3.3c0-1.3-.5-1.9-1.4-1.9-.8 0-1.3.6-1.3 1.9v3.3c0 1.2.5 1.8 1.3 1.8 1 0 1.4-.6 1.4-1.8zm2.8 5.3v-11.1l.3-.1h.4l.1.3v.3c.3-.4.8-.7 1.4-.7.7 0 1.2.2 1.6.7.4.5.6 1.3.6 2.3v2.7c0 1-.2 1.8-.6 2.2a2 2 0 0 1-1.6.8c-.6 0-1-.3-1.4-.8v3.7H57v-.3zm3.5-5.3v-3.3c0-1.3-.5-1.9-1.4-1.9-.8 0-1.3.6-1.3 1.9v3.3c0 1.2.5 1.8 1.3 1.8 1 0 1.4-.6 1.4-1.8zm2.5-.3V202c0-1 .3-1.7.7-2.2.4-.5 1-.8 1.6-.8s1.3.3 1.7.8c.4.5.6 1.2.6 2.2v1.2h-3.3l-.3.1v1.7c0 .6 0 1 .3 1.4.3.3.6.4 1 .4s.8 0 1-.4c.2-.2.4-.6.4-1v-.4h.8v.3a3 3 0 0 1-.5 1.6c-.4.5-1 .8-1.7.8a2 2 0 0 1-1.6-.8c-.4-.5-.7-1.2-.7-2.2zm1-3v.7h2.7v-.7c0-.7-.1-1.1-.4-1.4-.2-.3-.5-.5-1-.5s-.7.2-1 .5c-.2.3-.4.7-.4 1.4zm6.9 5.1h.2l.1.3v.4h-.3c-.6 0-1-.1-1.2-.6-.2-.3-.2-.6-.3-1v-10.1l.3-.1h.5v9.3l.1 1.2c.1.4.3.5.6.6zM20.6 355.6v1.5H24l.3.2v.6l-.3.1h-4.2l-.1-.3v-2.3c0-1 .4-2 1.3-3a44.2 44.2 0 0 0 2.3-3.1v-.7c0-1.2-.4-1.8-1.4-1.8-.4 0-.7.2-1 .5-.2.3-.3.8-.3 1.4v.2l-.1.3h-.7l-.1-.3c0-.8.2-1.6.6-2 .3-.6.9-.9 1.7-.9.4 0 .8.1 1.1.3.3.2.6.4.7.7l.3.8.1.8c0 1-.4 2-1.3 3a79.1 79.1 0 0 1-2 2.6l-.2.6-.1.8zm8.6-2.2v-.2c0-.2 0-.3.2-.3h3c.1 0 .2.1.2.3v.2c0 .2-.1.3-.3.3h-2.9c-.1 0-.2-.1-.2-.3zm12.3 4.6h-3.7l-.1-.3v-11.5l.3-.1h3.7l.1.3v.4l-.3.1h-2.9v4.4h2.9l.2.1.1.3v.4h-3.3v5h2.9l.2.2.1.2v.4l-.3.1zm4.3 0a2 2 0 0 1-1.7-.7c-.4-.5-.6-1.2-.6-2.2v-2.7c0-1 .2-1.7.6-2.2a2 2 0 0 1 1.7-.8c.7 0 1.3.3 1.6.8.4.4.6 1 .6 1.6v.3h-.8v-.4c0-.4-.2-.8-.5-1-.2-.3-.5-.5-1-.5-.4 0-.7.2-1 .5-.2.3-.3.8-.3 1.4v3.3c0 .6.1 1.1.4 1.4.2.3.5.5 1 .5.4 0 .7-.2 1-.4l.4-1.1v-.4h.7l.1.3a3 3 0 0 1-.6 1.7 2 2 0 0 1-1.6.7zm3.9-3v-2.6c0-1 .2-1.7.6-2.2.4-.5 1-.8 1.7-.8s1.2.3 1.6.8c.5.5.7 1.2.7 2.2v2.7c0 1-.2 1.7-.7 2.2-.4.5-1 .8-1.6.8s-1.3-.3-1.7-.8c-.4-.5-.6-1.2-.6-2.2zm3.7.4v-3.3c0-.6-.1-1.1-.4-1.4-.2-.3-.6-.5-1-.5s-.8.2-1 .5c-.3.3-.4.8-.4 1.4v3.3c0 .6.1 1.1.4 1.4.2.3.5.5 1 .5s.8-.2 1-.5c.3-.3.4-.8.4-1.4zm3.6-5.6v5.6c0 1.2.4 1.9 1.3 1.9.8 0 1.3-.7 1.3-1.9v-5.8l.3-.1h.5v8.4l-.3.1h-.4l-.1-.3v-.4c-.3.5-.8.8-1.4.8-.7 0-1.2-.2-1.6-.7-.4-.5-.6-1.3-.6-2.3v-5.3l.1-.2.3-.1h.5v.3zm6.4-1.8v1.7c0 .2 0 .2.2.2h.5l.1.3v.4l-.3.1h-.3c-.2 0-.2 0-.2.2v5.8c.1.3.3.5.6.5h.3v.7l-.3.1c-.6 0-1-.2-1.2-.7l-.3-1v-5.4c0-.1 0-.2-.2-.2h-.2l-.1-.3v-.4h.3c.1 0 .2-.1.2-.3v-1.9l.3-.1h.5v.3zm2.3 7v-2.6c0-1 .2-1.7.6-2.2.4-.5 1-.8 1.7-.8s1.2.3 1.6.8c.5.5.7 1.2.7 2.2v1l-.1.2h-3.3l-.3.1v1.7c0 .6.1 1.1.4 1.4.2.3.5.5 1 .5.4 0 .7-.2 1-.4l.4-1.1v-.4h.7l.1.3a3 3 0 0 1-.6 1.7 2 2 0 0 1-1.6.7 2 2 0 0 1-1.7-.8c-.4-.5-.6-1.2-.6-2.2zm.9-3v.8h2.7v-.7c0-.6 0-1.1-.3-1.4-.3-.3-.6-.5-1-.5s-.8.2-1 .5c-.3.3-.4.8-.4 1.4zm8.9 8.7v-10.9l.1-.2.3-.1h.5v.6c.3-.4.8-.6 1.4-.7.7 0 1.2.2 1.6.7.4.5.6 1.3.6 2.3v2.7c0 1-.2 1.8-.6 2.3a2 2 0 0 1-1.6.7c-.6 0-1-.3-1.4-.8v3.7h-.8v-.3zm3.6-5.3v-3.3c0-1.2-.5-1.9-1.3-1.9-1 0-1.4.7-1.4 1.9v3.3c0 1.2.5 1.9 1.4 1.9.8 0 1.3-.7 1.3-1.9zm4.9-5.2c-.9 0-1.3.5-1.4 1.5v.4h-.8v-.3c0-.6.2-1.2.5-1.7.4-.4.9-.7 1.6-.7 1.5 0 2.3 1 2.3 3v4.3l.1 1c0 .2 0 .3-.3.3h-.3l-.3-.1-.1-.4c-.4.4-1 .6-1.6.6-.6 0-1.1-.2-1.5-.6s-.6-1-.6-1.7v-.5c0-.5.1-1 .4-1.3.2-.3.5-.6.9-.7l1-.4 1-.5c.3-.2.4-.3.4-.6 0-.4-.1-.8-.4-1-.2-.4-.5-.6-1-.6zm0 7c.5 0 .8-.1 1-.4s.3-.6.3-1.2v-2.5l-.9.3-.8.3c-.8.4-1.2 1-1.1 1.8v.1c0 1.2.5 1.7 1.5 1.7zm7.9-5.8l-.1.2-.3.1h-.1c-.2 0-.3 0-.4-.3 0-.3-.1-.6-.3-.8-.2-.2-.5-.4-.8-.4s-.6.2-.8.4a1 1 0 0 0-.3.8c0 .3 0 .6.3.8l.9.9a45 45 0 0 1 1.8 1.7c.2.3.3.7.3 1.1a2 2 0 0 1-.7 1.6c-.4.4-1 .6-1.5.6-.7 0-1.2-.2-1.6-.7a2 2 0 0 1-.7-1.5v-.3h.5c.2 0 .3 0 .4.3 0 .4.2.7.4 1 .3.2.6.4 1 .4.3 0 .7-.2 1-.4s.3-.6.3-1-.1-.8-.5-1.1a6 6 0 0 0-1.1-1l-1.2-1a2 2 0 0 1-.5-1.4c0-.5.2-1 .6-1.4.4-.4.8-.6 1.4-.6s1 .2 1.3.6.6.8.7 1.4zm5.5 0v.2l-.3.1h-.2c-.2 0-.3 0-.3-.3s-.2-.6-.4-.8c-.2-.2-.5-.4-.8-.4s-.5.2-.8.4a1 1 0 0 0-.3.8c0 .3.1.6.4.8l.8.9a45 45 0 0 1 1.8 1.7c.3.3.4.7.4 1.1a2 2 0 0 1-.7 1.6c-.5.4-1 .6-1.6.6a2 2 0 0 1-1.6-.7c-.4-.4-.6-1-.6-1.5v-.3h.5c.2 0 .3 0 .3.3 0 .4.2.7.5 1 .2.2.5.4.9.4s.7-.2 1-.4.4-.6.4-1-.2-.8-.5-1.1a6 6 0 0 0-1.2-1l-1.1-1a2 2 0 0 1-.6-1.4c0-.5.2-1 .6-1.4.4-.4.9-.6 1.4-.6s1 .2 1.4.6.6.8.6 1.4zm2.2-2.7c-.2 0-.3 0-.4-.2v-.6c0-.2.2-.3.4-.3.3 0 .4.1.5.3v.6c0 .1-.2.2-.5.2zm.5 1.1v8.1l-.3.1h-.5v-8.5l.2-.1h.5v.3zm5.4-.3h.4l.1.3-1.6 7.9-.1.2-.3.1h-.7v-.3l-1.7-8v-.1l.3-.1h.4l.2.3 1.2 6.6h.1l1.3-6.6.1-.2h.1l.2-.1zm1.8 5.5v-2.6c0-1 .2-1.7.6-2.2.4-.5 1-.8 1.6-.8s1.3.3 1.7.8c.4.5.6 1.2.6 2.2v1.2h-3.3l-.3.1v1.7c0 .6 0 1.1.3 1.4.3.3.6.5 1 .5.5 0 .8-.2 1-.4.2-.3.4-.7.4-1.1v-.4h.8v.3c0 .6-.1 1.1-.5 1.7-.4.4-1 .7-1.7.7a2 2 0 0 1-1.6-.8c-.4-.5-.6-1.2-.6-2.2zm.8-3v.8h2.8v-.7c0-.6 0-1.1-.3-1.4-.3-.3-.6-.5-1-.5s-.8.2-1 .5a2 2 0 0 0-.5 1.4zM19.7 500.1l1.2-2.8c0-.1.1-.2.3-.2h.4V509l-.3.1h-.5v-8.3l-.2-.2h-.7c-.2 0-.3-.1-.2-.4zm6.9 4.3v-.2c0-.2 0-.3.2-.3h3c.1 0 .2.1.2.3v.2c0 .2-.1.3-.3.3h-2.9c-.1 0-.2-.1-.2-.3zm9.2-4.6v6.5c0 .6.2 1.1.5 1.4.3.4.7.6 1.2.6s.9-.2 1.2-.6c.3-.3.4-.8.4-1.4v-.2c0-.2.2-.3.4-.3h.2c.2 0 .3.1.3.3 0 1-.2 1.7-.7 2.2s-1 .8-1.8.8-1.4-.3-1.9-.8-.7-1.2-.7-2.1v-6.3c0-1 .3-1.7.7-2.1s1.1-.8 1.9-.8c.8 0 1.4.3 1.8.8s.7 1.2.7 2.1v.1c0 .2 0 .3-.3.3h-.2c-.2 0-.4-.1-.4-.3v-.2c0-.6-.1-1.1-.4-1.4-.3-.4-.7-.6-1.2-.6s-1 .2-1.2.6a2 2 0 0 0-.5 1.4zm5.8 6.2v-2.6c0-1 .2-1.7.7-2.2.4-.5 1-.8 1.6-.8s1.3.3 1.7.8c.4.5.6 1.2.6 2.2v2.7c0 1-.2 1.7-.6 2.2-.4.5-1 .8-1.7.8s-1.2-.3-1.6-.8c-.4-.5-.7-1.2-.7-2.2zm3.7.4v-3.3c0-.6-.1-1.1-.4-1.4-.2-.3-.5-.5-1-.5s-.7.2-1 .5c-.2.3-.4.8-.4 1.4v3.3c0 .6.2 1.1.4 1.4.3.3.6.5 1 .5s.8-.2 1-.5c.3-.3.4-.8.4-1.4zm6.3 2.3V503c0-1.2-.4-1.9-1.3-1.9s-1.3.7-1.3 1.9v5.6l-.1.2-.3.1h-.5v-8.4l.3-.1h.5v.7c.4-.5.8-.8 1.4-.8.7 0 1.2.2 1.6.7.4.5.6 1.3.6 2.3v5.5l-.3.1h-.5v-.3zm6.6-6.3v.2l-.4.1h-.1c-.2 0-.3 0-.3-.3s-.2-.6-.4-.8c-.2-.2-.5-.4-.8-.4s-.6.2-.8.4a1 1 0 0 0-.3.8c0 .3.1.6.3.8l.9.9a45 45 0 0 1 1.8 1.7c.3.3.4.7.3 1.1a2 2 0 0 1-.7 1.6c-.4.4-1 .6-1.5.6-.7 0-1.2-.2-1.6-.7a3 3 0 0 1-.7-1.5l.1-.3h.4c.3 0 .4 0 .4.3 0 .4.2.7.4 1 .3.2.6.4 1 .4s.7-.2 1-.4.4-.6.4-1-.2-.8-.6-1.1a6 6 0 0 0-1.1-1l-1.2-1a2 2 0 0 1-.5-1.4c0-.5.2-1 .6-1.4.4-.4.8-.6 1.4-.6s1 .2 1.4.6.6.8.6 1.4zm2.7-3.4v1.7l.1.2h.6v.7l-.3.1H61l-.1.2v5.8c.1.3.3.5.6.5h.2l.1.3v.4l-.3.1c-.6 0-1-.2-1.2-.7-.2-.3-.2-.6-.3-1v-5.4c0-.1 0-.2-.2-.2h-.2l-.1-.3v-.4h.3c.1 0 .2-.1.2-.3v-1.9l.3-.1h.5v.3zm4.6 2.2c-.8 0-1.3.5-1.4 1.5v.4h-.8v-.3c0-.6.2-1.2.5-1.7.4-.4 1-.7 1.7-.7 1.4 0 2.2 1 2.2 3v4.3l.1 1c0 .2 0 .3-.3.3h-.3l-.3-.1v-.4c-.5.4-1 .6-1.7.6-.6 0-1.1-.2-1.5-.6s-.6-1-.6-1.7v-.5c0-.5.2-1 .4-1.3.3-.3.6-.6 1-.7l1-.4 1-.5c.2-.2.3-.3.3-.6 0-.4-.1-.8-.3-1-.3-.4-.6-.6-1-.6zm0 7c.5 0 .8-.1 1-.4s.3-.6.3-1.2v-2.5l-.8.3-.8.3c-.9.4-1.3 1-1.2 1.8v.1c0 1.2.5 1.7 1.6 1.7zm5-9.2v1.7c0 .2 0 .2.2.2h.6v.7l-.3.1h-.3c-.1 0-.2 0-.2.2v4.5l.1 1.3c0 .3.2.5.5.5h.3v.7l-.3.1c-.6 0-1-.2-1.2-.7l-.2-1v-5.4l-.2-.2h-.3v-.7h.3l.1-.3V499l.1-.2.3-.1h.5v.3z"/><path fill="#FFF" d="M155.3 492.8v6.4c0 .6.1 1.1.4 1.5.3.3.7.5 1.2.5s1-.2 1.2-.5c.3-.4.5-.9.5-1.5v-.2c0-.2.1-.3.3-.3h.2c.3 0 .4.1.4.3v.1c0 1-.3 1.7-.7 2.2-.5.4-1 .7-1.9.7-.8 0-1.4-.3-1.8-.7-.5-.5-.7-1.3-.7-2.2v-6.3c0-1 .2-1.6.7-2.1.4-.5 1-.7 1.8-.7s1.4.2 1.9.7c.4.5.7 1.2.7 2.1v.1c0 .2-.1.3-.4.3h-.2c-.2 0-.3 0-.3-.3v-.1c0-.7-.2-1.2-.5-1.5-.3-.4-.7-.5-1.2-.5s-.9.1-1.2.5c-.3.3-.4.8-.4 1.5zm5.7 6.2v-2.7c0-1 .3-1.7.7-2.2.4-.5 1-.7 1.7-.7s1.2.2 1.6.7c.4.5.6 1.2.6 2.2v2.7c0 1-.2 1.8-.6 2.2s-1 .8-1.6.8-1.3-.3-1.7-.8-.6-1.2-.6-2.2zm3.8.4V496c0-.6-.2-1-.4-1.4-.3-.3-.6-.4-1-.4s-.8.1-1 .4c-.3.3-.4.8-.4 1.4v3.4c0 .6.1 1 .3 1.3.3.3.6.5 1 .5s.8-.2 1-.5c.3-.3.5-.7.5-1.3zm6.2 2.2V496c0-1.2-.4-1.8-1.3-1.8s-1.3.6-1.3 1.8v5.8l-.3.1h-.5v-8.4h.7l.1.3v.3c.3-.5.8-.7 1.4-.7a2 2 0 0 1 1.6.7c.3.5.5 1.2.5 2.2v5.5l-.3.1h-.5v-.3zm6.6-6.3v.3h-.5c-.2 0-.3 0-.3-.3s-.1-.6-.3-.8c-.3-.2-.5-.3-.8-.3s-.6 0-.8.3a1 1 0 0 0-.4.8c0 .3.2.6.4.9l.8.8 1 .7c.3.2.7.6.9 1 .2.4.3.7.3 1.1a2 2 0 0 1-.7 1.6c-.5.4-1 .6-1.6.6-.6 0-1.1-.2-1.6-.6-.4-.5-.6-1-.6-1.6v-.3h.5c.2 0 .3 0 .3.3 0 .4.2.8.5 1 .3.2.6.4 1 .4a1.3 1.3 0 0 0 1.3-1.4c0-.4-.2-.8-.5-1.1a6 6 0 0 0-1.2-1l-1.1-1a2 2 0 0 1-.5-1.4c0-.5.1-1 .5-1.4.4-.4.9-.5 1.4-.5s1 .1 1.4.5.6.8.6 1.4zm2.7-3.3v1.7l.2.1h.3l.3.1v.7h-.6l-.2.2v5.8c.2.3.3.5.6.5h.3v.7l-.3.1c-.6 0-1-.2-1.2-.6l-.2-1v-5.5l-.2-.2h-.3v-.7h.3l.1-.2v-1.8l.1-.2.3-.1h.4l.1.3zm4.7 2.2c-.9 0-1.3.5-1.4 1.4v.4h-.8v-.3c0-.6.1-1.1.5-1.6.3-.5.9-.7 1.6-.7 1.5 0 2.2 1 2.2 3v4.2l.2 1c0 .2 0 .3-.4.3h-.5l-.1-.5c-.4.4-1 .6-1.6.6-.7 0-1.2-.2-1.5-.6s-.6-1-.6-1.7v-.5c0-.5.1-1 .4-1.3.2-.3.5-.5.9-.7l1-.4 1-.4c.3-.1.3-.4.3-.7 0-.4 0-.8-.3-1-.2-.4-.5-.5-1-.5zm0 7c.4 0 .7-.2 1-.5.1-.2.3-.6.3-1.2V497l-.9.3-.8.4c-.8.3-1.2 1-1.1 1.8 0 1.2.5 1.7 1.5 1.7zm5-9.2v1.7l.1.1h.4l.2.1v.7h-.6l-.1.2v5.8c.1.3.3.5.6.5h.3v.7l-.3.1c-.6 0-1-.2-1.2-.6-.2-.3-.2-.7-.3-1v-5.5c0-.1 0-.2-.2-.2h-.2l-.1-.3v-.4h.3l.2-.2v-2l.3-.1h.5v.3zm2.3 7v-2.7c0-1 .2-1.7.6-2.2.4-.5 1-.7 1.7-.7s1.2.2 1.6.7c.4.5.6 1.2.6 2.2v1.2l-.3.1h-3.3v1.8c0 .6 0 1 .3 1.3.3.3.6.5 1 .5.5 0 .8-.2 1-.4.3-.3.4-.7.4-1.1l.1-.3.2-.1h.5v.3c0 .6-.1 1.2-.5 1.7-.3.5-.9.7-1.6.7-.7 0-1.3-.3-1.7-.7s-.6-1.3-.6-2.3zm.9-3v.7h2.8v-.7c0-.6 0-1-.3-1.4-.3-.3-.6-.4-1-.4s-.8.1-1 .4c-.3.3-.4.8-.4 1.4zm7.7-1.6l-.5-.1c-.3 0-.6.2-.7.6l-.1 1.1v5.8l-.3.1h-.5v-8.4h.7l.1.3v.2c.3-.4.8-.6 1.2-.6l.3.1v.9h-.2zm-48.6 28.7h.3v.7l-.3.1c-.6 0-1-.2-1.2-.6l-.2-1v-10.2h.7l.1.3v10.2c.2.3.3.5.6.5zm1.7-2.1v-2.7c0-1 .2-1.7.6-2.2.4-.5 1-.7 1.7-.7s1.3.2 1.7.7c.4.5.6 1.2.6 2.2v1.2l-.4.1H155v1.8c0 .6 0 1 .3 1.3.2.3.6.5 1 .5s.7-.2 1-.4l.4-1.1v-.3l.3-.1h.5v.3c0 .6-.2 1.2-.5 1.7-.4.5-1 .7-1.7.7s-1.3-.3-1.7-.7-.6-1.3-.6-2.3zm1-3v.7h2.7v-.7c0-.6-.1-1-.4-1.4-.2-.3-.6-.4-1-.4s-.8.1-1 .4c-.3.3-.4.8-.4 1.4zm12.4 5.6V518c0-1.2-.4-1.8-1.3-1.8s-1.3.6-1.3 1.8v5.6l-.1.2-.3.1h-.5v-11.8h.8v4c.4-.5.8-.7 1.4-.7.7 0 1.2.2 1.6.7.4.5.6 1.2.6 2.2v5.5l-.3.1h-.5v-.3zm2.6-2.6v-2.7c0-1 .3-1.7.7-2.2.4-.5 1-.7 1.7-.7s1.2.2 1.6.7c.4.5.6 1.2.6 2.2v2.7c0 1-.2 1.8-.6 2.2s-1 .8-1.6.8-1.3-.3-1.7-.8-.6-1.2-.6-2.2zm3.7.4V518c0-.6 0-1-.3-1.4-.3-.3-.6-.4-1-.4s-.8.1-1 .4c-.3.3-.4.8-.4 1.4v3.4c0 .6 0 1 .3 1.3.3.3.6.5 1 .5s.8-.2 1-.5c.3-.3.4-.7.4-1.3zm4.9-5l-.4-.1c-.3 0-.6.2-.7.6l-.1 1.1v5.8l-.4.1h-.4l-.1-.3v-8.1h.8v.5c.4-.4.8-.6 1.3-.6l.3.1v.9h-.3zm5.6.9l-.1.3h-.4c-.2 0-.3 0-.3-.3s-.2-.6-.4-.8c-.2-.2-.5-.3-.8-.3s-.6 0-.8.3a1 1 0 0 0-.3.8c0 .3 0 .6.3.9l.9.8 1 .7.8 1c.2.4.3.7.3 1.1a2 2 0 0 1-.7 1.6c-.4.4-1 .6-1.5.6-.7 0-1.2-.2-1.6-.6-.4-.5-.7-1-.7-1.6v-.3h.5c.2 0 .3 0 .4.3 0 .4.2.8.4 1 .3.2.6.4 1 .4a1.3 1.3 0 0 0 1.3-1.4c0-.4-.1-.8-.5-1.1a6 6 0 0 0-1.1-1l-1.2-1a2 2 0 0 1-.5-1.4c0-.5.2-1 .6-1.4.4-.4.8-.5 1.4-.5s1 .1 1.4.5.5.8.6 1.4zm1.4 2v-.1c0-.3.1-.4.3-.4h2.9c.1 0 .2.1.2.4 0 .3 0 .4-.2.4h-3s-.2 0-.2-.3zm4.4 6.9c.2 0 .4-.2.6-.5l.1-1.3v-8.9h.8l.1.3v7.8l-.1 2.3c-.2.7-.7 1-1.5 1h-.3v-.7h.3zm.7-11.7a.5.5 0 0 1 0-.5c0-.2.1-.4.3-.4l.5.1c.2.2.2.4.2.6-.1.2-.2.3-.4.3l-.6-.1zm2.8 6.5v-2.7c0-1 .2-1.7.6-2.2.4-.5 1-.7 1.6-.7s1.3.2 1.7.7c.4.5.6 1.2.6 2.2v1.2l-.3.1h-3.3v1.8c0 .6 0 1 .3 1.3.3.3.6.5 1 .5.5 0 .8-.2 1-.4.3-.3.4-.7.4-1.1v-.3l.3-.1h.5v.3c0 .6-.1 1.2-.5 1.7s-1 .7-1.7.7-1.2-.3-1.6-.7-.6-1.3-.6-2.3zm.9-3v.7h2.6v-.7c0-.6 0-1-.3-1.4-.3-.3-.6-.4-1-.4s-.8.1-1 .4c-.3.3-.4.8-.4 1.4zm6.3-2.2v5.6c0 1.2.4 1.8 1.3 1.8s1.3-.6 1.3-1.8v-5.6l.1-.3h.8v8.3l-.3.1h-.5v-.6c-.4.4-.8.7-1.4.7-.7 0-1.2-.2-1.6-.7-.4-.5-.6-1.3-.6-2.3v-5.5h.8v.3zm-63.1-165h-3.8l-.1-.3V339h.8v10.7l.1.3h3.3v.7l-.3.1zm3.9-7.8c-.8 0-1.2.6-1.3 1.5v.4h-.8v-.2c0-.7.1-1.2.5-1.7.3-.5.9-.7 1.6-.7 1.5 0 2.2 1 2.2 3v4.2l.2 1c0 .2 0 .3-.4.3h-.5l-.1-.5c-.4.4-1 .6-1.6.6-.7 0-1.2-.2-1.6-.6s-.5-1-.5-1.7v-.5c0-.5.1-1 .4-1.2.2-.4.5-.6.9-.8l1-.4 1-.4c.3-.1.3-.4.3-.7 0-.4 0-.8-.3-1-.2-.4-.6-.5-1-.5zm.1 7c.4 0 .7-.1 1-.4s.2-.6.2-1.2V346l-.8.3-.8.4c-.8.3-1.2 1-1.1 1.8 0 1.2.5 1.7 1.5 1.7zm4.5-8.4c-.2 0-.3-.1-.4-.3v-.6l.4-.2c.2 0 .4 0 .5.2v.6c0 .2-.2.3-.5.3zm.5 1v7.9l-.1.2-.3.1h-.4l-.1-.3v-8.1h.8v.3zm5.8 1.6l-.1.3h-.5c-.1 0-.2 0-.3-.3 0-.3-.1-.6-.3-.8-.3-.2-.5-.3-.8-.3s-.6 0-.8.3a1 1 0 0 0-.3.8c0 .3 0 .6.3.9l.9.8a45 45 0 0 1 1.8 1.7c.2.4.3.7.3 1.1a2 2 0 0 1-.7 1.6c-.4.4-1 .6-1.6.6a2.2 2.2 0 0 1-2.2-2.2v-.3h.5c.2 0 .3 0 .4.3 0 .4.2.8.4 1 .3.3.6.4 1 .4.3 0 .7-.2 1-.4s.3-.6.3-1-.2-.8-.5-1.1a6 6 0 0 0-1.2-1l-1.1-1a2 2 0 0 1-.5-1.4c0-.5.2-1 .6-1.4.3-.4.8-.5 1.3-.5s1 .1 1.4.5.6.8.7 1.4zm5.5 0v.3h-.5c-.2 0-.3 0-.3-.3s-.2-.6-.4-.8c-.2-.2-.5-.3-.8-.3s-.5 0-.8.3a1 1 0 0 0-.3.8l.3.9.9.8a45 45 0 0 1 1.8 1.7c.3.4.4.7.3 1.1a2 2 0 0 1-.6 1.6 2.5 2.5 0 0 1-3.2 0c-.4-.5-.6-1-.7-1.6l.1-.3h.5c.2 0 .3 0 .3.3 0 .4.2.8.5 1 .2.3.5.4.9.4s.7-.2 1-.4.4-.6.4-1-.2-.8-.6-1.1a6 6 0 0 0-1.1-1l-1.2-1a2 2 0 0 1-.5-1.4c0-.5.2-1 .6-1.4.4-.4.8-.5 1.4-.5s1 .1 1.4.5.6.8.6 1.4zm1.6 3.7v-2.7c0-1 .2-1.7.6-2.2.4-.5 1-.7 1.7-.7s1.3.2 1.7.7c.4.5.6 1.2.6 2.2v1l-.1.2-.3.1h-3.2v1.8c0 .6 0 1 .3 1.3.2.3.6.5 1 .5s.7-.2 1-.4l.4-1.1v-.3l.3-.1h.5v.3c0 .6-.2 1.2-.5 1.7-.4.5-1 .7-1.7.7a2 2 0 0 1-1.7-.7c-.4-.5-.6-1.3-.6-2.3zm1-3v.7h2.7v-.7c0-.6-.1-1-.4-1.4-.2-.3-.6-.4-1-.4s-.8.1-1 .4c-.3.3-.4.8-.4 1.4zm7.5-1.6h-.3c-.4 0-.6 0-.8.5v6.7l-.1.2-.3.1h-.5v-8.4h.8v.5c.4-.4.8-.6 1.3-.6l.3.1v.9h-.3zm9 .9v.3h-.5c-.2 0-.3 0-.3-.3s-.1-.6-.3-.8c-.3-.2-.5-.3-.8-.3s-.6 0-.8.3a1 1 0 0 0-.4.8c0 .3.2.6.4.9l.8.8a45 45 0 0 1 1.9 1.7c.2.4.3.7.3 1.1a2 2 0 0 1-.7 1.6 2.5 2.5 0 0 1-3.2 0c-.4-.5-.6-1-.6-1.6v-.3h.5c.2 0 .3 0 .3.3 0 .4.2.8.5 1 .3.3.6.4 1 .4.3 0 .6-.2 1-.4s.3-.6.3-1-.2-.8-.5-1.1a6 6 0 0 0-1.2-1l-1.1-1a2 2 0 0 1-.5-1.4c0-.5.2-1 .5-1.4.4-.4.9-.5 1.4-.5s1 .1 1.4.5.6.8.6 1.4zm1.2-4.7l.2-.4.4-.2c.2 0 .4.1.5.3v.7c0 .3-.2.7-.6 1h-.2c-.1 0-.2-.1-.1-.2l.2-.5s0-.2-.2-.3l-.2-.4zm2.5 8.4v-2.7c0-1 .2-1.7.6-2.2.4-.5 1-.7 1.6-.7s1.3.2 1.7.7c.4.5.6 1.2.6 2.2v1.2l-.3.1h-3.3v1.8c0 .6 0 1 .3 1.3.3.3.6.5 1 .5s.8-.2 1-.4c.2-.3.4-.7.4-1.1v-.3l.3-.1h.5v.3c0 .6-.1 1.2-.5 1.7s-1 .7-1.7.7a2 2 0 0 1-1.6-.7c-.4-.5-.6-1.3-.6-2.3zm.8-3v.7h2.8v-.7c0-.6-.1-1-.3-1.4-.3-.3-.6-.4-1-.4s-.8.1-1 .4a2 2 0 0 0-.5 1.4zm7.3 2.7l-1.2 2.9-.2.3h-.5c-.3 0-.3 0-.2-.3l1.7-4-1.7-3.8c-.1-.3 0-.4.2-.4h.5l.2.4 1.2 2.8 1.2-2.8.2-.3h.5c.3 0 .3 0 .2.3l-1.7 3.9 1.7 3.9c.1.2 0 .3-.2.3h-.5l-.1-.3-1.3-3zm3.5 5.9v-11.1h.8v.6c.4-.5.8-.7 1.4-.7.7 0 1.2.2 1.6.7.4.5.6 1.2.6 2.2v2.7c0 1-.2 1.8-.6 2.3a2 2 0 0 1-1.6.7c-.6 0-1-.3-1.3-.7v3.3l-.1.3h-.8v-.3zm3.5-5.2v-3.4c0-1.2-.4-1.8-1.3-1.8-1 0-1.3.6-1.3 1.8v3.4c0 1.2.4 1.8 1.3 1.8s1.3-.6 1.3-1.8zm4.9-5h-.4c-.4 0-.6 0-.8.5v6.7l-.1.2-.3.1h-.5v-8.4h.8v.5c.4-.4.8-.6 1.3-.6l.3.1v.9h-.3zm2.3-1.7c-.3 0-.4-.1-.5-.3v-.6l.4-.2c.2 0 .4 0 .5.2v.6c0 .2-.2.3-.5.3zm.4 1v7.9l-.1.2-.3.1h-.4l-.1-.3v-8.1h.8v.3zm6.4 2.3v5.8l-.3.1h-.5v-6c0-1.2-.5-1.8-1.4-1.8-.9 0-1.3.6-1.3 1.8v5.8l-.3.1h-.5v-8.4h.7v.6c.4-.5.9-.7 1.5-.7.8 0 1.4.3 1.8 1 .4-.7 1-1 1.7-1s1.2.2 1.6.7c.4.5.6 1.2.6 2.2v5.3l-.1.2-.3.1h-.4l-.1-.3v-5.6c0-1.2-.5-1.8-1.3-1.8-1 0-1.4.6-1.4 1.8zm5.3 3v-2.7c0-1 .3-1.7.7-2.2.4-.5 1-.7 1.6-.7s1.3.2 1.7.7c.4.5.6 1.2.6 2.2v1.2l-.3.1H216v1.8c0 .6 0 1 .3 1.3.3.3.6.5 1 .5s.8-.2 1-.4c.2-.3.4-.7.4-1.1v-.3l.3-.1h.5v.3c0 .6-.2 1.2-.5 1.7-.4.5-1 .7-1.7.7a2 2 0 0 1-1.6-.7c-.4-.5-.7-1.3-.7-2.3zm1-3v.7h2.7v-.7c0-.6-.1-1-.4-1.4-.2-.3-.5-.4-1-.4s-.7.1-1 .4c-.2.3-.4.8-.4 1.4zm7.6-1.6h-.4c-.4 0-.6 0-.7.5l-.1 1.1v5.6l-.1.2-.3.1h-.4l-.1-.3v-8.1h.8v.5c.4-.4.8-.6 1.3-.6l.3.1v.9h-.3zm-75 22.9l-.1.3h-.4c-.2 0-.3 0-.4-.3 0-.3-.1-.6-.3-.8-.2-.2-.5-.3-.8-.3s-.6 0-.8.3a1 1 0 0 0-.3.8c0 .3 0 .6.3.9l.9.8a45 45 0 0 1 1.8 1.7c.2.4.3.7.3 1.1a2 2 0 0 1-.7 1.6c-.4.4-1 .6-1.5.6-.7 0-1.2-.2-1.6-.6-.5-.5-.7-1-.7-1.6v-.3h.5c.2 0 .3 0 .4.3 0 .4.2.8.4 1 .3.3.6.4 1 .4.3 0 .7-.2 1-.4s.3-.6.3-1-.1-.8-.5-1.1a6 6 0 0 0-1.1-1l-1.2-1a2 2 0 0 1-.5-1.4c0-.5.2-1 .6-1.4.3-.4.8-.5 1.4-.5s1 .1 1.3.5.6.8.7 1.4zm3.9-1.2c-.8 0-1.3.6-1.4 1.5v.4h-.7l-.1-.2c0-.7.2-1.2.5-1.7.4-.5 1-.7 1.7-.7 1.5 0 2.2 1 2.2 3v4.2l.1 1c0 .2 0 .3-.3.3h-.5l-.2-.5a2 2 0 0 1-1.5.6c-.7 0-1.2-.2-1.6-.6s-.6-1-.6-1.7v-.5c0-.5.2-1 .4-1.2.3-.4.6-.6 1-.8l1-.4 1-.4c.2-.1.3-.4.3-.7 0-.4-.1-.8-.3-1-.3-.4-.6-.5-1-.5zm0 7c.5 0 .8-.1 1-.4s.3-.6.3-1.2V368l-.8.3-.8.4c-.9.3-1.3 1-1.2 1.8 0 1.2.5 1.7 1.6 1.7zm7.7.5v-5.6c0-1.2-.5-1.8-1.3-1.8-1 0-1.4.6-1.4 1.8v5.8l-.3.1h-.5v-8.4h.8v.6c.4-.5.8-.7 1.4-.7.7 0 1.2.2 1.6.7.4.5.6 1.2.6 2.2v5.3l-.1.2-.3.1h-.4l-.1-.3zm6.6-6.3l-.1.3h-.4c-.2 0-.3 0-.3-.3s-.2-.6-.4-.8c-.2-.2-.5-.3-.8-.3s-.6 0-.8.3a1 1 0 0 0-.3.8c0 .3 0 .6.3.9l.9.8a45 45 0 0 1 1.8 1.7c.2.4.3.7.3 1.1a2 2 0 0 1-.7 1.6c-.4.4-1 .6-1.5.6-.7 0-1.2-.2-1.6-.6-.4-.5-.7-1-.7-1.6v-.3h.5c.2 0 .3 0 .4.3 0 .4.2.8.4 1 .3.3.6.4 1 .4.3 0 .7-.2 1-.4s.3-.6.3-1-.1-.8-.5-1.1a6 6 0 0 0-1.1-1l-1.2-1a2 2 0 0 1-.5-1.4c0-.5.2-1 .6-1.4.4-.4.8-.5 1.4-.5s1 .1 1.4.5.5.8.6 1.4zm7.3-.9h-.4c-.4 0-.6 0-.7.5l-.1 1.1v5.6l-.1.2-.3.1h-.4l-.1-.3v-8.1h.8v.5c.4-.4.8-.6 1.3-.6l.3.1v.9h-.3zm1.3 4.6v-2.7c0-1 .2-1.7.6-2.2.4-.5 1-.7 1.7-.7s1.2.2 1.6.7c.5.5.7 1.2.7 2.2v1l-.1.2-.3.1h-3.3v1.8c0 .6.1 1 .4 1.3.2.3.6.5 1 .5s.7-.2 1-.4l.4-1.1v-.3l.2-.1h.5l.1.3c0 .6-.2 1.2-.6 1.7-.3.5-.9.7-1.6.7a2 2 0 0 1-1.7-.7c-.4-.5-.6-1.3-.6-2.3zm.9-3v.7h2.7v-.7c0-.6 0-1-.3-1.4-.2-.3-.6-.4-1-.4s-.8.1-1 .4c-.3.3-.4.8-.4 1.4zm6.9 5.1h.3v.7l-.3.1c-.6 0-1-.2-1.2-.6l-.2-1V361h.8v9.3l.1 1.2c0 .3.2.5.5.5zm4-7c-.8 0-1.2.6-1.3 1.5v.4h-.8v-.2c0-.7.1-1.2.5-1.7.3-.5.9-.7 1.6-.7 1.5 0 2.2 1 2.2 3v4.2l.2 1c0 .2 0 .3-.4.3h-.5l-.1-.5c-.4.4-1 .6-1.6.6-.6 0-1.2-.2-1.5-.6s-.6-1-.6-1.7v-.5c0-.5.1-1 .4-1.2.2-.4.5-.6.9-.8l1-.4 1-.4c.3-.1.3-.4.3-.7 0-.4 0-.8-.3-1-.2-.4-.5-.5-1-.5zm.1 7c.4 0 .8-.1 1-.4s.3-.6.3-1.2V368l-.9.3-.8.4c-.8.3-1.2 1-1.1 1.8 0 1.2.5 1.7 1.5 1.7zm7.6.5v-5.6c0-1.2-.4-1.8-1.3-1.8s-1.3.6-1.3 1.8v5.8l-.4.1h-.4l-.1-.3v-8.1h.8v.6c.4-.5.9-.7 1.4-.7.7 0 1.3.2 1.6.7.4.5.6 1.2.6 2.2v5.5l-.3.1h-.5v-.3zm5 .4a2 2 0 0 1-1.7-.7c-.4-.5-.6-1.3-.6-2.3v-2.7c0-1 .2-1.7.6-2.2a2 2 0 0 1 1.7-.7c.7 0 1.3.2 1.6.7.4.5.6 1 .6 1.7v.2h-.8v-.4c0-.4-.2-.8-.4-1-.3-.3-.6-.4-1-.4s-.8.1-1 .4c-.3.3-.4.8-.4 1.4v3.4c0 .6.1 1 .4 1.3.2.3.6.5 1 .5s.7-.2 1-.4l.4-1.1v-.3l.2-.1h.6v.3c0 .6-.2 1.2-.6 1.7-.3.5-.9.7-1.6.7zm4-3v-2.7c0-1 .1-1.7.5-2.2.4-.5 1-.7 1.7-.7s1.2.2 1.7.7c.4.5.6 1.2.6 2.2v1l-.1.2-.3.1h-3.3v1.8c0 .6.1 1 .4 1.3.2.3.6.5 1 .5s.7-.2 1-.4l.4-1.1v-.3l.2-.1h.6v.3c0 .6-.2 1.2-.6 1.7-.3.5-.9.7-1.6.7a2 2 0 0 1-1.7-.7c-.4-.5-.6-1.3-.6-2.3zm.8-3v.7h2.7v-.7c0-.6 0-1-.3-1.4-.2-.3-.6-.4-1-.4s-.8.1-1 .4c-.3.3-.4.8-.4 1.4zm7.7-1.6h-.4c-.4 0-.7 0-.8.5v6.7l-.2.2-.2.1h-.5v-8.4h.7l.1.3v.2c.4-.4.8-.6 1.2-.6l.3.1.1.3v.6h-.3z"/><path fill="#009BFF" d="M282.3 487.7h-2.8v-11.1h2.8v11.1zm30.7 14l-22.6 4.7c.3 1.1.3 2.5.3 3.6a16.8 16.8 0 0 1-33 4.5 5.6 5.6 0 0 1-9-4.5 5.6 5.6 0 0 1 9-4.4c2-7 8.4-12.3 16.2-12.3h2.8v5.6h8.4v-5.6h27.8v8.4zm-55.8 8.3c0-1.6-1.1-2.7-2.8-2.7-1.6 0-2.8 1-2.8 2.7 0 1.7 1.2 2.8 2.8 2.8 1.7 0 2.8-1 2.8-2.8zm53-13.9h-22.3v5.6h-14V496c-.8 0-2 0-2.7.3A14 14 0 0 0 260 510c0 7.8 6.1 14 14 14 7.7 0 13.9-6.2 13.9-14 0-2-.3-3.9-1.1-5.5l23.4-5V496zm-14-15.1l-2.4-1.5-6 9.5 2.4 1.4 6-9.4zm-22.4 8l-5.9-9.5-2.3 1.5 5.9 9.4 2.3-1.4z"/><g fill="#009BFF"><path d="M276.3 198.4c-1.5-.7-5.5-2.3-10.3-2.3a20.2 20.2 0 0 0-4.6.5l-.2-.1v-.1a.2.2 0 0 1 .1-.2c1.5-.4 3.1-.6 4.8-.6a24.7 24.7 0 0 1 10.4 2.5v.2l-.2.1zm0 3.6a24.7 24.7 0 0 0-15-1.8v-.1l-.1-.1v-.2h.1c1.5-.4 3.1-.6 4.8-.6a24.7 24.7 0 0 1 10.4 2.5v.2l-.2.1zm0 3.4c-1.5-.7-5.5-2.3-10.3-2.3a20.2 20.2 0 0 0-4.6.5l-.2-.1v-.3h.1a24.7 24.7 0 0 1 15.2 2v.1l-.2.1zm0 3.7a25 25 0 0 0-10.3-2.3 20.2 20.2 0 0 0-4.6.5l-.2-.1v-.1a.2.2 0 0 1 .1-.2 24.6 24.6 0 0 1 15.2 2v.1l-.2.1zm0 3.4a25 25 0 0 0-10.3-2.3 20.2 20.2 0 0 0-4.6.5l-.2-.1v-.2l.1-.1a24.7 24.7 0 0 1 15.2 2v.2h-.2zm0 3.5c-1.5-.6-5.5-2.3-10.3-2.3a20.2 20.2 0 0 0-4.6.6l-.2-.2v-.2h.1a24.7 24.7 0 0 1 15.2 2c0-.1 0 0 0 0l-.2.2zm0 3.6c-1.5-.7-5.5-2.3-10.3-2.3-1.6 0-3.1.1-4.6.5l-.2-.1v-.3h.1c1.5-.4 3.1-.6 4.8-.6a24.7 24.7 0 0 1 10.4 2.5v.2l-.2.1zm9.2-21.2h-.2v-.4a24.7 24.7 0 0 1 15.2-1.8l.1.2-.2.2a24.9 24.9 0 0 0-15 1.8zm0 3.6h-.2v-.4a24.7 24.7 0 0 1 15.2-1.8l.1.2a.2.2 0 0 1-.2.2 24.7 24.7 0 0 0-15 1.8zm0 3.4h-.2v-.4a24.7 24.7 0 0 1 15.2-1.9v.1l.1.2-.2.2a24.9 24.9 0 0 0-15 1.8zm0 3.7a.2.2 0 0 1-.2 0v-.4a24.6 24.6 0 0 1 15.2-1.8l.1.2a.2.2 0 0 1-.2.2 24.8 24.8 0 0 0-15 1.8zm0 3.4h-.2v-.3a24.7 24.7 0 0 1 15.2-2v.2l.1.1v.1l-.2.1a24.8 24.8 0 0 0-15 1.8zm0 3.5h-.2v-.3a24.7 24.7 0 0 1 15.2-1.9v.1l.1.1v.1l-.2.2c-1.5-.4-3-.6-4.6-.6a25 25 0 0 0-10.3 2.4zm0 3.6h-.2v-.4a24.8 24.8 0 0 1 15.2-1.8l.1.2-.2.2a25 25 0 0 0-15 1.8z"/><path stroke="#009BFF" stroke-miterlimit="10" stroke-width=".8" d="M307.8 193.3a4 4 0 0 0-2-1.1.4.4 0 0 1-.4-.4v-2.4c0-.3-.2-.6-.5-.7-1.4-.5-5-1.5-9.2-1.5a21.7 21.7 0 0 0-14.8 5.2l-.3-.1c-4-3.4-8.8-5.1-14.5-5.1a30 30 0 0 0-9.2 1.5c-.3 0-.5.4-.5.7v2.4c0 .2-.2.3-.4.4a4 4 0 0 0-2 1.1 1 1 0 0 0-.3.8v32.8a.5.5 0 0 0 .6.4c2.5-1 7.2-2.7 11-2.7a50.5 50.5 0 0 1 12.6 2.5v.2c0 .1.5.8 3 .8s3-.7 3-.8a.4.4 0 0 1 .3-.4c2.9-1 8.6-2.3 12.4-2.3a33.5 33.5 0 0 1 11 2.7h.4V194a1 1 0 0 0-.2-.8zm-27.2 30.3a.4.4 0 0 1-.6.4 44 44 0 0 0-15.2-3.2 19 19 0 0 0-7.3 1.2h-.2a.4.4 0 0 1-.2-.4v-32c0-.1.1-.3.3-.3a28 28 0 0 1 8.7-1.4 23.1 23.1 0 0 1 14.4 5l.1.4v30.3zm24-2v.4h-.5a19 19 0 0 0-7-1.2 44 44 0 0 0-15.7 3.2.4.4 0 0 1-.2-.4v-30.3l.1-.3a23.1 23.1 0 0 1 14.4-5 26 26 0 0 1 8.7 1.3c.2 0 .3.2.3.4v32z"/></g></svg>