<svg xmlns="http://www.w3.org/2000/svg" xmlns:xlink="http://www.w3.org/1999/xlink" viewBox="0 0 320 568"><path fill="#6F00FF" d="M19.5 38.4c.6 0 1.1-.2 1.4-.6l.3-.6.1-1.7V22l.1-.4.5-.1h1.6l.5.1v13.8c0 2-.3 3.5-1 4.3S21.2 41 19.5 41c-.2 0-.3 0-.4-.2l-.1-.4V39l.1-.4.4-.1zM34.2 41h-5.8c-.2 0-.4 0-.5-.2V21.7l.5-.1h5.8l.4.1.2.4v1.5c0 .2 0 .4-.2.5h-3.4c-.3 0-.5.1-.5.2l-.1.4v4.7h3.6c.2 0 .4 0 .4.2l.2.4v1.5c0 .2 0 .3-.2.4l-.4.1h-3l-.5.1-.1.5v5.7h3.6l.4.2.2.4v1.5c0 .2 0 .4-.2.4l-.4.2zm11.4-19.4h3.3c1.3 0 2.4.4 3.2 1.3s1.2 2.2 1.2 4v8.8c0 1.7-.4 3-1.2 4S50.2 41 49 41h-3.3c-.2 0-.4 0-.5-.2V21.7l.5-.1zm2.2 3.1v13.6H49c.5 0 .9-.1 1.2-.4s.5-.9.5-1.5V26.2c0-.7-.2-1.2-.5-1.5-.3-.4-.7-.5-1.2-.5h-1l-.1.5zm17.7 2v9.1c0 1.7-.4 3-1.2 4-.8.8-1.9 1.3-3.2 1.3s-2.4-.5-3.2-1.4c-.8-.9-1.2-2.2-1.2-3.9v-9c0-1.8.4-3 1.2-4 .8-.9 1.9-1.3 3.2-1.3s2.4.4 3.2 1.3a6 6 0 0 1 1.2 4zm-2.7 9.8V26c0-.8-.3-1.4-.8-1.8a2 2 0 0 0-1.8 0c-.6.4-.8 1-.8 1.8v10.5c0 .9.2 1.5.8 1.8.6.4 1.2.4 1.8 0 .5-.3.8-1 .8-1.8zm9.1-14.4v18.3l-.1.4-.5.2h-1.6c-.2 0-.4 0-.4-.2l-.2-.4V22.1c0-.2 0-.3.2-.4l.4-.1h1.6l.5.1.1.4zM79.5 41c-1.3 0-2.4-.4-3.2-1.2-.9-1-1.3-2-1.3-3.3l.1-.4.5-.2h1.6c.4 0 .6.2.6.7 0 .6.1 1 .4 1.4.3.4.7.5 1.3.5.4 0 .8-.1 1.1-.4s.5-.7.6-1.2c.2-1.1-.4-2.5-1.8-4a21 21 0 0 1-1.2-1.4l-.5-.7-.6-.8-.5-.8a51.2 51.2 0 0 0-1.1-2.5l-.2-.9a4 4 0 0 1 4.1-4.3 4 4 0 0 1 4 3.7v.7l-.6.1H81l-.2-.5c0-.5 0-.9-.3-1.1-.3-.3-.6-.4-1-.4-.5 0-.9.2-1.1.6a2 2 0 0 0-.2 1.2c0 .7.4 1.5 1 2.3.5.9 1.1 1.7 1.8 2.4s1.3 1.6 1.9 2.6c.6 1 1 2 1 3 .2 1.3-.1 2.4-1 3.5-.8 1-2 1.5-3.3 1.5zm14.8-19.4h3.3c1.3 0 2.4.4 3.2 1.3s1.2 2.2 1.2 4v8.8c0 1.7-.4 3-1.2 4S98.9 41 97.6 41h-3.3c-.2 0-.4 0-.5-.2V21.7l.5-.1zm2.2 3.1v13.6h1.1c.5 0 .9-.1 1.2-.4s.4-.9.4-1.5V26.2c0-.7-.1-1.2-.4-1.5-.3-.4-.7-.5-1.2-.5h-1.1v.5zM112 41h-5.8c-.2 0-.4 0-.5-.2V21.7l.5-.1h5.8l.5.1v2.4H109c-.3 0-.5.1-.5.2l-.1.4v4.7h3.6c.2 0 .4 0 .5.2v2.3l-.5.1h-3l-.5.1-.1.5v5.7h3.6l.5.2v2.3l-.5.2zm-2.5-20.4h-1c-.2 0-.3 0-.3-.3v-2.7c0-.2 0-.4.2-.4l.4-.2h1.6c.5 0 .6.3.4.8L110 20l-.2.4-.3.1zM122.6 41h-5.9c-.2 0-.3 0-.4-.2l-.1-.4V22.1l.1-.4.4-.1h1.7l.4.1.1.4v15.7l.1.5h3.5c.3 0 .4.1.5.2l.1.4v1.9l-.5.2zm9.8 0h-5.8c-.2 0-.4 0-.4-.2l-.2-.4V22.1c0-.2 0-.3.2-.4l.4-.1h5.8l.5.1.1.4v1.5l-.1.5h-3.5c-.3 0-.5.1-.5.2v5.1h3.5c.2 0 .4 0 .5.2l.1.4v1.5l-.1.4-.5.1h-3l-.5.1v6.2h3.5l.5.2.1.4v1.5l-.1.4-.5.2zM130 20.6h-1c-.2 0-.3 0-.3-.3v-2.7c0-.2 0-.4.2-.4l.4-.2h1.7c.4 0 .5.3.3.8l-.8 2.3c0 .3-.1.4-.2.4l-.3.1zm9 5.4v10.5c0 .9.3 1.5.9 1.8.6.4 1.1.4 1.7 0 .6-.3.9-1 .8-1.8v-4.4h-.8c-.2 0-.3 0-.4-.2l-.1-.4V30l.1-.4.4-.2h3c.2 0 .4 0 .5.2v6.2c0 1.6-.3 3-1 3.9a4 4 0 0 1-3.3 1.4c-1.4 0-2.4-.5-3.3-1.4-.8-.9-1.2-2.2-1.2-3.9v-9c0-1.8.4-3 1.2-4 .9-.9 2-1.3 3.3-1.3 1.2 0 2.2.4 3 1.1.8.8 1.2 2 1.4 3.4 0 .5-.2.8-.6.8H143c-.2 0-.4 0-.5-.2V26a2 2 0 0 0-.9-1.8c-.6-.3-1.1-.3-1.7 0-.6.4-.9 1-.8 1.8zm15.7 10.5V22.1c0-.2 0-.3.2-.4l.4-.1h1.7l.4.1.1.4v13.7c0 1.7-.4 3-1.2 4-.8.8-1.9 1.3-3.2 1.3-1.3 0-2.4-.5-3.2-1.4-.8-.9-1.2-2.2-1.2-3.9V21.7l.5-.1h1.7l.4.1.1.4v14.4c0 .9.2 1.5.8 1.8.6.4 1.2.4 1.8 0 .5-.3.8-1 .7-1.8zm13 4.5h-5.9c-.2 0-.3 0-.4-.2l-.1-.4V21.7l.5-.1h5.9l.4.1.1.4v1.5l-.1.5h-3.5c-.3 0-.5.1-.5.2v5.1h3.5c.3 0 .4 0 .5.2l.1.4v1.5l-.1.4-.4.1h-3.1l-.5.1v6.2h3.5c.3 0 .4.1.5.2l.1.4v1.5l-.1.4-.4.2zm4.7-19.4h3.6c1.3 0 2.3.4 3 1.3.8.8 1.1 2 1.1 3.8v1c0 2.1-.5 3.6-1.7 4.4l1.7 8.3c.1.4 0 .6-.3.6h-2.1l-.2-.2v-.2L176 33c0-.2-.1-.2-.3-.2h-1l-.1.5v7l-.1.4-.5.2h-1.6c-.2 0-.4 0-.5-.2v-19l.5-.1zM176 24h-1.3l-.1.6v5.7l.5.1h.9c.9 0 1.4-.6 1.4-2V26c0-1.3-.5-2-1.4-2zm20.4 12.5V21.7l.5-.1h1.7l.4.1.1.4v13.7c0 1.7-.4 3-1.2 4-.8.8-1.9 1.3-3.2 1.3-1.3 0-2.4-.5-3.2-1.4-.8-.9-1.2-2.2-1.2-3.9V21.7l.5-.1h1.7l.4.1.1.4v14.4c0 .9.2 1.5.8 1.8.6.4 1.2.4 1.8 0 .6-.3.8-1 .8-1.8zm14.9 4.5h-1.2c-.3 0-.5-.1-.6-.4L206 30.3l-.1-.1c-.1-.1 0 0-.1 0v10.2c0 .2 0 .4-.2.4l-.4.2h-1.7c-.2 0-.3 0-.4-.2l-.1-.4V22.1l.1-.4.4-.1h1.3c.3 0 .5.1.5.3l3.7 10.4c.1.1.1.1.2 0V22l.1-.4.5-.1h1.6l.5.1v19.2l-.5.2zm10.9 0h-5.9c-.2 0-.3 0-.4-.2l-.1-.4V21.7l.5-.1h5.9l.4.1.1.4v1.5l-.1.5H219c-.3 0-.5.1-.5.2v5.1h3.5c.3 0 .4 0 .5.2l.1.4v1.5l-.1.4-.4.1H219l-.5.1v6.2h3.5c.3 0 .4.1.5.2l.1.4v1.5l-.1.4-.4.2zm16.6 0h-.6a.7.7 0 0 1-.6-.4l-1.7-7.1-.1-.1v7l-.2.4-.4.2h-1.7c-.2 0-.3 0-.4-.2l-.1-.4V21.7l.5-.1h1.3c.3 0 .4 0 .5.3l3.1 13 .1.2.1-.1 3.2-13c0-.3.2-.4.5-.4h1.3l.4.1.1.4v18.3l-.1.4-.4.2h-1.7c-.2 0-.4 0-.4-.2l-.2-.4v-7h-.1l-1.7 7.2c-.1.2-.3.4-.7.4zm12-18.9v18.3c0 .2 0 .4-.2.4l-.4.2h-1.7c-.2 0-.3 0-.4-.2l-.1-.4V22.1l.1-.4.4-.1h1.7l.4.1.2.4zm7.5 18.9c-1.3 0-2.3-.4-3.2-1.2a5 5 0 0 1-1.2-3.3l.1-.4c0-.1.2-.2.5-.2h1.6c.3 0 .5.2.5.7 0 .6.2 1 .5 1.4.3.4.7.5 1.2.5s.9-.1 1.2-.4.5-.7.5-1.2c.2-1.1-.4-2.5-1.7-4a21 21 0 0 1-1.2-1.4l-.6-.7-.6-.8c0-.2-.2-.4-.5-.8a51.2 51.2 0 0 0-1.1-2.5l-.1-.9a4 4 0 0 1 4-4.3 4 4 0 0 1 4 3.7v.7l-.5.1h-2l-.1-.5c0-.5-.1-.9-.4-1.1-.2-.3-.5-.4-1-.4s-.8.2-1 .6a2 2 0 0 0-.3 1.2 5 5 0 0 0 1 2.3l1.8 2.4c.7.7 1.4 1.6 2 2.6.6 1 1 2 1 3 .2 1.3-.2 2.4-1 3.5-.9 1-2 1.5-3.4 1.5zm11.3 0c-1.3 0-2.3-.4-3.2-1.2-.8-1-1.3-2-1.2-3.3v-.4l.5-.2h1.7c.3 0 .5.2.5.7 0 .6.2 1 .5 1.4.2.4.7.5 1.2.5s.9-.1 1.2-.4.5-.7.5-1.2c.2-1.1-.4-2.5-1.8-4a21 21 0 0 1-1.1-1.4l-.6-.7-.6-.8-.5-.8a51.2 51.2 0 0 0-1.1-2.5l-.1-.9a4 4 0 0 1 4-4.3 4 4 0 0 1 4 3.7v.7l-.5.1h-2l-.1-.5c0-.5-.1-.9-.4-1.1-.2-.3-.5-.4-1-.4s-.8.2-1 .6a2 2 0 0 0-.3 1.2c0 .7.4 1.5 1 2.3.5.9 1.2 1.7 1.8 2.4.7.7 1.3 1.6 2 2.6.5 1 .9 2 1 3 .2 1.3-.2 2.4-1 3.5-.9 1-2 1.5-3.4 1.5zM280 22.1v18.3c0 .2 0 .4-.2.4l-.4.2h-1.7c-.2 0-.3 0-.4-.2l-.1-.4V22.1l.1-.4.4-.1h1.7l.4.1.2.4zm12.4 4.6v9.1c0 1.7-.4 3-1.2 4-.8.8-1.9 1.3-3.2 1.3s-2.4-.5-3.2-1.4c-.8-.9-1.2-2.2-1.2-3.9v-9c0-1.8.4-3 1.2-4 .8-.9 1.9-1.3 3.2-1.3s2.4.4 3.2 1.3a6 6 0 0 1 1.2 4zm-2.7 9.8V26c0-.8-.2-1.4-.8-1.8a2 2 0 0 0-1.8 0c-.6.4-.8 1-.8 1.8v10.5c0 .9.2 1.5.8 1.8.6.4 1.2.4 1.8 0 .6-.3.8-1 .8-1.8zm14.8 4.5h-1.3c-.3 0-.4-.1-.5-.4L299 30.3v-.1c0-.1-.1 0-.2 0v10.2l-.1.4c-.1.1-.2.2-.5.2h-1.6c-.2 0-.4 0-.4-.2l-.2-.4V22.1c0-.2 0-.3.2-.4l.4-.1h1.2c.3 0 .5.1.6.3l3.6 10.4h.1c0 .1.1.1.1 0V22l.2-.4.4-.1h1.7l.4.1.1.4v18.7l-.5.2z"/><defs><path id="a" d="M25.6 290.1l-.1-.2v-.1c0-.3.2-.5.4-.8v.3l-.1.3v.3l-.1.3h-.1z"/></defs><clipPath id="b"><use overflow="visible" xlink:href="#a"/></clipPath><path fill="#232323" d="M63 258.4l8.6 5.6a24.6 24.6 0 0 0-10.4-3.8 29 29 0 0 0-21.7 6.4 36.3 36.3 0 0 0-11.6 41.6 27 27 0 0 0 5.7 8.2c2.3 2.3 5.2 4.2 8.3 5.4l-9.5-3.7a25 25 0 0 1-8.5-5.6 27.5 27.5 0 0 1-5.8-8.4 31.7 31.7 0 0 1-2.5-10.3A39 39 0 0 1 30 261.3c3.2-2.5 6.8-4.4 10.5-5.6a28 28 0 0 1 17.4.2 24.5 24.5 0 0 1 5 2.5" clip-path="url(#b)"/><defs><path id="c" d="M27.7 307.6a23.7 23.7 0 0 0 1.2 2.6l-9.8-4a15 15 0 0 1-.8-1.6l-.2-.5 1.6.4-1.6-.4v-.1l-.1-.2v-.1l-.1-.1 5.7 2.3-3.6-.8 2.5.6.9.2h.2l4 1.7z"/></defs><clipPath id="d"><use overflow="visible" xlink:href="#c"/></clipPath><path fill="#232323" d="M63 258.4l8.6 5.6a24.6 24.6 0 0 0-10.4-3.8 29 29 0 0 0-21.7 6.4 36.3 36.3 0 0 0-11.6 41.6 27 27 0 0 0 5.7 8.2c2.3 2.3 5.2 4.2 8.3 5.4l-9.5-3.7a25 25 0 0 1-8.5-5.6 27.5 27.5 0 0 1-5.8-8.4 31.7 31.7 0 0 1-2.5-10.3A39 39 0 0 1 30 261.3c3.2-2.5 6.8-4.4 10.5-5.6a28 28 0 0 1 17.4.2 24.5 24.5 0 0 1 5 2.5" clip-path="url(#d)"/><defs><path id="e" d="M42 321.8l-6-2.3-2-.8a24.6 24.6 0 0 1-13.2-9.7l-1.7-2.8 9.8 4a27 27 0 0 0 9 9.6c1.3.8 2.6 1.5 4 2z"/></defs><clipPath id="f"><use overflow="visible" xlink:href="#e"/></clipPath><path fill="#232323" d="M63 258.4l8.6 5.6a24.6 24.6 0 0 0-10.4-3.8 29 29 0 0 0-21.7 6.4 36.3 36.3 0 0 0-11.6 41.6 27 27 0 0 0 5.7 8.2c2.3 2.3 5.2 4.2 8.3 5.4l-9.5-3.7a25 25 0 0 1-8.5-5.6 27.5 27.5 0 0 1-5.8-8.4 31.7 31.7 0 0 1-2.5-10.3A39 39 0 0 1 30 261.3c3.2-2.5 6.8-4.4 10.5-5.6a28 28 0 0 1 17.4.2 24.5 24.5 0 0 1 5 2.5" clip-path="url(#f)"/><defs><path id="g" d="M27.7 307.6l-9.8-4a23.5 23.5 0 0 1-.8-2.2v-.2l-.1-.1v-.1l-.1-.2 1.3.6-1.3-.6a28.9 28.9 0 0 1-1.4-7.3l3.5 1.6-3.5-1.6a34.7 34.7 0 0 1 2-14.4l3.8 1.9 1.2.6-1.2-.6-3.8-1.9a38.9 38.9 0 0 1 13.8-18.7c3.1-2.2 6.5-4 10-5a27.8 27.8 0 0 1 19.2 1.6c.9.4 1.7 1 2.4 1.4l8.7 5.6a24.7 24.7 0 0 0-10.4-3.8 27 27 0 0 0-11.3 1 32 32 0 0 0-10.1 5.2A36.2 36.2 0 0 0 26.5 286l.4-2.2-.4 2.2v.5l-.1.2v.2l-.2.5-.1.5-.1.5-.1.5-.5.8c-.2-.5-.4-1.3-.7-1.7l-.4-.6-1-.7-.6-.2-1.1-.2-1.9.1c-1 .2-1.3.2-1.8.1h1.8l1.9-.2c.3 0 .8 0 1.1.2.2 0 .4 0 .6.2l1 .7.4.6c.3.4.5 1.2.7 1.7v.1l.2.2-3.4-1.6 3.4 1.6v.2a34.8 34.8 0 0 0 .7 13.3c.4 1.4.8 2.8 1.4 4zM25.4 290l-.2-.1H25l-.2-.2h-.2l-.2-.1-.2-.1h-.1l-.2-.2h-.2l-.2-.1-.2-.1-.2-.1h-.2l-.2-.2h-.2l-.1-.1h.1l.2.1.2.1.2.1h.2l.2.2h.2l.2.1.2.1.1.1h.2l.2.2h.2l.2.1h.2l.2.2m-8.5-3.5l-.1.1v.2l-.2.1v.2l-.1.1-.1.2-.1.1-.1.2v.1l-.2.2v.1l-.1.2v.1l-.2.2v.1l-.1.2v-.2l.1-.1.1-.2v-.1l.2-.2v-.1l.1-.2.1-.1v-.2l.2-.1v-.2l.1-.1.1-.2.1-.1v-.2l.2-.1m-1 2.5l.3.1.2.2h.3l.2.2.3.1.3.1.3.2.2.1.3.1.3.1.2.2h.3l.3.2.2.1.3.1.2.1h-.2l-.3-.2h-.2l-.3-.2-.3-.1-.2-.2h-.3l-.3-.2-.2-.1-.3-.2h-.3l-.3-.2-.2-.1-.3-.1-.2-.2h-.3m4.3 1.9l.2.1.3.2.3.1.3.2.3.1.3.1.3.2.3.1.3.2.2.1.3.2.3.1.3.2.3.1.3.1.2.2-.2-.2h-.3l-.3-.2-.3-.2-.3-.1-.2-.2-.3-.1-.3-.2-.3-.1-.3-.2-.3-.1-.3-.1-.3-.2-.3-.1-.3-.2-.2-.1m4.5 2.3v.4l-.1.2v.1l-.1.1v.4l-.1.2v.6l-.1.1v.1-.7l.1-.1v-.5l.1-.1v-.3l.1-.2v-.3l.1-.1m-.4 2.4l-.3-.2h-.3l-.3-.2-.4-.1-.3-.2h-.3l-.3-.2-.4-.1-.3-.2-.4-.1-.3-.2h-.3l-.3-.2-.4-.1-.3-.2h-.3.3l.3.2h.4l.3.2.3.1.3.2.4.1.3.2h.4l.3.2.3.1.3.2.4.1.3.1.3.1.3.2m-2.5-.9v.1h-.1v.2h-.1v.1l-.1.1-.2.2v.1h-.1v.1H21v.1h.1v-.1l.1-.1.1-.1.1-.1v-.1h.1v-.2h.1v-.1h.1v-.2h.1v.1l-.2-.1-.2-.1h-.1l-.2-.2h-.2l-.2-.1-.2-.1-.2-.1h-.1l-.2-.2h-.2l-.2-.1-.2-.1h-.1l-.2-.2h-.2.2l.2.1h.1l.2.2h.2l.2.1.2.1.1.1h.2l.2.2h.2l.2.1.2.1h.1l.2.2h.2"/></defs><clipPath id="h"><use overflow="visible" xlink:href="#g"/></clipPath><path fill="#232323" d="M63 258.4l8.6 5.6a24.6 24.6 0 0 0-10.4-3.8 29 29 0 0 0-21.7 6.4 36.3 36.3 0 0 0-11.6 41.6 27 27 0 0 0 5.7 8.2c2.3 2.3 5.2 4.2 8.3 5.4l-9.5-3.7a25 25 0 0 1-8.5-5.6 27.5 27.5 0 0 1-5.8-8.4 31.7 31.7 0 0 1-2.5-10.3A39 39 0 0 1 30 261.3c3.2-2.5 6.8-4.4 10.5-5.6a28 28 0 0 1 17.4.2 24.5 24.5 0 0 1 5 2.5" clip-path="url(#h)"/><defs><path id="i" d="M37.6 308.8a18.5 18.5 0 0 0 6.8 5l-9.4-4a18 18 0 0 1-6.7-4.8l.5.2.6.3-.6-.3-.5-.2a20 20 0 0 1-4.6-8.6 24.1 24.1 0 0 1-.6-9.6 28 28 0 0 1 4.4-12.3 25.9 25.9 0 0 1 14.2-10.9 20.6 20.6 0 0 1 14.3.9l1.7.9 8.8 5.4a18.4 18.4 0 0 0-7.2-2.6 22 22 0 0 0-16.2 4.7 26.9 26.9 0 0 0-9.7 27.8 70 70 0 0 0-1.8-2.6 10 10 0 0 0-3.4-2.7l-2.2-.8 2.2.8a8.6 8.6 0 0 1 3.4 2.7 14.7 14.7 0 0 1 1.8 2.6 21.9 21.9 0 0 0 4.2 8l-2-.8 2 .9zm-3.3-1.4l-.3-.1-.3-.1-.3-.2h-.3l-.3-.2-.3-.1-.3-.1-.4-.2-.3-.1-.3-.1-.3-.1-.3-.2h-.3l-.3-.2-.3-.1-.3-.1h.3l.3.2.3.1.3.1.3.2h.3l.3.2.3.1.4.2h.3l.3.2.3.1.3.1.3.2h.3l.3.2"/></defs><clipPath id="j"><use overflow="visible" xlink:href="#i"/></clipPath><path fill="#3A3A3A" d="M57.7 265.4l8.7 5.4a18.5 18.5 0 0 0-7-2.6 22.3 22.3 0 0 0-16.3 4.7 26.9 26.9 0 0 0-8.7 30.7 20 20 0 0 0 4 6c1.7 1.8 3.8 3.2 6 4.1l-9.4-4c-2.4-1-4.4-2.3-6.1-4.1a23.6 23.6 0 0 1-6-13.8 28.9 28.9 0 0 1 10.8-24.1c2.5-1.8 5.2-3.2 8-4.1a20.6 20.6 0 0 1 14.3.9l1.7.9" clip-path="url(#j)"/><defs><path id="k" d="M40.3 289.3a17 17 0 0 0-.4 5.2 13.2 13.2 0 0 0 3.7 8.6c1 1.1 2.3 2 3.7 2.7l-9.3-4.2a12 12 0 0 1-3.9-2.8c-1-1.1-2-2.5-2.6-4a17.6 17.6 0 0 1-.7-10.3l1.2.6 8.3 4.2z"/></defs><clipPath id="l"><use overflow="visible" xlink:href="#k"/></clipPath><path fill="#232323" d="M52.8 272.6l8.9 5.1a12 12 0 0 0-4.3-1.4c-1.9-.3-3.8-.1-5.6.4A17.6 17.6 0 0 0 41 299.3c.7 1.4 1.5 2.7 2.6 3.8 1 1.1 2.3 2 3.7 2.7l-9.3-4.2c-1.5-.7-2.8-1.6-3.9-2.8-1-1.1-2-2.5-2.6-4a17.6 17.6 0 0 1-.7-10.3 18.9 18.9 0 0 1 6.7-10.2 16 16 0 0 1 5.2-2.7 13.4 13.4 0 0 1 9 .5l1 .5" clip-path="url(#l)"/><defs><path id="m" d="M57.4 276.3c-1.9-.3-3.8-.1-5.6.4a17.6 17.6 0 0 0-11.5 12.6l-4.6-2.4-4.8-2.3a18.9 18.9 0 0 1 6.6-10.3 16 16 0 0 1 5.2-2.7 13.4 13.4 0 0 1 9 .5l1 .5 9 5.1a11.6 11.6 0 0 0-4.3-1.4zm-15.6 2.2h.1l.1-.1h.1v-.1h.1l.1-.1h.1-.2v.1H42v.1h-.1m-1.8-1.6h.2l.1.2h.2l.1.1.2.1h.1l.2.2h.1l.2.2h.1l.2.1.1.1h.2l.1.2h.2l.1.1h-.1l-.2-.1-.1-.1h-.2l-.1-.2h-.2l-.1-.1-.2-.1-.1-.1-.2-.1-.2-.2h-.1l-.2-.1-.1-.1H40m0 0v.1l-.1.1v.1h-.1v.2l.2.1.1.1h.1l.2.1.1.1h.2l.1.2h.1l.2.1h.1l.2.1v.1h.2l.1.1.2.1h-.2v-.1h-.2l-.1-.2h-.2l-.1-.1h-.2l-.1-.1-.1-.1h-.2l-.1-.2h-.2v-.1H40l-.1-.1-.2-.1v-.1h.1v-.1h.1v-.2h.1v-.1m-7.4 5.2l-.1.2-.1.1-.1.2-.1.1-.1.2-.1.1-.1.2-.1.1v.2l-.2.2v.1l-.2.2v.2l-.1.1-.1.2v.1l.5.3.5.2.6.3.5.3.6.3.6.3.6.2.6.3.6.3.6.3.5.3.6.3.6.2.5.3.5.3.5.2-.5-.2-.5-.3-.5-.3-.6-.2-.6-.3-.5-.3-.6-.3-.6-.3-.6-.3-.6-.2-.6-.3-.6-.3-.5-.3-.6-.3-.5-.2-.6-.3.1-.1v-.2l.2-.1v-.2l.1-.2.1-.1.1-.2.1-.2.1-.1v-.2l.2-.1v-.2l.2-.1v-.2l.2-.1v-.2l.6.3.5.2.5.3.6.3.5.2.6.3.6.3.5.2.6.3.6.3.5.2.5.3.6.2.5.3.5.2.5.3-.5-.3-.5-.2-.5-.3-.6-.2-.5-.3-.5-.2-.6-.3-.6-.3-.5-.2-.6-.3-.6-.3-.5-.2-.6-.3-.5-.3-.5-.2-.5-.3m8.6 4.2v.1l-.2.2v.1l-.1.2v.2l-.2.2v.1l-.1.2v.2l-.1.2-.1.2v.2l-.1.1v.2l-.1.2v.2-.6l.1-.1.1-.2v-.2l.1-.2.1-.2v-.2l.1-.1.1-.2v-.2l.2-.2v-.1l.1-.2v-.1"/></defs><clipPath id="n"><use overflow="visible" xlink:href="#m"/></clipPath><path fill="#232323" d="M52.8 272.6l8.9 5.1a12 12 0 0 0-4.3-1.4c-1.9-.3-3.8-.1-5.6.4A17.6 17.6 0 0 0 41 299.3c.7 1.4 1.5 2.7 2.6 3.8 1 1.1 2.3 2 3.7 2.7l-9.3-4.2c-1.5-.7-2.8-1.6-3.9-2.8-1-1.1-2-2.5-2.6-4a17.6 17.6 0 0 1-.7-10.3 18.9 18.9 0 0 1 6.7-10.2 16 16 0 0 1 5.2-2.7 13.4 13.4 0 0 1 9 .5l1 .5" clip-path="url(#n)"/><defs><path id="o" d="M48.3 280l9 5a6 6 0 0 0-1.8-.7c-.9-.1-1.8 0-2.6.2-.8.3-1.7.7-2.4 1.2a8.1 8.1 0 0 0-3 4.7 8 8 0 0 0-.2 2.4c0 .8.2 1.5.5 2.2.3.7.7 1.3 1.1 1.8.5.5 1 1 1.7 1.2l-.4-.2-8.8-4.2a6 6 0 0 1-1.8-1.3l-1.1-1.9a8.1 8.1 0 0 1-.3-4.7 8.8 8.8 0 0 1 3.1-4.8c.8-.6 1.6-1 2.4-1.3a6.2 6.2 0 0 1 4.6.5z"/></defs><clipPath id="p"><use overflow="visible" xlink:href="#o"/></clipPath><path fill="#3A3A3A" d="M48.3 280l9 5a6 6 0 0 0-1.8-.7c-.9-.1-1.8 0-2.6.2-.8.3-1.7.7-2.4 1.2a8.1 8.1 0 0 0-3 4.7 8 8 0 0 0-.2 2.4c0 .8.2 1.5.5 2.2.3.7.7 1.3 1.1 1.8.5.5 1 1 1.7 1.2l-9.2-4.4a6 6 0 0 1-1.8-1.3l-1.1-1.9a8.1 8.1 0 0 1-.3-4.7 8.8 8.8 0 0 1 3.1-4.8c.8-.6 1.6-1 2.4-1.3a6.2 6.2 0 0 1 4.6.5" clip-path="url(#p)"/><defs><path id="q" d="M28 315.8c3 1.6 5.5 2.7 8.4 3.9l-4-1.6a25.2 25.2 0 0 1-4.5-2.3z"/></defs><clipPath id="r"><use overflow="visible" xlink:href="#q"/></clipPath><path fill="#232323" d="M63 258.4l8.6 5.6a24.6 24.6 0 0 0-10.4-3.8 29 29 0 0 0-21.7 6.4 36.3 36.3 0 0 0-11.6 41.6 27 27 0 0 0 5.7 8.2c2.3 2.3 5.2 4.2 8.3 5.4l-9.5-3.7a25 25 0 0 1-8.5-5.6 27.5 27.5 0 0 1-5.8-8.4 31.7 31.7 0 0 1-2.5-10.3A39 39 0 0 1 30 261.3c3.2-2.5 6.8-4.4 10.5-5.6a28 28 0 0 1 17.4.2 24.5 24.5 0 0 1 5 2.5" clip-path="url(#r)"/><defs><path id="s" d="M48.3 280l9 5c.6.3 1.2.7 1.6 1.2a4 4 0 0 1 1 1.8c.3.6.5 1.4.6 2.1a8 8 0 0 1-1.4 5c-.5.9-1.2 1.5-2 2.1a6.2 6.2 0 0 1-6.6.9l-9.1-4.5a5.5 5.5 0 0 0 1.5.5 8 8 0 0 0 2.7-.2c.9-.2 1.7-.7 2.5-1.2a8.5 8.5 0 0 0 3.1-5 8.2 8.2 0 0 0-.2-4.5c-.3-.7-.7-1.3-1.1-1.8-.5-.6-1-1-1.6-1.3z"/></defs><clipPath id="t"><use overflow="visible" xlink:href="#s"/></clipPath><path fill="#232323" d="M48.3 280l9 5c.6.3 1.2.7 1.6 1.2a4 4 0 0 1 1 1.8c.3.6.5 1.4.6 2.1a8 8 0 0 1-1.4 5c-.5.9-1.2 1.5-2 2.1a6.2 6.2 0 0 1-6.6.9l-9.1-4.5a5.5 5.5 0 0 0 1.5.5 8 8 0 0 0 2.7-.2c.9-.2 1.7-.7 2.5-1.2a8.5 8.5 0 0 0 3.1-5 8.2 8.2 0 0 0-.2-4.5c-.3-.7-.7-1.3-1.1-1.8-.5-.6-1-1-1.6-1.3" clip-path="url(#t)"/><radialGradient id="u" cx="44.7" cy="286.8" r="24.2" gradientUnits="userSpaceOnUse"><stop offset="0" stop-color="#5dc1f9"/><stop offset="1" stop-color="#06a4ea"/></radialGradient><path fill="url(#u)" d="M46.4 279.4a5.7 5.7 0 0 1 4.1 2.9 7 7 0 0 1 1 2.5c0 1 0 2-.3 3s-.6 2-1.2 2.8c-.5.8-1.2 1.5-2 2a6.3 6.3 0 0 1-5.2 1.4 5.6 5.6 0 0 1-4-2.8 8 8 0 0 1-.7-5.5 8.8 8.8 0 0 1 3.2-4.8c.8-.6 1.6-1 2.4-1.3 1-.2 1.8-.3 2.7-.2z"/><defs><path id="v" d="M52.8 272.6l8.9 5.1a12 12 0 0 1 3.2 2.8c1 1 1.7 2.3 2.2 3.7a17 17 0 0 1 .6 9.4 18 18 0 0 1-6.6 10.3c-1.6 1.2-3.4 2-5.2 2.5a13 13 0 0 1-8.6-.6l-9.3-4.2a11.3 11.3 0 0 0 2.9.9 14.1 14.1 0 0 0 11.1-3 18.2 18.2 0 0 0 7-10.5c.4-1.8.5-3.5.4-5.1 0-1.7-.4-3.2-1-4.7a12.3 12.3 0 0 0-5.5-6.6z"/></defs><clipPath id="w"><use overflow="visible" xlink:href="#v"/></clipPath><path fill="#3A3A3A" d="M52.8 272.6l8.9 5.1a12 12 0 0 1 3.2 2.8c1 1 1.7 2.3 2.2 3.7a17 17 0 0 1 .6 9.4 18 18 0 0 1-6.6 10.3c-1.6 1.2-3.4 2-5.2 2.5a13 13 0 0 1-8.6-.6l-9.3-4.2a11.3 11.3 0 0 0 2.9.9 14.1 14.1 0 0 0 11.1-3 18.2 18.2 0 0 0 7-10.5c.4-1.8.5-3.5.4-5.1 0-1.7-.4-3.2-1-4.7a12.3 12.3 0 0 0-5.5-6.6" clip-path="url(#w)"/><path fill="#EDEDED" d="M48.4 271.1a12 12 0 0 1 9 6c.9 1.6 1.5 3.5 1.8 5.5a18.9 18.9 0 0 1-7.2 17 14.2 14.2 0 0 1-11.1 2.9 12 12 0 0 1-8.7-6.3c-.9-1.6-1.5-3.5-1.7-5.4a18.9 18.9 0 0 1 7-16.5 16 16 0 0 1 5.2-2.7c1.8-.6 3.8-.7 5.7-.5zm-5.5 23a8 8 0 0 0 2.7-.2c.9-.2 1.7-.7 2.5-1.2a8.5 8.5 0 0 0 3.1-5 7 7 0 0 0-.7-5.5 5.7 5.7 0 0 0-4.1-2.8c-.9-.1-1.8 0-2.7.2a8.5 8.5 0 0 0-5.6 6 8 8 0 0 0 0 3c0 1 .3 1.8.7 2.6a5.6 5.6 0 0 0 4 2.9"/><defs><path id="x" d="M57.7 265.4l8.7 5.4c1.9 1 3.5 2.5 4.8 4.1 1.4 1.7 2.5 3.6 3.3 5.7a26 26 0 0 1 .8 14.2A27.7 27.7 0 0 1 65 310.7a23.5 23.5 0 0 1-8 3.8 20 20 0 0 1-12.6-.8l-9.4-4a20 20 0 0 0 3.9 1.2 22.4 22.4 0 0 0 17.1-4.4 27.9 27.9 0 0 0 10.6-16.3 27 27 0 0 0-.8-14.7 21 21 0 0 0-3.3-5.8c-1.3-1.7-3-3.2-4.8-4.3z"/></defs><clipPath id="y"><use overflow="visible" xlink:href="#x"/></clipPath><path fill="#232323" d="M57.7 265.4l8.7 5.4c1.9 1 3.5 2.5 4.8 4.1 1.4 1.7 2.5 3.6 3.3 5.7a26 26 0 0 1 .8 14.2A27.7 27.7 0 0 1 65 310.7a23.5 23.5 0 0 1-8 3.8 20 20 0 0 1-12.6-.8l-9.4-4a20 20 0 0 0 3.9 1.2 22.4 22.4 0 0 0 17.1-4.4 27.9 27.9 0 0 0 10.6-16.3 27 27 0 0 0-.8-14.7 21 21 0 0 0-3.3-5.8c-1.3-1.7-3-3.2-4.8-4.3" clip-path="url(#y)"/><defs><path id="z" d="M63 258.4a3673 3673 0 0 0 8.6 5.6 25 25 0 0 1 6.1 5.6 31.3 31.3 0 0 1 6 16.6A37.2 37.2 0 0 1 69 317.5c-3.3 2.5-7 4.2-10.8 5.2a26.8 26.8 0 0 1-16.2-.9 15783.7 15783.7 0 0 0-6.2-2.6l1.2.2c4 .8 8 .6 12-.4s7.7-3 11.1-5.4a37.6 37.6 0 0 0 14.5-22.2 36.3 36.3 0 0 0-1-19.4c-1-2.9-2.5-5.5-4.3-7.8a25.7 25.7 0 0 0-6.3-5.8z"/></defs><clipPath id="A"><use overflow="visible" xlink:href="#z"/></clipPath><path fill="#3A3A3A" d="M63 258.4l8.6 5.6a25 25 0 0 1 6.1 5.6 31.3 31.3 0 0 1 6 16.6A37.2 37.2 0 0 1 69 317.5c-3.3 2.5-7 4.2-10.8 5.2a26.8 26.8 0 0 1-16.2-.9l-9.5-3.7a23.3 23.3 0 0 0 4.5 1.3c4 .8 8 .6 12-.4s7.7-3 11.1-5.4a37.6 37.6 0 0 0 14.5-22.2 36.3 36.3 0 0 0-1-19.4c-1-2.9-2.5-5.5-4.3-7.8a25.7 25.7 0 0 0-6.3-5.8" clip-path="url(#A)"/><path fill="#EDEDED" d="M52.4 254.6A25 25 0 0 1 71 266.7a35.4 35.4 0 0 1 3.5 24.7A38.8 38.8 0 0 1 60 313.6a32.7 32.7 0 0 1-11 5.4c-4 1-8 1.2-12 .4a24.8 24.8 0 0 1-18-13.2 31 31 0 0 1-3.4-11.2A39 39 0 0 1 30 261.3c3.2-2.5 6.8-4.4 10.5-5.6a28 28 0 0 1 11.8-1.1zm-13.5 56.3a22.4 22.4 0 0 0 17.1-4.4 27.9 27.9 0 0 0 10.6-16.3c.8-3.4 1-6.7.5-9.8-.5-3.1-1.5-6-3-8.4a18.5 18.5 0 0 0-13.7-9.1c-3-.4-6-.2-8.7.7-2.8.9-5.5 2.3-8 4.1A28 28 0 0 0 23 293c.4 3 1.3 5.8 2.6 8.3a19.6 19.6 0 0 0 13.3 9.7"/><radialGradient id="B" cx="46" cy="287.4" r="51.4" gradientTransform="matrix(1 0 0 1.0642 0 -18.4)" gradientUnits="userSpaceOnUse"><stop offset="0" stop-color="#5dc1f9"/><stop offset="1" stop-color="#06a4ea"/></radialGradient><path fill="url(#B)" d="M54.6 245.4a32.3 32.3 0 0 1 24.2 15.4 39 39 0 0 1 5.4 14.7 50 50 0 0 1-19.5 46.1 42 42 0 0 1-14.6 7 35.3 35.3 0 0 1-15.5.4 32.1 32.1 0 0 1-22.8-17.3 40 40 0 0 1-4.3-14.4A50.2 50.2 0 0 1 26 254.1a43 43 0 0 1 13.5-7.2c4.8-1.5 10-2.1 15-1.5zm-17.7 74c4 .8 8 .6 12-.4s7.7-3 11.1-5.4a37.6 37.6 0 0 0 14.5-22.2c1-4.6 1.2-9.1.6-13.3-.7-4.2-2-8-4.1-11.4a25 25 0 0 0-18.6-12.1 29.4 29.4 0 0 0-22.3 6.7A37.8 37.8 0 0 0 15.7 295a31 31 0 0 0 3.4 11.2 24.8 24.8 0 0 0 17.7 13.2"/><radialGradient id="C" cx="45.1" cy="288.7" r="43.2" gradientUnits="userSpaceOnUse"><stop offset="0" stop-color="#5dc1f9"/><stop offset="1" stop-color="#06a4ea"/></radialGradient><path fill="url(#C)" d="M50.4 262.8A18.5 18.5 0 0 1 64 272c1.5 2.4 2.5 5.3 3 8.4a28.8 28.8 0 0 1-11 26.1 24.2 24.2 0 0 1-8.3 4c-3 .8-6 1-9 .4a18.4 18.4 0 0 1-13.2-9.7 22.9 22.9 0 0 1-2.6-8.3 28.9 28.9 0 0 1 10.7-25.2c2.5-1.8 5.2-3.2 8-4.1 2.8-.9 5.7-1.1 8.7-.8zm-9.5 39.7a14.1 14.1 0 0 0 11.1-3 18.2 18.2 0 0 0 7.2-16.9c-.3-2-1-3.9-1.9-5.5a12 12 0 0 0-9-6c-1.8-.3-3.8 0-5.6.5a16 16 0 0 0-5.2 2.7 18.2 18.2 0 0 0-7 16.5 13.7 13.7 0 0 0 5.3 9.5 12 12 0 0 0 5.1 2.2"/><defs><path id="D" d="M69.3 250.9l8.5 5.8a33 33 0 0 1 12.7 17c1.3 3.5 2 7.3 2.3 11.3a48.1 48.1 0 0 1-19.3 40.4 40.9 40.9 0 0 1-14.2 6.6 34.6 34.6 0 0 1-19.6-.8l-9.7-3.5a31.2 31.2 0 0 0 4.6 1.3c5.1 1 10.4.8 15.5-.5a42 42 0 0 0 14.6-6.9 48.4 48.4 0 0 0 18.7-28.8 47 47 0 0 0-1-24.6 37 37 0 0 0-13-17.3z"/></defs><clipPath id="E"><use overflow="visible" xlink:href="#D"/></clipPath><path fill="#056F99" d="M69.3 250.9l8.5 5.8a33 33 0 0 1 12.7 17c1.3 3.5 2 7.3 2.3 11.3a48.1 48.1 0 0 1-19.3 40.4 40.9 40.9 0 0 1-14.2 6.6 34.6 34.6 0 0 1-19.6-.8l-9.7-3.5a31.2 31.2 0 0 0 4.6 1.3c5.1 1 10.4.8 15.5-.5a42 42 0 0 0 14.6-6.9 48.4 48.4 0 0 0 18.7-28.8 47 47 0 0 0-1-24.6 37 37 0 0 0-13-17.3" clip-path="url(#E)"/><defs><path id="F" d="M25.6 290.1l-.1-.2v-.1c0-.3.2-.5.4-.8v.3l-.1.3v.3l-.1.3h-.1z"/></defs><clipPath id="G"><use overflow="visible" xlink:href="#F"/></clipPath><path fill="#232323" d="M63 258.4l8.6 5.6a24.9 24.9 0 0 0-10.4-3.8 29 29 0 0 0-21.7 6.4 36.3 36.3 0 0 0-11.6 41.6 27 27 0 0 0 5.7 8.2c2.3 2.3 5.2 4.2 8.3 5.4l-9.5-3.7a25 25 0 0 1-8.5-5.6 27.5 27.5 0 0 1-5.8-8.4 31.7 31.7 0 0 1-2.5-10.3A39 39 0 0 1 30 261.3c3.2-2.5 6.8-4.4 10.5-5.6a28 28 0 0 1 17.4.2 24.5 24.5 0 0 1 5 2.5" clip-path="url(#G)"/><defs><path id="H" d="M27.7 307.6a23.7 23.7 0 0 0 1.2 2.6l-9.8-4a15 15 0 0 1-.8-1.6l-.2-.5 1.6.4-1.6-.4v-.1l-.1-.2v-.1l-.1-.1 5.7 2.3-3.6-.8 2.5.6.9.2h.2l4 1.7z"/></defs><clipPath id="I"><use overflow="visible" xlink:href="#H"/></clipPath><path fill="#232323" d="M63 258.4l8.6 5.6a24.9 24.9 0 0 0-10.4-3.8 29 29 0 0 0-21.7 6.4 36.3 36.3 0 0 0-11.6 41.6 27 27 0 0 0 5.7 8.2c2.3 2.3 5.2 4.2 8.3 5.4l-9.5-3.7a25 25 0 0 1-8.5-5.6 27.5 27.5 0 0 1-5.8-8.4 31.7 31.7 0 0 1-2.5-10.3A39 39 0 0 1 30 261.3c3.2-2.5 6.8-4.4 10.5-5.6a28 28 0 0 1 17.4.2 24.5 24.5 0 0 1 5 2.5" clip-path="url(#I)"/><defs><path id="J" d="M42 321.8l-6-2.3-2-.8a24.8 24.8 0 0 1-15-12.6l10 4a27 27 0 0 0 9 9.7c1.2.8 2.5 1.5 4 2z"/></defs><clipPath id="K"><use overflow="visible" xlink:href="#J"/></clipPath><path fill="#232323" d="M63 258.4l8.6 5.6a24.9 24.9 0 0 0-10.4-3.8 29 29 0 0 0-21.7 6.4 36.3 36.3 0 0 0-11.6 41.6 27 27 0 0 0 5.7 8.2c2.3 2.3 5.2 4.2 8.3 5.4l-9.5-3.7a25 25 0 0 1-8.5-5.6 27.5 27.5 0 0 1-5.8-8.4 31.7 31.7 0 0 1-2.5-10.3A39 39 0 0 1 30 261.3c3.2-2.5 6.8-4.4 10.5-5.6a28 28 0 0 1 17.4.2 24.5 24.5 0 0 1 5 2.5" clip-path="url(#K)"/><defs><path id="L" d="M27.7 307.6l-9.8-4-.2-.6-.3-.5-.1-.6-.2-.5v-.2l-.1-.1v-.1l-.1-.2a1217.7 1217.7 0 0 1 1.3.6l-1.3-.6a29.6 29.6 0 0 1-1.4-7.3l3.5 1.6-3.5-1.6a34.2 34.2 0 0 1 2-14.4l3.8 1.9 1.2.6-1.2-.6-3.8-1.9a38.8 38.8 0 0 1 13.8-18.7c3.1-2.2 6.5-4 10-5a27.8 27.8 0 0 1 19.2 1.6c.9.4 1.7 1 2.4 1.4l8.7 5.6a24.9 24.9 0 0 0-10.4-3.8 27 27 0 0 0-11.3 1 32 32 0 0 0-10.1 5.2A36.2 36.2 0 0 0 26.5 286l.4-2.2-.4 2.2v.5l-.1.2v.2l-.2.5-.1.5-.1.5-.1.5-.5.8c-.2-.5-.4-1.3-.7-1.7l-.4-.6-1-.7-.6-.2-1.1-.2-1.9.1c-1 .2-1.3.2-1.8.1h1.8l1.9-.2c.3 0 .8 0 1.1.2.2 0 .4 0 .6.2l1 .7.4.6c.3.4.5 1.2.7 1.7l.1.1v.2l-3.3-1.6 3.4 1.6v.2a34.8 34.8 0 0 0 .7 13.3c.4 1.4.8 2.8 1.4 4zM25.4 290l-.2-.1H25l-.2-.2h-.2l-.2-.1-.2-.1h-.1l-.2-.2h-.2l-.2-.1-.2-.1-.2-.1h-.2l-.2-.2h-.2l-.1-.1h.1l.2.1.2.1.2.1h.2l.2.2h.2l.2.1.2.1.1.1h.2l.2.2h.2l.2.1h.2l.2.2m-8.5-3.5l-.1.1v.2l-.2.1v.2l-.1.1-.1.2-.1.1-.1.2v.1l-.2.2v.1l-.1.2v.1l-.2.2v.1l-.1.2v-.2l.1-.1.1-.2v-.1l.2-.2v-.1l.1-.2.1-.1v-.2l.2-.1v-.2l.1-.1.1-.2.1-.1v-.2l.2-.1m-1 2.5l.3.1.2.2h.3l.2.2.3.1.3.1.3.2.2.1.3.1.3.1.2.2h.3l.3.2.2.1.3.1.2.1h-.2l-.3-.2h-.2l-.3-.2-.3-.1-.2-.2h-.3l-.3-.2-.2-.1-.3-.2h-.3l-.3-.2-.2-.1-.3-.1-.2-.2h-.3m4.3 1.9l.2.1.3.2.3.1.3.2.3.1.3.1.3.2.3.1.3.2.2.1.3.2.3.1.3.2.3.1.3.1.2.2-.2-.2h-.3l-.3-.2-.3-.2-.3-.1-.2-.2-.3-.1-.3-.2-.3-.1-.3-.2-.3-.1-.3-.1-.3-.2-.3-.1-.3-.2-.2-.1m4.5 2.3v.4l-.1.2v.1l-.1.1v.4l-.1.2v.6l-.1.1v.1-.7l.1-.1v-.5l.1-.1v-.3l.1-.2v-.3l.1-.1m-.4 2.4l-.3-.2h-.3l-.3-.2-.4-.1-.3-.2h-.3l-.3-.2-.4-.1-.3-.2-.4-.1-.3-.2h-.3l-.3-.2-.4-.1-.3-.2h-.3.3l.3.2h.4l.3.2.3.1.3.2.4.1.3.2h.4l.3.2.3.1.3.2.4.1.3.1.3.1.3.2m-2.5-.9v.1h-.1v.2h-.1v.1l-.1.1-.2.2v.1h-.1v.1H21v.1h.1v-.1l.1-.1.1-.1.1-.1v-.1h.1v-.2h.1v-.1h.1v-.2h.1v.1l-.2-.1-.2-.1h-.1l-.2-.2h-.2l-.2-.1-.2-.1-.2-.1h-.1l-.2-.2h-.2l-.2-.1-.2-.1h-.1l-.2-.2h-.2.2l.2.1h.1l.2.2h.2l.2.1.2.1.1.1h.2l.2.2h.2l.2.1.2.1h.1l.2.2h.2"/></defs><clipPath id="M"><use overflow="visible" xlink:href="#L"/></clipPath><path fill="#232323" d="M63 258.4l8.6 5.6a24.9 24.9 0 0 0-10.4-3.8 29 29 0 0 0-21.7 6.4 36.3 36.3 0 0 0-11.6 41.6 27 27 0 0 0 5.7 8.2c2.3 2.3 5.2 4.2 8.3 5.4l-9.5-3.7a25 25 0 0 1-8.5-5.6 27.5 27.5 0 0 1-5.8-8.4 31.7 31.7 0 0 1-2.5-10.3A39 39 0 0 1 30 261.3c3.2-2.5 6.8-4.4 10.5-5.6a28 28 0 0 1 17.4.2 24.5 24.5 0 0 1 5 2.5" clip-path="url(#M)"/><defs><path id="N" d="M37.6 308.8a18.5 18.5 0 0 0 6.8 5l-9.4-4a18 18 0 0 1-6.7-4.8l.5.2.6.3-.6-.3-.5-.2a20 20 0 0 1-4.6-8.6 23.8 23.8 0 0 1-.6-9.6 28 28 0 0 1 4.4-12.3 25.9 25.9 0 0 1 14.2-10.9 20.6 20.6 0 0 1 14.3.9l1.7.9 8.8 5.4a18.4 18.4 0 0 0-7.2-2.6 22 22 0 0 0-16.2 4.7 26.9 26.9 0 0 0-9.7 27.8 70 70 0 0 0-1.8-2.6 10 10 0 0 0-3.4-2.7l-2.2-.8 2.2.8a8.6 8.6 0 0 1 3.4 2.7 14.7 14.7 0 0 1 1.8 2.6 21.9 21.9 0 0 0 4.2 8l-2-.8 2 .9zm-3.3-1.4l-.3-.1-.3-.1-.3-.2h-.3l-.3-.2-.3-.1-.3-.1-.4-.2-.3-.1-.3-.1-.3-.1-.3-.2h-.3l-.3-.2-.3-.1-.3-.1h.3l.3.2.3.1.3.1.3.2h.3l.3.2.3.1.4.2h.3l.3.2.3.1.3.1.3.2h.3l.3.2"/></defs><clipPath id="O"><use overflow="visible" xlink:href="#N"/></clipPath><path fill="#3A3A3A" d="M57.7 265.4l8.7 5.4a18.5 18.5 0 0 0-7-2.6 22.3 22.3 0 0 0-16.3 4.7 26.9 26.9 0 0 0-8.7 30.7 20 20 0 0 0 4 6c1.7 1.8 3.8 3.2 6 4.1l-9.4-4c-2.4-1-4.4-2.3-6.1-4.1a23.6 23.6 0 0 1-6-13.8 28.9 28.9 0 0 1 10.8-24.1c2.5-1.8 5.2-3.2 8-4.1a20.6 20.6 0 0 1 14.3.9l1.7.9" clip-path="url(#O)"/><defs><path id="P" d="M40.3 289.3a17 17 0 0 0-.4 5.2 15 15 0 0 0 1.1 4.7 12.3 12.3 0 0 0 6.3 6.6l-9.3-4.2a12 12 0 0 1-3.9-2.8c-1-1.1-2-2.5-2.6-4a17.5 17.5 0 0 1-.7-10.3l1.2.6 8.3 4.2z"/></defs><clipPath id="Q"><use overflow="visible" xlink:href="#P"/></clipPath><path fill="#232323" d="M52.8 272.6l8.9 5.1a12 12 0 0 0-4.3-1.4c-1.9-.3-3.8-.1-5.6.4A17.5 17.5 0 0 0 41 299.3c.7 1.4 1.5 2.7 2.6 3.8 1 1.1 2.3 2 3.7 2.7l-9.3-4.2c-1.5-.7-2.8-1.6-3.9-2.8-1-1.1-2-2.5-2.6-4a17.5 17.5 0 0 1-.7-10.3 18.8 18.8 0 0 1 6.7-10.2 16 16 0 0 1 5.2-2.7 13.4 13.4 0 0 1 9 .5l1 .5" clip-path="url(#Q)"/><defs><path id="R" d="M57.4 276.3c-1.9-.3-3.8-.1-5.6.4a17.5 17.5 0 0 0-11.5 12.6l-4.6-2.4-4.8-2.3a18.8 18.8 0 0 1 6.6-10.3 16 16 0 0 1 5.2-2.7 13.4 13.4 0 0 1 9 .5l1 .5 9 5.1a11.7 11.7 0 0 0-4.3-1.4zm-15.6 2.2h.1l.1-.1h.1v-.1h.1l.1-.1h.1-.2v.1H42v.1h-.1m-1.8-1.6h.2l.1.2h.2l.1.1.2.1h.1l.2.2h.1l.2.2h.1l.2.1.1.1h.2l.1.2h.2l.1.1h-.1l-.2-.1-.1-.1h-.2l-.1-.2h-.2l-.1-.1-.2-.1-.1-.1-.2-.1-.2-.2h-.1l-.2-.1-.1-.1H40m0 0v.1l-.1.1v.1h-.1v.2l.2.1.1.1h.1l.2.1.1.1h.2l.1.2h.1l.2.1h.1l.2.1v.1h.2l.1.1.2.1h-.2v-.1h-.2l-.1-.2h-.2l-.1-.1h-.2l-.1-.1-.1-.1h-.2l-.1-.2h-.2v-.1H40l-.1-.1-.2-.1v-.1h.1v-.1h.1v-.2h.1v-.1m-7.4 5.2l-.1.2-.1.1-.1.2-.1.1-.1.2-.1.1-.1.2-.1.1v.2l-.2.2v.1l-.2.2v.2l-.1.1-.1.2v.1l.5.3.5.2.6.3.5.3.6.3.6.3.6.2.6.3.6.3.6.3.5.3.6.3.6.2.5.3.5.3.5.2-.5-.2-.5-.3-.5-.3-.6-.2-.6-.3-.5-.3-.6-.3-.6-.3-.6-.3-.6-.2-.6-.3-.6-.3-.5-.3-.6-.3-.5-.2-.6-.3.1-.1v-.2l.2-.1v-.2l.1-.2.1-.1.1-.2.1-.2.1-.1v-.2l.2-.1v-.2l.2-.1v-.2l.2-.1v-.2l.6.3.5.2.5.3.6.3.5.2.6.3.6.3.5.2.6.3.6.3.5.2.5.3.6.2.5.3.5.2.5.3-.5-.3-.5-.2-.5-.3-.6-.2-.5-.3-.5-.2-.6-.3-.6-.3-.5-.2-.6-.3-.6-.3-.5-.2-.6-.3-.5-.3-.5-.2-.5-.3m8.6 4.2v.1l-.2.2v.1l-.1.2v.2l-.2.2v.1l-.1.2v.2l-.1.2-.1.2v.2l-.1.1v.2l-.1.2v.2-.6l.1-.1.1-.2v-.2l.1-.2.1-.2v-.2l.1-.1.1-.2v-.2l.2-.2v-.1l.1-.2v-.1"/></defs><clipPath id="S"><use overflow="visible" xlink:href="#R"/></clipPath><path fill="#232323" d="M52.8 272.6l8.9 5.1a12 12 0 0 0-4.3-1.4c-1.9-.3-3.8-.1-5.6.4A17.5 17.5 0 0 0 41 299.3c.7 1.4 1.5 2.7 2.6 3.8 1 1.1 2.3 2 3.7 2.7l-9.3-4.2c-1.5-.7-2.8-1.6-3.9-2.8-1-1.1-2-2.5-2.6-4a17.5 17.5 0 0 1-.7-10.3 18.8 18.8 0 0 1 6.7-10.2 16 16 0 0 1 5.2-2.7 13.4 13.4 0 0 1 9 .5l1 .5" clip-path="url(#S)"/><defs><path id="T" d="M48.3 280l9 5a6 6 0 0 0-1.8-.7c-.9-.1-1.8 0-2.6.2-.8.3-1.7.7-2.4 1.2a8.1 8.1 0 0 0-3 4.7 8 8 0 0 0-.2 2.4c0 .8.2 1.5.5 2.2.3.7.7 1.3 1.1 1.8.5.5 1 1 1.7 1.2l-.4-.2-8.8-4.2a6 6 0 0 1-1.8-1.3l-1.1-1.9a8.1 8.1 0 0 1-.3-4.7 8.8 8.8 0 0 1 3.1-4.8c.8-.6 1.6-1 2.4-1.3a6.2 6.2 0 0 1 4.2.2l.4.3z"/></defs><clipPath id="U"><use overflow="visible" xlink:href="#T"/></clipPath><path fill="#3A3A3A" d="M48.3 280l9 5a6 6 0 0 0-1.8-.7c-.9-.1-1.8 0-2.6.2-.8.3-1.7.7-2.4 1.2a8.1 8.1 0 0 0-3 4.7 8 8 0 0 0-.2 2.4c0 .8.2 1.5.5 2.2.3.7.7 1.3 1.1 1.8.5.5 1 1 1.7 1.2l-9.2-4.4a6 6 0 0 1-1.8-1.3l-1.1-1.9a8.1 8.1 0 0 1-.3-4.7 8.8 8.8 0 0 1 3.1-4.8c.8-.6 1.6-1 2.4-1.3a6.2 6.2 0 0 1 4.2.2l.4.3" clip-path="url(#U)"/><defs><path id="V" d="M28 315.8a90 90 0 0 0 8.4 3.9l-4-1.6a25.2 25.2 0 0 1-4.5-2.3z"/></defs><clipPath id="W"><use overflow="visible" xlink:href="#V"/></clipPath><path fill="#232323" d="M63 258.4l8.6 5.6a24.9 24.9 0 0 0-10.4-3.8 29 29 0 0 0-21.7 6.4 36.3 36.3 0 0 0-11.6 41.6 27 27 0 0 0 5.7 8.2c2.3 2.3 5.2 4.2 8.3 5.4l-9.5-3.7a25 25 0 0 1-8.5-5.6 27.5 27.5 0 0 1-5.8-8.4 31.7 31.7 0 0 1-2.5-10.3A39 39 0 0 1 30 261.3c3.2-2.5 6.8-4.4 10.5-5.6a28 28 0 0 1 17.4.2 24.5 24.5 0 0 1 5 2.5" clip-path="url(#W)"/><defs><path id="X" d="M48.3 280l9 5c.6.3 1.2.7 1.6 1.2a4 4 0 0 1 1 1.8c.3.6.5 1.4.6 2.1a8 8 0 0 1-1.4 5c-.5.9-1.2 1.5-2 2.1a6.2 6.2 0 0 1-6.6.9l-9.1-4.5a5.5 5.5 0 0 0 1.5.5 8 8 0 0 0 2.7-.2c.9-.2 1.7-.7 2.5-1.2a8.4 8.4 0 0 0 3.1-5 8.1 8.1 0 0 0-.2-4.5c-.3-.7-.7-1.3-1.1-1.8-.5-.6-1-1-1.6-1.3z"/></defs><clipPath id="Y"><use overflow="visible" xlink:href="#X"/></clipPath><path fill="#232323" d="M48.3 280l9 5c.6.3 1.2.7 1.6 1.2a4 4 0 0 1 1 1.8c.3.6.5 1.4.6 2.1a8 8 0 0 1-1.4 5c-.5.9-1.2 1.5-2 2.1a6.2 6.2 0 0 1-6.6.9l-9.1-4.5a5.5 5.5 0 0 0 1.5.5 8 8 0 0 0 2.7-.2c.9-.2 1.7-.7 2.5-1.2a8.4 8.4 0 0 0 3.1-5 8.1 8.1 0 0 0-.2-4.5c-.3-.7-.7-1.3-1.1-1.8-.5-.6-1-1-1.6-1.3" clip-path="url(#Y)"/><path fill="#6F00FF" d="M46.4 279.4a5.7 5.7 0 0 1 4.1 2.9 7 7 0 0 1 1 2.5c0 1 0 2-.3 3a8.7 8.7 0 0 1-3.1 4.9c-.8.5-1.6 1-2.5 1.2-.9.2-1.8.3-2.7.2a5.6 5.6 0 0 1-4-3 7 7 0 0 1-.9-2.5 8.8 8.8 0 0 1 3.3-7.8c.8-.5 1.6-1 2.4-1.2 1-.2 1.8-.3 2.7-.2z"/><defs><path id="Z" d="M52.8 272.6l8.9 5.1a12 12 0 0 1 3.2 2.8c1 1 1.7 2.3 2.2 3.7a16.9 16.9 0 0 1 .6 9.4 18 18 0 0 1-6.6 10.3c-1.6 1.2-3.4 2-5.2 2.5a13 13 0 0 1-8.6-.6l-9.3-4.2a11.3 11.3 0 0 0 2.9.9 14.1 14.1 0 0 0 11.1-3 18.2 18.2 0 0 0 7-10.5c.4-1.8.5-3.5.4-5.1 0-1.7-.4-3.2-1-4.7a12.3 12.3 0 0 0-5.5-6.6z"/></defs><clipPath id="aa"><use overflow="visible" xlink:href="#Z"/></clipPath><path fill="#3A3A3A" d="M52.8 272.6l8.9 5.1a12 12 0 0 1 3.2 2.8c1 1 1.7 2.3 2.2 3.7a16.9 16.9 0 0 1 .6 9.4 18 18 0 0 1-6.6 10.3c-1.6 1.2-3.4 2-5.2 2.5a13 13 0 0 1-8.6-.6l-9.3-4.2a11.3 11.3 0 0 0 2.9.9 14.1 14.1 0 0 0 11.1-3 18.2 18.2 0 0 0 7-10.5c.4-1.8.5-3.5.4-5.1 0-1.7-.4-3.2-1-4.7a12.3 12.3 0 0 0-5.5-6.6" clip-path="url(#aa)"/><path fill="#EDEDED" d="M48.4 271.1a12 12 0 0 1 9 6A17.3 17.3 0 0 1 59 289a18.8 18.8 0 0 1-7 10.6 14.2 14.2 0 0 1-11.1 3 12 12 0 0 1-8.7-6.3c-.9-1.6-1.5-3.5-1.7-5.4a18.8 18.8 0 0 1 7-16.5 16 16 0 0 1 5.2-2.7c1.8-.6 3.8-.7 5.7-.5zm-5.5 23a8 8 0 0 0 2.7-.2c.9-.2 1.7-.7 2.5-1.2a8.4 8.4 0 0 0 3.1-5 7 7 0 0 0-.7-5.5 5.7 5.7 0 0 0-4.1-2.8c-.9-.1-1.8 0-2.7.2a8.5 8.5 0 0 0-5.6 6 8 8 0 0 0 0 3 7 7 0 0 0 .7 2.6 5.6 5.6 0 0 0 4 2.9"/><defs><path id="ab" d="M57.7 265.4l8.7 5.4c1.9 1 3.5 2.5 4.8 4.1 1.4 1.7 2.5 3.6 3.3 5.7a26 26 0 0 1 .8 14.2A27.7 27.7 0 0 1 65 310.7a23.5 23.5 0 0 1-8 3.8 20 20 0 0 1-12.6-.8l-9.4-4a19.2 19.2 0 0 0 12.8.8c2.9-.7 5.7-2.1 8.2-4a27.9 27.9 0 0 0 10.6-16.3 27 27 0 0 0-.8-14.7 21 21 0 0 0-3.3-5.8c-1.3-1.7-3-3.2-4.8-4.3z"/></defs><clipPath id="ac"><use overflow="visible" xlink:href="#ab"/></clipPath><path fill="#232323" d="M57.7 265.4l8.7 5.4c1.9 1 3.5 2.5 4.8 4.1 1.4 1.7 2.5 3.6 3.3 5.7a26 26 0 0 1 .8 14.2A27.7 27.7 0 0 1 65 310.7a23.5 23.5 0 0 1-8 3.8 20 20 0 0 1-12.6-.8l-9.4-4a19.2 19.2 0 0 0 12.8.8c2.9-.7 5.7-2.1 8.2-4a27.9 27.9 0 0 0 10.6-16.3 27 27 0 0 0-.8-14.7 21 21 0 0 0-3.3-5.8c-1.3-1.7-3-3.2-4.8-4.3" clip-path="url(#ac)"/><defs><path id="ad" d="M63 258.4a3010.9 3010.9 0 0 0 8.6 5.6 25 25 0 0 1 6.1 5.6 28 28 0 0 1 4.2 7.6 31.4 31.4 0 0 1 1 18.9 37.2 37.2 0 0 1-14 21.4c-3.3 2.5-7 4.2-10.8 5.2a26.8 26.8 0 0 1-16.2-.9 15783.7 15783.7 0 0 0-6.2-2.6l1.2.2c4 .8 8 .6 12-.4s7.7-3 11.1-5.4a37.6 37.6 0 0 0 14.5-22.2 36.3 36.3 0 0 0-1-19.4c-1-2.9-2.5-5.5-4.3-7.8a25.7 25.7 0 0 0-6.3-5.8z"/></defs><clipPath id="ae"><use overflow="visible" xlink:href="#ad"/></clipPath><path fill="#3A3A3A" d="M63 258.4l8.6 5.6a25 25 0 0 1 6.1 5.6 28 28 0 0 1 4.2 7.6 31.4 31.4 0 0 1 1 18.9 37.2 37.2 0 0 1-14 21.4c-3.3 2.5-7 4.2-10.8 5.2a26.8 26.8 0 0 1-16.2-.9l-9.5-3.7a23.3 23.3 0 0 0 4.5 1.3c4 .8 8 .6 12-.4s7.7-3 11.1-5.4a37.6 37.6 0 0 0 14.5-22.2 36.3 36.3 0 0 0-1-19.4c-1-2.9-2.5-5.5-4.3-7.8a25.7 25.7 0 0 0-6.3-5.8" clip-path="url(#ae)"/><path fill="#EDEDED" d="M52.4 254.6A25 25 0 0 1 71 266.7a35.4 35.4 0 0 1 3.5 24.7A38.8 38.8 0 0 1 60 313.6a32.7 32.7 0 0 1-11 5.4c-4 1-8 1.2-12 .4a24.8 24.8 0 0 1-18-13.2 31 31 0 0 1-3.4-11.2A39 39 0 0 1 30 261.3c3.2-2.5 6.8-4.4 10.5-5.6a28 28 0 0 1 11.8-1.1zm-13.5 56.3a22.4 22.4 0 0 0 17.1-4.4 27.9 27.9 0 0 0 10.6-16.3c.8-3.4 1-6.7.5-9.8-.5-3.1-1.5-6-3-8.4a18.5 18.5 0 0 0-13.7-9.1c-3-.4-6-.2-8.7.7-2.8.9-5.5 2.3-8 4.1A28 28 0 0 0 23 293a23 23 0 0 0 2.6 8.3 19.6 19.6 0 0 0 13.3 9.7"/><path fill="#6F00FF" d="M54.6 245.4a32.3 32.3 0 0 1 24.2 15.4 39 39 0 0 1 5.4 14.7 50 50 0 0 1-19.5 46.1 42 42 0 0 1-14.6 7 35.3 35.3 0 0 1-15.5.4 32.1 32.1 0 0 1-22.8-17.3 40 40 0 0 1-4.3-14.4A50.2 50.2 0 0 1 26 254.1a43 43 0 0 1 13.5-7.2c4.8-1.5 10-2.1 15-1.5zm-17.7 74c4 .8 8 .6 12-.4s7.7-3 11.1-5.4a37.6 37.6 0 0 0 14.5-22.2c1-4.6 1.2-9.1.6-13.3-.7-4.2-2-8-4.1-11.4a25 25 0 0 0-18.6-12.1 29.4 29.4 0 0 0-22.3 6.7A37.8 37.8 0 0 0 15.7 295a31 31 0 0 0 3.4 11.2 24.8 24.8 0 0 0 17.7 13.2"/><path fill="#6F00FF" d="M50.4 262.8A18.5 18.5 0 0 1 64 272c1.5 2.4 2.5 5.3 3 8.4a28.8 28.8 0 0 1-11 26.1 24.2 24.2 0 0 1-8.3 4c-3 .8-6 1-9 .4a18.4 18.4 0 0 1-13.2-9.7 23 23 0 0 1-2.6-8.3 28.9 28.9 0 0 1 10.7-25.2c2.5-1.8 5.2-3.2 8-4.1 2.8-.9 5.7-1.1 8.7-.8zm-9.5 39.7a14.1 14.1 0 0 0 11.1-3 18.2 18.2 0 0 0 7.2-16.9c-.3-2-1-3.9-1.9-5.5a12 12 0 0 0-9-6c-1.8-.3-3.8 0-5.6.5a16 16 0 0 0-5.2 2.7 18.2 18.2 0 0 0-7 16.5 13.7 13.7 0 0 0 5.3 9.5 12 12 0 0 0 5.1 2.2"/><defs><path id="af" d="M69.3 250.9l8.5 5.8a33 33 0 0 1 12.7 17c1.3 3.5 2 7.3 2.3 11.3a48.1 48.1 0 0 1-19.3 40.4 40.9 40.9 0 0 1-14.2 6.6 34.6 34.6 0 0 1-19.6-.8l-9.7-3.5a31.2 31.2 0 0 0 4.6 1.3c5.1 1 10.4.8 15.5-.5a42 42 0 0 0 14.6-6.9 48.4 48.4 0 0 0 18.7-28.8 47 47 0 0 0-1-24.6 36.9 36.9 0 0 0-13-17.3z"/></defs><use fill="#41D5CF" overflow="visible" xlink:href="#af"/><clipPath id="ag"><use overflow="visible" xlink:href="#af"/></clipPath><path fill="#41D5CF" d="M69.3 250.9l8.5 5.8a33 33 0 0 1 12.7 17c1.3 3.5 2 7.3 2.3 11.3a48.1 48.1 0 0 1-19.3 40.4 40.9 40.9 0 0 1-14.2 6.6 34.6 34.6 0 0 1-19.6-.8l-9.7-3.5a31.2 31.2 0 0 0 4.6 1.3c5.1 1 10.4.8 15.5-.5a42 42 0 0 0 14.6-6.9 48.4 48.4 0 0 0 18.7-28.8 47 47 0 0 0-1-24.6 36.9 36.9 0 0 0-13-17.3" clip-path="url(#ag)"/><circle cx="47.1" cy="183.1" r="8.9" fill="#6F00FF"/><circle cx="155" cy="108.9" r="8.6" fill="#6F00FF"/><circle cx="266.9" cy="173.6" r="8.6" fill="#6F00FF"/><path fill="#6F00FF" d="M164.3 262.2a45.2 45.2 0 1 1 24.6-76.6A45 45 0 0 1 177 258v17.8l-12.7-13.5z"/><path fill="#41D5CF" d="M156.8 175a42.6 42.6 0 1 1 17.2 81.4v13l-9-9.9a42.6 42.6 0 0 1-50.4-42 42.4 42.4 0 0 1 42.2-42.6m0-5a47.7 47.7 0 1 0 6.6 95l7.2 8 8.4 9v-22.5c16-8.3 25.2-24 25.2-41.8a47.3 47.3 0 0 0-47.4-47.7z"/><path fill="#4A4A4A" d="M23.7 207.2h-.5v-11.1H27l.1.2v.4l-.3.1H24v4.1h2.3l.2.1v.6l-.2.1H24v5.5h-.3zm5.3-8.7c-.2 0-.3 0-.4-.2v-.6l.4-.2c.2 0 .4 0 .5.2v.6l-.5.2zm.4 1v7.7h-.7v-7.9h.7v.2zm3.6 4.7l-1.2 2.7c0 .2-.1.3-.2.3h-.4c-.2 0-.3 0-.2-.3l1.6-3.7-1.6-3.7c-.1-.2 0-.3.2-.3h.5l.1.3 1.2 2.8 1.1-2.8.2-.2h.5c.2 0 .3 0 .2.2l-1.6 3.7L35 207c0 .2 0 .3-.2.3h-.5l-.1-.3-1.2-2.7zm5.2-4.2c-.7 0-1.1.4-1.2 1.3v.3l-.3.1h-.5v-.3c0-.6.2-1.1.5-1.6.3-.4.8-.6 1.5-.6 1.4 0 2.1.9 2.1 2.8v4l.1 1c.1.1 0 .2-.3.2h-.5l-.1-.5a2 2 0 0 1-1.5.6 2 2 0 0 1-1.4-.6c-.4-.3-.6-.9-.6-1.5v-.5c0-.5.1-.9.4-1.2.2-.3.5-.6.8-.7l1-.4 1-.4.3-.6c0-.4-.1-.7-.3-1-.3-.3-.6-.5-1-.5zm.1 6.5c.4 0 .7-.1.9-.4s.3-.6.3-1.1v-2.4l-.8.3-.8.3c-.8.4-1.1 1-1 1.7 0 1.2.4 1.7 1.4 1.6zm4.7-8.7v1.7l.1.1h.6v.7H43l-.1.2v5.5c.1.3.3.4.6.5h.2v.7h-.2c-.6 0-1-.2-1.2-.6l-.2-1v-5.1l-.2-.1h-.3v-.7h.3l.2-.2v-1.9h.7v.2zm2.7.7c-.2 0-.3 0-.4-.2v-.6l.4-.2c.2 0 .4 0 .5.2v.6c-.1.1-.2.2-.5.2zm.5 1v7.4l-.1.3h-.7v-7.9h.7v.2zm1.8 5V202c0-1 .1-1.7.5-2.1a2 2 0 0 1 1.6-.7 2 2 0 0 1 1.5.7c.4.4.6 1.1.6 2v2.6c0 1-.2 1.6-.6 2.1a2 2 0 0 1-1.5.7 2 2 0 0 1-1.6-.7c-.4-.5-.6-1.2-.6-2.1zm3.4.3v-3.2c0-.5-.1-1-.4-1.2-.2-.3-.5-.5-1-.5-.3 0-.7.2-.9.5-.2.2-.4.7-.4 1.2v3.2c0 .6.2 1 .4 1.3.2.3.6.4 1 .4s.7-.1 1-.4c.2-.3.3-.7.3-1.3zm5.9 2.2v-5.4c0-1.1-.4-1.7-1.3-1.7s-1.2.6-1.2 1.7v5.6H54v-7.9h.7l.1.2v.4c.3-.5.7-.7 1.3-.7a2 2 0 0 1 1.5.6c.3.5.5 1.2.5 2.2v5.2h-.7l-.1-.3zm9.9-10.7v10.9h-.8v-.6c-.3.4-.8.7-1.3.7-.7 0-1.2-.2-1.5-.7-.4-.4-.6-1.2-.6-2.1V202c0-1 .2-1.7.6-2.2.3-.4.8-.7 1.5-.6.5 0 1 .2 1.2.7v-3.5l.1-.3h.7v.2zm-3.3 5.3v3.2c0 1.2.4 1.7 1.2 1.7s1.2-.5 1.2-1.7v-3.2c0-1.1-.4-1.7-1.2-1.7s-1.2.6-1.2 1.7zm5.1 2.9V202c0-1 .1-1.7.5-2.1a2 2 0 0 1 1.6-.7 2 2 0 0 1 1.6.7c.3.4.5 1.1.5 2v1.2H70l-.3.1v1.6c0 .6 0 1 .3 1.3.3.3.6.4 1 .4s.7-.1.9-.4c.2-.2.3-.5.4-1v-.3h.7v.2c0 .6-.1 1.1-.5 1.6-.3.5-.8.7-1.5.7a2 2 0 0 1-1.6-.7c-.4-.5-.6-1.2-.6-2.1zm.8-2.9v.8h2.6v-.8c0-.5-.1-1-.4-1.2-.2-.3-.5-.5-1-.5-.3 0-.6.2-.9.5-.2.2-.3.7-.3 1.2zm-39.7 24.9l.3.1v.6H30c-.5 0-1-.1-1.1-.5l-.2-1v-9.5l.3-.1h.4v8.8l.1 1.1c0 .3.3.5.5.5zm1.2-9.9l.2-.4.4-.1c.1 0 .3 0 .4.2v.7c0 .3-.2.6-.5 1h-.3v-.2l.2-.5s0-.2-.2-.3l-.2-.4zm2.3 7.9V222c0-1 .2-1.6.6-2a2 2 0 0 1 1.6-.8 2 2 0 0 1 1.5.7c.4.5.6 1.2.6 2.1v2.5c0 1-.2 1.7-.6 2.2a2 2 0 0 1-1.5.6 2 2 0 0 1-1.6-.6c-.4-.5-.6-1.2-.6-2.2zm3.5.4v-3.2c0-.6-.1-1-.4-1.3-.2-.3-.5-.4-1-.4-.3 0-.7.1-.9.4-.2.3-.4.7-.4 1.3v3.2c0 .5.2 1 .4 1.3.2.2.6.4 1 .4s.7-.2 1-.4c.2-.3.3-.8.3-1.3zm2.6 2.1v-10.8l.3-.1h.4v3.8c.4-.4.8-.7 1.4-.7.6 0 1.1.2 1.5.7.3.4.5 1.2.5 2.1v2.5c0 1-.2 1.7-.5 2.2-.4.4-.9.7-1.5.6-.6 0-1-.2-1.3-.6v.5h-.8v-.2zm3.3-2.1v-3.2c0-1.1-.4-1.7-1.3-1.7s-1.2.6-1.2 1.7v3.2c0 1.1.4 1.7 1.2 1.7s1.3-.6 1.3-1.7zm1.9 4.5c.2 0 .4-.1.5-.4l.2-1.3v-8.3l.3-.1h.4l.1.3v7.4l-.1 2.1c-.2.7-.7 1-1.4 1h-.3v-.6l.3-.1zm.7-11a.4.4 0 0 1-.1-.5c0-.2.2-.3.4-.3l.4.1c.2.1.2.3.2.5s-.2.3-.4.3h-.5zm2.6 6.1V222c0-1 .2-1.6.5-2a2 2 0 0 1 1.6-.8 2 2 0 0 1 1.6.7c.4.5.6 1.2.6 2.1v.9l-.1.2-.3.1H49v1.7c0 .5.1 1 .4 1.3.2.2.5.4 1 .4.3 0 .6-.1.8-.4.3-.2.4-.6.4-1v-.3l.3-.1h.5v.3a3 3 0 0 1-.5 1.6c-.4.4-.9.6-1.6.6a2 2 0 0 1-1.6-.6c-.3-.5-.5-1.2-.5-2.2zm.8-2.8v.7h2.6v-.7c0-.6 0-1-.3-1.3-.3-.3-.6-.4-1-.4s-.7.1-1 .4c-.2.3-.3.7-.3 1.3zm7.2 5.6a2 2 0 0 1-1.6-.6c-.3-.5-.5-1.2-.5-2.2V222c0-1 .2-1.6.5-2a2 2 0 0 1 1.6-.8c.7 0 1.2.3 1.6.7.3.5.5 1 .5 1.6v.2h-.7l-.1-.3c0-.4-.2-.8-.4-1-.2-.3-.5-.4-.9-.4s-.7.1-1 .4c-.2.3-.3.7-.3 1.3v3.2c0 .5.1 1 .3 1.3.3.2.6.4 1 .4s.7-.1 1-.4c.1-.2.3-.6.3-1v-.3h.7l.1.2a3 3 0 0 1-.5 1.6c-.4.4-.9.7-1.6.7zm4.7-9.4v1.6c0 .1 0 .2.2.2h.5v.7H61c-.2 0-.2 0-.2.2v5.4c.1.3.3.5.6.5l.2.1v.6h-.2c-.6 0-1-.1-1.2-.5l-.2-1v-5.1c0-.1 0-.2-.2-.2h-.2l-.1-.3v-.4h.3c.1 0 .2 0 .2-.2v-1.8h.7v.3zm2.7.7c-.2 0-.3-.1-.4-.3v-.5c.1-.2.2-.3.4-.3s.4.1.5.3v.5c0 .2-.2.3-.5.3zm.5 1v7.4l-.1.2h-.7v-7.8l.3-.1h.4v.3zm3.9-2.7c-.5 0-.8.1-1 .4l-.2 1.5v.7c0 .1 0 .2.2.2h.9v.6l-.3.1H67c-.1 0-.2 0-.2.2v6.6H66l-.1-.2v-6.4c0-.1 0-.2-.2-.2h-.2l-.1-.3v-.4h.3l.2-.2v-1.4a6 6 0 0 1 .3-1.2v-.1l.2-.2a3.9 3.9 0 0 1 .3-.2c.2-.2.6-.3 1.2-.3h.2v.7H68z"/><path fill="#FFF" d="M48.4 188h-2v-7.2c-.6.7-1.4 1.1-2.4 1.4v-1.7c.5-.1 1-.4 1.6-.9.6-.4 1-1 1.2-1.6h1.6v10z"/><path fill="#4A4A4A" d="M118 133.9h-3.4l-.1-.3v-10.8l.3-.1h3.5v.7h-2.7l-.2.1v4.1h2.9v.7h-2.7l-.2.1v4.7h2.6l.3.1v.6l-.3.1zm-1.6-11.8l-.2-.1v-1.8l.4-.1h.4v.3l-.3 1.5v.2h-.3zM122 134a2 2 0 0 1-1.5-.7c-.4-.5-.6-1.2-.6-2.2v-2.4c0-1 .2-1.7.6-2.2a2 2 0 0 1 1.6-.7c.7 0 1.2.3 1.5.7.4.5.6 1 .6 1.6v.2h-.8v-.3c0-.4-.2-.8-.4-1-.2-.3-.5-.4-1-.4-.3 0-.6.1-.9.4-.2.3-.3.7-.3 1.3v3.2c0 .6 0 1 .3 1.3.3.3.6.4 1 .4s.7-.1.9-.4c.2-.2.4-.6.4-1v-.3h.7v.2c0 .6-.1 1.1-.5 1.6-.3.4-.8.7-1.5.7zm3.8-2.9v-2.4c0-1 .2-1.7.6-2.2a2 2 0 0 1 1.5-.7 2 2 0 0 1 1.6.7c.4.5.6 1.2.6 2.2v2.4c0 1-.2 1.7-.6 2.2a2 2 0 0 1-1.6.7 2 2 0 0 1-1.5-.7c-.4-.5-.6-1.2-.6-2.2zm3.4.4v-3.2c0-.6 0-1-.3-1.3-.2-.3-.6-.4-1-.4s-.7.1-1 .4c-.2.3-.3.7-.3 1.3v3.2c0 .6.1 1 .4 1.3.2.3.5.4 1 .4.3 0 .7-.1.9-.4.2-.3.3-.7.3-1.3zm3.4-5.3v5.3c0 1.1.4 1.7 1.2 1.7s1.3-.6 1.3-1.7V126l.3-.1h.4l.1.3v7.6l-.3.1h-.5v-.6c-.3.4-.8.7-1.3.7-.6 0-1.1-.2-1.5-.7-.4-.5-.6-1.2-.6-2.2v-4.9l.1-.2.3-.1h.4v.3zm6.1-1.7v1.6l.1.2h.6v.7h-.6l-.1.2v5.4c0 .3.3.5.5.5l.3.1v.6l-.3.1c-.5 0-1-.2-1.1-.6l-.2-1v-5.1l-.2-.1-.3-.1v-.6l.3-.1.1-.2v-1.6l.1-.2.3-.1h.4v.3zm2.1 6.6v-2.4c0-1 .2-1.7.6-2.2a2 2 0 0 1 1.6-.7 2 2 0 0 1 1.5.7c.4.5.6 1.2.6 2.2v1.1h-3.4v1.8c0 .6 0 1 .3 1.3.3.3.6.4 1 .4s.7-.1.9-.4c.2-.2.3-.6.4-1v-.3h.7v.2c0 .6-.1 1.1-.5 1.6-.3.4-.8.7-1.5.7a2 2 0 0 1-1.6-.7c-.4-.5-.6-1.2-.6-2.2zm.9-2.8v.7h2.6v-.7c0-.6-.1-1-.4-1.3-.2-.3-.5-.4-1-.4-.3 0-.6.1-.9.4-.2.3-.3.7-.3 1.3zm12.4-5.3v10.8l-.3.1h-.5v-.6a2 2 0 0 1-1.3.7c-.6 0-1.2-.2-1.5-.7-.4-.5-.6-1.2-.6-2.1v-2.5c0-1 .2-1.7.6-2.2.3-.5.9-.7 1.5-.7.5 0 1 .3 1.3.7v-3.7l.3-.1h.4l.1.3zm-3.3 5.3v3.2c0 1.1.4 1.7 1.2 1.7s1.3-.6 1.3-1.7v-3.2c0-1.1-.4-1.7-1.3-1.7s-1.2.6-1.2 1.7zm5.1 2.8v-2.4c0-1 .2-1.7.5-2.2a2 2 0 0 1 1.6-.7 2 2 0 0 1 1.6.7c.4.5.5 1.2.5 2.2v1.1h-3.4v1.8c0 .6.1 1 .3 1.3.3.3.6.4 1 .4s.7-.1 1-.4c.1-.2.3-.6.3-1v-.3h.7l.1.2a3 3 0 0 1-.5 1.6c-.4.4-.9.7-1.6.7a2 2 0 0 1-1.6-.7c-.3-.5-.5-1.2-.5-2.2zm.8-2.8v.7h2.6v-.7c0-.6-.1-1-.3-1.3-.3-.3-.6-.4-1-.4s-.7.1-1 .4c-.2.3-.3.7-.3 1.3zm8.7-.6v.2h-.4c-.2 0-.3 0-.3-.2 0-.3-.2-.5-.4-.8s-.4-.3-.7-.3-.6.1-.8.3a1 1 0 0 0-.3.8l.3.8.8.7 1 .8c.3.2.6.5.8.9l.3 1c0 .6-.3 1.1-.7 1.5a2 2 0 0 1-1.5.6 2 2 0 0 1-1.4-.6 2 2 0 0 1-.7-1.5v-.2l.3-.1h.2c.2 0 .3.1.3.3 0 .4.2.7.5 1s.5.3.8.3a1.3 1.3 0 0 0 1.3-1.3c0-.4-.1-.7-.5-1l-1-1a5 5 0 0 1-1.1-1 2 2 0 0 1-.5-1.2c0-.5.2-1 .5-1.3.4-.4.8-.6 1.3-.6s1 .2 1.3.5c.4.4.6.8.6 1.4zm8.9-4.7v10.8l-.3.1h-.4v-.6c-.4.4-.8.6-1.4.7-.6 0-1.1-.2-1.5-.7a4 4 0 0 1-.5-2.1v-2.5c0-1 .2-1.7.5-2.2.4-.5.9-.7 1.5-.7s1 .3 1.3.7v-3.7l.3-.1h.5v.3zm-3.3 5.3v3.2c0 1.1.4 1.7 1.3 1.7s1.2-.6 1.2-1.7v-3.2c0-1.1-.4-1.7-1.2-1.7s-1.3.6-1.3 1.7zm5.1 2.8v-2.4c0-1 .2-1.7.6-2.2a2 2 0 0 1 1.5-.7 2 2 0 0 1 1.6.7c.4.5.6 1.2.6 2.2v2.4c0 1-.2 1.7-.6 2.2a2 2 0 0 1-1.6.7 2 2 0 0 1-1.5-.7c-.4-.5-.6-1.2-.6-2.2zm3.5.4v-3.2c0-.6-.2-1-.4-1.3-.2-.3-.6-.4-1-.4s-.7.1-1 .4c-.2.3-.3.7-.3 1.3v3.2c0 .6.1 1 .4 1.3.2.3.5.4 1 .4.3 0 .7-.1.9-.4.2-.3.4-.7.4-1.3zm3.3-5.3v5.3c0 1.1.4 1.7 1.2 1.7s1.3-.6 1.3-1.7V126l.3-.1h.5v7.9l-.3.1h-.4l-.1-.3v-.3c-.3.4-.7.7-1.3.7-.6 0-1.1-.2-1.5-.7-.3-.5-.5-1.2-.5-2.2V126l.3-.1h.4l.1.3zm6.1-1.7v1.6l.1.2h.6v.7h-.6l-.1.2v5.4c.1.3.3.5.6.5l.2.1v.6l-.2.1c-.6 0-1-.2-1.2-.6l-.2-1v-5.1l-.2-.1-.3-.1v-.6l.3-.1.1-.2v-1.6l.1-.2.3-.1h.4v.3zm2.2 6.6v-2.4c0-1 .1-1.7.5-2.2a2 2 0 0 1 1.6-.7 2 2 0 0 1 1.6.7c.4.5.5 1.2.5 2.2v1.1H192v1.8c0 .6.1 1 .3 1.3.3.3.6.4 1 .4s.7-.1 1-.4c.1-.2.3-.6.3-1v-.3h.7l.1.2a3 3 0 0 1-.5 1.6c-.4.4-1 .7-1.6.7a2 2 0 0 1-1.6-.7c-.4-.5-.5-1.2-.5-2.2zm.8-2.8v.7h2.6v-.7c0-.6-.1-1-.3-1.3-.3-.3-.6-.4-1-.4s-.7.1-1 .4c-.2.3-.3.7-.3 1.3zm8.7-.6v.2h-.5c-.1 0-.2 0-.2-.2 0-.3-.2-.5-.4-.8s-.4-.3-.7-.3-.6.1-.8.3a1 1 0 0 0-.3.8l.3.8.8.7 1 .8c.3.2.6.5.8.9l.3 1c0 .6-.3 1.1-.7 1.5a2 2 0 0 1-1.5.6 2 2 0 0 1-1.5-.6 2 2 0 0 1-.6-1.5v-.2l.3-.1h.2c.2 0 .3.1.3.3 0 .4.2.7.5 1s.5.3.8.3a1.3 1.3 0 0 0 1.3-1.3c0-.4-.1-.7-.5-1l-1-1a5 5 0 0 1-1.1-1 2 2 0 0 1-.5-1.2c0-.5.2-1 .5-1.3.4-.4.8-.6 1.3-.6s1 .2 1.3.5c.4.4.6.8.6 1.4zM123.6 144v8.8l.1 1c.1.5.5.8 1.2.9h.2v.7h-.2c-.7 0-1.3-.2-1.6-.6-.3-.5-.5-1.1-.5-2V144c0-.9.2-1.5.5-2 .3-.4.9-.6 1.6-.7l.2.1v.6l-.2.1c-.4 0-.7.2-1 .5l-.2.4v1zm6.2 10h-.1c-.2 0-.3-.1-.4-.3l-1.6-6.7v6.6c0 .2-.1.2-.2.3h-.5l-.1-.3v-10.8h.3c.3 0 .4 0 .4.2l2.2 9v.1h.1l2.2-9.1c0-.2.1-.2.3-.2h.3l.1.3v10.8h-.8V147h-.1l-1.7 6.7c0 .2-.1.3-.3.3zm4.7-2.8v-2.5c0-1 .2-1.6.5-2.1a2 2 0 0 1 1.6-.7 2 2 0 0 1 1.6.7c.4.5.5 1.2.5 2.1v2.5c0 1-.1 1.7-.5 2.1a2 2 0 0 1-1.6.7 2 2 0 0 1-1.6-.7c-.3-.4-.5-1.1-.5-2zm3.4.3v-3.1c0-.6-.1-1-.3-1.3-.3-.3-.6-.4-1-.4s-.7.1-1 .4c-.2.3-.3.7-.3 1.3v3.1c0 .6.1 1 .3 1.3.3.3.6.5 1 .5s.7-.2 1-.5c.2-.3.3-.7.3-1.3zm3.4-6.9v1.6l.2.1h.3l.2.1.1.3v.3l-.3.1h-.3c-.1 0-.2 0-.2.2v4.2l.1 1.2c0 .3.2.5.5.5h.3v.7h-.3c-.6 0-1-.2-1.1-.6-.2-.3-.2-.6-.3-1v-5l-.1-.2h-.3v-.7h.3l.1-.2v-1.9h.8v.3zm2.7.6c-.1 0-.3 0-.3-.2v-.5c0-.2.2-.3.4-.3s.3.1.4.3v.5c0 .2-.2.2-.4.2zm.5 1v7.7h-.7l-.1-.3V146h.7l.1.3zm5.1-.2h.4v.2l-1.5 7.5v.2h-1v-.2l-1.6-7.5v-.2h.7l.1.2 1.2 6.2h.2l1.2-6.2v-.2h.3zm3.8.7c-.7 0-1.2.4-1.2 1.4l-.1.3h-.7v-.2c0-.6.1-1.2.5-1.6.3-.5.8-.7 1.5-.7 1.4 0 2.1 1 2.1 2.8v4l.1 1c0 .2 0 .3-.3.3h-.3l-.2-.1-.1-.5a2 2 0 0 1-1.5.6 2 2 0 0 1-1.4-.5c-.4-.4-.6-1-.6-1.6v-.5c0-.5.1-.9.4-1.2l.8-.7 1-.4c.4 0 .7-.2.9-.4.2-.1.4-.3.4-.6 0-.4-.1-.7-.4-1-.2-.3-.5-.4-.9-.4zm.1 6.6c.4 0 .7-.2.9-.5s.3-.6.3-1.1v-2.4l-.8.3-.8.3c-.8.4-1.1 1-1 1.8 0 1.1.4 1.6 1.4 1.6zm4.7-8.7v1.6l.1.1h.3l.3.1v.6l-.3.1h-.3l-.1.2v5.4c.1.3.3.5.6.5h.2v.7h-.3c-.5 0-1-.2-1.1-.6l-.2-1v-5l-.2-.2h-.3v-.7h.3l.1-.2v-1.6l.1-.3h.7v.3zm2.8.6c-.3 0-.4 0-.5-.2v-.5c0-.2.2-.3.4-.3s.4.1.5.3v.5c-.1.2-.3.2-.5.2zm.3 1v7.7h-.7V146h.7v.3zm1.8 5v-2.5c0-1 .2-1.6.6-2.1a2 2 0 0 1 1.5-.7 2 2 0 0 1 1.6.7c.4.5.6 1.2.6 2.1v2.5c0 1-.2 1.7-.6 2.1a2 2 0 0 1-1.6.7 2 2 0 0 1-1.5-.7c-.4-.4-.6-1.1-.6-2zm3.5.3v-3.1c0-.6-.2-1-.4-1.3-.2-.3-.5-.4-1-.4-.4 0-.7.1-1 .4-.1.3-.3.7-.3 1.3v3.1c0 .6.1 1 .4 1.3.2.3.5.5 1 .5.4 0 .7-.2 1-.5.1-.3.3-.7.3-1.3zm5.9 2.1v-5.2c0-1.2-.4-1.7-1.3-1.7s-1.2.5-1.2 1.7v5.5h-.8V146h.7v.6c.4-.5.8-.7 1.4-.7.6 0 1.1.2 1.5.7.3.4.5 1.1.5 2.1v5.2h-.7l-.1-.3zm6 0v-5.2c0-1.2-.4-1.7-1.3-1.7s-1.2.5-1.2 1.7v5.5h-.8V146h.7v.6c.4-.5.8-.7 1.4-.7.6 0 1.1.2 1.5.7.3.4.5 1.1.5 2.1v5.2h-.7l-.1-.3zm2.5-2.4v-2.5c0-1 .2-1.6.6-2.1a2 2 0 0 1 1.5-.7 2 2 0 0 1 1.6.7c.4.5.6 1.2.6 2.1v.9l-.1.2-.2.1h-3.1v1.6c0 .6 0 1 .3 1.3.2.3.5.5 1 .5.3 0 .6-.2.8-.4.3-.3.4-.6.4-1v-.4h.8v.3c0 .5-.2 1-.5 1.5-.4.5-.9.7-1.6.7a2 2 0 0 1-1.5-.7c-.4-.4-.6-1.1-.6-2zm.8-2.8v.7h2.7v-.7c0-.6 0-1-.3-1.3-.2-.3-.6-.4-1-.4s-.7.1-1 .4c-.2.3-.3.7-.3 1.3zm6.6 4.8h.2v.7h-.2c-.6 0-1-.1-1.2-.6l-.2-1v-9.5h.7v8.7l.2 1.2c0 .3.2.5.5.5zm2.9-.4V143c-.1-.5-.5-.8-1.2-.9h-.2v-.7h.2c.7 0 1.2.2 1.6.6.3.5.5 1.1.5 2v8.8c0 .9-.2 1.5-.5 2-.4.4-.9.6-1.6.6h-.2v-.6l.2-.1c.4 0 .8-.2 1-.5l.2-.4v-1z"/><path fill="#FFF" d="M158.2 111.1v1.8h-6.7c0-.7.3-1.3.7-1.9s1-1.4 2-2.4a9 9 0 0 0 1.7-1.6l.3-1.1c0-.5 0-.8-.3-1-.2-.2-.5-.4-1-.4-.3 0-.6.2-.9.4-.2.2-.3.6-.4 1.2l-1.9-.2c.1-1 .5-1.8 1-2.2s1.4-.7 2.3-.7c1 0 1.8.2 2.3.8.6.5.9 1.1.9 2l-.3 1.2c-.1.4-.4.8-.7 1.3l-1.3 1.2a20 20 0 0 0-1.5 1.6h3.8zm-14.8 131.5l2.2-9.4 10.9 2.6-2.3 9.4-10.8-2.6zm28.5-33.5a15 15 0 0 1-1 3 11.8 11.8 0 0 1-2.9 4.4l-2.4 2-6.8 5-1.2 5.1-9.8-2.3 2-7.9 7.4-5.7a259.2 259.2 0 0 0 3.4-2.8 6.2 6.2 0 0 0 1.5-3l.4-2.3a3 3 0 0 0-.5-1.8c-.3-.5-.8-1-1.5-1.3a26 26 0 0 0-6.7-1.5l-4.2-.2 2-8.1a241.4 241.4 0 0 1 7.2.6 28.4 28.4 0 0 1 8.2 2.4c1.7.7 3 1.7 4 3a9 9 0 0 1 1.6 4.6c.2 1.8 0 4-.7 6.8z"/><circle cx="268.6" cy="303" r="42.8" fill="#6F00FF"/><path fill="none" stroke="#41D5CF" stroke-dasharray="2.2 2.2" stroke-miterlimit="10" stroke-width="3" d="M268.6 348.5c-24.8 0-45-20.3-45-45.5a45.3 45.3 0 1 1 90.6 0 45.4 45.4 0 0 1-45.6 45.5z"/><path fill="#4A4A4A" d="M232.1 190.8v6.1c0 .6.2 1 .5 1.4.2.3.6.5 1.1.5.5 0 .8-.2 1.1-.5s.5-.8.5-1.4v-.2c0-.1 0-.2.3-.2h.2c.2 0 .3 0 .3.2v.1c0 1-.2 1.6-.6 2-.5.5-1 .7-1.8.7-.7 0-1.3-.2-1.8-.7-.4-.4-.6-1-.6-2V191c0-.9.2-1.5.6-2 .5-.5 1-.7 1.8-.7.7 0 1.3.2 1.8.7.4.5.6 1.1.6 2v.1c0 .2-.1.3-.3.3h-.2c-.2 0-.3-.1-.3-.3v-.2c0-.6-.2-1-.5-1.3s-.6-.5-1.1-.5c-.5 0-.9.1-1.1.5-.3.3-.5.7-.5 1.3zm5.5 5.9v-2.5c0-1 .2-1.6.6-2s.9-.8 1.6-.8a2 2 0 0 1 1.5.7c.4.5.6 1.2.6 2.1v2.5c0 1-.2 1.7-.6 2.1a2 2 0 0 1-1.5.7c-.7 0-1.2-.2-1.6-.7s-.6-1.1-.6-2zm3.5.4v-3.2c0-.6-.1-1-.4-1.3-.2-.3-.5-.4-1-.4-.3 0-.7.1-.9.4-.2.3-.4.7-.4 1.3v3.2c0 .5.2 1 .4 1.2.2.3.6.5 1 .5s.7-.2 1-.5c.2-.2.3-.7.3-1.2zm5.9 2.1v-5.3c0-1.2-.4-1.7-1.3-1.7s-1.2.5-1.2 1.7v5.5h-.8v-7.9h.7l.1.3v.3c.3-.5.7-.7 1.3-.7.6 0 1.1.2 1.5.7.3.4.5 1.2.5 2.1v5.2h-.7l-.1-.2zm6.2-6v.3h-.5c-.2 0-.3 0-.3-.2 0-.3-.1-.6-.3-.8s-.5-.3-.8-.3-.5 0-.7.3a1 1 0 0 0-.3.7c0 .3 0 .6.3.9l.8.7 1 .7.7 1c.2.3.3.6.3 1 0 .6-.2 1-.6 1.5-.4.3-1 .5-1.5.5a2 2 0 0 1-1.5-.6 2 2 0 0 1-.6-1.4v-.3h.5c.2 0 .3 0 .3.3 0 .4.2.7.4 1s.6.3.9.3a1.3 1.3 0 0 0 1.3-1.3c0-.4-.2-.7-.5-1l-1-1a5 5 0 0 1-1.2-1 2 2 0 0 1-.5-1.2c0-.5.2-1 .6-1.3.3-.4.8-.6 1.3-.6s1 .2 1.3.5c.4.3.6.8.6 1.3zm2.5-3.2v1.7c0 .1 0 .2.2.2h.5v.7h-.5c-.1 0-.2 0-.2.2v5.4c.1.3.3.5.6.5h.2l.1.3v.4h-.3c-.6 0-1-.1-1.2-.6l-.2-1v-5c0-.1 0-.2-.2-.2h-.2l-.1-.3v-.4h.3l.2-.2v-1.9h.7l.1.3zm4.3 2.4l-.3-.1c-.4 0-.6.2-.7.5l-.1 1.1v5.5h-.8v-7.9h.7v.5a2 2 0 0 1 1.2-.5h.3v.9h-.2zm2.5-.6v5.3c0 1.1.4 1.7 1.2 1.7s1.3-.6 1.3-1.7v-5.6h.8v7.9h-.7l-.1-.2v-.4c-.3.5-.7.7-1.3.7a2 2 0 0 1-1.5-.6c-.4-.5-.5-1.2-.5-2.2v-5.2h.7l.1.3zm7.2 7.7c-.6 0-1.2-.2-1.5-.7s-.6-1.1-.6-2v-2.6c0-1 .2-1.6.6-2s.9-.8 1.5-.8c.7 0 1.2.2 1.6.7.3.5.5 1 .5 1.6v.2h-.7v-.3c-.1-.5-.2-.8-.5-1-.2-.3-.5-.4-.9-.4s-.7.1-1 .4c-.2.3-.3.7-.3 1.3v3.2c0 .5.1 1 .4 1.2.2.3.5.5 1 .5.3 0 .6-.2.8-.4.3-.3.4-.6.4-1v-.3l.3-.1h.5v.3c0 .6-.2 1-.5 1.6-.4.4-.9.6-1.6.6zm4.7-9.5v1.7c0 .1 0 .2.2.2h.5v.7h-.5c-.1 0-.2 0-.2.2v5.4c.1.3.3.5.6.5h.2l.1.3v.4h-.3c-.6 0-1-.1-1.2-.6l-.2-1v-5c0-.1 0-.2-.2-.2h-.2v-.7h.2l.2-.2v-1.9h.7l.1.3zm2.8.8a.5.5 0 0 1-.5-.3v-.5c.1-.2.3-.3.5-.3s.3.1.4.3v.5c0 .2-.2.3-.4.3zm.4 1v7.6h-.8v-7.9h.7v.3zm1.7 4.9v-2.5c0-1 .2-1.6.6-2s1-.8 1.6-.8a2 2 0 0 1 1.6.7c.3.5.5 1.2.5 2.1v2.5c0 1-.2 1.7-.5 2.1a2 2 0 0 1-1.6.7c-.7 0-1.2-.2-1.6-.7s-.6-1.1-.6-2zm3.5.4v-3.2c0-.6-.1-1-.4-1.3-.2-.3-.5-.4-1-.4-.3 0-.6.1-.9.4-.2.3-.3.7-.3 1.3v3.2c0 .5 0 1 .3 1.2.3.3.6.5 1 .5s.7-.2 1-.5c.2-.2.3-.7.3-1.2zm5.9 2.1v-5.3c0-1.2-.4-1.7-1.2-1.7s-1.3.5-1.3 1.7v5.5h-.7l-.1-.2v-7.7h.8v.6c.3-.5.8-.7 1.3-.7.6 0 1.1.2 1.5.7.4.4.6 1.2.6 2.1v5l-.1.2h-.7v-.2zm9.9-10.6v10.8h-.8v-.5c-.3.4-.7.6-1.3.6a2 2 0 0 1-1.5-.6c-.4-.5-.6-1.2-.6-2.2v-2.5c0-1 .2-1.7.6-2.1.4-.5.9-.7 1.5-.7.5 0 1 .3 1.3.7v-3.8h.7l.1.3zm-3.3 5.3v3.2c0 1.1.4 1.7 1.2 1.7s1.3-.6 1.3-1.7v-3.2c0-1.2-.4-1.7-1.3-1.7s-1.2.5-1.2 1.7zm6-2.1v5.3c0 1.1.4 1.7 1.2 1.7s1.3-.6 1.3-1.7v-5.6h.7l.1.3v7.6h-.8v-.6c-.3.5-.8.7-1.3.7a2 2 0 0 1-1.5-.6c-.4-.5-.6-1.2-.6-2.2v-5l.1-.2h.7v.3zM239.9 222v-10.3h.7v.5c.4-.4.8-.6 1.4-.6a2 2 0 0 1 1.5.6c.3.5.5 1.2.5 2.2v2.5c0 1-.2 1.7-.5 2.1-.4.5-.9.7-1.5.7s-1-.2-1.3-.7v3.3l-.3.1h-.5v-.3zm3.3-4.9V214c0-1-.4-1.7-1.3-1.7s-1.2.6-1.2 1.7v3.2c0 1.2.4 1.7 1.2 1.7s1.3-.5 1.3-1.7zm3.9 1.7h.2l.1.3v.4h-.3c-.6 0-1-.2-1.2-.6l-.2-1v-9.5h.8v9.9c.2.3.3.4.6.5zm3.7-6.6c-.7 0-1.1.5-1.2 1.4v.3l-.3.1h-.4l-.1-.3c0-.6.2-1.1.5-1.6.3-.4.8-.6 1.5-.6 1.4 0 2.1 1 2.1 2.8v4l.2 1c0 .1 0 .2-.4.2h-.5v-.5a2 2 0 0 1-1.6.6 2 2 0 0 1-1.4-.6c-.4-.3-.5-.9-.5-1.5v-.5c0-.5 0-.9.3-1.2.2-.3.5-.6.9-.7l1-.4.8-.4c.2-.1.4-.4.4-.6 0-.4-.1-.7-.3-1-.2-.3-.5-.5-1-.5zm.1 6.6c.4 0 .7-.1 1-.4l.2-1.1v-2.4a9 9 0 0 1-.8.3 5 5 0 0 0-.7.3c-.8.4-1.2 1-1.1 1.7 0 1.2.5 1.7 1.4 1.6zm7.2.4V214c0-1-.4-1.7-1.2-1.7s-1.3.6-1.3 1.7v5.6h-.7l-.1-.3v-7.6h.7l.1.3v.3c.3-.5.7-.7 1.3-.7a2 2 0 0 1 1.5.6c.4.5.5 1.2.5 2.2v5.2h-.7v-.3zm9.9-10.5v10.8h-.8v-.6c-.3.5-.8.7-1.3.7-.7 0-1.2-.2-1.5-.7-.4-.4-.6-1.1-.6-2.1v-2.5c0-1 .2-1.7.6-2.2.3-.4.8-.7 1.5-.6.5 0 1 .2 1.3.7v-3.8h.7v.3zm-3.3 5.2v3.2c0 1.2.4 1.7 1.2 1.7s1.3-.5 1.3-1.7V214c0-1-.5-1.7-1.3-1.7s-1.2.6-1.2 1.7zm4.7-5.1l.1-.3.4-.2c.2 0 .3.1.4.3.1.1.2.3 0 .7 0 .3-.2.6-.5 1h-.2v-.1c-.1 0-.2-.1-.1-.2l.2-.5-.2-.3c-.2-.2-.1-.2-.1-.4zm4.4 3.4c-.8 0-1.2.5-1.3 1.4v.3l-.2.1h-.5v-.3c0-.6.1-1.1.4-1.6.4-.4.9-.6 1.6-.6 1.4 0 2 1 2 2.8v4l.2 1c0 .1 0 .2-.3.2h-.5l-.1-.5a2 2 0 0 1-1.5.6 2 2 0 0 1-1.5-.6c-.3-.3-.5-.9-.5-1.5v-.5c0-.5.1-.9.3-1.2.3-.3.6-.6.9-.7l1-.4.9-.4c.3-.1.3-.4.3-.6 0-.4 0-.7-.3-1-.2-.3-.5-.5-1-.5zm0 6.6c.5 0 .8-.1 1-.4l.2-1.1v-2.4a9 9 0 0 1-.8.3 5 5 0 0 0-.7.3c-.8.4-1.2 1-1 1.7 0 1.2.4 1.7 1.4 1.6zm5.9.8c-.7 0-1.2-.2-1.6-.7s-.6-1.2-.6-2.1v-2.5c0-1 .2-1.7.6-2.1s1-.7 1.6-.7c.7 0 1.2.2 1.5.7.4.4.6 1 .6 1.5v.3h-.7l-.1-.4c0-.4-.2-.7-.4-1-.2-.2-.5-.4-1-.4-.3 0-.6.2-.9.5-.2.2-.3.7-.3 1.2v3.2c0 .6.1 1 .3 1.3.3.3.6.4 1 .4s.7-.1.9-.3c.2-.3.4-.6.4-1v-.4h.7v.2c0 .6-.1 1.1-.5 1.6-.3.5-.8.7-1.5.7zm4.7-9.5v1.7l.1.1h.6v.7h-.6l-.1.2v5.5c.1.3.3.4.6.5h.2v.7h-.2c-.6 0-1-.2-1.2-.6l-.2-1v-5.1l-.2-.1h-.3v-.7h.3l.1-.2V210l.1-.2h.7v.2zm2.7.7c-.2 0-.3 0-.4-.2v-.6l.4-.2c.2 0 .4 0 .5.2v.6l-.5.2zm.4 1v7.7h-.7v-7.9h.7v.3zm1.8 5v-2.5c0-1 .2-1.7.6-2.1s.9-.7 1.6-.7a2 2 0 0 1 1.5.7c.4.4.6 1.1.6 2v2.6c0 1-.2 1.6-.6 2.1a2 2 0 0 1-1.6.7c-.6 0-1.1-.2-1.5-.7s-.6-1.2-.6-2.1zm3.5.3V214c0-.5-.2-1-.4-1.2-.2-.3-.5-.5-1-.5-.4 0-.7.2-1 .5a3 3 0 0 0-.3 1.2v3.2c0 .6.2 1 .4 1.3.2.3.5.4 1 .4.4 0 .7-.1 1-.4.1-.3.3-.7.3-1.3zm5.9 2.1V214c0-1-.4-1.7-1.3-1.7s-1.2.6-1.2 1.7v5.6h-.8v-7.9h.7v.6c.4-.5.8-.7 1.4-.7a2 2 0 0 1 1.5.6c.3.5.5 1.2.5 2.2v5.2h-.7l-.1-.3zm-61.4 10.4v8.9l.1.9c.1.5.5.8 1.1 1h.3v.6h-.3c-.7 0-1.2-.2-1.5-.6-.3-.4-.5-1-.5-2v-8.8c0-.9.2-1.5.5-2 .3-.4.8-.6 1.5-.6h.3v.7h-.3c-.3 0-.7.2-1 .5l-.1.5v.9zm7.8 1.4v6c0 .8-.2 1.5-.6 2-.5.4-1 .7-1.8.7-.7 0-1.3-.3-1.8-.7-.4-.5-.6-1.2-.6-2v-6c0-.8.2-1.5.6-2 .5-.4 1-.7 1.8-.7.7 0 1.3.3 1.8.7.4.5.6 1.2.6 2zm-.8 6v-6c0-.6-.2-1.1-.5-1.4s-.6-.5-1.1-.5c-.5 0-.9.2-1.1.5a2 2 0 0 0-.5 1.4v6c0 .6.2 1 .5 1.4.2.3.6.5 1.1.5.5 0 .8-.2 1.1-.5s.5-.8.5-1.4zm2.6 5.2v-10.5l.3-.1h.4v.6c.4-.4.8-.7 1.4-.7.6 0 1.1.2 1.5.7.3.5.5 1.2.5 2.1v2.5c0 1-.2 1.7-.5 2.2-.4.5-.9.7-1.5.7s-1-.3-1.3-.7v3.4h-.8v-.3zm3.3-5V234c0-1.1-.4-1.7-1.3-1.7s-1.2.6-1.2 1.7v3.2c0 1.1.4 1.7 1.2 1.7s1.3-.6 1.3-1.7zm2.4-.4v-2.5c0-1 .2-1.6.6-2a2 2 0 0 1 1.6-.8 2 2 0 0 1 1.5.7c.4.5.6 1.2.6 2.1v1.2h-3.5v1.7c0 .5 0 1 .3 1.3.2.2.6.4 1 .4.3 0 .7-.1.9-.4.2-.2.3-.6.4-1v-.3h.7v.2c0 .6-.1 1.1-.5 1.6-.3.4-.8.7-1.5.7a2 2 0 0 1-1.6-.7c-.4-.5-.6-1.2-.6-2.2zm.8-2.8v.7h2.6v-.7c0-.6 0-1-.3-1.3-.2-.3-.5-.4-1-.4-.3 0-.7.1-.9.4-.2.3-.4.7-.4 1.3zm1.4-3.2c-.1 0-.2 0-.2-.2v-1.8h.8v.3l-.3 1.5-.1.2h-.2zm5.9 1.7h-.4c-.4 0-.6.1-.7.4l-.1 1.2v5.4h-.8v-7.7l.3-.1h.4l.1.3v.2c.3-.3.7-.5 1.1-.5h.3l.1.3v.6h-.3zm3.3-.2c-.7 0-1.1.5-1.2 1.4v.3h-.8v-.2c0-.6.2-1.1.5-1.6.3-.4.8-.7 1.5-.7 1.4 0 2.1 1 2.1 2.8v4l.2 1c0 .2-.1.3-.4.3h-.2l-.3-.1v-.4a2 2 0 0 1-1.6.6c-.6 0-1-.2-1.4-.6s-.6-.9-.6-1.6v-.5a2.2 2.2 0 0 1 1.2-1.9c.4 0 .7-.2 1-.3l1-.5c.2-.1.3-.3.3-.5 0-.4-.1-.8-.3-1-.2-.4-.6-.5-1-.5zm.1 6.6c.4 0 .7-.2.9-.4s.3-.6.3-1.2V235l-.8.3-.8.3c-.8.3-1.1 1-1 1.7 0 1.1.5 1.6 1.4 1.6zm4.7-8.7v1.6c0 .1 0 .2.2.2h.5v.7h-.5c-.2 0-.2.1-.2.2v5.4c.1.3.3.5.6.5l.2.1v.6h-.2c-.6 0-1-.1-1.2-.5l-.2-1v-5.1c0-.1 0-.2-.2-.2h-.2l-.1-.3v-.4h.3c.1 0 .2 0 .2-.2v-1.9h.7v.3zm2.7.7c-.2 0-.3-.1-.4-.3v-.5c.1-.2.2-.3.4-.3s.4.1.5.3v.5c0 .2-.2.3-.5.3zm.5 1v7.4l-.1.2h-.7c-.1 0 0-.1 0-.2v-7.6l.3-.1h.4v.3zm1.7 4.9v-2.5c0-1 .2-1.6.6-2a2 2 0 0 1 1.6-.8 2 2 0 0 1 1.5.7c.4.5.6 1.2.6 2.1v2.5c0 1-.2 1.7-.6 2.2a2 2 0 0 1-1.5.7 2 2 0 0 1-1.6-.7c-.4-.5-.6-1.2-.6-2.2zm3.5.4V234c0-.6-.1-1-.4-1.3-.2-.3-.5-.4-1-.4-.3 0-.7.1-.9.4-.2.3-.3.7-.3 1.3v3.2c0 .6 0 1 .3 1.3.2.2.6.4 1 .4s.7-.2 1-.4c.2-.3.3-.8.3-1.3zm5.9 2.1V234c0-1.1-.4-1.7-1.2-1.7s-1.3.6-1.3 1.7v5.5h-.8v-7.7l.3-.1h.4l.1.3v.3c.3-.4.7-.7 1.3-.7.6 0 1.1.2 1.5.7.3.5.5 1.2.5 2.1v5.2h-.7l-.1-.2zm6 0V234c0-1.1-.4-1.7-1.2-1.7s-1.3.6-1.3 1.7v5.5h-.8v-7.7l.3-.1h.4l.1.3v.3c.3-.4.7-.7 1.3-.7.6 0 1.1.2 1.5.7.3.5.5 1.2.5 2.1v5.2h-.7l-.1-.2zm2.5-2.5v-2.5c0-1 .2-1.6.6-2a2 2 0 0 1 1.6-.8 2 2 0 0 1 1.5.7c.4.5.6 1.2.6 2.1v1.2h-3.5v1.7c0 .5 0 1 .3 1.3.2.2.5.4 1 .4.3 0 .6-.1.9-.4.2-.2.3-.6.4-1v-.3h.7v.2c0 .6-.1 1.1-.5 1.6a2 2 0 0 1-1.5.7 2 2 0 0 1-1.6-.7c-.4-.5-.6-1.2-.6-2.2zm.8-2.8v.7h2.6v-.7c0-.6 0-1-.3-1.3-.2-.3-.5-.4-1-.4-.4 0-.7.1-1 .4-.1.3-.3.7-.3 1.3zm6.6 4.8l.2.1.1.2v.4h-.3c-.6 0-1-.1-1.2-.5l-.2-1v-9.5l.3-.1h.4l.1.3v9.6c.1.3.3.5.6.5zm3-.3v-9l-.1-.8c-.1-.6-.5-.9-1.2-1h-.2v-.7h.2c.7 0 1.3.2 1.6.7.3.4.5 1 .5 2v8.7c0 1-.2 1.6-.5 2-.3.4-.9.6-1.6.7h-.2v-.7h.2c.5-.1.8-.3 1-.6l.2-.4v-1z"/><path fill="#FFF" d="M263.8 175.8l1.9-.2c0 .5.2.8.4 1 .3.3.6.5 1 .5s.7-.2 1-.5.4-.7.4-1.2-.2-.8-.4-1.1-.6-.4-1-.4l-.8.1.2-1.5c.5 0 .9-.1 1.1-.4.3-.2.4-.5.4-1a1 1 0 0 0-.2-.7 1 1 0 0 0-.8-.3c-.4 0-.6.1-.9.3l-.4 1-1.7-.3c0-.6.3-1 .5-1.4l1-.9 1.5-.3c1 0 1.7.3 2.3 1 .4.4.7 1 .7 1.6 0 .8-.5 1.5-1.5 2a2.3 2.3 0 0 1 1.9 2.4c0 .9-.3 1.6-1 2.2s-1.4 1-2.3 1c-1 0-1.7-.3-2.2-.8s-1-1.2-1-2z"/><path d="M284.2 330.8l16.3-4.3-17.6-2.8zm18.4-8l-56.2-8.1-4.9-24.6 52.3 9z"/><linearGradient id="ah" x1="283.5" x2="300.1" y1="320.5" y2="337.5" gradientUnits="userSpaceOnUse"><stop offset="0" stop-color="#7d7d7d"/><stop offset="1" stop-color="#c7c7c7"/></linearGradient><path fill="url(#ah)" d="M301.4 324.3l-51.6-8.6-8.6-24 51.6 8.6z"/><linearGradient id="ai" x1="273.7" x2="290.5" y1="311.9" y2="329.2" gradientUnits="userSpaceOnUse"><stop offset="0" stop-color="#7d7d7d"/><stop offset="1" stop-color="#c7c7c7"/></linearGradient><path fill="url(#ai)" d="M300.5 326.5l-51.5-8.6-7.8-26.2 51.6 8.6z"/><linearGradient id="aj" x1="248.3" x2="304.8" y1="303.8" y2="332.8" gradientUnits="userSpaceOnUse"><stop offset="0" stop-color="#fff"/><stop offset="1" stop-color="#f7f7f7"/></linearGradient><path fill="url(#aj)" d="M284.2 330.8l-51.5-8.6 8.5-30.5 51.6 8.6z"/><path fill="#6F00FF" d="M241.4 291.1l51.4 8.9-.6 2-51.5-8.7z"/><ellipse cx="241.9" cy="292.4" fill="#007793" rx=".5" ry=".6"/><path fill="#BBB" d="M241.7 292l-.2-.7c0-1 .6-1.7 1.3-1.7.7 0 1.2.8 1.2 1.7a1 1 0 0 1 0 .5l-.5-.1v-.4c0-.7-.3-1.3-.7-1.3s-.8.6-.8 1.3v.6l-.3.1z"/><ellipse cx="244.4" cy="292.8" fill="#007793" rx=".5" ry=".6"/><path fill="#BBB" d="M244.2 292.5l-.1-.8c0-1 .5-1.7 1.2-1.7s1.3.8 1.3 1.7v.5h-.5v-.5c0-.7-.3-1.2-.8-1.2s-.8.5-.8 1.2l.1.6-.4.2z"/><ellipse cx="247" cy="293.3" fill="#007793" rx=".5" ry=".6"/><path fill="#BBB" d="M246.8 292.9l-.2-.7c0-1 .6-1.7 1.3-1.7.7 0 1.2.7 1.2 1.7v.4h-.5v-.4c0-.7-.3-1.3-.7-1.3s-.8.6-.8 1.3v.6l-.3.1z"/><ellipse cx="249.5" cy="293.7" fill="#007793" rx=".5" ry=".6"/><path fill="#BBB" d="M249.3 293.3l-.1-.7c0-1 .5-1.7 1.2-1.7s1.3.8 1.3 1.7v.4l-.1.1-.4-.1v-.4c0-.7-.3-1.3-.8-1.3s-.8.6-.8 1.3l.1.6-.4.1z"/><ellipse cx="252.1" cy="294.1" fill="#007793" rx=".5" ry=".6"/><path fill="#BBB" d="M251.9 293.8l-.2-.8c0-1 .6-1.7 1.3-1.7.7 0 1.2.8 1.2 1.7v.5h-.5v-.2l.1-.3c0-.7-.4-1.2-.8-1.2-.5 0-.8.5-.8 1.2v.6l-.3.2z"/><ellipse cx="254.6" cy="294.5" fill="#007793" rx=".5" ry=".6"/><path fill="#BBB" d="M254.4 294.2l-.1-.8c0-.9.6-1.6 1.2-1.6.7 0 1.3.7 1.3 1.6v.5h-.5v-.5c0-.6-.3-1.2-.8-1.2s-.8.6-.8 1.2l.1.6-.4.2z"/><ellipse cx="257.2" cy="295" fill="#007793" rx=".5" ry=".6"/><path fill="#BBB" d="M257 294.6l-.1-.7c0-1 .5-1.7 1.2-1.7s1.2.7 1.2 1.7v.5l-.5-.1v-.1l.1-.3c0-.7-.4-1.3-.8-1.3s-.8.6-.8 1.3v.6l-.3.1z"/><ellipse cx="259.7" cy="295.4" fill="#007793" rx=".5" ry=".6"/><path fill="#BBB" d="M259.5 295l-.1-.7c0-1 .6-1.7 1.2-1.7.7 0 1.3.8 1.3 1.7v.4l-.1.1h-.4v-.5c0-.7-.3-1.3-.8-1.3-.4 0-.8.6-.8 1.3l.1.6-.4.2z"/><ellipse cx="262.3" cy="295.8" fill="#007793" rx=".5" ry=".6"/><path fill="#BBB" d="M262 295.5v-.8c0-.9.5-1.7 1.2-1.7s1.2.8 1.2 1.7v.5h-.5v-.2l.1-.3c0-.7-.4-1.2-.8-1.2s-.8.5-.8 1.2v.6l-.3.2z"/><ellipse cx="264.9" cy="296.3" fill="#007793" rx=".5" ry=".6"/><path fill="#BBB" d="M264.6 296v-.8c0-1 .5-1.7 1.2-1.7.6 0 1.2.7 1.2 1.7v.4h-.5v-.4c0-.7-.3-1.3-.7-1.3-.5 0-.9.6-.9 1.3l.1.6-.4.1z"/><ellipse cx="267.4" cy="296.7" fill="#007793" rx=".5" ry=".6"/><path fill="#BBB" d="M267.2 296.3l-.1-.7c0-1 .5-1.7 1.2-1.7s1.2.8 1.2 1.7v.5l-.5-.1v-.1l.1-.3c0-.7-.4-1.3-.8-1.3s-.8.6-.8 1.3l.1.6-.4.1z"/><ellipse cx="270" cy="297.1" fill="#007793" rx=".5" ry=".6"/><path fill="#BBB" d="M269.8 296.8l-.2-.8c0-1 .6-1.7 1.3-1.7.6 0 1.2.8 1.2 1.7v.5h-.5v-.5c0-.7-.3-1.2-.7-1.2-.5 0-.9.5-.9 1.2 0 .2 0 .4.2.6l-.4.2z"/><ellipse cx="272.5" cy="297.6" fill="#007793" rx=".5" ry=".6"/><path fill="#BBB" d="M272.3 297.2l-.1-.8c0-.9.5-1.6 1.2-1.6s1.3.7 1.3 1.6l-.1.5h-.4v-.5c0-.6-.3-1.2-.8-1.2-.4 0-.8.6-.8 1.2l.1.7-.4.1z"/><ellipse cx="275.1" cy="298" fill="#007793" rx=".5" ry=".6"/><path fill="#BBB" d="M274.9 297.6l-.2-.7c0-1 .6-1.7 1.3-1.7.7 0 1.2.7 1.2 1.7v.5l-.5-.1v-.4c0-.7-.3-1.3-.7-1.3-.5 0-.8.6-.8 1.3v.6l-.3.1z"/><ellipse cx="277.6" cy="298.4" fill="#007793" rx=".5" ry=".6"/><path fill="#BBB" d="M277.4 298l-.1-.7c0-1 .5-1.7 1.2-1.7s1.3.8 1.3 1.7v.5h-.5v-.5c0-.7-.3-1.2-.8-1.2-.4 0-.8.5-.8 1.2l.1.6-.4.2z"/><ellipse cx="280.2" cy="298.8" fill="#007793" rx=".5" ry=".6"/><path fill="#BBB" d="M280 298.5l-.2-.8c0-.9.6-1.6 1.3-1.6.7 0 1.2.7 1.2 1.6v.5h-.5v-.5c0-.6-.3-1.2-.7-1.2-.5 0-.8.6-.8 1.2v.6l-.3.2z"/><ellipse cx="282.7" cy="299.3" fill="#007793" rx=".5" ry=".6"/><path fill="#BBB" d="M282.5 299l-.1-.8c0-1 .5-1.7 1.2-1.7s1.3.7 1.3 1.7v.4l-.1.1-.4-.1v-.4c0-.7-.3-1.3-.8-1.3-.4 0-.8.6-.8 1.3l.1.6-.4.1z"/><ellipse cx="285.3" cy="299.7" fill="#007793" rx=".5" ry=".6"/><path fill="#BBB" d="M285 299.3v-.7c0-1 .5-1.7 1.2-1.7s1.2.8 1.2 1.7v.5l-.5-.1v-.1l.1-.3c0-.7-.4-1.3-.8-1.3-.5 0-.8.6-.8 1.3v.6l-.3.1z"/><ellipse cx="287.8" cy="300.1" fill="#007793" rx=".5" ry=".6"/><path fill="#BBB" d="M287.6 299.8l-.1-.8c0-1 .6-1.7 1.2-1.7.7 0 1.3.8 1.3 1.7v.5h-.5v-.5c0-.7-.3-1.2-.8-1.2-.4 0-.8.5-.8 1.2l.1.6-.4.2z"/><ellipse cx="290.4" cy="300.6" fill="#007793" rx=".5" ry=".6"/><path fill="#BBB" d="M290.2 300.2l-.1-.7c0-1 .5-1.7 1.2-1.7s1.2.7 1.2 1.7v.4h-.5v-.2l.1-.2c0-.7-.4-1.3-.8-1.3s-.8.6-.8 1.3v.6l-.3.1z"/><path fill="#02B5ED" d="M290.5 308v-.2l-11.6-2 1.8-6.5h-.2l-1.8 6.5-11-1.8 1.8-6.4h-.2l-1.8 6.4-10.5-1.8 1.8-6.3h-.2l-1.8 6.3-10.5-1.7 1.8-6.4h-.2l-1.8 6.3-7.1-1.2v.2l7 1.2-1.8 6.7-7-1.2v.2l7 1.2-2 7-7-1-.1.1 7 1.2-2.5 8.6h.2l2.5-8.6 10.5 1.8-2.4 8.6h.2l2.4-8.6 10.5 1.8-2.4 8.5h.2l2.4-8.5 11 1.8-2.4 8.4h.2l2.3-8.4 11.8 2v-.2l-11.7-2 2-7 11.9 2v-.3l-11.8-2 1.8-6.6 11.7 2zm-23-3.8l-1.9 6.6-10.5-1.7 1.9-6.6 10.5 1.7zm-21.3-3.5l10.6 1.7-2 6.6-10.4-1.7 1.8-6.6zm-3.9 14l2-7.2 10.5 1.8-2 7-10.5-1.7zm10.8 1.7l2-7.1 10.5 1.7-2 7.1-10.5-1.7zm21.6 3.6l-11-1.8 2-7.1 11 1.8-2 7.1zm2-7.3l-10.9-1.8 1.9-6.7 10.9 1.9-1.9 6.6z"/><path fill="#E5E5E5" d="M246 300.5l-1.8 6.8-6.9-1.2-4.6 16.1 39.5 6.6 2.6-8.6 11.8 2 3.9-14.2z"/><g fill="#6F00FF"><path d="M249.7 320c0-1-1.1-1.7-2.5-1.7h-.1l.1.6c0 .9-1 1.7-2.3 1.7.3.7 1.1 1.1 2.1 1.2.7.5 2 .9 2 .9-.6-.5-.7-.9-.7-1.1.8-.3 1.4-.9 1.4-1.6z"/><path d="M246.8 318c-.4-.6-1.3-1.1-2.4-1.1-1.4 0-2.5.8-2.5 1.7 0 .7.6 1.3 1.4 1.6 0 .2 0 .6-.6 1 0 0 1.2-.3 1.9-.8 1.3 0 2.3-.8 2.3-1.8l-.1-.6z"/></g><g fill="#6F00FF"><path d="M282.7 318.8l-.9-.1-.1 1-2.1-.3.7-4.2 2.9.5-.2 1.1h.3l.3-1.3-3.5-.6-.8 4.7 2.6.4 1-.8.2-1h-.3z"/><path d="M285 317.8l-1.3-1.3-.2.5-1.7-.3-.2 1.2 1.7.3v.5l1.8-.8zm-1.4.5v-.2l-1.7-.4.1-.8 1.7.3h.1v-.2l.9.8-1 .5z"/></g><g fill="#6F00FF"><path d="M258.2 310.7l-1 5.4 3 .5.2-1.1 1 .2.8-4.3-4-.7zm1.5 1.5l-1.3-.2v-.2l1.4.2v.2zm1.7 1.1l-3-.5v-.2l3 .5v.2zm-.1.5l-3-.6v-.2l3 .6v.2zm-.1.4l-3-.5.1-.2 3 .5-.1.2zm-1.4-2.4l-1.3-.3v-.2l1.3.3v.2zm-.6 3.3l-1.3-.2v-.2l1.3.2v.2zm0-.4l-1.2-.2v-.3l1.3.3v.2zm1.7.3c0 .2-.2.3-.3.2-.2 0-.3-.1-.3-.3s.2-.3.4-.3.3.2.2.4z"/><path d="M260.5 316.6l.9-.8-.8-.1z"/></g><path fill="#6F00FF" fill-rule="evenodd" d="M268.4 310.6h.4l.5-3.3h-.4l-.5 3.3zm5.3-2.7l.2-1.4-2.1-.3-.2 1.4-.9-.1-.5 3.4 3.5.5.5-3.4h-.5zm-1.9 2.5h-.4v-.5h.5v.5zm.1-.7h-.4v-.5h.5v.5zm.1-.6l-.4-.1v-.4h.5l-.1.5zm.6 1.4h-.4v-.5h.4v.5zm0-.7h-.3v-.5l.4.1v.4zm.2-.6l-.5-.1.1-.4h.4v.5zm.5 1.4h-.4v-.5h.5v.5zm.1-.7h-.4v-.4h.5v.4zm.1-.6h-.4v-.5h.5v.5zm.4-.8l-2.7-.3v-.4h.3v.2l2.1.3v-.2h.3v.4zm-5 2.4l1.2.1.5-3.9-1-.2-.6 4zm4.7-4l-1.6-.3v-.1l1.6.2v.1zm0 .3l-1.6-.2v-.1l1.5.2v.1z" clip-rule="evenodd"/><g fill="#6F00FF"><path d="M266.1 324.3c-.3-.2-.2-.3-.2-.3-.8 1-1-.2-1-.2-.1.2-.7.2-.7.2l-.3.1c-.3.4-.5 1.2-.5 1.2v.2c.5.4 1.4.6 1.4.6 1 .2 1.7 0 1.7 0h.1c.2-.6 0-1.3 0-1.3 0-.2-.5-.5-.5-.5z"/><path d="M264.8 323.2c0 .4.2.8.5.9.3 0 .7-.3.8-.6l.1-.2s.1-.2 0-.2c.1 0 .3-.4.1-.7l-.3-.3-.2-.2h-.3s-.4.1-.5.4l-.1.6c-.1-.1-.1.2-.1.2zm1-1.3h-.1z"/></g><g fill="#6F00FF"><path d="M268.9 324.1c-.3-.1-.2-.2-.2-.2-.8 1-1-.2-1-.2l-.7.2-.3.1c-.3.3-.5 1.2-.5 1.2v.2c.5.4 1.4.6 1.4.6 1 .2 1.7 0 1.7 0h.1c.2-.6 0-1.4 0-1.4 0-.2-.5-.5-.5-.5z"/><path d="M267.6 323c0 .4.2.9.5 1 .3 0 .7-.3.8-.7h.1v-.3c.1-.1.3-.5.1-.7 0 0 0-.2-.3-.3l-.2-.3s-.2 0-.2.2v-.1h-.1s-.4 0-.5.4l-.1.5-.1.2v.2zm1-1.2h-.1z"/></g><path fill="#6F00FF" d="M246.6 299.9l1.6 4.1-3.5 2.7zm25.8 28.8l-2.2-5.3 4.6-3.7z"/><path fill="#6F00FF" d="M290.5 308v-.2l-11.6-2 1.8-6.5h-.2l-1.8 6.5-11-1.8 1.8-6.4h-.2l-1.8 6.4-10.5-1.8 1.8-6.3h-.2l-1.8 6.3-10.5-1.7 1.8-6.4h-.2l-1.8 6.3-7.1-1.2v.2l7 1.2-1.8 6.7-7-1.2v.2l7 1.2-2 7-7-1-.1.1 7 1.2-2.5 8.6h.2l2.5-8.6 10.5 1.8-2.4 8.6h.2l2.4-8.6 10.5 1.8-2.4 8.5h.2l2.4-8.5 11 1.8-2.4 8.4h.2l2.3-8.4 11.8 2v-.2l-11.7-2 2-7 11.9 2v-.3l-11.8-2 1.8-6.6 11.7 2zm-23-3.8l-1.9 6.6-10.5-1.7 1.9-6.6 10.5 1.7zm-21.3-3.5l10.6 1.7-2 6.6-10.4-1.7 1.8-6.6zm-3.9 14l2-7.2 10.5 1.8-2 7-10.5-1.7zm10.8 1.7l2-7.1 10.5 1.7-2 7.1-10.5-1.7zm21.6 3.6l-11-1.8 2-7.1 11 1.8-2 7.1zm2-7.3l-10.9-1.8 1.9-6.7 10.9 1.9-1.9 6.6z"/><g fill-rule="evenodd" clip-rule="evenodd"><circle cx="276.4" cy="274.3" r="7.8" fill="#FFF"/><path d="M283.3 278.5a8.6 8.6 0 1 0-14 1.1l-.4-.3-1.5 2.4 6.1 3.6 1.4-2.4-.4-.3c3.4.6 7-.9 8.8-4zm-11 1.9a7.1 7.1 0 1 1 7.3-12.3 7.1 7.1 0 0 1-7.3 12.3zm-.5 7.8l-6.1-3.6 1.4-2.4 6.1 3.6zm-7.1-1.8l2.1 1.2-.4.7 1.9 1.1.4-.7 2.1 1.3.7-1.2-6.1-3.6z"/><path d="M279.4 273l-.3-.4-2.1-.4-1.1-1.5-.7-.1-3 9.5.4.3 6.9-7.2v-.1zm-6.3 6.2l2.5-8 1.2 1.3 2 .5-5.7 6.2z"/></g><path d="M256 389.2c-.7-3-2.1-5.2-3.7-7.4-1.6-2-2.8-4.6-4.2-6.8-1.2-2.6-3.2-4.2-4.4-6.8-1-2.6-1.7-5.7-3.3-7.8l-.5-2.4-.9-1.4c0-2.9-1.4-4.6-2.7-6.4-1.2-.8-2.3-1.8-3.7-2.5-1.1-1-2.6-1.5-3.8-2.2-1.6-.4-3-.8-4.1-1.6l-3.7-2c-.5-.4-1.1-.8-1.6-1.4-.8-.3-1-1-1.9-1.1-.3-.7-.9-1.1-1.3-1.7-.3-.3-.7-.6-1.2-.7v-3l.3.1c.6-1 .4-2.4.2-3.6 0-.6.3-1.3.5-1.9.2-.6.3-1.1.3-1.8.1-1.1.7-2 .6-3.3 0-.9.2-1.9 0-2.8l-.4-1.5h.7c.2 0 .4-.3.5-.4-.3.2-.8.3-1 0l-.1-.2c-.2-.3 0-.4-.3-.6l-.1-.3c-.2-1-.7-2-1.5-2.6a2 2 0 0 0-1-.6l-.3-.6a.6.6 0 0 1-.2-.5l.2-.2-.5.1a1 1 0 0 1-.3-.2c-.1-.1-.3-.3-.5-.3-.1-.2-.1-.4-.3-.5l.3-.3-.4.2h-1c-.1-.2 0-.4-.3-.4s-.5-.1-.7-.3c-.4-.3-1.1-.3-1.6-.2-.7 0-1.3-.2-2-.3l-.4.2-1-.3-.8.1-1-.2c-.8-.2-1.7-.6-2.2-1.4a3 3 0 0 0 1.1 1.6l-.8-.3c0 .2 0 .3-.2.3-.4-.1-.8-.3-1-.7 0 .5.5.9.9 1.1-.5 0-1-.1-1.4-.3.4.4 1 .6 1.5.8l-.3.2h.8l.2.2.2.2-.4.1-.2-.1c-1-.3-1.7 0-2.4 0-.6 0-1.3-.3-1.8-.9a2.9 2.9 0 0 0 .9 1.2h-.2c.2.2 2.2.7 1 .9-1 0-1.7 0-2.6-.2-.3 0-.6-.2-1-.4.4.5 1 .8 1.5 1l.5.2h-.8c-.7-.3-1.6-.6-2.4-.4 1 0 1.6.6 2.4 1l-.8.3c-.6.2-1 .7-1.4 1l-.6.5c-.2.2-.3.4-.6.5-.3.4-.7.6-1.2.7-.4.2-1 0-1.4-.3.3.5.9.8 1.5.8h.7l-.7.5c-.4.3-.8.6-1.3.5.5.3 1.1 0 1.6-.1l.8-.4h.4l.2-.3a16.2 16.2 0 0 0 .5-.2l-.9.8s-.2 0-.3.2l-1.2.5c-.5 0-1-.1-1.4-.4.3.4.8.8 1.4.9.6 0 1.2-.1 1.7-.3l.2-.1-.3.4-.8.4c-.6.2-1.3 0-2 0 .6.2 1.3.6 2.1.6a2 2 0 0 0 1-.4h.1c-.5.6-.9 1.1-1.5 1.5.6-.1 1-.4 1.5-.8v.2l-1.4 1.7c.4-.2.8-.5 1-.8v.4l-.5.2h.5v.3h-.1.1v.1c0 .4-.3.6-.4 1v.1c0 .5 0 1.1.2 1.6 0 .4-.6.2-.6.5-.2 0-.3.3-.3.6.3.3.8.4 1.4.4-.2.3-.6.3-.6.7.2.1.4-.3.5 0-.3.9-.3 2-.8 2.6.3.5.2 1.3.2 2 .2 0 .1.2.1.4l.8 2.2.8 1.3c.2.7-.3.8-.2 1.4.1.7.4 1 .6 1.6 0 2.4.5 4.5 3 4.3.4.3-.5.4-.5.7l-.8.8c-1.3.3-2.3 1-3.5 1.4-1 .7-2.3 1-3.2 1.9a22 22 0 0 0-5.7 4.3c-.1.5-.5.9-.7 1.3l-.5 1.5c-.1.5-.6.7-.7 1.2l-.8 2.5-.2 4c-1.3 3.7-1.6 8.4-2.8 12.2-.7 1.3-1.2 2.7-2 3.8 0 .8-.4 1.3-.5 2-3.8-1.3-7-3.2-10.2-5.1-1.6-1-3-2.2-4.5-3.3-1.6-.9-3-2.2-5.4-2.3-1 0-1.1.5-1.7.8l-1.5-1.8-2.5-1.7-1.9-.5c-.4-.3.6-.6.1-1l-3.8-.3c-1-.5-2.2-1.2-3.4-1-.1.3-.2.6-.4.7-.3 1 .5 1.3.8 1.9-.5.4-1.4.5-1.8 1-.3.4-.3 1.4 0 2-1.3-.2-2.5-.4-3.2-1-.6 0-.8-.3-1.4-.2-.8-.4-1.4-.8-2.3-1a3 3 0 0 0-2.2.6c0 .5.6.5 1 .8.3.2.7.3 1 .6l2.4 1 4.8 1.9 1.3 1.5c1.7.5 4 .4 5.5 1 2 .3 3.6.9 5.5 1.2.2 1.4.5 2.6 1 3.7 1.6 1.4 3.4 2.6 5 4.1.5.2.8.7 1.3 1l1.2 1a141.7 141.7 0 0 1 12.6 10c1.7.6 3.2 1.4 4.8 2.3 1.7-.1 3 .2 4.7 0 1.2-.4 2.2-1 3.3-1.5.2 1 .2 3.2.7 4.3 0 .4-.5.6-.5 1.1 0 1.6-.2 3-.1 4.8.2 0 0 .6.2.7 0 .3.5 0 .4.4-.2 4.2-.3 8.6-.8 12.4-.6 3.9-1 7.8-1.5 11.8-.1.6.4.5.5.7-.5 6.3-1.3 12.6-1.6 19-.2 6.7 0 13.4-.3 20.1-.1 1.7-.1 3.4-.3 5 0 1.5-.4 3-.5 4.5l-.7 9.7-.2 5c-.3 4.4-.8 9.8-.4 14.8.3 3.3 1.2 6 1.7 9v2.3c-.7 1.5-1.5 3.3-1 5.4-.4.7-1 1.2-1.6 1.8-.7.4-1 1-1.7 1.5-.4 1-.9 1.6-1 2.7-1 1.4-2.7 2-4.2 3-1.6.7-3.2 1.5-5 2l-1.1.7c-2.3.7-4.8 1.1-6.6 2.3l-.3 1c.3.6-.7.5-.2 1 0 .6.7.5 1.2.6 3.9.4 8.3.8 12.6 1a25.4 25.4 0 0 0 11.6-2.2c.5-.1.5.2.6.4.2.2.6.1.7.4 1.2.2 2.2.7 3.3 1l.5.1c1.4 0 3 0 4.2-.2 1.5 0 3 0 3.8-.6v-3c.1-.6 0-.9-.3-1 .5-1.3 1-3 .6-4.6-.3-.7-.6-1.4-1-1.9 0-.3.4-.3.5-.4l.4-.6c.3-2.2 1.3-3.7 1.8-5.7v-.5c0-4 .5-7.2.8-10.9l.9-8.2 1.4-12.2c.3-4.2.5-8.4 1-12.5 1.1-8.2 1.7-16.3 3.3-24l2.3 13.7 1.6 10.3.7 3.2c1.7 9 2.8 18.2 4.6 27 .5 3.1 1.2 6 1.8 9 .4 1.3.7 2.7 1.3 3.8a46 46 0 0 1 1.4 3.8c.2 1.6.2 3-.4 4l1 2-.6 2.2c.1 2.3.5 4.2.8 6.2.5.4 1 .6 1.8.7l-2 4-2 2.7-1.8 2.8c-.2.9-.3 2-.6 2.8.2 1.3-.3 2.2 0 3.4.9.8 2.8.5 4.5.5 4.6-.7 9.5-1.1 12.9-3l.4-.3a7.4 7.4 0 0 0 1.4-4.1h1.8a6 6 0 0 0 2.6-2.1c0-1.2-.2-2.4-.4-3.6.1-.6-.4-.6-.6-1 .3-1.3.3-3-.4-3.8.5-.8 1.3-1.5 1.8-2.4.1-4.3.1-8.4-.2-12.4l-.6-3.6c-1.2-8.3-2.2-16.9-2.8-26-.6-3.8-1.7-7.7-2.5-11.4a244 244 0 0 1-2.7-20.3l-1.7-16.9-2.3-16c1.2-.5 3-.4 4-1 .3-4-.1-8.7-.4-13 .2-.8 1-1.2 1.4-1.8.9-2.2 2.1-4 2.5-6.7.3-.3 1-.3 1.3-.6.6-.3 1-.7 1.4-1 .4-.2.5-.6.7-.9l.8-.7c.4-.6.9-1 1.2-1.7l4.9-3.4c1.6-1.2 3-2.5 4.7-3.6.9-1.3 2-2.3 3-3.5l1.7-4c0-1.4-.2-3.2 0-4.5zm-112.6-17.9c0-.3-.3-.3-.3-.5 1 .2 1.5-1.4 2-.3-.8 0-1.1.6-1.7.8zm53.7-56.5v.1l-.1.2v-.3zm38.3 82.6l-3.7 4.5-.6.6c-.2 0-.2.2-.3.2 0 .2-.3.4-.3 0l-.2-5.7c.2-2.5.1-4.9.5-7.2.3-2.3.9-4.5 1.2-6.6v-.2l.2.4c2 2 3.7 4.1 4.8 7 .5.6 1.1 1.2 1.5 2-1 1.7-1.9 3.5-3.1 5z"/><path d="M49.7 443.4c0 1 .7 3.4 1.2 4.2.5.8 1.7 1.7 2.2 2.7.3-1 .6-1 1.5-.6-.2-.6.3-1 0-1.8-.2-.6-.9-.9-1.2-1.4-.1-.8-.7-1.2-.8-2 .2-.2.6.6 1 0 .6-1.2-.4-2.1 0-3.3.3-1.4 1.5-2.1 2.5-3 0 2.3-1.4 3.3-1.7 5.3.6.6 2 .9 2.8-.2.4-.5.2-1.2.5-2 .2-.6 1-1.3 1.2-2l.6-1.6c.4-.7 1.4-1.1 1.8-1.8.9-1.7-.6-3.8.4-5 .7.5 1.4 1 1.3 2.1 2.8-2 3.4-6 4.3-9.5 2.7-10.8 5.8-22 8.3-33 2.2 4.4 1.4 11 .7 16.4-.3.6-.8.8-1 1.4-.6 2.5-1.4 4.8-2.3 7 0 .6.5.5.2 1-2.5 5.7-2 14.7-2.8 22.3H72c.1 11 1.2 22.3 1.7 32.8 2.1 1.8 5.6 2.3 9.4 2.4.6 1.6 1.5 3.4 2 5.4.3 1.3.2 2.8.6 4.1.2.8.8 1.5.9 2.6.3 2.8-.3 5.9-.2 8.8 0 4.3 1.1 7.6 1 12.5l-.7 8.8c-.5 5.2-.5 9.4-2.3 12.9.2 1.7-.6 2.5-1 3.6-1.1.6-1.7 1.7-2.1 2.9 0 .4 0 .6.2 1-1 1.4-1.7 3.2-3.8 3.6-.8 1.4-2 2.8-1.5 4.6-.5.5-1 1-.8 2.1.6.6 1.5.8 2.4 1 4.4.3 9-1.1 11.7-2.8.3-.8.8-1.5 1-2.4 1.4-.8 4.2-2.5 2.4-4.5.9-1 .1-2.2 0-3.6-.1-.6.2-1 0-1.4-.1-.8-1-1.4-1.5-1.8l.2-1.3c-1.1-2.7.5-5.2 1-7.7l1.9 5.5c.5 1.7 1.4 3.7 1.5 5.7.1 2-1.2 4.6-.1 6.4-1 2.5-3 4.2-3.6 7.2-.7.4-1.1 1-1.7 1.8-.7.9-.4.8-.7 2-.1.8-.5 1.2.1 2.1 1.4 1.9 7.5 2.7 10.3 1.8.8-.7 2-1.7 1.3-3.2.6-2 .2-3.7.3-5.8.7-1.3.7-4.2 0-5.5.3-1 1-1.8 1-3 0-1.3-1.3-3.1-1.5-4.9a131 131 0 0 1-.2-20c.2-4.2.5-8.5.1-12.3 0-.5-.3-1-.3-1.6 0-1.1.4-2.3.5-3.5.6-5 0-10-1.8-14 .5-2.6 1.8-4.4 2.6-6.8 2.1 0 4.9.4 5.8-.9a635 635 0 0 0 5.7-32.7c.8-.5 1.8-.8 2.5-1.5a55.4 55.4 0 0 0-4.6-30.5c-2.2-6.9-1.4-16.8-2-25.3 1.3 1.3 1.5 3.6 2.6 5.3.3.5 1 .8 1.3 1.4.4.7.4 1.6.9 2.2l1.5 1.7c.5.5 1.3 1 2.2 1 .7 0 1.3-.5 2-.6.6-.2 1.2 0 1.8-.3a4 4 0 0 0 1.6-1.4c2.8-5.8-.3-13.4.3-20.6 1-1.3 2.5-2.3 3.9-3.4.4-2.3 2.3-3.3 3.5-5-.2-.5-.2-1.3-.7-1.6a18 18 0 0 0 3.2-5.6c.7-.7 1.8-.9 2-2-1.6-1-3.5.5-5.4 1.8-1.3.8-2.3 2-3.4 2.7-1 .6-2 .8-2.5 1.8-.5.2-1.4 0-1.7.4-1.8-1-.3-3.7-.6-5.8 0-.8-.8-2.4-1.5-2.5-.6 0-1.3 1-1.5 2-.2.9.2 2 .1 2.8a17 17 0 0 1-1.8 6c-.2.7 0 1.7-.3 2.3-.7-.5-.8-1.6-1-2.4-.1-.9-.1-2-.5-2.8-.4-1-1.6-1.8-2.4-2.7-.8-1-1.4-2-2.3-2.7-2.2-.3-4.4-.2-6.4-.4a8.7 8.7 0 0 1-3.5-1c-.4-.3-.5-.8-.9-1-1.1-1.2-2.8-1.4-3.9-2.6l.2-1c.5 0 .7.3.8.6l1.8.3a6 6 0 0 0 1.3 1.8c-.4-.7-.8-1.5-.9-2.3.3.8 1 1.5 1.4 2-.6-.9-1.4-2-1.4-3v-.1c.2-.8.8-1.4 1.3-2.3.1.8.3 1.5.6 2.2-.2-1-.3-2-.2-2.9l.2.6c.1.1.1.4.3.5.3.8.7 1.5 1.2 2.2l-.9-1.8 1.2 1.3a8.2 8.2 0 0 1-1.6-3.4l.3-1.5.3-.9.1-.4.3-1.5v-.2l.2-1.2.7 1.5a8 8 0 0 1-.5-3 12.8 12.8 0 0 0 1.4 2.5c-.4-1-.8-2-1-3 .3.5.8 1 1.4 1.1a3 3 0 0 1-1.6-1.7v-.7c.3.4.7.8 1.2 1-.8-.4-1.2-1.3-1.3-2v-1c-.1-.5-.2-1-.5-1.5-.1-.8-.4-1.6-.7-2.3l-.2-.4-.1-.1c.5.1 1 .2 1.4 0-.6.1-1.2-.1-1.7-.5l-.2-.3-.4-.5-1-1-.9-.8-.4-.4-.1-.2c0-.7-.3-1-.5-1.4a6 6 0 0 0-.8-1l-1.3-1-1.6-.5h-1.6a3 3 0 0 0-.8.1l-.9.2-1.4.8h-.1l-.2.1c-.3.2-.6.3-.9.2-.3 0-.5-.3-.7-.5.1.3.3.6.6.8a2 2 0 0 1-1.4 0c-.5-.2-.8-.7-1-1.1.1.5.4 1 .9 1.2.4.3 1 .3 1.4.2l-.7.4c-.3-.2-.7-.3-1-.2-.4 0-.8.2-1 .4a4 4 0 0 0-.5.3l-1.1.5c-1 .5-1.7 1.4-2.3 2.3l-.8 1.2c-.3.3-.8.6-1.3.4.5.3 1 .1 1.5-.2l.5-.5-.6.6c0 .5-.2.9-.3 1.3-.3.4-.6.7-1 .6-.4 0-.7-.4-1-.7.2.3.5.7 1 .8.3.1.7 0 1-.3v.1l-.2.2v.2l-.4.7-.3.5-.3.5c-.5.6-1 1-1.8 1 .4.1.9 0 1.3-.2l-.3.2-.2.4c-.3.3-.8.5-1.3.4.5.2 1 0 1.6-.3.3-.1.5-.5.8-.6l-.8 1-1.1 1-.4-.1h.3a4 4 0 0 1-1.8.5c.9.2 1.8 0 2.7-.5.1 0 .4 0 .3-.1h.2l-.1.2h-.3v1.9a3 3 0 0 0-.3 1.3c-.2.3-.3.5-.6.6-.3.1-.7 0-1-.1.2.2.6.4 1 .3.2 0 .3 0 .4-.2-.2.4-.4.8-.9 1 .4-.1.8-.4 1.1-.8v.7c0 .4-.2.8-.4 1.2-.2.2-.3.3-.5.2-.2 0-.4-.2-.5-.4 0 .2.2.4.4.5.3.2.6 0 .8-.1l.8-1.3a18.3 18.3 0 0 1 0 .6v1.7c-.3.3-.6.4-1 .4l.8-.1-.3.6.6-.8.2-.3.3-.6c.2.2-.1.6.1.8h.1v.7l-.4.9c-.3.2-.6.2-1 .1.4.2.8.2 1 0 .4-.2.6-.5.7-.9l.2-.8c.2.6.3 1.2.2 1.7 0 .8-.6 1.4-1.4 1.5.4 0 .8-.1 1.1-.4.3-.2.5-.5.6-.8v.1c0 .5-.2 1-.5 1.4a2 2 0 0 1-1.2.8c.5 0 1-.3 1.4-.6.4-.4.7-1 .8-1.5a7 7 0 0 0 .2-2.5c.3.8.4 1.7.3 2.4 0 .5-.2 1-.5 1.4a2 2 0 0 1-1.2.8c.5 0 1-.2 1.4-.6.4-.3.6-.8.7-1.2.1.3.2.7.6.8v.2c0 .6 0 1.3-.5 1.8.4-.3.7-.9.9-1.4l.1-.4.4.7s-.3 0-.3.3c.2 0 .4 0 .5-.2 0 .2.2.3.4.4.1 1.6.4 3.1.7 4.6l-1.5.5a11 11 0 0 1-2.4 2.4c-.5 1.4-1.5 2.1-2.3 3.3-1 .7-2.4 1.5-2.9 2.4-1.6.6-2.9 1.3-4.2 2.4-.6.6-1.3 1-1.6 1.6-.8 1-.9 2.6-1.7 3.9a53 53 0 0 1-3.3 17c-3.4 10.6-5.2 22.2-7.2 34.5-.4 2.8-2.2 7.1.2 8.3-2 3.8-5.2 6.3-7.3 10l-.4 3.5c0 .5-.3.9-.3 1.2zm28.5-103.8v.3h-.1l.1-.3zm23.2 201.8c.6 0 1 1 .5 1.3 0-.6-.5-.7-.5-1.3zm.1 5.3c0 .2.1.6-.2.5 0-.3 0-.4.2-.5zm-7.8-1.7c-.9 1.6-.1-.2 0 0zM92 532.6c.3 0 .5.4.2.5l-.2-.5zM81.5 339.8l.2.6-.2-.6zm13-16.8l-.6-.2.6.2z"/></svg>