<svg xmlns="http://www.w3.org/2000/svg" viewBox="0 0 320 568"><path fill="#4A4A4A" d="M43.8 461.2h-3.6v-11.1h.7v10.3h2.9l.3.1v.6l-.3.1zm1.5-2.7V456c0-1 .2-1.7.6-2.2s1-.7 1.6-.7a2 2 0 0 1 1.5.7c.4.5.6 1.2.6 2.2v1.1h-3.5v1.8c0 .6 0 1 .3 1.3.2.3.6.4 1 .4.3 0 .7-.1.9-.4.2-.2.3-.6.4-1v-.3h.7v.2c0 .6-.1 1.1-.5 1.6-.3.4-.8.7-1.5.7s-1.2-.3-1.6-.7-.6-1.2-.6-2.1zm.9-2.9v.7h2.5v-.7c0-.6 0-1-.3-1.3-.2-.2-.5-.4-1-.4s-.7.2-.9.4c-.2.3-.3.7-.3 1.3zm8.7-.6v.2h-.5c-.2 0-.3 0-.3-.2 0-.3-.1-.5-.3-.8s-.5-.3-.8-.3-.5.1-.7.3-.3.5-.3.8c0 .2 0 .5.3.8l.8.8a37.4 37.4 0 0 1 1.7 1.6 2 2 0 0 1-1.8 3.1 2 2 0 0 1-1.5-.6 2 2 0 0 1-.6-1.5v-.2h.5c.2 0 .3 0 .3.2 0 .4.2.7.4 1l.9.3a1.3 1.3 0 0 0 1.3-1.3c0-.4-.2-.7-.5-1l-1-1a5 5 0 0 1-1.2-1 2 2 0 0 1-.5-1.2c0-.5.2-1 .6-1.3.4-.4.8-.6 1.3-.6s1 .2 1.3.5c.4.4.6.8.6 1.4zm6.9-.9h-.4c-.3 0-.6.1-.7.5v6.3l-.1.2-.3.1H60l-.1-.3v-7.6h.8v.4c.4-.3.7-.5 1.2-.5h.3v1h-.3zm1.2 4.4V456c0-1 .2-1.7.6-2.2s.9-.7 1.6-.7a2 2 0 0 1 1.5.7c.4.5.6 1.2.6 2.2v1.1h-3.5v1.8c0 .6 0 1 .3 1.3.2.3.6.4 1 .4.3 0 .6-.1.9-.4.2-.2.3-.6.4-1v-.3h.7v.2c0 .6-.1 1.1-.5 1.6-.3.4-.8.7-1.5.7s-1.2-.3-1.6-.7-.6-1.2-.6-2.1zm.9-2.9v.7h2.5v-.7c0-.6 0-1-.3-1.3-.2-.2-.5-.4-1-.4s-.7.2-.9.4c-.2.3-.4.7-.4 1.3zm6.5 4.8l.2.1.1.3v.3l-.3.1c-.6 0-1-.2-1.2-.6l-.2-1v-9.5h.7l.1.2v9.6c.1.4.3.5.6.5zm3.7-6.4c-.7 0-1.1.4-1.2 1.3v.3H72v-.2c0-.6.2-1.1.5-1.6.3-.4.8-.7 1.5-.7 1.4 0 2.1 1 2.1 2.9v4c0 .1 0 .5.2.9 0 .2 0 .3-.4.3h-.5v-.5a2 2 0 0 1-1.6.6 2 2 0 0 1-1.4-.6c-.4-.3-.6-.9-.6-1.6v-.5a2.1 2.1 0 0 1 1.2-1.9c.4 0 .7-.2 1-.3l1-.4.3-.6c0-.4-.1-.8-.3-1s-.5-.5-1-.5zm.1 6.5c.4 0 .7-.2 1-.4l.2-1.1v-2.4a9 9 0 0 1-.8.3 5 5 0 0 0-.8.3c-.7.4-1.1 1-1 1.7 0 1.2.5 1.7 1.4 1.6zm7.2.4v-5.3c0-1.1-.4-1.7-1.2-1.7s-1.3.6-1.3 1.7v5.5l-.3.1H78v-7.9h.7l.1.2v.3c.3-.4.7-.6 1.3-.7.6 0 1.1.2 1.5.7.4.5.5 1.2.5 2.2v5l-.3.1h-.4l-.1-.3zm4.6.4c-.6 0-1.1-.3-1.5-.7s-.6-1.2-.6-2.1V456c0-1 .2-1.7.6-2.2s.9-.7 1.6-.7c.7 0 1.2.3 1.5.7.4.5.5 1 .6 1.6l-.1.2h-.7v-.3c0-.4-.2-.8-.4-1s-.6-.4-1-.4c-.3 0-.7.2-.9.4-.2.3-.4.7-.4 1.3v3.2c0 .6.2 1 .4 1.3.2.3.6.4 1 .4.3 0 .6-.1.9-.4.2-.2.3-.6.4-1v-.3h.7v.2c0 .6-.1 1.1-.5 1.6-.3.4-.8.7-1.5.7zm3.8-2.8V456c0-1 .1-1.7.5-2.2s1-.7 1.6-.7a2 2 0 0 1 1.6.7c.3.5.5 1.2.5 2.2v1.1h-3.4v1.8c0 .6.1 1 .3 1.3.3.3.6.4 1 .4s.7-.1 1-.4c.1-.2.3-.6.3-1v-.3h.7v.2c0 .6-.1 1.1-.5 1.6-.3.4-.8.7-1.5.7s-1.2-.3-1.6-.7-.5-1.2-.5-2.1zm.8-2.9v.7h2.6v-.7c0-.6-.1-1-.3-1.3-.3-.2-.6-.4-1-.4s-.7.2-1 .4c-.2.3-.3.7-.3 1.3zm8.7-.6v.2h-.5c-.1 0-.2 0-.2-.2 0-.3-.2-.5-.4-.8s-.4-.3-.7-.3-.6.1-.8.3-.3.5-.3.8l.3.8.8.8a37.4 37.4 0 0 1 1.8 1.6c.2.3.3.7.3 1 0 .6-.3 1.1-.7 1.5a2 2 0 0 1-1.5.6 2 2 0 0 1-1.5-.6 2 2 0 0 1-.6-1.5v-.2h.5c.2 0 .3 0 .3.2 0 .4.2.7.5 1 .2.2.5.3.8.3a1.3 1.3 0 0 0 1.3-1.3c0-.4-.1-.7-.5-1l-1-1a5 5 0 0 1-1.1-1 2 2 0 0 1-.5-1.2c0-.5.2-1 .5-1.3.4-.4.8-.6 1.3-.6s1 .2 1.3.5c.4.4.6.8.6 1.4zm4.9 8.8v-10.3l.1-.2h.7v.5c.4-.4.8-.6 1.3-.7.7 0 1.2.2 1.5.7.4.5.6 1.2.6 2.2v2.5c0 1-.2 1.6-.6 2.1-.3.5-.8.7-1.5.7-.5 0-1-.3-1.2-.7v3.2l-.1.2h-.7v-.2zm3.4-5v-3.2c0-1.1-.5-1.7-1.3-1.7s-1.2.6-1.2 1.7v3.2c0 1.1.4 1.7 1.2 1.7s1.3-.6 1.3-1.7zm2.4-.3V456c0-1 .2-1.7.6-2.2s.9-.7 1.5-.7a2 2 0 0 1 1.6.7c.4.5.6 1.2.6 2.2v1.1h-3.4v1.8c0 .6 0 1 .3 1.3.2.3.5.4 1 .4.3 0 .6-.1.8-.4.3-.2.4-.6.4-1l.1-.3h.7v.2a3 3 0 0 1-.5 1.6c-.4.4-.9.7-1.6.7-.6 0-1.1-.3-1.5-.7s-.6-1.2-.6-2.1zm.8-2.9v.7h2.7v-.7c0-.6 0-1-.3-1.3-.2-.2-.6-.4-1-.4s-.7.2-1 .4c-.2.3-.3.7-.3 1.3zm7.2-1.5h-.3c-.4 0-.6.1-.7.5l-.1 1v5.3l-.1.2-.2.1h-.5v-7.9h.7v.4a2 2 0 0 1 1.2-.5h.3v1h-.2zm5.9 1.5v5.5l-.3.1h-.5v-5.6c0-1.1-.5-1.7-1.3-1.7s-1.2.6-1.2 1.7v5.3l-.1.2-.3.1h-.4v-7.9h.7v.5c.4-.4.8-.6 1.3-.7.8 0 1.4.3 1.7 1 .4-.6 1-1 1.7-1 .6 0 1.1.2 1.5.7.3.5.5 1.2.5 2.2v5l-.3.1h-.4l-.1-.3v-5.3c0-1.1-.4-1.7-1.3-1.7s-1.2.6-1.2 1.7zm5 2.9V456c0-1 .2-1.7.6-2.2s.9-.7 1.5-.7a2 2 0 0 1 1.6.7c.4.5.6 1.2.6 2.2v1.1h-3.5v1.8c0 .6 0 1 .3 1.3.2.3.5.4 1 .4.3 0 .6-.1.9-.4.2-.2.3-.6.3-1l.1-.3h.7v.2c0 .6-.1 1.1-.5 1.6a2 2 0 0 1-1.6.7c-.6 0-1.1-.3-1.5-.7s-.6-1.2-.6-2.1zm.8-2.9v.7h2.6v-.7c0-.6 0-1-.3-1.3-.2-.2-.5-.4-1-.4s-.7.2-1 .4c-.1.3-.3.7-.3 1.3zm6.1-3.8v1.6l.1.2h.6v.7h-.6l-.1.2v5.4c.1.4.3.5.6.5l.2.1v.6l-.2.1c-.6 0-1-.2-1.2-.6l-.2-1v-5.1l-.2-.1-.3-.1v-.6l.3-.1c.1 0 .2 0 .2-.2v-1.8l.3-.1h.4v.3zm3.2 0v1.6l.1.2h.5l.1.3v.4h-.6l-.1.2v5.4c0 .4.2.5.5.5l.3.1v.6l-.3.1c-.5 0-1-.2-1.1-.6l-.2-1v-5.1l-.2-.1-.3-.1v-.6l.3-.1.1-.2v-1.8l.3-.1h.5v.3zm2.1 6.7V456c0-1 .2-1.7.6-2.2s1-.7 1.6-.7a2 2 0 0 1 1.5.7c.4.5.6 1.2.6 2.2v1.1H142v1.8c0 .6 0 1 .3 1.3.2.3.6.4 1 .4s.7-.1.9-.4c.2-.2.3-.6.4-1v-.3h.7v.2c0 .6-.1 1.1-.5 1.6-.3.4-.8.7-1.5.7s-1.2-.3-1.6-.7-.6-1.2-.6-2.1zm.9-2.9v.7h2.5v-.7c0-.6 0-1-.3-1.3-.2-.2-.5-.4-1-.4s-.7.2-.9.4c-.2.3-.3.7-.3 1.3zm8.5 5.3v-5.3c0-1.1-.4-1.7-1.2-1.7s-1.3.6-1.3 1.7v5.5l-.3.1h-.5v-7.9h.7l.1.2v.3c.3-.4.7-.6 1.3-.7.6 0 1.1.2 1.5.7.4.5.5 1.2.5 2.2v5l-.3.1h-.4l-.1-.3zm3.5-9.1v1.6c0 .1 0 .2.2.2h.5v.7h-.5l-.2.2v5.4c.1.4.3.5.6.5l.2.1.1.3v.3l-.3.1c-.6 0-1-.2-1.2-.6l-.2-1v-5.1l-.2-.1-.2-.1-.1-.3v-.3l.3-.1c.1 0 .2 0 .2-.2v-1.8l.3-.1h.4l.1.3zm7.5 2.2c-.7 0-1.1.4-1.2 1.3v.3h-.7l-.1-.2c0-.6.2-1.1.5-1.6.3-.4.8-.7 1.5-.7 1.4 0 2.1 1 2.1 2.9v4c0 .1 0 .5.2.9 0 .2 0 .3-.4.3h-.5v-.5a2 2 0 0 1-1.6.6 2 2 0 0 1-1.4-.6c-.4-.3-.5-.9-.5-1.6v-.5c0-.4 0-.8.3-1.1.2-.3.5-.6.9-.7l1-.4.8-.4c.3-.2.4-.4.4-.6 0-.4-.1-.8-.3-1s-.5-.5-1-.5zm.1 6.5c.4 0 .7-.2 1-.4l.2-1.1v-2.4a9 9 0 0 1-.8.3 5 5 0 0 0-.7.3c-.8.4-1.2 1-1.1 1.7 0 1.2.5 1.7 1.4 1.6zm0-8l-.2-.1-.1-.2-.3-1.5c-.1-.2 0-.3.3-.3h.1c.3 0 .4 0 .4.3v1.6l-.2.1zm8.4 7.9l.3.1v.6l-.3.1c-.6 0-1-.2-1.1-.6l-.3-1v-9.5h.8v8.7l.1 1.1c0 .4.2.5.5.5zm1.2-9.9c0-.1 0-.2.2-.3l.3-.2c.2 0 .4 0 .5.2v.7c0 .3-.2.7-.5 1h-.3v-.2l.2-.5-.2-.3-.2-.4zm4.4 3.5c-.7 0-1.1.4-1.2 1.3v.3h-.8v-.2c0-.6.2-1.1.5-1.6.3-.4.8-.7 1.5-.7 1.4 0 2.1 1 2.1 2.9v4c0 .1 0 .5.2.9 0 .2 0 .3-.4.3h-.5v-.5a2 2 0 0 1-1.6.6 2 2 0 0 1-1.4-.6c-.4-.3-.6-.9-.6-1.6v-.5a2.1 2.1 0 0 1 1.2-1.9c.4 0 .7-.2 1-.3l1-.4.3-.6c0-.4-.1-.8-.3-1s-.5-.5-1-.5zm.1 6.5c.4 0 .7-.2 1-.4l.2-1.1v-2.4a9 9 0 0 1-.8.3 5 5 0 0 0-.7.3c-.8.4-1.2 1-1.1 1.7 0 1.2.5 1.7 1.4 1.6zm4.6-7v5.3c0 1.1.4 1.7 1.3 1.7s1.2-.6 1.2-1.7v-5.5h.8v7.7l-.3.1h-.4v-.6c-.4.4-.8.7-1.4.7-.6 0-1.1-.2-1.5-.7a4 4 0 0 1-.5-2.1v-5.2h.8v.2zm6.1-1.7v1.6c0 .1 0 .2.2.2h.5v.7h-.5l-.2.2v5.4c.1.4.3.5.6.5l.2.1.1.3v.3l-.3.1c-.6 0-1-.2-1.2-.6l-.2-1v-5.1l-.2-.1-.2-.1-.1-.3v-.3l.3-.1c.1 0 .2 0 .2-.2v-1.8l.3-.1h.4l.1.3zm4.4 2.3h-.4c-.4 0-.6.1-.7.5l-.1 1v5.3l-.1.2-.2.1h-.5v-7.9h.7v.4a2 2 0 0 1 1.2-.5h.3v1h-.2zm1.2 4.4V456c0-1 .1-1.7.5-2.2s1-.7 1.6-.7a2 2 0 0 1 1.6.7c.4.5.5 1.2.5 2.2v1.1h-3.4v1.8c0 .6.1 1 .3 1.3.3.3.6.4 1 .4s.7-.1 1-.4c.1-.2.3-.6.3-1v-.3h.7l.1.2a3 3 0 0 1-.5 1.6 2.2 2.2 0 0 1-3.2 0c-.4-.4-.5-1.2-.5-2.1zm.8-2.9v.7h2.6v-.7c0-.6-.1-1-.3-1.3-.3-.2-.6-.4-1-.4s-.7.2-1 .4c-.2.3-.3.7-.3 1.3zm12.4-5.3v10.8l-.3.1h-.4l-.1-.3v-.3c-.3.4-.7.7-1.3.7-.6 0-1.1-.2-1.5-.7-.4-.5-.5-1.2-.5-2.1V456c0-1 .1-1.7.5-2.2.4-.5.9-.7 1.5-.7s1 .3 1.3.7v-3.7h.8v.2zm-3.3 5.3v3.2c0 1.1.4 1.7 1.2 1.7s1.3-.6 1.3-1.7v-3.2c0-1.1-.4-1.7-1.3-1.7s-1.2.6-1.2 1.7zm5.1 2.9V456c0-1 .2-1.7.6-2.2s.9-.7 1.5-.7a2 2 0 0 1 1.6.7c.4.5.6 1.2.6 2.2v.8l-.1.3h-3.3v1.8c0 .6 0 1 .3 1.3.2.3.5.4 1 .4.3 0 .6-.1.8-.4.3-.2.4-.6.4-1v-.3h.8v.2a3 3 0 0 1-.5 1.6c-.4.4-.9.7-1.6.7-.6 0-1.2-.3-1.5-.7s-.6-1.2-.6-2.1zm.8-2.9v.7h2.7v-.7c0-.6 0-1-.3-1.3-.2-.2-.6-.4-1-.4s-.7.2-1 .4c-.2.3-.3.7-.3 1.3zm9.2-3.8v1.6l.2.2h.6v.7h-.6l-.1.2v5.4c.1.4.3.5.6.5l.2.1v.6l-.2.1c-.6 0-1-.2-1.2-.6l-.2-1v-5.1l-.2-.1-.3-.1v-.6l.3-.1.1-.2v-1.6l.1-.2.3-.1h.4v.3zm2.3 6.7V456c0-1 .1-1.7.5-2.2s1-.7 1.6-.7a2 2 0 0 1 1.6.7c.4.5.5 1.2.5 2.2v2.5c0 1-.1 1.6-.5 2a2 2 0 0 1-1.6.8c-.7 0-1.2-.3-1.6-.7s-.5-1.2-.5-2.1zm3.4.3v-3.2c0-.6-.1-1-.3-1.3-.3-.2-.6-.4-1-.4s-.7.2-1 .4c-.2.3-.3.7-.3 1.3v3.2c0 .6.1 1 .3 1.3.3.3.6.4 1 .4s.7-.1 1-.4c.2-.3.3-.7.3-1.3zm3.3-5.3v5.3c0 1.1.5 1.7 1.3 1.7s1.2-.6 1.2-1.7v-5.3l.1-.2h.7v7.7l-.2.1h-.5v-.6c-.4.4-.8.7-1.3.7-.7 0-1.2-.2-1.5-.7-.4-.5-.6-1.2-.6-2.1v-5.2h.8v.2zm6.1-1.7v1.6c0 .1 0 .2.2.2h.5l.1.3v.4h-.6l-.2.2v4.3l.1 1.1c0 .4.2.5.5.5l.3.1v.6l-.3.1c-.6 0-1-.2-1.1-.6-.2-.3-.2-.6-.3-1v-5.1l-.2-.1-.2-.1v-.6l.2-.1c.1 0 .2 0 .2-.2v-1.8l.3-.1h.5v.3zm5.4 6.7V456c0-1 .2-1.7.6-2.2s1-.7 1.6-.7a2 2 0 0 1 1.5.7c.4.5.6 1.2.6 2.2v1.1h-3.5v1.8c0 .6 0 1 .3 1.3.2.3.6.4 1 .4s.7-.1.9-.4c.2-.2.3-.6.4-1v-.3h.7v.2c0 .6-.1 1.1-.5 1.6-.3.4-.8.7-1.5.7s-1.2-.3-1.6-.7-.6-1.2-.6-2.1zm.9-2.9v.7h2.5v-.7c0-.6 0-1-.3-1.3-.2-.2-.5-.4-1-.4s-.7.2-.9.4c-.2.3-.3.7-.3 1.3zm6.8 2.6l-1.2 2.7-.1.3h-.5c-.2 0-.3-.1-.2-.3l1.6-3.7-1.6-3.7c0-.2 0-.3.2-.3h.5l.1.3 1.2 2.7 1.2-2.7.1-.3h.5c.2 0 .3.1.2.3l-1.6 3.7 1.6 3.7c0 .2 0 .3-.2.3h-.5l-.1-.3-1.2-2.7zm3.3 5.6v-10.5h.7v.5c.4-.4.8-.6 1.4-.7.6 0 1.1.2 1.5.7.3.5.5 1.2.5 2.2v2.5c0 1-.2 1.6-.5 2.1-.4.5-.9.7-1.5.7s-1-.3-1.3-.7v3.4h-.8v-.2zm3.3-5v-3.2c0-1.1-.4-1.7-1.3-1.7s-1.2.6-1.2 1.7v3.2c0 1.1.4 1.7 1.2 1.7s1.3-.6 1.3-1.7zm4.6-4.7h-.4c-.4 0-.6.1-.7.5l-.1 1v5.5l-.3.1h-.5v-7.9h.7l.1.2v.2c.3-.3.7-.5 1.2-.5h.2l.1.3v.6h-.3zm2.1-1.6c-.2 0-.4-.1-.4-.3v-.5l.4-.2c.2 0 .3 0 .4.2v.5c0 .2-.2.3-.4.3zm.4 1v7.6l-.3.1h-.5v-7.9h.7l.1.2zm6.1 2.1v5.5l-.3.1h-.5v-5.6c0-1.1-.5-1.7-1.3-1.7s-1.2.6-1.2 1.7v5.3l-.1.2-.3.1h-.4v-7.9h.7v.5c.4-.4.8-.6 1.3-.7.8 0 1.4.3 1.7 1 .4-.6 1-1 1.7-1 .6 0 1.1.2 1.5.7.3.5.5 1.2.5 2.2v5l-.3.1h-.5v-5.6c0-1.1-.4-1.7-1.3-1.7s-1.2.6-1.2 1.7zm5 2.9V456c0-1 .2-1.7.6-2.2s.9-.7 1.5-.7a2 2 0 0 1 1.6.7c.4.5.6 1.2.6 2.2v.8l-.1.3h-3.3v1.8c0 .6 0 1 .3 1.3.2.3.5.4 1 .4.3 0 .6-.1.8-.4.3-.2.4-.6.4-1v-.3h.8v.2a3 3 0 0 1-.5 1.6c-.4.4-.9.7-1.6.7-.6 0-1.2-.3-1.5-.7s-.6-1.2-.6-2.1zm.8-2.9v.7h2.7v-.7c0-.6 0-1-.3-1.3-.2-.2-.6-.4-1-.4s-.7.2-1 .4c-.2.3-.3.7-.3 1.3zm7.2-1.5h-.3c-.4 0-.6.1-.7.5l-.1 1v5.3l-.1.2-.3.1h-.4v-7.9h.7v.4a2 2 0 0 1 1.2-.5h.3v1h-.2zm1 6.6l.2-.4.4-.1c.2 0 .3 0 .5.2v.7c0 .3-.2.6-.6 1h-.2c-.1-.1-.1-.2 0-.2l.1-.5-.1-.3a.7.7 0 0 1-.2-.4zM52.6 482.5c.2 0 .4-.1.5-.4l.2-1.2v-8.4h.7l.1.2v7.4l-.1 2.1c-.2.7-.7 1-1.4 1h-.3v-.6h.3zm.7-11a.4.4 0 0 1-.1-.5l.3-.3.5.1c.2.2.2.3.2.5s-.2.3-.4.4c-.2 0-.3 0-.5-.2zm3.5 1.2v5.3c0 1.1.4 1.7 1.2 1.7s1.3-.6 1.3-1.7v-5.5h.7l.1.2v7.6l-.3.1h-.5v-.6c-.3.4-.8.7-1.3.7-.7 0-1.2-.2-1.5-.7-.4-.5-.6-1.2-.6-2.1v-5l.1-.2h.7v.2zm8.7 1.5v.2H65c-.2 0-.3 0-.3-.2 0-.3-.2-.5-.4-.8s-.4-.3-.7-.3-.6.1-.8.3-.3.5-.3.8c0 .2.1.5.4.8l.8.8a37.4 37.4 0 0 1 1.7 1.6c.2.3.3.7.3 1 0 .6-.3 1.1-.7 1.5a2 2 0 0 1-1.4.6 2 2 0 0 1-1.5-.6 2 2 0 0 1-.7-1.5l.1-.2h.4c.2 0 .3 0 .3.2 0 .4.2.7.5 1 .2.2.5.3.9.3a1.3 1.3 0 0 0 1.2-1.3c0-.4-.1-.7-.4-1l-1.1-1a5 5 0 0 1-1.1-1 2 2 0 0 1-.5-1.2c0-.5.2-1 .5-1.3.4-.4.8-.6 1.4-.6.5 0 .9.2 1.3.5.3.4.5.8.5 1.4zm5.7-1.5v10.5h-.7l-.1-.2v-3.2c-.3.4-.7.7-1.3.7-.6 0-1.1-.2-1.5-.7a4 4 0 0 1-.5-2.1v-2.5c0-1 .2-1.7.5-2.2.4-.5.9-.7 1.5-.7s1 .3 1.3.7v-.5h.8v.2zm-3.3 2.1v3.2c0 1.1.4 1.7 1.3 1.7s1.2-.6 1.2-1.7v-3.2c0-1.1-.4-1.7-1.2-1.7s-1.3.6-1.3 1.7zm6.1-2.1v5.3c0 1.1.3 1.7 1.2 1.7s1.2-.6 1.2-1.7v-5.5h.8v7.8l-.3.1h-.4l-.1-.3v-.3c-.3.4-.7.7-1.3.7-.6 0-1.1-.2-1.5-.7a4 4 0 0 1-.5-2.1v-5.2h.7l.1.2zm4.6-3l.1-.3.4-.2c.2 0 .4 0 .5.2v.7c0 .3-.2.7-.6 1h-.2c-.1-.1-.1-.2 0-.2 0-.3.2-.4.1-.5l-.1-.3-.2-.4zm4.4 3.4c-.7 0-1.2.5-1.2 1.4l-.1.3H81v-.2c0-.6.1-1.1.5-1.6.3-.4.8-.7 1.5-.7 1.4 0 2.1 1 2.1 2.9v4l.1.9c0 .2 0 .3-.3.3h-.5l-.1-.5a2 2 0 0 1-1.5.6 2 2 0 0 1-1.4-.6c-.4-.3-.6-.9-.6-1.6v-.5c0-.4.1-.8.4-1.1.2-.3.5-.6.8-.7l1-.4 1-.4.3-.6c0-.4-.1-.8-.4-1s-.5-.5-.9-.5zm.1 6.6c.4 0 .7-.2.9-.4.2-.2.3-.6.3-1.1v-2.4a9 9 0 0 1-.8.3 5 5 0 0 0-.8.3c-.8.4-1.1 1-1 1.7 0 1.2.4 1.7 1.4 1.6zm0-8l-.3-.1v-.2l-.4-1.5c0-.2 0-.3.3-.3h.2c.2 0 .3 0 .3.3v1.6l-.1.1zm11.2 3.1v5.5l-.3.1h-.4l-.1-.3v-5.3c0-1.1-.4-1.7-1.3-1.7s-1.2.6-1.2 1.7v5.5l-.3.1h-.5v-7.9h.7v.5c.4-.4.8-.6 1.4-.7.8 0 1.3.3 1.7 1 .4-.6 1-1 1.6-1 .6 0 1.1.2 1.5.7.4.5.5 1.2.5 2.2v5.1l-.3.1h-.4v-5.6c0-1.1-.5-1.7-1.3-1.7s-1.3.6-1.3 1.7zm5 2.9v-2.5c0-1 .2-1.7.6-2.2s1-.7 1.6-.7a2 2 0 0 1 1.5.7c.4.5.6 1.2.6 2.2v1.1h-3.5v1.7c0 .6 0 1 .3 1.3.2.3.6.4 1 .4s.7-.1.9-.4c.2-.2.3-.6.4-1v-.3h.7v.2c0 .6-.1 1.1-.5 1.6-.3.4-.8.7-1.5.7s-1.2-.3-1.6-.7-.6-1.2-.6-2.1zm.9-2.9v.7h2.5v-.7c0-.6 0-1-.3-1.3-.2-.2-.5-.4-1-.4s-.7.2-.9.4c-.2.3-.3.7-.3 1.3zm10.4 5.7c-.7 0-1.2-.3-1.6-.7s-.6-1.2-.6-2.1v-2.5c0-1 .2-1.7.6-2.2s1-.7 1.6-.7c.7 0 1.2.3 1.5.7.4.5.6 1 .6 1.6v.2h-.8v-.3c0-.4-.2-.8-.4-1s-.5-.4-1-.4c-.3 0-.6.2-.9.4-.2.3-.3.7-.3 1.3v3.2c0 .6 0 1 .3 1.3.3.3.6.4 1 .4s.7-.1.9-.4c.2-.2.3-.6.4-1v-.3h.7v.2c0 .6-.1 1.1-.5 1.6-.3.4-.8.7-1.5.7zm3.7-2.8v-2.5c0-1 .2-1.7.5-2.2s1-.7 1.6-.7a2 2 0 0 1 1.6.7c.4.5.6 1.2.6 2.2v2.5c0 1-.2 1.6-.6 2a2 2 0 0 1-1.6.8c-.6 0-1.2-.3-1.6-.7s-.5-1.2-.5-2.1zm3.4.3v-3.2c0-.6 0-1-.3-1.3-.3-.2-.6-.4-1-.4s-.7.2-1 .4c-.2.3-.3.7-.3 1.3v3.2c0 .6.1 1 .4 1.3.2.3.5.4 1 .4s.6-.1.9-.4c.2-.3.3-.7.3-1.3zm5.9 2v-5.2c0-1.1-.4-1.7-1.2-1.7s-1.2.6-1.2 1.7v5.3l-.1.2-.3.1h-.4v-7.9h.7v.5c.4-.4.8-.6 1.3-.7.7 0 1.2.2 1.5.7.4.5.6 1.2.6 2.2v5.1l-.3.1h-.5v-.3zm4.7-10c-.5 0-.8.1-1 .4l-.1 1.6v.6l.1.2h.9v.7h-.9l-.1.2v6.4l-.1.2-.3.1h-.4v-6.7l-.2-.2h-.3v-.7h.3l.1-.2v-1.4a6 6 0 0 1 .3-1.2l.1-.1.1-.1.1-.1.1-.1.1-.1c.3-.2.7-.3 1.2-.3h.3v.7h-.3zm1.7 1.7l-.4-.3v-.5l.5-.2c.2 0 .3 0 .4.2v.5c0 .2-.2.3-.4.3zm.5 1v7.6l-.3.1h-.5v-7.9h.7l.1.2zm1.8 5v-2.5c0-1 .1-1.7.5-2.2s1-.7 1.6-.7a2 2 0 0 1 1.6.7c.4.5.5 1.2.5 2.2v1.1H133v1.7c0 .6.1 1 .3 1.3.3.3.6.4 1 .4s.7-.1 1-.4c.1-.2.3-.6.3-1v-.3h.7l.1.2a3 3 0 0 1-.5 1.6c-.4.4-1 .7-1.6.7-.7 0-1.2-.3-1.6-.7s-.5-1.2-.5-2.1zm.8-2.9v.7h2.6v-.7c0-.6-.1-1-.3-1.3-.3-.2-.6-.4-1-.4s-.7.2-1 .4c-.2.3-.3.7-.3 1.3zm7.2-1.5h-.4c-.3 0-.6.1-.7.5v6.3l-.1.2-.3.1h-.4l-.1-.3v-7.6h.8v.4a2 2 0 0 1 1.2-.5h.3v1h-.3zm6.2 6.3l.3.1v.6l-.3.1c-.5 0-1-.2-1.1-.6l-.2-1v-9.5h.7v8.7l.1 1.1c0 .4.3.5.5.5zm1.6-1.9v-2.5c0-1 .2-1.7.6-2.2s1-.7 1.6-.7a2 2 0 0 1 1.6.7c.3.5.5 1.2.5 2.2v1.1H149v1.7c0 .6 0 1 .3 1.3.3.3.6.4 1 .4s.7-.1.9-.4c.2-.2.4-.6.4-1v-.3h.7v.2c0 .6-.1 1.1-.5 1.6-.3.4-.8.7-1.5.7s-1.2-.3-1.6-.7-.6-1.2-.6-2.1zm.9-2.9v.7h2.6v-.7c0-.6-.1-1-.4-1.3-.2-.2-.5-.4-1-.4s-.6.2-.9.4c-.2.3-.3.7-.3 1.3zm8.4 8.2v-10.5h.8v.5a2 2 0 0 1 1.3-.7c.7 0 1.2.2 1.5.7.4.5.6 1.2.6 2.2v2.5c0 1-.2 1.6-.6 2.1-.3.5-.8.7-1.5.7-.5 0-1-.3-1.3-.7v3.4h-.7v-.2zm3.3-5v-3.2c0-1.1-.4-1.7-1.2-1.7s-1.3.6-1.3 1.7v3.2c0 1.1.5 1.7 1.3 1.7s1.2-.6 1.2-1.7zm4 1.6l.2.1v.6l-.2.1c-.6 0-1-.2-1.2-.6l-.2-1v-9.5h.7v8.7l.1 1.1c.1.4.3.5.6.5zm2.5-6.9v5.3c0 1.1.4 1.7 1.2 1.7s1.3-.6 1.3-1.7v-5.5h.7v7.8l-.2.1h-.5v-.6c-.3.4-.8.7-1.3.7-.7 0-1.2-.2-1.5-.7-.4-.5-.6-1.2-.6-2.1v-5l.1-.2h.7v.2zm8.8 1.5l-.1.2h-.4c-.2 0-.3 0-.3-.2 0-.3-.2-.5-.4-.8s-.4-.3-.7-.3-.6.1-.8.3-.3.5-.3.8c0 .2.1.5.4.8l.8.8a37.4 37.4 0 0 1 1.7 1.6c.2.3.3.7.3 1 0 .6-.3 1.1-.7 1.5a2 2 0 0 1-1.5.6 2 2 0 0 1-1.4-.6 2 2 0 0 1-.7-1.5l.1-.2h.4c.2 0 .3 0 .3.2 0 .4.2.7.5 1 .2.2.5.3.8.3a1.3 1.3 0 0 0 1.3-1.3c0-.4-.1-.7-.5-1l-1-1a5 5 0 0 1-1.1-1 2 2 0 0 1-.5-1.2c0-.5.2-1 .5-1.3.4-.4.8-.6 1.3-.6.6 0 1 .2 1.4.5.3.4.5.8.5 1.4zm5.3-2.5a.5.5 0 0 1-.5-.3v-.5l.5-.2c.2 0 .3 0 .4.2v.5c0 .2-.2.3-.4.3zm.4 1v7.6l-.3.1h-.5v-7.9h.7v.2zm6.1 2.1v5.3l-.1.2-.3.1h-.4v-5.6c0-1.1-.5-1.7-1.3-1.7s-1.3.6-1.3 1.7v5.5l-.3.1h-.4l-.1-.3v-7.6h.8v.5a2 2 0 0 1 1.3-.7c.8 0 1.4.3 1.7 1 .4-.6 1-1 1.6-1 .7 0 1.2.2 1.5.7.4.5.6 1.2.6 2.2v5.1l-.3.1h-.5v-5.6c0-1.1-.5-1.7-1.3-1.7s-1.2.6-1.2 1.7zm5.2 8.2v-10.5h.7v.5c.4-.4.8-.6 1.3-.7.7 0 1.2.2 1.5.7.4.5.6 1.2.6 2.2v2.5c0 1-.2 1.6-.6 2.1-.3.5-.8.7-1.5.7-.5 0-1-.3-1.2-.7v3.2l-.1.2h-.7v-.2zm3.3-5v-3.2c0-1.1-.5-1.7-1.3-1.7s-1.2.6-1.2 1.7v3.2c0 1.1.4 1.7 1.2 1.7s1.3-.6 1.3-1.7zm2.4-.3v-2.5c0-1 .2-1.7.6-2.2s.9-.7 1.5-.7a2 2 0 0 1 1.6.7c.4.5.6 1.2.6 2.2v2.5c0 1-.2 1.6-.6 2a2 2 0 0 1-1.6.8c-.6 0-1.2-.3-1.5-.7s-.6-1.2-.6-2.1zm3.4.3v-3.2c0-.6 0-1-.3-1.3-.2-.2-.6-.4-1-.4s-.7.2-1 .4c-.2.3-.3.7-.3 1.3v3.2c0 .6.1 1 .4 1.3.2.3.5.4 1 .4s.7-.1.9-.4c.2-.3.3-.7.3-1.3zm4.7-4.7h-.4c-.4 0-.6.1-.7.5l-.1 1v5.3l-.1.2-.3.1h-.4v-7.9h.7v.4a2 2 0 0 1 1.2-.5h.3v1h-.3zm2.5-2.3v1.6l.1.2h.6v.7h-.6l-.1.2v5.4c0 .4.3.5.5.5l.3.1v.6l-.3.1c-.5 0-1-.2-1.1-.6l-.2-1v-5.1l-.2-.1-.3-.1v-.6l.3-.1.1-.2V471l.1-.2.3-.1h.4v.3zm4.3 2.1c-.8 0-1.2.5-1.3 1.4v.3h-.7v-.2c0-.6.1-1.1.4-1.6.4-.4.9-.7 1.6-.7 1.4 0 2 1 2 2.9v4l.2.9c0 .2 0 .3-.3.3h-.5l-.1-.5a2 2 0 0 1-1.5.6 2 2 0 0 1-1.5-.6c-.3-.3-.5-.9-.5-1.6v-.5c0-.4.1-.8.3-1.1.3-.3.6-.6.9-.7l1-.4.9-.4.3-.6c0-.4 0-.8-.3-1s-.5-.5-1-.5zm0 6.6c.5 0 .8-.2 1-.4l.2-1.1v-2.4a9 9 0 0 1-.8.3 5 5 0 0 0-.7.3c-.8.4-1.2 1-1 1.7 0 1.2.4 1.7 1.4 1.6zm7.2.3v-5.2c0-1.1-.4-1.7-1.2-1.7s-1.2.6-1.2 1.7v5.3l-.1.2-.3.1h-.4v-7.9h.7v.5c.4-.4.8-.6 1.3-.7.7 0 1.2.2 1.5.7.4.5.6 1.2.6 2.2v5.1l-.3.1h-.5v-.3zm3.5-9v1.6l.2.2h.5l.1.3v.4h-.6l-.2.2v4.3l.1 1.1c0 .4.2.5.5.5l.3.1v.6l-.3.1c-.6 0-1-.2-1.1-.6l-.3-1v-5.1l-.1-.1-.3-.1v-.6l.3-.1.1-.2v-1.8l.3-.1h.5v.3zm5.6 12v-10.5h.8v.5a2 2 0 0 1 1.3-.7c.7 0 1.2.2 1.5.7.4.5.6 1.2.6 2.2v2.5c0 1-.2 1.6-.6 2.1-.3.5-.8.7-1.5.7-.5 0-1-.3-1.3-.7v3.4h-.7l-.1-.2zm3.3-5v-3.2c0-1.1-.4-1.7-1.2-1.7s-1.3.6-1.3 1.7v3.2c0 1.1.5 1.7 1.3 1.7s1.2-.6 1.2-1.7zm2.5-.3v-2.5c0-1 .2-1.7.5-2.2s1-.7 1.6-.7a2 2 0 0 1 1.6.7c.4.5.6 1.2.6 2.2v2.5c0 1-.2 1.6-.6 2a2 2 0 0 1-1.6.8c-.7 0-1.2-.3-1.6-.7s-.5-1.2-.5-2.1zm3.4.3v-3.2c0-.6-.1-1-.3-1.3-.3-.2-.6-.4-1-.4s-.7.2-1 .4c-.2.3-.3.7-.3 1.3v3.2c0 .6.1 1 .3 1.3.3.3.6.4 1 .4s.7-.1 1-.4c.2-.3.3-.7.3-1.3zm3.4-5.3v5.3c0 1.1.4 1.7 1.2 1.7s1.3-.6 1.3-1.7v-5.5h.7v7.8l-.2.1h-.5v-.6c-.4.4-.8.7-1.3.7-.7 0-1.2-.2-1.5-.7-.4-.5-.6-1.2-.6-2.1v-5l.1-.2h.7v.2zm7.2.6h-.4c-.3 0-.6.1-.7.5v6.3l-.1.2-.3.1h-.4v-7.9h.7v.4a2 2 0 0 1 1.2-.5h.3v1h-.3zm6.3 6.3l.2.1v.6l-.3.1c-.5 0-1-.2-1.1-.6l-.2-1v-9.5h.7v8.7l.1 1.1c.1.4.3.5.5.5zm2.5-6.9v5.3c0 1.1.4 1.7 1.2 1.7s1.3-.6 1.3-1.7v-5.5h.7v7.8l-.2.1h-.5v-.6c-.4.4-.8.7-1.3.7-.7 0-1.2-.2-1.5-.7-.4-.5-.6-1.2-.6-2.1v-5l.1-.2h.7v.2zm5.6-1c-.2 0-.3-.1-.4-.3v-.5l.4-.2c.2 0 .4 0 .5.2v.5c-.1.2-.3.3-.5.3zm.4 1v7.6l-.3.1h-.4v-7.9h.7v.2zm2.5 7.2l-.1.4-.4.1a.5.5 0 0 1-.5-.3l.1-.6c.2-.1.4-.2.6 0 .2 0 .3.2.3.4z"/><path fill="#002CFF" d="M6 38.6c.7 0 1.2-.2 1.5-.6l.3-.6V22.3L8 22l.4-.1h1.7l.4.1.1.4v13.3c0 2-.3 3.5-1 4.3-.7.9-1.9 1.3-3.5 1.3l-.4-.1-.2-.5v-1.5c0-.2 0-.3.2-.4l.4-.1zm14.8 2.6h-5.9l-.4-.1-.1-.5V22.3l.1-.4.4-.1h5.9l.4.1.1.4v2h-3.6c-.3 0-.4.1-.5.2v5.1h3.5c.3 0 .4.1.5.2l.1.4v1.9l-.5.2h-3.6v6.2h3.5c.3 0 .4.1.5.2l.1.4v2h-.5zm11.3-19.4h3.4a4 4 0 0 1 3.2 1.3 6 6 0 0 1 1.2 4v8.8c0 1.7-.4 3-1.2 4-.8.8-2 1.3-3.2 1.3H32l-.4-.1-.1-.5V22.3l.1-.4.4-.1zm2.3 3.1v13.6h1.1c.5 0 .9 0 1.2-.4.3-.4.4-.8.4-1.5V26.4c0-.7-.1-1.2-.4-1.5s-.7-.5-1.2-.5h-1.1v.5zM52 27v9c0 1.8-.3 3-1.1 4-.8.8-2 1.3-3.2 1.3s-2.4-.4-3.3-1.3-1.2-2.2-1.2-4v-9c0-1.8.4-3 1.2-4s2-1.3 3.3-1.3 2.4.4 3.2 1.3a6 6 0 0 1 1.2 4zm-2.7 9.8V26.2c0-.8-.2-1.4-.8-1.7-.6-.4-1.1-.4-1.7 0s-.9.9-.8 1.7v10.6c0 .8.2 1.4.8 1.7.6.4 1.1.4 1.7 0 .6-.3.9-1 .8-1.7zm9.2-14.5v18.3c0 .2 0 .4-.2.5h-2.5l-.1-.5V22.3l.1-.4.4-.1H58l.4.1.2.4zm7.5 19c-1.2 0-2.3-.4-3.2-1.3-.8-1-1.2-2-1.2-3.2l.1-.5c0-.1.2-.2.5-.2h1.6c.3 0 .5.3.5.7 0 .6.2 1 .5 1.4.3.4.7.5 1.2.5s.9-.1 1.2-.4.5-.7.5-1.2c.2-1.1-.4-2.5-1.7-4a22.4 22.4 0 0 1-1.2-1.4l-.6-.7-.6-.8a23.3 23.3 0 0 0-1-1.6A47.1 47.1 0 0 0 62 27l-.1-.8a4 4 0 0 1 4-4.4c1 0 2 .3 2.7 1a4 4 0 0 1 1.3 2.7v.7c0 .1-.2.2-.5.2h-1.5c-.2 0-.4 0-.5-.2l-.1-.4c0-.5-.1-.8-.4-1.1-.2-.2-.5-.4-1-.4-.4 0-.8.2-1 .6l-.3 1.2a5 5 0 0 0 1 2.3l1.8 2.4c.7.7 1.4 1.6 2 2.6.6 1 1 2 1 3 .2 1.3-.2 2.4-1 3.5-.9 1-2 1.5-3.4 1.5zm14.8-19.5h3.3c1.4 0 2.4.4 3.3 1.3a6 6 0 0 1 1.2 4v8.8c0 1.7-.4 3-1.2 4-.9.8-2 1.3-3.3 1.3h-3.3l-.4-.1-.1-.5V22l.5-.1zm2.2 3.1V38l.1.5h1c.5 0 1 0 1.3-.4.3-.4.4-.8.4-1.5V26.4c0-.7-.1-1.2-.4-1.5s-.8-.5-1.3-.5h-1v.5zm15.6 16.3h-5.9l-.4-.1-.1-.5V22.3l.1-.4.4-.1h5.9l.4.1.1.4v2h-3.5c-.4 0-.5.1-.6.2v5.1h3.5c.3 0 .4.1.5.2l.1.4v1.9l-.5.2H95v6.2h3.5c.3 0 .4.1.5.2l.1.4v2h-.5zM96 20.8h-1c-.2 0-.3 0-.3-.3v-2.7l.1-.4c.1-.1.2-.2.5-.2H97c.4 0 .6.3.4.8l-.9 2.3-.1.5H96zm13.7 1h1.9l.2.1v.4l-3.5 18.4-.1.4h-2.4l-.2-.4-3.5-18.4v-.4l.5-.1h2l.2.1v.3l2 12h.2l2-12 .2-.3.2-.1h.3zm11.7 19.4h-5.9l-.4-.1-.1-.5V22.3l.1-.4.4-.1h5.9l.4.1.1.4v2h-3.5c-.4 0-.5.1-.6.2v5.1h3.5c.3 0 .4.1.5.2l.1.4v1.9l-.5.2h-3.6v6.2h3.5c.3 0 .4.1.5.2l.1.4v2h-.5zm10.6 0h-6l-.4-.1-.2-.5V22.3c0-.2 0-.3.2-.4l.4-.1h1.7l.4.1.1.4v16.2h3.6l.5.2.1.4v1.5l-.1.5h-.5zM144 27v9a6 6 0 0 1-1.2 4c-.8.8-2 1.3-3.2 1.3s-2.4-.4-3.3-1.3-1.2-2.2-1.2-4v-9c0-1.8.4-3 1.2-4s2-1.3 3.3-1.3 2.4.4 3.2 1.3a6 6 0 0 1 1.2 4zm-2.8 9.8V26.2c0-.8-.2-1.4-.8-1.7-.5-.4-1.1-.4-1.7 0s-.9.9-.8 1.7v10.6c0 .8.2 1.4.8 1.7.6.4 1.2.4 1.7 0 .6-.3.9-1 .8-1.7zm7-15h3.3a4 4 0 0 1 3.2 1.3 6 6 0 0 1 1.2 4v2.4c0 1.7-.4 3-1.2 3.9a4 4 0 0 1-3.2 1.3h-.9s-.2 0-.2.2v5.7c0 .4-.2.6-.6.6h-1.6l-.5-.1-.1-.5V22.3l.1-.4.5-.1zm2.2 3.1v7.2h1.1c.5 0 .9-.1 1.2-.5s.4-.8.4-1.5v-3.7c0-.7-.1-1.2-.4-1.5s-.7-.5-1.2-.5h-1.1v.5zm9.4-3.1h3.3a4 4 0 0 1 3.2 1.3 6 6 0 0 1 1.2 4v2.4c0 1.7-.4 3-1.2 3.9a4 4 0 0 1-3.2 1.3h-.8c-.1 0-.2 0-.3.2v5.7c0 .4-.2.6-.5.6h-1.7l-.5-.1V22l.5-.1zm2.2 3.1v7.2h1.1c.5 0 1-.1 1.2-.5s.5-.8.5-1.5v-3.7c0-.7-.2-1.2-.5-1.5s-.7-.5-1.2-.5h-1v.5zm15.3 16.3h-5.9l-.4-.1-.1-.5V22.3l.1-.4.4-.1h5.9l.4.1.1.4v1.5l-.1.5h-3.5c-.3 0-.4.1-.5.2v5.1h3.5c.3 0 .4.1.5.2l.1.4v1.5l-.1.4-.4.2h-3.6v6.2h3.5c.3 0 .4.1.5.2l.1.4v1.5l-.1.5h-.4zm4.7-19.4h3.6c1.3 0 2.3.4 3 1.3.8.8 1.1 2.1 1.1 3.8v1c0 2.1-.5 3.6-1.6 4.4l1.6 8.3c.1.4 0 .6-.3.6h-1.8a2 2 0 0 1-.3 0l-.1-.1-.2-.3-1.4-7.5c0-.1-.1-.2-.3-.2h-1l-.1.5v7l-.1.5h-2.5l-.2-.5V22.3c0-.2 0-.3.2-.4l.4-.1zm3.6 2.4h-.8l-.5.1-.1.5v5.8h1.4c1 0 1.4-.6 1.4-2v-2.4c0-1.3-.5-2-1.4-2zm20.3 17h-.6c-.3 0-.5-.1-.6-.4l-1.7-7.1-.2-.1v7l-.1.5H200V22l.5-.1h1.2c.3 0 .5.1.6.3l3 13 .2.2.1-.1 3.1-13c0-.3.3-.4.6-.4h1.2l.4.1.2.4v18.3c0 .2 0 .4-.2.5h-2.5l-.1-.5v-7h-.1l-1.8 7.2c0 .3-.3.4-.6.4zM223.6 27v9a6 6 0 0 1-1.2 4c-.8.8-1.9 1.3-3.2 1.3s-2.4-.4-3.2-1.3-1.2-2.2-1.2-4v-9c0-1.8.4-3 1.2-4s1.9-1.3 3.2-1.3 2.4.4 3.2 1.3a6 6 0 0 1 1.2 4zm-2.7 9.8V26.2c0-.8-.2-1.4-.8-1.7-.6-.4-1.2-.4-1.8 0s-.8.9-.8 1.7v10.6c0 .8.2 1.4.8 1.7.6.4 1.2.4 1.8 0 .6-.3.8-1 .8-1.7zm14.8 4.4h-1.3c-.3 0-.4-.1-.5-.3l-3.7-10.4c0-.1-.1-.1-.2 0v10.1l-.1.5h-2.5l-.2-.5V22.3c0-.2 0-.3.2-.4l.4-.1h1.2c.3 0 .5.1.6.4l3.6 10.3.1.1h.1V22.3l.2-.4.4-.1h1.7l.4.1.1.4v18.8h-.5zm17.5 0h-5.9l-.4-.1-.1-.5V22l.5-.1h5.9l.4.1.1.4v1.5l-.1.5h-3.5c-.3 0-.4.1-.5.2v5h3.5c.3 0 .4.1.5.2l.1.4v1.5l-.1.4-.4.2h-3.6v6.2h3.5c.3 0 .4.1.5.2l.1.4v1.5l-.1.5h-.4zm-2.6-20.4h-1c-.1 0-.2 0-.2-.3v-2.7l.1-.4c0-.1.2-.2.5-.2h1.6c.4 0 .6.3.3.8l-.8 2.3c0 .3-.1.4-.2.5h-.3zm9.2 5.4v10.6c0 .8.2 1.4.8 1.7.6.4 1.2.4 1.8 0 .5-.3.8-1 .7-1.7v-.2c0-.2 0-.4.2-.5l.4-.1h1.6c.4 0 .6.2.6.7a5.1 5.1 0 0 1-1.4 3.4 4 4 0 0 1-3 1.2c-1.4 0-2.4-.5-3.2-1.3s-1.3-2.3-1.3-4v-9c0-1.8.5-3 1.3-4s1.8-1.3 3.2-1.3c1.2 0 2.2.4 3 1.1.8.8 1.3 2 1.4 3.5 0 .4-.2.7-.6.7h-1.6c-.2 0-.4 0-.4-.2l-.2-.4v-.2c.1-.8-.2-1.4-.7-1.8-.6-.3-1.2-.3-1.8 0s-.8 1-.8 1.8zm18.2.8v9c0 1.8-.4 3-1.3 4-.8.8-1.8 1.3-3.2 1.3s-2.4-.4-3.2-1.3-1.2-2.2-1.2-4v-9c0-1.8.4-3 1.2-4s1.9-1.3 3.2-1.3 2.4.4 3.2 1.3c.9 1 1.3 2.2 1.3 4zm-2.8 9.8V26.2c0-.8-.2-1.4-.8-1.7-.6-.4-1.2-.4-1.7 0s-.9.9-.8 1.7v10.6c0 .8.2 1.4.8 1.7.5.4 1.1.4 1.7 0 .6-.3.9-1 .8-1.7zm12.3 0V22.3l.1-.4.5-.1h1.6l.5.1.1.4V36a6 6 0 0 1-1.2 4c-.8.8-2 1.3-3.2 1.3-1.4 0-2.4-.4-3.3-1.3s-1.2-2.2-1.2-4V22.3c0-.2 0-.3.2-.4l.4-.1h1.6l.5.1.1.4v14.5c0 .8.2 1.4.8 1.7.6.4 1.2.4 1.7 0 .6-.3.9-1 .8-1.7zm5.5-13v-1.5l.2-.4.4-.1h7.2l.5.1v2.4h-2.1c-.3 0-.5.1-.5.2v16.1l-.2.5H296l-.2-.5v-16l-.5-.1h-1.7l-.4-.1-.1-.5zm17.7 17.4h-5.9l-.4-.1-.1-.5V22.3l.1-.4.4-.1h5.9l.4.1.1.4v2h-3.5c-.4 0-.5.1-.6.2v5.1h3.5c.3 0 .4.1.5.2l.1.4v1.9l-.5.2H307v6.2h3.5c.3 0 .4.1.5.2l.1.4v2h-.5z"/><path fill="#002CFF" fill-rule="evenodd" d="M156.1 385.3l.9 2.9c1 3.3 2.8 6.2 5 8.8 1.2 1.6 2.4 3.1 3.1 5 2 5.3-.3 11.1-5.2 13.5a9 9 0 0 1-10.7-2.4 10.8 10.8 0 0 1-1.1-13c.8-1.4 1.8-2.6 2.8-3.9 2.5-3.1 4.2-6.6 5-10.6l.2-.3z" clip-rule="evenodd"/><path fill="none" stroke="#41D5CF" stroke-linecap="round" stroke-linejoin="round" stroke-miterlimit="10" stroke-width="1.9" d="M33.9 135.7c0-3.9 54.4-7.3 121.6-7.3 67.1 0 121.6 3.4 121.6 7.3m-.1.2l-.3.6c.2-.2.4-.4.4-.6z"/><linearGradient id="a" x1="135.1" x2="196.4" y1="338.4" y2="338.4" gradientTransform="matrix(-1 0 0 1 311 0)" gradientUnits="userSpaceOnUse"><stop offset=".1" stop-color="#4ad8d4"/><stop offset=".4" stop-color="#94f2ff"/><stop offset=".6" stop-color="#94f2ff"/><stop offset=".6" stop-color="#94f2ff"/><stop offset=".7" stop-color="#7be9f1"/><stop offset=".8" stop-color="#60e0e1"/><stop offset=".8" stop-color="#4cd9d6"/><stop offset=".9" stop-color="#41d5cf"/><stop offset="1" stop-color="#3dd4cd"/></linearGradient><path fill="url(#a)" d="M114.6 343.6a7 7 0 0 1 1.8-5c.4-.3.3-.7-.2-.9a1 1 0 0 1-.7-.8c0-.5.2-1 .8-1.2l-1.2-4.5c-.2-.7-.5-1.3-.5-2-.1-2.2 1-3.8 2.8-5 3.7-2.5 8.5 0 9 4.2.1.5 0 1.1-.1 1.6l-1.4 5.4.1.5c.4.2.5.6.5 1s-.3.7-.8.9c-.3 0-.4.4-.2.8l1 1.3.3.1h5.9v-.9c0-.4.2-.8.6-1 .2 0 .3-.2.3-.4V336c0-.5.2-1 .7-1.2l1.4-.4c.2-.1.4-.1.4-.4 0-.8.4-1.1 1.2-1h1.2c.6 0 1 .1 1.1.8 0 .2.1.3.3.3 1.7 0 3.4 0 5-.3 1.9-.4 3.4-1.1 4.5-2.7.5-1 .8-2 .8-3V322c0-.9-9.5-1.8-9.5-2.7v-.2h-.2c-.6 0-1-.1-1.3-.9-.3-.7-1.1-1-1.9-1.4l-1.1-.3v-17.6h40.6v17.2c0 .3 0 .4-.4.5l-2 1c-.4.2-.6.6-.8 1-.1.3-.2.4-.5.4h-.8c0 .9-8.4 1.7-8.4 2.6v4.7c-.1 3 .9 5.8 2.7 8.3a23 23 0 0 1 2.5 3.6 9.2 9.2 0 0 1 1 5.4 9 9 0 0 1-1 5.3 24 24 0 0 1-2.5 3.7 13.2 13.2 0 0 0-2.8 8.3v7.3h.9c.3 0 .4.1.5.4.2.4.4.8.8 1l2 1c.3 0 .5.2.5.5v6.8h-22.9v-7.2l1.2-.4c.7-.2 1.5-.6 1.8-1.3.3-.8.8-.9 1.4-.8h.1v-9.1a6 6 0 0 0-.7-3c-1-1.7-2.6-2.4-4.4-2.8-1.7-.3-3.4-.3-5-.3-.3 0-.3.1-.4.3-.1.7-.5.9-1.1.9h-1.2c-.8 0-1.1-.3-1.2-1 0-.4-.2-.4-.4-.5-.5-.1-1-.2-1.4-.5-.5-.2-.8-.6-.7-1.2v-1.5c0-.2 0-.4-.3-.5-.4-.2-.6-.5-.6-1v-.8h-5.9l-.3.1-1 1.3c-.2.3-.1.7.2.8.5.2.7.5.8.9 0 .4-.1.8-.5 1-.2.1-.2.2-.1.5l1.4 5.4c.1.5.2 1 .1 1.6a5.8 5.8 0 0 1-9 4.2c-1.8-1.2-3-2.8-2.8-5 0-.7.3-1.3.5-2l1.2-4.5c-.6-.3-.8-.7-.8-1.2 0-.4.3-.7.7-.8.5-.2.6-.6.2-1a7 7 0 0 1-1.8-4.9z"/><path fill="#41D5CF" d="M176 299.5c0 6-9.2 10.8-20.5 10.8s-20.4-4.8-20.4-10.8v-13.7c0 6 9.1 10.8 20.4 10.8 11.3 0 20.4-4.8 20.4-10.8v13.7z"/><circle cx="125.1" cy="344.4" r="30.1" fill="none" stroke="#002CFF" stroke-miterlimit="10" stroke-width="2.7"/><path fill="none" stroke="#002CFF" stroke-miterlimit="10" stroke-width="2" d="M31 458v-64.5l66.9-36.3"/><linearGradient id="b" x1="34.3" x2="276.7" y1="137.4" y2="137.4" gradientTransform="matrix(-1 0 0 1 311 0)" gradientUnits="userSpaceOnUse"><stop offset=".1" stop-color="#4ad8d4"/><stop offset=".4" stop-color="#94f2ff"/><stop offset=".6" stop-color="#94f2ff"/><stop offset=".6" stop-color="#94f2ff"/><stop offset=".7" stop-color="#7be9f1"/><stop offset=".8" stop-color="#60e0e1"/><stop offset=".8" stop-color="#4cd9d6"/><stop offset=".9" stop-color="#41d5cf"/><stop offset="1" stop-color="#3dd4cd"/></linearGradient><path fill="url(#b)" d="M276.7 136.5c-.7.5-2.4 1-5 1.5l3.7.4 1.3-2z"/><linearGradient id="c" x1="34.3" x2="276.7" y1="137.4" y2="137.4" gradientTransform="matrix(-1 0 0 1 311 0)" gradientUnits="userSpaceOnUse"><stop offset=".1" stop-color="#4ad8d4"/><stop offset=".4" stop-color="#94f2ff"/><stop offset=".6" stop-color="#94f2ff"/><stop offset=".6" stop-color="#94f2ff"/><stop offset=".7" stop-color="#7be9f1"/><stop offset=".8" stop-color="#60e0e1"/><stop offset=".8" stop-color="#4cd9d6"/><stop offset=".9" stop-color="#41d5cf"/><stop offset="1" stop-color="#3dd4cd"/></linearGradient><path fill="url(#c)" d="M34.3 136.5l1.2 1.8c1.2 0 2.3-.2 3.5-.3-2.4-.5-4-1-4.7-1.5z"/><path fill="#002CFF" d="M271.8 138c-30.6-3-71.6-5-116.6-5-44.9 0-85.7 2-116.2 5 15 3 61.5 5.2 116.5 5.2 54.7 0 101-2.2 116.3-5.2z"/><linearGradient id="d" x1="35.5" x2="275.4" y1="217.7" y2="217.7" gradientUnits="userSpaceOnUse"><stop offset=".1" stop-color="#4ad8d4"/><stop offset=".4" stop-color="#94f2ff"/><stop offset=".6" stop-color="#94f2ff"/><stop offset=".6" stop-color="#94f2ff"/><stop offset=".7" stop-color="#7be9f1"/><stop offset=".8" stop-color="#60e0e1"/><stop offset=".8" stop-color="#4cd9d6"/><stop offset=".9" stop-color="#41d5cf"/><stop offset="1" stop-color="#3dd4cd"/></linearGradient><path fill="url(#d)" d="M271.8 138c-15.3 3-61.6 5.2-116.3 5.2-55 0-101.5-2.2-116.5-5.2-1.2 0-2.3.2-3.5.3l18.6 28 83 125.3s6.8 5.8 19 5.8 17.7-5.8 17.7-5.8l83-125.3 18.6-28-3.6-.3z"/><path fill="#002CFF" fill-rule="evenodd" d="M138.6 178.2l.8 3c1 3.6 3 6.6 5.4 9.4 1.3 1.7 2.5 3.3 3.3 5.3 2 5.6-.4 11.8-5.6 14.3a9.5 9.5 0 0 1-11.3-2.5c-3.5-3.8-4-9.3-1.2-13.9.9-1.4 2-2.7 3-4 2.7-3.3 4.4-7 5.4-11.2v-.4h.2zm17.5 72.3l1 3c1 3.6 3 6.6 5.2 9.5a18 18 0 0 1 3.4 5.2c2 5.6-.4 11.8-5.6 14.3a9.5 9.5 0 0 1-11.3-2.5c-3.5-3.8-4-9.3-1.2-13.9.9-1.4 2-2.7 3-4 2.6-3.3 4.4-7 5.4-11.2v-.4h.1zm19.8-40.8l.8 3c1.1 3.6 3 6.6 5.4 9.5 1.3 1.6 2.5 3.3 3.3 5.2 2 5.6-.4 11.8-5.6 14.3a9.5 9.5 0 0 1-11.3-2.5c-3.5-3.8-4-9.3-1.2-13.9.9-1.4 2-2.7 3-4 2.7-3.3 4.4-7 5.4-11.2v-.4h.2z" clip-rule="evenodd"/></svg>