<svg xmlns="http://www.w3.org/2000/svg" viewBox="0 0 320 568"><path fill="#6F00FF" d="M59 282.3a100.4 100.4 0 0 1 200.7 0 100.4 100.4 0 0 1-200.7 0zM20 41h-5.8c-.2 0-.3 0-.4-.2l-.1-.4V22.1l.1-.4.4-.1H16l.4.1.2.4v16.2H20c.3 0 .4.1.5.2l.1.4v1.9l-.5.2zm10 0h-6c-.2 0-.3 0-.4-.2l-.1-.4V21.7l.5-.1h6l.4.1.1.4v1.5l-.1.5h-3.5c-.3 0-.5.1-.5.2v5.1h3.5c.3 0 .4 0 .5.2l.1.4v1.5l-.1.4-.4.1h-3.1l-.5.1v6.2h3.5c.3 0 .4.1.5.2l.1.4v1.5l-.1.4-.4.2zm7.8 0c-1.3 0-2.3-.4-3.2-1.2-.8-1-1.3-2-1.2-3.3v-.4l.5-.2h1.6c.4 0 .6.2.6.7 0 .6.1 1 .4 1.4.3.4.8.5 1.3.5s.9-.1 1.2-.4.5-.7.5-1.2c.2-1.1-.4-2.5-1.8-4a21 21 0 0 1-1.1-1.4l-.6-.7-.6-.8-.5-.8a51.2 51.2 0 0 0-1.1-2.5l-.1-.9a4 4 0 0 1 4-4.3 4 4 0 0 1 4 3.7v.7l-.6.1h-1.9l-.1-.5c0-.5-.2-.9-.4-1.1-.2-.3-.6-.4-1-.4-.5 0-.8.2-1 .6a2 2 0 0 0-.3 1.2c0 .7.4 1.5 1 2.3.5.9 1.2 1.7 1.8 2.4.7.7 1.3 1.6 2 2.6.5 1 .9 2 1 3 .2 1.3-.2 2.4-1 3.5-1 1-2 1.5-3.4 1.5zm20.6 0h-5.8c-.2 0-.4 0-.4-.2l-.2-.4V22.1c0-.2 0-.3.2-.4l.4-.1h5.8l.5.1v2.4h-3.5c-.3 0-.5.1-.5.2v5.1h3.5c.2 0 .4 0 .5.2v2.3l-.5.1h-3l-.5.1v6.2h3.5l.5.2v2.3l-.5.2zM56 20.6h-1c-.2 0-.3 0-.3-.3v-2.7c0-.2 0-.4.2-.4l.4-.2H57c.4 0 .5.3.3.8l-.8 2.3c0 .3-.1.4-.2.4l-.3.1zm5.6 3v-1.5l.1-.4.5-.1h7.2l.4.1.1.4v2h-2.2c-.3 0-.4.1-.5.2v16.1c0 .2 0 .4-.2.4l-.4.2H65c-.2 0-.3 0-.4-.2l-.1-.4V24.3l-.5-.1h-1.7l-.5-.1v-.5zm19 17.4h-1.7a2 2 0 0 1-.3 0l-.1-.2-.2-.2-.2-1.5c0-.3-.1-.5-.2-.5h-3.4l-.1.5-.3 1.5-.1.2-.2.2h-2.2l-.2-.2v-.3l3.5-18.4.1-.4.5-.1h1.9l.2.5L81 40.5v.4h-.5zm-4.5-12.4L75 35.3v.5l.4.1h2.1v-.6l-1.2-6.7v-.1l-.2.1zm8.9-7h3.3c1.3 0 2.4.4 3.2 1.3s1.2 2.2 1.2 4v2.4c0 1.7-.4 3-1.2 3.9s-1.9 1.3-3.2 1.3h-.9l-.2.1v5.8c0 .4-.2.6-.6.6H85c-.3 0-.4 0-.5-.2l-.1-.4V22.1l.1-.4.5-.1zm2.2 3.1v7.1l.5.1h.6c.5 0 .9-.2 1.2-.5.3-.3.4-.8.4-1.5v-3.7c0-.7-.1-1.2-.4-1.5-.3-.4-.7-.5-1.2-.5h-1.1v.5zM102.4 41h-5.8c-.2 0-.4 0-.4-.2l-.2-.4V22.1c0-.2 0-.3.2-.4l.4-.1h5.8l.5.1v2.4h-3.5c-.3 0-.5.1-.5.2v5.1h3.5c.2 0 .4 0 .5.2v2.3l-.5.1h-3l-.5.1v6.2h3.5l.5.2v2.3l-.5.2zm7.9 0c-1.3 0-2.4-.4-3.2-1.2-.9-1-1.3-2-1.3-3.3 0-.2 0-.4.2-.4l.4-.2h1.6c.4 0 .6.2.6.7 0 .6.1 1 .4 1.4.3.4.7.5 1.3.5.5 0 .8-.1 1.2-.4s.4-.7.5-1.2c.2-1.1-.4-2.5-1.8-4a21 21 0 0 1-1.1-1.4l-.6-.7-.6-.8-.5-.8a51.2 51.2 0 0 0-1.1-2.5l-.2-.9a4 4 0 0 1 4.1-4.3 4 4 0 0 1 4 3.7v.7l-.6.1h-1.9l-.1-.5c0-.5-.2-.9-.4-1.1-.2-.3-.6-.4-1-.4-.5 0-.9.2-1 .6a2 2 0 0 0-.3 1.2c0 .7.4 1.5 1 2.3.5.9 1.1 1.7 1.8 2.4s1.3 1.6 1.9 2.6c.6 1 1 2 1 3 .2 1.3-.1 2.4-1 3.5-.8 1-2 1.5-3.3 1.5zM125 21.6h3.4c1.3 0 2.4.4 3.2 1.3s1.2 2.2 1.2 4v8.8c0 1.7-.4 3-1.2 4s-1.9 1.3-3.2 1.3h-3.3c-.2 0-.4 0-.5-.2V21.7l.5-.1zm2.3 3.1v13.6h1.1c.5 0 .9-.1 1.2-.4s.5-.9.5-1.5V26.2c0-.7-.2-1.2-.5-1.5-.3-.4-.7-.5-1.2-.5h-1l-.1.5zM142.8 41H137c-.2 0-.4 0-.4-.2l-.2-.4V22.1c0-.2 0-.3.2-.4l.4-.1h5.8l.5.1v2.4h-3.5c-.3 0-.5.1-.5.2l-.1.4v4.7h3.6c.2 0 .4 0 .5.2v2.3l-.5.1h-3l-.5.1-.1.5v5.7h3.6l.5.2v2.3l-.5.2zm17.2 0h-5.8c-.2 0-.4 0-.4-.2l-.2-.4V22.1c0-.2 0-.3.2-.4l.4-.1h1.7l.4.1.1.4v16.2h3.6l.5.2.1.4v1.5l-.1.4-.5.2zm2.8-17.8c0-.5.2-.8.5-1.2.3-.3.6-.4 1-.4s.8 0 1 .3c.3.2.5.5.6 1 .2.3.2.7.1 1.2 0 .5-.2 1-.5 1.6-.3.6-.7 1.2-1.3 1.8-.1 0-.2.1-.4 0l-.5-.4c-.2 0-.2-.2-.1-.3.5-.6.7-1 .8-1.4s0-.6-.2-.7a3 3 0 0 1-.7-.6c-.2-.3-.3-.6-.3-1zM178 41h-1.7a2 2 0 0 1-.3 0l-.2-.2v-.2l-.3-1.5c0-.3-.1-.5-.2-.5H172l-.1.5-.3 1.5-.1.2-.2.2h-2.2l-.2-.2v-.3l3.5-18.4.1-.4.5-.1h1.9l.2.5 3.5 18.4v.4h-.5zm-4.5-12.4l-1.1 6.7v.5l.4.1h2.1v-.6l-1.2-6.7v-.1l-.2.1zm8.8-7h3.4c1.3 0 2.4.4 3.2 1.3s1.2 2.2 1.2 4v2.4c0 1.7-.4 3-1.2 3.9s-1.9 1.3-3.2 1.3h-.9l-.2.1v5.8c0 .4-.2.6-.6.6h-1.7c-.2 0-.3 0-.4-.2l-.1-.4V22.1l.1-.4.4-.1zm2.3 3.1v7.1l.5.1h.6c.5 0 .9-.2 1.2-.5.3-.3.4-.8.4-1.5v-3.7c0-.7-.1-1.2-.4-1.5-.3-.4-.7-.5-1.2-.5h-1.1v.5zm9.4-3.1h3.3c1.3 0 2.4.4 3.2 1.3s1.2 2.2 1.2 4v2.4c0 1.7-.4 3-1.2 3.9s-1.9 1.3-3.2 1.3h-.8l-.3.1v5.8c0 .4-.2.6-.6.6H194c-.2 0-.4 0-.5-.2V21.7l.5-.1zm2.2 3.1v7.1l.6.1h.5c.5 0 1-.2 1.2-.5.3-.3.5-.8.5-1.5v-3.7c0-.7-.2-1.2-.5-1.5-.3-.4-.7-.5-1.2-.5h-1l-.1.5zm9.4-3.1h3.6c1.3 0 2.4.4 3 1.3.8.8 1.2 2 1.2 3.8v1c0 2.1-.6 3.6-1.7 4.4l1.7 8.3c0 .4 0 .6-.4.6h-2l-.2-.2-.1-.2-1.4-7.5c0-.2-.2-.2-.4-.2h-1v7.5l-.2.4-.4.2h-1.7c-.2 0-.3 0-.4-.2l-.1-.4V21.7l.5-.1zm3.6 2.4H208v6.3l.5.1h.8c1 0 1.4-.6 1.4-2V26c0-1.3-.5-2-1.4-2zm14.2 17h-5.8c-.2 0-.4 0-.5-.2V21.7l.5-.1h5.8l.4.1.2.4v1.5c0 .2 0 .4-.2.5h-3.4l-.6.2v5.1h3.6c.2 0 .4 0 .4.2l.2.4v1.5c0 .2 0 .3-.2.4l-.4.1h-3l-.6.1v6.2h3.6l.4.2.2.4v1.5c0 .2 0 .4-.2.4l-.4.2zm12.6 0h-1.2c-.3 0-.5-.1-.6-.4l-3.6-10.3-.1-.1c-.1-.1 0 0-.1 0v10.2l-.2.4-.4.2H228c-.2 0-.3 0-.4-.2l-.1-.4V21.7l.5-.1h1.3c.3 0 .4.1.5.3l3.7 10.4c.1.1.1.1.2 0V22l.1-.4.5-.1h1.6l.4.1.2.4v18.3c0 .2 0 .4-.2.4l-.4.2zm3.5-17.4v-1.5l.1-.4.4-.1h7.2l.5.1v2.4h-2.1c-.3 0-.5.1-.5.2v16.1l-.2.4-.4.2h-1.7c-.2 0-.3 0-.4-.2l-.2-.4V24.3l-.5-.1H240l-.4-.1-.1-.5zm14-1.5v18.3c0 .2 0 .4-.2.4l-.4.2h-1.6c-.2 0-.4 0-.5-.2l-.1-.4V22.1l.1-.4.5-.1h1.6l.4.1.2.4zM261 41c-1.2 0-2.3-.4-3.2-1.2a5 5 0 0 1-1.2-3.3l.1-.4c0-.1.2-.2.5-.2h1.6c.4 0 .5.2.5.7 0 .6.2 1 .5 1.4.3.4.7.5 1.2.5s1-.1 1.2-.4.5-.7.6-1.2c.1-1.1-.5-2.5-1.8-4a21 21 0 0 1-1.2-1.4l-.6-.7-.6-.8c0-.2-.2-.4-.5-.8a51.2 51.2 0 0 0-1.1-2.5v-.9a4 4 0 0 1 4-4.3 4 4 0 0 1 4 3.7l-.1.7-.5.1h-2v-.5c0-.5-.2-.9-.4-1.1-.3-.3-.6-.4-1-.4-.5 0-.9.2-1.1.6a2 2 0 0 0-.3 1.2 5 5 0 0 0 1 2.3c.6.9 1.2 1.7 1.9 2.4.6.7 1.3 1.6 1.9 2.6.6 1 1 2 1 3a4.3 4.3 0 0 1-4.4 5zm11.3 0c-1.3 0-2.3-.4-3.2-1.2a5 5 0 0 1-1.2-3.3v-.4l.6-.2h1.6c.3 0 .5.2.5.7 0 .6.2 1 .5 1.4.3.4.7.5 1.2.5s.9-.1 1.2-.4.5-.7.5-1.2c.2-1.1-.4-2.5-1.7-4a21 21 0 0 1-1.2-1.4l-.6-.7-.6-.8c0-.2-.3-.4-.5-.8a51.2 51.2 0 0 0-1.1-2.5l-.1-.9a4 4 0 0 1 4-4.3 4 4 0 0 1 4 3.7v.7l-.5.1h-2l-.1-.5c0-.5-.1-.9-.4-1.1-.2-.3-.5-.4-1-.4s-.8.2-1 .6a2 2 0 0 0-.3 1.2 5 5 0 0 0 1 2.3l1.8 2.4c.7.7 1.3 1.6 2 2.6.5 1 1 2 1 3 .2 1.3-.2 2.4-1 3.5-.9 1-2 1.5-3.4 1.5zm16.3 0H287a2 2 0 0 1-.3 0l-.2-.2-.1-.2-.3-1.5c0-.3-.1-.5-.2-.5h-3.3l-.2.5-.2 1.5-.2.2-.2.2h-2.2l-.2-.2v-.3l3.5-18.4c0-.2 0-.4.2-.4l.4-.1h1.9l.2.5 3.5 18.4v.4h-.5zm-4.5-12.4l-1 6.7v.5l.4.1h2v-.6l-1.1-6.7-.1-.1-.2.1zM295 26v10.5c-.1.9.1 1.5.7 1.8.6.4 1.2.4 1.8 0 .5-.3.8-1 .7-1.8v-4.4h-.7c-.2 0-.4 0-.5-.2v-2.3l.5-.2h3c.2 0 .3 0 .4.2l.1.4v5.8c0 1.6-.4 3-1.2 3.9a4 4 0 0 1-3.2 1.4c-1.3 0-2.4-.5-3.2-1.4-.8-.9-1.2-2.2-1.2-3.9v-9c0-1.8.4-3 1.2-4a4 4 0 0 1 3.2-1.3c1.2 0 2.2.4 3 1.1.8.8 1.3 2 1.4 3.4 0 .5-.2.8-.6.8h-1.6c-.2 0-.3 0-.4-.2l-.2-.4V26c.1-.8-.2-1.4-.7-1.8a2 2 0 0 0-1.8 0c-.6.4-.8 1-.8 1.8zm16 15h-5.8c-.2 0-.4 0-.5-.2V21.7l.5-.1h5.8l.5.1v2.4H308c-.3 0-.5.1-.5.2l-.1.4v4.7h3.6c.2 0 .4 0 .5.2v2.3l-.5.1h-3l-.5.1-.1.5v5.7h3.6l.5.2v2.3l-.5.2z"/><path fill="none" stroke="#FFF" stroke-miterlimit="10" stroke-width="3" d="M159.5 192v186"/><path fill="#FFF" d="M154.9 193l4.5-7.9 4.6 7.9z"/><path fill="none" stroke="#FFF" stroke-miterlimit="10" stroke-width="3" d="M249 281.5H63"/><path fill="#FFF" d="M248 276.7l7.9 4.6-7.9 4.5zm-128.6 33.6h-.7v-.1l-.1-.1V309h-2.1l-.2.2-.3.9-.1.2h-.9l-.1-.1v-.2l3.5-9.1.1-.3h1.2v9.4c0 .2 0 .3-.3.3zm-.8-7.4l-1.7 4.7v.2h1.7v-.2l.1-4.7zm4.4 2.5l-1 4.6c0 .2-.1.3-.3.3h-.6c-.2 0-.3-.1-.2-.3l1.2-6.4.3-.2h.8v.4c.3-.3.7-.5 1.1-.5.7 0 1.1.2 1.4.7.4-.4 1-.7 1.5-.7.6 0 1 .2 1.2.6.3.4.3 1 .2 1.8l-.9 4.3c0 .2-.1.3-.3.3h-.6c-.2 0-.3-.1-.2-.3l.9-4.6c.1-.5 0-.8-.4-1-.3-.1-.6 0-.9.2-.2.2-.4.5-.4.8l-1 4.6c0 .2 0 .3-.2.3h-.6c-.2 0-.3-.1-.3-.3l1-4.6c0-.5 0-.8-.4-1-.3-.1-.6 0-1 .2l-.4.8zm10 4.9h-.7l-.2-.1v-.4c-.4.3-1 .5-1.4.5-.5 0-1-.1-1.2-.5-.2-.3-.3-.7-.2-1.3v-.3l.5-1c.3-.4.6-.6 1-.7a10.3 10.3 0 0 1 1.3-.5l.5-.3.3-.5-.1-.6-.6-.2a1 1 0 0 0-.7.3c-.2.1-.3.4-.4.7 0 .2-.1.3-.3.3h-.5l-.2-.1v-.2c0-.6.3-1 .8-1.5.5-.4 1-.6 1.5-.6.6 0 1 .2 1.3.6.3.4.4 1 .3 1.5l-.7 4v.6c0 .2-.2.3-.4.3zm-1.8-1c.6 0 1-.5 1.1-1.2l.3-1.4a17.7 17.7 0 0 1-1.3.6l-.4.2-.4.8v.4l.1.4.6.1zm5.5-4.6l-.6 3.1v1c0 .2.2.3.5.4h.2v.8c-.1.2-.2.3-.4.3-.7 0-1.2-.3-1.4-.6-.2-.4-.2-1 0-1.9l.5-3.1v-.2h-.3v-.3l.1-.4c0-.2.2-.3.3-.3l.2-.1.2-1.2c0-.2.2-.3.4-.3h.6c.2 0 .2 0 .2.3l-.2 1.2v.1h.7v.7c-.1.2-.2.3-.4.3h-.3c-.1 0-.2 0-.2.2zm1.3 3.1l.4-2c.1-.8.4-1.4 1-1.9.4-.4 1-.6 1.5-.6.6 0 1 .2 1.4.6.3.4.4 1 .2 2l-.2.9v.2h-2.8c-.2 0-.3.1-.4.3l-.1.8v.9l.7.2c.2 0 .4 0 .6-.2.2-.2.4-.4.4-.7l.1-.3h1v.2c0 .5-.3 1-.7 1.4a2 2 0 0 1-1.6.7c-.6 0-1-.2-1.4-.6-.3-.4-.4-1-.2-2zm3.4-2v-1.1a1 1 0 0 0-.7-.3 1 1 0 0 0-.7.3l-.4.8v.5h1.4c.2 0 .3 0 .4-.3zm4.6 2.4l1-4.6c0-.1.1-.2.3-.2h.8v.2l-1.2 6.4c0 .2-.2.3-.4.3h-.6c-.2 0-.2-.1-.2-.3v-.2c-.3.3-.6.5-1 .5-.6 0-1-.2-1.3-.6-.3-.3-.3-1-.2-1.7l.9-4.4c0-.1.1-.2.3-.2h.8v.2l-.8 4.6c-.2.5 0 .8.3 1 .3.1.6 0 1-.2l.4-.8zm5.4-3.7h-.4c-.3 0-.6 0-.7.4l-.3 1-.8 4c0 .3-.1.4-.3.4h-.6c-.2 0-.3-.1-.2-.3l1.2-6.4.3-.2h.8v.4c.4-.3.7-.4 1.1-.4h.3v.8c0 .3-.2.4-.4.3zm18.2-3.9h1.6c.7 0 1.2.2 1.5.7.3.4.4 1 .2 2l-.9 4.3c-.1.9-.4 1.5-1 2-.4.4-1 .7-1.7.7h-1.6c-.2 0-.3-.1-.2-.3l1.7-9.1c0-.2.2-.3.4-.3zm.6 1.4l-1.4 6.9v.2h.8c.7 0 1.1-.4 1.3-1.4l.9-4.5c.2-1-.1-1.5-.8-1.5h-.7l-.1.3zm3.1 5.8l.4-2c.2-.8.5-1.4 1-1.9.4-.4 1-.6 1.6-.6.5 0 1 .2 1.3.6.3.4.4 1 .2 2l-.1.9-.1.2h-2.7c-.2 0-.3.1-.3.3l-.2.8.1.9.6.2c.3 0 .5 0 .7-.2l.4-.7v-.3h1.2v.2c0 .5-.3 1-.8 1.4a2 2 0 0 1-1.6.7c-.6 0-1-.2-1.3-.6-.4-.4-.4-1-.3-2zm3.4-2v-.3c.1-.4 0-.6 0-.8a1 1 0 0 0-.7-.3c-.2 0-.5 0-.7.3l-.4.8v.5h1.5c.1 0 .2 0 .3-.3zm-.2-3.1h-.3l-.2-.1.3-1.4c0-.2.2-.3.4-.3h.7c.2 0 .2.1 0 .4l-.6 1.2c0 .1-.1.2-.3.2zm2.5 7.6h-.7c-.2 0-.3-.1-.2-.3l1.8-9.1c0-.2.1-.3.3-.3h.8v.3l-.6 3c.4-.4.7-.6 1.1-.6.6 0 1 .2 1.3.6.2.4.3 1 .1 1.8l-.4 2.3c-.2.8-.4 1.3-.9 1.7a2 2 0 0 1-1.4.6c-.4 0-.8-.2-1-.5v.2c0 .2-.1.3-.3.3zm1.1-4.9l-.5 2.8c-.1.5 0 .8.3 1 .3.1.7 0 1-.2l.4-.8.5-2.8c.1-.5 0-.8-.3-1-.3-.1-.6 0-1 .2l-.4.8zm6.6 2.8l.9-4.6c0-.1.1-.2.3-.2h.8v.2l-1.2 6.4c0 .2-.2.3-.3.3h-.7c-.2 0-.2-.1-.2-.3v-.2c-.3.3-.6.5-1 .5-.6 0-1-.2-1.3-.6-.3-.3-.3-1-.2-1.7l.9-4.4c0-.1.1-.2.3-.2h.8v.2l-.8 4.6c-.1.5 0 .8.3 1 .3.1.6 0 1-.2l.4-.8zm4.3-3.5l-.5 3.1c-.2.5-.2.9-.1 1 0 .2.3.3.6.4h.2v.3l-.1.5c0 .2-.2.3-.3.3-.7 0-1.2-.3-1.4-.6-.2-.4-.3-1-.1-1.9l.6-3.1-.1-.2h-.2v-.7c.1-.2.2-.3.4-.3l.2-.1.2-1.2c0-.2.1-.3.3-.3h.6c.2 0 .3 0 .3.3l-.3 1.2.1.1h.6v.3l-.1.4c0 .2-.2.3-.3.3h-.4l-.1.2zm4.7 5.6h-.6l-.2-.1v-.4c-.4.3-1 .5-1.4.5-.6 0-1-.1-1.2-.5-.3-.3-.3-.7-.2-1.3v-.3l.5-1c.3-.4.6-.6.9-.7a10.3 10.3 0 0 1 1.4-.5l.5-.3.3-.5-.1-.6-.6-.2a1 1 0 0 0-.7.3c-.2.1-.3.4-.4.7 0 .2-.1.3-.3.3h-.5l-.2-.1v-.2c0-.6.3-1 .8-1.5.4-.4 1-.6 1.5-.6.6 0 1 .2 1.3.6.3.4.4 1 .3 1.5l-.7 4v.6c0 .2-.2.3-.4.3zm-1.7-1c.6 0 1-.5 1.1-1.2l.3-1.4a17.7 17.7 0 0 1-1.3.6l-.4.2c-.2.2-.4.5-.4.8v.4l.1.4.6.1zm5.2-3.9l-1 4.6c0 .2 0 .3-.3.3h-.6c-.2 0-.2-.1-.2-.3l1.3-6.4c0-.1.1-.2.3-.2h.8v.4c.3-.3.7-.5 1-.5.7 0 1 .2 1.3.6.3.4.3 1 .2 1.8l-.9 4.3c0 .2-.1.3-.3.3h-.6c-.2 0-.3-.1-.2-.3l.9-4.6c0-.5 0-.8-.4-1-.3-.1-.6 0-.9.2-.2.2-.4.5-.4.8zm5.6-.7l-.6 3.1v1c0 .2.2.3.5.4h.2v.8c-.1.2-.2.3-.4.3-.7 0-1.1-.3-1.4-.6-.2-.4-.2-1 0-1.9l.6-3.1-.1-.2h-.2v-.7c0-.2.2-.3.4-.3l.1-.1.3-1.2c0-.2.1-.3.3-.3h.6c.2 0 .3 0 .2.3l-.2 1.2.1.1h.5v.7c0 .2-.2.3-.4.3h-.3c-.1 0-.2 0-.2.2zm-36.2-89.2l.2-.5c0-.2.1-.3.3-.3h3.8v.3l-.1.5c0 .2-.2.3-.4.3h-1.1l-.1.2-1.6 8c0 .2-.1.3-.3.3h-.6c-.2 0-.3 0-.2-.2l1.5-8v-.3h-1.2l-.1-.1v-.2zm3.5 6.4l.4-2c.2-.8.5-1.4 1-1.9.4-.4 1-.6 1.6-.6.5 0 1 .2 1.3.6.4.4.4 1 .3 2l-.2.9-.1.2h-2.7c-.1 0-.3.1-.3.3l-.2.8.1.8.6.3c.3 0 .5 0 .7-.2l.4-.7.1-.3h1v.2c0 .5-.3 1-.7 1.4-.5.5-1 .7-1.7.7-.5 0-1-.2-1.3-.6-.3-.4-.4-1-.3-2zm3.4-2v-1.2l-.6-.2c-.3 0-.5 0-.7.3l-.4.8-.1.2v.2l.2.1h1.3c.2 0 .3 0 .3-.3zm3.5-.3l-.5 2.6v.8c.2.2.4.3.7.3.2 0 .4 0 .6-.2.3-.2.4-.4.4-.7l.2-.3h.9v.2c0 .5-.3 1-.7 1.4a2 2 0 0 1-1.6.7c-.6 0-1-.2-1.4-.6-.3-.4-.4-1-.2-2l.4-1.9c.1-.8.4-1.4 1-1.9.4-.4 1-.6 1.5-.6.7 0 1.1.2 1.4.7s.4 1 .2 1.4c0 .2-.1.2-.3.2h-.8v-.3l-.1-.7a.7.7 0 0 0-.6-.2c-.3 0-.5 0-.7.3l-.4.8zm5.1-.1l-.9 4.6c0 .1-.1.2-.3.2h-.6c-.2 0-.3 0-.2-.2l1.8-9.1c0-.2.1-.3.3-.3h.8v.3l-.6 3c.4-.4.7-.6 1.2-.6s1 .2 1.2.6c.3.4.3 1 .2 1.7l-.9 4.4c0 .1-.1.2-.3.2h-.6c-.2 0-.3 0-.2-.2l.8-4.6c.2-.5 0-.8-.3-1-.3-.1-.6 0-1 .2l-.4.8zm5.4 0l-1 4.6c0 .1 0 .2-.2.2h-.6c-.2 0-.3 0-.3-.2l1.3-6.4c0-.2.1-.3.3-.3h.6l.2.1v.4c.3-.3.7-.5 1-.5.7 0 1 .2 1.3.6.3.4.3 1 .2 1.7l-.9 4.4c0 .1-.1.2-.3.2h-.6c-.2 0-.3 0-.2-.2l.9-4.6c0-.5 0-.8-.4-1-.3-.1-.6 0-.9.2-.2.2-.4.5-.4.8zm4.1 4.8h-.6c-.2 0-.3 0-.2-.2l1.2-6.4c0-.2.1-.3.3-.3h.6l.2.1v.2l-1.2 6.4c0 .1-.1.2-.3.2zm.7-7.7a.6.6 0 0 1 0-.4c0-.2 0-.4.2-.5l.5-.2c.2 0 .3 0 .4.2.1.1.2.3.1.5l-.3.4c-.1.2-.3.2-.5.2-.1 0-.3 0-.4-.2zm3.1 3l-.5 2.6c-.1.4 0 .6 0 .8.2.2.4.3.7.3.2 0 .4 0 .6-.2.2-.2.4-.4.4-.7l.1-.3h1v.2c0 .5-.3 1-.7 1.4a2 2 0 0 1-1.6.7c-.6 0-1-.2-1.4-.6-.3-.4-.4-1-.2-2l.4-1.9c.1-.8.4-1.4 1-1.9.4-.4 1-.6 1.5-.6.7 0 1.1.2 1.4.7s.4 1 .2 1.4c0 .2-.2.2-.3.2h-.8v-.3l-.1-.7a.7.7 0 0 0-.6-.2c-.3 0-.5 0-.7.3l-.4.8zm3.9 4.7h-.6c-.2 0-.3 0-.2-.2l1.2-6.4c0-.2.2-.3.3-.3h.7l.2.1v.2l-1.3 6.4c0 .1-.1.2-.3.2zm.7-7.7a.6.6 0 0 1 0-.4c0-.2 0-.4.2-.5l.5-.2c.2 0 .3 0 .5.2v.5c0 .2 0 .3-.2.4-.2.2-.4.2-.5.2-.2 0-.4 0-.5-.2zm1.5 5.3l.4-2c.1-.8.5-1.4 1-1.9.4-.4 1-.6 1.5-.6.6 0 1 .2 1.4.6.3.4.4 1 .2 2l-.2.9v.2H205c-.2 0-.3.1-.4.3l-.1.8v.8c.2.2.4.3.7.3.2 0 .5 0 .7-.2l.4-.7v-.3h1.3v.2c-.1.5-.4 1-.8 1.4a2 2 0 0 1-1.6.7c-.6 0-1-.2-1.4-.6-.3-.4-.4-1-.2-2zm3.4-2v-1.2l-.7-.2c-.3 0-.5 0-.7.3l-.4.8v.4l.2.1h1.2c.2 0 .3 0 .4-.3zm3.4-.4l-.9 4.6c0 .1-.1.2-.3.2h-.6c-.2 0-.3 0-.3-.2l1.3-6.4c0-.2.1-.3.3-.3h.6l.2.1v.4c.3-.3.7-.5 1.1-.5.6 0 1 .2 1.3.6.2.4.3 1 .1 1.7l-.8 4.4-.3.2h-.7c-.2 0-.2 0-.2-.2l1-4.6c0-.5-.1-.8-.4-1-.4-.1-.7 0-1 .2l-.4.8zM96 214.7h1.6c.7 0 1.2.2 1.5.7.3.4.4 1 .2 2l-.2 1c-.2.8-.5 1.5-1 2-.5.4-1 .6-1.7.6h-.7l-.1.3-.6 2.8c0 .1-.1.2-.3.2h-.8v-.2l1.7-9.1c0-.2.2-.3.4-.3zm.6 1.3l-.7 3.6v.3h.7c.7 0 1.1-.5 1.3-1.5l.3-1.1c.2-1-.1-1.5-.8-1.5h-.7l-.1.2zm5.9 2.6h-.4c-.4 0-.6 0-.7.4-.2.3-.3.6-.3 1l-.8 4c0 .2-.2.3-.3.3h-.6c-.2 0-.3 0-.3-.2l1.3-6.4c0-.2.1-.3.3-.3h.6l.2.1v.4c.3-.3.7-.4 1-.5h.2l.2.1v.8c-.1.3-.2.3-.4.3zm5 1.4l-.4 1.9c-.2.8-.5 1.5-1 1.9-.5.4-1 .6-1.6.6s-1-.2-1.3-.6c-.4-.4-.4-1-.3-2l.4-1.9c.2-.8.5-1.4 1-1.9.4-.4 1-.6 1.6-.6.5 0 1 .2 1.3.6.4.4.4 1 .3 2zm-1.6 2.2l.5-2.6c0-.5 0-.9-.4-1-.3-.2-.6-.2-1 0l-.5 1-.5 2.6c0 .5 0 .9.4 1 .3.2.6.2 1 0l.5-1zm2.6 2.1h-.6c-.2 0-.3 0-.2-.2l1-5.4c-.2 0-.3-.1-.3-.2v-.5c.1-.2.2-.3.4-.3.1 0 .2 0 .2-.2v-.4c.2-.9.5-1.5.9-1.9.4-.3 1-.5 1.6-.5h.2v.8c0 .2-.2.3-.4.3-.3 0-.6.1-.7.3a2.5 2.5 0 0 0-.4 1.2v.3h.8v.3l-.1.4c0 .2-.2.3-.3.3h-.6l-.1.1-1 5.4-.4.2zm2.7-2.4l.4-2c.2-.8.5-1.4 1-1.9.4-.4 1-.6 1.6-.6.5 0 1 .2 1.3.6.3.4.4 1 .2 2l-.1.9-.1.2h-2.7c-.2 0-.3.1-.3.3l-.2.8.1.8c.1.2.3.3.6.3s.5 0 .7-.2l.4-.7v-.3h1.2v.2c0 .5-.3 1-.8 1.4a2 2 0 0 1-1.6.7c-.6 0-1-.2-1.3-.6-.4-.4-.4-1-.3-2zm3.4-2v-1.2l-.7-.2c-.2 0-.5 0-.7.3l-.4.8v.4l.2.1h1.3c.1 0 .2 0 .3-.3zm3.4-.7c-.1.2 0 .3.1.5l.5.5.7.5.6.7.1.9c0 .5-.3 1-.8 1.5s-1 .6-1.6.6c-.6 0-1-.2-1.3-.6-.3-.4-.4-.9-.3-1.3 0-.2.1-.3.3-.3h.8v.3l.1.6.6.2c.2 0 .4 0 .6-.2l.4-.5v-.7c0-.2-.3-.4-.5-.6l-.7-.5a2 2 0 0 1-.6-.7c-.2-.2-.2-.5-.2-.9 0-.5.3-1 .8-1.3.4-.3.8-.5 1.4-.5.5 0 .8.2 1.1.5.3.4.4.9.3 1.4 0 .2-.2.3-.4.3h-.5l-.2-.1v-.3l-.1-.5a.7.7 0 0 0-.5-.2c-.2 0-.4 0-.5.2-.2.1-.2.3-.3.5zm4.5 0c0 .2 0 .3.2.5l.5.5.7.5.5.7c.2.2.2.5.2.9 0 .5-.4 1-.8 1.5s-1 .6-1.6.6c-.6 0-1-.2-1.4-.6-.3-.4-.4-.9-.3-1.3 0-.2.2-.3.4-.3h.7v.3c0 .2 0 .4.2.6l.6.2c.2 0 .4 0 .6-.2l.4-.5v-.7l-.5-.6-.7-.5a2 2 0 0 1-.6-.7c-.2-.2-.3-.5-.2-.9 0-.5.3-1 .7-1.3a3 3 0 0 1 1.4-.5c.5 0 1 .2 1.2.5.3.4.4.9.3 1.4-.1.2-.2.3-.4.3h-.5l-.2-.1v-.3l-.1-.5a.7.7 0 0 0-.5-.2c-.2 0-.4 0-.5.2-.2.1-.3.3-.3.5zm3.5 5.1h-.6c-.2 0-.3 0-.3-.2l1.3-6.4c0-.2.1-.3.3-.3h.6l.2.1v.2l-1.2 6.4-.3.2zm.7-7.7a.6.6 0 0 1-.1-.4c0-.2.1-.4.3-.5l.5-.2c.2 0 .3 0 .4.2.1.1.2.3.1.5l-.3.4c-.1.2-.3.2-.5.2s-.3 0-.4-.2zm6 3.4l-.4 1.9c-.2.8-.5 1.5-1 1.9-.5.4-1 .6-1.6.6s-1-.2-1.3-.6c-.3-.4-.4-1-.3-2l.4-1.9c.2-.8.5-1.4 1-1.9.5-.4 1-.6 1.6-.6.6 0 1 .2 1.3.6.4.4.5 1 .3 2zm-1.6 2.2l.5-2.6c0-.5 0-.9-.4-1-.3-.2-.6-.2-1 0l-.5 1-.5 2.6c0 .5 0 .9.4 1 .3.2.6.2 1 0l.5-1zm3.9-2.7l-1 4.6c0 .1 0 .2-.3.2h-.6c-.2 0-.2 0-.2-.2l1.2-6.4c0-.2.2-.3.4-.3h.6l.2.1v.4c.3-.3.7-.5 1-.5.7 0 1 .2 1.3.6.3.4.3 1 .2 1.7l-.9 4.4c0 .1-.1.2-.3.2h-.6c-.2 0-.3 0-.2-.2l.9-4.6c0-.5 0-.8-.4-1-.3-.1-.6 0-.9.2-.2.2-.4.5-.4.8zm5.3 0l-1 4.6c0 .1 0 .2-.2.2h-.6c-.2 0-.3 0-.3-.2l1.3-6.4c0-.2.1-.3.3-.3h.6l.2.1v.4c.3-.3.7-.5 1.1-.5.6 0 1 .2 1.3.6.2.4.3 1 .1 1.7l-.8 4.4-.4.2h-.6c-.2 0-.2 0-.2-.2l.9-4.6c.1-.5 0-.8-.4-1-.3-.1-.6 0-.9.2-.2.2-.4.5-.4.8zm3.7 2.4l.4-2c.2-.8.5-1.4 1-1.9.5-.4 1-.6 1.6-.6.6 0 1 .2 1.3.6.4.4.5 1 .3 2l-.2.9-.1.2h-2.7l-.3.3-.2.8.1.8.6.3c.3 0 .5 0 .7-.2.2-.2.4-.4.4-.7l.1-.3h1v.2c0 .5-.3 1-.7 1.4-.4.5-1 .7-1.7.7-.5 0-1-.2-1.3-.6-.3-.4-.4-1-.2-2zm3.4-2v-.3a1 1 0 0 0 0-.9l-.6-.2c-.3 0-.5 0-.7.3l-.4.8v.2c-.1.1-.1.2 0 .2l.1.1h1.3c.2 0 .3 0 .3-.3zm4.5-4.9l-1.4 7v1l.5.3h.2v.8l-.4.2c-.7 0-1.1-.2-1.4-.5-.2-.4-.2-1 0-1.9l1.3-7 .3-.2h1v.3z"/><circle cx="159.3" cy="281.4" r="7.5" fill="#FFF"/><path fill="#FFF" d="M73.8 258l-1.4-1.7v-.3l1.4-1.8h.2v.8l-.9 1v.1l.8 1 .1.3v.5h-.2zm1.7 0l-1.4-1.7v-.3l1.4-1.8h.2v.8l-.9 1v.1l.8 1 .2.3v.5h-.3zm1.2.5c.2 0 .4-.1.5-.3l.1-.3V251l.1-.2h.5v5.8a11.8 11.8 0 0 1 0 1.3c0 .4-.2.6-.4.8l-.8.3h-.2v-.6h.2zm2.5-1.5v-1.8c0-.7.1-1.2.4-1.5s.7-.5 1.2-.5.8.1 1.1.5.4.8.4 1.5v.8H80l-.3.1v1.2c0 .4 0 .7.3 1l.7.2c.2 0 .5 0 .6-.2l.3-.8v-.2h.8v.2c0 .4-.1.8-.4 1.1-.2.3-.6.5-1.1.5-.5 0-.9-.2-1.2-.5s-.4-.9-.4-1.6zm.6-2v.5h1.9v-.5c0-.5 0-.8-.2-1s-.4-.3-.7-.3c-.3 0-.6.1-.7.3-.2.2-.3.5-.3 1zm7.6-3.6a1 1 0 0 0-.7.3l-.1 1.2v.5h.6l.2.1v.5h-.7l-.1.1v4.9H86v-4.9h-.1l-.2-.1v-.5h.2v-1.2a4.4 4.4 0 0 1 .3-.8v-.1l.1-.1.1-.1.2-.1c.1-.2.4-.2.8-.2h.2v.5h-.2zm2.5 2.3c-.6 0-.9.4-1 1v.3h-.5v-.2c0-.4.1-.8.4-1.2.2-.3.6-.4 1-.4 1.1 0 1.6.6 1.6 2v3l.1.6c0 .2 0 .3-.2.3H91l-.2-.1v-.3c-.4.3-.7.4-1.2.4-.4 0-.8-.1-1-.4s-.4-.7-.4-1.2v-.3c0-.4 0-.6.2-.9s.4-.4.7-.5l.7-.3c.3 0 .5-.2.6-.3.2 0 .3-.2.3-.4 0-.3 0-.6-.2-.8s-.4-.3-.7-.3zm0 4.8c.3 0 .6 0 .7-.3l.2-.8v-1.7l-.6.2-.5.2c-.6.3-.9.7-.8 1.3 0 .8.3 1.2 1 1.1zm3.1-5.8s-.2 0-.2-.2v-.4s.1-.2.3-.2c.1 0 .2 0 .3.2v.4l-.3.2zm.4.7v5.6h-.6v-5.7l.2-.1h.3v.2zm4 1.1v.2H97c-.2 0-.3 0-.3-.2s-.1-.4-.3-.5l-.5-.3c-.2 0-.4 0-.5.2l-.3.6.3.6.6.6.6.5.6.6c.2.2.2.5.2.8 0 .4-.1.8-.4 1-.4.4-.7.5-1.1.5-.5 0-.8-.1-1.1-.4-.3-.3-.5-.7-.5-1v-.3h.4c.1 0 .2 0 .2.2 0 .3.2.5.3.7s.4.2.7.2c.2 0 .5 0 .6-.2s.3-.4.3-.7c0-.3-.1-.5-.3-.8l-.8-.6-.8-.8c-.3-.3-.4-.6-.4-.9 0-.4.1-.7.4-1 .3-.2.6-.3 1-.3s.7 0 1 .3.3.6.4 1zm6.1 0v.2h-.3c-.1 0-.2 0-.2-.2s-.1-.4-.3-.5l-.5-.3c-.2 0-.4 0-.6.2s-.2.4-.2.6c0 .2 0 .4.2.6l.6.6a31.3 31.3 0 0 1 1.3 1.1l.2.8c0 .4-.2.8-.5 1-.3.4-.6.5-1 .5-.5 0-.8-.1-1.1-.4-.3-.3-.5-.7-.5-1v-.3h.4c.1 0 .2 0 .2.2 0 .3.1.5.3.7s.4.2.7.2c.2 0 .4 0 .6-.2s.3-.4.3-.7c0-.3-.1-.5-.4-.8-.2-.3-.5-.5-.8-.6l-.7-.8c-.3-.3-.4-.6-.4-.9 0-.4.1-.7.4-1 .3-.2.6-.3 1-.3.3 0 .6 0 1 .3s.3.6.3 1zm2.7-.8c-.5 0-.8.4-.9 1v.3h-.5v-.2c0-.4 0-.8.3-1.2.2-.3.6-.4 1.1-.4 1 0 1.6.6 1.6 2v3.6c0 .2 0 .3-.2.3h-.2l-.2-.1v-.3c-.3.3-.7.4-1.1.4-.5 0-.8-.1-1-.4s-.5-.7-.5-1.2v-.3c0-.4.1-.6.3-.9s.4-.4.6-.5l.8-.3.6-.3c.2 0 .2-.2.2-.4 0-.3 0-.6-.2-.8s-.4-.3-.7-.3zm.1 4.8c.3 0 .5 0 .6-.3l.3-.8v-1.7l-.6.2-.6.2c-.6.3-.8.7-.8 1.3 0 .8.4 1.2 1.1 1.1zm5.2.3V255c0-.9-.3-1.3-.9-1.3-.6 0-.9.4-.9 1.3v4h-.5v-5.7l.1-.1h.4v.5c.2-.4.6-.5 1-.5s.8.1 1 .4.5.9.5 1.6v3.6l-.1.2h-.5v-.2zm4.5-4.3v.2h-.2c-.2 0-.3 0-.3-.2s0-.4-.2-.5l-.6-.3c-.2 0-.4 0-.5.2l-.3.6.3.6.6.6.7.5.5.6c.3.2.3.5.3.8 0 .4-.2.8-.5 1-.3.4-.7.5-1.1.5-.4 0-.8-.1-1-.4-.4-.3-.5-.7-.5-1v-.3h.3c.1 0 .2 0 .2.2 0 .3.2.5.4.7s.3.2.6.2.5 0 .7-.2.2-.4.2-.7c0-.3 0-.5-.3-.8-.3-.3-.5-.5-.8-.6l-.8-.8c-.2-.3-.4-.6-.4-.9 0-.4.2-.7.4-1 .3-.2.6-.3 1-.3s.7 0 1 .3.4.6.4 1zm3.3-1.1v-.2h.7v.2l1 5h.1l1-5v-.1h.1l.2-.1h.2v.2l-1.4 6.5c0 .4-.2.8-.4 1s-.4.3-.7.3h-.2v-.5h.2l.4-.3.1-.6-.5-2.9-.8-3.5zm6.7 7.6v-7.7l.2-.1h.3v.4c.3-.3.6-.4 1-.4.5 0 .8.1 1.1.4s.4 1 .4 1.6v1.8c0 .8-.1 1.3-.4 1.6s-.6.5-1.1.5c-.4 0-.7-.2-1-.5v2.5h-.5v-.2zm2.4-3.7V255c0-.9-.3-1.3-1-1.3-.5 0-.8.4-.8 1.3v2.3c0 .8.3 1.2.9 1.2.6 0 .9-.4.9-1.2zm1.8-.3v-1.8c0-.7.1-1.2.4-1.5s.7-.5 1.1-.5c.5 0 .9.1 1.2.5.3.3.4.8.4 1.5v.8H131l-.3.1v1.2c0 .4 0 .7.2 1l.7.2c.3 0 .5 0 .7-.2s.3-.5.3-.8v-.2h.5v.2c0 .4 0 .8-.3 1.1-.3.3-.7.5-1.2.5-.4 0-.8-.2-1.1-.5s-.4-.9-.4-1.6zm.6-2v.5h1.9v-.5c0-.5 0-.8-.3-1s-.4-.3-.7-.3a1 1 0 0 0-.7.3l-.2 1zm6.2 3.8V255c0-.9-.3-1.3-.9-1.3-.6 0-.9.4-.9 1.3v4h-.6v-5.7l.2-.1h.4v.5c.2-.4.5-.5 1-.5.4 0 .8.1 1 .4s.4.9.4 1.6v3.8h-.5v-.2zm4.6-4.3v.2h-.3c-.2 0-.3 0-.3-.2s0-.4-.2-.5l-.6-.3c-.2 0-.4 0-.5.2l-.3.6.3.6.6.6.7.5.5.6c.3.2.3.5.2.8 0 .4-.1.8-.4 1-.3.4-.7.5-1.1.5-.5 0-.8-.1-1.1-.4-.3-.3-.5-.7-.5-1v-.3h.3c.2 0 .3 0 .3.2 0 .3.2.5.3.7s.4.2.7.2c.3 0 .5 0 .7-.2s.2-.4.2-.7c0-.3 0-.5-.3-.8l-.8-.6-.8-.8c-.3-.3-.4-.6-.4-.9 0-.4.2-.7.4-1 .3-.2.6-.3 1-.3s.7 0 1 .3.3.6.4 1zm1.1 2.5v-1.8c0-.7.1-1.2.4-1.5.3-.4.7-.5 1.2-.5.4 0 .8.1 1.1.5s.4.8.4 1.5v.8h-2.2l-.3.1v1.2c0 .4 0 .7.3 1l.7.2c.2 0 .5 0 .6-.2l.3-.8v-.2h.7v.2c0 .4-.1.8-.4 1.1-.3.3-.6.5-1.1.5-.5 0-.9-.2-1.2-.5-.3-.3-.4-.9-.4-1.6zm.6-2v.5h1.9v-.5c0-.5 0-.8-.2-1s-.4-.3-.7-.3c-.3 0-.6.1-.7.3-.2.2-.3.5-.3 1zm5.3-1.1a2 2 0 0 0-.3 0c-.2 0-.4 0-.5.3v4.6l-.1.2h-.5v-5.7l.2-.1h.3v.4c.3-.3.6-.4.9-.4h.2v.7h-.2zm2.6 2.4l-1.4 1.7h-.2v-.5l.1-.3.8-1v-.1l-.8-1-.1-.3v-.6h.2l1.4 1.8v.3zm1.8 0l-1.5 1.7h-.1c-.1 0 0 0 0 0v-.8l.8-1v-.1l-.8-1v-.9h.1l1.5 1.8v.3zM102.1 335l-1.4-1.7v-.3l1.4-1.8h.2v.8l-.9 1 .8 1 .1.4v.5h-.2zm1.7 0l-1.4-1.7v-.3l1.4-1.8h.2v.8l-.9 1 .8 1 .1.4v.5h-.2zm1.2.5c.2 0 .4-.1.5-.3l.1-.3V328l.1-.2h.5v5.8a11.8 11.8 0 0 1 0 1.3c0 .4-.2.6-.4.8l-.8.3-.2-.1v-.5h.2zm2.5-1.5v-1.8c0-.7.1-1.2.4-1.5s.7-.6 1.2-.6c.4 0 .8.2 1.1.6s.4.8.4 1.5v.8h-2.2l-.3.1v1.2c0 .4 0 .7.3 1l.7.2c.2 0 .5 0 .6-.2l.3-.8v-.2h.7v.1c0 .5-.1.9-.4 1.2-.2.3-.6.5-1.1.5-.5 0-.9-.2-1.2-.5s-.4-.9-.4-1.6zm.6-2v.5h1.9v-.5c0-.5 0-.8-.2-1s-.4-.3-.7-.3c-.3 0-.6.1-.7.3-.2.2-.3.5-.3 1zm8.6 3.8V332c0-.9-.3-1.3-.9-1.3-.6 0-1 .4-1 1.3v4h-.5v-5.8h.5v.5c.3-.4.6-.5 1-.6.5 0 .9.2 1.1.5s.4.9.4 1.6v3.8h-.5v-.2zm1.9-1.8v-1.8c0-.7.1-1.2.4-1.5s.6-.6 1.1-.6c.5 0 .9.2 1.2.6s.4.8.4 1.5v.8h-2.4l-.2.1v1.2c0 .4 0 .7.2 1l.7.2c.3 0 .5 0 .7-.2s.3-.5.3-.8v-.2h.5v.1c0 .5 0 .9-.3 1.2-.3.3-.7.5-1.2.5s-.8-.2-1.1-.5-.4-.9-.4-1.6zm.6-2v.5h1.9v-.5c0-.5-.1-.8-.3-1s-.4-.3-.7-.3a1 1 0 0 0-.7.3l-.2 1zm8.8-.5l-.1.2h-.3c-.2 0-.2 0-.2-.2s-.1-.4-.3-.5a.5.5 0 0 0-.5-.3l-.6.2c-.2.2-.2.4-.2.6 0 .2 0 .4.2.6l.6.5.7.6.6.6c.2.2.2.5.2.8 0 .4-.2.8-.5 1-.3.4-.7.5-1 .5-.5 0-.9-.1-1.2-.4-.3-.3-.4-.7-.4-1.1v-.2h.3c.2 0 .3 0 .3.2 0 .3.1.5.3.7s.4.2.6.2c.3 0 .5 0 .7-.2s.3-.4.3-.7c0-.3-.1-.5-.4-.8l-.8-.7c-.3-.1-.5-.4-.8-.7l-.3-.9c0-.4.1-.7.4-1 .2-.2.6-.3 1-.3.3 0 .6 0 .9.3.3.3.4.6.4 1zm2.6-.8c-.5 0-.8.4-.9 1v.3h-.5v-.2c0-.4 0-.8.3-1.2.2-.3.6-.4 1.1-.4 1 0 1.5.6 1.5 2v3l.1.6c0 .2 0 .3-.2.3h-.2l-.2-.1v-.3c-.3.3-.7.4-1.1.4-.5 0-.8-.1-1.1-.4s-.4-.7-.4-1.2v-.3c0-.4 0-.6.3-.9.1-.2.3-.4.6-.5l.7-.3c.3 0 .5-.2.7-.3l.2-.4c0-.3 0-.6-.2-.8s-.4-.3-.7-.3zm0 4.8c.4 0 .6 0 .7-.3l.2-.8v-1.7l-.5.2-.6.2c-.6.3-.8.7-.8 1.3 0 .8.4 1.2 1 1.1zm3.2-5.8c-.1 0-.3 0-.3-.2v-.4l.3-.2c.1 0 .3 0 .3.2v.4c0 .1-.1.2-.3.2zm.3.7v5.6h-.6v-5.8h.6v.2zm3.9 1.1v.2h-.3s-.2 0-.2-.2 0-.4-.2-.5l-.6-.3c-.2 0-.4 0-.5.2l-.2.6c0 .2 0 .4.2.6l.6.5.7.6.5.6c.3.2.3.5.3.8 0 .4-.2.8-.5 1-.3.4-.7.5-1 .5-.5 0-.9-.1-1.2-.4-.3-.3-.4-.7-.4-1.1v-.2h.3c.2 0 .2 0 .2.2 0 .3.2.5.4.7.1.2.4.2.6.2.3 0 .5 0 .7-.2s.3-.4.3-.7c0-.3-.2-.5-.4-.8l-.8-.7c-.3-.1-.5-.4-.8-.7-.2-.3-.4-.6-.4-.9 0-.4.2-.7.4-1 .3-.2.6-.3 1-.3s.7 0 1 .3.4.6.4 1zm3.7 6.5v-7.8h.5l.1.2v.2c.2-.3.5-.4 1-.5.4 0 .8.2 1 .5s.4.9.4 1.6v1.8c0 .7-.1 1.3-.4 1.6s-.6.5-1 .5c-.5 0-.8-.2-1-.5v2.5h-.6v-.2zm2.4-3.7V332c0-.9-.3-1.3-.9-1.3-.6 0-1 .4-1 1.3v2.3c0 .8.4 1.2 1 1.2s1-.4 1-1.2zm3.4-3.6c-.6 0-.9.4-1 1v.3h-.5v-.2l.3-1.2c.3-.3.7-.4 1.2-.4 1 0 1.5.6 1.5 2v3l.1.6c0 .2 0 .3-.2.3h-.2l-.2-.1v-.3c-.4.3-.7.4-1.2.4-.4 0-.8-.1-1-.4s-.4-.7-.4-1.2v-.3c0-.4 0-.6.2-.9s.4-.4.7-.5l.7-.3.6-.3c.2 0 .3-.2.3-.4 0-.3 0-.6-.2-.8a1 1 0 0 0-.7-.3zm0 4.8c.3 0 .5 0 .7-.3l.2-.8v-1.7l-.6.2c-.3 0-.5.2-.5.2-.6.3-.9.7-.8 1.3 0 .8.3 1.2 1 1.1zm5.5-4l-.1.2h-.3c-.1 0-.2 0-.2-.2s-.1-.4-.3-.5l-.5-.3c-.2 0-.4 0-.6.2s-.2.4-.2.6c0 .2 0 .4.2.6l.6.5.7.6.6.6c.2.2.2.5.2.8 0 .4-.2.8-.5 1-.3.4-.6.5-1 .5-.5 0-.8-.1-1.1-.4-.3-.3-.5-.7-.5-1.1v-.2h.4c.1 0 .2 0 .2.2 0 .3.1.5.3.7s.4.2.7.2c.2 0 .4 0 .6-.2s.3-.4.3-.7c0-.3-.1-.5-.4-.8l-.8-.7-.7-.7c-.3-.3-.4-.6-.4-.9 0-.4.1-.7.4-1 .3-.2.6-.3 1-.3.3 0 .6 0 1 .3s.3.6.3 1zm-60.8 19.8c-.5 0-.9-.2-1.2-.5s-.4-.9-.4-1.6v-1.8c0-.7.1-1.2.4-1.6s.7-.5 1.2-.5.9.2 1.1.5c.3.4.4.7.4 1.2v.1h-.5v-.2c-.1-.3-.2-.6-.4-.7l-.6-.3c-.3 0-.6 0-.7.3-.2.2-.3.5-.3 1v2.2c0 .5 0 .8.3 1 .1.2.4.3.7.3.2 0 .5 0 .6-.3l.3-.7v-.2l.2-.1h.4v.2c0 .4-.1.8-.4 1.2-.2.3-.6.5-1.1.5zm2.7-2.1v-1.8c0-.7.1-1.2.4-1.6s.7-.5 1.1-.5c.5 0 1 .2 1.2.5.3.4.4.9.4 1.6v.8h-2.5v1.3c0 .4 0 .7.2.9.2.2.4.3.7.3.3 0 .5 0 .7-.3l.3-.7v-.2l.2-.1h.3v.2c0 .4 0 .8-.3 1.2-.3.3-.6.5-1.2.5-.4 0-.8-.2-1.1-.5s-.4-.9-.4-1.6zm.6-2v.5h1.9v-.6c0-.4 0-.7-.3-1s-.4-.2-.7-.2c-.3 0-.5 0-.7.3l-.2 1zm9.1-1.6v7.7h-.6v-2.5c-.2.3-.6.5-1 .5s-.8-.2-1-.5c-.3-.4-.5-.9-.5-1.6v-1.8c0-.7.2-1.3.4-1.6.3-.3.7-.5 1.1-.5.4 0 .8.2 1 .5v-.4h.5v.2zm-2.4 1.5v2.3c0 .9.3 1.3.9 1.3.6 0 .9-.4.9-1.3v-2.3c0-.8-.3-1.2-1-1.2-.5 0-.8.4-.8 1.2zm4.3-1.5v3.8c0 .9.4 1.3 1 1.3s.9-.4.9-1.3v-4h.5v5.8h-.5v-.4c-.3.3-.6.5-1 .5s-.8-.2-1-.5c-.3-.4-.5-.9-.5-1.6v-3.8h.7v.2zm3.5-2.2v-.3h.7v.6l-.4.7h-.2v-.1l.1-.4v-.2l-.2-.3zm2 1.4s-.2 0-.3-.2v-.3l.4-.2c.1 0 .2 0 .3.2v.3c0 .2-.2.2-.3.2zm.4.8v5.6h-.6v-5.8h.5v.2zm2.3 5.1h.2v.5h-.2c-.4 0-.7-.1-.8-.4l-.2-.8v-6.9h.6v7.2l.4.4zm5.1-7.1c-.3 0-.5.1-.6.3l-.2 1.1v.5l.1.1h.7v.5h-.7l-.1.2v4.9h-.6v-4.9l-.1-.1h-.2v-.6h.2v-.8l.1-.4a4.4 4.4 0 0 1 .2-.9l.1-.2h.1l.1-.1c.3-.2.5-.3 1-.3h.1v.5h-.2zm2.5 2.3c-.6 0-.9.3-1 1v.2h-.5v-.1c0-.5.1-.9.4-1.2.2-.3.6-.5 1-.5 1.1 0 1.6.7 1.6 2v3l.1.7c0 .1 0 .2-.2.2h-.4v-.4c-.4.3-.7.5-1.2.5-.4 0-.8-.2-1-.4s-.4-.7-.4-1.2v-.4c0-.3 0-.6.2-.8l.7-.5.7-.3.6-.3c.2-.1.3-.3.3-.4 0-.3 0-.6-.2-.8s-.4-.3-.7-.3zm0 4.8c.4 0 .6-.1.7-.3l.2-.8v-1.8l-.6.3c-.3 0-.4.1-.5.2-.6.3-.9.7-.8 1.2 0 .9.4 1.3 1 1.2zm3.4-5.1v3.8c0 .9.3 1.3 1 1.3.5 0 .9-.4.9-1.3v-4h.5v5.8h-.5v-.4c-.3.3-.6.5-1 .5-.5 0-.8-.2-1-.5-.4-.4-.5-.9-.5-1.6v-3.8h.6v.2zm4.5-1.3v1.2l.1.1h.2l.2.1v.5h-.4l-.1.1v4c0 .2.2.3.4.4h.2v.5h-.2c-.4 0-.7-.1-.8-.4l-.2-.8v-3.7h-.1l-.2-.1v-.5h.2v-1.4l.1-.1h.5v.1zm5.5-.7c-.4 0-.6.1-.7.3l-.1 1.1v.6h.7v.5h-.6l-.1.2v4.7l-.1.2h-.5v-4.9l-.2-.1h-.2v-.6h.2l.1-.2v-1a4.4 4.4 0 0 1 .3-.9l.1-.2c.1 0 0 0 0 0l.2-.1c.2-.2.5-.3.9-.3h.2v.5h-.2zm2.4 2.3c-.5 0-.8.3-.9 1v.2h-.5v-.1c0-.5 0-.9.3-1.2.3-.3.6-.5 1.1-.5 1 0 1.6.7 1.6 2v3.7c.1.1 0 .2-.2.2h-.3l-.1-.4c-.3.3-.7.5-1.1.5-.5 0-.8-.2-1-.4s-.5-.7-.5-1.2v-.4c0-.3.1-.6.3-.8l.6-.5.8-.3.6-.3c.2-.1.3-.3.3-.4 0-.3-.1-.6-.3-.8s-.4-.3-.7-.3zm.1 4.8c.3 0 .5-.1.7-.3s.2-.5.2-.8v-1.8l-.6.3-.6.2c-.5.3-.8.7-.8 1.2 0 .9.4 1.3 1.1 1.2zm3.1-5.9c-.1 0-.2 0-.3-.2v-.3l.3-.2c.2 0 .3 0 .4.2v.3c-.1.2-.2.2-.4.2zm.3.8v5.6h-.5v-5.8h.5v.2zm2.9.4a2 2 0 0 0-.3 0c-.2 0-.4.1-.5.4v4.6l-.1.2h-.5v-5.8h.5v.3l.9-.3h.2v.6h-.2zm.9 3.2v-1.8c0-.7.1-1.2.4-1.6s.7-.5 1.2-.5.8.2 1.1.5.4.9.4 1.6v.8H146v1.3c0 .4 0 .7.3.9.1.2.4.3.7.3.2 0 .5 0 .6-.3l.3-.7v-.2l.2-.1h.4v.2c0 .4-.1.8-.4 1.2-.2.3-.6.5-1.1.5-.5 0-.9-.2-1.2-.5s-.4-.9-.4-1.6zm.6-2v.5h1.9v-.6c0-.4 0-.7-.2-1s-.4-.2-.7-.2c-.3 0-.6 0-.7.3-.2.2-.3.5-.3 1zm5.2 1.2l-1.4 1.8h-.2v-.6l.1-.2.8-1v-.2l-.8-1-.1-.2v-.7l.2.1 1.4 1.8c.1 0 .1.1 0 .2zm1.8 0l-1.5 1.8h-.2v-.6l.1-.2.8-1v-.2l-.8-1-.1-.2v-.7l.2.1 1.5 1.8v.2zm18-13.4l-1.4-1.7v-.3l1.5-1.8h.1v.8l-.9 1 .9 1v.9h-.1zm1.8 0l-1.5-1.7v-.3l1.5-1.8h.1l.1.1v.5l-.1.3-.8 1 .8 1 .1.4v.5h-.2zm1.1.5l.6-.3v-.3l.1-.8v-6.2h.7v5.8a11.8 11.8 0 0 1 0 1.3l-.4.8-.9.3-.2-.1v-.5h.2zm2.5-1.5v-1.8c0-.7.2-1.2.5-1.5s.6-.6 1.1-.6c.5 0 .9.2 1.2.6s.4.8.4 1.5v.8h-2.3l-.2.1v1.2c0 .4 0 .7.2 1l.7.2c.3 0 .5 0 .7-.2s.2-.5.3-.8v-.2h.5v.1c0 .5 0 .9-.4 1.2-.2.3-.6.5-1 .5-.6 0-1-.2-1.2-.5s-.5-.9-.5-1.6zm.7-2v.5h1.8v-.5c0-.5 0-.8-.2-1s-.4-.3-.7-.3a1 1 0 0 0-.7.3c-.2.2-.2.5-.2 1zm8.7-.5v.2h-.3c-.2 0-.2 0-.3-.2 0-.2 0-.4-.2-.5l-.6-.3c-.3 0-.3 0-.5.2s-.2.4-.2.6c0 .2 0 .4.2.6l.6.5.7.6.6.6c.2.2.2.5.2.8 0 .4-.2.8-.5 1-.3.4-.7.5-1 .5-.5 0-.9-.1-1.2-.4-.3-.3-.4-.7-.4-1.1v-.2h.3c.2 0 .2 0 .3.2 0 .3.1.5.3.7s.4.2.6.2c.3 0 .5 0 .7-.2s.3-.4.3-.7c0-.3-.2-.5-.4-.8l-.8-.7c-.3-.1-.5-.4-.8-.7l-.3-.9c0-.4.1-.7.4-1 .2-.2.5-.3 1-.3.3 0 .6 0 .9.3s.4.6.4 1zm2.7-.8c-.5 0-.9.4-1 1v.3h-.5v-.2c0-.4.1-.8.4-1.2.2-.3.6-.4 1.1-.4 1 0 1.5.6 1.5 2v3l.1.6c0 .2 0 .3-.2.3h-.2l-.2-.1v-.3c-.3.3-.7.4-1.2.4-.4 0-.8-.1-1-.4s-.4-.7-.4-1.2v-.3c0-.4 0-.6.3-.9l.6-.5c.3 0 .5-.2.7-.3.3 0 .5-.2.7-.3l.2-.4c0-.3 0-.6-.2-.8s-.4-.3-.7-.3zm0 4.8c.4 0 .6 0 .7-.3l.2-.8v-1.7l-.6.2c-.3 0-.4.2-.5.2-.6.3-.9.7-.8 1.3 0 .8.4 1.2 1 1.1zm3.2-5.8c-.2 0-.3 0-.3-.2v-.4s.1-.2.3-.2c.1 0 .2 0 .3.2v.4l-.3.2zm.3.7v5.6h-.6v-5.8h.5v.2zm4 1.1v.2h-.3c-.2 0-.3 0-.3-.2s0-.4-.2-.5l-.6-.3c-.2 0-.4 0-.5.2l-.3.6.3.6a31.3 31.3 0 0 1 1.9 1.7l.2.8c0 .4-.2.8-.5 1-.3.4-.7.5-1.1.5-.4 0-.8-.1-1.1-.4-.3-.3-.4-.7-.5-1.1v-.2h.4c.1 0 .2 0 .2.2 0 .3.2.5.3.7s.4.2.7.2c.3 0 .5 0 .7-.2s.2-.4.2-.7c0-.3 0-.5-.3-.8l-.8-.7c-.3-.1-.6-.4-.8-.7-.2-.3-.4-.6-.4-.9 0-.4.2-.7.4-1 .3-.2.6-.3 1-.3s.7 0 1 .3.4.6.4 1zm5 4.6c-.5 0-.8-.2-1.1-.5s-.4-.9-.4-1.6v-1.8c0-.7.1-1.2.4-1.5s.6-.6 1.1-.6c.5 0 1 .2 1.2.6.2.3.4.7.4 1.1v.2h-.6v-.3c0-.3-.1-.5-.3-.7s-.4-.3-.7-.3a1 1 0 0 0-.7.3c-.2.2-.2.5-.2 1v2.3c0 .4 0 .7.2 1l.7.2c.3 0 .5 0 .7-.2s.2-.5.3-.8v-.2h.5v.1c0 .5 0 .9-.3 1.2-.3.3-.7.5-1.2.5zm2.7-2.1v-1.8c0-.7.2-1.2.5-1.5s.6-.6 1.1-.6c.5 0 .9.2 1.1.6s.5.8.5 1.5v.8h-2.3l-.2.1v1.2c0 .4 0 .7.2 1l.7.2c.3 0 .5 0 .7-.2s.2-.5.2-.8l.1-.2h.5v.1c0 .5-.1.9-.4 1.2-.2.3-.6.5-1.1.5-.5 0-.9-.2-1.1-.5s-.5-.9-.5-1.6zm.6-2v.5h1.9v-.5c0-.5 0-.8-.2-1s-.4-.3-.7-.3a1 1 0 0 0-.7.3c-.2.2-.3.5-.3 1zm9.1-1.6v7.7h-.5v-2.5c-.3.3-.6.5-1 .5-.5 0-.8-.1-1.1-.5-.3-.3-.4-.8-.4-1.6v-1.8c0-.7.1-1.2.4-1.6.3-.3.6-.5 1.1-.4.4 0 .7.1 1 .4v-.3l.2-.1h.3v.2zM211 332v2.3c0 .8.3 1.2 1 1.2.5 0 .8-.4.8-1.2V332c0-.9-.3-1.3-.9-1.3-.6 0-.9.4-.9 1.3zm4.4-1.6v3.9c0 .8.3 1.2 1 1.2.5 0 .8-.4.8-1.2v-4.1h.7v5.8h-.5v-.4c-.3.3-.6.5-1 .5-.5 0-.8-.1-1.1-.5-.3-.3-.4-.8-.4-1.6v-3.8h.5v.2zm3.4-2.2l.1-.2.3-.1.3.1v.5c0 .2-.1.5-.3.7h-.2v-.1c0-.2.1-.3 0-.4v-.2c0-.2-.2-.2-.2-.3zm2.2 1.5c-.2 0-.3 0-.4-.2v-.4l.3-.2c.2 0 .3 0 .3.2.1.1.1.3 0 .4 0 .1-.1.2-.3.2zm.2.7v5.6h-.5v-5.8h.5v.2zm2.4 5.1h.2v.5h-.2c-.4 0-.7-.1-.8-.4l-.2-.7v-7.1h.5v6.4l.1.8c0 .3.2.4.4.4zm-54.8 8.1c-.3 0-.6.1-.7.3l-.1 1.1v.5l.1.1h.7v.5h-.7l-.1.2v4.9h-.6v-4.9l-.1-.1h-.2v-.6h.2v-1.2a4.4 4.4 0 0 1 .3-.9l.1-.2.2-.1c.2-.2.5-.3 1-.3h.1v.5h-.2zm2.5 2.3c-.6 0-.9.3-1 1v.2h-.5v-.1c0-.5.1-.9.3-1.2.3-.3.7-.5 1.2-.5 1 0 1.5.7 1.5 2v3l.1.7c0 .1 0 .2-.2.2h-.4v-.4c-.4.3-.7.5-1.2.5-.4 0-.8-.2-1-.4s-.4-.7-.4-1.2v-.4c0-.3 0-.6.2-.8l.7-.5.7-.3.6-.3c.2-.1.3-.3.3-.4 0-.3 0-.6-.2-.8s-.4-.3-.7-.3zm0 4.8c.3 0 .5-.1.7-.3s.2-.5.2-.8v-1.8l-.6.3c-.3 0-.5.1-.5.2-.6.3-.9.7-.8 1.2 0 .9.3 1.3 1 1.2zm3.4-5.1v3.8c0 .9.3 1.3 1 1.3.5 0 .8-.4.8-1.3v-4h.7v5.8h-.5v-.4c-.3.3-.6.5-1 .5-.5 0-.8-.2-1.1-.5-.3-.4-.4-.9-.4-1.6v-3.8h.6v.2zm4.5-1.3v1.3h.3l.2.1v.5h-.4l-.1.1v4c0 .2.2.3.4.4h.2v.5h-.2c-.4 0-.7-.1-.9-.4l-.1-.8v-3.7h-.2l-.1-.1-.1-.2v-.3h.2l.2-.2v-1.3h.5v.1zm5.5-.7c-.4 0-.6.1-.7.3l-.2 1.1v.5l.2.1h.6v.5h-.6l-.2.2v4.9h-.5v-4.9l-.2-.1h-.2v-.6h.2l.1-.2v-1a4.4 4.4 0 0 1 .2-.9h.1c.1 0 0-.1 0-.2h.1l.1-.1h.1c.2-.2.5-.3.9-.3h.2v.5h-.2zm2.4 2.3c-.5 0-.8.3-.9 1v.2h-.5v-.1c0-.5 0-.9.3-1.2.2-.3.6-.5 1.1-.5 1 0 1.6.7 1.6 2v3.7c.1.1 0 .2-.2.2h-.4v-.4c-.3.3-.7.5-1.1.5-.5 0-.8-.2-1-.4s-.5-.7-.5-1.2v-.4c0-.3.1-.6.3-.8l.6-.5.8-.3.6-.3c.2-.1.2-.3.2-.4 0-.3 0-.6-.2-.8s-.4-.3-.7-.3zm.1 4.8c.3 0 .5-.1.6-.3l.3-.8v-1.8l-.6.3-.6.2c-.6.3-.8.7-.8 1.2 0 .9.4 1.3 1.1 1.2zm3.1-5.9c-.1 0-.2 0-.3-.2v-.3l.3-.2c.2 0 .3 0 .3.2v.3c0 .2-.1.2-.3.2zm.3.8v5.6h-.5v-5.8h.5v.2zm2.9.4a2 2 0 0 0-.3 0c-.2 0-.4.1-.5.4v4.6l-.1.2h-.5v-5.8h.5v.3l.9-.3h.2v.6h-.2zm.9 3.2v-1.8c0-.7.1-1.2.4-1.6s.7-.5 1.2-.5c.4 0 .8.2 1.1.5s.4.9.4 1.6v.8H195v1.3c0 .4 0 .7.2.9.2.2.5.3.8.3.2 0 .5 0 .6-.3l.3-.7v-.2l.2-.1h.3v.2c0 .4 0 .8-.3 1.2-.3.3-.6.5-1.1.5-.5 0-1-.2-1.2-.5s-.4-.9-.4-1.6zm.6-2v.5h1.9v-.6c0-.4 0-.7-.2-1s-.5-.2-.7-.2c-.3 0-.6 0-.8.3l-.2 1zm5.2 1.2l-1.4 1.8h-.2v-.8l1-1v-.2l-1-1v-.9l.2.1 1.4 1.8v.2zm1.7 0l-1.4 1.8h-.2v-.6l.1-.2.8-1v-.2l-.8-1-.1-.2v-.7l.2.1 1.4 1.8v.2zm-33-98.9l-1.4-1.7v-.3l1.4-1.8h.2v.6l-.1.3-.8 1 .8 1 .1.4v.5h-.2zm1.7 0l-1.4-1.7v-.3l1.4-1.8h.2v.6l-.1.3-.8 1 .8 1 .1.4v.5h-.2zm1.1.5c.3 0 .4-.1.6-.3v-.3l.1-.8v-6.2h.6v5.8a11.8 11.8 0 0 1 0 1.3l-.4.8-.9.3-.2-.1v-.5h.2zm2.6-1.5v-1.8c0-.7.1-1.2.4-1.5s.6-.6 1.1-.6c.5 0 .9.2 1.2.6s.4.8.4 1.5v.8H175l-.2.1v1.2c0 .4 0 .7.2 1l.7.2c.3 0 .5 0 .7-.2s.3-.5.3-.8v-.2h.5c.1 0 0 0 0 .1 0 .5 0 .9-.3 1.2-.3.3-.7.5-1.2.5s-.8-.2-1.1-.5-.4-.9-.4-1.6zm.6-2v.5h1.9v-.5c0-.5-.1-.8-.3-1s-.4-.3-.7-.3a1 1 0 0 0-.7.3l-.2 1zm8.7-.5v.2h-.3c-.2 0-.2 0-.2-.2s-.1-.4-.3-.5l-.5-.3c-.2 0-.4 0-.6.2s-.2.4-.2.6c0 .2 0 .4.2.6l.6.5.7.6.6.6c.2.2.2.5.2.8 0 .4-.2.8-.5 1-.3.4-.6.5-1 .5-.5 0-.9-.1-1.2-.4-.2-.3-.4-.7-.4-1.1v-.2h.3c.2 0 .3 0 .3.2 0 .3.1.5.3.7s.4.2.6.2c.3 0 .5 0 .7-.2s.3-.4.3-.7c0-.3-.1-.5-.4-.8l-.8-.7c-.3-.1-.5-.4-.8-.7l-.3-.9c0-.4.1-.7.4-1 .2-.2.6-.4 1-.4.3 0 .6.2.9.4s.4.6.4 1zm2.7-.8c-.5 0-.8.4-.9 1v.3h-.5v-.2c0-.4 0-.8.3-1.2.2-.3.6-.5 1.1-.5 1 0 1.6.7 1.6 2.1v3.6c0 .2 0 .3-.2.3h-.2l-.2-.1v-.3c-.3.3-.7.4-1.1.4-.5 0-.8-.1-1.1-.4s-.4-.7-.4-1.2v-.3c0-.4.1-.7.3-.9l.6-.5c.3 0 .5-.2.7-.3.3 0 .5-.2.7-.3l.2-.4c0-.3 0-.6-.2-.8s-.4-.3-.7-.3zm0 4.8c.4 0 .6 0 .7-.3l.2-.8v-1.7l-.5.2-.6.2c-.6.3-.8.7-.8 1.3 0 .8.4 1.2 1 1.1zm3.2-5.8l-.3-.2v-.4l.3-.2c.2 0 .3 0 .3.2v.4c0 .1-.1.2-.3.2zm.3.7v5.6h-.5l-.1-.2v-5.5h.7v.2zm4 1.1v.2h-.4s-.2 0-.2-.2 0-.4-.2-.5l-.6-.3c-.2 0-.4 0-.5.2l-.2.6c0 .2 0 .4.2.6l.6.5.7.6.6.6c.3.2.2.5.2.8 0 .4-.2.8-.5 1-.3.4-.7.5-1 .5-.5 0-.9-.1-1.2-.4-.3-.3-.4-.7-.4-1.1v-.2h.3c.2 0 .2 0 .2.2 0 .3.2.5.4.7s.4.2.6.2c.3 0 .5 0 .7-.2s.3-.4.3-.7c0-.3-.2-.5-.4-.8l-.8-.7c-.3-.1-.5-.4-.8-.7l-.3-.9c0-.4 0-.7.3-1 .3-.2.6-.4 1-.4s.7.2 1 .4.4.6.4 1zm.9 4.2c0-.1 0-.2.2-.3l.2-.1c.2 0 .3 0 .4.2v.5l-.4.7h-.2v-.2l.1-.3-.1-.2a.4.4 0 0 1-.2-.3zm3.5 1.9c.2 0 .4-.1.4-.3l.2-1v-6h.5v7.2c-.2.5-.5.7-1 .8h-.2v-.5l.1-.1zm.6-8a.3.3 0 0 1-.1-.4l.3-.3.3.1c.1.1.2.3.1.4l-.2.2h-.4zm1.6-1.4v-.2l.3-.1.4.1v.5l-.4.7h-.2v-.1l.1-.4-.1-.2-.1-.3zm1.4 2.2v-.2h.5v.2l1 5h.1l1-5 .1-.2h.6v.2l-1.4 6.5-.4 1a1 1 0 0 1-.8.3h-.1v-.5h.1l.4-.3.2-.6-.6-2.9-.7-3.5zm6.6 7.5v-7.6h.6v.4c.2-.3.6-.4 1-.5.4 0 .8.2 1 .5s.5.9.5 1.6v1.8c0 .7-.2 1.3-.4 1.6s-.7.5-1.1.5c-.4 0-.7-.2-1-.5v2.5h-.5v-.2zm2.5-3.6v-2.3c0-.9-.4-1.3-1-1.3s-.9.4-.9 1.3v2.3c0 .8.3 1.2 1 1.2.5 0 .9-.4.9-1.2zm1.7-.3v-1.8c0-.7.2-1.2.5-1.5s.6-.6 1.1-.6c.5 0 .9.2 1.2.6s.4.8.4 1.5v.8h-2.3l-.2.1v1.2c0 .4 0 .7.2 1l.7.2c.3 0 .5 0 .7-.2s.2-.5.2-.8l.1-.2h.5v.1c0 .5-.1.9-.4 1.2-.2.3-.6.5-1.1.5-.5 0-.9-.2-1.1-.5s-.5-.9-.5-1.6zm.6-2v.5h1.9v-.5c0-.5 0-.8-.2-1s-.4-.3-.7-.3a1 1 0 0 0-.7.3c-.2.2-.3.5-.3 1zm6.3 3.8v-3.8c0-.9-.3-1.3-1-1.3-.5 0-.8.4-.8 1.3v4h-.6v-5.8h.5v.5c.3-.4.6-.5 1-.6.5 0 .8.2 1.1.5s.4.9.4 1.6v3.8h-.6v-.2zm4.5-4.3v.2h-.3c-.1 0-.2 0-.2-.2s-.1-.4-.3-.5l-.5-.3c-.2 0-.4 0-.6.2s-.2.4-.2.6c0 .2 0 .4.2.6l.6.5a31.3 31.3 0 0 1 1.3 1.2l.2.8c0 .4-.2.8-.5 1-.3.4-.6.5-1 .5-.5 0-.9-.1-1.1-.4-.3-.3-.5-.7-.5-1.1v-.2h.4c.1 0 .2 0 .2.2 0 .3.1.5.3.7s.4.2.7.2c.2 0 .4 0 .6-.2s.3-.4.3-.7c0-.3-.1-.5-.4-.8l-.8-.7-.7-.7c-.3-.3-.4-.6-.4-.9 0-.4.1-.7.4-1 .3-.2.6-.4 1-.4a1.4 1.4 0 0 1 1.3 1.4zm1.2 2.5v-1.8c0-.7.1-1.2.4-1.5s.6-.6 1.1-.6.9.2 1.2.6.4.8.4 1.5v.8H226l-.2.1v1.2c0 .4 0 .7.2 1l.7.2c.3 0 .5 0 .7-.2s.3-.5.3-.8v-.2h.5v.1c0 .5 0 .9-.3 1.2-.3.3-.7.5-1.2.5s-.8-.2-1.1-.5-.4-.9-.4-1.6zm.6-2v.5h1.9v-.5c0-.5-.1-.8-.3-1s-.4-.3-.7-.3-.5.1-.7.3l-.2 1zm3.5 3.7l.1-.3.3-.1c.1 0 .2 0 .3.2v.5c0 .2-.1.4-.4.7h-.2v-.2l.2-.3-.2-.2c-.2-.1-.1-.2-.1-.3zM168.4 267h-.2c-.1 0-.2 0-.1-.1l.3-1.2c-.6-.2-1-.9-1-2v-1.8c0-.7.2-1.2.5-1.6s.6-.5 1.1-.5c.5 0 .9.2 1.1.5.3.4.4.7.4 1.2v.1h-.5c-.1 0 0 0 0-.2 0-.3-.2-.6-.3-.8s-.4-.2-.7-.2c-.3 0-.5 0-.7.3-.2.2-.3.5-.3 1v2.2c0 .5.1.8.3 1 .2.2.4.3.7.3.3 0 .5 0 .7-.3l.2-.7v-.2l.2-.1h.4v.2c0 .4-.1.8-.4 1.2-.2.3-.6.5-1.1.5l-.3.6c.4-.2.8-.1 1 0 .4.3.5.6.5 1s-.2.7-.5 1c-.4.2-.8.2-1.2 0v-.4c.1 0 .2-.1.2 0l.7-.1c.2-.1.3-.3.3-.6 0-.1 0-.3-.2-.4l-.4-.2c-.3 0-.4.1-.6.3h-.1zm4.9-6.6c-.6 0-.9.3-1 1v.2h-.5v-.1c0-.5.1-.9.3-1.2.3-.3.7-.5 1.2-.5 1 0 1.5.7 1.5 2v3l.1.7c0 .1 0 .2-.2.2h-.4v-.4c-.4.3-.7.5-1.2.5-.4 0-.8-.2-1-.4s-.4-.7-.4-1.2v-.4c0-.3 0-.6.2-.8l.7-.5.7-.3.6-.3c.2-.1.3-.3.3-.4 0-.3 0-.6-.2-.8s-.4-.3-.7-.3zm0 4.8c.3 0 .5-.1.7-.3s.2-.5.2-.8v-1.8l-.6.3c-.3 0-.5.1-.5.2-.6.2-.9.7-.8 1.2 0 .9.3 1.2 1 1.2zm8.3-3.6v4.1h-.6v-4.1c0-.8-.4-1.2-1-1.2s-.9.4-.9 1.2v4.1h-.5v-5.9h.5v.4c.2-.3.6-.5 1-.5.5 0 1 .2 1.2.7.3-.4.7-.7 1.2-.7s.8.2 1.1.5c.3.3.4.9.4 1.6v3.9h-.6v-4.1c0-.8-.3-1.2-1-1.2s-.8.4-.8 1.2zm5.2-1.2c-.6 0-.9.3-1 1v.2h-.5v-.1c0-.5.1-.9.4-1.2.2-.3.6-.5 1.1-.5 1 0 1.5.7 1.5 2v3l.1.7c0 .1 0 .2-.2.2h-.4v-.4c-.3.3-.7.5-1.2.5-.4 0-.8-.2-1-.4s-.4-.7-.4-1.2v-.4c0-.3 0-.6.2-.8l.7-.5.7-.3.7-.3.2-.4c0-.3 0-.6-.2-.8s-.4-.3-.7-.3zm0 4.8c.4 0 .6-.1.7-.3l.2-.8v-1.8l-.6.3c-.3 0-.4.1-.5.2-.6.2-.9.7-.8 1.2 0 .9.4 1.2 1 1.2zm4.4-4.7a2 2 0 0 0-.3 0c-.3 0-.5.1-.5.4l-.1.8v4h-.6v-5.9h.5v.4c.3-.2.6-.3 1-.3h.1v.6h-.1zm2.4 5.3c-.5 0-.9-.2-1.1-.5s-.5-.9-.5-1.6v-1.8c0-.7.2-1.2.5-1.6s.6-.5 1.1-.5c.5 0 .9.2 1.1.5.3.4.4.7.4 1.2v.1h-.5c-.1 0 0 0 0-.2 0-.3-.2-.6-.3-.8a.8.8 0 0 0-.7-.2c-.3 0-.5 0-.7.3-.2.2-.3.5-.3 1v2.2c0 .5.1.8.3 1 .2.2.4.3.7.3.3 0 .5 0 .7-.3l.3-.7v-.2l.1-.1h.4v.2c0 .4-.1.8-.4 1.2-.2.3-.6.5-1.1.5zm5.3-.3v-3.9c0-.8-.3-1.2-1-1.2-.6 0-.9.4-.9 1.2v4.1h-.5v-8.1h.5v2.7c.3-.3.6-.5 1-.5s.8.2 1 .5.5.9.5 1.6v3.8h-.6v-.2zm1.8-1.8v-1.8c0-.7.1-1.2.4-1.6s.7-.5 1.2-.5.8.2 1.1.5.4.9.4 1.6v.8h-2.5v1.3c0 .4.1.7.3.9.1.2.4.3.7.3.3 0 .5 0 .6-.3l.3-.7v-.2l.2-.1h.4v.2c0 .4-.1.8-.4 1.2-.2.3-.6.5-1.1.5-.5 0-.9-.2-1.2-.5s-.4-.9-.4-1.6zm.6-2v.4h1.9v-.5c0-.4 0-.7-.2-1a.9.9 0 0 0-.7-.2c-.3 0-.6 0-.7.3-.2.2-.3.5-.3 1zm5.3 1.3l-1.5 1.7h-.2v-.6l.1-.2.8-1v-.2l-.8-1-.1-.2v-.7l.2.1 1.5 1.8v.2zm1.7 0l-1.5 1.7h-.1c-.1 0 0 0 0 0v-.8l.8-1v-.2l-.8-1v-.9l.1.1 1.5 1.8v.2z"/><path fill="none" stroke="#000" stroke-miterlimit="10" stroke-width="2.2" d="M170 173a109.9 109.9 0 0 1-10.2 219"/><path d="M171.7 180.3l-11.8-7.8 12.6-6.4z"/><path fill="none" stroke="#41D5CF" stroke-miterlimit="10" stroke-width="2.2" d="M147.8 391.5a110 110 0 0 1-93.4-73.2"/><path fill="#41D5CF" d="M146.2 384.2L158 392l-12.6 6.4z"/><path fill="none" stroke="#41D5CF" stroke-miterlimit="10" stroke-width="2.2" d="M69.2 218c20-27.5 52.3-45.5 88.8-45.5"/><path fill="#41D5CF" d="M76.3 220.2l-12.7 6.3 1-14.2zm-18.4-28.5h-1.1v3l-.1.2h-.6v-9.3h1.8a2 2 0 0 1 1.4.5c.4.4.6 1 .6 1.7v1.6c0 .7-.2 1.3-.6 1.7a2 2 0 0 1-1.4.6zm-1.2-5.3v4.6h1.1c.4 0 .8-.1 1-.4.3-.3.4-.7.4-1.3v-1.5c0-.5-.1-1-.4-1.2s-.6-.4-1-.4h-1v.2zm5.7 7.9l.2.1v.5h-.2c-.5 0-.9 0-1-.4l-.2-.9v-8h.6v7.3l.1 1c0 .3.2.4.5.4zm3.1-5.5c-.6 0-1 .4-1 1.2v.3h-.7v-.2c0-.5.1-1 .4-1.4.3-.3.7-.5 1.3-.5 1.2 0 1.8.8 1.8 2.3v3.4l.1.8c0 .2 0 .3-.3.3h-.3v-.4a2 2 0 0 1-1.3.4c-.6 0-1-.1-1.3-.4s-.4-.8-.4-1.4v-.4c0-.4 0-.7.3-1l.7-.6.9-.3.7-.3c.2-.1.3-.3.3-.5 0-.4-.1-.7-.3-1s-.4-.3-.8-.3zm.1 5.6c.3 0 .6-.1.8-.3l.2-1v-2a8 8 0 0 1-.7.2l-.6.3c-.7.3-1 .8-1 1.4 0 1 .5 1.4 1.3 1.4zm3.6-6.8c-.2 0-.3 0-.3-.2v-.4c0-.1.1-.3.3-.3.2 0 .3.1.4.3v.4l-.4.2zm.4.9v6.4H69v-6.6h.5v.2zm4.6 1.2v.2h-.4c-.2 0-.3 0-.3-.2a1 1 0 0 0-.3-.6.8.8 0 0 0-.6-.3l-.6.3-.3.6c0 .2.1.5.3.7l.7.7a33 33 0 0 1 1.4 1.3c.2.3.3.6.3 1s-.2.8-.6 1.2c-.3.3-.7.4-1.2.4s-1-.1-1.3-.5c-.3-.3-.5-.7-.5-1.2v-.2h.4c.2 0 .3 0 .3.2 0 .3.1.6.3.8.2.2.5.3.8.3a1 1 0 0 0 1-1.1c0-.3 0-.6-.3-.9l-1-.8-.9-.8a1.5 1.5 0 0 1 0-2.2c.4-.3.7-.4 1.2-.4a1.6 1.6 0 0 1 1.6 1.5zm1.8-2.1c-.2 0-.3 0-.4-.2s0-.3 0-.4l.4-.3c.1 0 .3.1.3.3.1.1.1.2 0 .4l-.3.2zm.3.9v6.4h-.6v-6.6h.6v.2zm3.4.5h-.4c-.3 0-.5 0-.6.4v5.3l-.1.2H78v-6.6h.6v.4c.3-.3.7-.5 1-.5h.3v.8h-.2zM57.9 374.4h-1.1v3l-.1.2-.2.1h-.4v-9.4h1.8a2 2 0 0 1 1.4.5c.4.4.6 1 .6 1.7v1.6c0 .7-.2 1.3-.6 1.7a2 2 0 0 1-1.4.6zm-1.2-5.3v4.6h1.1c.4 0 .8-.1 1-.4.3-.3.4-.7.4-1.2v-1.6c0-.5-.1-1-.4-1.2s-.6-.4-1-.4h-1v.2zm5.7 7.9l.2.1v.5l-.2.1c-.5 0-.9-.2-1-.5l-.2-.9v-8h.6v7.3l.1 1c0 .3.2.4.5.5zm3.1-5.5c-.6 0-1 .4-1 1.2v.3h-.7v-.2c0-.5.1-1 .4-1.4.3-.3.7-.5 1.3-.5 1.2 0 1.8.8 1.8 2.4v3.3l.1.8c0 .2 0 .3-.3.3h-.3v-.4c-.4.3-.8.5-1.3.5-.6 0-1-.2-1.3-.5s-.4-.8-.4-1.3v-.5c0-.4 0-.7.3-1l.7-.6.9-.3.7-.3c.2-.1.3-.3.3-.5 0-.4-.1-.7-.3-1s-.4-.3-.8-.3zm.1 5.6c.3 0 .6-.1.8-.3l.2-1v-2a8 8 0 0 1-.7.2l-.6.3c-.7.3-1 .8-1 1.5 0 1 .5 1.4 1.3 1.3zm3.6-6.8c-.2 0-.3 0-.3-.2v-.4c0-.1.1-.3.3-.3.2 0 .3.1.4.3v.4l-.4.2zm.4.9v6.4l-.3.1h-.4V371h.6v.2zm4.6 1.2v.2h-.4l-.3-.1a1 1 0 0 0-.3-.7.8.8 0 0 0-.6-.3l-.6.3-.3.6c0 .3.1.5.3.7l.7.7A33 33 0 0 1 74 375c.2.3.3.6.3 1s-.2.8-.6 1.2c-.3.3-.7.5-1.2.5s-1-.2-1.3-.5c-.3-.4-.5-.8-.5-1.3v-.2h.4c.2 0 .3 0 .3.2 0 .4.1.6.3.8.2.2.5.3.8.3a1 1 0 0 0 1-1.1c0-.3 0-.6-.3-.9l-1-.8-.9-.8a1.5 1.5 0 0 1 0-2.2c.4-.3.7-.4 1.2-.4a1.6 1.6 0 0 1 1.6 1.5zm1.8-2.1c-.2 0-.3 0-.4-.2s0-.3 0-.4l.4-.3c.1 0 .3.1.3.3.1.1.1.3 0 .4l-.3.2zm.3.9v6.4l-.3.1h-.3V371h.6v.2zm3.4.5h-.4c-.3 0-.5 0-.6.4v5.3l-.1.2-.2.1H78V371h.6v.4c.3-.3.7-.5 1-.5h.3v.8h-.2z"/><path d="M243.6 191.7h-1.1v3l-.1.2h-.6v-9.3h1.8a2 2 0 0 1 1.5.5c.3.4.5 1 .5 1.7v1.6c0 .7-.2 1.3-.5 1.7a2 2 0 0 1-1.5.6zm-1.1-5.3v4.6h1c.4 0 .8-.1 1-.4.3-.3.4-.7.4-1.3v-1.5c0-.5-.1-1-.4-1.2s-.6-.4-1-.4h-1v.2zm4.1 6.3v-2.2c0-.8.1-1.4.4-1.7.4-.4.8-.6 1.4-.6.5 0 1 .2 1.3.6.3.3.5 1 .5 1.7v1h-2.9v1.5c0 .5 0 .9.3 1.1s.4.4.8.4c.3 0 .6-.1.7-.3.2-.2.3-.5.4-.9v-.2l.2-.1h.4v.2c0 .5-.1 1-.4 1.4-.3.4-.7.5-1.3.5-.6 0-1-.2-1.4-.5-.3-.4-.4-1-.4-1.8zm.7-2.4v.6h2.1v-.6c0-.5 0-.9-.2-1.1s-.5-.4-.8-.4-.6.1-.8.4-.3.6-.3 1zm1.1-2.7c-.1 0-.2 0-.2-.2v-1.3l.1-.2.2-.1h.4v.3l-.3 1.3v.1h-.2zm6.1 7.1v-4.4c0-1-.4-1.5-1-1.5-.8 0-1.1.5-1.1 1.5v4.6h-.7v-6.6h.6v.4c.3-.3.7-.5 1.2-.5s1 .1 1.2.5c.3.4.5 1 .5 1.8v4.4h-.7l-.1-.2zm2.6-7.1c-.2 0-.3 0-.4-.2s0-.3 0-.4l.4-.3c.2 0 .3.1.4.3v.4l-.4.2zm.4.9v6.2l-.1.2h-.6v-6.6h.6v.2zm1.5 6.2v-9l.2-.1h.5l.1.2v3c.3-.4.6-.6 1-.6.6 0 1 .1 1.4.5.3.4.4 1 .4 1.8v2.2c0 .8-.1 1.4-.4 1.8-.4.4-.8.6-1.3.5-.5 0-.9-.2-1.1-.5v.4h-.7l-.1-.2zm3-1.8v-2.6c0-1-.4-1.5-1.1-1.5s-1.1.5-1.1 1.5v2.6c0 1 .3 1.5 1 1.5s1.1-.5 1.1-1.5zm3.2 1.4l.2.1.1.2v.4h-.3c-.5 0-.8 0-1-.4l-.1-.9v-8h.6v7.3l.1 1c0 .3.2.4.4.4zm1.4-1.6v-2.2c0-.8.1-1.4.5-1.7.3-.4.7-.6 1.3-.6s1 .2 1.3.6c.4.3.5 1 .5 1.7v1h-2.9v1.5c0 .5 0 .9.3 1.1s.5.4.8.4c.3 0 .6-.1.8-.3.2-.2.3-.5.3-.9v-.2l.2-.1h.4v.2c0 .5 0 1-.4 1.4-.3.4-.7.5-1.3.5-.6 0-1-.2-1.3-.5-.4-.4-.5-1-.5-1.8zm.7-2.4v.6h2.2v-.6c0-.5 0-.9-.3-1.1s-.5-.4-.8-.4-.6.1-.8.4-.3.6-.3 1zm-23.7 184.1h-1.1v3l-.1.2-.2.1h-.4v-9.4h1.8a2 2 0 0 1 1.5.5c.3.4.5 1 .5 1.7v1.6c0 .7-.2 1.3-.5 1.7a2 2 0 0 1-1.5.6zm-1.1-5.3v4.6h1c.4 0 .8-.1 1-.4.3-.3.4-.7.4-1.2v-1.6c0-.5-.1-1-.4-1.2s-.6-.4-1-.4h-1v.2zm4.1 6.3v-2.1c0-.8.1-1.4.4-1.8.4-.4.8-.6 1.4-.6.5 0 1 .2 1.3.6.3.4.5 1 .5 1.8v.9h-2.9v1.5c0 .4 0 .8.3 1s.4.4.8.4c.3 0 .6-.1.7-.3.2-.2.3-.5.4-.9v-.2l.2-.1h.4v.2c0 .5-.1 1-.4 1.4-.3.4-.7.6-1.3.6-.6 0-1-.2-1.4-.6-.3-.4-.4-1-.4-1.8zm.7-2.4v.6h2.1v-.6c0-.5 0-.9-.2-1.1s-.5-.4-.8-.4-.6.1-.8.4-.3.6-.3 1zm1.1-2.7c-.1 0-.2 0-.2-.2v-1.3l.1-.2h.6v.2l-.3 1.3v.1h-.2zm6.1 7.1V373c0-1-.4-1.5-1-1.5-.8 0-1.1.5-1.1 1.5v4.6l-.3.1h-.4V371h.6v.5c.3-.4.7-.6 1.2-.6s1 .1 1.2.5c.3.4.5 1 .5 1.9v4.3l-.3.1h-.3l-.1-.3zm2.6-7.1c-.2 0-.3 0-.4-.2s0-.3 0-.4l.4-.3c.2 0 .3.1.4.3v.4l-.4.2zm.4.9v6.2l-.1.2-.2.1h-.4V371h.6v.2zm1.5 6.2v-9l.2-.1h.5l.1.2v3c.3-.4.6-.6 1-.6.6 0 1 .1 1.4.5.3.4.4 1 .4 1.9v2c0 .9-.1 1.5-.4 1.9-.4.4-.8.6-1.3.6s-.9-.2-1.1-.6v.4l-.3.1h-.3l-.1-.3zm3-1.7V373c0-1-.4-1.5-1.1-1.5s-1.1.5-1.1 1.5v2.7c0 1 .3 1.4 1 1.4s1.1-.5 1.1-1.4zm3.2 1.3l.2.1.1.2v.3l-.3.1c-.5 0-.8-.2-1-.5l-.1-.9v-8h.6v7.3l.1 1c0 .3.2.4.4.5zm1.4-1.6v-2.1c0-.8.1-1.4.5-1.8.3-.4.7-.6 1.3-.6s1 .2 1.3.6c.4.4.5 1 .5 1.8v.9h-2.9v1.5c0 .4 0 .8.3 1s.5.4.8.4c.3 0 .6-.1.8-.3.2-.2.3-.5.3-.9v-.2l.2-.1h.4v.2c0 .5 0 1-.4 1.4-.3.4-.7.6-1.3.6-.6 0-1-.2-1.3-.6-.4-.4-.5-1-.5-1.8zm.7-2.4v.6h2.2v-.6c0-.5 0-.9-.3-1.1s-.5-.4-.8-.4-.6.1-.8.4-.3.6-.3 1z"/><path fill="#4A4A4A" d="M110.7 392.3l-3.8 8.5-.1.1h-.2l-.6-.2-.2-.2v-.2l3.9-8.5.1-.2h.2l.6.3.2.1v.3zm.6 5.3l-1.8 4.3-.1.1h-.3l-.6-.2-.1-.2v-.2l2.4-6 .2-.2h.2l.6.3.2.1v.3l-.1.1c.3-.2.7-.2 1.1 0 .6.1 1 .5 1.1 1 .2.5 0 1.1-.2 1.9l-1.7 4-.1.3h-.3l-.5-.3-.2-.1v-.3l1.8-4.3v-.7c0-.2 0-.4-.2-.5a1 1 0 0 0-.5-.2c-.2 0-.3 0-.5.2-.2.1-.4.3-.4.6zm6.5 5.4c-.2.6-.5 1-1 1.3a2 2 0 0 1-1.7.1c-.6-.2-1-.6-1.2-1.1a2 2 0 0 1 0-1.5v-.1h.3l.6.2.2.1v.9c0 .2.3.4.5.5h.6c.2 0 .3-.2.5-.4.1-.2.2-.5 0-.7 0-.3-.1-.6-.3-.8l-.6-.8a3 3 0 0 1-.5-1v-.9c.1-.5.4-.9 1-1 .4-.3.9-.3 1.4-.1s.8.5 1 1c.2.4.2.9 0 1.4l-.1.2h-.3l-.5-.2-.2-.1v-.9c0-.2-.2-.4-.4-.4-.3-.1-.5 0-.7.2-.2.2-.2.5 0 .9l.4.6.6.8.4.9v1zm3.3-2.7l-1 3.1-.2 1c0 .3.2.4.5.6l.2.1v.2l-.2.6v.1h-.3a2 2 0 0 1-1.3-1c-.1-.4-.1-1 .2-2l1-3-.1-.2-.2-.1v-.3l.2-.4v-.2h.5l.4-1.3v-.1h.3l.6.2h.2v.3l-.4 1.2.1.2h.3l.2.2v.2l-.1.5-.2.2h-.2l-.3-.1h-.2zm1.2 6.4l-.6-.2-.2-.1v-.2l1.9-6.2v-.2h.3l.6.1.2.2v.2l-1.9 6.2v.2h-.3zm1.5-7.8v-.5c0-.2.1-.3.3-.4h.5c.2 0 .3.1.4.3v.5c0 .2-.1.3-.3.4h-.5c-.2 0-.3-.1-.4-.3zm2.7 3.9l-1.2 4.5v.2h-.3l-.6-.2-.2-.1v-.2l1.6-6.3.2-.2h.2l.6.2h.2v.5c.3-.3.6-.3 1-.3.6.2 1 .5 1.3 1 .2.4.2 1 0 1.8l-1.1 4.3-.2.2h-.2l-.6-.1-.2-.2v-.2l1.2-4.5v-.7c0-.2-.2-.4-.3-.5a1 1 0 0 0-.5 0l-.5.1-.4.7zm5.2 1.3l-.6 2.7v.8c.2.3.4.4.7.5l.7-.1.4-.7.1-.2h.8l.2.2v.2c0 .5-.3 1-.8 1.3-.4.4-1 .5-1.6.3a2 2 0 0 1-1.4-.9c-.3-.5-.3-1.2-.2-2l.5-2c.2-.8.5-1.4 1-1.8a2 2 0 0 1 1.6-.3c.6.2 1.1.5 1.4 1 .2.6.3 1.1.1 1.6v.2h-.3l-.6-.1-.2-.2v-1a.9.9 0 0 0-.6-.4c-.3 0-.6 0-.8.2-.2.1-.3.4-.4.7zm5.5.3l-.5 3.2v1c0 .2.2.4.5.5h.2v.8l-.2.2h-.2c-.7 0-1.2-.4-1.4-.8-.2-.4-.3-1-.1-2l.6-3.1-.1-.2-.2-.1v-.7l.1-.2h.2l.2-.1.2-1.2.1-.3h.3l.6.1.2.1v.3l-.2 1.2v.1l.4.1.2.1v.7l-.1.2h-.8zm4 6.1l2.4-9c0-.2.1-.3.3-.3h.6c.2.1.3.2.2.4l-2.3 9c0 .3-.2.4-.4.3h-.6c-.2 0-.2-.2-.2-.4zm8.5-8.4l-.8 9.3v.2h-1.2v-.3l.7-9.3.1-.2h1.2v.3zm2.3 4.9l-.3 4.6v.2h-1.2v-.3l.3-6.5v-.2h1.2v.5c.3-.3.7-.5 1.1-.5.6 0 1 .3 1.4.7.3.4.4 1 .4 1.8l-.3 4.4v.3h-.9l-.2-.1v-.2l.2-4.7-.1-.7a.7.7 0 0 0-.5-.4 1 1 0 0 0-.5 0l-.4.4c-.2.1-.2.4-.2.6zm5.3.2v2.7c0 .4 0 .6.2.8l.7.4c.2 0 .5-.1.6-.3.2-.2.3-.4.3-.7v-.3h1.2v.3c0 .4-.1 1-.5 1.4a2 2 0 0 1-1.5.7 2 2 0 0 1-1.5-.7c-.4-.4-.6-1-.6-2v-2c0-.8.3-1.5.7-1.9a2 2 0 0 1 1.5-.6c.7 0 1.2.2 1.5.7.4.5.5 1 .5 1.4v.3h-1.3v-.4c0-.2-.1-.5-.3-.6l-.6-.3c-.3 0-.5 0-.7.3-.2.2-.3.4-.3.8zm8.4.3l.1 2c0 .8-.2 1.5-.6 2-.4.4-.9.6-1.4.6s-1.1-.2-1.6-.6c-.4-.4-.6-1-.6-2l-.1-2c0-.8.2-1.5.6-1.9a2 2 0 0 1 1.4-.7 2 2 0 0 1 1.6.6c.4.4.6 1 .6 2zm-1 2.3l-.2-2.6c0-.3 0-.6-.2-.8a.8.8 0 0 0-.5-.3 1 1 0 0 0-.5 0c-.2 0-.3.2-.5.4s-.1.4-.1.7v2.7c0 .3.1.5.3.7l.5.4h.5c.2 0 .3-.2.5-.4l.1-.8zm3.5-2.9l.4 4.6v.3h-.2l-.7.1h-.2v-.3l-.6-6.4v-.3h1.1v.4c.3-.4.6-.6 1-.7.7 0 1.2.2 1.6.6a2 2 0 0 1 1.4-.8c.6 0 1 0 1.4.5.4.3.6 1 .7 1.7l.4 4.4v.3h-.3l-.6.1h-.2l-.1-.3-.4-4.6-.2-.7a.6.6 0 0 0-.5-.3h-.5l-.4.4-.2.8.4 4.6v.2l-.2.1h-.9v-.2l-.4-4.6a1 1 0 0 0-.3-.7.7.7 0 0 0-.4-.3h-.6c-.2 0-.3.2-.4.4v.7zm7.2-2.9h.9v.2l.1.2a1.6 1.6 0 0 1 2.4-.3c.4.4.7 1 .8 1.7l.3 2.4c.1.8 0 1.4-.2 1.9-.3.4-.8.7-1.3.7s-.8 0-1.1-.4l.3 2.8v.2h-.2l-.6.2h-.2l-.1-.3-1.3-9v-.1l.2-.1zm1.2 2l.4 2.8c0 .3.1.5.3.7.1.2.3.3.5.3h.5c.2 0 .3-.3.4-.5v-.7l-.3-2.8c0-.3-.2-.5-.3-.7s-.3-.2-.5-.3-.3 0-.5.1l-.4.4v.7zm4.5 1.8l-.3-2c-.2-.8 0-1.5.2-2a2 2 0 0 1 1.4-.9 2 2 0 0 1 1.6.4c.5.3.8.9 1 1.8l.1 1v.1l-.2.1-2.4.5h-.3v.3l.2.8c0 .4.2.6.4.8.2.2.4.2.7.2.3 0 .5-.2.6-.4l.1-.7v-.3l.2-.1.6-.1h.2l.1.2c.1.5 0 1-.2 1.5-.3.5-.7.8-1.4 1a2 2 0 0 1-1.6-.4c-.5-.3-.8-1-1-1.8zm1.4-5.5h-.6l-.2-1.4v-.3h.2l.7-.2c.2 0 .3 0 .2.3l-.1 1.3-.1.2h-.1zm1.3 2.9v-.3c-.1-.4-.3-.7-.7-.9a.9.9 0 0 0-1 .2c-.3.3-.3.6-.2 1v.3l.1.2h.3l1.2-.2h.2v-.3zm3.3-1.8l.7 3.1.4 1c.2.2.4.2.7.2h.3v.2l.2.5v.3h-.3c-.7.2-1.2.1-1.6-.2s-.6-.9-.8-1.7l-.7-3.2-.2-.1h-.2l-.1-.2-.1-.5v-.2l.2-.1s.1-.1 0-.2l-.2-1.2v-.2l.2-.1.6-.2h.3v.3l.4 1.2h.7l.1.2.1.5v.2l-.2.1h-.4v.3zm2.7 2.6l-.5-1.9c-.2-.9-.2-1.5.1-2a2 2 0 0 1 1.3-1 2 2 0 0 1 1.6.2c.5.3.9.9 1.1 1.8l.2.9v.2l-.2.1-2.4.6-.2.1v.3l.2.8c.1.3.3.6.5.7.2.2.5.2.7.1.3 0 .5-.2.6-.4a1 1 0 0 0 0-.7v-.3l.3-.1.5-.2h.2l.1.2c.2.5.2 1 0 1.5-.3.6-.7 1-1.4 1.1a2 2 0 0 1-1.6-.2c-.5-.3-.9-1-1.1-1.8zm2.4-2.7v-.3c-.1-.5-.3-.8-.7-.9-.4 0-.7 0-1 .3s-.3.6-.1 1v.3l.1.2h.3l1.2-.3.2-.1v-.2zm3.5-1.3l1.4 4.4v.2l-.2.1-.6.2h-.2l-.2-.2-1.9-6.2v-.2l.2-.1.6-.2h.2l.2.2v.2c.2-.4.5-.7.9-.8.5-.2 1-.2 1.5.1.4.3.7.8 1 1.6l1.3 4.2v.3h-.2l-.6.3h-.2l-.2-.2-1.3-4.5c0-.2-.2-.4-.4-.6a.7.7 0 0 0-.5-.2 1 1 0 0 0-.5.2c-.2 0-.3.2-.3.4v.7zm5.1-1.7l1 2.6c0 .3.2.6.5.7h.7c.3 0 .4-.2.5-.4v-1l.2-.2.5-.2h.2l.2.2c.2.5.2 1 0 1.5-.2.6-.6 1-1.2 1.2a2 2 0 0 1-1.6-.1c-.6-.3-1-.8-1.3-1.7l-.6-1.8c-.3-.9-.4-1.5-.1-2a2 2 0 0 1 1.2-1.2 2.1 2.1 0 0 1 2.6 1.3v.3l-.2.1-.5.2h-.2l-.2-.2a1 1 0 0 0-.5-.6.9.9 0 0 0-.7 0c-.2 0-.4.2-.5.5v.8zm4.9.8l-.8-1.8c-.3-.9-.4-1.5-.1-2a2 2 0 0 1 2.8-1.1c.5.1 1 .7 1.2 1.5l.4.9v.2l-.2.1-2.3 1-.1.1v.2l.3.8c.1.3.3.6.5.7.3.1.5.1.8 0l.5-.5v-1l.1-.2.5-.2h.2l.2.2c.2.4.2 1 0 1.5 0 .6-.5 1-1.1 1.2a2 2 0 0 1-1.6 0c-.6-.2-1-.8-1.3-1.6zm2-3l-.1-.3c-.1-.5-.4-.7-.8-.8-.4 0-.7 0-.9.4a1 1 0 0 0 0 1v.3l.2.2h.2l1.3-.5.1-.1v-.3zm-74.1-242.7l1 4.6c.1 1 .6 1.4 1.3 1.3.6-.1.9-.6.8-1.4v-.3l.2-.1.6-.2c.2 0 .3.1.4.4 0 .7 0 1.3-.4 1.8a2 2 0 0 1-1.4.9c-.7.1-1.2 0-1.7-.4s-.9-1-1-1.8l-1-4.6c-.1-.8 0-1.5.3-2 .3-.6.8-.9 1.5-1 .6-.1 1.1 0 1.6.2.5.3.8.9 1 1.6 0 .2 0 .4-.2.4l-.6.2h-.2l-.1-.3c-.3-.8-.7-1.2-1.3-1-.7 0-1 .7-.8 1.7zm9.1 1.2l.3 2c.2.8 0 1.5-.3 2a2 2 0 0 1-1.4.9 2 2 0 0 1-1.5-.4c-.5-.4-.8-1-1-1.9l-.2-2c-.2-.8 0-1.5.3-2s.8-.7 1.4-.8 1 0 1.5.4c.5.3.8 1 1 1.8zm-.8 2.5l-.4-2.6c0-.3-.1-.6-.3-.8a.8.8 0 0 0-.5-.3l-.5.1c-.1.1-.4.2-.5.5v.7l.4 2.7c0 .3.1.5.3.7l.5.3.5-.1.4-.4c.1-.3.2-.5.1-.8zm3.4-3.2l.4 4.6v.2l-.2.1h-.9v-.2l-.7-6.4v-.3h.3l.6-.1h.2v.2l.1.2c.2-.3.6-.5 1-.6.7 0 1.2.1 1.5.6a2 2 0 0 1 1.4-.9c.6 0 1 .1 1.4.5.4.3.6 1 .7 1.7l.4 4.5v.2h-.2l-.6.1h-.2l-.1-.2-.5-4.7c0-.2 0-.5-.2-.6a.7.7 0 0 0-.5-.4 1 1 0 0 0-.5 0l-.4.5c-.1.2-.2.4-.1.7l.4 4.6v.3h-.2l-.6.1h-.3v-.3l-.5-4.6c0-.3 0-.5-.2-.7-.2-.2-.3-.3-.5-.3h-.5l-.4.5c-.1.2-.2.4-.1.7zm7.5-2.8h.8l.1.3v.2c.2-.4.6-.5 1-.6.6 0 1 .1 1.4.5.4.4.6 1 .6 1.8l.1 2.4c0 .8-.1 1.4-.4 1.8-.4.5-.8.7-1.4.7-.4 0-.8-.2-1-.5v2.9l-.2.1h-.9v-.2l-.4-9v-.3h.3zm1 2.1v2.8c0 .3.1.5.3.7l.4.4h.6l.4-.4.1-.7v-3c0-.2-.1-.5-.3-.6a.7.7 0 0 0-.4-.4h-.6l-.4.4c-.1.2-.2.4-.1.7zm4.2 2.2v-2c0-.8.2-1.5.6-1.9a2 2 0 0 1 1.5-.6c.6 0 1.1.2 1.5.7.4.4.6 1 .6 2v1.1h-3v1.2c0 .3 0 .6.2.8l.6.3c.3 0 .5-.1.7-.3.2-.1.3-.4.3-.6v-.3l.3-.1h.7l.1.3c0 .5-.1 1-.5 1.4-.4.5-.9.7-1.6.7a2 2 0 0 1-1.5-.7c-.4-.4-.6-1-.5-2zm3-2v-.3c0-.4 0-.7-.4-1a.9.9 0 0 0-1 0c-.3.2-.4.6-.4 1v.5h.3l1.3.1h.2v-.3zm-.7-3.1h-.4v-1.8h1c.2 0 .2.1.1.4l-.4 1.1-.1.2h-.2zm4.4 2.1v4.3c0 .2.3.3.6.3l.3.1v1h-.3c-.7 0-1.2-.2-1.5-.6-.3-.4-.4-1-.4-2l.1-3.1v-.2h-.3v-1h.2c.1 0 .2 0 .2-.2v-1.2l.1-.2h1.1v1.5l.1.1h.4l.2.1v.9h-.6l-.2.2zm1.8 3.3l.2-2c0-1 .3-1.5.8-2a2 2 0 0 1 1.5-.5c.6 0 1 .3 1.4.8.4.4.6 1.1.5 2v1l-.1.2h-.3l-2.4-.2h-.3v.3l-.1.8c0 .4 0 .6.2.9.1.2.4.3.6.3.3 0 .5 0 .7-.2.2-.2.3-.4.3-.7l.1-.3h.8l.2.1v.2c0 .5-.1 1-.5 1.4-.4.5-1 .6-1.6.6a2 2 0 0 1-1.5-.7c-.4-.5-.5-1.2-.5-2zm3.2-1.9v-.3c.1-.4 0-.8-.3-1a.9.9 0 0 0-1 0c-.3.1-.5.4-.5.9v.5h.2l1.3.2h.3v-.3zm3.8 0l-.5 4.7-.1.2h-.9l-.2-.2v-.2l.7-6.4.1-.2h1.1v.5c.3-.3.6-.4 1-.4.7 0 1.1.3 1.4.7.3.5.4 1.1.3 1.9l-.5 4.4-.1.2h-.9l-.2-.1v-.2l.5-4.7v-.7a.7.7 0 0 0-.5-.4 1 1 0 0 0-.5 0c-.2 0-.3 0-.5.3l-.2.6zm5.4.8l-.5 2.7.1.8c.1.2.4.4.7.4l.6-.1c.2-.2.4-.4.4-.7l.1-.2h.8l.2.1v.2c0 .5-.2 1-.7 1.4-.4.4-1 .5-1.6.4a2 2 0 0 1-1.4-.8c-.3-.5-.4-1.2-.3-2l.3-2c.2-1 .5-1.5 1-1.9a2 2 0 0 1 1.5-.4c.7.1 1.2.5 1.4 1 .3.5.4 1 .3 1.5l-.1.2h-.8l-.2-.2v-.3c0-.3 0-.5-.2-.7a.9.9 0 0 0-.5-.4c-.3 0-.6 0-.8.2-.2.2-.3.4-.3.8zm3.7 3l.4-2c.1-.8.5-1.4 1-1.7a2 2 0 0 1 1.6-.4c.5.2 1 .5 1.3 1 .3.4.4 1.1.2 2l-.2 1v.1h-.3l-2.4-.4h-.3v.2l-.2.8v.9l.6.4.7-.1c.2-.2.4-.4.4-.7l.2-.2h.7l.2.2v.2c0 .5-.3.9-.7 1.3-.5.4-1 .5-1.7.4a2 2 0 0 1-1.3-1c-.3-.5-.4-1.1-.2-2zm3.4-1.4v-.3c.2-.5 0-.8-.2-1s-.6-.4-1-.3c-.3.2-.5.5-.6 1v.4l.2.1 1.2.3h.3v-.2zM5.9 273.5v9.5H4.7v-9.7l.2-.1h.8v.3zm2.6 4.6v4.9H7.3l-.1-.2v-6.7h1.3v.4c.3-.3.7-.5 1.1-.5.6 0 1 .1 1.4.5.4.4.5 1 .5 1.9v4.6h-1.2v-4.9l-.2-.7a.7.7 0 0 0-.5-.3h-.5c-.2 0-.3.1-.4.3-.2.2-.2.5-.2.7zm5.3.1v2.7c0 .4 0 .6.3.8.1.2.4.3.6.3.3 0 .5 0 .7-.2s.2-.4.3-.7v-.3h1v.2c.1.5 0 1-.4 1.4-.4.5-.9.7-1.6.7a2 2 0 0 1-1.5-.6c-.4-.4-.6-1-.6-2v-2c0-.8.2-1.5.6-1.9a2 2 0 0 1 1.5-.6c.7 0 1.2.2 1.6.7s.5 1 .5 1.4v.2h-1.2v-.3c0-.3-.1-.5-.3-.7s-.4-.2-.7-.2c-.2 0-.5 0-.6.3-.2.2-.3.4-.3.8zm8.4.4v2c0 .8-.2 1.5-.7 2a2 2 0 0 1-1.5.5 2 2 0 0 1-1.5-.6c-.4-.4-.6-1-.6-2v-2c0-.8.2-1.5.6-1.9.5-.4 1-.6 1.5-.6s1.1.2 1.5.6c.5.4.7 1 .7 2zm-1.2 2.3v-2.7c0-.3 0-.5-.2-.7l-.5-.4a1 1 0 0 0-.5 0c-.2 0-.4.2-.5.4l-.2.7v2.7c0 .3 0 .5.2.7.1.2.3.4.5.4h.5c.2 0 .4-.2.5-.4l.2-.7zm3.6-2.8v4.9h-1.1v-6.9h1.1v.4c.3-.3.6-.5 1-.5.6 0 1.1.1 1.4.5.4.4.5 1 .5 1.9v4.6h-1.1v-4.9c0-.2 0-.5-.2-.7a.7.7 0 0 0-.4-.3h-.6l-.4.3-.2.7zm8 2.9c0 .5-.2 1-.6 1.5a2 2 0 0 1-1.5.6 2 2 0 0 1-1.5-.6 2 2 0 0 1-.5-1.3v-.3h1.1v.3l.3.6.6.2c.2 0 .4 0 .6-.2.2-.1.3-.3.3-.5l-.1-.7-.7-.6-.8-.5a3 3 0 0 1-.8-.7c-.2-.3-.3-.6-.3-1 0-.5.1-1 .5-1.3.4-.4.8-.5 1.3-.5s1 .2 1.3.5c.4.4.5.9.5 1.4v.2h-1v-.3c0-.2-.2-.4-.3-.5l-.5-.2c-.3 0-.5.1-.6.4-.1.3 0 .6.2.8l.6.5a53.3 53.3 0 0 1 1.5 1.2l.4 1zm2-2.8v2.7c0 .4.1.6.3.8.1.2.4.3.6.3.3 0 .5 0 .7-.2s.3-.4.3-.7v-.3h1v.2c.1.5 0 1-.4 1.4-.3.5-.9.7-1.6.7a2 2 0 0 1-1.4-.6c-.5-.4-.7-1-.7-2v-2c0-.8.2-1.5.7-1.9a2 2 0 0 1 1.4-.6c.7 0 1.2.2 1.6.7s.5 1 .5 1.4v.2h-1.2v-.3c0-.3-.1-.5-.3-.7s-.4-.2-.7-.2c-.2 0-.5 0-.6.3s-.3.4-.3.8zm4.4-3a.7.7 0 0 1 0-1l.5-.2c.2 0 .3 0 .4.2.2.1.3.3.3.5s-.1.3-.3.5l-.4.2c-.2 0-.4 0-.5-.2zm.8 7.9h-.9v-7H40v6.9h-.2zm1.5-2.6v-2c0-.8.2-1.5.7-1.9.4-.4.9-.6 1.5-.6s1 .2 1.4.6c.5.4.7 1 .7 2v.9l-.1.2h-2.7l-.2.1v1.1c0 .4 0 .6.2.8.1.2.4.3.6.3.3 0 .5 0 .7-.2s.3-.4.3-.7v-.3h1v.2c.1.5 0 1-.4 1.4-.3.5-.9.7-1.6.7a2 2 0 0 1-1.4-.6c-.5-.4-.7-1-.7-2zm3-2v-.3c.1-.5 0-.8-.4-1a.9.9 0 0 0-1 0c-.3.2-.4.5-.4 1v.5h1.8v-.2zm3.7-.4v4.9h-1v-6.9h1v.4c.3-.3.6-.5 1-.5.6 0 1.1.1 1.4.5.4.4.6 1 .6 1.9v4.4l-.1.2h-1.1v-4.9c0-.2 0-.5-.2-.7a.7.7 0 0 0-.4-.3h-.6l-.4.3-.2.7zm5.5-.8v3.3l.1 1c.1.2.3.3.7.4h.2v1h-.2c-.7 0-1.3-.1-1.5-.5-.3-.4-.5-1-.5-2v-3.2l-.1-.1h-.3v-1h.3v-1.4l.2-.2h1v1.4l.2.2h.6v.9l-.2.1h-.4l-.1.1zm224-1.5v4.7c0 1 .3 1.5 1 1.5s1-.4 1.1-1.2v-.3h1c.2 0 .3 0 .3.3 0 .8-.3 1.4-.7 1.8-.4.3-1 .5-1.6.5-.6 0-1.2-.2-1.6-.7s-.6-1-.6-2v-4.6c0-.9.2-1.5.6-2s1-.7 1.6-.7c.7 0 1.2.2 1.6.6.4.4.6 1 .7 1.7 0 .3 0 .4-.3.4h-.8l-.1-.3c0-.8-.4-1.3-1-1.3-.8 0-1.1.6-1.1 1.6zm8.5 2.8v2c0 .8-.1 1.5-.5 2a2 2 0 0 1-1.5.5 2 2 0 0 1-1.5-.6c-.4-.4-.6-1-.6-2v-2c0-.8.2-1.5.6-1.9.4-.4.9-.6 1.5-.6s1 .2 1.5.6c.4.4.6 1 .6 2zm-1 2.3v-2.7a1 1 0 0 0-.3-.7.8.8 0 0 0-.5-.4 1 1 0 0 0-.5 0c-.2 0-.3.2-.5.4l-.2.7v2.7l.2.7c.2.2.3.4.5.4h.5c.2 0 .4-.2.5-.4.2-.2.2-.4.2-.7zm3.5-2.8v4.9h-1.1v-6.9h1.1v.4c.3-.3.6-.5 1-.5.7 0 1.1.1 1.5.5.3.4.5 1 .5 1.9v4.6h-1.2l-.1-.2V278c0-.2 0-.5-.2-.7a.7.7 0 0 0-.4-.3h-.5c-.2 0-.4.1-.5.3l-.2.7zm8 2.9c0 .5-.1 1-.5 1.5a2 2 0 0 1-1.5.6c-.7 0-1.2-.2-1.5-.6a2 2 0 0 1-.6-1.3v-.3h1.2v.3l.3.6.7.2c.2 0 .4 0 .5-.2.2-.1.3-.3.3-.5v-.7l-.7-.6-.9-.5a3 3 0 0 1-.7-.7c-.2-.3-.4-.6-.4-1 0-.5.2-1 .5-1.3.4-.4.8-.5 1.4-.5.5 0 .9.2 1.2.5.4.4.6.9.6 1.4v.2h-1.3v-.3c0-.2-.1-.4-.3-.5a.7.7 0 0 0-.5-.2c-.3 0-.5.1-.6.4-.1.3 0 .6.2.8l.7.5a53.3 53.3 0 0 1 1.5 1.2c.2.3.3.6.3 1zm2.1-2.8v2.7c0 .4 0 .6.2.8.2.2.4.3.7.3.2 0 .5 0 .6-.2l.3-.7v-.3h1.1v.2c0 .5-.1 1-.5 1.4-.3.5-.8.7-1.5.7a2 2 0 0 1-1.5-.6c-.4-.4-.6-1-.6-2v-2c0-.8.2-1.5.6-1.9a2 2 0 0 1 1.5-.6c.7 0 1.2.2 1.5.7s.6 1 .5 1.4v.2h-1l-.1-.3c0-.3-.1-.5-.3-.7s-.4-.2-.6-.2c-.3 0-.5 0-.7.3s-.3.4-.3.8zm4.4-3a.7.7 0 0 1 0-1l.4-.2c.2 0 .4 0 .5.2l.2.5c0 .2 0 .3-.2.5l-.5.2c-.2 0-.3 0-.5-.2zm.7 7.9h-.8v-7h1l.1.2v6.7h-.3zm1.6-2.6v-2c0-.8.2-1.5.6-1.9.4-.4.9-.6 1.5-.6s1 .2 1.5.6c.4.4.6 1 .6 2v1.1h-2.8l-.2.1v1.1c0 .4 0 .6.2.8.2.2.4.3.7.3.2 0 .5 0 .6-.2l.3-.7v-.3h1.1v.2c0 .5-.1 1-.5 1.4-.3.5-.8.7-1.5.7a2 2 0 0 1-1.5-.6c-.4-.4-.6-1-.6-2zm3-2v-.3c0-.5-.1-.8-.4-1a.9.9 0 0 0-1 0c-.3.2-.5.5-.5 1v.3l.1.2h1.7l.1-.2zm3.7-.4v4.7l-.1.2h-1.1v-6.9h1.2v.4c.3-.3.7-.5 1.1-.5.6 0 1 .1 1.4.5.3.4.5 1 .5 1.9v4.6h-1.3l-.1-.2V278c0-.2 0-.5-.2-.7a.7.7 0 0 0-.4-.3h-.5c-.2 0-.4.1-.5.3-.1.2-.2.5-.1.7zm5.4-.8v3.3c0 .5 0 .9.2 1 0 .2.3.3.6.4h.2v1h-.2c-.7 0-1.2-.1-1.5-.5-.3-.4-.5-1-.5-2v-3.2l-.1-.1h-.2l-.1-.3v-.7h.3l.1-.2v-1.4h1.2l.1.2v1.2c0 .1 0 .2.2.2h.5v.9l-.2.1h-.3l-.2.1z"/></svg>