<svg xmlns="http://www.w3.org/2000/svg" viewBox="0 0 320 568"><path fill="#002CFF" d="M59 41.2h-.7c-.3 0-.5-.1-.6-.4L56 33.7l-.1-.1v7l-.2.5h-2.5l-.1-.5V22l.5-.1H55c.3 0 .4.1.5.3l3.1 13 .1.2.1-.1 3.2-13c0-.3.2-.4.5-.4h1.2l.5.1.1.4v18.3l-.1.5h-2.6v-7.5h-.2l-1.8 7.2c0 .3-.3.4-.6.4zM76.7 27v9c0 1.7-.4 3-1.3 4-.8.8-1.8 1.3-3.2 1.3s-2.4-.5-3.2-1.3-1.2-2.3-1.2-4v-9c0-1.8.4-3 1.2-4s1.9-1.3 3.2-1.3 2.4.4 3.2 1.3c.9 1 1.3 2.2 1.3 4zm-2.8 9.8V26.2c0-.8-.2-1.4-.8-1.7-.6-.4-1.2-.4-1.7 0-.6.3-.9.9-.8 1.7v10.6c0 .8.2 1.4.8 1.7.5.4 1.1.4 1.7 0 .6-.3.8-1 .8-1.7zm14.8 4.4h-1.2c-.3 0-.5-.1-.6-.3l-3.6-10.4h-.1c-.1 0 0-.1-.1 0v10.1l-.2.5h-2.5l-.1-.5V22l.5-.1h1.3c.3 0 .4.1.5.4l3.7 10.3v.1h.2V22.3l.1-.4.5-.1h1.6l.4.1.2.4v18.3c0 .2 0 .4-.2.5h-.4zm13.6-15v10.6c0 .8.2 1.4.8 1.7.6.4 1.1.4 1.7 0 .6-.3.9-1 .8-1.7v-.2l.1-.5.5-.1h1.6c.4 0 .6.2.6.7a5.1 5.1 0 0 1-1.4 3.4 4 4 0 0 1-3 1.2c-1.4 0-2.4-.5-3.3-1.3s-1.2-2.2-1.2-4v-9c0-1.8.4-3 1.2-4s2-1.3 3.3-1.3c1.2 0 2.2.4 3 1.1.8.8 1.3 2 1.4 3.5 0 .4-.2.7-.6.7h-1.6c-.2 0-.4 0-.5-.2v-.6c0-.8-.3-1.4-.9-1.7-.6-.4-1.1-.4-1.7 0-.6.3-.9.9-.8 1.7zm18.1.8v9c0 1.7-.4 3-1.2 4-.8.8-1.9 1.3-3.2 1.3s-2.4-.5-3.2-1.3-1.2-2.3-1.2-4v-9c0-1.8.4-3 1.2-4s1.9-1.3 3.2-1.3 2.4.4 3.2 1.3a6 6 0 0 1 1.2 4zm-2.7 9.8V26.2c0-.8-.2-1.4-.8-1.7-.6-.4-1.2-.4-1.8 0-.5.3-.8.9-.8 1.7v10.6c0 .8.3 1.4.8 1.7.6.4 1.2.4 1.8 0 .6-.3.8-1 .8-1.7zm12.7 4.4h-5.8l-.4-.1-.2-.5V22.3c0-.2 0-.3.2-.4l.4-.1h1.7l.4.1.1.4v16.2h3.6l.5.2.1.4v1.5l-.1.5h-.5zm9.9 0h-5.8l-.5-.1V22l.5-.1h1.6l.5.1v16l.1.5h3.6l.4.2.2.4v1.5c0 .2 0 .4-.2.5h-.4zm12.2 0h-1.7a2 2 0 0 1-.3 0l-.1-.1-.2-.3-.2-1.5c0-.3-.1-.5-.2-.5h-3.4l-.1.5-.3 1.5-.1.3h-2.6v-.4l3.5-18.4.1-.4.5-.1h1.9l.2.5 3.5 18.4v.4h-.5zM148 28.8l-1.1 6.8v.4l.4.1h2.1v-.5l-1.2-6.8h-.2zm16.6-1.8c0 1.6-.4 2.9-1.1 3.8v.3c.7 1 1.1 2.2 1.1 3.8v1c0 1.7-.4 3-1.2 4s-1.9 1.3-3.2 1.3h-3.4l-.4-.1-.1-.5V22.3l.1-.4.4-.1h3.4c1.3 0 2.4.4 3.2 1.3s1.2 2.2 1.2 4zm-5.5-2v4.6h1.1c1 0 1.6-.7 1.6-2v-1.2c0-.7-.1-1.2-.4-1.5s-.7-.5-1.2-.5H159v.5zm0 7.8v5.7h1.1c.5 0 .9 0 1.2-.4s.4-.8.4-1.5v-2.3c0-.7-.1-1.2-.4-1.5s-.7-.5-1.2-.5h-1.1v.5zm17.7-5.8v9c0 1.7-.4 3-1.2 4-.8.8-1.9 1.3-3.2 1.3s-2.4-.5-3.2-1.3-1.3-2.3-1.3-4v-9c0-1.8.4-3 1.3-4s1.8-1.3 3.2-1.3 2.4.4 3.2 1.3a6 6 0 0 1 1.2 4zm-2.8 9.8V26.2c0-.8-.2-1.4-.8-1.7-.5-.4-1.1-.4-1.7 0-.6.3-.9.9-.8 1.7v10.6c0 .8.2 1.4.8 1.7.6.4 1.2.4 1.7 0 .6-.3.9-1 .8-1.7zm7-15h3.6c1.3 0 2.3.4 3 1.3.8.8 1.1 2.1 1.1 3.8v1c0 2.1-.5 3.6-1.7 4.4l1.7 8.3c0 .4 0 .6-.3.6h-2.1l-.2-.1-.1-.3-1.4-7.5c0-.1-.1-.2-.3-.2h-1.1v7.5l-.1.5h-2.6l-.1-.5V22.3l.1-.4.5-.1zm3.6 2.4h-.9l-.5.1v6.3h1.4c.9 0 1.3-.6 1.3-2v-2.4c0-1.3-.4-2-1.3-2zm16.4 17h-1.6a2 2 0 0 1-.3 0l-.2-.1-.1-.3-.3-1.5-.1-.5H195l-.2.5-.2 1.5-.1.3h-2.6v-.4l3.4-18.4.2-.4.4-.1h2l.2.5 3.4 18.4v.4h-.4zm-4.4-12.4l-1.2 6.8v.4l.5.1h2v-.5l-1-6.8h-.3zm6.4-5v-1.9l.5-.1h7.2l.4.1.1.4v2H209c-.3 0-.4.1-.5.2v16.1c0 .2 0 .4-.2.5h-2.5l-.1-.5v-16l-.5-.1h-1.7l-.4-.1-.2-.5zm17.6 17.4h-5.9l-.4-.1-.2-.5V22.3c0-.2 0-.3.2-.4l.4-.1h5.9l.4.1.1.4v1.5l-.1.5h-3.5c-.3 0-.5.1-.5.2v5.1h3.5c.3 0 .4.1.5.2l.1.4v1.5l-.1.4-.4.2H217v6.2h3.5c.3 0 .4.1.5.2l.1.4v1.5l-.1.5h-.4zm10.1-4.4V22l.5-.1h1.7l.4.1.1.4V36a6 6 0 0 1-1.2 4c-.8.8-1.9 1.3-3.2 1.3-1.3 0-2.4-.5-3.2-1.3s-1.2-2.2-1.2-4V22l.5-.1h1.7l.4.1.1.4v14.5c0 .8.2 1.4.8 1.7.6.4 1.2.4 1.8 0 .6-.3.8-1 .8-1.7zm7-15h3.6c1.3 0 2.4.4 3 1.3.8.8 1.2 2.1 1.2 3.8v1c0 2.1-.6 3.6-1.7 4.4l1.7 8.3c0 .4 0 .6-.4.6h-2l-.2-.1-.1-.3-1.4-7.5-.4-.2h-1v7.5c0 .2 0 .4-.2.5h-2.5l-.1-.5V22.3l.1-.4.4-.1zm3.6 2.4h-.8l-.5.1v6.3h1.3c1 0 1.4-.6 1.4-2v-2.4c0-1.3-.4-2-1.4-2zm23.2 17h-1.7a2 2 0 0 1-.3 0l-.2-.1v-.3l-.3-1.5c0-.3-.1-.5-.2-.5h-3.4l-.1.5-.3 1.5-.1.3h-2.6v-.4l3.5-18.4.1-.4.5-.1h1.9l.2.5 3.5 18.4v.4h-.5zM260 28.8l-1.1 6.8v.4l.4.1h2.1v-.5l-1.2-6.8h-.2zM62 68.2V53.3l.5-.1H64l.5.1v14.1c0 1.8-.3 3-1.1 4-.9.9-2 1.3-3.3 1.3-1.3 0-2.4-.4-3.2-1.3s-1.2-2.2-1.2-4V53.7l.1-.4.5-.1H58l.5.1v14.9c0 .8.3 1.4.9 1.7.6.4 1.1.4 1.7 0 .6-.3.9-1 .8-1.7zm14.9 4.4h-1.3c-.3 0-.5-.1-.5-.3l-3.7-10.4h-.2V72l-.1.5h-2.6V53.3l.5-.1h1.2c.3 0 .5.1.6.4l3.6 10.3.1.1h.1c.1 0 0 0 0-.1V53.7l.2-.4.4-.1H77l.4.1.1.4V72l-.1.5H77zm10.8 0H82l-.5-.1-.1-.5V53.7l.1-.4.5-.1h5.8l.4.1.2.4v1.5c0 .2 0 .4-.2.5l-.4.1h-3.6V61h3.6l.4.2.2.4v1.5c0 .2 0 .4-.2.4l-.4.2h-3.6V70h3.6l.4.2.2.4V72c0 .2 0 .4-.2.5h-.4zm19.1-14.1a6 6 0 0 1-1 3.7c-.2.1-.2.2 0 .3.7 1 1 2.2 1 3.8v1c0 1.7-.4 3-1.2 4s-1.9 1.3-3.2 1.3H99l-.5-.1V53.3l.5-.1h3.3c1.3 0 2.4.4 3.2 1.3s1.2 2.2 1.2 4zm-5.5-2.1V61h1.1c1.1 0 1.7-.7 1.7-2v-1.2c0-.7-.2-1.2-.5-1.5s-.7-.5-1.2-.5h-1l-.1.6zm0 7.8V70h1.1c.5 0 .9 0 1.2-.4s.5-.8.5-1.5v-2.3c0-.7-.2-1.2-.5-1.5s-.7-.5-1.2-.5h-1.1v.5zm17.9 8.4h-1.7a2 2 0 0 1-.3 0l-.2-.1-.1-.3-.3-1.5-.1-.5H113l-.2.5-.2 1.5c0 .1 0 .2-.2.3h-2.5V72l3.4-18.4.2-.4.4-.1h2l.1.5 3.5 18.4v.4h-.4zm-4.5-12.4l-1.2 6.8v.4l.5.1h2V67l-1.1-6.8h-.2zm11-6.5V72l-.1.5h-2.5l-.1-.5V53.3l.5-.1h1.7l.4.1.1.4zm7.6 19a4 4 0 0 1-3.2-1.3 4 4 0 0 1-1.2-3.2v-.5l.5-.2h1.6c.4 0 .6.3.6.7 0 .6.1 1 .4 1.4.3.4.7.6 1.3.6.5 0 .9-.2 1.2-.5s.4-.7.5-1.2c.2-1.1-.4-2.5-1.8-4a22.4 22.4 0 0 1-1.1-1.4l-.6-.7a23.3 23.3 0 0 0-1.6-2.4 47.1 47.1 0 0 0-.6-1.7l-.1-.8a4 4 0 0 1 4-4.4 4 4 0 0 1 4 3.7v.7l-.6.2h-1.5c-.2 0-.3 0-.4-.2l-.1-.4c0-.5-.2-.8-.4-1.1-.2-.2-.6-.4-1-.4-.5 0-.9.2-1 .6a2 2 0 0 0-.3 1.2c0 .7.4 1.5 1 2.3.5.9 1.2 1.7 1.8 2.4.7.7 1.3 1.6 2 2.6.5 1 .9 2 1 3 .2 1.3-.2 2.4-1 3.5-1 1-2 1.5-3.4 1.5zm11.3 0a4 4 0 0 1-3.2-1.3c-.9-1-1.3-2-1.3-3.2l.1-.5.5-.2h1.6c.4 0 .6.3.6.7 0 .6.1 1 .4 1.4.3.4.7.6 1.3.6.4 0 .8-.2 1.1-.5s.5-.7.6-1.2c.2-1.1-.4-2.5-1.8-4a22.4 22.4 0 0 1-1.2-1.4l-.5-.7a23.3 23.3 0 0 0-1.6-2.4 47.1 47.1 0 0 0-.7-1.7v-.8a4 4 0 0 1 4-4.4 4 4 0 0 1 4 3.7v.7l-.6.2h-1.5c-.2 0-.4 0-.4-.2l-.2-.4c0-.5 0-.8-.3-1.1-.3-.2-.6-.4-1-.4-.5 0-.9.2-1.1.6a2 2 0 0 0-.2 1.2c0 .7.4 1.5 1 2.3.5.9 1.1 1.7 1.8 2.4s1.3 1.6 1.9 2.6c.6 1 1 2 1 3 .2 1.3-.1 2.4-1 3.5-.8 1-2 1.5-3.3 1.5zm14-.1h-5.9l-.4-.1-.1-.5V53.3l.5-.1h5.9l.4.1.1.4v1.5l-.1.5-.4.1H155V61h3.5c.3 0 .4.1.5.2l.1.4v1.5l-.1.4-.4.2H155V70h3.5c.3 0 .4.1.5.2l.1.4V72l-.1.5h-.4zM170 53.2h3.2c1.4 0 2.4.4 3.3 1.3s1.2 2.2 1.2 4v8.8c0 1.7-.4 3-1.2 4s-2 1.3-3.3 1.3H170l-.4-.1-.1-.5V53.3l.5-.1zm2.1 3.2v13l.1.5h1c.5 0 1 0 1.2-.4s.5-.8.5-1.5V57.8c0-.7-.1-1.2-.5-1.5s-.7-.5-1.2-.5h-1v.6zm15.6 16.2h-5.9l-.4-.1-.1-.5V53.7l.1-.4.4-.1h5.9l.4.1.1.4v2l-.5.1H184V61h3.5c.3 0 .4.1.5.2l.1.4v1.9l-.5.2H184V70h3.5c.3 0 .4.1.5.2l.1.4v2h-.5zM199 53.2h3.6c1.4 0 2.4.4 3.1 1.3.7.8 1.1 2.1 1.1 3.8v1c0 2.1-.6 3.6-1.7 4.5l1.7 8.2c0 .4 0 .6-.4.6h-2l-.2-.1-.1-.3-1.4-7.5-.4-.2h-1V72c0 .2 0 .4-.2.5h-2.5l-.1-.5V53.7l.1-.4.4-.1zm3.6 2.4h-.8l-.5.1V62h1.3c1 0 1.4-.6 1.4-2v-2.4c0-1.3-.4-2-1.4-2zm14.2 17H211l-.5-.1V53.3l.5-.1h5.8l.5.1v2.4l-.5.1h-3.5l-.1.6V61h3.6l.5.2v2.3l-.5.2h-3.5l-.1.5V70h3.6l.5.2v2.4h-.5zm-2.5-20.4h-1c-.2 0-.3 0-.3-.3v-2.7c0-.2 0-.3.2-.4l.4-.2h1.6c.5 0 .6.3.4.8l-.8 2.4-.2.4h-.3zm9.2 5.4v10.6c0 .8.2 1.4.8 1.7.5.4 1.1.4 1.7 0 .6-.3.9-1 .8-1.7v-4.5h-.8l-.4-.1-.1-.5v-1.9l.5-.1h3.4l.2.5v5.8c0 1.7-.4 3-1.2 3.9s-1.9 1.4-3.3 1.4c-1.3 0-2.4-.4-3.2-1.3s-1.2-2.2-1.2-4v-9c0-1.8.4-3 1.2-4s2-1.3 3.2-1.3a4 4 0 0 1 3 1.1c.9.8 1.3 2 1.4 3.5 0 .4-.1.7-.5.7h-1.6c-.2 0-.4 0-.5-.2l-.1-.4v-.2c0-.8-.2-1.4-.8-1.7-.6-.4-1.2-.4-1.7 0-.6.3-.9.9-.8 1.7zm12.5-3.9V72l-.2.5h-2.5l-.1-.5V53.7l.1-.4.4-.1h1.7l.4.1.1.4zm9.7 18.9h-.6c-.3 0-.5-.1-.6-.4l-1.7-7.1-.2-.1v7l-.1.5h-2.6V53.3l.5-.1h1.2c.3 0 .5.1.6.3l3 13 .2.2.1-.1 3.1-13c0-.3.3-.4.6-.4h1.2l.4.1.2.4V72c0 .2 0 .4-.2.5h-2.5l-.1-.5v-7h-.1l-1.8 7.2c0 .3-.3.4-.6.4zm15.5 0h-5.8l-.4-.1-.2-.5V53.7c0-.2 0-.3.2-.4l.4-.1h5.8l.5.1.1.4v1.5l-.1.5-.5.1h-3.5V61h3.5l.5.2.1.4v1.5l-.1.4-.5.2h-3.5V70h3.5l.5.2.1.4V72l-.1.5h-.5z"/><path fill="#4A4A4A" d="M23 152v3.7l-.2.2-.2.1H22v-4l-.2-.1h-3l-.3-.1v-.9l3.3-6.6.4-.2h.5l.1.3v6.5l.2.1.3.1.1.3v.4H23l-.2.2zm-1.1-6l-2.4 4.9.1.1H22l.1-.1V146H22zm6.6 5.4v-.2c0-.2 0-.3.2-.3h2.9c.2 0 .2.1.2.3v.2c0 .2 0 .3-.2.3h-3l-.1-.3zm8 2.1c0-.3 0-.4.3-.4h.3c.2 0 .3.1.3.4 0 .5.2 1 .5 1.3.4.3.8.5 1.3.5.6 0 1-.3 1.4-.7.4-.5.5-1 .5-1.6l-.4-1a7.8 7.8 0 0 0-1.5-1.7l-.2-.2a13.7 13.7 0 0 0-.5-.5l-.6-.5v-.1l-.2-.2a6.5 6.5 0 0 1-.6-.8l-.3-1.3c0-.7.1-1.3.6-1.9.4-.5 1-.8 1.8-.8.6 0 1.1.3 1.6.7.5.4.7 1 .8 1.7 0 .2-.2.3-.4.3h-.1c-.2 0-.3-.1-.4-.3 0-.4-.2-.8-.5-1.1-.2-.3-.6-.4-1-.4-.5 0-.9.1-1.2.5-.3.3-.4.7-.4 1.3 0 .4.2.8.4 1.1l1.4 1.5a28.7 28.7 0 0 1 2 2.3c.3.5.5 1 .5 1.4.1.8-.1 1.5-.6 2.1-.5.7-1.2 1-2 1s-1.4-.3-2-.8c-.5-.5-.7-1-.8-1.8zm6.8-.5v-2.6c0-1 .2-1.7.7-2.2.4-.5 1-.8 1.6-.8s1.3.3 1.7.8c.4.5.6 1.2.6 2.2v2.7c0 1-.2 1.7-.6 2.2-.4.5-1 .8-1.7.8s-1.2-.3-1.6-.8c-.5-.5-.7-1.2-.7-2.2zm3.7.4v-3.3c0-.6-.1-1.1-.4-1.4-.2-.3-.5-.4-1-.4s-.7.1-1 .4c-.2.3-.4.8-.4 1.4v3.3c0 .6.2 1.1.4 1.4.3.3.6.5 1 .5s.8-.2 1-.5c.3-.3.4-.8.4-1.4zm4.2 1.8h.2l.1.3v.4l-.3.1c-.6 0-1-.2-1.2-.7-.2-.3-.2-.6-.3-1v-10.1l.3-.1h.5v9.3l.1 1.3c.1.3.3.5.6.5zm2.7-7.4v5.6c0 1.2.4 1.9 1.3 1.9s1.3-.7 1.3-1.9v-5.8l.3-.1h.5v8.4l-.3.1h-.4l-.1-.3v-.4c-.3.5-.8.8-1.4.8a2 2 0 0 1-1.6-.7c-.3-.5-.5-1.3-.5-2.3v-5.5l.3-.1h.5v.3zm6.4-1.8v1.7c0 .2 0 .2.2.2h.6v.8h-.6c-.1 0-.2 0-.2.2v5.8c.1.3.3.5.6.5h.3v.7l-.3.1c-.6 0-1-.2-1.2-.7l-.2-1v-5.4l-.2-.2H59v-.7h.3l.1-.3V146l.1-.2.3-.1h.4l.1.3zm2.9.7c-.2 0-.3 0-.4-.2v-.6c0-.2.2-.3.4-.3.3 0 .4.1.5.3v.6c0 .1-.2.2-.5.2zm.5 1.1v7.9l-.1.2-.3.1h-.4l-.1-.3v-8.1l.3-.1h.5v.3zm1.8 5.2v-2.6c0-1 .3-1.7.7-2.2.4-.5 1-.8 1.6-.8s1.3.3 1.7.8c.4.5.6 1.2.6 2.2v2.7c0 1-.2 1.7-.6 2.2-.4.5-1 .8-1.7.8s-1.2-.3-1.6-.8c-.4-.5-.7-1.2-.7-2.2zm3.7.4v-3.3c0-.6-.1-1.1-.4-1.4-.2-.3-.5-.4-1-.4s-.7.1-1 .4c-.2.3-.4.8-.4 1.4v3.3c0 .6.2 1.1.4 1.4.3.3.6.5 1 .5s.8-.2 1-.5c.3-.3.4-.8.4-1.4zm6.3 2.3V150c0-1.2-.4-1.8-1.3-1.8s-1.3.6-1.3 1.8v5.6l-.1.2-.3.1h-.4l-.1-.3v-8.1l.3-.1h.5v.7c.4-.5.8-.8 1.4-.8.7 0 1.2.2 1.6.7.4.5.6 1.3.6 2.3v5.5l-.3.1h-.5v-.3zM20.6 272.5v-.4c0-.1.2 0 .4 0h.3c.8 0 1.2-.6 1.2-1.6v-1.1c0-.6-.2-1-.4-1.4-.3-.3-.7-.4-1.1-.4-.4 0-.8 0-1 .4-.3.2-.4.6-.5 1v.3l-.2.1h-.6v-.3c0-.6.2-1.1.6-1.6.4-.5 1-.8 1.7-.8s1.3.3 1.7.8.7 1.2.7 2.2v.7c0 1-.3 1.5-.7 2 .4.5.7 1.1.7 2v1.4c0 1-.3 1.7-.7 2.2-.4.5-1 .8-1.7.8-.8 0-1.3-.3-1.7-.7-.4-.5-.6-1.1-.6-1.7v-.3h.8v.4c0 .4.2.8.5 1 .2.3.6.5 1 .5s.8-.2 1-.5c.3-.3.5-.8.5-1.4v-1.8c0-1-.4-1.5-1.2-1.5h-.6v-.3zm7.7 1.5c0-.3 0-.4.2-.4h3c.1 0 .2.1.2.3v.2c0 .2-.1.3-.3.3h-2.9c-.1 0-.2 0-.2-.3zm10.7-.6h-1.3v5.2l-.4.1h-.4l-.1-.3v-11.6h2.3c.8 0 1.4.2 1.8.6s.7 1.2.7 2.2v.8c0 1.2-.3 2-1 2.5l1 5.4v.2l-.3.1h-.4l-.2-.2-1-5v-.1h-.8zm-1.3-5.4v4.5H39c.5 0 1-.1 1.3-.5.3-.3.4-.8.4-1.5v-.8c0-.7-.1-1.2-.4-1.6-.3-.3-.8-.5-1.3-.5h-1.3v.4zm5.6 7.8V273c0-1 .2-1.7.6-2.2.5-.5 1-.8 1.7-.8s1.3.3 1.7.8c.4.5.6 1.2.6 2.2v1.2h-3.4l-.2.1v1.7c0 .7 0 1.1.3 1.4.2.3.6.5 1 .5s.7-.2 1-.4c.2-.3.4-.7.4-1.1v-.4h.8v.3c0 .6-.2 1.2-.5 1.7-.4.4-1 .7-1.7.7a2 2 0 0 1-1.7-.8c-.4-.5-.6-1.2-.6-2.2zm1-3v.7H47v-.7c0-.6-.1-1-.4-1.4-.2-.3-.6-.4-1-.4s-.8.1-1 .4c-.3.3-.4.8-.4 1.4zm7.6-5.2c-.5 0-.9.2-1 .5a4 4 0 0 0-.3 1.6v.7l.2.2h1v.7l-.3.1h-.7c-.1 0-.2 0-.2.2v7l-.3.1h-.5v-7.1l-.2-.2h-.3v-.7l.3-.1c.1 0 .2 0 .2-.2V269a6.3 6.3 0 0 1 .3-1.3v-.2l.2-.1v-.1a4.8 4.8 0 0 1 .3-.2c.3-.2.7-.3 1.3-.3h.2l.1.3v.4l-.3.1zm1.2 8.2V273c0-1 .2-1.7.7-2.2.4-.5 1-.8 1.6-.8s1.3.3 1.7.8c.4.5.6 1.2.6 2.2v2.7c0 1-.2 1.7-.6 2.2-.4.5-1 .8-1.7.8s-1.2-.3-1.6-.8c-.5-.5-.7-1.2-.7-2.2zm3.7.3v-3.3c0-.6-.1-1-.4-1.4-.2-.3-.6-.4-1-.4s-.8.1-1 .4c-.3.3-.4.8-.4 1.4v3.3c0 .7.1 1.1.4 1.4.2.3.6.5 1 .5s.8-.2 1-.5c.3-.3.4-.7.4-1.4zm4.9-4.9l-.4-.1c-.4 0-.6.2-.7.6l-.2 1.1v5.8l-.3.1h-.5v-8.5h.8v.5c.4-.4.8-.6 1.3-.6h.3v1.1h-.3zm6.3 1.6v5.6l-.2.2-.2.1H67v-6c0-1.2-.5-1.8-1.4-1.8-.9 0-1.3.6-1.3 1.8v5.6l-.1.2-.3.1h-.4l-.1-.3v-8.1h.8v.7c.4-.5.9-.8 1.4-.8.9 0 1.5.3 1.8 1 .5-.6 1-1 1.8-1 .7 0 1.2.3 1.6.7.4.5.5 1.3.5 2.3v5.5l-.3.1h-.5v-6c0-1.2-.5-1.8-1.4-1.8-.8 0-1.3.6-1.3 1.8zm6.2-2.3v5.6c0 1.3.4 1.9 1.3 1.9 1 0 1.4-.6 1.4-1.9v-5.8h.8v8.3l-.3.1h-.5v-.7c-.4.5-.8.8-1.4.8-.7 0-1.2-.2-1.6-.7-.4-.5-.6-1.3-.6-2.3v-5.5h.8l.1.2zm7 7.4h.3v.7l-.3.1c-.6 0-1-.2-1.2-.7-.2-.3-.2-.6-.3-1v-10.1h.8v9.2l.1 1.3c.1.3.3.5.6.5zm4-6.9c-.8 0-1.3.4-1.4 1.4v.4H83l-.1-.3c0-.6.2-1.2.5-1.6.4-.5 1-.8 1.7-.8 1.5 0 2.2 1 2.2 3v4.3l.1 1c0 .2 0 .3-.3.3h-.3l-.3-.1v-.4c-.5.4-1 .6-1.7.6-.6 0-1.1-.2-1.5-.6s-.6-1-.6-1.7v-.5c0-.5.2-1 .4-1.3l1-.7 1-.4 1-.5c.2-.2.3-.3.3-.6 0-.4-.1-.8-.3-1-.3-.4-.6-.5-1-.5zm0 7c.5 0 .8-.2 1-.5.2-.2.3-.6.3-1.2v-2.5l-.8.3-.8.3c-.9.4-1.3 1-1.2 1.9 0 1.2.5 1.7 1.6 1.7zm5-9.3v1.7c0 .2 0 .2.2.2h.6v.8h-.6c-.1 0-.2 0-.2.2v4.5l.1 1.3c0 .3.2.5.5.5h.3v.7l-.3.1c-.6 0-1-.2-1.2-.7l-.2-1v-5.4l-.2-.2h-.3v-.7h.3l.1-.3v-1.7l.1-.2.3-.1h.5v.3zm3 .7c-.3 0-.4 0-.5-.2v-.6c0-.2.2-.2.5-.2.2 0 .3 0 .4.2v.6c0 .2-.2.2-.4.2zm.4 1.1v8.1l-.3.1h-.5v-8.5h.7l.1.2zm1.9 5.3V273c0-1 .2-1.7.6-2.2.4-.5 1-.8 1.6-.8s1.3.3 1.7.8c.4.5.6 1.2.6 2.2v2.7c0 1-.2 1.7-.6 2.2-.4.5-1 .8-1.7.8s-1.2-.3-1.6-.8c-.4-.5-.6-1.2-.6-2.2zm3.6.3v-3.3c0-.6 0-1-.3-1.4-.3-.3-.6-.4-1-.4s-.8.1-1 .4c-.3.3-.4.8-.4 1.4v3.3c0 .7 0 1.1.3 1.4.3.3.6.5 1 .5s.8-.2 1-.5c.3-.3.4-.7.4-1.4zm6.3 2.3v-5.6c0-1.2-.4-1.8-1.3-1.8s-1.3.6-1.3 1.8v5.6l-.1.2-.3.1h-.4l-.1-.3v-8.1h.8v.6c.4-.5.9-.7 1.4-.8a2 2 0 0 1 1.6.7c.4.5.6 1.3.6 2.3v5.5l-.3.1h-.5v-.3zm-86.5 233l1.2-3h.6V520l-.3.1H20v-8.3l-.3-.2h-.6c-.3 0-.3-.1-.2-.3zm6.9 4.2v-.1c0-.3 0-.4.2-.4h2.9c.2 0 .2.1.2.4 0 .3 0 .4-.2.4h-3l-.1-.3zM35 511v6.5c0 .6.1 1.1.4 1.5.3.3.7.5 1.2.5s1-.2 1.2-.5c.3-.4.5-.9.5-1.5v-.2c0-.2.1-.3.3-.3h.2c.3 0 .4.1.4.3 0 1-.2 1.8-.7 2.3-.5.4-1 .7-1.9.7-.7 0-1.4-.3-1.8-.7-.5-.5-.7-1.3-.7-2.2V511c0-1 .2-1.6.7-2.1s1-.8 1.8-.8 1.4.3 1.9.8.7 1.2.7 2.1v.1c0 .2-.1.3-.4.3h-.2c-.2 0-.3-.1-.3-.3v-.1c0-.7-.2-1.2-.5-1.5-.3-.4-.7-.5-1.2-.5s-.9.1-1.2.5c-.3.3-.4.8-.4 1.5zm5.8 6.3v-2.7c0-1 .2-1.7.6-2.2.4-.5 1-.8 1.7-.8s1.2.3 1.6.8c.4.5.7 1.2.7 2.2v2.7c0 1-.3 1.7-.7 2.2s-1 .8-1.6.8-1.3-.3-1.7-.8-.6-1.2-.6-2.2zm3.7.3v-3.3c0-.6-.2-1-.4-1.4-.3-.3-.6-.4-1-.4s-.8.1-1 .4c-.3.3-.4.8-.4 1.4v3.3c0 .7.1 1.1.4 1.4.2.3.5.5 1 .5s.7-.2 1-.5c.2-.3.4-.7.4-1.4zm6.3 2.3v-5.6c0-1.2-.5-1.8-1.4-1.8-.9 0-1.3.6-1.3 1.8v5.8l-.3.1h-.5v-8.5h.7l.1.3v.3c.3-.5.8-.7 1.4-.8a2 2 0 0 1 1.6.8c.4.4.5 1.2.5 2.2v5.5l-.3.1h-.5v-.3zm6.5-6.3v.3h-.5c-.2 0-.3 0-.3-.3s-.1-.6-.3-.8c-.3-.2-.5-.3-.8-.3s-.6 0-.8.3a1 1 0 0 0-.4.8c0 .3.2.6.4.9l.8.8 1 .7c.3.2.7.6.9 1 .2.3.3.7.3 1.1a2 2 0 0 1-.7 1.6c-.4.4-1 .6-1.6.6a2.2 2.2 0 0 1-2.2-2.2v-.3h.5c.2 0 .3 0 .3.3 0 .4.2.8.5 1 .3.2.6.4 1 .4a1.3 1.3 0 0 0 1.3-1.4c0-.4-.2-.8-.5-1.1a6 6 0 0 0-1.2-1l-1.1-1a2 2 0 0 1-.5-1.4c0-.5.2-1 .5-1.4.4-.4.9-.6 1.4-.6s1 .2 1.4.6c.4.3.6.8.6 1.4zm2.7-3.4v1.8l.2.1h.3l.3.1v.7h-.6l-.2.2v5.8c.2.3.3.5.6.5h.3v.7l-.3.1c-.6 0-1-.2-1.2-.6l-.2-1V513l-.2-.2h-.3v-.7h.3l.1-.2v-1.8l.1-.2.3-.1h.4l.1.3zm4.6 2.3c-.8 0-1.2.5-1.3 1.4v.4h-.8v-.3c0-.6.1-1.2.5-1.6.3-.5.9-.8 1.6-.8 1.5 0 2.2 1 2.2 3v4.3l.2 1c0 .2 0 .3-.4.3h-.5l-.1-.5c-.4.4-1 .6-1.6.6a2 2 0 0 1-1.5-.6c-.4-.4-.6-1-.6-1.7v-.5c0-.5.1-1 .4-1.3l.9-.7 1-.4 1-.5c.3-.2.3-.3.3-.6 0-.4 0-.8-.3-1-.2-.4-.5-.5-1-.5zm.1 7c.4 0 .7-.2 1-.5.2-.2.3-.6.3-1.2v-2.5l-.9.3-.8.3c-.8.4-1.2 1-1.1 1.9 0 1.2.5 1.7 1.5 1.7zm5-9.3v1.8l.2.1h.3l.2.1.1.3v.4h-.6c-.2 0-.2.1-.2.2v5.8c.1.3.3.5.6.5h.3v.7l-.3.1c-.6 0-1-.2-1.2-.6l-.3-1V513c0-.1 0-.2-.2-.2h-.2l-.1-.3v-.4h.3l.2-.2v-2l.3-.1h.5v.3zM19.7 389v1.6h3.4l.2.1.1.3v.4H19v-2.5c0-1 .4-2 1.2-3a46.7 46.7 0 0 0 2.3-3.2l.1-.6c0-1.2-.5-1.8-1.4-1.8-.4 0-.7.1-1 .4-.2.3-.4.8-.4 1.4v.6H19v-.3c0-.9.1-1.6.5-2.1s1-.8 1.7-.8c.5 0 .8 0 1.2.3.3.1.5.4.7.7l.3.8v.8c0 1-.3 2-1.2 3a171 171 0 0 1-2 2.5l-.2.7-.2.7zm8.7-2.2v-.1c0-.2 0-.3.2-.3h2.9c.2 0 .2 0 .2.3v.1c0 .3 0 .4-.2.4h-3l-.1-.4zm11.6 4.7c-.2 0-.4-.1-.4-.3l-1.8-7.1s0-.1 0 0v7l-.1.3h-.8v-11.8h.3c.3 0 .4 0 .4.2l2.3 9.6h.1c.1 0 0 0 0 0l2.4-9.6c0-.2.1-.2.3-.2h.4v11.8h-.8V384s0-.1-.1 0l-1.8 7.1c0 .2-.2.3-.4.3zm5.6-9.3c-.2 0-.3-.1-.4-.3s-.1-.3 0-.5c0-.2.2-.3.4-.3s.4 0 .5.3v.5c0 .2-.2.3-.5.3zm.5 1v8l-.1.2h-.7l-.1-.3V383h.8v.3zm5.7 1.6v.3h-.5c-.1 0-.2 0-.3-.2l-.3-.9c-.3-.2-.5-.3-.8-.3s-.6.1-.8.3a1 1 0 0 0-.3.8c0 .3 0 .6.3.9l.9.8 1 .8.8 1c.2.3.3.7.3 1a2 2 0 0 1-.7 1.6c-.4.4-1 .6-1.6.6a2.2 2.2 0 0 1-2.2-2.2v-.2l.3-.1h.2c.2 0 .3.1.3.3 0 .5.2.8.5 1 .3.3.6.4 1 .4.3 0 .7-.1 1-.4s.3-.6.3-1-.2-.7-.5-1.1a6 6 0 0 0-1.2-1c-.4-.2-.7-.6-1.1-1a2 2 0 0 1-.5-1.3c0-.6.2-1 .6-1.4.3-.4.8-.6 1.3-.6s1 .2 1.4.5.6.8.6 1.4zm1.7 3.7V386c0-1 .2-1.8.6-2.3s1-.7 1.7-.7 1.2.2 1.6.7.6 1.3.6 2.3v1.2h-3.6v1.8c0 .6 0 1 .3 1.4.3.3.6.4 1 .4.5 0 .8-.1 1-.4.3-.3.4-.6.4-1l.1-.4h.7v.2c0 .6-.1 1.2-.5 1.7s-1 .7-1.6.7a2 2 0 0 1-1.7-.7c-.4-.5-.6-1.3-.6-2.3zm.9-3v.8h2.7v-.8c0-.6 0-1-.3-1.4-.3-.3-.6-.4-1-.4s-.8.1-1 .5c-.3.2-.4.7-.4 1.3zm8.8 3V386c0-1 .2-1.8.6-2.3s1-.7 1.6-.7 1.3.2 1.7.7.6 1.3.6 2.3v1.2H64v1.8c0 .6 0 1 .3 1.4.3.3.6.4 1 .4s.8-.1 1-.4c.2-.3.4-.6.4-1v-.4h.8v.2c0 .6-.1 1.2-.5 1.7s-1 .7-1.7.7a2 2 0 0 1-1.6-.7c-.4-.5-.6-1.3-.6-2.3zm.8-3v.8h2.8v-.8c0-.6-.1-1-.3-1.4-.3-.3-.6-.4-1-.4s-.8.1-1 .5c-.3.2-.5.7-.5 1.3zm9.1 5.6v-5.6c0-1.2-.4-1.8-1.3-1.8s-1.3.6-1.3 1.8v5.6l-.1.3h-.7l-.1-.3V383h.8v.6c.4-.5.8-.7 1.4-.7.7 0 1.2.2 1.6.7.4.5.6 1.2.6 2.3v5.5h-.8v-.3zm-52 22.4a2 2 0 0 1-1.6-.7c-.4-.5-.7-1.3-.7-2.3V408c0-1 .3-1.8.7-2.3s1-.7 1.6-.7c.8 0 1.3.2 1.7.7.4.5.5 1 .6 1.7l-.1.2h-.7l-.1-.3c0-.5-.2-.8-.4-1.1-.2-.3-.6-.4-1-.4s-.7.2-1 .5c-.2.3-.4.7-.4 1.3v3.4c0 .6.2 1 .4 1.4.3.3.6.4 1 .4s.8-.1 1-.4c.2-.3.4-.6.4-1v-.4h.8v.2c0 .6-.1 1.2-.5 1.7s-1 .7-1.7.7zm3.9-3V408c0-1 .3-1.8.7-2.3s1-.7 1.6-.7 1.3.2 1.7.7.6 1.3.6 2.3v2.6c0 1-.2 1.8-.6 2.3-.4.5-1 .7-1.7.7s-1.2-.2-1.6-.7c-.4-.5-.6-1.3-.6-2.3zm3.7.4v-3.4c0-.6-.1-1-.3-1.3-.3-.3-.6-.5-1-.5s-.8.2-1 .5c-.3.3-.5.7-.5 1.3v3.4c0 .6.2 1 .4 1.4.3.3.6.4 1 .4s.8-.1 1-.4c.3-.3.4-.8.4-1.4zm6.3 2.2v-5.6c0-1.2-.4-1.8-1.3-1.8s-1.3.6-1.3 1.8v5.6l-.1.3h-.7l-.1-.3V405h.8v.6c.4-.5.8-.7 1.4-.7.7 0 1.2.2 1.6.7.4.5.6 1.2.6 2.3v5.5H35v-.3zm5-10.7c-.5 0-.9.1-1 .4a4 4 0 0 0-.3 1.7v.7l.2.1h.7l.3.1v.7h-1l-.2.2v7.1h-.8v-7.1l-.2-.1-.3-.1v-.7h.3l.2-.2v-1.5a6.3 6.3 0 0 1 .3-1.3v-.1l.2-.2.2-.2h.1c.3-.3.7-.3 1.3-.3h.2l.1.3v.4H40zm1.9 1.8c-.3 0-.4-.1-.5-.3v-.5c0-.2.2-.3.5-.3.2 0 .3 0 .4.3v.5c0 .2-.2.3-.4.3zm.4 1v8.2h-.8V405h.7v.3zm4.1.5c-.8 0-1.2.5-1.3 1.5v.3h-.8v-.2c0-.7.2-1.2.5-1.7s.9-.7 1.6-.7c1.5 0 2.3 1 2.3 3v4.2l.1 1c0 .2 0 .4-.3.4h-.3c-.2 0-.2 0-.3-.2l-.1-.4c-.4.4-1 .6-1.6.6a2 2 0 0 1-1.5-.6c-.4-.4-.6-1-.6-1.6v-.6c0-.5.1-.9.4-1.2.2-.4.5-.6.9-.8l1-.4 1-.4c.3-.1.4-.4.4-.6 0-.5-.1-.8-.4-1.1-.2-.3-.5-.5-1-.5zm.1 7c.5 0 .8-.2 1-.4.2-.3.3-.7.3-1.2v-2.6l-.9.4-.8.3c-.8.4-1.2 1-1.1 1.8 0 1.2.5 1.8 1.5 1.7zm7.7.4v-5.6c0-1.2-.5-1.8-1.4-1.8-.9 0-1.3.6-1.3 1.8v5.9h-.8V405h.7l.1.3v.3c.3-.5.8-.7 1.4-.7a2 2 0 0 1 1.6.7c.3.5.5 1.2.5 2.3v5.5h-.8v-.3zm4.9.4a2 2 0 0 1-1.7-.7c-.4-.5-.6-1.3-.6-2.3V408c0-1 .2-1.8.6-2.3s1-.7 1.7-.7c.8 0 1.3.2 1.7.7.3.5.5 1 .5 1.7v.2h-.7l-.1-.3c0-.5-.2-.8-.4-1.1-.3-.3-.6-.4-1-.4s-.8.2-1 .5c-.3.3-.4.7-.4 1.3v3.4c0 .6.1 1 .4 1.4.2.3.6.4 1 .4s.7-.1 1-.4l.4-1v-.4h.8v.2c0 .6-.2 1.2-.5 1.7-.4.5-1 .7-1.7.7zm3.9-3V408c0-1 .2-1.8.6-2.3s1-.7 1.7-.7 1.3.2 1.7.7.6 1.3.6 2.3v1.2H64v1.8c0 .6 0 1 .3 1.4.2.3.6.4 1 .4s.7-.1 1-.4c.2-.3.4-.6.4-1v-.4h.8v.2c0 .6-.2 1.2-.5 1.7-.4.5-1 .7-1.7.7a2 2 0 0 1-1.7-.7c-.4-.5-.6-1.3-.6-2.3zm1-3v.8h2.7v-.8c0-.6-.1-1-.4-1.4-.2-.3-.6-.4-1-.4s-.8.1-1 .5c-.3.2-.4.7-.4 1.3z"/><path fill="#002CFF" fill-rule="evenodd" d="M259.1 293.6v-19.1c0-.2.2-.3.4-.3h2l.1-.2v-13.6c0-.7 0-1.3.2-2 .4-1.6 1.2-3 2.3-4.1a11 11 0 0 1 10.2-3.4 11.3 11.3 0 0 1 6.8 3.8 9 9 0 0 1 2 5.7v7.5h-3.4l-.1-.1v-2.2l1.1-.6h.2l-.2-.2-1-.6-.1-.2v-3.7c0-.4 0-.8-.2-1.2a6 6 0 0 0-2.2-3.4 7.5 7.5 0 0 0-4.3-1.6 7.8 7.8 0 0 0-6.1 2.4 5.7 5.7 0 0 0-1.6 4V274l.2.1h19.9c.3 0 .4.2.4.4v18.9c0 .2-.1.3-.4.3h-25.8c-.2 0-.3 0-.4-.2z" clip-rule="evenodd"/><g fill="#002CFF"><path d="M268.8 519.6a4.6 4.6 0 1 0 6.4 6.4 4.6 4.6 0 0 0-6.4-6.4zm6.3 3c-.4.4-1.3 0-2.2-.8-.8-.8-1.2-1.8-.8-2.1.4-.4 1.4 0 2.2.8.8.8 1.2 1.8.8 2.2z"/><path d="M301 524.8l-1-1.3a42 42 0 0 0-19.7-14.6 28.6 28.6 0 0 0-14-.7 40.9 40.9 0 0 0-21.7 14.5l-1 1.3-.6.8v.1l.5.3 1.4 1.2a50.9 50.9 0 0 0 11.6 7l1.7.8a52.3 52.3 0 0 1-11-9.3 98.7 98.7 0 0 1 14-7.5l1.5-.5a11 11 0 1 0 18.6 0 44.4 44.4 0 0 1 10.1 4.7c1.9 1 3.7 2.1 5.4 3.3a51 51 0 0 1-11 9.3 52.4 52.4 0 0 0 14.8-9l.3-.3zm-29 5.5a7.5 7.5 0 1 1 0-15 7.5 7.5 0 0 1 0 15z"/></g><path fill="#002CFF" d="M176.1 211.6h10.5v19.9h-10.5z"/><path fill="#002CFF" d="M181.4 198.2l7.7 18.9-7.7-4.5-7.7 4.5zm-5.3-110.5h10.5v19.9h-10.5z"/><path fill="#002CFF" d="M181.4 74.3l7.7 18.9-7.7-4.5-7.7 4.5zM176.1 333h10.5v19.9h-10.5z"/><path fill="#002CFF" d="M181.4 319.6l7.7 18.9-7.7-4.5-7.7 4.5zm-5.3 136.6h10.5v19.9h-10.5z"/><path fill="#002CFF" d="M181.4 442.8l7.7 18.9-7.7-4.5-7.7 4.5z"/><path fill="#002CFF" stroke="#41D5CF" stroke-miterlimit="10" stroke-width="5" d="M225.8 395.7a44.5 44.5 0 1 1-89 0 44.5 44.5 0 0 1 89 0zm0 120a44.5 44.5 0 1 1-89-.1 44.5 44.5 0 0 1 89 0zm0-242.1a44.5 44.5 0 1 1-89-.1 44.5 44.5 0 0 1 89 0zM137 151.3a44.5 44.5 0 1 1 88.9 0 44.5 44.5 0 0 1-89 0z"/><path fill="#FFF" d="M168.1 133h-3.6v-11.2h.7v10l.1.3h2.8l.3.1v.6l-.3.1zm1.6-2.7v-2.5c0-1 .2-1.7.5-2.2a2 2 0 0 1 1.6-.7 2 2 0 0 1 1.6.7c.4.5.6 1.2.6 2.2v.8l-.1.3h-3.4v1.8c0 .6.1 1 .3 1.3.3.3.6.4 1 .4s.7-.1 1-.4c.1-.2.3-.6.3-1v-.3h.7l.1.2a3 3 0 0 1-.5 1.6c-.4.4-.9.7-1.6.7a2 2 0 0 1-1.6-.7 4 4 0 0 1-.5-2.1zm.8-2.9v.7h2.6v-.7c0-.6-.1-1-.3-1.3-.3-.2-.6-.4-1-.4s-.7.2-1 .4c-.2.3-.3.7-.3 1.3zm10.5-4.8c-.6 0-.9.1-1 .4-.2.3-.2.8-.2 1.6v.6l.1.2h.9v.7h-.8l-.1.2v6.4l-.1.2-.3.1h-.4v-6.7l-.2-.2h-.3v-.7h.3l.1-.2v-1.4a6 6 0 0 1 .3-1.2l.1-.1.1-.1.1-.1.1-.1.1-.1c.3-.2.7-.3 1.2-.3h.3v.7h-.3zm3.3 3.1c-.8 0-1.2.5-1.3 1.4v.3h-.7v-.2c0-.6 0-1.1.4-1.6a2 2 0 0 1 1.6-.7c1.4 0 2 1 2 2.9v4c0 .1 0 .5.2.9 0 .2 0 .3-.3.3h-.5l-.2-.5a2 2 0 0 1-1.4.6 2 2 0 0 1-1.5-.6c-.4-.3-.5-.9-.5-1.6v-.5c0-.4 0-.8.3-1.1.3-.3.5-.6.9-.7l1-.4.9-.4.3-.6c0-.4-.1-.8-.3-1-.2-.3-.5-.5-1-.5zm0 6.6c.4 0 .7-.2 1-.4l.2-1.1v-2.4a9 9 0 0 1-.8.3l-.7.3c-.8.4-1.2 1-1.1 1.7 0 1.2.5 1.7 1.5 1.6zm4.3-8c-.2 0-.3-.1-.4-.3v-.5c0-.2.2-.2.4-.2s.4 0 .4.2v.5c0 .2-.2.3-.4.3zm.4 1v7.7l-.3.1h-.4l-.1-.3v-7.6h.8v.2zm4 .7l-.4-.2c-.4 0-.6.2-.7.6l-.1 1v5.3l-.1.2-.2.1h-.5v-7.9h.7v.4a2 2 0 0 1 1.2-.5h.3v1h-.2zm1.2 4.3v-2.5c0-1 .1-1.7.5-2.2a2 2 0 0 1 1.6-.7 2 2 0 0 1 1.6.7c.4.5.5 1.2.5 2.2v1.1H195v1.8c0 .6.1 1 .3 1.3.3.3.6.4 1 .4s.7-.1 1-.4c.1-.2.3-.6.3-1v-.3h.7l.1.2a3 3 0 0 1-.5 1.6c-.4.4-.9.7-1.6.7a2 2 0 0 1-1.6-.7 4 4 0 0 1-.5-2.1zm.8-2.9v.7h2.6v-.7c0-.6-.1-1-.3-1.3-.3-.2-.6-.4-1-.4s-.7.2-1 .4c-.2.3-.3.7-.3 1.3zM158.2 148l-.4-.2c-.3 0-.5.2-.7.6v6.3l-.1.2-.3.1h-.4v-7.9h.7v.4a2 2 0 0 1 1.2-.5h.3v1h-.3zm1.2 4.3v-2.5c0-1 .2-1.7.6-2.2a2 2 0 0 1 1.6-.7 2 2 0 0 1 1.5.7c.4.5.6 1.2.6 2.2v1.1h-3.5v1.8c0 .6 0 1 .3 1.3.3.3.6.4 1 .4s.7-.1.9-.4c.2-.2.3-.6.4-1v-.3h.7v.2c0 .6-.1 1.1-.5 1.6-.3.4-.8.7-1.5.7a2 2 0 0 1-1.6-.7c-.4-.5-.6-1.2-.6-2.1zm.9-2.9v.7h2.5v-.7c0-.6 0-1-.3-1.3-.2-.2-.5-.4-1-.4-.3 0-.7.2-.9.4-.2.3-.3.7-.3 1.3zm1.3-3.2l-.2-.1v-1.9h.8v.3l-.3 1.5v.2h-.3zm5.9-1.6c-.5 0-.8.1-1 .4l-.2 1.6v.6c0 .1 0 .2.2.2h.9v.7h-.9l-.2.2v6.6l-.3.1h-.4l-.1-.3v-6.4c0-.1 0-.2-.2-.2h-.2l-.1-.3v-.4h.3c.1 0 .2 0 .2-.2v-1.4a6 6 0 0 1 .3-1.2v-.1l.2-.1v-.1l.2-.1.1-.1c.2-.2.6-.3 1.2-.3h.2v.7h-.2zm2.7 9.6l.2.1v.6l-.2.1c-.6 0-1-.2-1.2-.6l-.2-1v-9.5h.7v8.7l.1 1.1c.1.4.3.5.6.5zm1.6-1.9v-2.5c0-1 .1-1.7.5-2.2a2 2 0 0 1 1.6-.7 2 2 0 0 1 1.6.7c.3.5.5 1.2.5 2.2v1.1h-3.4v1.8c0 .6.1 1 .3 1.3.3.3.6.4 1 .4s.7-.1 1-.4c.1-.2.3-.6.3-1v-.3h.7v.2c0 .6-.1 1.1-.5 1.6-.3.4-.8.7-1.5.7a2 2 0 0 1-1.6-.7c-.4-.5-.5-1.2-.5-2.1zm.8-2.9v.7h2.6v-.7c0-.6-.1-1-.3-1.3-.3-.2-.6-.4-1-.4s-.7.2-1 .4c-.2.3-.3.7-.3 1.3zm1.4-3.2h-.1l-.2-.1v-1.6l.1-.3h.7v.3l-.3 1.5v.2h-.2zm5.8 8.8a2 2 0 0 1-1.6-.6c-.4-.5-.6-1.2-.6-2.1v-2.5c0-1 .2-1.7.6-2.2a2 2 0 0 1 1.6-.7c.7 0 1.2.3 1.5.7.4.5.6 1 .6 1.6v.2h-.8v-.3c0-.4-.2-.8-.4-1-.2-.3-.5-.4-1-.4-.3 0-.6.2-.9.4-.2.3-.3.7-.3 1.3v3.2c0 .6 0 1 .3 1.3.3.3.6.4 1 .4s.7-.1.9-.4c.2-.2.3-.6.4-1v-.3h.7v.2c0 .6-.1 1.1-.5 1.6-.3.4-.8.7-1.5.7zm7.2-.3v-5.3c0-1.1-.4-1.7-1.3-1.7s-1.2.6-1.2 1.7v5.3l-.1.2-.2.1h-.5v-11.2h.7v3.7c.4-.4.8-.6 1.4-.7.6 0 1 .2 1.5.7.3.5.5 1.2.5 2.2v5.2l-.3.1h-.5v-.3zm3-8.4l-.4-.3v-.5c.1-.2.3-.2.5-.2s.3 0 .4.2v.5c0 .2-.2.3-.4.3zm.5 1v7.4l-.1.2-.2.1h-.5v-7.9h.7v.2zm3.9.7l-.4-.2c-.3 0-.6.2-.7.6v6.3l-.2.2-.2.1h-.4l-.1-.3v-7.6h.8v.4c.4-.3.7-.5 1.2-.5h.3v1h-.3zm6.9-.3c-.8 0-1.2.5-1.3 1.4v.3h-.7v-.2c0-.6.1-1.1.5-1.6.3-.4.8-.7 1.5-.7 1.4 0 2 1 2 2.9v4l.2.9c0 .2 0 .3-.3.3h-.5l-.1-.5a2 2 0 0 1-1.5.6 2 2 0 0 1-1.5-.6c-.3-.3-.5-.9-.5-1.6v-.5c0-.4.1-.8.4-1.1.2-.3.5-.6.8-.7l1-.4.9-.4.3-.6c0-.4 0-.8-.3-1-.2-.3-.5-.5-1-.5zm0 6.6c.5 0 .8-.2 1-.4.2-.2.3-.6.3-1.1v-2.4a9 9 0 0 1-.8.3l-.8.3c-.8.4-1.1 1-1 1.7 0 1.2.4 1.7 1.4 1.6zm0-8l-.2-.1v-.2l-.4-1.5c0-.2 0-.3.3-.3h.1c.3 0 .4 0 .4.3v1.6l-.1.1zm-47.8 23v5.3c0 1.1.4 1.7 1.3 1.7s1.2-.6 1.2-1.7v-5.3l.1-.2h.7v7.8l-.3.1h-.4v-.6c-.4.4-.8.7-1.4.7-.6 0-1.1-.2-1.5-.7s-.5-1.2-.5-2.1v-5.2h.8v.2zm8.6 7.4v-5.3c0-1.1-.4-1.7-1.2-1.7s-1.3.6-1.3 1.7v5.5l-.3.1h-.5v-7.9h.7l.1.2v.3c.3-.4.7-.6 1.3-.7.6 0 1.1.2 1.5.7.4.5.5 1.2.5 2.2v5.1l-.3.1h-.4l-.1-.3zm2.5-2.4v-2.5c0-1 .2-1.7.6-2.2a2 2 0 0 1 1.6-.7 2 2 0 0 1 1.5.7c.4.5.6 1.2.6 2.2v1.1h-3.5v1.8c0 .6 0 1 .3 1.3.2.3.6.4 1 .4.3 0 .6-.1.9-.4.2-.2.3-.6.4-1v-.3h.7v.2c0 .6-.1 1.1-.5 1.6-.3.4-.8.7-1.5.7a2 2 0 0 1-1.6-.7c-.4-.5-.6-1.2-.6-2.1zm.8-2.9v.7h2.6v-.7c0-.6 0-1-.3-1.3-.2-.2-.5-.4-1-.4-.3 0-.7.2-.9.4-.2.3-.4.7-.4 1.3zm12-.6v.2h-.5c-.2 0-.2 0-.3-.2 0-.3-.1-.5-.3-.8s-.5-.3-.8-.3-.5.1-.7.3-.3.5-.3.8l.3.8.8.8 1 .7c.3.2.5.5.7.9s.4.7.3 1a2 2 0 0 1-2.1 2.1 2 2 0 0 1-1.5-.6 2 2 0 0 1-.6-1.5v-.2l.3-.1h.2c.2 0 .3.1.3.3 0 .4.2.7.4 1s.6.3 1 .3a1.3 1.3 0 0 0 1.2-1.3c0-.4-.2-.7-.5-1l-1-1a5 5 0 0 1-1.1-1 2 2 0 0 1-.5-1.2c0-.5.1-1 .5-1.3.4-.4.8-.6 1.3-.6s1 .2 1.3.5c.4.4.6.8.6 1.4zm1.6 3.5v-2.5c0-1 .1-1.7.5-2.2a2 2 0 0 1 1.6-.7 2 2 0 0 1 1.5.7c.4.5.6 1.2.6 2.2v2.5c0 .9-.2 1.6-.6 2a2 2 0 0 1-1.5.8 2 2 0 0 1-1.6-.7c-.4-.5-.6-1.2-.6-2.1zm3.4.3v-3.2c0-.6-.1-1-.4-1.3-.2-.2-.5-.4-1-.4-.3 0-.6.2-.9.4-.2.3-.3.7-.3 1.3v3.2c0 .6 0 1 .3 1.3.3.3.6.4 1 .4s.7-.1 1-.4c.2-.3.3-.7.3-1.3zm3.9 1.6l.3.1v.6l-.3.1c-.6 0-1-.2-1.1-.6-.2-.3-.2-.6-.3-1v-9.5h.8v8.7l.1 1.1c0 .4.2.5.5.5zm2.5-6.9v5.3c0 1.1.4 1.7 1.3 1.7s1.2-.6 1.2-1.7v-5.5h.8v7.8l-.3.1h-.4v-.6c-.4.4-.8.7-1.4.7-.6 0-1.1-.2-1.5-.7s-.5-1.2-.5-2.1v-5.2h.7l.1.2zm6.1-1.7v1.6c0 .1 0 .2.2.2h.5v.7h-.5l-.2.2v5.4c.1.4.3.5.6.5l.2.1.1.3v.3l-.3.1c-.6 0-1-.2-1.2-.6l-.2-1v-5.1l-.2-.1-.2-.1-.1-.3v-.3l.3-.1c.1 0 .2 0 .2-.2v-1.8l.3-.1h.4l.1.3zm2.8.7a.5.5 0 0 1-.5-.3v-.5c.1-.2.3-.2.5-.2s.3 0 .4.2v.5c0 .2-.2.3-.4.3zm.4 1v7.4l-.1.2-.2.1h-.5v-7.9h.7v.2zm1.7 5v-2.5c0-1 .2-1.7.6-2.2a2 2 0 0 1 1.6-.7 2 2 0 0 1 1.5.7c.4.5.6 1.2.6 2.2v2.5c0 .9-.2 1.6-.6 2a2 2 0 0 1-1.5.8 2 2 0 0 1-1.6-.7c-.4-.5-.6-1.2-.6-2.1zm3.5.3v-3.2c0-.6-.1-1-.4-1.3-.2-.2-.5-.4-1-.4-.3 0-.7.2-.9.4-.2.3-.3.7-.3 1.3v3.2c0 .6 0 1 .3 1.3.2.3.6.4 1 .4s.7-.1 1-.4c.2-.3.3-.7.3-1.3zm5.9 2.1v-5.3c0-1.1-.4-1.7-1.2-1.7s-1.3.6-1.3 1.7v5.5l-.3.1h-.4l-.1-.3v-7.6h.7l.1.2v.3c.3-.4.7-.6 1.3-.7.6 0 1.1.2 1.5.7.4.5.5 1.2.5 2.2v5.1l-.3.1h-.4v-.3zm-51.4 76.2h-1.2v4.9h-.8v-11l.3-.1h1.8c.7 0 1.3.2 1.8.7.4.4.6 1.1.6 2v.7c0 1.2-.3 2-1 2.4l1 5.1v.2h-.7l-.1-.2-1-4.6v-.1h-.7zm-1.2-5.1v4.3h1.3c.4 0 .8-.2 1.1-.5.3-.3.5-.8.5-1.5v-.7c0-.6-.2-1.1-.5-1.5-.3-.3-.7-.4-1.2-.4h-1.2v.3zm5.4 7.3v-2.5c0-1 .1-1.6.5-2a2 2 0 0 1 1.6-.8 2 2 0 0 1 1.5.7c.4.5.6 1.2.6 2.1v1.1l-.3.1h-3.1v1.7c0 .5 0 1 .3 1.3.2.2.6.4 1 .4.3 0 .6-.1.9-.4.2-.2.3-.6.4-1v-.3l.2-.1h.5v.3c0 .6-.1 1.1-.5 1.6-.3.4-.8.6-1.5.6a2 2 0 0 1-1.6-.6c-.4-.5-.6-1.2-.6-2.2zm.7-2.8v.7h2.6v-.7c0-.6 0-1-.3-1.3-.2-.3-.5-.4-1-.4-.4 0-.7.1-1 .4-.1.3-.3.7-.3 1.3zm7.3-4.8c-.5 0-.8.1-1 .4l-.2 1.5v.7c0 .1 0 .2.2.2h.8l.1.3v.3l-.3.1h-.6c-.2 0-.2 0-.2.2v6.6h-.8v-6.6c0-.1 0-.2-.2-.2h-.2l-.1-.3v-.4h.3l.2-.2v-1.4a6 6 0 0 1 .3-1.2v-.1l.1-.2h.1l.2-.2c.2 0 0 0 0 0 .3-.2.7-.3 1.2-.3h.3v.7h-.3zm1.1 7.6v-2.5c0-1 .2-1.6.6-2a2 2 0 0 1 1.6-.8 2 2 0 0 1 1.6.7c.3.5.5 1.2.5 2.1v2.5c0 1-.2 1.7-.5 2.2a2 2 0 0 1-1.6.6 2 2 0 0 1-1.6-.6c-.4-.5-.6-1.2-.6-2.2zm3.5.4v-3.2c0-.6-.1-1-.4-1.3-.2-.3-.5-.4-1-.4-.3 0-.6.1-.9.4-.2.3-.3.7-.3 1.3v3.2c0 .5 0 1 .3 1.3.3.2.6.4 1 .4s.7-.2 1-.4c.2-.3.3-.8.3-1.3zm4.6-4.7h-.4c-.3 0-.6 0-.7.4v6.4l-.1.2h-.7l-.1-.2V250l.3-.1h.5v.5c.4-.3.7-.5 1.2-.5h.3v1h-.3zm5.8 1.5v5.5h-.7v-5.5c0-1.1-.5-1.7-1.3-1.7s-1.3.6-1.3 1.7v5.5h-.7l-.1-.2V250l.3-.1h.4l.1.3v.3c.3-.4.8-.7 1.3-.7.8 0 1.4.3 1.7 1 .4-.6 1-1 1.6-1 .7 0 1.2.2 1.5.7.4.4.6 1.2.6 2.1v5.2h-.8v-5.5c0-1.1-.5-1.7-1.3-1.7s-1.3.6-1.3 1.7zm6-2.1v5.3c0 1.1.4 1.7 1.2 1.7s1.3-.6 1.3-1.7V250l.3-.1h.4v7.9h-.7v-.5c-.3.4-.8.6-1.3.6-.7 0-1.2-.2-1.5-.6s-.6-1.2-.6-2.2v-4.9l.1-.2.3-.1h.4v.3zm6.5 6.9h.3v.7h-.3c-.5 0-1-.1-1.1-.5l-.2-1v-9.5l.3-.1h.4v8.8l.1 1.1c.1.3.3.5.5.5zm1.6-2v-2.5c0-1 .2-1.6.6-2a2 2 0 0 1 1.6-.8 2 2 0 0 1 1.6.7c.3.5.5 1.2.5 2.1v1.1l-.3.1H200v1.7c0 .5 0 1 .3 1.3.3.2.6.4 1 .4s.7-.1.9-.4c.2-.2.4-.6.4-1v-.3l.2-.1h.5v.3c0 .6-.1 1.1-.5 1.6-.3.4-.8.6-1.5.6a2 2 0 0 1-1.6-.6c-.4-.5-.6-1.2-.6-2.2zm.9-2.8v.7h2.6v-.7c0-.6-.1-1-.4-1.3-.2-.3-.5-.4-1-.4-.3 0-.6.1-.9.4-.2.3-.3.7-.3 1.3zm7.2-1.5h-.4c-.3 0-.6 0-.7.4v6.4l-.1.2h-.7l-.1-.2V250l.3-.1h.5v.5c.4-.3.7-.5 1.2-.5h.3v1h-.3zm-44.1 28.3h.3v.7h-.3c-.6 0-1-.1-1.1-.5-.2-.3-.2-.7-.3-1v-9.5l.3-.1h.5v8.8l.1 1.1c0 .3.2.5.5.5zm3.8-6.5c-.8 0-1.2.5-1.3 1.4v.3h-.7v-.2c0-.6 0-1.2.4-1.6.3-.5.9-.7 1.6-.7 1.4 0 2 1 2 2.8v4l.2 1c0 .2 0 .3-.3.3h-.3l-.2-.1-.2-.4a2 2 0 0 1-1.4.5 2 2 0 0 1-1.5-.5c-.4-.4-.5-.9-.5-1.6v-.5c0-.4 0-.8.3-1.2.3-.3.5-.5.9-.6l1-.4.9-.5c.2-.1.3-.3.3-.5 0-.4-.1-.8-.3-1-.2-.4-.5-.5-1-.5zm0 6.6c.4 0 .7-.2 1-.4l.2-1.2v-2.3a9 9 0 0 1-.8.3l-.7.3c-.8.3-1.2 1-1.1 1.7 0 1.1.5 1.6 1.5 1.6zm9.1.8a2 2 0 0 1-1.6-.7c-.4-.5-.6-1.2-.6-2.2v-2.5c0-1 .2-1.6.6-2a2 2 0 0 1 1.6-.8c.7 0 1.2.2 1.5.7.4.5.6 1 .6 1.6v.2h-.7l-.1-.3c0-.4-.2-.8-.4-1-.2-.3-.5-.4-1-.4-.3 0-.6.1-.9.4-.2.3-.3.7-.3 1.3v3.2c0 .5.1 1 .3 1.3.3.2.6.4 1 .4s.7-.1.9-.4c.2-.2.4-.6.4-1v-.3l.2-.1h.5v.3c0 .6-.1 1-.5 1.6-.3.4-.8.6-1.5.6zm5.8-7.4c-.7 0-1.1.5-1.2 1.4v.3h-.8v-.2c0-.6.2-1.2.5-1.6.3-.5.8-.7 1.5-.7 1.4 0 2.1 1 2.1 2.8v4l.2 1c0 .2-.1.3-.4.3h-.2l-.3-.1v-.4a2 2 0 0 1-1.6.5 2 2 0 0 1-1.4-.5c-.4-.4-.6-.9-.6-1.6v-.5c0-.4.2-.8.4-1.2.2-.3.5-.5.9-.6l1-.4.8-.5c.3-.1.4-.3.4-.5 0-.4-.1-.8-.3-1-.2-.4-.6-.5-1-.5zm.1 6.6c.4 0 .7-.2 1-.4l.2-1.2v-2.3a9 9 0 0 1-.8.3l-.8.3c-.7.3-1.1 1-1 1.7 0 1.1.5 1.6 1.4 1.6zm4.6-7v5.3c0 1.1.4 1.7 1.3 1.7s1.2-.6 1.2-1.7V272l.3-.1h.5v7.9h-.7v-.5c-.4.4-.8.6-1.4.6-.6 0-1.1-.2-1.5-.6s-.5-1.2-.5-2.2V272l.3-.1h.4l.1.3zm8.8 1.4v.3h-.5c-.2 0-.3 0-.3-.2 0-.3-.1-.6-.3-.8s-.5-.3-.8-.3-.5 0-.7.3l-.3.7c0 .3 0 .6.3.9l.8.7 1 .8.7.8c.2.3.3.7.3 1.1 0 .6-.2 1-.6 1.5-.4.4-1 .5-1.5.5a2 2 0 0 1-1.5-.5 2 2 0 0 1-.6-1.5v-.3h.5c.2 0 .3 0 .3.3 0 .4.2.7.4 1s.6.3.9.3a1.3 1.3 0 0 0 1.3-1.3c0-.4-.2-.7-.5-1l-1-1a5 5 0 0 1-1.2-1 2 2 0 0 1-.5-1.2c0-.5.2-1 .6-1.3.3-.4.8-.6 1.3-.6s1 .2 1.3.5c.4.3.6.8.6 1.3zm1.5 3.5v-2.5c0-1 .2-1.6.6-2a2 2 0 0 1 1.6-.8 2 2 0 0 1 1.5.7c.4.5.6 1.2.6 2.1v1.1l-.3.1h-3.1v1.7c0 .5 0 1 .3 1.3.2.2.6.4 1 .4s.7-.1.9-.4c.2-.2.3-.6.4-1v-.3l.2-.1h.5v.3c0 .6-.1 1-.5 1.6-.3.4-.8.6-1.5.6a2 2 0 0 1-1.6-.6c-.4-.5-.6-1.2-.6-2.2zm.9-2.8v.7h2.5v-.7c0-.6 0-1-.3-1.3-.2-.3-.5-.4-1-.4-.3 0-.7.1-.9.4-.2.3-.3.7-.3 1.3zM161 295.6l-.1.3h-.4c-.2 0-.3 0-.3-.2 0-.3-.2-.6-.4-.8s-.4-.3-.7-.3-.6 0-.8.3l-.3.7c0 .3.1.6.4.9.2.2.4.5.8.7l.9.8.8.8c.2.4.3.7.3 1.1 0 .6-.3 1-.7 1.5-.4.4-.9.5-1.5.5a2 2 0 0 1-1.4-.5 2 2 0 0 1-.7-1.5l.1-.3h.4c.2 0 .3 0 .3.3 0 .4.2.7.5 1 .2.2.5.3.8.3a1.3 1.3 0 0 0 1.3-1.3c0-.4-.1-.7-.5-1l-1-1a5 5 0 0 1-1.1-1 2 2 0 0 1-.5-1.2c0-.5.2-1 .5-1.3.4-.4.8-.6 1.3-.6s1 .2 1.4.5c.3.3.5.8.5 1.3zm3.6-1c-.7 0-1.1.5-1.2 1.4l-.1.3h-.7v-.2c0-.6.2-1.1.5-1.6s.8-.7 1.5-.7c1.4 0 2.1 1 2.1 2.8v4l.1 1c.1.2 0 .3-.3.3h-.2l-.3-.1-.1-.4a2 2 0 0 1-1.5.5c-.6 0-1-.1-1.4-.5s-.6-.9-.6-1.6v-.5c0-.4.1-.8.4-1.2l.8-.7 1-.3 1-.5c.1-.1.3-.3.3-.5 0-.4-.1-.8-.3-1-.3-.4-.6-.5-1-.5zm.1 6.6c.4 0 .7-.2.9-.4s.3-.6.3-1.2v-2.3l-.8.3-.8.3c-.8.3-1.1 1-1 1.7 0 1.1.4 1.6 1.4 1.6zm7.2.4v-5.3c0-1.1-.4-1.7-1.3-1.7s-1.2.6-1.2 1.7v5.5h-.8V294l.3-.1h.4v.6c.4-.4.8-.7 1.4-.7.6 0 1.1.2 1.5.7.3.4.5 1.2.5 2.1v5.2h-.7l-.1-.2zm6.1-6v.3h-.4c-.2 0-.3 0-.3-.2 0-.3-.1-.6-.3-.8s-.5-.3-.8-.3-.5 0-.7.3l-.3.7c0 .3 0 .6.3.9l.8.7 1 .8.7.8c.2.4.3.7.3 1.1 0 .6-.2 1-.6 1.5-.5.4-1 .5-1.5.5a2 2 0 0 1-1.5-.5 2 2 0 0 1-.6-1.5v-.3h.5c.1 0 .3 0 .3.3 0 .4.2.7.4 1 .2.2.5.3.9.3a1.3 1.3 0 0 0 1.3-1.3c0-.4-.2-.7-.5-1l-1.1-1a5 5 0 0 1-1-1 2 2 0 0 1-.6-1.2c0-.5.2-1 .6-1.3.3-.4.8-.6 1.3-.6s1 .2 1.3.5c.3.3.5.8.6 1.3zm4.3 8.4c.2 0 .4-.2.5-.4l.2-1.3V294l.3-.1h.4l.1.3v7.4l-.1 2.1c-.2.7-.7 1-1.4 1h-.3v-.6l.3-.1zm.7-11c-.1-.1-.2-.3-.1-.5l.4-.3.4.1c.2.1.2.3.2.5s-.2.3-.4.3h-.5zm3.5 1.2v5.3c0 1.1.4 1.7 1.2 1.7s1.3-.6 1.3-1.7V294l.3-.1h.4l.1.3v7.6h-.7l-.1-.2v-.3c-.3.4-.8.6-1.3.6-.6 0-1.1-.2-1.5-.6s-.5-1.2-.5-2.2V294l.3-.1h.4v.3zm8.5 8.1v-1c-.4.4-.8.6-1.4.6a2 2 0 0 1-1.5-.6c-.3-.5-.5-1.2-.5-2.2v-2.5c0-1 .2-1.7.5-2.1.4-.5.9-.7 1.5-.7s1 .3 1.3.7v-.5l.3-.1h.5v8.1c0 1-.1 1.7-.5 2.1a2 2 0 0 1-1.6.7c-1 0-1.7-.5-2-1.5 0-.2 0-.3.2-.3l.3-.1c.1 0 .2 0 .3.2.2.6.6 1 1.2 1 .4 0 .7-.2 1-.5s.3-.7.3-1.3zm-2.6-6v3.2c0 1.1.4 1.7 1.3 1.7.8 0 1.2-.6 1.2-1.7v-3.2c0-1.1-.4-1.7-1.2-1.7-.9 0-1.3.6-1.3 1.7zm5.1 2.8v-2.5c0-1 .2-1.6.6-2a2 2 0 0 1 1.5-.8 2 2 0 0 1 1.6.7c.4.5.6 1.2.6 2.1v1.1l-.3.1h-3.1v1.7c0 .5 0 1 .3 1.3.2.2.5.4 1 .4.3 0 .6-.1.9-.4.2-.2.3-.6.3-1l.1-.3.2-.1h.5v.3c0 .6-.2 1-.5 1.6-.3.4-.9.6-1.6.6a2 2 0 0 1-1.5-.6c-.4-.5-.6-1.2-.6-2.2zm.8-2.8v.7h2.7v-.7c0-.6 0-1-.3-1.3-.2-.3-.6-.4-1-.4s-.7.1-1 .4c-.2.3-.3.7-.3 1.3zm7.3-1.5h-.4c-.4 0-.6 0-.7.4l-.1 1.1v5.3l-.1.2h-.7V294l.3-.1h.4v.5a2 2 0 0 1 1.2-.5h.3v1h-.2zM165 499h-3.2c-.2 0-.2-.1-.3-.2v-11h3.7l.1.2v.4h-2.8l-.3.1v4.1h2.9l.1.3v.4h-2.7l-.3.1v4.7h2.8l.2.1.1.3v.3l-.3.1zm3.7-3.1l-1.2 2.7-.2.3h-.4c-.2 0-.3-.1-.2-.3l1.6-3.7-1.6-3.7c-.1-.2 0-.3.2-.3h.5l.1.3 1.2 2.7 1.1-2.7.2-.2h.5c.2 0 .3 0 .2.2L169 495l1.6 3.7c0 .2 0 .3-.2.3h-.5l-.1-.3-1.2-2.7zm3.3 5.6V491h.7v.5c.4-.4.8-.6 1.3-.7.7 0 1.2.2 1.6.7.3.5.5 1.2.5 2.2v2.5c0 1-.2 1.6-.5 2.1a2 2 0 0 1-1.6.7c-.5 0-1-.3-1.2-.7v3.2l-.1.2h-.7v-.2zm3.3-5v-3.2c0-1.1-.5-1.7-1.3-1.7s-1.2.6-1.2 1.7v3.2c0 1.1.4 1.7 1.2 1.7s1.3-.6 1.3-1.7zm4.6-4.7h-.4c-.4 0-.6.1-.7.5l-.1 1v5.5l-.3.1h-.5V491h.7v.4a2 2 0 0 1 1.2-.5h.3v1h-.2zm2.1-1.6c-.2 0-.4 0-.5-.3v-.5l.5-.2c.2 0 .3 0 .4.2v.5c0 .2-.2.3-.4.3zm.4 1v7.6l-.3.1h-.5V491h.7v.2zm6.1 2.1v5.3l-.1.2-.3.1h-.4v-5.6c0-1.1-.5-1.7-1.3-1.7s-1.3.6-1.3 1.7v5.5l-.3.1h-.4V491h.7v.5a2 2 0 0 1 1.3-.7c.8 0 1.4.3 1.7 1 .4-.6 1-1 1.6-1 .7 0 1.2.2 1.5.7.4.5.6 1.2.6 2.2v5.1l-.3.1h-.5v-5.6c0-1.1-.5-1.7-1.3-1.7s-1.2.6-1.2 1.7zm5 2.9v-2.5c0-1 .2-1.7.5-2.2a2 2 0 0 1 1.6-.7 2 2 0 0 1 1.6.7c.4.5.6 1.2.6 2.2v.8l-.1.3h-3.4v1.8c0 .6.1 1 .4 1.3.2.3.5.4 1 .4.3 0 .6-.1.8-.4.3-.2.4-.6.4-1v-.3h.8v.2a3 3 0 0 1-.5 1.6c-.4.4-.9.7-1.6.7a2 2 0 0 1-1.6-.7 4 4 0 0 1-.5-2.1zm.8-2.9v.7h2.7v-.7c0-.5 0-1-.3-1.3-.3-.2-.6-.4-1-.4s-.7.2-1 .4c-.2.3-.3.8-.3 1.3zm7.2-1.5h-.3c-.4 0-.6.1-.8.5v6.3l-.1.2-.3.1h-.4V491h.7v.4a2 2 0 0 1 1.2-.5h.3v1h-.3zM168 521a2 2 0 0 1-1.6-.7c-.4-.5-.6-1.2-.6-2.1v-2.5c0-1 .2-1.7.6-2.2a2 2 0 0 1 1.5-.7 2 2 0 0 1 1.6.7c.3.5.5 1 .5 1.6v.2h-.7v-.3c-.1-.4-.2-.8-.5-1-.2-.3-.5-.4-.9-.4s-.7.2-1 .4c-.2.3-.3.7-.3 1.3v3.2c0 .6.1 1 .4 1.3.2.3.5.4 1 .4.3 0 .6-.1.9-.4.2-.2.3-.6.3-1l.1-.3h.7v.2a3 3 0 0 1-.5 1.6c-.4.5-.9.7-1.6.7zm3.6-2.8v-2.5c0-1 .2-1.7.6-2.2a2 2 0 0 1 1.6-.7 2 2 0 0 1 1.5.7c.4.5.6 1.2.6 2.2v1.1h-3.5v1.8c0 .6 0 1 .3 1.3.3.3.6.4 1 .4s.7-.1.9-.4c.2-.2.3-.6.4-1v-.3h.7v.2c0 .6-.1 1.1-.5 1.6-.3.4-.8.7-1.5.7a2 2 0 0 1-1.6-.7c-.4-.5-.6-1.2-.6-2.1zm.9-2.9v.7h2.5v-.7c0-.5 0-1-.3-1.3-.2-.2-.5-.4-1-.4-.3 0-.7.2-.9.4-.2.3-.3.8-.3 1.3zm12.4-2.1v10.5h-.8v-3.4c-.3.4-.8.7-1.3.7-.7 0-1.2-.2-1.5-.7s-.6-1.2-.6-2.1v-2.5c0-1 .2-1.7.6-2.2s.8-.7 1.5-.7c.5 0 1 .3 1.3.7v-.5h.7l.1.2zm-3.3 2.1v3.2c0 1.1.4 1.7 1.2 1.7s1.3-.6 1.3-1.7v-3.2c0-1.1-.5-1.7-1.3-1.7s-1.2.6-1.2 1.7zm6-2.1v5.3c0 1.1.4 1.7 1.2 1.7s1.3-.6 1.3-1.7V513h.7v7.8l-.2.1h-.5v-.6c-.3.4-.8.7-1.3.7-.7 0-1.2-.2-1.5-.7s-.6-1.2-.6-2.1v-5l.1-.2h.7v.2zm5.1 5v-2.5c0-1 .1-1.7.5-2.2a2 2 0 0 1 1.6-.7 2 2 0 0 1 1.6.7c.4.5.5 1.2.5 2.2v1.1h-3.4v1.8c0 .6.1 1 .3 1.3.3.3.6.4 1 .4s.7-.1 1-.4c.1-.2.3-.6.3-1v-.3h.7l.1.2a3 3 0 0 1-.5 1.6c-.4.4-1 .7-1.6.7a2 2 0 0 1-1.6-.7c-.4-.5-.5-1.2-.5-2.1zm.8-2.9v.7h2.6v-.7c0-.5-.1-1-.3-1.3-.3-.2-.6-.4-1-.4s-.7.2-1 .4c-.2.3-.3.8-.3 1.3zm-29.9 26.8l.2.1v.6l-.2.1c-.6 0-1-.2-1.2-.6l-.2-1v-9.5h.7v8.7l.1 1.1c.1.4.3.5.6.5zm1.2-9.9l.1-.3.4-.2c.2 0 .3 0 .4.2.1.2.2.4 0 .7 0 .3-.2.7-.5 1h-.2l-.1-.2.2-.5-.2-.3-.1-.4zm2.2 8v-2.5c0-1 .2-1.7.6-2.2a2 2 0 0 1 1.6-.7 2 2 0 0 1 1.5.7c.4.5.6 1.2.6 2.2v2.5c0 1-.2 1.6-.6 2a2 2 0 0 1-1.5.8 2 2 0 0 1-1.6-.7c-.4-.5-.6-1.2-.6-2.1zm3.5.3v-3.2c0-.5-.1-1-.4-1.3-.2-.2-.5-.4-1-.4-.3 0-.7.2-.9.4-.2.3-.3.7-.3 1.3v3.2c0 .6 0 1 .3 1.3.2.3.6.4 1 .4s.7-.1 1-.4c.2-.3.3-.7.3-1.3zm5.9 2.1v-5.3c0-1.1-.4-1.7-1.2-1.7s-1.3.6-1.3 1.7v5.5l-.3.1h-.4l-.1-.3V535h.7l.1.2v.3c.3-.4.7-.6 1.3-.7.6 0 1.1.2 1.5.7.4.5.5 1.2.5 2.2v5.1l-.3.1h-.4v-.3zm7.9-7c-.8 0-1.2.5-1.3 1.4v.3h-.7v-.2c0-.6.1-1.1.4-1.6.4-.4.9-.7 1.6-.7 1.4 0 2 1 2 2.9v4l.2.9c0 .2 0 .3-.3.3h-.5l-.1-.5a2 2 0 0 1-1.5.6c-.6 0-1.1-.2-1.5-.6s-.5-.9-.5-1.6v-.5c0-.4.1-.8.3-1.1.3-.3.6-.6.9-.7l1-.4.9-.4.3-.6c0-.4 0-.8-.3-1-.2-.3-.5-.5-1-.5zm0 6.6c.5 0 .8-.2 1-.4s.2-.6.2-1.1v-2.4l-.8.3-.7.3c-.8.4-1.2 1-1 1.7 0 1.2.4 1.7 1.4 1.6zm10.3-7.2h.4v.2l-1.5 7.4v.3h-1l-.1-.3-1.6-7.4v-.2h.7l.1.1 1.2 6.3h.1l1.3-6.3v-.1h.4zm2.6.2v5.3c0 1.1.4 1.7 1.2 1.7s1.3-.6 1.3-1.7V535h.7l.1.2v7.6l-.3.1h-.5v-.6c-.3.4-.8.7-1.3.7-.6 0-1.2-.2-1.5-.7s-.6-1.2-.6-2.1v-5l.1-.2h.7v.2zm-52.1-144.6h-.4v-11.1h3.7v.6h-2.6l-.3.1v4.1h2.3l.1.1v.6l-.2.1h-2.2v5.3l-.1.2h-.3zm6.6-7.3c-.7 0-1.1.5-1.2 1.4v.3l-.3.1h-.5v-.3c0-.6.2-1.1.5-1.6.3-.4.8-.6 1.5-.6 1.4 0 2.1.9 2.1 2.8v4l.2 1c0 .1 0 .2-.4.2h-.5v-.5a2 2 0 0 1-1.6.6 2 2 0 0 1-1.4-.6c-.4-.3-.6-.9-.6-1.5v-.5c0-.5.2-.9.4-1.2.2-.3.5-.6.9-.7l1-.4.8-.4c.3-.2.4-.4.4-.6 0-.4-.1-.7-.3-1-.2-.3-.5-.5-1-.5zm.1 6.6c.4 0 .7-.1 1-.4s.2-.6.2-1.1V386l-.8.3-.7.3c-.8.4-1.2 1-1.1 1.7 0 1.2.5 1.7 1.4 1.6zm4.2-7.9l-.3-.3v-.6l.4-.2c.2 0 .3 0 .4.2v.6l-.4.2zm.5 1v7.6h-.8v-7.9h.7l.1.2zm3.9.5h-.3c-.4 0-.6.1-.7.5l-.1 1v5.3l-.1.3h-.7v-7.9h.7v.4a2 2 0 0 1 1.2-.5l.3.1v.8h-.3zm1.2 4.4v-2.5c0-1 .2-1.7.6-2.1a2 2 0 0 1 1.6-.7 2 2 0 0 1 1.6.7c.3.4.5 1.1.5 2v1.2h-3.1l-.3.1v1.6c0 .6 0 1 .3 1.3.3.3.6.4 1 .4s.7-.1.9-.4c.2-.2.4-.5.4-1v-.3h.7v.2c0 .6-.1 1.1-.5 1.6-.3.5-.8.7-1.5.7a2 2 0 0 1-1.6-.7c-.4-.5-.6-1.2-.6-2.1zm.9-2.9v.8h2.6v-.8c0-.5-.1-1-.4-1.2-.2-.3-.5-.5-1-.5-.3 0-.6.2-.9.5-.2.2-.3.7-.3 1.2zm11.9-.6v.2l-.3.1h-.2c-.1 0-.2 0-.2-.3s-.2-.5-.4-.7-.4-.4-.7-.4-.6.1-.8.3a1 1 0 0 0-.3.8c0 .3.1.5.3.8l.8.8 1 .7c.3.3.6.5.8.9l.3 1c0 .6-.3 1.1-.7 1.5a2 2 0 0 1-1.5.6 2 2 0 0 1-1.5-.6 2 2 0 0 1-.6-1.5v-.2h.5c.2 0 .3 0 .3.2 0 .4.2.8.5 1s.5.3.8.3a1.3 1.3 0 0 0 1.3-1.3c0-.3-.1-.7-.5-1l-1-1a5 5 0 0 1-1.1-1 2 2 0 0 1-.5-1.2c0-.5.2-1 .5-1.3.4-.4.8-.5 1.3-.5s1 .1 1.3.5c.4.3.6.7.6 1.3zm1.2-4.4l.1-.4.4-.2c.2 0 .3.1.4.3v.6c0 .4-.2.7-.5 1h-.2l-.1-.2.2-.5-.2-.3-.1-.4zm2.2 7.9v-2.5c0-1 .2-1.7.6-2.1a2 2 0 0 1 1.6-.7 2 2 0 0 1 1.5.7c.4.4.6 1.1.6 2v1.2H179l-.3.1v1.6c0 .6 0 1 .3 1.3.3.3.6.4 1 .4s.7-.1.9-.4c.2-.2.3-.5.4-1v-.3h.7v.2c0 .6-.1 1.1-.5 1.6-.3.5-.8.7-1.5.7a2 2 0 0 1-1.6-.7c-.4-.5-.6-1.2-.6-2.1zm.9-2.9v.8h2.5v-.8c0-.5 0-1-.3-1.2-.2-.3-.5-.5-1-.5-.3 0-.7.2-.9.5-.2.2-.3.7-.3 1.2zm6.8 2.6l-1.2 2.7-.1.3h-.5c-.2 0-.3 0-.2-.3l1.6-3.7-1.6-3.7c0-.2 0-.3.2-.3h.5l.1.3 1.2 2.8 1.2-2.8.1-.2h.5c.2 0 .3 0 .2.2l-1.6 3.7 1.6 3.7c0 .2 0 .3-.2.3h-.5l-.1-.3-1.2-2.7zm3.3 5.6v-10.5h.7v.5c.4-.4.8-.6 1.4-.6a2 2 0 0 1 1.5.6c.3.5.5 1.2.5 2.2v2.5c0 1-.2 1.7-.5 2.1-.4.5-.9.7-1.5.7s-1-.2-1.3-.7v3.4l-.3.1h-.5v-.3zm3.3-5V385c0-1.1-.4-1.7-1.3-1.7s-1.2.6-1.2 1.7v3.2c0 1.2.4 1.7 1.2 1.7s1.3-.5 1.3-1.7zm4.6-4.7h-.4c-.3 0-.6.1-.7.5v6.3l-.2.3h-.6l-.1-.3v-7.5h.7l.1.2v.2c.3-.3.7-.5 1.2-.5l.2.1.1.2v.6h-.3zm2.1-1.5c-.2 0-.4-.2-.4-.3v-.6l.4-.2c.2 0 .3 0 .4.2v.6l-.4.2zm.4 1v7.6h-.8v-7.9h.7l.1.2zm6.1 2v5.6h-.8V385c0-1.1-.5-1.7-1.3-1.7s-1.2.6-1.2 1.7v5.3l-.1.3h-.7v-7.9h.7v.6c.4-.5.8-.7 1.3-.7.8 0 1.4.3 1.7 1 .4-.7 1-1 1.7-1a2 2 0 0 1 1.5.6c.3.5.5 1.2.5 2.2v5.2h-.7l-.1-.3V385c0-1.1-.4-1.7-1.3-1.7s-1.2.6-1.2 1.7zm5 2.9v-2.5c0-1 .2-1.7.6-2.1a2 2 0 0 1 1.5-.7 2 2 0 0 1 1.6.7c.4.4.6 1.1.6 2v1.2h-3.3l-.2.1v1.6c0 .6 0 1 .3 1.3.2.3.5.4 1 .4.3 0 .6-.1.9-.4.2-.2.3-.5.3-1l.1-.3h.7v.2c0 .6-.2 1.1-.5 1.6s-.9.7-1.6.7a2 2 0 0 1-1.5-.7c-.4-.5-.6-1.2-.6-2.1zm.8-2.9v.8h2.7v-.8c0-.5 0-1-.3-1.2-.2-.3-.6-.5-1-.5s-.7.2-1 .5c-.2.2-.3.7-.3 1.2zm7.3-1.5h-.4c-.4 0-.6.1-.7.5l-.1 1v5.3l-.1.3h-.7v-7.9h.7v.4a2 2 0 0 1 1.2-.5l.3.1v.8h-.2zm-72.7 28.4h.3v.7h-.3c-.6 0-1-.2-1.1-.6l-.3-1v-9.5h.8v8.7l.1 1.2c0 .3.2.4.5.5zm1.6-2v-2.5c0-1 .2-1.7.6-2.1a2 2 0 0 1 1.6-.7 2 2 0 0 1 1.5.7c.4.4.6 1.1.6 2v1.2h-3.2l-.3.1v1.6c0 .6 0 1 .3 1.3.2.3.6.4 1 .4.3 0 .7-.1.9-.4.2-.2.3-.5.4-1v-.3h.7v.2c0 .6-.1 1.1-.5 1.6-.3.5-.8.7-1.5.7a2 2 0 0 1-1.6-.7c-.4-.5-.6-1.2-.6-2.1zm.9-2.9v.8h2.5v-.8c0-.5 0-1-.3-1.2-.2-.3-.5-.5-1-.5-.3 0-.7.2-.9.5-.2.2-.3.7-.3 1.2zm10.4 5.7a2 2 0 0 1-1.6-.7c-.4-.5-.6-1.2-.6-2.1v-2.5c0-1 .2-1.7.6-2.1a2 2 0 0 1 1.6-.7c.7 0 1.2.2 1.5.7.4.4.6 1 .6 1.5v.3h-.8v-.4c0-.4-.2-.7-.4-1-.2-.2-.5-.4-1-.4-.3 0-.7.2-.9.5-.2.2-.3.7-.3 1.2v3.2c0 .6 0 1 .3 1.3.2.3.6.4 1 .4s.7-.1.9-.4c.2-.2.3-.5.4-1v-.3h.7v.2c0 .6-.1 1.1-.5 1.6-.3.5-.8.7-1.5.7zm3.7-2.8v-2.5c0-1 .2-1.7.5-2.1a2 2 0 0 1 1.6-.7 2 2 0 0 1 1.6.7c.4.4.6 1.1.6 2v2.6c0 1-.2 1.6-.6 2.1a2 2 0 0 1-1.6.7 2 2 0 0 1-1.6-.7 4 4 0 0 1-.5-2.1zm3.4.3V407c0-.5-.1-1-.3-1.2-.3-.3-.6-.5-1-.5s-.7.2-1 .5c-.2.2-.3.7-.3 1.2v3.2c0 .6.1 1 .3 1.3.3.3.6.4 1 .4s.7-.1 1-.4c.2-.3.3-.7.3-1.3zm3.9 1.7h.3v.7h-.3c-.5 0-1-.2-1.1-.6l-.2-1v-9.5h.7v8.7l.1 1.2c0 .3.3.4.5.5zm3.1 0h.3v.7h-.3c-.5 0-1-.2-1.1-.6l-.2-1v-9.5h.7v8.7l.1 1.2c0 .3.3.4.5.5zm3.8-6.6c-.8 0-1.2.5-1.3 1.4v.3l-.2.1h-.5v-.3c0-.6.1-1.1.4-1.6.4-.4.9-.6 1.6-.6 1.4 0 2 .9 2 2.8v4l.2 1c0 .1 0 .2-.3.2h-.5l-.1-.5a2 2 0 0 1-1.5.6 2 2 0 0 1-1.5-.6c-.3-.3-.5-.9-.5-1.5v-.5c0-.5.1-.9.3-1.2.3-.3.6-.6.9-.7l1-.4.9-.4.3-.6c0-.4 0-.7-.3-1-.2-.3-.5-.5-1-.5zm0 6.6c.5 0 .8-.1 1-.4s.2-.6.2-1.1V408l-.8.3-.7.3c-.8.4-1.2 1-1 1.7 0 1.2.4 1.7 1.4 1.6zm3.9.4v-10.8h.8v3.8c.3-.5.8-.7 1.3-.7.7 0 1.2.2 1.5.6.4.5.6 1.2.6 2.2v2.5c0 1-.2 1.7-.6 2.1-.3.5-.8.7-1.5.7-.5 0-1-.3-1.3-.7v.6h-.7v-.3zm3.3-2V407c0-1.1-.4-1.7-1.2-1.7s-1.3.6-1.3 1.7v3.2c0 1.2.5 1.7 1.3 1.7s1.2-.5 1.2-1.7zm2.5-.4v-2.5c0-1 .2-1.7.5-2.1a2 2 0 0 1 1.6-.7 2 2 0 0 1 1.6.7c.4.4.6 1.1.6 2v2.6c0 1-.2 1.6-.6 2.1a2 2 0 0 1-1.6.7 2 2 0 0 1-1.6-.7 4 4 0 0 1-.5-2.1zm3.4.3V407c0-.5 0-1-.3-1.2-.3-.3-.6-.5-1-.5s-.7.2-1 .5c-.2.2-.3.7-.3 1.2v3.2c0 .6.1 1 .4 1.3.2.3.5.4 1 .4.3 0 .6-.1.9-.4.2-.3.3-.7.3-1.3zm4.6-4.7h-.4c-.3 0-.6.1-.7.5v6.3l-.1.3h-.7v-7.9h.7v.4a2 2 0 0 1 1.2-.5l.3.1v.8h-.3zm3.4-.2c-.8 0-1.2.5-1.3 1.4v.3l-.2.1h-.5v-.3c0-.6.1-1.1.4-1.6.4-.4.9-.6 1.6-.6 1.4 0 2 .9 2 2.8v4l.2 1c0 .1 0 .2-.3.2h-.5l-.1-.5a2 2 0 0 1-1.5.6 2 2 0 0 1-1.5-.6c-.3-.3-.5-.9-.5-1.5v-.5c0-.5.1-.9.3-1.2.3-.3.6-.6.9-.7l1-.4.9-.4.3-.6c0-.4 0-.7-.3-1-.2-.3-.5-.5-1-.5zm0 6.6c.5 0 .8-.1 1-.4s.2-.6.2-1.1V408l-.8.3-.7.3c-.8.4-1.2 1-1 1.7 0 1.2.4 1.7 1.4 1.6zm4.7-8.7v1.7l.2.1h.5l.1.3v.4h-.6l-.2.2v4.3l.1 1.2c0 .3.2.4.5.5h.3v.7h-.3c-.6 0-1-.2-1.1-.6-.2-.3-.2-.6-.3-1v-5l-.1-.1h-.3v-.7h.3l.1-.2v-1.9h.8v.2zm2.2 6.7v-2.5c0-1 .2-1.7.6-2.1a2 2 0 0 1 1.6-.7 2 2 0 0 1 1.5.7c.4.4.6 1.1.6 2v1.2h-3.2l-.3.1v1.6c0 .6 0 1 .3 1.3.2.3.6.4 1 .4.3 0 .7-.1.9-.4.2-.2.3-.5.4-1v-.3h.7v.2c0 .6-.1 1.1-.5 1.6-.3.5-.8.7-1.5.7a2 2 0 0 1-1.6-.7c-.4-.5-.6-1.2-.6-2.1zm.8-2.9v.8h2.6v-.8c0-.5 0-1-.3-1.2-.2-.3-.5-.5-1-.5-.3 0-.7.2-.9.5-.2.2-.3.7-.3 1.2zm6-2v5.2c0 1.2.4 1.7 1.3 1.7s1.2-.5 1.2-1.7v-5.4h.8v7.9h-.7v-.6c-.4.5-.8.7-1.4.7-.6 0-1.1-.2-1.5-.7-.3-.4-.5-1.2-.5-2.1v-5.2h.7l.1.2zm7.3.5h-.4c-.4 0-.6.1-.7.5l-.1 1v5.6h-.8v-7.9h.7l.1.2v.2c.3-.3.7-.5 1.1-.5l.3.1.1.2v.6h-.3z"/><g fill="#002CFF" fill-rule="evenodd" clip-rule="evenodd"><path d="M289.8 171.6c-1.9.5-3.4-.6-4.8-2.1-5.1-5.3-10.3-10.4-15.5-15.6-.7-.8-1.3-1-2.5-.6a14.5 14.5 0 0 1-18-11.5 15 15 0 0 1 10.3-16.6 14.6 14.6 0 0 1 17.6 18.5l-.1.8c.2 1 3.6 3.8 4.6 3.8h1.6c2.1-.2 3.5.8 3.5 3.6 0 2 0 2 2 2.1 2.8.1 3.9 1 3.7 3.8 0 2 .5 3.4 2 4.7.6.5.8 1.6 1 2.4.2 1 0 2 0 3 0 2.5-1.1 3.6-3.7 3.7h-1.7zm-14.6-32.3a12 12 0 0 0-15.7-11.3 12.1 12.1 0 0 0-7.9 13.5 11.6 11.6 0 0 0 16 8.6c1.2-.5 1.9-.2 2.7.6l17 17.2c1 .9 3.7 1.4 4.7.9l.5-.5c.5-1 0-4-1-4.8a5.3 5.3 0 0 1-2-5c.1-1.2-.3-1.7-1.5-1.6-3.5 0-4.2-.7-4.1-4.2 0-1.4-.4-2-1.8-1.7-2.1.3-3.8-.4-5.1-2.1l-3-2.9c-.6-.5-.6-1-.3-1.8.6-1.5 1-3.2 1.4-4.9z"/><path d="M254.4 137.9c.3-.6.3-1 .5-1.2 1.8-2 3.6-3.8 5.5-5.6.4-.4 1.4-.4 2-.1a6 6 0 0 1 2.4 1.8c1.5 1.6 1.5 2.5.1 4.2a34.7 34.7 0 0 1-3.6 3.7c-1.9 1.8-2.6 1.8-4.6.1-1-.8-1.6-2-2.3-3zm7.5-6.2l-.9.4-4.8 5c-.3.2-.3.9 0 1.2.4.7 1 1.4 1.8 2 .7.6 1.5.6 2.2-.2 1.1-1.2 2.3-2.2 3.3-3.4.5-.6 1.1-1.7.9-2.1-.6-1.1-1.6-2-2.5-3z"/></g><path fill="#BABABA" d="M279 397.3h20v20.6h-20z"/><path fill="#4A4A4A" d="M279 397.1h20v20.8h-20z"/><path fill="#002CFF" d="M249.4 359.5h20V418h-20z"/><path fill="none" stroke="#41D5CF" stroke-linecap="round" stroke-linejoin="round" stroke-miterlimit="10" d="M298 397.5h-20.5.2H250"/><path fill="#FFF" d="M251.2 380.2v2c0 .3.2.6.5.6.2 0 .4-.2.4-.5v-.2h.3c.1 0 .2 0 .2.2 0 .3-.2.5-.3.7s-.4.2-.6.2c-.3 0-.5-.1-.7-.3s-.3-.4-.3-.8v-1.9c0-.3.1-.6.3-.8s.4-.2.7-.2c.2 0 .4 0 .6.2l.3.7-.2.1h-.2l-.1-.1c0-.3-.2-.5-.4-.5-.3 0-.5.2-.5.6zm3.5 1.1v.8c0 .4 0 .7-.2.8l-.6.3c-.3 0-.5 0-.7-.3l-.2-.8v-.8c0-.3 0-.6.2-.7.2-.2.4-.3.7-.3s.4 0 .6.3l.2.7zm-.5 1v-1.4l-.2-.1h-.3l-.2.1v1.7l.2.1h.3l.2-.1v-.3zm1.5-1.1v1.9h-.4v-2.7h.4v.1l.4-.2c.3 0 .4 0 .6.2l.2.8v1.8h-.4v-2l-.2-.2-.1-.2h-.2l-.2.2-.1.3zm2.1 2h-.3v-2.4l-.1-.1h-.1v-.3h.1v-.2l.2-.8.7-.2v.4c-.2 0-.3 0-.3.2v.5h.2v.1h.1v.3l-.1.1h-.2v2.3h-.2zm.9-3.2v-.4h.4l.1.2v.2h-.5zm.4 3.2h-.3l-.1-.1v-2.7h.4v2.7zm2.2 0h-.3v-.2l-.6.2c-.2 0-.4 0-.5-.2a.8.8 0 0 1-.2-.6v-.5l.4-.3h.2l.2-.1.2-.1.1-.1v-.5h-.5l-.1.4h-.4c0-.3 0-.5.2-.6.1-.2.3-.3.6-.3.2 0 .4 0 .5.2.2.2.3.4.3.7v1.8zm-.8-.4c.3 0 .4-.2.4-.5v-.6a10 10 0 0 1-.5.2l-.1.1-.2.4.1.2.3.2zm1.9-1.6v1.9h-.4v-2.7h.4v.1l.4-.2c.3 0 .4 0 .6.2l.2.8v1.8h-.4v-2l-.2-.2-.1-.2h-.2l-.2.2-.1.3zm2.2 0v1.4l.3.2c.1 0 .2 0 .3-.2l.1-.2v-.1h.4l-.1.6a1 1 0 0 1-.7.3c-.2 0-.4 0-.6-.3l-.2-.8v-.8c0-.3 0-.6.2-.7l.6-.3c.3 0 .5 0 .7.3l.2.6h-.5l-.1-.4h-.5l-.1.4zm1.6.9v-.8c0-.3.1-.6.3-.7.1-.2.3-.3.6-.3s.4 0 .6.3c.2.1.2.4.2.7v.5h-1.2v.5l.1.3.3.1h.2l.1-.3v-.1h.5c0 .2 0 .4-.2.6-.1.2-.3.3-.6.3s-.5 0-.6-.3c-.2-.1-.3-.4-.3-.8zm1.3-.8v-.1c0-.2 0-.3-.2-.4s-.3 0-.4 0c-.2 0-.2.2-.2.4v.2h.7z"/><path fill="#002CFF" d="M256.7 427.5h-.2l-.3-.1-.8-3.3v3.3h-.8v-7h.6l1.3 5v.1h.1l1.2-5 .2-.1h.6v7h-.8v-3.3h-.1l-.8 3.3h-.2zm6.6-5.1v.8l.1.1h.9c.1 0 0 .2 0 .2v.6h-.9v1l-.1.1h-.7v-1h-1l-.1-.1v-.7h.9l.1-.2v-.9h.8v.1z"/><path fill="#4A4A4A" d="M287.2 427.5h-.2l-.3-.1-.8-3.3v3.3h-.8v-7h.7l1.2 5v.1h.1l1.3-5 .1-.1h.6v7h-.8v-3.3l-.9 3.3h-.2zm4.8-2.6v-.4c0-.1 0-.2.2-.2h1.9l.1.2v.4l-.1.2h-2v-.2z"/><path fill="#FFF" d="M284.5 405.8h.7c.3 0 .5 0 .7.2s.2.5.2.8v1.9c0 .3 0 .6-.2.8a1 1 0 0 1-.7.3h-.7l-.1-.2v-3.7h.1zm.4.5v3h.3c.3 0 .4-.2.4-.6v-1.9c0-.4-.1-.6-.4-.6h-.3v.1zm3.4 1.7v.7c0 .4-.1.7-.3.8-.1.2-.3.3-.6.3l-.6-.3-.2-.8v-.8c0-.3 0-.6.2-.8l.6-.2c.3 0 .5 0 .6.2.2.2.3.5.3.8zm-.5.9v-1.4l-.3-.2h-.2l-.2.2v1.7l.2.1h.2l.2-.1.1-.3zm2.2 0v-2h.4v2.8h-.4v-.1l-.5.2c-.2 0-.4 0-.5-.3-.2-.1-.2-.4-.2-.7v-1.9h.4v2l.1.3.2.1h.2l.2-.1v-.3zm1.5-1.5v1.8l.3.1h.1v.4c-.4 0-.6 0-.7-.2l-.2-.7v-1.4h-.1v-.5l.1-.1v-.5l.1-.1h.3v.6h.4l.1.2v.2h-.4v.1zm.8 1.3v-.8c0-.3 0-.6.2-.8l.6-.2c.3 0 .5 0 .6.2.2.2.3.5.3.8v.5c0 .1 0 0-.1 0h-1.1v.8l.3.1h.3v-.3l.1-.2h.4v.1l-.1.6a1 1 0 0 1-.7.3l-.6-.3-.2-.8zm1.2-.8v-.1c0-.2 0-.3-.2-.4s-.2-.1-.4 0-.2.2-.2.4v.2h.7l.1-.1z"/><path fill="#41D5CF" d="M274.3 383h-2.5v-7.9h2.7v.8h-1.8v2.5h1.8v.8h-1.6l-.2.1v2.8h1.6l.2.1v.8h-.2zm4.7 0h-.6l-1.8-4.9v4.7l-.1.2h-.9v-7.9h.6l.2.1 1.8 4.8h.1v-4.9h1v7.9h-.2zm4 0h-2.5v-7.9h2.7v.8h-1.8v2.5h1.8v.8h-1.6l-.2.1v2.8h1.6l.2.1v.8h-.2zm1.5-8h1.4c.5 0 1 .2 1.3.6.4.4.5 1 .5 1.6v.3c0 1-.2 1.5-.7 1.9a184.2 184.2 0 0 1 .5 3.6h-.7v-.1l-.7-3-.1-.2h-.7v3.2l-.3.1h-.7v-7.9h.2zm.8 1.2v2.6h.6c.6 0 .9-.4.9-1.2v-.4c0-.8-.3-1.2-1-1.2h-.5v.2zm4.3.9v3.9c0 .8.3 1.2.9 1.2.5 0 .8-.3.8-1v-2h-.5v-.9h1.4v2.5c0 .7 0 1.3-.4 1.6a1.8 1.8 0 0 1-2.7 0c-.3-.3-.5-.9-.5-1.6v-3.7c0-.7.2-1.3.5-1.6.4-.4.8-.6 1.4-.6.5 0 .9.2 1.2.5s.5.8.6 1.4c0 .2-.1.3-.3.3h-.6v-.3c-.1-.7-.4-1-1-1-.5 0-.8.4-.8 1.2zm4.7-1.8v7.7h-.9l-.1-.2v-7.7h1v.2zm3.7 7.7h-2.6v-7.9h2.9v.8h-1.9v2.5h1.8v.8h-1.6l-.2.1v2.8h1.6l.2.1v.8h-.2z"/></svg>