<svg xmlns="http://www.w3.org/2000/svg" viewBox="0 0 320 568"><path fill="#6F00FF" d="M190.4 209.8h10.5v19.9h-10.5z"/><path fill="#6F00FF" d="M195.7 196.4l7.7 18.9-7.7-4.5-7.7 4.5zm-5.3-110.7h10.5v19.9h-10.5z"/><path fill="#6F00FF" d="M195.7 72.3l7.7 18.9-7.7-4.5-7.7 4.5zm-5.3 257.9h10.5v19.9h-10.5z"/><path fill="#6F00FF" d="M195.7 316.7l7.7 18.9-7.7-4.4-7.7 4.4zm-5.3 136.7h10.5v19.9h-10.5z"/><path fill="#6F00FF" d="M195.7 440l7.7 18.8-7.7-4.4-7.7 4.4z"/><path fill="#6F00FF" stroke="#41D5CF" stroke-miterlimit="10" stroke-width="5" d="M240.1 392.5a44.5 44.5 0 1 1-89 0 44.5 44.5 0 0 1 89 0zm0 122.3a44.5 44.5 0 1 1-89 0 44.5 44.5 0 0 1 89 0zm0-243.5a44.5 44.5 0 1 1-89 0 44.5 44.5 0 0 1 89 0zm-88.9-120.6a44.5 44.5 0 1 1 89 0 44.5 44.5 0 0 1-89 0z"/><g fill="#6F00FF" fill-rule="evenodd" clip-rule="evenodd"><path d="M302.9 145.1h-.2l-3.3 1.6c-.2 0-.2.2-.2.3l-.1 3.2a17.5 17.5 0 0 1-6.3 11.5 17.7 17.7 0 0 1-28-7.4 17.7 17.7 0 0 1 9.8-22.7 17.7 17.7 0 0 1 17.6 2.3l2 1.6 3.6-1.6a21.6 21.6 0 0 0-36.2 23A21.6 21.6 0 0 0 303 145zm0-10.7l-7 3.2-.3.3-1 2.7-.3.2-2.5 1.2-4.2 1.9-3.7 1.6-3 1.4c-.6.3-.8 1-.5 1.8.2.4 1 .8 1.6.5l5.5-2.5 7.9-3.5h.3l2.7.9h.4l1.3-.6 4.6-2 1.2-.7-4.8-1.6 1.9-4.8zm-18.6 8.2a6 6 0 0 0-7 .9 6.2 6.2 0 1 0 10.1 6l-1.1.5-3 1.4c-1.2.5-2.3.6-3.5 0-1.3-.5-2-1.6-2.1-3-.2-1.4.4-2.6 1.6-3.4l2-1 3-1.4z"/><path d="M302.9 145.1a21.6 21.6 0 1 1-31.9-16 21.6 21.6 0 0 1 26.8 4.8l-3.7 1.6-1.9-1.6a17.5 17.5 0 0 0-17.6-2.3 17.8 17.8 0 1 0 24.5 18.6c.1-1 0-2.1 0-3.2l.3-.3 3.3-1.5h.2z"/><path d="M303 134.4l-2 4.8 5 1.6-1.3.6-4.6 2-1.3.7h-.4l-2.7-1h-.3l-8 3.6-5.4 2.5c-.6.3-1.4-.1-1.6-.5-.3-.7-.1-1.5.5-1.8l3-1.4 3.7-1.6 4.2-2 2.5-1 .2-.3 1.1-2.7c0-.2.2-.2.3-.3l7-3.2z"/><path d="M284.3 142.6l-3 1.3-2 1c-1.2.9-1.8 2.1-1.6 3.5.1 1.4.8 2.5 2.1 3 1.2.6 2.3.5 3.5 0l3-1.4 1.1-.5c-.3 2-2.1 4.3-5 4.7a6.2 6.2 0 1 1 2-11.6z"/></g><path fill="#FFF" d="M174.1 385.7h-3.6l-.2-.1-.1-.3v-11.5h4.2v1.2H172l-.3.1v3.6h2.4l.3.1v1.2h-2.7v4.3h2.4l.3.1v1.2h-.3zm5.2-8.5h1v.2l-1.5 8-.1.2h-1.5l-.1-.3-1.6-7.9v-.2h1.5v.2l1 5.1v.1h.1l1-5.2v-.2h.2zm6.9 8.5h-.7l-.3-.1-.1-.5c-.5.4-1 .6-1.6.6-.7 0-1.2-.2-1.6-.6-.4-.4-.6-1-.6-1.6v-.3c0-.6.1-1 .4-1.4.2-.4.5-.6.9-.8l.6-.2.6-.2.6-.3c.2 0 .3-.2.4-.4l.1-.5c0-.2 0-.5-.2-.7a1 1 0 0 0-.8-.3 1 1 0 0 0-.8.4c-.2.2-.3.5-.3.8v.3h-1.2v-.2c-.1-.8.1-1.4.6-1.9s1-.7 1.7-.7 1.3.2 1.8.7c.5.5.7 1.1.7 1.9v4.8l.1.8c0 .2 0 .4-.3.4zm-2.3-1.3c.7 0 1-.5 1-1.4v-1.7a21.5 21.5 0 0 1-1.4.7l-.4.3c-.3.2-.4.5-.4 1 0 .2 0 .5.2.7.2.3.5.4 1 .4zm5.5-10.3v8.6l.1 1.2c.1.2.4.4.8.4l.3.1v1.2h-.3c-.9 0-1.5-.2-1.8-.6-.4-.5-.6-1.3-.6-2.3V374l.1-.3h1.3v.3zm5.9 9v-5.9h1.3l.1.3v8.1h-1.3l-.1-.3v-.2c-.3.4-.7.6-1.3.6-.7 0-1.2-.2-1.6-.7s-.6-1.2-.6-2.2v-5.6h1.3v5.9c0 .3.1.6.3.8.1.3.3.4.5.5h.7c.2 0 .3-.2.5-.5l.2-.8zm3-.5v-2.4c0-1 .2-1.8.7-2.3.5-.6 1-.8 1.8-.8s1.3.2 1.8.8c.5.5.8 1.2.8 2.3v1.2l-.1.2H200l-.2.2-.1.2v1c0 .5 0 .8.3 1 .2.3.5.4.8.4.3 0 .6-.1.8-.3.2-.2.3-.5.3-.8v-.4h1.3v.3c.1.5-.1 1.1-.5 1.7-.4.5-1 .8-1.9.8-.7 0-1.3-.2-1.8-.7-.5-.5-.8-1.3-.8-2.4zm3.6-2.5v-.3c0-.6-.1-1-.5-1.2-.4-.3-.8-.3-1.2 0s-.6.6-.5 1.2v.6h2.1l.1-.3zm5.8-1.5l-.5-.1c-.5 0-.7.2-.8.6v6.2l-.2.3H205l-.1-.3v-8.1h1.3l.1.3v.2c.4-.4.8-.5 1.2-.5h.5v1.3h-.3zm6.2-4.5v8.6c0 .6 0 1 .2 1.2s.4.4.7.4l.3.1v1.2h-.3c-.8 0-1.4-.2-1.8-.6-.3-.5-.5-1.3-.5-2.3v-9h1.3v.3zm7.1 11.6h-.7l-.2-.1-.2-.5c-.4.4-1 .6-1.6.6-.6 0-1.2-.2-1.6-.6-.3-.4-.5-1-.5-1.6v-.3c0-.6 0-1 .3-1.4.2-.4.5-.6 1-.8l.5-.2a15.7 15.7 0 0 0 1.2-.5c.2 0 .3-.2.4-.4l.2-.5c0-.2 0-.5-.3-.7a1 1 0 0 0-.7-.3 1 1 0 0 0-.8.4c-.2.2-.3.5-.3.8v.3h-1.3v-.2c0-.8.2-1.4.6-1.9.5-.5 1.1-.7 1.8-.7s1.2.2 1.7.7c.5.5.8 1.1.8 1.9v5.6c.1.2 0 .4-.3.4zm-2.3-1.3c.7 0 1.1-.5 1.1-1.4v-1.7a21.9 21.9 0 0 1-1.5.7l-.4.3c-.2.2-.3.5-.3 1 0 .2 0 .5.2.7.2.3.5.4.9.4zM163 398.2h1v.5c.4-.4.8-.6 1.3-.6.7 0 1.3.2 1.7.7s.6 1.2.6 2.2v2.8c0 1-.2 1.7-.6 2.2s-1 .7-1.7.7c-.5 0-1-.2-1.2-.6v3.3l-.1.2-.3.1h-1v-11.5h.3zm1 2.5v3.4c0 .3.1.6.3.8.1.3.3.4.5.5h.6c.3 0 .4-.2.6-.5l.2-.8v-3.4c0-.3 0-.6-.2-.8a.9.9 0 0 0-.6-.5h-.6c-.2 0-.4.2-.5.5-.2.2-.2.5-.2.8zm5 2.9v-2.4c0-1 .2-1.8.7-2.3.5-.6 1.1-.8 1.8-.8s1.3.2 1.8.8c.5.5.8 1.2.8 2.3v1.2l-.1.2h-3.3l-.2.2-.1.2v1c0 .5.1.8.3 1 .2.3.5.4.8.4.3 0 .6-.1.8-.3.2-.2.3-.5.3-.8l.1-.4h1.2v.3a2 2 0 0 1-.5 1.7c-.4.5-1 .8-1.9.8-.7 0-1.3-.2-1.8-.7-.5-.5-.7-1.3-.7-2.4zm3.6-2.5v-.3c0-.6 0-1-.5-1.2s-.8-.3-1.2 0-.5.6-.5 1.2v.6h2.2v-.3zm5.8-1.5l-.5-.1c-.4 0-.7.2-.8.6v6.2l-.1.3h-1.3v-8.4h1.3v.5c.4-.4.8-.5 1.3-.5h.4v1.3h-.3zm2.6 7.1h-.8l-.3-.1v-6.8c0-.2 0-.2-.2-.2h-.3v-1.2h.3l.2-.2v-.5c0-1 .2-1.8.6-2.3.3-.4 1-.6 1.9-.6h.2l.1.3v.9l-.3.1c-.5 0-.8.2-.9.4l-.2 1.3v.4l.2.1h.6l.3.1v1.1h-.9c-.1 0-.2.1-.2.3v6.8h-.3zm7.6-5.5v2.4c0 1-.3 1.9-.8 2.4s-1 .7-1.8.7-1.3-.2-1.8-.7c-.5-.5-.7-1.3-.7-2.4v-2.4c0-1 .2-1.8.7-2.3.5-.6 1.1-.8 1.8-.8s1.3.2 1.8.8c.5.5.8 1.2.8 2.3zM187 404v-3.2c0-.4 0-.7-.2-.9a1 1 0 0 0-.6-.5h-.6c-.2 0-.4.3-.6.5-.2.2-.2.5-.2 1v3.1c0 .4 0 .7.2 1l.6.4h.6c.2 0 .5-.2.6-.5.2-.2.2-.5.2-.9zm6-4.4l-.6-.1c-.5 0-.7.2-.8.6v6.2l-.2.3h-1.2l-.1-.3v-8.1h1.3l.1.3v.2c.4-.4.8-.5 1.2-.5h.5v1.3h-.3zm2.8 1.1v5.9h-1.5v-8.4h1.3v.5c.4-.4.8-.6 1.3-.6a2 2 0 0 1 1.8.9 3 3 0 0 1 1.8-1c.7 0 1.2.3 1.6.8s.7 1.2.7 2.2v5.3l-.1.3h-1.3v-5.9c0-.3-.1-.6-.3-.8a.9.9 0 0 0-.5-.5h-.6c-.3 0-.4.2-.6.5l-.2.8v5.9h-1.3l-.1-.3v-5.6c0-.3 0-.6-.2-.8a.9.9 0 0 0-.5-.5h-.7c-.2 0-.4.2-.5.5l-.2.8zm13.3 6h-.7l-.2-.1-.2-.5c-.4.4-1 .6-1.6.6-.6 0-1.2-.2-1.6-.6-.4-.4-.6-1-.6-1.6v-.3c0-.6.2-1 .4-1.4.2-.4.5-.6 1-.8l.5-.2.7-.2.5-.3c.2 0 .3-.2.4-.4l.2-.5c0-.2 0-.5-.3-.7a1 1 0 0 0-.7-.3 1 1 0 0 0-.8.4c-.2.2-.3.5-.3.8v.3h-1.3v-.2c0-.8.2-1.4.6-1.9.5-.5 1.1-.7 1.8-.7s1.2.2 1.7.7c.5.5.8 1.1.8 1.9v5.6c.1.2 0 .4-.3.4zm-2.3-1.3c.7 0 1.1-.5 1.1-1.4v-1.7a21.5 21.5 0 0 1-1.5.7l-.4.3c-.2.2-.3.5-.3 1 0 .2 0 .5.2.7.2.3.5.4.9.4zm5.6-4.7v5.9H211v-8.4h1.3v.5c.4-.4.8-.6 1.4-.6.7 0 1.2.2 1.6.7s.6 1.2.6 2.2v5.6h-1.3l-.1-.3v-5.6c0-.3 0-.6-.2-.8a.9.9 0 0 0-.5-.5h-.7c-.2 0-.4.2-.5.5l-.2.8zm6.4.1v3.3c0 .4.1.7.3 1 .2.2.5.3.8.3.3 0 .6-.1.8-.3.2-.2.3-.5.3-.8l.1-.4h1.2v.3a2 2 0 0 1-.5 1.7c-.4.5-1 .8-1.9.8-.7 0-1.3-.2-1.8-.7-.5-.5-.7-1.3-.7-2.4v-2.4c0-1 .2-1.8.7-2.3.5-.6 1.1-.8 1.8-.8.8 0 1.5.3 1.9.8.4.6.6 1.2.6 1.8l-.1.2h-1.2v-.3c0-.4-.2-.7-.4-.9a1 1 0 0 0-.8-.3 1 1 0 0 0-.8.4c-.2.2-.3.5-.3 1zm5 2.8v-2.4c0-1 .2-1.8.7-2.3.5-.6 1.1-.8 1.8-.8s1.3.2 1.8.8c.5.5.8 1.2.8 2.3v1.2l-.1.2h-3.3l-.2.2-.1.2v1c0 .5.1.8.3 1 .2.3.5.4.8.4.3 0 .6-.1.8-.3.2-.2.3-.5.3-.8l.1-.4h1.2v.3a2 2 0 0 1-.5 1.7c-.4.5-1 .8-1.9.8-.7 0-1.3-.2-1.8-.7-.5-.5-.7-1.3-.7-2.4zm3.6-2.5v-.3c0-.6 0-1-.5-1.2-.4-.3-.8-.3-1.2 0s-.6.6-.5 1.2v.6h2.2v-.3zm-64.4 109h-1l-.1-.3v-11.5l.3-.1h3.9v1.2l-.3.1h-2.4v3.6h1.9l.3.1v1.2h-1.9l-.3.1v5.3l-.1.2-.3.1zm9 0h-.7l-.3-.1v-.4c-.5.4-1 .6-1.7.6-.6 0-1.2-.2-1.6-.6-.4-.4-.6-1-.6-1.7v-.3c0-.6.2-1 .4-1.4.2-.3.5-.6.9-.7l.6-.3a15.7 15.7 0 0 0 1.2-.4l.4-.4.2-.5a1 1 0 0 0-.3-.7 1 1 0 0 0-.7-.3 1 1 0 0 0-.8.3c-.2.2-.3.5-.3.9l-.1.3h-1.2v-.3c0-.7.2-1.3.6-1.8.5-.5 1-.8 1.8-.8.6 0 1.2.3 1.7.8.5.4.7 1 .7 1.8v4.8l.2.9c0 .2 0 .3-.4.3zm-2.3-1.3c.7 0 1.1-.5 1.1-1.4v-1.7a21.9 21.9 0 0 1-1.5.7l-.4.3c-.2.2-.3.5-.3 1 0 .3 0 .5.2.8.1.2.4.3.9.3zm4.3-8.2c-.2-.2-.2-.4-.2-.6l.2-.6.6-.2c.2 0 .4 0 .5.2l.3.6c0 .2 0 .4-.3.6-.1.2-.3.2-.5.2-.3 0-.4 0-.6-.2zm1 9.5h-1.1v-8.5l.3-.1h1v8.4l-.3.1zm4.8-7.1h-.5c-.5 0-.7.1-.8.5v6.2c0 .2-.1.3-.2.3l-.2.1h-1l-.1-.3v-8.1l.3-.1h1l.1.3v.2a2 2 0 0 1 1.2-.5h.5v1.4h-.3zm1.2 4v-2.3c0-1.1.2-1.9.7-2.4.4-.5 1-.8 1.8-.8.7 0 1.3.3 1.8.8s.7 1.3.7 2.4v1.3h-3.3l-.3.1v1.3c0 .4 0 .7.2 1 .2.2.5.3.9.3.3 0 .5 0 .7-.3.2-.2.4-.5.4-.8v-.3l.3-.1h.9l.1.3c0 .6-.1 1.2-.6 1.7a2 2 0 0 1-1.8.9c-.7 0-1.3-.3-1.8-.8s-.8-1.3-.8-2.4zm3.6-2.5v-.3c0-.6-.1-1-.5-1.2s-.8-.2-1.2 0-.6.6-.6 1.2v.3l.1.3h2.1v-.3zm7.7-6v8.6c0 .6 0 1 .2 1.3s.3.3.7.4h.3v1.2l-.3.1c-.8 0-1.4-.3-1.8-.7-.3-.5-.5-1.2-.5-2.3v-8.8l.3-.1h1v.3zm2.3 8.5v-2.3c0-1.1.2-1.9.7-2.4.5-.5 1.1-.8 1.8-.8.8 0 1.4.3 1.8.8.5.5.8 1.3.8 2.4v1.3h-3.4l-.2.1v1.3c0 .4 0 .7.2 1 .2.2.5.3.8.3.4 0 .6 0 .8-.3.2-.2.3-.5.3-.8l.1-.3.3-.1h.9l.1.3c0 .6-.2 1.2-.6 1.7-.4.6-1 .9-1.9.9-.7 0-1.3-.3-1.8-.8s-.7-1.3-.7-2.4zm3.7-2.5v-.3c0-.6-.2-1-.6-1.2s-.8-.2-1.1 0-.6.6-.6 1.2v.3l.1.3h2.1v-.3zm7.4 5.6h-1v-11.9l.3-.1h1v4c.4-.4.8-.6 1.3-.7.7 0 1.3.2 1.7.7s.6 1.2.6 2.2v2.9c0 1-.2 1.7-.6 2.2s-1 .7-1.7.7c-.5 0-1-.3-1.2-.7v.3l-.1.2-.3.1zm.4-6v3.4c0 .4 0 .7.2.9.1.2.3.4.5.4h.6c.2 0 .4-.2.6-.4l.2-.9v-3.4c0-.3 0-.6-.2-.8a.9.9 0 0 0-.6-.4h-.6c-.2 0-.4.2-.5.4l-.2.8zm5.2-3.5a.8.8 0 0 1 0-1.2l.5-.2c.2 0 .5 0 .6.2l.3.6-.3.6c-.1.2-.3.2-.6.2s-.4 0-.5-.2zm1 9.5h-1.1v-8.5l.3-.1h1v8.4l-.3.1zm3.3-11.6v8.6c0 .6 0 1 .2 1.3s.4.3.7.4h.3v1.2l-.3.1c-.8 0-1.4-.3-1.8-.7-.3-.5-.5-1.2-.5-2.3v-8.8l.3-.1h1v.3zm7.1 11.6h-.7l-.2-.1-.2-.4c-.4.4-1 .6-1.6.6-.6 0-1.2-.2-1.6-.6-.3-.4-.5-1-.5-1.7v-.3c0-.6 0-1 .3-1.4.2-.3.5-.6 1-.7l.5-.3.7-.2.5-.2.4-.4.2-.5c0-.3 0-.5-.3-.7a1 1 0 0 0-.7-.3 1 1 0 0 0-.8.3c-.2.2-.3.5-.3.9v.3H218v-.3c0-.7.2-1.3.6-1.8.5-.5 1.1-.8 1.8-.8s1.2.3 1.7.8c.5.4.8 1 .8 1.8v5.7c.1.2 0 .3-.3.3zm-2.3-1.3c.7 0 1.1-.5 1.1-1.4v-1.7a21.5 21.5 0 0 1-1.5.7l-.4.3c-.2.2-.3.5-.3 1 0 .3 0 .5.2.8.2.2.5.3.9.3zm5.6-4.7v5.9l-.3.1h-1.1v-8.5l.3-.1h1l.1.3v.3c.3-.4.7-.6 1.3-.7.7 0 1.2.2 1.6.7s.6 1.2.6 2.2v5.7l-.3.1h-1l-.1-.3V504c0-.3 0-.6-.2-.8a.9.9 0 0 0-.5-.4h-.7c-.2 0-.4.2-.5.4l-.2.8zm-52.7 27h-1v-.6c-.4.4-.8.6-1.4.7-.7 0-1.2-.2-1.6-.7s-.6-1.2-.6-2.2v-2.9c0-1 .2-1.7.6-2.2s1-.7 1.6-.7c.6 0 1 .3 1.3.7v-3.9l.3-.1h1.1V531l-.3.1zm-1-2.6v-3.4c0-.3-.2-.6-.3-.8a.9.9 0 0 0-.5-.4h-.7c-.2 0-.4.2-.5.4l-.2.9v3.3c0 .4 0 .7.2.9.1.2.3.4.5.4h.7c.2 0 .4-.2.5-.4l.2-.9zm2.9-.5v-2.3c0-1.1.2-1.9.7-2.4.5-.5 1.1-.8 1.8-.8s1.3.3 1.8.8.8 1.3.8 2.4v1.1l-.1.3h-3.3l-.2.1-.1.3v1c0 .4 0 .7.3 1 .2.2.5.3.8.3.3 0 .6 0 .8-.3.2-.2.3-.5.3-.8v-.3l.4-.1h.8v.3c.1.6 0 1.2-.5 1.7-.4.6-1 .9-1.9.9-.7 0-1.3-.3-1.8-.8s-.7-1.3-.7-2.4zm3.6-2.5v-.3c0-.6 0-1-.5-1.2s-.8-.2-1.2 0-.6.6-.5 1.2v.6h2.2v-.3zm7.7-6v8.6l.2 1.3c.1.3.4.3.8.4h.3v1.2l-.3.1c-.9 0-1.5-.3-1.8-.7-.4-.5-.6-1.2-.6-2.3v-8.8l.4-.1h1v.3zm2.1.5c0-.2 0-.4.2-.5.2-.2.4-.3.7-.3l.4.1.4.5v.6c0 .3 0 .6-.2 1l-.8 1h-.2l-.2-.2c-.1 0-.1-.1 0-.2l.3-.7-.1-.4-.3-.3a.8.8 0 0 1-.2-.5zm7.7 11.1h-.7l-.3-.1v-.4c-.5.4-1 .6-1.7.6s-1.2-.2-1.6-.6c-.4-.4-.6-1-.6-1.7v-.3c0-.6.1-1 .4-1.4.2-.3.5-.6.9-.7l.6-.3.6-.2.6-.2.4-.4.2-.5a1 1 0 0 0-.3-.7 1 1 0 0 0-.8-.3 1 1 0 0 0-.7.3c-.2.2-.4.5-.4.9v.3h-1.2v-.3c-.1-.7.1-1.3.6-1.8s1-.8 1.8-.8c.6 0 1.2.3 1.7.8.5.4.7 1 .7 1.8v4.8c0 .3 0 .6.2.9 0 .2-.1.3-.4.3zm-2.3-1.3c.7 0 1-.5 1-1.4v-1.7a21.5 21.5 0 0 1-1.4.7l-.4.3c-.2.2-.4.5-.4 1 0 .3 0 .5.3.8.1.2.4.3.9.3zm5.6-4.7v5.7l-.1.2-.3.1h-1v-8.5l.3-.1h1v.6c.4-.4.8-.6 1.3-.7.7 0 1.3.2 1.7.7s.6 1.2.6 2.2v5.7l-.3.1h-1.1v-6c0-.3 0-.6-.2-.8a.9.9 0 0 0-.6-.4h-.6c-.2 0-.4.2-.5.4l-.2.8zm6.5 0v5.9l-.3.1h-1v-8.5l.3-.1h1v.6a2 2 0 0 1 1.3-.7c.7 0 1.3.2 1.7.7s.6 1.2.6 2.2v5.4l-.1.2-.3.1h-1v-6c0-.3-.1-.6-.3-.8a.9.9 0 0 0-.5-.4h-.6c-.2 0-.4.2-.6.4l-.2.8zm5 2.9v-2.3c0-1.1.3-1.9.8-2.4s1-.8 1.8-.8 1.3.3 1.8.8.7 1.3.7 2.4v1.3h-3.3l-.3.1v1.3c0 .4 0 .7.3 1 .2.2.4.3.8.3.3 0 .5 0 .8-.3.2-.2.3-.5.3-.8v-.3l.3-.1h1v.3c0 .6-.1 1.2-.6 1.7a2 2 0 0 1-1.8.9c-.7 0-1.3-.3-1.8-.8s-.8-1.3-.8-2.4zm3.7-2.5v-.3c0-.6-.1-1-.5-1.2-.4-.2-.8-.2-1.2 0s-.6.6-.6 1.2v.3l.1.3h2.1v-.3zm-1-3.7h-.4c-.1 0-.2 0-.2-.2v-1.7l.1-.2.3-.1h.9c.2 0 .3.1.2.4l-.5 1.5-.1.2h-.2zm3.8 6.2v-2.3c0-1.1.2-1.9.7-2.4.5-.5 1.1-.8 1.8-.8s1.3.3 1.8.8.8 1.3.8 2.4v1.1l-.1.3h-3.3l-.2.1v1.3c0 .4 0 .7.2 1 .2.2.5.3.8.3.3 0 .6 0 .8-.3.2-.2.3-.5.3-.8l.1-.3.3-.1h.9l.1.3c0 .6-.2 1.2-.6 1.7-.4.6-1 .9-1.9.9-.7 0-1.3-.3-1.8-.8s-.7-1.3-.7-2.4zm3.7-2.5v-.3c0-.6-.2-1-.6-1.2s-.8-.2-1.2 0-.5.6-.5 1.2v.6h2.2v-.3z"/><path fill="#4A4A4A" d="M19.9 474.3l1.1-2.8.3-.2h.4v11.8l-.3.1H21l-.1-.3v-8c0-.1 0-.2-.2-.2H20c-.2 0-.2-.1-.1-.4zm6.8 4.3v-.2c0-.2.1-.3.3-.3h2.9c.1 0 .2.1.2.3v.2c0 .2 0 .3-.2.3h-3s-.2-.1-.2-.3zm10.8.4h-1.3v3.9l-.2.2h-.7v-11.7l.3-.1h2c.7 0 1.3.2 1.8.7s.7 1.2.7 2.2v2c0 .9-.3 1.6-.7 2s-1.1.8-1.9.8zm-1.4-6.6v5.8h1.4c.5 0 .9-.2 1.2-.5.3-.4.5-.9.5-1.6v-1.9c0-.7-.2-1.2-.5-1.6-.3-.3-.7-.5-1.3-.5h-1.2v.3zm7.8 3.3l-.4-.1c-.4 0-.6.2-.8.5v6.8l-.1.2h-.8v-8.3l.3-.1h.5v.5c.4-.3.8-.5 1.3-.5h.3v1h-.3zm2.2-1.7c-.2 0-.3-.2-.4-.3v-.6c0-.2.2-.3.4-.3s.4.1.5.3v.6c0 .1-.2.2-.5.2zm.5 1v7.9l-.1.2h-.7l-.1-.2v-8.1l.3-.1h.5v.3zm5.5 7.9v-5.6c0-1.3-.4-1.9-1.3-1.9s-1.3.6-1.3 1.9v5.8h-.8v-8.3l.2-.1h.5v.7c.4-.5.9-.8 1.5-.8s1.2.2 1.6.7c.3.5.5 1.3.5 2.3v5.5h-.8v-.2zm4.9.4a2 2 0 0 1-1.6-.8c-.4-.5-.6-1.2-.6-2.2v-2.7c0-1 .2-1.7.6-2.2a2 2 0 0 1 1.7-.8c.7 0 1.3.3 1.6.8.4.4.6 1 .6 1.6v.3h-.8v-.4c0-.4-.2-.8-.4-1-.3-.3-.6-.5-1-.5s-.8.2-1 .5c-.3.3-.4.8-.4 1.4v3.3c0 .6.1 1.1.4 1.4.2.3.6.4 1 .4s.7 0 1-.4c.2-.2.3-.6.4-1v-.4h.8v.3a3 3 0 0 1-.6 1.7 2 2 0 0 1-1.6.7zm4.6-9.3c-.2 0-.3-.2-.4-.3v-.6c0-.2.2-.3.4-.3s.4.1.5.3v.6c0 .1-.2.2-.5.2zm.5 1v7.9l-.1.2h-.7l-.1-.2v-8.1l.3-.1h.5v.3zm2 11v-11.2l.4-.1h.4l.1.3v.3c.3-.4.8-.7 1.4-.7a2 2 0 0 1 1.6.7c.3.5.5 1.3.5 2.3v2.7c0 1-.2 1.8-.5 2.3-.4.4-1 .7-1.6.7-.6 0-1-.3-1.4-.8v3.7h-.8v-.3zm3.5-5.4v-3.3c0-1.3-.4-1.9-1.3-1.9s-1.3.6-1.3 1.9v3.3c0 1.2.4 1.8 1.3 1.8s1.3-.6 1.3-1.8zm4.9-5.2c-.8 0-1.2.5-1.3 1.5v.4h-.8v-.3c0-.6.1-1.2.5-1.7a2 2 0 0 1 1.6-.7c1.5 0 2.2 1 2.2 3v4.2c0 .3 0 .6.2 1 0 .3 0 .4-.4.4h-.3l-.2-.1-.1-.5c-.4.5-1 .7-1.6.7s-1.2-.2-1.5-.6c-.4-.4-.6-1-.6-1.7v-.5c0-.5.1-1 .4-1.3.2-.3.5-.6.9-.7l1-.4 1-.5c.2-.1.3-.3.3-.6 0-.4 0-.8-.3-1.1-.2-.3-.5-.5-1-.5zm.1 7c.4 0 .7-.1 1-.4.2-.2.3-.6.3-1.2v-2.5a9 9 0 0 1-.9.3l-.8.3c-.8.4-1.2 1-1.1 1.8 0 1.3.5 1.8 1.5 1.7zm5.5 0h.3v.7H78c-.6 0-1-.1-1.2-.6l-.3-1v-10.1l.3-.1h.5v9.3l.2 1.3c0 .3.2.5.5.5zm1.7-2.1v-2.7c0-1 .2-1.7.6-2.2.4-.5 1-.8 1.7-.8s1.2.3 1.6.8c.5.5.7 1.2.7 2.2v1l-.1.2H81l-.3.1v1.7c0 .6.1 1.1.4 1.4.2.3.6.4 1 .4s.7 0 1-.4c.2-.2.3-.6.4-1v-.4h.7l.1.3a3 3 0 0 1-.6 1.7 2 2 0 0 1-1.6.7 2 2 0 0 1-1.7-.8c-.4-.5-.6-1.2-.6-2.2zm.9-3v.7h2.7v-.7c0-.7 0-1.1-.3-1.4-.2-.3-.6-.5-1-.5s-.8.2-1 .5c-.3.3-.4.7-.4 1.4zm9.3-.7l-.1.2-.3.1h-.1c-.2 0-.3 0-.3-.3s-.2-.6-.4-.8a1 1 0 0 0-.8-.4c-.3 0-.6.2-.8.4s-.3.5-.3.8c0 .3 0 .5.3.8l.9.8 1 .8.8 1c.2.3.3.7.3 1.1a2 2 0 0 1-.7 1.5 2 2 0 0 1-1.5.7c-.7 0-1.2-.2-1.6-.7-.4-.4-.7-1-.7-1.5v-.3h.5c.2 0 .3 0 .4.3 0 .4.2.7.4 1 .3.2.6.3 1 .3a1.3 1.3 0 0 0 1.3-1.3c0-.4-.1-.8-.5-1.2a6 6 0 0 0-1.1-1c-.4-.2-.8-.5-1.2-1a2 2 0 0 1-.5-1.3c0-.5.2-1 .6-1.4.4-.4.8-.6 1.4-.6.5 0 1 .2 1.4.6.3.3.5.8.6 1.4zm-66.3 22v.2l-.3.1h-.2c-.2 0-.3 0-.3-.3s-.1-.6-.3-.8-.5-.4-.8-.4a1 1 0 0 0-.8.4 1 1 0 0 0-.4.8c0 .3.2.5.4.8l.8.8 1 .8c.4.3.7.6.9 1 .2.3.3.7.3 1.1a2 2 0 0 1-.7 1.5 2 2 0 0 1-1.6.7c-.6 0-1.1-.2-1.5-.7a2 2 0 0 1-.7-1.5v-.3h.5c.2 0 .3 0 .3.3 0 .4.2.7.5 1s.6.3 1 .3c.3 0 .6 0 1-.3.2-.3.3-.6.3-1s-.2-.8-.5-1.2a6 6 0 0 0-1.2-1c-.4-.2-.8-.5-1.1-1s-.5-.8-.5-1.3.2-1 .5-1.4a2 2 0 0 1 1.4-.6c.6 0 1 .2 1.4.6.4.3.6.8.6 1.4zm3.9-1.2c-.7 0-1.2.5-1.3 1.5v.4h-.8v-.3c0-.6.2-1.2.5-1.7.4-.4.9-.7 1.6-.7 1.5 0 2.3 1 2.3 3v4.2l.1 1c0 .3 0 .4-.3.4h-.3l-.3-.1v-.5c-.5.5-1 .7-1.7.7a2 2 0 0 1-1.5-.6c-.4-.4-.6-1-.6-1.7v-.5c0-.5.1-1 .4-1.3.2-.3.5-.6.9-.7l1-.4 1-.5c.3-.1.4-.3.4-.6 0-.4-.1-.8-.4-1.1s-.5-.5-1-.5zm.1 7c.5 0 .8-.1 1-.4.2-.2.3-.6.3-1.2v-2.5a9 9 0 0 1-.9.3l-.8.3c-.8.4-1.2 1-1.1 1.8 0 1.3.5 1.8 1.6 1.7zm5-9.2v1.7c0 .1 0 .2.2.2h.6v.7l-.3.1h-.3c-.1 0-.2 0-.2.2v5.8c.1.3.3.5.6.5h.3v.7h-.3c-.6 0-1-.1-1.2-.6l-.2-1v-5.4l-.2-.2h-.3v-.7l.3-.1.1-.2v-1.7l.1-.2.3-.1h.4l.1.3zm2.9.8c-.2 0-.3-.2-.4-.3v-.6c0-.2.2-.3.4-.3.3 0 .4.1.5.3v.6c0 .1-.2.2-.5.2zm.5 1v7.9l-.1.2h-.7l-.1-.2v-8.1l.3-.1h.5v.3zm5.8 1.6l-.1.2-.3.1h-.2c-.1 0-.2 0-.3-.3 0-.3-.1-.6-.3-.8a1 1 0 0 0-.8-.4c-.3 0-.6.2-.8.4s-.3.5-.3.8c0 .3 0 .5.3.8l.9.8 1 .8.8 1c.2.3.3.7.3 1.1a2 2 0 0 1-.7 1.5 2 2 0 0 1-1.5.7c-.7 0-1.2-.2-1.6-.7a2 2 0 0 1-.7-1.5v-.3h.5c.2 0 .3 0 .4.3 0 .4.2.7.4 1 .3.2.6.3 1 .3a1.3 1.3 0 0 0 1.3-1.3c0-.4-.1-.8-.5-1.2a6 6 0 0 0-1.1-1c-.5-.2-.8-.5-1.2-1a2 2 0 0 1-.5-1.3c0-.5.2-1 .6-1.4.3-.4.8-.6 1.4-.6.5 0 1 .2 1.3.6.4.3.6.8.7 1.4zm3.9-4.5c-.5 0-.9.2-1 .5a4 4 0 0 0-.3 1.6v.7l.2.2h1v.7l-.3.1h-.7c-.1 0-.2 0-.2.2v7l-.3.1h-.5V498l-.2-.2h-.3v-.7l.3-.1c.1 0 .2 0 .2-.2v-1.4a6.2 6.2 0 0 1 .3-1.3v-.2l.2-.1v-.1a5.9 5.9 0 0 1 .3-.2c.3-.2.7-.3 1.3-.3h.2l.1.3v.4l-.3.1zm3.5 3.3c-.8 0-1.2.5-1.3 1.5v.4h-.8v-.3c0-.6.1-1.2.5-1.7a2 2 0 0 1 1.6-.7c1.5 0 2.3 1 2.3 3v5.2c.1.3 0 .4-.3.4h-.2l-.3-.1-.1-.5c-.4.5-1 .7-1.6.7s-1.2-.2-1.5-.6c-.4-.4-.6-1-.6-1.7v-.5c0-.5.1-1 .4-1.3.2-.3.5-.6.9-.7l1-.4 1-.5c.2-.1.3-.3.3-.6 0-.4 0-.8-.3-1.1-.2-.3-.5-.5-1-.5zm.1 7c.4 0 .8-.1 1-.4.2-.2.3-.6.3-1.2v-2.5a9 9 0 0 1-.9.3l-.8.3c-.8.4-1.2 1-1.1 1.8 0 1.3.5 1.8 1.5 1.7zm6.2.9a2 2 0 0 1-1.7-.8c-.4-.5-.6-1.2-.6-2.2v-2.7c0-1 .2-1.7.6-2.2a2 2 0 0 1 1.7-.8 2 2 0 0 1 1.7.8c.3.4.5 1 .5 1.6v.3H57l-.1-.4c0-.4-.2-.8-.4-1-.3-.3-.6-.5-1-.5s-.8.2-1 .5c-.3.3-.4.8-.4 1.4v3.3c0 .6.1 1.1.4 1.4.2.3.6.4 1 .4s.7 0 1-.4c.2-.2.4-.6.4-1v-.4h.8v.3c0 .6-.2 1.1-.5 1.7-.4.4-1 .7-1.7.7zm5-10.1v1.7c0 .1 0 .2.2.2h.5l.1.3v.4l-.3.1h-.3c-.1 0-.2 0-.2.2v5.8c.1.3.3.5.6.5h.3v.7h-.3c-.6 0-1-.1-1.2-.6l-.3-1v-5.4c0-.1 0-.2-.2-.2h-.2l-.1-.3v-.4l.3-.1c.2 0 .2 0 .2-.2V495l.4-.1h.4v.3zm2.9.8c-.2 0-.3-.2-.4-.3v-.6c0-.2.2-.3.4-.3s.4.1.5.3v.6l-.5.2zm.5 1v7.9l-.1.2h-.7l-.1-.2v-8.1l.3-.1h.5v.3zm1.8 5.3v-2.7c0-1 .2-1.7.6-2.2.4-.5 1-.8 1.7-.8s1.3.3 1.7.8c.4.5.6 1.2.6 2.2v2.7c0 1-.2 1.7-.6 2.2-.4.5-1 .8-1.7.8s-1.3-.3-1.7-.8c-.4-.5-.6-1.2-.6-2.2zm3.7.3v-3.3c0-.7-.1-1.1-.4-1.4-.2-.3-.6-.5-1-.5s-.8.2-1 .5c-.3.3-.4.7-.4 1.4v3.3c0 .6.1 1 .4 1.4s.6.4 1 .4.8-.1 1-.4c.3-.3.4-.8.4-1.4zm6.3 2.3v-5.6c0-1.3-.5-1.9-1.3-1.9-1 0-1.4.6-1.4 1.9v5.8h-.8v-8.3l.3-.1h.5v.7c.4-.5.8-.8 1.4-.8.7 0 1.2.2 1.6.7.4.5.6 1.3.6 2.3v5.3l-.1.2h-.7l-.1-.2zm6.6-6.3l-.1.2-.3.1c-.2 0-.3 0-.3-.3s-.2-.6-.4-.8-.5-.4-.8-.4a1 1 0 0 0-.8.4 1 1 0 0 0-.3.8c0 .3 0 .5.3.8l.9.8 1 .8.8 1c.2.3.3.7.3 1.1a2 2 0 0 1-.7 1.5 2 2 0 0 1-1.5.7c-.7 0-1.2-.2-1.6-.7-.4-.4-.7-1-.7-1.5v-.3h.5c.2 0 .3 0 .4.3 0 .4.2.7.4 1s.6.3 1 .3.7 0 1-.3c.2-.3.3-.6.3-1s-.1-.8-.5-1.2a6 6 0 0 0-1.1-1c-.4-.2-.8-.5-1.2-1s-.5-.8-.5-1.3.2-1 .6-1.4c.4-.4.8-.6 1.4-.6.5 0 1 .2 1.4.6.3.3.5.8.6 1.4zM22.3 523h-1.4v3.9l-.1.2h-.7l-.1-.2v-11.5l.3-.1h2c.8 0 1.4.2 1.8.7s.7 1.2.7 2.2v2c0 .9-.2 1.6-.7 2s-1 .8-1.8.8zm-1.4-6.5v5.7h1.3c.5 0 1-.2 1.3-.5.3-.4.4-.9.4-1.6v-1.9c0-.7-.1-1.2-.4-1.6-.3-.3-.8-.5-1.3-.5H21v.4zm7.8 3.2l-.4-.1c-.4 0-.7.2-.8.5v6.8l-.2.2-.2.1h-.5v-8.4l.3-.1h.4l.1.3v.2a2 2 0 0 1 1.2-.5h.3l.1.3v.6h-.3zm2.2-1.7c-.2 0-.4-.2-.5-.3v-.6c.1-.2.3-.3.5-.3s.4.1.5.3v.6l-.5.2zm.4 1v8.1h-.8v-8.3l.3-.1h.5v.3zm5.7 7.9v-5.6c0-1.3-.5-1.9-1.4-1.9s-1.3.6-1.3 1.9v5.6l-.1.2h-.7l-.1-.2v-8.1l.3-.1h.5v.7c.4-.5.8-.8 1.4-.8.7 0 1.2.2 1.6.7.4.5.6 1.3.6 2.3v5.5H37v-.2zm4.9.4a2 2 0 0 1-1.7-.8c-.4-.5-.6-1.2-.6-2.2v-2.7c0-1 .2-1.7.6-2.2a2 2 0 0 1 1.7-.8c.7 0 1.3.3 1.6.8.4.4.6 1 .6 1.6v.3h-.8v-.4c-.1-.4-.2-.8-.5-1-.2-.3-.5-.5-1-.5-.4 0-.7.2-1 .5-.2.3-.3.8-.3 1.4v3.3c0 .6 0 1.1.3 1.4.3.3.6.4 1 .4.5 0 .8 0 1-.4.3-.2.4-.6.4-1l.1-.4h.7v.3c0 .6-.1 1.1-.5 1.7-.4.4-.9.7-1.6.7zm4.5-9.3c-.2 0-.4-.2-.5-.3v-.6c.1-.2.3-.3.5-.3s.4.1.5.3v.6l-.5.2zm.4 1v8.1H46v-8.3l.3-.1h.5v.3zm2.1 11v-11.2l.3-.1h.5v.6c.4-.4.8-.6 1.4-.7.7 0 1.2.2 1.6.7.4.5.6 1.3.6 2.3v2.7c0 1-.2 1.8-.6 2.3-.4.4-.9.7-1.6.7-.6 0-1-.3-1.3-.8v3.4l-.1.3H49l-.1-.3zm3.5-5.4v-3.3c0-1.3-.4-1.9-1.3-1.9s-1.3.6-1.3 1.9v3.3c0 1.2.4 1.8 1.3 1.8s1.3-.6 1.3-1.8zm4.9-5.2c-.8 0-1.3.5-1.3 1.5l-.1.4h-.7l-.1-.3c0-.6.2-1.2.5-1.7.4-.4 1-.7 1.7-.7 1.5 0 2.2 1 2.2 3v4.2l.1 1c.1.3 0 .4-.3.4H59l-.2-.1-.2-.5c-.4.5-.9.7-1.5.7s-1.2-.2-1.6-.6c-.4-.4-.5-1-.5-1.7v-.5c0-.5 0-1 .3-1.3.3-.3.6-.6 1-.7l1-.4 1-.5c.2-.1.3-.3.3-.6a2 2 0 0 0-.3-1.1c-.2-.3-.6-.5-1-.5zm0 7c.5 0 .8-.1 1-.4.2-.2.3-.6.3-1.2v-2.5a9 9 0 0 1-.8.3l-.8.3c-.9.4-1.2 1-1.2 1.8 0 1.3.5 1.8 1.6 1.7zm5.6 0h.2l.1.3v.4h-.3c-.6 0-1-.1-1.3-.6l-.2-1v-10.1l.3-.1h.5v9.3l.1 1.3c.1.3.3.5.6.5zm1.7-2.1v-2.7c0-1 .2-1.7.6-2.2.4-.5 1-.8 1.6-.8s1.3.3 1.7.8c.4.5.6 1.2.6 2.2v1.2h-3.3l-.3.1v1.7c0 .6 0 1.1.3 1.4.3.3.6.4 1 .4.5 0 .8 0 1-.4.3-.2.4-.6.4-1v-.4h.8v.3c0 .6-.1 1.1-.5 1.7-.4.4-1 .7-1.7.7a2 2 0 0 1-1.6-.8c-.4-.5-.6-1.2-.6-2.2zm.9-3v.7h2.7v-.7c0-.7 0-1.1-.3-1.4-.3-.3-.6-.5-1-.5-.5 0-.8.2-1 .5-.3.3-.4.7-.4 1.4zm9.2-.7v.2l-.3.1h-.2c-.2 0-.3 0-.3-.3s-.1-.6-.3-.8a1 1 0 0 0-.8-.4c-.3 0-.6.2-.8.4s-.4.5-.4.8c0 .3.2.5.4.8l.8.8 1 .8c.4.3.7.6.9 1 .2.3.3.7.3 1.1a2 2 0 0 1-.7 1.5 2 2 0 0 1-1.6.7c-.6 0-1.1-.2-1.5-.7a2 2 0 0 1-.7-1.5v-.3h.5c.2 0 .3 0 .3.3 0 .4.2.7.5 1 .3.2.6.3 1 .3a1.3 1.3 0 0 0 1.3-1.3 2 2 0 0 0-.5-1.2 6 6 0 0 0-1.2-1c-.4-.2-.8-.5-1.1-1a2 2 0 0 1-.5-1.3c0-.5.2-1 .5-1.4a2 2 0 0 1 1.4-.6c.6 0 1 .2 1.4.6.4.3.6.8.6 1.4zm-50.5 17v11.5l-.3.1h-.5v-.7a2 2 0 0 1-1.4.8c-.7 0-1.2-.3-1.6-.7-.4-.5-.6-1.3-.6-2.3v-2.7c0-1 .2-1.8.6-2.3a2 2 0 0 1 1.6-.7c.6 0 1 .3 1.4.8v-4l.3-.1h.5v.3zm-3.5 5.7v3.3c0 1.2.5 1.8 1.3 1.8 1 0 1.4-.6 1.4-1.8v-3.3c0-1.3-.5-1.9-1.4-1.9-.8 0-1.3.6-1.3 1.9zm6-3.3c-.2 0-.3-.2-.4-.3v-.6c0-.2.2-.3.4-.3s.4.1.5.3v.6c0 .1-.2.2-.5.2zm.5 1v7.9l-.1.2h-.7l-.1-.2v-8.1l.3-.1h.5v.3zm4.1-2.9c-.5 0-.8.2-1 .5a4 4 0 0 0-.2 1.6v.7c0 .1 0 .2.2.2h.9v.7l-.3.1h-.6c-.1 0-.2 0-.2.2v7l-.3.1h-.5V542c0-.1-.1-.2-.3-.2h-.2l-.1-.3v-.4l.3-.1c.2 0 .2 0 .2-.2v-1.4a6.4 6.4 0 0 1 .3-1.3l.1-.2.1-.1.1-.1a4 4 0 0 1 .3-.2c.2-.2.6-.3 1.2-.3h.3v.7l-.3.1zm3.6 0c-.5 0-.9.2-1 .5a4 4 0 0 0-.3 1.6v.7l.2.2h1v.7l-.3.1h-.7s-.2 0-.2.2v7l-.3.1h-.5V542c0-.1 0-.2-.2-.2h-.3v-.7l.3-.1c.1 0 .2 0 .2-.2v-1.4a6.4 6.4 0 0 1 .3-1.3v-.2l.2-.1v-.1a4 4 0 0 1 .3-.2c.3-.2.7-.3 1.3-.3h.2l.1.3v.4l-.3.1zm1.9 1.9c-.3 0-.4-.2-.5-.3v-.6c0-.2.2-.3.5-.3.2 0 .3.1.4.3v.6l-.4.2zm.4 1v8.1h-.8v-8.3l.3-.1h.4l.1.3zm4.2 8.3a2 2 0 0 1-1.7-.8c-.4-.5-.6-1.2-.6-2.2v-2.7c0-1 .2-1.7.6-2.2a2 2 0 0 1 1.7-.8 2 2 0 0 1 1.6.8c.4.4.6 1 .6 1.6v.3h-.8v-.4c-.1-.4-.2-.8-.5-1-.2-.3-.5-.5-1-.5-.4 0-.7.2-1 .5-.2.3-.3.8-.3 1.4v3.3c0 .6 0 1.1.3 1.4.3.3.6.4 1 .4.5 0 .8 0 1-.4.3-.2.4-.6.4-1l.1-.4h.7v.3c0 .6-.1 1.1-.5 1.7-.4.4-1 .7-1.6.7zm4.8-8.3v5.6c0 1.2.5 1.8 1.4 1.8.9 0 1.3-.6 1.3-1.8v-5.8l.3-.1h.5v8.4H49l-.1-.2v-.4c-.3.5-.8.8-1.4.8-.6 0-1.2-.3-1.6-.7-.3-.5-.5-1.3-.5-2.3v-5.5l.3-.1h.5v.3zm7 7.4h.3v.7h-.3c-.6 0-1-.1-1.2-.6l-.2-1v-10.1l.3-.1h.4l.1.3V548c.2.3.3.5.6.5zm2.8-9.2v1.7c0 .1 0 .2.2.2h.5l.1.3v.4l-.3.1h-.3c-.2 0-.2 0-.2.2v5.8c.1.3.3.5.6.5h.3v.7l-.3.1c-.6 0-1-.2-1.2-.7-.2-.3-.2-.6-.3-1v-5.4c0-.1 0-.2-.2-.2h-.2l-.1-.3v-.4l.3-.1c.1 0 .2 0 .2-.2V539l.3-.1h.5v.3zm2.3 7.1v-2.7c0-1 .2-1.7.6-2.2.4-.5 1-.8 1.7-.8s1.2.3 1.6.8c.4.5.7 1.2.7 2.2v1l-.1.2h-3.3l-.3.1v1.7c0 .6.1 1.1.4 1.4s.5.4 1 .4c.4 0 .7 0 1-.4.2-.2.3-.6.4-1v-.4h.7l.1.3a3 3 0 0 1-.6 1.7 2 2 0 0 1-1.6.7 2 2 0 0 1-1.7-.8c-.4-.5-.6-1.2-.6-2.2zm.9-3v.7H62v-.7c0-.7 0-1.1-.3-1.4-.3-.3-.6-.5-1-.5-.5 0-.8.2-1 .5-.3.3-.4.7-.4 1.4zm1.4-3.4l-.2-.2v-2h.8v.3l-.3 1.6v.2h-.3zm7.9 2.7l-.1.2-.3.1H68c-.2 0-.3 0-.4-.3 0-.3-.1-.6-.3-.8s-.5-.4-.8-.4a1 1 0 0 0-.8.4 1 1 0 0 0-.3.8c0 .3 0 .5.3.8l.9.8 1 .8.8 1c.2.3.3.7.3 1.1a2 2 0 0 1-.7 1.5 2 2 0 0 1-1.5.7c-.7 0-1.2-.2-1.6-.7a2 2 0 0 1-.7-1.5v-.3h.5c.2 0 .3 0 .4.3 0 .4.2.7.4 1s.6.3 1 .3c.3 0 .7 0 1-.3.2-.3.3-.6.3-1s-.1-.8-.5-1.2a6 6 0 0 0-1.1-1c-.5-.2-.8-.5-1.2-1s-.5-.8-.5-1.3.2-1 .6-1.4c.4-.4.8-.6 1.4-.6.5 0 1 .2 1.3.6.4.3.6.8.7 1.4zM20.7 370.4v1.6h3.4l.2.1v.7H20v-2.5c0-1 .4-2 1.2-3a44.2 44.2 0 0 0 2.3-3.2l.1-.6c0-1.2-.5-1.8-1.4-1.8-.4 0-.8.2-1 .5-.3.3-.4.7-.4 1.3v.6H20v-.3c0-.9.1-1.6.5-2.1s1-.8 1.7-.8c.4 0 .8 0 1.1.3.4.1.6.4.7.7l.4.8v.8c0 1-.4 2-1.2 3a79.1 79.1 0 0 1-2 2.5l-.3.7v.7zm8.6-2.2v-.1c0-.2.1-.3.3-.3h2.9c.1 0 .2 0 .2.3v.1c0 .3 0 .4-.2.4h-3s-.2-.1-.2-.4zm13.4 4.7h-.4l-.1-.1-.1-.2-.3-1.3v-.3h-3.2v.3l-.3 1.3v.2h-.8v-.2l2-11.3c0-.2.1-.2.2-.3h1l.1.3 2.2 11.3v.2h-.3zm-2.5-10.3l-1.3 7.2v.3h2.7v-.3l-1.3-7.2h-.1zm8 9.9V367c0-1.2-.4-1.8-1.3-1.8-1 0-1.4.6-1.4 1.8v5.8h-.8v-8.4h.8v.6c.4-.5.8-.7 1.4-.7.7 0 1.2.2 1.6.7.4.5.6 1.3.6 2.3v5.5h-.9l-.1-.3zm4.9-7.4c-.7 0-1.2.5-1.3 1.5v.3l-.2.1H51v-.3c0-.6.2-1.2.5-1.7.4-.5.9-.7 1.6-.7 1.5 0 2.3 1 2.3 3v4.2l.1 1c0 .2 0 .4-.3.4h-.3l-.3-.1v-.5c-.5.4-1 .6-1.7.6-.6 0-1.1-.2-1.5-.6s-.6-1-.6-1.6v-.6c0-.5.1-.9.4-1.2.2-.3.5-.6.9-.7l1-.5c.4-.1.8-.2 1-.4s.4-.4.4-.6c0-.5-.1-.8-.4-1.1-.2-.3-.5-.5-1-.5zm.1 7c.5 0 .8-.2 1-.4.2-.3.3-.7.3-1.2v-2.6l-.9.4-.8.3c-.8.4-1.2 1-1.1 1.8 0 1.2.5 1.8 1.5 1.7zm5.5-.1l.3.1v.7h-.3c-.6 0-1-.2-1.2-.6l-.2-1V361h.8v9.3l.1 1.2c0 .3.2.5.5.5zm1.3-7.4l.1-.2h.7l.2.2 1.4 7.3h.1l1.5-7.3v-.2h.8v.3l-2 9.4c-.1.6-.3 1-.5 1.4-.3.2-.6.4-1.1.4h-.3v-.7h.3l.5-.4c.2-.2.3-.5.3-.8l-.8-4.2-1.1-5.2zm10 1.6v.3h-.5c-.2 0-.3 0-.3-.2a1 1 0 0 0-.4-.8c-.2-.3-.4-.4-.7-.4s-.6.1-.8.3a1 1 0 0 0-.4.8c0 .3.2.6.4 1s.5.5.8.7a45 45 0 0 1 1.9 1.7l.3 1.2a2 2 0 0 1-.7 1.5c-.5.4-1 .6-1.6.6-.6 0-1.1-.2-1.6-.6-.4-.4-.6-1-.6-1.5v-.3h.5c.2 0 .3 0 .3.3 0 .4.2.7.5 1 .2.2.6.3 1 .3.3 0 .6-.1.9-.4s.4-.6.4-1-.2-.7-.5-1a6 6 0 0 0-1.2-1l-1.1-1a2 2 0 0 1-.5-1.4c0-.6.1-1 .5-1.4.4-.4.9-.6 1.4-.6s1 .2 1.4.5.6.8.6 1.4zm1.7 3.8v-2.7c0-1 .2-1.8.6-2.3.4-.5 1-.7 1.6-.7s1.3.2 1.7.7c.4.5.6 1.3.6 2.3v1.2h-3.7v1.9c0 .6 0 1 .3 1.4.3.3.6.4 1 .4s.8-.1 1-.4c.2-.3.4-.6.4-1v-.4h.8v.2c0 .6-.1 1.2-.5 1.7s-1 .7-1.7.7a2 2 0 0 1-1.6-.7c-.4-.5-.6-1.3-.6-2.3zm.8-3v.7h2.8v-.8c0-.6 0-1-.3-1.3-.3-.3-.6-.5-1-.5s-.8.2-1 .5c-.3.3-.5.7-.5 1.3zm13.3-5.7v11.2l-.1.3h-.8v-.6c-.3.5-.8.7-1.4.7-.7 0-1.2-.2-1.6-.7-.4-.5-.6-1.2-.6-2.3v-2.6c0-1 .2-1.8.6-2.3a2 2 0 0 1 1.6-.7c.6 0 1 .2 1.4.7v-4h.8v.3zm-3.6 5.6v3.4c0 1.2.5 1.8 1.3 1.8 1 0 1.4-.6 1.4-1.8v-3.4c0-1.2-.5-1.8-1.4-1.8-.8 0-1.3.6-1.3 1.8zm5.4 3.1v-2.7c0-1 .2-1.8.6-2.3.4-.5 1-.7 1.7-.7s1.3.2 1.7.7c.4.5.6 1.3.6 2.3v.9l-.1.3h-3.6v1.9c0 .6.1 1 .4 1.4.2.3.6.4 1 .4s.7-.1 1-.4l.4-1v-.4c0-.1.1 0 .2 0h.6v.2c0 .6-.2 1.2-.6 1.7-.3.5-.9.7-1.6.7a2 2 0 0 1-1.7-.7c-.4-.5-.6-1.3-.6-2.3zm1-3v.7h2.7v-.8c0-.6-.1-1-.4-1.3-.2-.3-.6-.5-1-.5s-.8.2-1 .5c-.3.3-.4.7-.4 1.3zm9.2-.8v.3h-.5c-.2 0-.3 0-.3-.2 0-.3-.2-.6-.4-.8-.2-.3-.5-.4-.8-.4s-.6.1-.8.3a1 1 0 0 0-.3.8l.3 1c.2.3.6.5.9.7a45 45 0 0 1 1.8 1.7c.3.4.4.8.3 1.2a2 2 0 0 1-.7 1.5c-.4.4-1 .6-1.5.6-.7 0-1.2-.2-1.6-.6a3 3 0 0 1-.7-1.5l.1-.3h.4c.3 0 .4 0 .4.3 0 .4.2.7.4 1 .3.2.6.3 1 .3s.7-.1 1-.4.4-.6.4-1-.2-.7-.6-1a6 6 0 0 0-1.1-1l-1.2-1a2 2 0 0 1-.5-1.4c0-.6.2-1 .6-1.4.4-.4.8-.6 1.4-.6s1 .2 1.4.5.6.8.6 1.4zm5 3.8v-2.7c0-1 .2-1.8.6-2.3.5-.5 1-.7 1.7-.7s1.3.2 1.7.7c.4.5.6 1.3.6 2.3v2.6c0 1-.2 1.8-.6 2.3-.4.5-1 .7-1.7.7s-1.2-.2-1.7-.7c-.4-.5-.6-1.3-.6-2.3zm3.7.3v-3.4c0-.6-.1-1-.4-1.3-.2-.3-.6-.5-1-.5s-.8.2-1 .5c-.3.3-.4.7-.4 1.3v3.4c0 .6.1 1 .4 1.4.2.3.6.4 1 .4s.8-.1 1-.4c.3-.3.4-.8.4-1.4zm2.8 2.2V361h.8v4c.4-.5.8-.7 1.4-.7.7 0 1.2.2 1.6.7.4.5.6 1.3.6 2.3v2.6c0 1-.2 1.8-.6 2.3-.4.5-1 .8-1.6.7-.6 0-1-.2-1.4-.7v.6h-.8v-.3zm3.5-2.2v-3.4c0-1.2-.4-1.8-1.3-1.8-1 0-1.4.6-1.4 1.8v3.4c0 1.2.5 1.8 1.4 1.8.9 0 1.3-.6 1.3-1.8zm2 4.8c.3 0 .5-.2.6-.4l.2-1.4v-8.9h.8v10.4c-.3.7-.8 1.1-1.6 1.1h-.3v-.7h.3zm.8-11.7a.5.5 0 0 1-.1-.5c0-.2.2-.3.3-.4.2 0 .4 0 .6.2.1.1.2.3.1.5 0 .2-.2.3-.4.4-.2 0-.3 0-.5-.2zm2.7 6.6v-2.7c0-1 .2-1.8.6-2.3.4-.5 1-.7 1.7-.7s1.2.2 1.7.7c.4.5.6 1.3.6 2.3v.9l-.1.3h-3.6v1.9c0 .6.1 1 .4 1.4.2.3.6.4 1 .4s.7-.1 1-.4l.4-1v-.4c0-.1.1 0 .2 0h.6v.2c0 .6-.2 1.2-.6 1.7-.3.5-.9.7-1.6.7a2 2 0 0 1-1.7-.7c-.4-.5-.6-1.3-.6-2.3zm.9-3v.7h2.8v-.8c0-.6 0-1-.3-1.3-.2-.3-.6-.5-1-.5s-.8.2-1 .5c-.3.3-.4.7-.4 1.3zm7.6 6a2 2 0 0 1-1.6-.8c-.4-.5-.6-1.3-.6-2.3v-2.6c0-1 .2-1.8.6-2.3a2 2 0 0 1 1.6-.7c.8 0 1.3.2 1.7.7.4.5.6 1 .6 1.7v.2l-.3.1h-.5v-.4c-.1-.5-.3-.8-.5-1-.2-.4-.6-.5-1-.5s-.7.2-1 .5c-.2.3-.4.7-.4 1.3v3.4c0 .6.2 1 .4 1.4.3.3.6.4 1 .4s.8-.1 1-.4c.2-.3.4-.6.4-1v-.4h.8v.2c0 .6-.1 1.2-.5 1.7s-1 .7-1.7.7zm5-10.1v1.7c0 .1 0 .2.2.2h.6v.7h-.6c-.1 0-.2.1-.2.3v5.7c.2.3.3.5.6.5l.3.1v.7h-.3c-.6 0-1-.2-1.2-.6l-.2-1v-5.4c0-.2-.1-.2-.2-.2h-.3v-.8h.3l.1-.2v-1.7l.1-.3h.7l.1.3zm2.9.7c-.2 0-.3 0-.4-.3s-.1-.3 0-.5c0-.2.2-.3.4-.3.3 0 .4.1.5.3v.5c0 .2-.2.3-.5.3zm.5 1.1v8.1h-.9l-.1-.3v-8.1h.8v.3zm4.1-2.9c-.5 0-.8.2-1 .5a4 4 0 0 0-.2 1.6v.7s0 .2.2.2h.9l.1.3v.4h-1l-.2.2v7.1h-.8v-7.1l-.2-.1-.3-.1v-.7h.3l.1-.2v-1.5a6.3 6.3 0 0 1 .4-1.3v-.1l.1-.1.1-.1a4.8 4.8 0 0 1 .3-.3l1.2-.2h.3v.7h-.3zm5.2 4.4v.3h-.5c-.2 0-.3 0-.3-.2a1 1 0 0 0-.4-.8c-.2-.3-.4-.4-.8-.4s-.5.1-.7.3a1 1 0 0 0-.4.8c0 .3.1.6.4 1l.8.7a45 45 0 0 1 1.9 1.7l.3 1.2a2 2 0 0 1-.7 1.5c-.5.4-1 .6-1.6.6-.6 0-1.1-.2-1.6-.6-.4-.4-.6-1-.6-1.5v-.3h.5c.2 0 .3 0 .3.3 0 .4.2.7.5 1 .2.2.6.3 1 .3.3 0 .6-.1.9-.4s.4-.6.4-1-.2-.7-.5-1a6 6 0 0 0-1.2-1l-1.1-1a2 2 0 0 1-.6-1.4c0-.6.2-1 .6-1.4.4-.4.9-.6 1.4-.6s1 .2 1.4.5.6.8.6 1.4zM22.3 390.7h-1.4v3.8l-.1.3h-.7l-.1-.3V383h2.3c.8 0 1.4.2 1.8.7s.7 1.2.7 2.2v1.9c0 1-.2 1.7-.7 2.1s-1 .8-1.8.8zm-1.4-6.6v5.7h1.3c.5 0 1-.1 1.3-.5.3-.3.4-.8.4-1.5v-2c0-.6-.1-1.1-.4-1.5s-.8-.5-1.3-.5H21v.3zM26 392v-2.7c0-1 .2-1.8.6-2.3.4-.5 1-.7 1.7-.7s1.3.2 1.7.7c.4.5.6 1.3.6 2.3v2.6c0 1-.2 1.8-.6 2.3-.4.5-1 .7-1.7.7s-1.3-.2-1.7-.7c-.4-.5-.6-1.3-.6-2.3zm3.7.3v-3.4c0-.6-.1-1-.4-1.3-.2-.3-.6-.5-1-.5s-.8.2-1 .5c-.3.3-.4.7-.4 1.3v3.4c0 .6.1 1 .4 1.4.2.3.6.4 1 .4s.8-.1 1-.4c.3-.3.4-.8.4-1.4zm3.2-6.7c-.2 0-.4 0-.5-.3v-.5c.1-.2.3-.3.5-.3s.4.1.5.3v.5c-.1.2-.3.3-.5.3zm.4 1.1v8.1h-.8v-8.4h.7l.1.3zm5.6 7.8V389c0-1.2-.4-1.8-1.3-1.8-1 0-1.4.6-1.4 1.8v5.8h-.8v-8.4h.8v.6c.4-.5.8-.7 1.4-.7.7 0 1.2.2 1.6.7.4.5.6 1.3.6 2.3v5.5H39l-.1-.3zm3.7-9.6v1.7c0 .1 0 .2.2.2h.6v.7h-.6c-.1 0-.2.1-.2.3v5.7c.2.3.3.5.6.5l.3.1v.7h-.3c-.6 0-1-.2-1.2-.6l-.2-1v-5.4c0-.2-.1-.2-.2-.2h-.3v-.8h.3l.1-.2v-1.7l.1-.3h.7l.1.3zm6.2 3.3v.3h-.5c-.1 0-.2 0-.3-.2 0-.3-.1-.6-.3-.8-.3-.3-.5-.4-.8-.4s-.6.1-.8.3a1 1 0 0 0-.3.8c0 .3 0 .6.3 1l.9.7a45 45 0 0 1 1.8 1.7l.3 1.2a2 2 0 0 1-.7 1.5c-.4.4-1 .6-1.6.6a2 2 0 0 1-1.5-.6 2 2 0 0 1-.7-1.5v-.3h.5c.2 0 .3 0 .3.3 0 .4.2.7.5 1 .3.2.6.3 1 .3.3 0 .7-.1 1-.4s.3-.6.3-1-.2-.7-.5-1a6 6 0 0 0-1.2-1l-1.1-1a2 2 0 0 1-.5-1.4c0-.6.2-1 .5-1.4.4-.4.9-.6 1.4-.6s1 .2 1.4.5.6.8.6 1.4zm7.4-4.4c-.5 0-.9.2-1 .5a4 4 0 0 0-.3 1.6v.7l.2.2h1v.7h-1l-.1.2v6.8l-.1.3H54v-7.1l-.2-.1-.3-.1v-.7h.3l.2-.2v-1.5a6.3 6.3 0 0 1 .3-1.3v-.1l.2-.1v-.1a4.8 4.8 0 0 1 .3-.3l1.3-.2h.2l.1.3v.4h-.3zm1.2 8.2v-2.7c0-1 .3-1.8.7-2.3.4-.5 1-.7 1.6-.7s1.3.2 1.7.7c.4.5.6 1.3.6 2.3v2.6c0 1-.2 1.8-.6 2.3-.4.5-1 .7-1.7.7s-1.2-.2-1.6-.7c-.4-.5-.7-1.3-.7-2.3zm3.7.3v-3.4c0-.6-.1-1-.4-1.3-.2-.3-.5-.5-1-.5s-.7.2-1 .5c-.2.3-.4.7-.4 1.3v3.4c0 .6.2 1 .4 1.4.3.3.6.4 1 .4s.8-.1 1-.4c.3-.3.4-.8.4-1.4zm4.9-5h-.4c-.4 0-.6.1-.7.5l-.1 1.2v5.5l-.1.3h-.8v-8.4h.8v.5c.4-.3.8-.5 1.3-.5h.3v.9H66zm2.7-2.4v1.7c0 .1 0 .2.2.2h.5l.1.3v.4h-.6c-.2 0-.2.1-.2.3v5.7c.1.3.3.5.6.5l.3.1v.7h-.3c-.6 0-1-.2-1.2-.6-.2-.3-.2-.7-.3-1v-5.4c0-.2 0-.2-.2-.2h-.2l-.1-.4v-.4h.3c.1 0 .2 0 .2-.2v-2h.8v.3zm6.3 3.3c0 .2-.1.3-.2.3h-.4c-.2 0-.3 0-.3-.2 0-.3-.2-.6-.4-.8-.2-.3-.5-.4-.8-.4s-.5.1-.8.3a1 1 0 0 0-.3.8c0 .3.1.6.4 1l.8.7a45 45 0 0 1 1.8 1.7 2 2 0 0 1-.4 2.7c-.4.4-.9.6-1.5.6s-1.2-.2-1.6-.6c-.4-.4-.6-1-.6-1.5v-.3h.5c.2 0 .3 0 .3.3 0 .4.2.7.5 1 .2.2.5.3.9.3s.7-.1 1-.4.4-.6.4-1-.2-.7-.5-1a6 6 0 0 0-1.2-1l-1.1-1a2 2 0 0 1-.6-1.4c0-.6.2-1 .6-1.4.4-.4.9-.6 1.4-.6s1 .2 1.4.5.6.8.6 1.4zm1.3 6.1l.1-.4.4-.1c.2 0 .4 0 .5.2.1.2.2.4 0 .7 0 .4-.2.7-.6 1l-.1.1h-.1c-.1-.1-.1-.2 0-.2l.2-.6-.2-.3c-.2-.1-.2-.3-.2-.4zm-54 18.4h-1.4v3.8l-.1.3h-.7l-.1-.3V405h2.3c.8 0 1.4.2 1.8.7s.7 1.2.7 2.2v1.9c0 1-.2 1.7-.7 2.1s-1 .8-1.8.8zm-1.4-6.6v5.7h1.3c.5 0 1-.1 1.3-.5.3-.3.4-.8.4-1.5v-2c0-.6-.1-1.1-.4-1.5s-.8-.5-1.3-.5H21v.3zM26 414v-2.7c0-1 .2-1.8.6-2.3.4-.5 1-.7 1.7-.7s1.3.2 1.7.7c.4.5.6 1.3.6 2.3v2.6c0 1-.2 1.8-.6 2.3-.4.5-1 .7-1.7.7s-1.3-.2-1.7-.7c-.4-.5-.6-1.3-.6-2.3zm3.7.3v-3.4c0-.6-.1-1-.4-1.3-.2-.3-.6-.5-1-.5s-.8.2-1 .5c-.3.3-.4.7-.4 1.3v3.4c0 .6.1 1 .4 1.4.2.3.6.4 1 .4s.8-.1 1-.4c.3-.3.4-.8.4-1.4zm3.2-6.7c-.2 0-.4 0-.5-.3v-.5c.1-.2.3-.3.5-.3s.4.1.5.3v.5c-.1.2-.3.3-.5.3zm.4 1.1v8.1h-.8v-8.4h.7l.1.3zm5.6 7.8V411c0-1.2-.4-1.8-1.3-1.8-1 0-1.4.6-1.4 1.8v5.8h-.8v-8.4h.8v.6c.4-.5.8-.7 1.4-.7.7 0 1.2.2 1.6.7.4.5.6 1.3.6 2.3v5.5H39l-.1-.3zm3.7-9.6v1.7c0 .1 0 .2.2.2h.6v.7h-.6c-.1 0-.2.1-.2.3v5.7c.2.3.3.5.6.5l.3.1v.7h-.3c-.6 0-1-.2-1.2-.6l-.2-1v-5.4c0-.2-.1-.2-.2-.2h-.3v-.8h.3l.1-.2v-1.7l.1-.3h.7l.1.3zm6.2 3.3v.3h-.5c-.1 0-.2 0-.3-.2 0-.3-.1-.6-.3-.8-.3-.3-.5-.4-.8-.4s-.6.1-.8.3a1 1 0 0 0-.3.8c0 .3 0 .6.3 1l.9.7a45 45 0 0 1 1.8 1.7l.3 1.2a2 2 0 0 1-.7 1.5c-.4.4-1 .6-1.6.6a2 2 0 0 1-1.5-.6 2 2 0 0 1-.7-1.5v-.3h.5c.2 0 .3 0 .3.3 0 .4.2.7.5 1 .3.2.6.3 1 .3.3 0 .7-.1 1-.4s.3-.6.3-1-.2-.7-.5-1a6 6 0 0 0-1.2-1l-1.1-1a2 2 0 0 1-.5-1.4c0-.6.2-1 .5-1.4.4-.4.9-.6 1.4-.6s1 .2 1.4.5.6.8.6 1.4zm7.4-1.1c-.8 0-1.3.5-1.4 1.5v.3l-.2.1H54l-.1-.3c0-.6.2-1.2.5-1.7.4-.5 1-.7 1.7-.7 1.5 0 2.2 1 2.2 3v4.2l.1 1c0 .2 0 .4-.3.4h-.3l-.2-.1-.2-.5a2 2 0 0 1-1.5.6c-.7 0-1.2-.2-1.6-.6s-.6-1-.6-1.6v-.6c0-.5.2-.9.4-1.2.3-.3.6-.6 1-.7l1-.5 1-.4.3-.6c0-.5-.1-.8-.3-1.1-.3-.3-.6-.5-1-.5zm0 7c.5 0 .8-.2 1-.4.2-.3.3-.7.3-1.2v-2.6l-.8.4-.8.3c-.9.4-1.3 1-1.2 1.8 0 1.2.5 1.8 1.6 1.7zm0-8.6H56v-.2l-.4-1.6c-.1-.2 0-.4.3-.4h.1c.3 0 .4.2.4.4v1.7l-.1.1zm9.7 1.6c-.8 0-1.3.5-1.3 1.5l-.1.3-.2.1h-.5l-.1-.3c0-.6.2-1.2.5-1.7.4-.5 1-.7 1.7-.7 1.5 0 2.2 1 2.2 3v4.2l.1 1c.1.2 0 .4-.3.4h-.3l-.2-.1-.2-.5a2 2 0 0 1-1.5.6c-.7 0-1.2-.2-1.6-.6s-.5-1-.5-1.6v-.6c0-.5 0-.9.3-1.2.3-.3.6-.6 1-.7l1-.5 1-.4.3-.6c0-.5-.1-.8-.3-1.1-.2-.3-.6-.5-1-.5zm0 7c.5 0 .8-.2 1-.4.2-.3.3-.7.3-1.2v-2.6l-.8.4-.8.3c-.9.4-1.2 1-1.2 1.8 0 1.2.5 1.8 1.6 1.7zm8.6-5.1v5.5l-.1.3h-.6l-.1-.3V411c0-1.2-.4-1.8-1.3-1.8-1 0-1.4.6-1.4 1.8v5.8h-1v-8.4h.8v.6c.4-.5.8-.7 1.4-.7.8 0 1.4.3 1.8 1 .4-.6 1-1 1.7-1s1.3.2 1.6.7c.4.5.6 1.3.6 2.3v5.5h-.8v-5.9c0-1.2-.5-1.8-1.4-1.8-.9 0-1.3.6-1.3 1.8zm5.3 3v-2.7c0-1 .2-1.8.6-2.3.4-.5 1-.7 1.7-.7s1.2.2 1.6.7c.5.5.7 1.3.7 2.3v.9l-.1.3h-3.6v1.9c0 .6.1 1 .4 1.4.2.3.5.4 1 .4.4 0 .7-.1 1-.4l.4-1v-.4c0-.1.1 0 .2 0h.5l.1.2c0 .6-.2 1.2-.6 1.7-.3.5-.9.7-1.6.7a2 2 0 0 1-1.7-.7c-.4-.5-.6-1.3-.6-2.3zm.9-3v.7h2.7v-.8c0-.6 0-1-.3-1.3-.2-.3-.6-.5-1-.5s-.8.2-1 .5c-.3.3-.4.7-.4 1.3zm1.4-3.5l-.2-.1v-2h1v.3l-.4 1.6v.2H82zm5.5 8.5l.3.1v.7h-.3c-.6 0-1-.2-1.2-.6l-.2-1V405h.8v9.3l.1 1.2c0 .3.2.5.5.5zm2.4-8.4c-.3 0-.4 0-.5-.3v-.5c0-.2.2-.3.5-.3.2 0 .3.1.4.3v.5c0 .2-.2.3-.4.3zm.4 1.1v8.1h-.8v-8.4h.7v.3zm1.9 5.3v-2.7c0-1 .2-1.8.6-2.3.4-.5 1-.7 1.6-.7s1.3.2 1.7.7c.4.5.6 1.3.6 2.3v2.6c0 1-.2 1.8-.6 2.3-.4.5-1 .7-1.7.7s-1.2-.2-1.6-.7c-.4-.5-.6-1.3-.6-2.3zm3.6.3v-3.4c0-.6 0-1-.3-1.3-.3-.3-.6-.5-1-.5s-.8.2-1 .5c-.3.3-.5.7-.5 1.3v3.4c0 .6.2 1 .4 1.4.3.3.6.4 1 .4s.8-.1 1-.4c.3-.3.4-.8.4-1.4zm4.9-5h-.4c-.4 0-.6.1-.7.5l-.1 1.2v5.5l-.1.3h-.7l-.1-.3v-8.1h.8v.5c.4-.3.8-.5 1.3-.5h.3v.9h-.3zm1.3 4.7v-2.7c0-1 .2-1.8.6-2.3.4-.5 1-.7 1.7-.7s1.2.2 1.6.7c.5.5.7 1.3.7 2.3v.9l-.1.3H103v1.9c0 .6.1 1 .4 1.4.2.3.6.4 1 .4s.7-.1 1-.4l.4-1v-.4c0-.1.1 0 .2 0h.6v.2c0 .6-.2 1.2-.6 1.7-.3.5-.9.7-1.6.7a2 2 0 0 1-1.7-.7c-.4-.5-.6-1.3-.6-2.3zm.9-3v.7h2.7v-.8c0-.6 0-1-.3-1.3-.2-.3-.6-.5-1-.5s-.8.2-1 .5c-.3.3-.4.7-.4 1.3zm7.7-1.7h-.4c-.4 0-.7.1-.8.5v6.7l-.2.3h-.7v-8.4h.7l.1.3v.2a2 2 0 0 1 1.2-.5h.3l.1.3v.6h-.3zM23.9 130.2v3.9l-.3.1h-.5v-4l-.3-.2h-3.2l-.1-.3.1-.6 3.3-6.6.4-.2h.5v6.8l.3.1.3.1v.7h-.3c-.2 0-.2.1-.2.2zm-1-6l-2.4 4.9v.1h2.3l.2-.1v-4.8h-.1zm6.5 5.4v-.2c0-.2.1-.3.3-.3h2.9c.1 0 .2.1.2.3v.2c0 .2 0 .3-.2.3h-3s-.2-.1-.2-.3zm13.5-4.5v6.3c0 1-.3 1.6-.7 2.1s-1.1.8-1.9.8c-.8 0-1.4-.3-1.8-.8s-.7-1.2-.7-2.1V125c0-1 .2-1.7.7-2.1s1-.8 1.8-.8 1.4.3 1.9.8.7 1.2.7 2.1zm-1 6.4V125c0-.6 0-1.1-.4-1.4-.3-.4-.7-.6-1.2-.6s-.9.2-1.2.6a2 2 0 0 0-.5 1.4v6.5c0 .6.2 1.1.5 1.4.3.4.7.5 1.2.5s1-.1 1.2-.5c.3-.3.5-.8.5-1.4zm2.8 2.4v-11.3l.1-.2.3-.1h.4l.1.3v3.8c.3-.5.8-.8 1.4-.8.7 0 1.2.2 1.6.7.4.5.6 1.3.6 2.3v2.7c0 1-.2 1.8-.6 2.3-.4.4-1 .7-1.6.7-.6 0-1-.3-1.4-.8v.6l-.3.1h-.5v-.3zm3.6-2.3v-3.3c0-1.3-.5-1.9-1.4-1.9-.8 0-1.3.6-1.3 1.9v3.3c0 1.2.5 1.8 1.3 1.8 1 0 1.4-.6 1.4-1.8zm2 4.8c.3 0 .5-.1.6-.4l.1-1.3V126l.1-.2.3-.1h.4l.1.3v7.9l-.1 2.2c-.2.8-.7 1.1-1.5 1.2l-.3-.1v-.7h.3zm.8-11.6a.5.5 0 0 1-.2-.5c.1-.3.2-.4.4-.4l.5.1c.2.2.2.3.2.5s-.2.4-.4.4l-.5-.1zm2.7 6.5v-2.7c0-1 .2-1.7.6-2.2.4-.5 1-.8 1.7-.8s1.2.3 1.6.8c.4.5.6 1.2.6 2.2v1.2H55l-.3.1v1.7c0 .6 0 1.1.3 1.4.3.3.6.4 1 .4.5 0 .8 0 1-.4.3-.2.4-.6.4-1l.1-.4h.7v.3c0 .6-.1 1.1-.5 1.6s-1 .8-1.6.8a2 2 0 0 1-1.7-.8c-.4-.5-.6-1.2-.6-2.2zm.9-3v.7h2.7v-.7c0-.7 0-1.1-.3-1.4-.3-.3-.6-.5-1-.5s-.8.2-1 .5c-.3.3-.4.8-.4 1.4zm7.6 6a2 2 0 0 1-1.7-.8c-.4-.5-.6-1.2-.6-2.2v-2.7c0-1 .2-1.7.6-2.2a2 2 0 0 1 1.7-.8 2 2 0 0 1 1.7.8c.3.4.5 1 .5 1.6v.3h-.7l-.1-.4c0-.4-.2-.8-.4-1-.3-.3-.6-.5-1-.5s-.8.2-1 .5c-.3.3-.4.8-.4 1.4v3.3c0 .6.1 1.1.4 1.4.2.3.6.4 1 .4s.7 0 1-.3c.2-.3.4-.7.4-1.1v-.4h.8v.3c0 .6-.2 1.1-.5 1.7-.4.4-1 .7-1.7.7zm5-10.1v1.7c0 .1 0 .2.2.2h.5l.1.3v.4l-.3.1h-.3c-.2 0-.2 0-.2.2v5.8c.1.3.3.5.6.5h.3v.7l-.3.1c-.6 0-1-.2-1.2-.7l-.3-1v-5.4c0-.1 0-.2-.2-.2H66l-.1-.3v-.4l.3-.1c.1 0 .2 0 .2-.2V124l.3-.1h.5v.3zm2.9.8c-.2 0-.4-.2-.4-.3v-.6c0-.2.2-.3.4-.3s.4.1.5.3v.6l-.5.2zm.5 1v7.9l-.1.2-.3.1h-.5v-8.4l.3-.1h.5v.3zm4.1-2.9c-.5 0-.8.2-1 .5a4 4 0 0 0-.2 1.6v.7c0 .1 0 .2.2.2h.9v.7l-.3.1h-.6c-.2 0-.2 0-.2.2v7l-.4.1h-.4l-.1-.3V127c0-.1 0-.2-.2-.2h-.2l-.1-.3v-.4l.3-.1c.1 0 .2 0 .2-.2v-1.4a6.3 6.3 0 0 1 .3-1.3l.1-.2.1-.1.1-.1a4.8 4.8 0 0 1 .3-.2c.2-.2.6-.3 1.2-.3h.3v.7l-.3.1zm5.2 4.5v.2l-.3.1h-.2c-.2 0-.3 0-.3-.3s-.2-.6-.4-.8c-.2-.2-.5-.4-.8-.4s-.6.2-.8.4a1 1 0 0 0-.3.8c0 .3.1.6.3.8l.9.8 1 .8c.3.2.6.6.8 1 .3.3.4.7.3 1.1a2 2 0 0 1-.7 1.6c-.4.4-1 .6-1.5.6-.7 0-1.2-.2-1.6-.7a3 3 0 0 1-.7-1.5l.1-.3h.4c.3 0 .4 0 .4.3 0 .4.2.7.4 1 .3.2.6.3 1 .3a1.3 1.3 0 0 0 1.4-1.3c0-.4-.2-.8-.6-1.2a6 6 0 0 0-1.1-1c-.4-.2-.8-.5-1.2-1a2 2 0 0 1-.5-1.3c0-.5.2-1 .6-1.4.4-.4.8-.6 1.4-.6s1 .2 1.4.6c.3.3.6.8.6 1.4zM22.3 152h-1.4v3.9l-.1.2-.3.1h-.4l-.1-.3v-11.5l.3-.1h2c.8 0 1.4.2 1.8.7s.7 1.2.7 2.2v2c0 .9-.2 1.6-.7 2s-1 .8-1.8.8zm-1.4-6.5v5.7h1.3c.5 0 1-.2 1.3-.5.3-.4.4-.9.4-1.6v-1.9c0-.7-.1-1.2-.4-1.6-.3-.3-.8-.5-1.3-.5H21v.4zm7.8 3.2l-.4-.1c-.4 0-.7.2-.8.5v6.8l-.2.2-.2.1h-.5v-8.4l.3-.1h.4l.1.3v.2a2 2 0 0 1 1.2-.5h.3l.1.3v.6h-.3zm2.2-1.7c-.2 0-.4-.2-.5-.3v-.6c.1-.2.3-.3.5-.3s.4.1.5.3v.6l-.5.2zm.4 1v8.1l-.3.1h-.5v-8.4l.3-.1h.5v.3zm1.9 5.3v-2.7c0-1 .2-1.7.6-2.2.4-.5 1-.8 1.7-.8s1.2.3 1.6.8c.5.5.7 1.2.7 2.2v2.7c0 1-.2 1.7-.7 2.2-.4.5-1 .8-1.6.8s-1.3-.3-1.7-.8c-.4-.5-.6-1.2-.6-2.2zm3.7.3v-3.3c0-.7-.1-1.1-.4-1.4-.2-.3-.6-.5-1-.5s-.8.2-1 .5c-.3.3-.4.7-.4 1.4v3.3c0 .6.1 1.1.4 1.4.2.3.6.4 1 .4s.8-.1 1-.4c.3-.3.4-.8.4-1.4zm4.9-4.9l-.4-.1c-.4 0-.7.2-.8.5v6.8l-.2.2-.2.1h-.5v-8.4l.3-.1h.4l.1.3v.2a2 2 0 0 1 1.2-.5h.3l.1.3v.6h-.3zM44 147c-.2 0-.4-.2-.5-.3v-.6c.1-.2.3-.3.5-.3s.4.1.5.3v.6l-.5.2zm.4 1v8.1l-.3.1h-.5v-8.4l.3-.1h.5v.3zm3-1.8v1.7l.1.2h.6v.7l-.3.1h-.3l-.1.2v5.8c.1.3.3.5.6.5h.2l.1.3v.4l-.3.1c-.6 0-1-.2-1.2-.7-.2-.3-.3-.6-.3-1v-5.4c0-.1 0-.2-.2-.2H46v-.7l.3-.1c.1 0 .2 0 .2-.2V146l.3-.1h.5v.3zm2.3 7.1v-2.7c0-1 .2-1.7.6-2.2.4-.5 1-.8 1.7-.8s1.2.3 1.6.8c.4.5.6 1.2.6 2.2v1.2h-3.3l-.3.1v1.7c0 .6 0 1.1.3 1.4.3.3.6.4 1 .4.5 0 .8 0 1-.4.3-.2.4-.6.4-1l.1-.4h.7v.3c0 .6-.1 1.1-.5 1.6s-1 .8-1.6.8a2 2 0 0 1-1.7-.8c-.4-.5-.6-1.2-.6-2.2zm.9-3v.7h2.7v-.7c0-.7 0-1.1-.3-1.4-.3-.3-.6-.5-1-.5s-.8.2-1 .5c-.3.3-.4.8-.4 1.4zm1.4-3.4c-.2 0-.2-.1-.2-.2v-2h.8v.3l-.3 1.6v.2H52zm7.8 2.7v.2l-.3.1h-.2c-.1 0-.2 0-.3-.3 0-.3-.1-.6-.3-.8-.3-.2-.5-.4-.8-.4s-.6.2-.8.4a1 1 0 0 0-.3.8c0 .3 0 .6.3.8l.8.8 1 .8c.4.2.7.6.9 1 .2.3.3.7.3 1.1a2 2 0 0 1-.7 1.6c-.4.4-1 .6-1.6.6-.6 0-1.1-.2-1.5-.7a2 2 0 0 1-.7-1.5v-.3h.5c.2 0 .3 0 .3.3 0 .4.2.7.5 1 .3.2.6.3 1 .3a1.3 1.3 0 0 0 1.3-1.3 2 2 0 0 0-.5-1.2 6 6 0 0 0-1.2-1c-.4-.2-.8-.5-1.1-1a2 2 0 0 1-.5-1.3c0-.5.2-1 .5-1.4.4-.4.9-.6 1.4-.6s1 .2 1.4.6c.4.3.6.8.6 1.4zm-35 28.6h-.4l-.2-.3-.2-1.3v-.3h-3.2v.3l-.3 1.3-.1.2h-.7l-.1-.2 2.1-11.3.1-.2.3-.1h.7l.1.3 2.1 11.3v.2h-.3zM22.3 168l-1.2 7.1v.3h2.6v-.3l-1.2-7.1v-.1h-.2zm6.7 10.3a2 2 0 0 1-1.7-.8c-.4-.5-.6-1.2-.6-2.2v-2.7c0-1 .2-1.7.6-2.2a2 2 0 0 1 1.6-.8 2 2 0 0 1 1.7.8c.4.4.6 1 .6 1.6v.3h-.8v-.4l-.5-1c-.2-.3-.6-.5-1-.5s-.7.2-1 .5c-.2.3-.4.8-.4 1.4v3.3c0 .6.2 1.1.4 1.4.3.3.6.4 1 .4s.8 0 1-.4c.2-.2.4-.6.4-1v-.4h.8v.3c0 .6-.1 1.1-.5 1.7-.4.4-1 .7-1.7.7zm5-10.1v1.9h.7v.7l-.3.1h-.3c-.1 0-.2 0-.2.2v5.8c.2.3.3.5.6.5h.3v.7l-.3.1c-.6 0-1-.2-1.2-.7l-.2-1v-5.4l-.2-.2h-.3v-.7l.3-.1.1-.2v-1.7l.1-.2.3-.1h.4l.1.3zm2.8.8c-.2 0-.3-.2-.4-.3v-.6c0-.2.2-.3.4-.3.3 0 .4.1.5.3v.6c0 .1-.2.2-.5.2zm.5 1v8.1l-.4.1h-.4l-.1-.3v-8.1l.3-.1h.5v.3zm1.9 5.3v-2.7c0-1 .2-1.7.6-2.2.4-.5 1-.8 1.6-.8s1.3.3 1.7.8c.4.5.6 1.2.6 2.2v2.7c0 1-.2 1.7-.6 2.2-.4.5-1 .8-1.7.8s-1.2-.3-1.6-.8c-.4-.5-.6-1.2-.6-2.2zm3.6.3v-3.3c0-.7-.1-1.1-.3-1.4-.3-.3-.6-.5-1-.5s-.8.2-1 .5c-.3.3-.5.7-.5 1.4v3.3c0 .6.2 1.1.4 1.4.3.3.6.4 1 .4s.8-.1 1-.4c.3-.3.4-.8.4-1.4zm6.3 2.3v-5.6c0-1.3-.4-1.9-1.3-1.9s-1.3.6-1.3 1.9v5.6l-.1.2-.3.1h-.4l-.1-.3v-8.1l.3-.1h.5v.7c.4-.5.8-.8 1.4-.8.7 0 1.2.2 1.6.7.4.5.6 1.3.6 2.3v5.5l-.3.1h-.5v-.3zm6.6-6.3v.2l-.3.1h-.2c-.2 0-.3 0-.3-.3s-.2-.6-.4-.8c-.2-.2-.5-.4-.8-.4s-.5.2-.8.4a1 1 0 0 0-.3.8c0 .3.1.6.4.8l.8.8 1 .8c.3.2.6.6.8 1 .3.3.4.7.4 1.1a2 2 0 0 1-.7 1.6c-.5.4-1 .6-1.6.6a2 2 0 0 1-1.6-.7 3 3 0 0 1-.7-1.5l.1-.3h.5c.2 0 .3 0 .3.3 0 .4.2.7.5 1 .2.2.5.3.9.3a1.3 1.3 0 0 0 1.4-1.3c0-.4-.2-.8-.6-1.2a6 6 0 0 0-1.1-1c-.4-.2-.8-.5-1.2-1a2 2 0 0 1-.5-1.3c0-.5.2-1 .6-1.4.4-.4.9-.6 1.4-.6s1 .2 1.4.6c.4.3.6.8.6 1.4zm-34.1 88.8v-.3l.3-.1h.4c.8 0 1.1-.5 1.1-1.5v-1.2c0-.6 0-1-.4-1.3-.2-.3-.6-.5-1-.5s-.8.2-1 .4a2 2 0 0 0-.5 1v.4h-.8v-.2c0-.6.2-1.2.6-1.7.3-.4 1-.7 1.7-.7s1.3.3 1.7.7.6 1.3.6 2.3v.7a3 3 0 0 1-.6 2c.4.5.6 1 .6 2v1.3c0 1-.2 1.8-.6 2.3-.4.5-1 .7-1.7.7-.8 0-1.3-.2-1.7-.7-.4-.5-.6-1-.6-1.6v-.3h.8v.4c0 .4.2.8.5 1 .2.3.6.4 1 .4s.8-.1 1-.4c.3-.3.4-.8.4-1.4v-1.8c0-1-.3-1.5-1-1.5h-.5l-.2-.1-.1-.3zm7.7 1.6c0-.3 0-.4.2-.4h3s.2 0 .2.3v.2c0 .2-.1.3-.3.3h-2.9c-.1 0-.2-.1-.2-.3zm10.7.5h-1.3v3.8l-.1.3h-.7l-.1-.3v-11.4l.3-.1h2c.7 0 1.4.2 1.8.7s.7 1.2.7 2.2v1.9c0 1-.2 1.7-.7 2.2s-1 .7-1.8.7zm-1.3-6.6v5.7H40c.5 0 1-.1 1.3-.5.3-.3.4-.8.4-1.5v-2c0-.6-.1-1.1-.4-1.5-.4-.3-.8-.5-1.3-.5h-1.3v.3zm7.7 3.2H46c-.3 0-.6.1-.7.5l-.1 1.2v5.8h-.8v-8.3l.2-.1h.5v.5c.4-.3.9-.5 1.3-.5h.3v1h-.3zm1.3 4.7V261c0-1 .2-1.8.6-2.3a2.4 2.4 0 0 1 3.4 0c.4.5.6 1.3.6 2.3v2.7c0 1-.2 1.7-.6 2.2-.4.5-1 .7-1.7.7s-1.3-.2-1.7-.7c-.4-.5-.6-1.2-.6-2.2zm3.7.3v-3.4c0-.6-.1-1-.4-1.3-.2-.3-.6-.5-1-.5s-.8.2-1 .5c-.3.3-.4.7-.4 1.3v3.4c0 .6.1 1 .4 1.4.2.3.6.4 1 .4s.8-.1 1-.4c.3-.3.4-.8.4-1.4zm2 4.9c.3 0 .5-.2.6-.5l.1-1.3v-8.7l.1-.2.3-.1h.5v10.5c-.3.7-.8 1.1-1.6 1.1h-.3v-.7h.3zm.8-11.7a.5.5 0 0 1-.1-.6c0-.2.2-.3.3-.4.2 0 .4 0 .5.2.2.1.3.3.2.5 0 .2-.2.3-.4.4l-.5-.1zm2.7 6.5V261c0-1 .2-1.8.6-2.3.4-.4 1-.7 1.7-.7s1.2.3 1.6.7c.5.5.7 1.3.7 2.3v1l-.1.2H58l-.3.1v1.7c0 .6.1 1 .4 1.4.2.3.5.4 1 .4.4 0 .7-.1 1-.4.2-.2.3-.6.4-1v-.4h.7l.1.2c0 .7-.2 1.2-.6 1.7-.3.5-.9.7-1.6.7a2 2 0 0 1-1.7-.7c-.4-.5-.6-1.2-.6-2.2zm.9-3v.7h2.7v-.8c0-.6 0-1-.3-1.3-.2-.3-.6-.5-1-.5s-.8.2-1 .5c-.3.3-.4.7-.4 1.3zm6.4-4.1v1.7c0 .1 0 .2.2.2h.6v.7l-.3.1h-.3c-.1 0-.2 0-.2.2v5.7c.1.4.3.5.6.6h.3v.7h-.3c-.6 0-1-.1-1.2-.6l-.2-1v-5.4l-.2-.2h-.3v-.7l.3-.1.1-.2v-1.7l.1-.3h.7l.1.3zm5.9 12.7v-11.1l.4-.1h.4l.1.3v.3c.3-.4.8-.7 1.4-.7a2 2 0 0 1 1.6.7c.3.5.5 1.3.5 2.3v2.7c0 1-.2 1.7-.5 2.2-.4.5-1 .8-1.6.7-.6 0-1-.2-1.4-.7v3.7h-.8v-.3zm3.5-5.3v-3.4c0-1.2-.4-1.8-1.3-1.8s-1.3.6-1.3 1.8v3.4c0 1.2.4 1.8 1.3 1.8 1 0 1.3-.6 1.3-1.8zm4.9-5h-.4c-.3 0-.6.1-.7.5l-.1 1.2v5.8h-.9l-.1-.3v-8l.3-.1h.5v.5c.4-.3.8-.5 1.3-.5h.3v1h-.3zm1.3 4.7V261c0-1 .2-1.8.6-2.3a2.4 2.4 0 0 1 3.4 0c.4.5.6 1.3.6 2.3v2.7c0 1-.2 1.7-.6 2.2-.4.5-1 .7-1.7.7s-1.3-.2-1.7-.7c-.4-.5-.6-1.2-.6-2.2zm3.7.3v-3.4c0-.6-.1-1-.4-1.3-.2-.3-.6-.5-1-.5s-.8.2-1 .5c-.3.3-.4.7-.4 1.3v3.4c0 .6.1 1 .4 1.4.2.3.6.4 1 .4s.8-.1 1-.4c.3-.3.4-.8.4-1.4zm4.9-8.5c-.6 0-.9.2-1 .5a4 4 0 0 0-.3 1.6v.7c0 .1 0 .2.2.2h.9l.1.3v.4h-1c-.1 0-.2.1-.2.3v7h-.8v-7c0-.2-.1-.2-.2-.2h-.3v-.8h.3l.1-.2v-1.5a6.3 6.3 0 0 1 .4-1.3l.2-.2v-.1a4.8 4.8 0 0 1 .3-.2c.3-.2.7-.3 1.3-.3h.2v.7h-.2zm1.2 8.2V261c0-1 .2-1.8.6-2.3a2.4 2.4 0 0 1 3.4 0c.4.5.6 1.3.6 2.3v1.2h-3.4l-.2.1v1.7c0 .6 0 1 .3 1.4.2.3.6.4 1 .4s.7-.1 1-.4c.2-.2.3-.6.4-1v-.4h.8v.2c0 .7-.2 1.2-.5 1.7-.4.5-1 .7-1.7.7a2 2 0 0 1-1.7-.7c-.4-.5-.6-1.2-.6-2.2zm1-3v.7h2.7v-.8c0-.6-.1-1-.4-1.3-.2-.3-.6-.5-1-.5s-.8.2-1 .5c-.3.3-.4.7-.4 1.3zm9.2-.8v.3h-.5c-.2 0-.3 0-.3-.2 0-.3-.2-.6-.4-.8-.2-.3-.5-.4-.8-.4s-.5.1-.8.4a1 1 0 0 0-.3.7l.3 1c.2.3.6.5.9.7l1 .8.8 1c.3.3.4.7.3 1a2 2 0 0 1-.6 1.6 2.5 2.5 0 0 1-3.2 0 3 3 0 0 1-.7-1.5l.1-.3h.5c.2 0 .3 0 .3.3 0 .4.2.7.5 1 .2.2.5.3.9.3a1.3 1.3 0 0 0 1.4-1.4c0-.3-.2-.7-.6-1a6 6 0 0 0-1.1-1l-1.2-1a2 2 0 0 1-.5-1.4c0-.6.2-1 .6-1.4.4-.4.8-.6 1.4-.6s1 .2 1.4.5c.4.4.6.9.6 1.4zm5.5 0v.3h-.5c-.2 0-.3 0-.3-.2 0-.3-.1-.6-.3-.8-.3-.3-.5-.4-.8-.4s-.6.1-.8.4a1 1 0 0 0-.4.7c0 .3.2.6.4 1s.5.5.8.7l1 .8c.3.3.7.6.9 1 .2.3.3.7.3 1a2 2 0 0 1-.7 1.6c-.4.4-1 .6-1.6.6a2.2 2.2 0 0 1-2.2-2.2v-.2h.5c.2 0 .3 0 .3.3 0 .4.2.7.5 1 .3.2.6.3 1 .3a1.3 1.3 0 0 0 1.3-1.4c0-.3-.2-.7-.5-1a6 6 0 0 0-1.2-1l-1.1-1a2 2 0 0 1-.5-1.4c0-.6.2-1 .5-1.4.4-.4.9-.6 1.4-.6s1 .2 1.4.5c.4.4.6.9.6 1.4zm2.3-2.6c-.2 0-.4 0-.5-.3v-.5c.1-.2.3-.3.5-.3s.4.1.4.3v.5c0 .2-.2.3-.4.3zm.4 1.1v8.1h-.8v-8.3l.3-.1h.4l.1.3zm1.9 5.3V261c0-1 .2-1.8.6-2.3.4-.4 1-.7 1.7-.7s1.2.3 1.6.7c.4.5.6 1.3.6 2.3v2.7c0 1-.2 1.7-.6 2.2-.4.5-1 .7-1.6.7s-1.3-.2-1.7-.7c-.4-.5-.6-1.2-.6-2.2zm3.7.3v-3.4c0-.6-.2-1-.4-1.3-.3-.3-.6-.5-1-.5s-.8.2-1 .5c-.3.3-.4.7-.4 1.3v3.4c0 .6.1 1 .3 1.4.3.3.6.4 1 .4s.8-.1 1-.4c.3-.3.5-.8.5-1.4zm6.3 2.2v-5.6c0-1.2-.5-1.8-1.4-1.8-.9 0-1.3.6-1.3 1.8v5.9h-.8v-8.3l.3-.1h.4l.1.3v.3c.3-.4.8-.7 1.4-.7a2 2 0 0 1 1.6.7c.3.5.5 1.3.5 2.3v5.5h-.8v-.3zm6.3 0v-5.6c0-1.2-.4-1.8-1.3-1.8s-1.3.6-1.3 1.8v5.6l-.1.3h-.7l-.1-.3v-8l.3-.1h.5v.6c.4-.4.9-.7 1.4-.7.7 0 1.2.2 1.6.7.4.5.6 1.3.6 2.3v5.5h-.8v-.3zm2.7-2.5V261c0-1 .2-1.8.6-2.3.4-.4 1-.7 1.7-.7s1.2.3 1.6.7c.4.5.7 1.3.7 2.3v1l-.1.2H130l-.3.1v1.7c0 .6.1 1 .4 1.4.2.3.5.4 1 .4.4 0 .7-.1 1-.4.2-.2.3-.6.4-1v-.4h.7l.1.2c0 .7-.2 1.2-.6 1.7-.3.5-.9.7-1.6.7a2 2 0 0 1-1.7-.7c-.4-.5-.6-1.2-.6-2.2zm.9-3v.7h2.7v-.8c0-.6 0-1-.3-1.3-.3-.3-.6-.5-1-.5s-.8.2-1 .5c-.3.3-.4.7-.4 1.3zm6.9 5.1h.3v.7h-.3c-.6 0-1-.1-1.2-.6l-.2-1v-10.2l.3-.1h.4l.1.3v10.2c.2.4.3.5.6.6zM22.1 281c-.8 0-1.2.4-1.3 1.4v.3l-.3.1H20v-.3c0-.6.1-1.2.5-1.7.3-.5.9-.7 1.6-.7 1.5 0 2.2 1 2.2 3v4.2c0 .2 0 .6.2 1 0 .3 0 .4-.4.4h-.3l-.2-.1-.1-.5c-.4.4-1 .6-1.6.6-.7 0-1.2-.2-1.6-.5s-.5-1-.5-1.7v-.5c0-.5.1-1 .4-1.3.2-.3.5-.6.9-.7l1-.5c.4 0 .7-.2 1-.4s.3-.4.3-.6c0-.4 0-.8-.3-1.1-.2-.3-.6-.5-1-.5zm.1 7l1-.5.2-1.2v-2.5l-.8.3-.8.3c-.8.4-1.2 1-1.1 1.8 0 1.2.5 1.8 1.5 1.7zm0-8.7h-.3v-.2l-.4-1.6c0-.2 0-.3.3-.3h.2c.2 0 .4 0 .4.3v1.7l-.2.1zm11.9 3.4v5.9h-.8v-5.9c0-1.2-.5-1.8-1.4-1.8-.9 0-1.3.6-1.3 1.8v5.9h-.8l-.1-.3v-8l.3-.1h.5v.6c.4-.4.9-.7 1.4-.7.9 0 1.5.3 1.9 1 .4-.6 1-1 1.7-1s1.2.2 1.6.7c.4.5.6 1.3.6 2.3v5.2l-.1.3h-.7l-.1-.3v-5.6c0-1.2-.5-1.8-1.4-1.8-.8 0-1.3.6-1.3 1.8zm5.3 3.1V283c0-1 .2-1.8.7-2.3a2.2 2.2 0 0 1 3.3 0c.4.5.6 1.3.6 2.3v2.7c0 1-.2 1.7-.6 2.2-.4.5-1 .7-1.7.7s-1.2-.2-1.6-.7c-.5-.5-.7-1.2-.7-2.2zm3.7.3v-3.4c0-.6-.1-1-.4-1.3-.2-.3-.5-.5-1-.5s-.7.2-1 .5c-.2.3-.4.7-.4 1.3v3.4c0 .6.2 1 .4 1.4.3.3.6.4 1 .4s.8-.1 1-.4c.3-.3.4-.8.4-1.4zm2.2-5.6v-.3h.9l.1.2 1.5 7.3 1.5-7.3.1-.1.1-.1h.7v.3l-2 9.4c-.2.6-.3 1.1-.6 1.4-.2.3-.6.4-1 .4h-.3v-.7h.2c.3 0 .5-.2.6-.4.2-.2.2-.5.2-.8l-.8-4.2-1-5.1zm6.1 5.3V283c0-1 .2-1.8.6-2.3.4-.4 1-.7 1.7-.7s1.2.3 1.6.7c.4.5.6 1.3.6 2.3v1.2h-3.3l-.3.1v1.7c0 .6 0 1 .3 1.4.3.3.6.4 1 .4.5 0 .8-.1 1-.4.3-.2.4-.6.4-1l.1-.4h.7v.2c0 .7-.1 1.2-.5 1.7s-1 .7-1.6.7a2 2 0 0 1-1.7-.7c-.4-.5-.6-1.2-.6-2.2zm.9-3v.7H55v-.8c0-.6 0-1-.3-1.3-.3-.3-.6-.5-1-.5s-.8.2-1 .5c-.3.3-.4.7-.4 1.3zm9 5.5v-5.6c0-1.2-.4-1.8-1.3-1.8s-1.3.6-1.3 1.8v5.9H58l-.1-.3v-8l.3-.1h.5v.6c.4-.4.9-.7 1.4-.7.7 0 1.3.2 1.6.7.4.5.6 1.3.6 2.3v5.5h-.8v-.3zm7.2-9.6v1.7c0 .1 0 .2.2.2h.5l.1.3v.4l-.3.1h-.3c-.2 0-.2 0-.2.2v5.7c.1.4.3.5.6.6h.3v.7H69c-.6 0-1-.1-1.2-.6-.2-.3-.2-.6-.3-1v-5.4c0-.1 0-.2-.2-.2h-.2l-.1-.3v-.4l.3-.1c.1 0 .2 0 .2-.2v-2h.8v.3zm2.3 7.1V283c0-1 .2-1.8.6-2.3.4-.4 1-.7 1.7-.7s1.2.3 1.6.7c.4.5.6 1.3.6 2.3v1.2H72l-.3.1v1.7c0 .6.1 1 .4 1.4.2.3.5.4 1 .4.4 0 .7-.1 1-.4.2-.2.3-.6.3-1l.1-.4h.7l.1.2c0 .7-.2 1.2-.6 1.7-.3.5-.9.7-1.6.7a2 2 0 0 1-1.7-.7c-.4-.5-.6-1.2-.6-2.2zm.9-3v.7h2.7v-.8c0-.6 0-1-.3-1.3-.3-.3-.6-.5-1-.5s-.8.2-1 .5c-.3.3-.4.7-.4 1.3zm7.7-1.7H79c-.4 0-.7.1-.8.5l-.1 1.2v5.8h-.8v-8.3l.3-.1h.4l.1.3v.2a2 2 0 0 1 1.2-.5h.3l.1.3v.6h-.3zm6.2 1.6v5.6l-.1.3h-.7l-.1-.3v-5.6c0-1.2-.5-1.8-1.3-1.8-1 0-1.4.6-1.4 1.8v5.9h-.8v-8.3l.3-.1h.5v.6c.4-.4.8-.7 1.4-.7.8 0 1.4.3 1.8 1 .4-.6 1-1 1.7-1s1.2.2 1.6.7c.4.5.6 1.3.6 2.3v5.5h-.8v-5.9c0-1.2-.5-1.8-1.4-1.8-.9 0-1.3.6-1.3 1.8zm5.3 3.1V283c0-1 .2-1.8.6-2.3.4-.4 1-.7 1.7-.7s1.2.3 1.6.7c.4.5.6 1.3.6 2.3v1.2H92l-.3.1v1.7c0 .6 0 1 .3 1.4.3.3.6.4 1 .4.5 0 .8-.1 1-.4.3-.2.4-.6.4-1l.1-.4h.7v.2c0 .7-.1 1.2-.5 1.7-.3.5-.9.7-1.6.7a2 2 0 0 1-1.7-.7c-.4-.5-.6-1.2-.6-2.2zm.9-3v.7h2.7v-.8c0-.6 0-1-.3-1.3-.3-.3-.6-.5-1-.5s-.8.2-1 .5c-.3.3-.4.7-.4 1.3z"/><path fill="#6F00FF" d="M79.8 38c.6 0 1-.2 1.4-.6l.3-.6V21.7l.2-.4.4-.1h1.7l.4.1.1.4V35c0 2-.3 3.5-1 4.3-.7.9-1.9 1.3-3.5 1.3l-.4-.1-.1-.5v-1.9l.5-.1zm14.7 2.6h-5.9l-.4-.1-.1-.5V21.7l.1-.4.4-.1h5.9l.4.1.1.4v2h-3.5c-.4 0-.5.1-.6.2V29h3.5c.3 0 .4.1.5.2l.1.4v1.9l-.5.2h-3.6V38h3.5c.3 0 .4.1.5.2l.1.4v2h-.5zm11.4-19.4h3.3c1.3 0 2.4.4 3.2 1.3s1.2 2.2 1.2 4v8.8c0 1.7-.4 3-1.2 4s-1.9 1.3-3.2 1.3h-3.3l-.5-.1-.1-.5V21.7l.1-.4.5-.1zm2.2 3.1V38h1.1c.5 0 .9 0 1.2-.4s.4-.9.4-1.5V25.8c0-.7-.1-1.2-.4-1.5s-.7-.5-1.2-.5H108v.5zm17.7 2v9.1c0 1.7-.4 3-1.2 4-.8.8-1.9 1.3-3.2 1.3s-2.4-.5-3.2-1.3-1.3-2.3-1.3-4v-9c0-1.8.4-3 1.3-4s1.8-1.3 3.2-1.3 2.4.4 3.2 1.3a6 6 0 0 1 1.2 4zm-2.8 9.9V25.6c0-.8-.2-1.4-.8-1.8-.5-.3-1.1-.3-1.7 0-.6.4-.9 1-.8 1.8v10.6c0 .8.2 1.4.8 1.7.6.4 1.2.4 1.7 0 .6-.3.9-1 .8-1.7zm9.2-14.5V40c0 .2 0 .4-.2.5h-2.5l-.1-.5V21.7l.1-.4.5-.1h1.6l.4.1.2.4zm7.5 19a4 4 0 0 1-3.1-1.3c-.9-1-1.3-2-1.3-3.2l.1-.5c0-.1.2-.2.5-.2h1.6c.4 0 .5.3.5.7 0 .6.2 1 .5 1.4.3.4.7.5 1.2.5s1-.1 1.2-.4.5-.7.6-1.2c.1-1.1-.5-2.5-1.8-4a22.4 22.4 0 0 1-1.2-1.4l-.5-.7a23.3 23.3 0 0 0-1.6-2.4 47.1 47.1 0 0 0-.7-1.7v-.8a4 4 0 0 1 4-4.4 4 4 0 0 1 4 3.7l-.1.7-.5.1h-2V25c0-.5-.2-.9-.4-1.1-.3-.2-.6-.4-1-.4-.5 0-.9.2-1.1.6a2 2 0 0 0-.3 1.2 5 5 0 0 0 1 2.3c.6.9 1.2 1.7 1.9 2.4.6.7 1.3 1.6 1.9 2.6.6 1 1 2 1 3a4.3 4.3 0 0 1-4.4 5zm16.8-15.1v10.6c0 .8.2 1.4.8 1.7.5.4 1.1.4 1.7 0 .6-.3.9-1 .8-1.7V36l.1-.5.5-.1h1.6c.4 0 .6.2.5.7a5.1 5.1 0 0 1-1.3 3.4 4 4 0 0 1-3 1.2c-1.4 0-2.5-.5-3.3-1.3s-1.2-2.3-1.2-4v-9c0-1.8.4-3 1.2-4s2-1.3 3.2-1.3a4 4 0 0 1 3 1.1c.9.8 1.3 2 1.4 3.5 0 .4-.1.7-.5.7h-1.6c-.3 0-.4 0-.5-.2l-.1-.4v-.2c0-.8-.2-1.4-.8-1.8-.6-.3-1.2-.3-1.7 0-.6.4-.9 1-.8 1.8zm18.1.7v9.1c0 1.7-.4 3-1.2 4-.8.8-1.9 1.3-3.2 1.3s-2.4-.5-3.2-1.3-1.2-2.3-1.2-4v-9c0-1.8.4-3 1.2-4s1.9-1.3 3.2-1.3 2.4.4 3.2 1.3a6 6 0 0 1 1.2 4zm-2.7 9.9V25.6c0-.8-.3-1.4-.8-1.8a2 2 0 0 0-1.8 0c-.6.4-.8 1-.8 1.8v10.6c0 .8.2 1.4.8 1.7.6.4 1.2.4 1.8 0 .5-.3.8-1 .8-1.7zm14.8 4.4h-1.3c-.3 0-.5-.1-.5-.3l-3.7-10.4h-.2V40l-.1.5h-2.6V21.3l.5-.1h1.2c.3 0 .5.1.6.3l3.6 10.4.1.1h.1c.1 0 0 0 0-.1V21.7l.2-.4.4-.1h1.7l.4.1.1.4v18.8h-.5zm5-19.4h3.3c1.3 0 2.4.4 3.2 1.3s1.2 2.2 1.2 4v8.8c0 1.7-.4 3-1.2 4s-1.9 1.3-3.2 1.3h-3.3l-.5-.1V21.3l.5-.1zm2.2 3.1V38h1.1c.5 0 .9 0 1.2-.4s.4-.9.4-1.5V25.8c0-.7-.1-1.2-.4-1.5s-.7-.5-1.2-.5h-1.1v.5zM209 36.2V21.7l.1-.4.4-.1h1.7l.4.1.2.4v13.7c0 1.7-.5 3-1.3 4-.8.8-1.9 1.3-3.2 1.3-1.3 0-2.4-.5-3.2-1.3s-1.2-2.3-1.2-4V21.7l.1-.4.4-.1h1.7l.4.1.2.4v14.5c-.1.8.2 1.4.7 1.7.6.4 1.2.4 1.8 0 .6-.3.8-1 .8-1.7zm9.3-14.5V40c0 .2 0 .4-.2.5h-2.5l-.1-.5V21.7l.1-.4.4-.1h1.7l.4.1.2.4zm4.4-.5h3.6c1.3 0 2.3.4 3 1.3.8.8 1.2 2.1 1.2 3.8v1c0 2.1-.6 3.6-1.7 4.4l1.6 8.3c.1.4 0 .6-.3.6H228l-.1-.1-.2-.3-1.4-7.5c0-.2-.1-.2-.3-.2h-1V40l-.2.5h-2.5l-.2-.5V21.7c0-.2 0-.3.2-.4l.4-.1zm3.6 2.4h-.8l-.5.1V30h1.3c1 0 1.4-.6 1.4-2v-2.4c0-1.3-.5-2-1.4-2zm14.2 17h-5.9l-.4-.1-.1-.5V21.7l.1-.4.4-.1h5.9l.4.1.1.4v2h-3.5c-.4 0-.5.1-.6.2V29h3.5c.3 0 .4.1.5.2l.1.4v1.9l-.5.2h-3.6V38h3.5c.3 0 .4.1.5.2l.1.4v2h-.5zm-175.3 27V53l.1-.4.5-.1h1.6l.5.1v14.1c0 1.8-.3 3-1.1 4-.9.9-2 1.3-3.3 1.3-1.3 0-2.4-.4-3.2-1.3s-1.2-2.2-1.2-4V53.1l.1-.4.5-.1h1.6l.5.1v14.9c0 .8.3 1.4.9 1.7.6.4 1.1.4 1.7 0 .6-.3.9-1 .8-1.7zm15 4.4h-1.3c-.3 0-.5-.1-.5-.3l-3.7-10.4h-.2v10.1l-.1.5h-2.6V52.6l.5-.1h1.2c.3 0 .5.1.6.4l3.6 10.3.1.1h.1c.1 0 0 0 0-.1V53c0-.2 0-.3.2-.4l.4-.1h1.7l.4.1.1.4v18.3l-.1.5h-.4zm17.5 0h-5.9l-.4-.1-.2-.5V53.1c0-.2 0-.3.2-.4l.4-.1h5.9l.4.1.1.4v1.5l-.1.5-.4.1H94v5.3h3.5c.3 0 .4.1.5.2l.1.4v1.5l-.1.4-.4.2H94v6.2h3.5c.3 0 .4.1.5.2l.1.4v1.5l-.1.5h-.4zm12.6 0H109c-.3 0-.5-.1-.5-.3l-3.7-10.4h-.2v10.1l-.1.5h-2.6V52.6l.5-.1h1.2c.3 0 .5.1.6.4l3.6 10.3.1.1h.1c.1 0 0 0 0-.1V53c0-.2 0-.3.2-.4l.4-.1h1.7l.4.1.1.4v18.3l-.1.5h-.4zm3.4-17.4v-1.5l.1-.4.5-.1h7.2l.4.1.1.4v2l-.5.1h-2.2v16.2c0 .2 0 .4-.2.5h-2.5l-.1-.5V55.3l-.5-.1h-1.7l-.5-.1v-.5zm11.8-2h3.6c1.3 0 2.3.4 3 1.3.8.8 1.2 2.1 1.2 3.8v1c0 2.1-.6 3.6-1.7 4.4l1.6 8.3c.1.4 0 .6-.3.6h-2.1l-.1-.1-.2-.3-1.4-7.5c0-.1-.1-.2-.3-.2h-1v7.5l-.2.5H125l-.2-.5V53.1c0-.2 0-.3.2-.4l.4-.1zm3.6 2.4h-.8l-.5.1v6.3h1.3c1 0 1.4-.6 1.4-2V57c0-1.3-.5-2-1.4-2zm14.2 17h-5.9l-.4-.1-.1-.5V53.1l.1-.4.4-.1h5.9l.4.1.1.4v2l-.5.1h-3.6v5.3h3.5c.3 0 .4.1.5.2l.1.4V63l-.5.2h-3.6v6.2h3.5c.3 0 .4.1.5.2l.1.4v2h-.5zm3.2-17.4v-1.5l.1-.4.4-.1h7.2l.5.1v2.4l-.5.1h-2.1v16.2l-.2.5h-2.5l-.2-.5V55.3l-.5-.1H147l-.4-.1-.1-.5zm14-1.5v18.3c0 .2 0 .4-.2.5h-2.5l-.1-.5V53.1l.1-.4.4-.1h1.7l.4.1.2.4zM170.7 72H165l-.4-.1-.2-.5V53.1c0-.2 0-.3.2-.4l.4-.1h5.8l.5.1.1.4v1.5l-.1.5-.5.1h-3.5v5.3h3.5l.5.2.1.4v1.5l-.1.4-.5.2h-3.5v6.2h3.5l.5.2.1.4v1.5l-.1.5h-.5zm12.6 0h-1.2c-.3 0-.5-.1-.6-.3L178 61.3h-.2v10.1c0 .2 0 .4-.2.5H175l-.1-.5V53.1l.1-.4.5-.1h1.2c.3 0 .5.1.6.4l3.6 10.3v.1h.2V53c0-.2 0-.3.2-.4l.4-.1h1.6l.5.1.1.4v18.3l-.1.5h-.5zm19.9 0h-1.7a2 2 0 0 1-.3 0l-.2-.1-.1-.3-.3-1.5-.1-.5H197l-.2.5-.2 1.5-.1.3h-2.6v-.4l3.4-18.4.2-.4.4-.1h2l.1.5 3.5 18.4v.4h-.4zm-4.5-12.4l-1.2 6.8v.4l.5.1h2v-.5l-1.1-6.8h-.2zM215.4 72h-1.2c-.3 0-.5-.1-.6-.3L210 61.3h-.1v10.1l-.2.5h-2.5l-.1-.5V52.7l.5-.1h1.3c.3 0 .4.1.5.4l3.7 10.3v.1h.1V53l.2-.4.4-.1h1.7l.4.1.2.4v18.3c0 .2 0 .4-.2.5h-.4zm12.9 0H227c-.3 0-.4-.1-.5-.3l-3.7-10.4h-.1v10.1l-.2.5H220l-.2-.5V53.1c0-.2 0-.3.2-.4l.4-.1h1.2c.3 0 .5.1.6.4l3.7 10.3v.1h.1V53l.2-.4.4-.1h1.7l.4.1.1.4v19h-.5zm10.4-4.4V53l.1-.4.4-.1h1.7l.4.1.2.4v13.7a6 6 0 0 1-1.3 4A4 4 0 0 1 237 72c-1.3 0-2.4-.4-3.2-1.3s-1.2-2.2-1.2-4V53.1l.1-.4.4-.1h1.7l.4.1.2.4v14.5c-.1.8.2 1.4.7 1.7.6.4 1.2.4 1.8 0 .6-.3.8-1 .8-1.7zm12.9 4.4h-5.9l-.4-.1-.1-.5V53.1l.1-.4.4-.1h5.9l.4.1.1.4v2l-.5.1H248v5.3h3.5c.3 0 .4.1.5.2l.1.4V63l-.5.2H248v6.2h3.5c.3 0 .4.1.5.2l.1.4v2h-.5zm10.5 0h-5.8l-.4-.1-.2-.5V53.1c0-.2 0-.3.2-.4l.4-.1h1.7l.4.1.1.4v16.2h3.6c.3 0 .4.1.5.2l.1.4v1.5l-.1.5h-.5z"/><path fill="#FFF" d="M180.5 253.7h-3.7l-.1-.3v-11.5h4.2v1.2h-2.4l-.3.1v3.6h2.6v1.3H178v4.3h2.8v1.3h-.3zm3.1-5.9v3.3c0 .5.1.8.4 1 .2.3.4.4.8.4.3 0 .5-.1.7-.3.3-.2.4-.5.4-.9v-.3h1.2l.1.2c0 .6-.1 1.2-.6 1.8-.4.5-1 .8-1.8.8-.7 0-1.3-.2-1.8-.7-.5-.6-.8-1.3-.8-2.4v-2.4c0-1 .3-1.9.8-2.4s1-.7 1.8-.7 1.4.3 1.8.8c.5.6.7 1.2.6 1.7v.3h-1.3v-.4a1 1 0 0 0-.4-.8 1 1 0 0 0-.7-.3 1 1 0 0 0-.8.4c-.3.2-.4.5-.4 1zm10.1.5v2.4c0 1-.2 1.8-.7 2.4-.5.5-1.1.7-1.8.7s-1.3-.2-1.8-.7c-.5-.6-.8-1.3-.8-2.4v-2.4c0-1 .3-1.9.8-2.4.4-.5 1-.7 1.8-.7s1.3.2 1.8.7c.5.5.7 1.3.7 2.4zm-1.4 2.8v-3.2c0-.4 0-.7-.2-1l-.6-.4h-.7c-.2 0-.4.2-.5.5-.2.2-.3.5-.3.9v3.2c0 .4.1.7.3.9l.5.5h.7c.2 0 .4-.3.6-.5l.2-1zm6.4.1v-5.9h1.3l.1.3v8.1h-1.3l-.1-.3v-.2c-.3.4-.7.6-1.3.6-.7 0-1.2-.2-1.6-.7s-.6-1.2-.6-2.2v-5.6h1.3v5.9c0 .3.1.6.3.8.1.3.3.4.5.5h.7c.2 0 .3-.2.5-.5l.2-.8zm4.5-4.4v4l.2 1.2c.2.2.4.4.8.4l.3.1v1.2h-.3c-.9 0-1.5-.2-1.8-.7-.4-.4-.6-1.2-.6-2.2v-4l-.2-.1-.2-.1v-1.1h.2c.2 0 .2-.1.2-.3v-1.4l.1-.3h1.3v1.7c0 .2.1.2.2.2h.7v1.2h-.7l-.2.2zm2.4 3.9v-2.4c0-1 .2-1.9.7-2.4.5-.5 1-.7 1.8-.7s1.3.2 1.8.7c.5.5.8 1.3.8 2.4v1.1l-.1.3h-3.3l-.2.2-.1.2v1c0 .5 0 .8.3 1 .2.3.5.4.8.4.3 0 .6-.1.8-.3.2-.2.3-.5.3-.9v-.3h1.3v.2c.1.6 0 1.2-.5 1.8-.4.5-1 .8-1.9.8-.7 0-1.3-.2-1.8-.7-.5-.6-.7-1.3-.7-2.4zm3.6-2.5v-.4c0-.5-.1-1-.5-1.1a1 1 0 0 0-1.2 0c-.4.2-.6.6-.5 1.1v.7h2.2v-.3zm5.8-1.5l-.5-.1c-.5 0-.7.2-.8.5v6.3l-.2.3h-1.2l-.1-.3v-8.1h1.3l.1.3v.2c.4-.4.8-.5 1.2-.6h.2l.3.1v1.3h-.3zm-49 16.5v8.6c0 .6 0 1 .2 1.2.1.2.4.4.7.4l.3.1v1.2h-.3c-.8 0-1.4-.2-1.8-.7a4 4 0 0 1-.5-2.2v-8.9h1.3v.3zm2.3 8.5v-2.4c0-1 .2-1.9.7-2.4.5-.5 1.1-.7 1.8-.7s1.4.2 1.8.7c.5.5.8 1.3.8 2.4v1.4H170l-.2.2v1.2c0 .5 0 .8.2 1 .2.3.5.4.8.4.4 0 .6-.1.8-.3.2-.2.3-.5.4-.9v-.3h1.2l.1.2c0 .6-.2 1.2-.6 1.8-.4.5-1 .8-1.9.8-.7 0-1.3-.2-1.8-.7-.5-.6-.7-1.4-.7-2.4zm3.7-2.5v-.4c0-.5-.2-1-.6-1.1a1 1 0 0 0-1.1 0c-.4.2-.6.6-.6 1.1v.4l.1.2.3.1h1.8v-.3zm7.4 3c0 .7-.2 1.3-.7 1.8-.5.6-1 .8-1.8.8-.7 0-1.4-.2-1.8-.8-.5-.5-.7-1-.7-1.6v-.2l.4-.1h.9l.1.3c0 .3.1.6.3.8.3.2.5.3.8.3.3 0 .5 0 .7-.3l.4-.5c0-.4 0-.7-.2-1-.2-.2-.4-.5-.8-.7l-1-.6-.9-.8a2 2 0 0 1 .2-2.7c.5-.5 1-.7 1.6-.7a2 2 0 0 1 1.5.7c.5.4.7 1 .7 1.6v.3h-1.3v-.4a1 1 0 0 0-.3-.7.8.8 0 0 0-.7-.2c-.3 0-.6.2-.7.5-.1.4 0 .7.3 1a65 65 0 0 1 2.6 2l.4 1.2zm9 0c0 .7-.2 1.3-.7 1.8-.4.6-1 .8-1.8.8-.7 0-1.3-.2-1.8-.8-.4-.5-.6-1-.6-1.6v-.2l.3-.1h1v.3c0 .3.2.6.4.8.2.2.4.3.7.3.3 0 .5 0 .7-.3.2-.1.4-.3.4-.5l-.1-1-.8-.7-1-.6-1-.8a2 2 0 0 1-.4-1.1c0-.7.2-1.2.6-1.7.5-.4 1-.6 1.6-.6s1.2.2 1.6.7c.4.4.6 1 .6 1.6v.3h-1.2l-.1-.4a1 1 0 0 0-.3-.7.8.8 0 0 0-.6-.2c-.4 0-.6.2-.8.5 0 .4 0 .7.3 1l.8.6a78.7 78.7 0 0 1 1.8 1.5c.2.3.4.7.4 1zm6.1-2.9v2.4c0 1-.2 1.8-.7 2.4-.5.5-1.1.7-1.8.7s-1.3-.2-1.8-.7c-.5-.6-.8-1.3-.8-2.4v-2.4c0-1 .3-1.9.8-2.4s1-.7 1.8-.7c.7 0 1.3.2 1.8.7.5.5.7 1.3.7 2.4zm-1.4 2.8v-3.2c0-.4 0-.7-.2-1l-.6-.4h-.6c-.2 0-.4.2-.6.5s-.2.5-.2.9v3.2c0 .4 0 .7.2.9.2.2.3.4.6.5h.6c.2 0 .4-.3.6-.5.2-.2.2-.5.2-1zm6.4.1v-5.6l.1-.3h1.3v8.4h-1.3v-.5c-.4.4-.8.6-1.3.6-.7 0-1.3-.2-1.7-.7s-.6-1.2-.6-2.2v-5.6h1.3l.1.3v5.6c0 .3 0 .6.2.8.2.3.3.4.6.5h.6c.2 0 .4-.2.5-.5.2-.2.2-.5.2-.8zm4.5-3.4v5.9h-1.3v-11.8h1.3v3.9c.4-.4.8-.6 1.3-.6.7 0 1.3.2 1.7.7s.6 1.2.6 2.2v5.6h-1.3l-.1-.3v-5.6c0-.3 0-.6-.2-.8a.9.9 0 0 0-.6-.5h-.6c-.2 0-.4.2-.5.5-.2.2-.2.5-.2.8zm10 5.9h-1.1l-.1-.5c-.5.4-1 .6-1.6.6-.7 0-1.2-.2-1.6-.6s-.6-1-.6-1.6v-.4c0-.5.1-1 .4-1.3s.5-.6.9-.8l.6-.2.6-.2.6-.3c.2 0 .3-.2.4-.4l.1-.5c0-.2 0-.5-.2-.7a1 1 0 0 0-.8-.3 1 1 0 0 0-.7.3c-.3.3-.4.6-.4 1v.2h-1.2v-.3c-.1-.7.1-1.3.6-1.8s1-.7 1.7-.7 1.3.2 1.8.7c.5.5.7 1.1.7 1.9v4.8l.1.8c.1.2 0 .3-.3.3zm-2.4-1.2c.7 0 1-.5 1-1.4v-1.7a21.2 21.2 0 0 1-1.4.7l-.4.2c-.2.2-.4.6-.4 1 0 .3 0 .6.3.8.1.2.4.4.9.4zm4.3-8.3a.8.8 0 0 1 0-1.1c.1-.2.3-.3.5-.3l.6.3c.2.1.3.3.3.5 0 .3-.1.5-.3.6-.1.2-.3.3-.6.3s-.4-.1-.5-.3zm1 9.5h-1.1v-8.4h1.3v8.4h-.3zm3.4-6.9v4c0 .6 0 1 .2 1.2 0 .2.3.4.7.4l.3.1v1.2h-.3c-.8 0-1.4-.2-1.8-.7s-.5-1.2-.5-2.2v-4l-.2-.1-.3-.1v-1.1h.3c.1 0 .2-.1.2-.3v-1.7h1.3v1.7c0 .2.1.2.3.2h.5l.1.4v.8h-.7c-.2 0-.2.1-.2.2zm6.9 4.4c0 .7-.2 1.3-.7 1.8-.4.6-1 .8-1.8.8-.7 0-1.3-.2-1.8-.8-.4-.5-.6-1-.6-1.6v-.2l.3-.1h1v.3c0 .3.2.6.4.8.2.2.4.3.7.3.3 0 .5 0 .7-.3.2-.1.4-.3.4-.5 0-.4 0-.7-.2-1l-.7-.7-1-.6-1-.8a2 2 0 0 1 .2-2.7c.5-.5 1-.7 1.6-.7a2 2 0 0 1 1.6.7c.4.4.6 1 .6 1.6v.3h-1.2l-.1-.4a1 1 0 0 0-.3-.7.8.8 0 0 0-.6-.2c-.4 0-.6.2-.8.5 0 .4 0 .7.3 1l.8.6 1 .7.8.8c.2.3.4.7.4 1zM172 295.7h-1.1v-.5c-.3.4-.7.6-1.3.6a2 2 0 0 1-1.7-.7c-.4-.5-.6-1.2-.6-2.2v-2.8c0-1 .2-1.7.6-2.2a2 2 0 0 1 1.7-.7c.5 0 1 .2 1.3.6v-3.9h1.3v11.8h-.2zm-1.1-2.5v-3.4c0-.3 0-.6-.2-.8a.9.9 0 0 0-.6-.5h-.6c-.2 0-.4.2-.5.5l-.2.8v3.4c0 .3 0 .6.2.8l.5.5h.6c.2 0 .4-.2.6-.5l.2-.8zm2.7-8.5c0-.2 0-.4.2-.6l.6-.3c.2 0 .3 0 .5.2.1 0 .3.2.3.4l.1.7c0 .2 0 .5-.3.9l-.7 1h-.3l-.2-.1v-.2l.4-.8-.1-.4-.4-.3a.8.8 0 0 1-.1-.5zm2.8 8v-2.4c0-1 .3-1.9.8-2.4s1-.7 1.8-.7c.7 0 1.3.2 1.8.7.5.5.7 1.3.7 2.4v1.4h-3.3l-.3.2v1.2c0 .5 0 .8.3 1 .2.3.4.4.8.4.3 0 .6-.1.8-.3.2-.2.3-.5.3-.9v-.3h1.3v.2a3 3 0 0 1-.5 1.8c-.5.5-1 .8-2 .8-.6 0-1.2-.2-1.7-.7-.5-.6-.8-1.3-.8-2.4zm3.7-2.5v-.4c0-.5-.1-1-.5-1.1s-.8-.3-1.2 0-.6.6-.5 1.1v.6l.3.1h1.8l.1-.3zm-.9-3.8h-.5l-.1-.2v-1.9h1.2c.2 0 .3 0 .2.4l-.5 1.4-.1.3h-.2zm7.2.8h.9l.1.1v.2l-1.5 8-.1.2h-1.5l-.1-.3-1.6-7.9v-.2h1.3l.1.2 1 5.1 1-5.1.1-.2h.3zm7.1 3.1v2.4c0 1-.2 1.8-.7 2.4-.5.5-1.1.7-1.8.7s-1.3-.2-1.8-.7c-.5-.6-.8-1.3-.8-2.4v-2.4c0-1 .3-1.9.8-2.4s1-.7 1.8-.7c.7 0 1.3.2 1.8.7.5.5.7 1.3.7 2.4zm-1.4 2.8v-3.2c0-.4 0-.7-.2-1l-.6-.4h-.6c-.2 0-.5.2-.6.5l-.2.9v3.2c0 .4 0 .7.2.9.1.2.3.4.6.5h.6c.2 0 .4-.3.6-.5.2-.2.2-.5.2-1zm4.3-8.9v8.6c0 .6 0 1 .2 1.2s.4.4.8.4l.2.1.1.3v.9h-.3c-.9 0-1.5-.2-1.9-.7a4 4 0 0 1-.5-2.2v-8.9h1.3l.1.3zm5.9 9v-5.6l.1-.3h1.3v8.4h-1.3v-.5c-.4.4-.8.6-1.3.6a2 2 0 0 1-1.7-.7c-.4-.5-.6-1.2-.6-2.2v-5.6h1.5v5.9l.2.8.6.5h.6c.2 0 .4-.2.5-.5.2-.2.3-.5.2-.8zm4.6-4.4v4c0 .6 0 1 .2 1.2s.4.4.8.4l.2.1.1.3v.9h-.3c-1 0-1.5-.2-1.9-.7a4 4 0 0 1-.5-2.2v-4l-.2-.1-.3-.1v-1.1h.3c.1 0 .2-.1.2-.3v-1.7h1.3l.1.3v1.4c0 .2 0 .2.2.2h.7v1.2h-.7l-.2.2zm2.6-2.6a.8.8 0 0 1 0-1.1l.6-.3.6.3.2.5c0 .2 0 .5-.2.6l-.6.3-.6-.3zm1 9.5h-1l-.1-.3v-8.1h1.3l.1.3v8.1h-.3zm6.9-5.4v2.4c0 1-.2 1.8-.7 2.4-.5.5-1.1.7-1.8.7s-1.3-.2-1.8-.7c-.5-.6-.8-1.3-.8-2.4v-2.4c0-1 .3-1.9.8-2.4s1-.7 1.8-.7c.7 0 1.3.2 1.8.7.5.5.7 1.3.7 2.4zm-1.4 2.8v-3.2c0-.4 0-.7-.2-1l-.6-.4h-.6c-.2 0-.4.2-.6.5s-.2.5-.2.9v3.2c0 .4 0 .7.2.9.2.2.3.4.6.5h.6c.2 0 .4-.3.6-.5.2-.2.2-.5.2-1zm4.4-3.3v5.9H219v-8.4h1.3l.1.3v.2c.3-.4.7-.6 1.3-.6a2 2 0 0 1 1.6.7c.4.5.6 1.2.6 2.2v5.6h-1.3v-5.9c0-.3-.1-.6-.3-.8a.9.9 0 0 0-.5-.5h-.7c-.2 0-.3.2-.5.5s-.2.5-.2.8zM179.9 130h2c.8 0 1.5.3 2 .9.5.5.8 1.3.8 2.4v5.4c0 1-.3 1.9-.8 2.4-.5.6-1.2.8-2 .8h-2.3v-11.8h.3zm1 1.7v8.6l.1.3h1c.9 0 1.3-.6 1.3-1.8v-5.6c0-1.2-.4-1.8-1.3-1.8h-1v.3zm5.1 7.2v-2.4c0-1 .3-1.9.8-2.4.4-.5 1-.7 1.8-.7.7 0 1.3.2 1.8.7.5.5.7 1.3.7 2.4v1.4h-3.3l-.3.1v1.3c0 .5 0 .8.2 1 .2.3.5.4.9.4.3 0 .5-.1.7-.3.2-.2.4-.5.4-.9v-.3l.3-.1h.9l.1.3c0 .6-.1 1.2-.6 1.8-.4.5-1 .8-1.8.8-.7 0-1.3-.2-1.8-.7-.5-.6-.8-1.4-.8-2.4zm3.7-2.5v-.4c0-.5-.1-1-.5-1.2a1 1 0 0 0-1.2 0c-.4.3-.6.7-.6 1.2v.4l.1.2.3.1h1.8v-.3zm-1-3.8h-.4c-.1 0-.2 0-.2-.2v-1.6l.1-.3h1.2c.2 0 .3 0 .2.4l-.5 1.4-.1.2-.2.1zm5 9.4h-.7l-.3-.1V135l-.2-.1-.3-.1v-1.1l.3-.1.1-.2v-.4c0-1 .2-1.8.6-2.3.4-.4 1-.7 2-.7l.2.1v1.2h-.3c-.4.1-.7.2-.8.5-.2.2-.2.6-.2 1.2v.4l.1.2h.9l.1.3v.9h-1l-.1.2v6.6l-.1.3h-.3zm2.8-9.6a.8.8 0 0 1-.2-.6c0-.2 0-.4.2-.5l.6-.3.6.3c.2.1.2.3.2.5 0 .3 0 .5-.2.6l-.6.3-.6-.3zm1 9.5h-1l-.1-.3v-8.1h1.3l.1.3v8.1h-.3zm3.5-5.9v5.6l-.1.3h-1.3v-8.4h1.3v.5c.4-.4.8-.6 1.3-.6.7 0 1.3.2 1.7.7s.6 1.2.6 2.2v5.6H203V136l-.2-.9a.9.9 0 0 0-.6-.4h-.6c-.2 0-.4.2-.5.4-.2.3-.3.6-.2.9zm5.2-3.6a.8.8 0 0 1-.2-.6c0-.2 0-.4.2-.5l.6-.3.6.3c.2.1.2.3.2.5 0 .3 0 .5-.2.6l-.6.3-.6-.3zm1 9.5h-1l-.1-.3v-8.1h1.5v8.4h-.3zm4.8-7.1h-.5c-.4 0-.7.2-.7.5l-.1 1.2v5l-.1.4h-1.3v-8.4h1.3v.5c.4-.4.8-.6 1.3-.6h.2l.2.1v1.3h-.2zm-46.5 16.6v8.6c0 .6 0 1 .2 1.2.1.2.4.4.8.4l.3.1v1.2h-.3c-.9 0-1.5-.2-1.9-.7-.3-.4-.5-1.2-.5-2.3v-8.8h1.3l.1.3zm2.3 8.5v-2.4c0-1 .3-1.9.8-2.4s1-.7 1.8-.7 1.3.2 1.8.7c.5.5.7 1.3.7 2.4v1.4h-3.3l-.3.1v1.3c0 .5 0 .8.3 1 .2.3.4.4.8.4.3 0 .6-.1.8-.3.2-.2.3-.5.3-.9v-.3l.3-.1h1v.3c0 .6-.1 1.2-.6 1.8-.4.5-1 .8-1.8.8-.7 0-1.3-.2-1.8-.7-.5-.6-.8-1.4-.8-2.4zm3.7-2.5v-.4c0-.5-.1-1-.5-1.2a1 1 0 0 0-1.2 0c-.4.3-.6.7-.5 1.2v.6l.3.1h1.8l.1-.3zm7.4 3c0 .7-.2 1.3-.7 1.8-.5.5-1 .8-1.8.8-.7 0-1.3-.3-1.8-.8-.4-.5-.7-1-.7-1.6l.1-.2.3-.1h1v.3c0 .3.2.6.4.8.2.2.4.3.7.3.3 0 .5-.1.7-.3.2-.1.3-.3.4-.6 0-.3 0-.6-.2-.9l-.7-.7-1-.6c-.4-.2-.7-.5-1-.9a2 2 0 0 1 .2-2.7c.5-.4 1-.6 1.6-.6a2 2 0 0 1 1.6.6c.4.5.6 1 .6 1.7v.3h-1.2l-.1-.4a1 1 0 0 0-.3-.7.8.8 0 0 0-.7-.2c-.3 0-.6.2-.7.5 0 .4 0 .7.3 1l.8.6 1 .6.8.9c.2.3.4.7.4 1zm9.5-2.9v2.4c0 1-.2 1.8-.7 2.4-.5.5-1.1.7-1.8.7s-1.3-.2-1.8-.7c-.5-.6-.8-1.4-.8-2.4v-2.4c0-1 .3-1.9.8-2.4s1-.7 1.8-.7 1.3.2 1.8.7c.5.5.7 1.3.7 2.4zm-1.4 2.8V157c0-.4 0-.7-.2-1l-.6-.4h-.6c-.2 0-.5.2-.6.5-.2.2-.2.5-.2.9v3.2c0 .3 0 .6.2.9.1.2.3.4.6.4h.6c.2 0 .4-.2.6-.4l.2-1zm4 2.7h-.7l-.3-.1v-11.8h1.3v3.9c.4-.4.8-.6 1.3-.6.8 0 1.3.2 1.7.7s.6 1.2.6 2.2v2.8c0 1-.2 1.7-.6 2.2s-1 .7-1.7.7c-.5 0-1-.2-1.2-.6v.5h-.3zm.4-6v3.4c0 .3 0 .6.2.8.1.3.3.4.5.4h.7c.2 0 .3-.1.5-.4l.2-.8V157c0-.3 0-.6-.2-.9a.9.9 0 0 0-.5-.4h-.7c-.2 0-.4.2-.5.4-.2.3-.2.6-.2.9zm4 8.7v-.7c0-.2.1-.3.3-.3.3-.1.5-.3.6-.5l.2-1.2v-8.5h1.3v8.5a4 4 0 0 1-.4 2.2c-.3.5-.8.7-1.6.8h-.2l-.1-.1v-.2zm1.2-12.3a.8.8 0 0 1-.2-.6c0-.2 0-.4.2-.5.2-.2.3-.3.6-.3.2 0 .4.1.5.3.2.1.3.3.3.5 0 .3 0 .5-.3.6-.1.2-.3.3-.5.3-.3 0-.4-.1-.6-.3zm2.8 6.5v-2.4c0-1 .3-1.9.8-2.4.4-.5 1-.7 1.8-.7s1.3.2 1.8.7c.5.5.7 1.3.7 2.4v1.4h-3.3l-.3.1v1.3c0 .5 0 .8.2 1 .3.3.5.4.9.4.3 0 .5-.1.7-.3.3-.2.4-.5.4-.9v-.3l.3-.1h.9l.1.3c0 .6-.1 1.2-.6 1.8-.4.5-1 .8-1.8.8-.7 0-1.3-.2-1.8-.7-.5-.6-.8-1.4-.8-2.4zm3.7-2.5v-.4c0-.5-.1-1-.5-1.2a1 1 0 0 0-1.2 0c-.4.3-.6.7-.6 1.2v.4l.1.2.3.1h1.8v-.3zm4.2-.4v3.3c0 .5.1.8.3 1 .2.3.5.4.8.4.3 0 .6-.1.8-.3.2-.2.3-.5.3-.9l.1-.3.3-.1h.9v.3c.1.6 0 1.2-.5 1.8-.4.5-1 .8-1.9.8-.7 0-1.3-.2-1.8-.7-.5-.6-.7-1.4-.7-2.4v-2.4c0-1 .2-1.9.7-2.4.5-.5 1.1-.7 1.8-.7.8 0 1.5.2 1.9.8.4.6.6 1.2.6 1.7l-.1.3h-1.2v-.4c0-.3-.2-.6-.4-.8a1 1 0 0 0-.8-.3 1 1 0 0 0-.8.3c-.2.3-.3.6-.3 1zm6.6-1v4c0 .6 0 1 .2 1.2 0 .2.3.4.7.4l.3.1v1.2h-.3c-.8 0-1.5-.2-1.8-.7-.4-.4-.6-1.2-.6-2.3V156l-.1-.1-.3-.1v-1.1l.3-.1.1-.2V153l.1-.3h1.3v1.7l.2.2h.7l.1.3v.9h-.8l-.1.2zm2.6-2.6a.8.8 0 0 1 0-1.1c.1-.2.3-.3.6-.3s.4.1.5.3c.2.1.3.3.3.5 0 .3 0 .5-.3.6-.1.2-.3.3-.5.3l-.6-.3zm1 9.5h-1.1v-8.4h1.3v8.4h-.3zm3.1.1h-.8l-.2-.1-.1-.3V156l-.2-.1-.3-.1v-1.1l.3-.1c.1 0 .2 0 .2-.2v-.4c0-1 .2-1.8.6-2.3.3-.4 1-.7 1.9-.7l.2.1.1.3v.9h-.3c-.5.1-.8.2-.9.5l-.2 1.2v.4c0 .1 0 .2.2.2h.9v1.2h-1l-.2.2v7h-.3zm7.1-2.6c0 .7-.2 1.3-.7 1.8-.5.5-1 .8-1.8.8-.7 0-1.3-.3-1.8-.8s-.7-1-.7-1.6l.1-.2.3-.1h.9l.1.3c0 .3.1.6.3.8.3.2.5.3.8.3.3 0 .5-.1.7-.3.2-.1.3-.3.4-.6 0-.3 0-.6-.2-.9l-.8-.7-1-.6-.9-.9a2 2 0 0 1-.4-1c0-.7.2-1.2.6-1.7.5-.4 1-.6 1.6-.6s1.1.2 1.6.6c.4.5.6 1 .6 1.7v.3H226v-.4a1 1 0 0 0-.3-.7.8.8 0 0 0-.7-.2c-.3 0-.6.2-.7.5-.1.4 0 .7.3 1l.8.6a78.7 78.7 0 0 1 1.7 1.5c.3.3.4.7.5 1z"/><g fill="#6F00FF"><path d="M269 396v-17.9c0-1.3.2-1.1-1.2-1.1h-.2c-1.4 0-4.6-.2-4.6 1.1v30c0 1.2 3 4.9 4.2 4.9h32.1c1.2 0 .7-3.7.7-4.9v-.2c0-1.1.5-.9-.7-.9H269v-11"/><path d="M271 396.4c3-.6 5-1.5 6.5-2.1.4-.1 1 0 1.3.1l5.9 4.6c.3.3.7.3 1 0l12.6-9.5-.7 2.4 2.8.8 3-10.5L293 384l.5 2.9 2-.4-3 2.3-6.5 5.1c-.4.3-.7.4-1.2.1l-5.6-3.9H278c-1.8.6-4 1.2-7 1.9v4.4z"/></g><g fill="#6F00FF" fill-rule="evenodd" clip-rule="evenodd"><path d="M272 268.3l-1.1-1.3-1.3-2-.6-1.1a12.4 12.4 0 0 1-1.5-8.4c0-1.1.3-2.1.8-3a17.9 17.9 0 0 1 2.4-3.8l1.7-1.5a13.4 13.4 0 0 1 6.8-3h4.4c1.3.2 2.5.6 3.6 1.1l2 1c1.9 1 3.4 2.5 4.7 4.2a20 20 0 0 1 3.6 7.3 27.9 27.9 0 0 1 .1 13.7 34.5 34.5 0 0 1-4.2 10.7 83.5 83.5 0 0 1-3.5 5.1 29.8 29.8 0 0 1-4.1 4.4 12 12 0 0 1-3.4 2.1 9 9 0 0 1-8.2-.4l-1.5-1.3c-1.9-2.1-2.2-4.5-1.4-7.1l.2-.8c.2-.5.1-1 0-1.4-.2-.7-.5-1.3-.6-2-.2-.8 0-1.5.3-2.2l.5-1.4c.2-.6 0-1-.4-1.5a5 5 0 0 1-.9-4.4c.2-.6.3-1.3.7-1.8l.9-1.2zm3.2.1c-.4.4-.9.6-1.2 1-.5.5-1 1-1.3 1.8-.5 1.2-.4 2.3.3 3.4.6.7 1 1.6.9 2.6l-.6 1.6a3 3 0 0 0-.3 2.1l.4 1c.4 1 .4 2.2 0 3.3a7 7 0 0 0-.4 2.2c-.1 1.2.3 2.2 1 3.1.6.8 1.4 1.3 2.3 1.6 2.1.9 4.2.4 6.1-.6 1-.5 1.8-1 2.5-1.8l1.4-1.4 2-2.3.7-.8 1.2-2 1.7-2.5a39.3 39.3 0 0 0 3.6-9.3l.6-3.4a25.5 25.5 0 0 0-1.8-12.8c-.3-.9-.9-1.7-1.4-2.5a14.2 14.2 0 0 0-6-5.2l-2.4-1c-1.5-.3-3-.4-4.5-.3a12 12 0 0 0-9.5 6.4c-.3.6-.6 1.2-.7 1.8a11.6 11.6 0 0 0 1 8.4 20 20 0 0 0 3.8 5l.6.6z"/><path d="M276.5 260.5c0 .2.1.3.2.3l1 .8 1.5 1 2.3 1.1 1.4.9c1.1.6 2 1.4 2.8 2.4 1 1.5 1.3 3 .5 4.8-.4 1-1 2-2 2.6l-2 1c-.3 0-.7.2-1 .4l-1.6 1-.9 1.3c-.4.7-.5 1.4-.7 2 0 .5-.2.8-.6 1-.6.3-1.2 0-1.3-.6-.2-.6-.2-1.3-.1-2 0-.8.2-1.5.3-2.2a3 3 0 0 0-.5-2c-.3-.4-.8-.9-1-1.5 0-.6 0-1.2.6-1.5l.6-.6a2 2 0 0 1 1-.6c.4-.2.8.1 1.1.3a8 8 0 0 0 3.5 1.2c.6 0 1.1 0 1.6-.4.3-.1.4-.6.2-1a3 3 0 0 0-1.3-1.1l-.9-.5-2-1.4-1.9-1.4-1.6-1.8a10 10 0 0 1-1.7-2.5 7.9 7.9 0 0 1 .3-8 5 5 0 0 1 1.6-1.7l1.5-1a8.7 8.7 0 0 1 7.4-.2c1 .4 2 1 2.8 1.8l1.4 1.5c1 1 1.5 2.2 2 3.4a21 21 0 0 1 1.2 8.4 31.4 31.4 0 0 1-2.4 10.7c-.7 1.6-1.5 3.1-2.7 4.4l-.4.4h-.1v-.4l1-2.6 1-3.2c.7-3 1-6.2.9-9.3l-.4-3.4c-.2-1.6-.8-3.2-1.6-4.6a8.4 8.4 0 0 0-2.7-3.3 6.4 6.4 0 0 0-4.2-1.2l-.2.2v.2l.2.1 1.6 1.5.5.7c1 1.1 1.5 2.5 1.7 4 .2.8-.2 1.6-1 1.7H282l-3-.7-1.9-.4h-.6z"/></g><path fill="#BABABA" d="M287.6 516.3h20v20.6h-20z"/><path fill="#4A4A4A" d="M287.6 516.1h20v20.8h-20z"/><path fill="#6F00FF" d="M258 478.5h20V537h-20z"/><path fill="none" stroke="#41D5CF" stroke-linecap="round" stroke-linejoin="round" stroke-miterlimit="10" d="M307 516.5h-20.9.2H259"/><path fill="#FFF" d="M259.8 499.2v2c0 .3.2.6.5.6.2 0 .4-.2.4-.5v-.2h.4v.2c0 .3 0 .5-.2.7l-.6.2c-.3 0-.5-.1-.7-.3s-.3-.4-.3-.8v-1.9c0-.3.1-.6.3-.8s.4-.2.7-.2c.2 0 .4 0 .6.2l.3.7-.1.1h-.3l-.1-.1c0-.3-.2-.5-.4-.5-.3 0-.5.2-.5.6zm3.5 1.1v.8c0 .4 0 .7-.2.8l-.6.3c-.3 0-.5 0-.6-.3-.2-.1-.3-.4-.3-.8v-.8c0-.3 0-.6.3-.7.1-.2.3-.3.6-.3.2 0 .4 0 .6.3l.2.7zm-.5 1v-1.4l-.2-.1h-.3l-.1.1-.1.3v1.4l.2.1h.3l.2-.1v-.3zm1.5-1.1v1.9h-.4v-2.7h.4v.1l.4-.2c.3 0 .5 0 .6.2l.2.8v1.8h-.4v-2l-.2-.2-.1-.2h-.2l-.2.2v.3zm2.1 2h-.3v-2.4l-.1-.1h-.1v-.3h.1v-.2l.2-.8.7-.2v.4c-.2 0-.3 0-.3.2v.5h.2v.1h.1v.3l-.1.1h-.2v2.3h-.2zm.9-3.2v-.4h.4l.1.2v.2h-.5zm.4 3.2h-.3l-.1-.1v-2.7h.4v2.7zm2.3 0h-.4v-.2l-.6.2c-.2 0-.4 0-.5-.2a.8.8 0 0 1-.2-.6v-.5l.4-.3h.2l.2-.1.2-.1.1-.1.1-.2v-.3h-.6l-.1.4h-.4c0-.3 0-.5.2-.6.1-.2.3-.3.6-.3.2 0 .4 0 .5.2.2.2.3.4.3.7v1.8zm-.9-.4c.3 0 .4-.2.4-.5v-.6a9.6 9.6 0 0 1-.5.2l-.1.1-.1.4v.2l.3.2zm1.9-1.6v1.9h-.4v-2.7h.4v.1l.4-.2c.3 0 .5 0 .6.2l.2.8v1.8h-.4v-2l-.1-.2-.2-.2h-.2l-.2.2v.3zm2.2 0v1.4l.3.2c.1 0 .2 0 .3-.2l.1-.2v-.1h.4l-.1.6a1 1 0 0 1-.7.3c-.2 0-.4 0-.6-.3l-.2-.8v-.8c0-.3 0-.6.2-.7l.6-.3c.3 0 .5 0 .7.3l.2.6h-.4l-.2-.4h-.5l-.1.4zm1.6.9v-.8c0-.3.1-.6.3-.7.1-.2.3-.3.6-.3.2 0 .4 0 .6.3.2.1.2.4.2.7v.5h-1.2v.5l.1.3.3.1h.2l.2-.3v-.1h.4c0 .2 0 .4-.2.6-.1.2-.3.3-.6.3s-.5 0-.6-.3c-.2-.1-.3-.4-.3-.8zm1.3-.8v-.1c0-.2 0-.3-.2-.4s-.3 0-.4 0l-.2.4v.2h.7z"/><path fill="#6F00FF" d="M265.3 546.5h-.2l-.3-.1-.8-3.3v3.3h-.8v-7h.7l1.2 5v.1h.1l1.2-5 .2-.1h.6v7h-.8v-3.3h-.1l-.8 3.3h-.2zm6.7-5.1v.9h.9c.1 0 0 .2 0 .2v.6h-.9v1l-.1.1h-.7v-1h-1l-.1-.1v-.7h.9l.1-.2v-.9h.8v.1z"/><path fill="#4A4A4A" d="M295.8 546.5h-.2l-.3-.1-.7-3.3h-.1v3.3h-.8c-.1 0 0 0 0-.1v-6.9h.7l1.2 5v.1h.1l1.3-5 .2-.1h.5v7h-.9v-3.3l-.9 3.3h-.2zm4.8-2.6v-.4c0-.1 0-.2.2-.2h1.9l.1.2v.4l-.1.2h-2v-.2z"/><path fill="#FFF" d="M293.1 524.8h.7c.3 0 .5 0 .7.2l.2.8v1.9c0 .3 0 .6-.2.8a1 1 0 0 1-.7.3h-.7v-4.1zm.4.5v3h.3c.3 0 .4-.2.4-.6v-1.9c0-.4-.1-.6-.4-.6h-.3v.1zm3.4 1.7v.7c0 .4 0 .7-.3.8-.1.2-.3.3-.6.3l-.6-.3-.2-.8v-.8c0-.3 0-.6.2-.8l.6-.2c.3 0 .5 0 .6.2.2.2.3.5.3.8zm-.5.9v-1.4l-.3-.2h-.2l-.2.2v1.7l.2.1h.2l.2-.1.1-.3zm2.2 0v-2h.4v2.8h-.4v-.1l-.5.2c-.2 0-.4 0-.5-.3-.2-.1-.2-.4-.2-.7v-1.9h.4v2l.1.3.2.1h.2l.2-.1v-.3zm1.5-1.5v1.8l.3.1h.1v.4c-.4 0-.6 0-.7-.2l-.2-.7v-1.4h-.1v-.5l.1-.1v-.5l.1-.1h.3l.1.1v.5h.2l.1.2v.2h-.2l-.1.1zm.8 1.3v-.8c0-.3 0-.6.2-.8l.6-.2c.2 0 .5 0 .6.2.2.2.3.5.3.8v.5c0 .1 0 0-.1 0h-1.1v.8l.3.1h.3l.1-.3v-.2h.4v.1l-.1.6a1 1 0 0 1-.7.3l-.6-.3-.2-.8zm1.2-.8v-.1c0-.2 0-.3-.2-.4s-.2-.1-.4 0c-.1 0-.2.2-.1.4v.2h.6l.1-.1z"/><path fill="#41D5CF" d="M283 502h-2.7v-7.9h2.8v.8h-1.8v2.5h1.7v.8h-1.5l-.2.1v2.8h1.6l.2.1v.8h-.2zm4.6 0h-.6l-1.8-4.9v4.7l-.1.2h-.9v-7.9h.6l.3.1 1.7 4.8h.1v-4.9h1v7.9h-.2zm4 0h-2.5v-7.9h2.7v.8H290v2.5h1.8v.8h-1.6l-.2.1v2.8h1.6l.2.1v.8h-.2zm1.5-8h1.4c.5 0 1 .2 1.3.6.4.4.5 1 .5 1.6v.3c0 1-.2 1.5-.7 1.9a184.2 184.2 0 0 1 .5 3.6h-.7v-.1l-.7-3-.1-.2h-.7v3.2l-.3.1h-.7v-7.9h.2zm.8 1.2v2.6h.6c.6 0 .9-.4.9-1.2v-.4c0-.8-.3-1.2-.9-1.2h-.6v.2zm4.3.9v3.9c0 .8.3 1.2.9 1.2.5 0 .8-.3.8-1v-2h-.5v-.9h1.4v2.5c0 .7 0 1.3-.4 1.6-.3.4-.8.6-1.3.6-.6 0-1-.2-1.4-.6-.3-.3-.5-.9-.5-1.6v-3.7c0-.7.2-1.3.5-1.6.4-.4.8-.6 1.4-.6.5 0 .9.2 1.2.5s.5.8.6 1.4c0 .2 0 .3-.3.3h-.6v-.3c-.1-.7-.4-1-1-1-.5 0-.8.4-.8 1.2zm4.7-1.8v7.7h-.9v-7.9h.8v.2zm3.7 7.7h-2.5v-7.9h2.7v.8H305v2.5h1.8v.8h-1.6l-.2.1v2.8h1.6l.2.1v.8h-.2z"/></svg>