<svg xmlns="http://www.w3.org/2000/svg" viewBox="0 0 320 568"><path fill="#4A4A4A" d="M23 152v3.7l-.2.2-.2.1H22v-4l-.2-.1h-3l-.3-.1v-.9l3.3-6.6.4-.2h.5l.1.3v6.5l.2.1.3.1.1.3v.4H23l-.2.2zm-1.1-6l-2.4 4.9.1.1H22l.1-.1V146H22zm6.6 5.4v-.2c0-.2 0-.3.2-.3h2.9c.2 0 .2.1.2.3v.2c0 .2 0 .3-.2.3h-3l-.1-.3zm8 2.1c0-.3 0-.4.3-.4h.3c.2 0 .3.1.3.4 0 .5.2 1 .5 1.3.4.3.8.5 1.3.5.6 0 1-.3 1.4-.7.4-.5.5-1 .5-1.6l-.4-1a7.7 7.7 0 0 0-1.5-1.7l-.2-.2a13.7 13.7 0 0 0-.5-.5l-.6-.5v-.1l-.2-.2-.2-.2-.4-.6-.3-1.3c0-.7.1-1.3.6-1.9.4-.5 1-.8 1.8-.8.6 0 1.1.3 1.6.7.5.4.7 1 .8 1.7 0 .2-.2.3-.4.3h-.1c-.2 0-.3-.1-.4-.3 0-.4-.2-.8-.5-1.1s-.6-.5-1-.5c-.5 0-.9.2-1.2.6-.3.3-.4.7-.4 1.3 0 .4.2.8.4 1.1l1.4 1.5a28.7 28.7 0 0 1 2 2.3c.3.5.5 1 .5 1.4.1.8-.1 1.5-.6 2.1-.5.7-1.2 1-2 1s-1.4-.3-2-.8c-.5-.5-.7-1-.8-1.8zm6.8-.5v-2.6c0-1 .2-1.7.7-2.2.4-.5 1-.8 1.6-.8s1.3.3 1.7.8c.4.5.6 1.2.6 2.2v2.7c0 1-.2 1.7-.6 2.2-.4.5-1 .8-1.7.8s-1.2-.3-1.6-.8c-.5-.5-.7-1.2-.7-2.2zm3.7.4v-3.3c0-.6-.1-1.1-.4-1.4-.2-.3-.5-.4-1-.4s-.7.1-1 .4c-.2.3-.4.8-.4 1.4v3.3c0 .6.2 1.1.4 1.4.3.3.6.5 1 .5s.8-.2 1-.5c.3-.3.4-.8.4-1.4zm4.2 1.8h.2l.1.3v.4l-.3.1c-.6 0-1-.2-1.2-.7-.2-.3-.2-.6-.3-1v-10.1l.3-.1h.5v9.3l.1 1.3c.1.3.3.5.6.5zm2.7-7.4v5.6c0 1.2.4 1.9 1.3 1.9s1.3-.7 1.3-1.9v-5.8l.3-.1h.5v8.4l-.3.1h-.4l-.1-.3v-.4c-.3.5-.8.8-1.4.8a2 2 0 0 1-1.6-.7c-.3-.5-.5-1.3-.5-2.3v-5.5l.3-.1h.5v.3zm6.4-1.8v1.7c0 .2 0 .2.2.2h.6v.8h-.6c-.1 0-.2 0-.2.2v5.8c.1.3.3.5.6.5h.3v.7l-.3.1c-.6 0-1-.2-1.2-.7l-.2-1v-5.4l-.2-.2H59v-.7h.3l.1-.3V146l.1-.2.3-.1h.4l.1.3zm2.9.7c-.2 0-.3 0-.4-.2v-.6c0-.2.2-.2.4-.2.3 0 .4 0 .5.2v.6c0 .1-.2.2-.5.2zm.5 1.1v7.9l-.1.2-.3.1h-.4l-.1-.3v-8.1l.3-.1h.5v.3zm1.8 5.2v-2.6c0-1 .3-1.7.7-2.2.4-.5 1-.8 1.6-.8s1.3.3 1.7.8c.4.5.6 1.2.6 2.2v2.7c0 1-.2 1.7-.6 2.2-.4.5-1 .8-1.7.8s-1.2-.3-1.6-.8c-.4-.5-.7-1.2-.7-2.2zm3.7.4v-3.3c0-.6-.1-1.1-.4-1.4-.2-.3-.5-.4-1-.4s-.7.1-1 .4c-.2.3-.4.8-.4 1.4v3.3c0 .6.2 1.1.4 1.4.3.3.6.5 1 .5s.8-.2 1-.5c.3-.3.4-.8.4-1.4zm6.3 2.3V150c0-1.2-.4-1.8-1.3-1.8s-1.3.6-1.3 1.8v5.6l-.1.2-.3.1h-.4l-.1-.3v-8.1l.3-.1h.5v.7c.4-.5.8-.8 1.4-.8.7 0 1.2.2 1.6.7.4.5.6 1.3.6 2.3v5.5l-.3.1h-.5v-.3zM19.7 389v1.6h3.4l.2.1.1.3v.4H19v-2.6c0-.9.4-1.9 1.2-2.9a44.2 44.2 0 0 0 2.3-3.2l.1-.6c0-1.2-.5-1.8-1.4-1.8-.4 0-.7.1-1 .4-.2.3-.4.8-.4 1.4v.6H19v-.3c0-.9.1-1.6.5-2.1.4-.6 1-.8 1.7-.8.5 0 .8 0 1.2.3.3.1.5.4.7.6s.2.6.3.9v.8c0 1-.3 2-1.2 2.9a79.1 79.1 0 0 1-2 2.6l-.2.7-.2.7zm8.7-2.2v-.1c0-.2 0-.3.2-.3h2.9c.2 0 .2 0 .2.3v.1c0 .3 0 .4-.2.4h-3l-.1-.4zm11.6 4.6c-.2 0-.4 0-.4-.2l-1.8-7.1v-.1 7.1l-.1.3h-.8v-11.8h.3c.3 0 .4 0 .4.2l2.3 9.6h.1c.1 0 0 0 0 0l2.4-9.6c0-.2.1-.3.3-.3h.1l.3.1v11.8h-.8V384l-.1-.1-1.8 7.2c0 .2-.2.3-.4.3zm5.6-9.2c-.2 0-.3-.1-.4-.3v-.5c0-.2.2-.3.4-.3s.4 0 .5.3v.5c0 .2-.2.3-.5.3zm.5 1v8l-.1.2h-.7l-.1-.3V383h.8v.3zm5.7 1.6v.3h-.5c-.1 0-.2 0-.3-.2l-.3-.9c-.3-.2-.5-.3-.8-.3s-.6.1-.8.3a1 1 0 0 0-.3.8c0 .3 0 .6.3.9l.9.8a45 45 0 0 1 1.8 1.7l.3 1.2a2 2 0 0 1-.7 1.5c-.4.4-1 .6-1.6.6a2.2 2.2 0 0 1-2.2-2.2v-.2l.3-.1h.2c.2 0 .3.1.3.3 0 .5.2.8.5 1 .3.3.6.4 1 .4.3 0 .7-.1 1-.4s.3-.6.3-1-.2-.7-.5-1.1a6 6 0 0 0-1.2-1c-.4-.2-.7-.6-1.1-1a2 2 0 0 1-.5-1.3c0-.6.2-1 .6-1.4.3-.4.8-.6 1.3-.6s1 .2 1.4.5.6.8.6 1.4zm1.7 3.7V386c0-1 .2-1.8.6-2.3.4-.5 1-.7 1.7-.7s1.2.2 1.6.7c.4.5.6 1.3.6 2.3v1.2h-3.6v1.8c0 .6 0 1 .3 1.4.3.3.6.4 1 .4.5 0 .8-.1 1-.4.3-.3.4-.6.4-1l.1-.4h.7v.2c0 .6-.1 1.2-.5 1.7s-1 .7-1.6.7a2 2 0 0 1-1.7-.7c-.4-.5-.6-1.3-.6-2.3zm.9-3v.8h2.7v-.8c0-.6 0-1-.3-1.4-.3-.3-.6-.4-1-.4s-.8.1-1 .4c-.3.3-.4.8-.4 1.4zm-35.5 25V408c0-1 .2-1.8.6-2.3.4-.5 1-.7 1.6-.7s1.3.2 1.7.7c.4.5.6 1.3.6 2.3v1.2h-3.7v1.8c0 .6 0 1 .3 1.4.3.3.6.4 1 .4s.8-.1 1-.4c.2-.3.4-.6.4-1v-.4h.8v.2c0 .6-.1 1.2-.5 1.7s-1 .7-1.7.7a2 2 0 0 1-1.6-.7c-.4-.5-.6-1.3-.6-2.3zm.8-3v.8h2.8v-.8c0-.6-.1-1-.4-1.4-.2-.3-.5-.4-1-.4s-.7.1-1 .4c-.2.3-.4.8-.4 1.4zm9.1 5.6v-5.6c0-1.2-.4-1.8-1.3-1.8s-1.3.6-1.3 1.8v5.6l-.1.3h-.7l-.1-.3V405h.8v.6c.4-.5.8-.7 1.4-.7.7 0 1.2.2 1.6.7.4.5.6 1.2.6 2.3v5.5h-.8v-.3zm8.4.4a2 2 0 0 1-1.7-.7c-.4-.5-.6-1.3-.6-2.3V408c0-1 .2-1.8.6-2.3a2 2 0 0 1 1.7-.7c.7 0 1.3.2 1.6.7.4.5.6 1 .6 1.7v.2h-.8v-.3c0-.5-.2-.8-.5-1.1-.2-.3-.5-.4-1-.4-.4 0-.7.1-1 .4-.2.4-.3.8-.3 1.4v3.4c0 .6.1 1 .4 1.4.2.3.5.4 1 .4.4 0 .7-.1 1-.4l.4-1v-.4h.7l.1.2c0 .6-.2 1.2-.6 1.7-.3.5-.9.7-1.6.7zm3.9-3V408c0-1 .2-1.8.6-2.3.4-.5 1-.7 1.7-.7s1.2.2 1.6.7c.5.5.7 1.3.7 2.3v2.6c0 1-.2 1.8-.7 2.3-.4.5-1 .7-1.6.7s-1.3-.2-1.7-.7c-.4-.5-.6-1.3-.6-2.3zm3.7.4v-3.4c0-.6-.1-1-.4-1.4-.2-.3-.6-.4-1-.4s-.8.1-1 .4c-.3.3-.4.8-.4 1.4v3.4c0 .6.1 1 .4 1.4.2.3.5.4 1 .4s.8-.1 1-.4c.3-.3.4-.8.4-1.4zm6.2 2.2v-5.6c0-1.2-.4-1.8-1.3-1.8-.8 0-1.3.6-1.3 1.8v5.9h-.8V405h.7l.1.3v.3c.3-.5.8-.7 1.4-.7.7 0 1.2.2 1.6.7.4.5.5 1.2.5 2.3v5.5H51v-.3zm5-10.7c-.5 0-.8.1-1 .4a4 4 0 0 0-.2 1.7v.7l.2.1h.6l.3.1v.7H55c-.2 0-.2.1-.2.2v7.1H54l-.1-.3v-6.8l-.2-.1-.2-.1-.1-.3v-.4h.3l.2-.2v-1.5a6.3 6.3 0 0 1 .3-1.3l.1-.1.1-.2h.1a4.8 4.8 0 0 1 .3-.3c.2-.2.6-.3 1.2-.3l.3.1v.7H56zm1.9 1.8a.5.5 0 0 1-.5-.3v-.5c.1-.2.3-.3.5-.3s.4 0 .5.3v.5c-.1.2-.3.3-.5.3zm.4 1v8.2h-.8V405h.8v.3zm4.2.5c-.8 0-1.2.5-1.3 1.5l-.1.3h-.7v-.2c0-.7.1-1.2.5-1.7.3-.5.8-.7 1.6-.7 1.5 0 2.2 1 2.2 3v4.2c0 .2 0 .6.2 1 0 .2-.1.3-.4.3H64l-.2-.5a2 2 0 0 1-1.5.6c-.7 0-1.2-.2-1.6-.6s-.5-1-.5-1.6v-.6c0-.5 0-.9.3-1.2.3-.4.6-.6 1-.8l1-.4 1-.4c.2-.1.3-.4.3-.6 0-.5 0-.8-.3-1.1-.2-.3-.6-.5-1-.5zm0 7c.5 0 .8-.2 1-.4s.3-.7.3-1.2v-2.6l-.8.4-.8.3c-.9.4-1.2 1-1.2 1.8 0 1.2.6 1.8 1.6 1.7zm7.7.4v-5.6c0-1.2-.4-1.8-1.3-1.8s-1.3.6-1.3 1.8v5.6l-.1.3h-.8V405h.8v.6c.4-.5.8-.7 1.4-.7.7 0 1.2.2 1.6.7.4.5.6 1.2.6 2.3v5.5h-.8v-.3zm5 .4a2 2 0 0 1-1.7-.7c-.4-.5-.6-1.3-.6-2.3V408c0-1 .2-1.8.6-2.3a2 2 0 0 1 1.7-.7c.7 0 1.3.2 1.6.7.4.5.6 1 .6 1.7v.2h-.8v-.3c-.1-.5-.2-.8-.5-1.1-.2-.3-.5-.4-1-.4-.4 0-.7.1-1 .4-.2.4-.3.8-.3 1.4v3.4c0 .6 0 1 .3 1.4.3.3.6.4 1 .4.5 0 .8-.1 1-.4.3-.3.4-.6.4-1l.1-.4h.7v.2c0 .6-.1 1.2-.5 1.7s-1 .7-1.6.7zm3.8-3V408c0-1 .3-1.8.7-2.3.4-.5 1-.7 1.7-.7s1.2.2 1.6.7c.4.5.6 1.3.6 2.3v1.2H80v1.8c0 .6 0 1 .3 1.4.3.3.6.4 1 .4.5 0 .8-.1 1-.4.3-.3.4-.6.4-1l.1-.4h.7v.2c0 .6-.1 1.2-.5 1.7s-1 .7-1.6.7a2 2 0 0 1-1.7-.7c-.4-.5-.6-1.3-.6-2.3zm1-3v.8h2.7v-.8c0-.6 0-1-.3-1.4-.3-.3-.6-.4-1-.4s-.8.1-1 .4c-.3.3-.4.8-.4 1.4zM18.9 511.4l1.2-3h.6V520l-.3.1H20v-8.3l-.3-.2h-.6c-.3 0-.3-.1-.2-.3zm6.9 4.2v-.1c0-.3 0-.4.2-.4h2.9c.2 0 .2.1.2.4 0 .3 0 .4-.2.4h-3l-.1-.3zM35 511v6.5c0 .6.1 1.1.4 1.5.3.3.7.5 1.2.5s1-.2 1.2-.5c.3-.4.5-.9.5-1.5v-.2c0-.2.1-.3.3-.3h.2c.3 0 .4.1.4.3 0 1-.2 1.8-.7 2.3s-1 .7-1.9.7c-.7 0-1.4-.3-1.8-.7s-.7-1.3-.7-2.2V511c0-1 .2-1.6.7-2.1s1-.8 1.8-.8 1.4.3 1.9.8.7 1.2.7 2.1v.1c0 .2-.1.3-.4.3h-.2c-.2 0-.3-.1-.3-.3v-.1c0-.7-.2-1.2-.5-1.5-.3-.4-.7-.5-1.2-.5s-.9.1-1.2.5c-.3.3-.4.8-.4 1.4zm5.8 6.3v-2.7c0-1 .2-1.7.6-2.2.4-.5 1-.8 1.7-.8s1.2.3 1.6.8c.4.5.7 1.2.7 2.2v2.7c0 1-.3 1.7-.7 2.2-.4.5-1 .8-1.6.8s-1.3-.3-1.7-.8c-.4-.5-.6-1.2-.6-2.2zm3.7.3v-3.3c0-.6-.2-1-.4-1.4-.3-.3-.6-.4-1-.4s-.8.1-1 .4c-.3.3-.4.8-.4 1.4v3.3c0 .7.1 1.1.4 1.4.2.3.5.5 1 .5s.7-.2 1-.5c.2-.3.4-.7.4-1.4zm6.3 2.3v-5.6c0-1.2-.5-1.8-1.4-1.8-.9 0-1.3.6-1.3 1.8v5.8l-.3.1h-.5v-8.5h.7l.1.3v.3c.3-.5.8-.7 1.4-.8a2 2 0 0 1 1.6.8c.4.4.5 1.2.5 2.2v5.5l-.3.1h-.5v-.3zm6.5-6.3v.3h-.5c-.2 0-.3 0-.3-.3s-.1-.6-.3-.8c-.3-.2-.5-.3-.8-.3s-.6 0-.8.3a1 1 0 0 0-.4.8c0 .3.2.6.4.9l.8.8a45 45 0 0 1 1.9 1.7c.2.3.3.7.3 1.1a2 2 0 0 1-.7 1.6c-.4.4-1 .6-1.6.6a2.2 2.2 0 0 1-2.2-2.2v-.3h.5c.2 0 .3 0 .3.3 0 .4.2.8.5 1 .3.2.6.4 1 .4.3 0 .6-.2 1-.4s.3-.6.3-1-.2-.8-.5-1.1a6 6 0 0 0-1.2-1l-1.1-1a2 2 0 0 1-.5-1.4c0-.5.2-1 .5-1.4.4-.4.9-.6 1.4-.6s1 .2 1.4.6.6.8.6 1.4zm2.7-3.4v1.8l.2.1h.3l.3.1v.7h-.6l-.2.2v5.8c.2.3.3.5.6.5h.3v.7l-.3.1c-.6 0-1-.2-1.2-.7l-.2-1v-5.4l-.2-.2h-.3v-.7h.3l.1-.2v-1.8l.1-.2.3-.1h.4l.1.3zm4.6 2.3c-.8 0-1.2.5-1.3 1.4v.4h-.8v-.3c0-.6.1-1.2.5-1.6.3-.5.9-.8 1.6-.8 1.5 0 2.2 1 2.2 3v4.3l.2 1c0 .2 0 .3-.4.3h-.5l-.1-.5c-.4.4-1 .6-1.6.6-.7 0-1.2-.2-1.5-.6s-.6-1-.6-1.7v-.5c0-.5.1-1 .4-1.3.2-.3.5-.5.9-.7l1-.4 1-.5c.3-.2.3-.3.3-.6 0-.4 0-.8-.3-1-.2-.4-.5-.5-1-.5zm.1 7c.4 0 .7-.2 1-.5s.3-.6.3-1.2v-2.5l-.9.3-.8.3c-.8.4-1.2 1-1.1 1.9 0 1.2.5 1.7 1.5 1.7zm5-9.3v1.8l.2.1h.3l.2.1.1.3v.4h-.6c-.2 0-.2.1-.2.2v5.8c.1.3.3.5.6.5h.3v.7l-.3.1c-.6 0-1-.2-1.2-.7-.2-.3-.2-.6-.3-1v-5.4c0-.1 0-.2-.2-.2h-.2l-.1-.3v-.4h.3l.2-.2v-2l.3-.1h.5v.3zM20.6 259v-.3l.4-.1h.3c.8 0 1.2-.5 1.2-1.5v-1.2c0-.6-.2-1-.4-1.3-.3-.3-.7-.5-1.1-.5-.4 0-.8.2-1 .4a2 2 0 0 0-.5 1v.4l-.2.1h-.6v-.3c0-.6.2-1.2.6-1.7.4-.4 1-.7 1.7-.7s1.3.3 1.7.8.7 1.2.7 2.2v.7a3 3 0 0 1-.7 2c.4.5.7 1.1.7 2v1.4c0 1-.3 1.7-.7 2.2-.4.5-1 .7-1.7.7-.8 0-1.3-.2-1.7-.7-.4-.5-.6-1-.6-1.6v-.3h.8v.4c0 .4.2.8.5 1s.6.4 1 .4.8-.1 1-.4c.3-.3.5-.8.5-1.4V261c0-1-.4-1.5-1.2-1.5h-.6v-.4zm7.7 1.7v-.2c0-.2 0-.3.2-.3h3c.1 0 .2 0 .2.3v.2c0 .2-.1.3-.3.3h-2.9c-.1 0-.2-.1-.2-.3zm10.7.4h-1.3v4.1H37l-.1-.3v-11.4l.3-.1h2c.8 0 1.4.2 1.8.7s.7 1.2.7 2.2v2c0 .9-.2 1.6-.7 2s-1 .8-1.8.8zm-1.3-6.6v5.7H39c.5 0 1 0 1.3-.4.3-.4.4-1 .4-1.6v-2c0-.6-.1-1.1-.4-1.5-.3-.3-.8-.5-1.3-.5h-1.3v.3zm7.8 3.2H45c-.4 0-.7.2-.8.5v6.7c0 .2-.1.3-.2.3h-.7v-8.3l.3-.1h.4l.1.3v.2a2 2 0 0 1 1.2-.5h.3l.1.3v.6h-.3zm2.2-1.7c-.2 0-.4 0-.5-.3v-.5c.1-.2.3-.3.5-.3s.4.1.5.3v.5c-.1.2-.3.3-.5.3zm.4 1.1v8.1h-.8v-8.3l.3-.1h.5v.3zm5.9 1.5l-.1.3h-.5c-.2 0-.3 0-.3-.2a1 1 0 0 0-.4-.8c-.2-.3-.4-.4-.8-.4s-.5.1-.7.4a1 1 0 0 0-.4.7c0 .3.1.6.4 1l.8.7a45 45 0 0 1 2 1.7l.3 1.2a2 2 0 0 1-.7 1.5c-.5.4-1 .6-1.6.6-.6 0-1.1-.2-1.6-.6-.4-.4-.6-1-.6-1.5v-.3h.5c.2 0 .3 0 .3.3 0 .4.2.7.5 1 .2.2.6.3 1 .3.3 0 .6-.1.9-.4s.4-.6.4-1c0-.3-.2-.7-.5-1a6 6 0 0 0-1.2-1l-1.1-1a2 2 0 0 1-.6-1.4c0-.6.2-1 .6-1.4.4-.4.9-.6 1.4-.6s1 .2 1.4.5.6.9.6 1.4zm1.6 3.8v-2.7c0-1 .2-1.8.6-2.2.4-.5 1-.8 1.6-.8s1.3.3 1.7.8c.4.4.6 1.2.6 2.2v1.2h-3.3l-.3.1v1.7c0 .6 0 1 .3 1.4.3.3.6.4 1 .4s.8-.1 1-.4c.2-.2.4-.6.4-1v-.4h.8v.3c0 .6-.1 1.1-.5 1.6s-1 .8-1.7.8a2 2 0 0 1-1.6-.8c-.4-.5-.6-1.2-.6-2.2zm.8-3v.7h2.8v-.8c0-.6-.1-1-.3-1.3-.3-.3-.6-.5-1-.5s-.8.2-1 .5c-.3.3-.5.7-.5 1.3zm-33.1 16.3V287l-.1.3h-.7l-.1-.3v-.3c-.3.5-.8.7-1.4.7-.7 0-1.2-.2-1.6-.7-.4-.5-.6-1.2-.6-2.2v-2.7c0-1 .2-1.8.6-2.3a2 2 0 0 1 1.6-.7c.6 0 1 .3 1.4.7v-3.9l.3-.1h.5v.3zm-3.6 5.6v3.4c0 1.2.5 1.8 1.4 1.8.8 0 1.3-.6 1.3-1.8v-3.4c0-1.2-.5-1.8-1.3-1.8-1 0-1.4.6-1.4 1.8zm5.4 3.1v-2.7c0-1 .2-1.8.7-2.2.4-.5 1-.8 1.6-.8s1.3.3 1.7.8c.4.4.6 1.2.6 2.2v1.2h-3.3l-.3.1v1.7c0 .6 0 1 .3 1.4.2.3.6.4 1 .4s.7-.1 1-.4c.2-.2.4-.6.4-1v-.4h.8v.3a3 3 0 0 1-.5 1.6c-.4.5-1 .8-1.7.8a2 2 0 0 1-1.6-.8c-.5-.5-.7-1.2-.7-2.2zm1-3v.7h2.7v-.8c0-.6-.1-1-.4-1.3-.2-.3-.6-.5-1-.5s-.8.2-1 .5c-.3.3-.4.7-.4 1.3zm10.9 5.9a2 2 0 0 1-1.6-.7c-.4-.5-.6-1.2-.6-2.2v-2.7c0-1 .2-1.8.6-2.2a2 2 0 0 1 1.7-.8 2 2 0 0 1 1.6.7c.4.5.6 1 .6 1.7v.3h-.8v-.4c0-.4-.2-.8-.4-1-.3-.3-.6-.5-1-.5s-.8.2-1 .5c-.3.3-.4.7-.4 1.3v3.4c0 .6.1 1 .4 1.4.2.3.6.4 1 .4s.7-.1 1-.4c.2-.2.3-.6.4-1v-.4h.8v.3c0 .6-.2 1.1-.6 1.6-.3.5-.9.7-1.6.7zm4-2.9v-2.7c0-1 .2-1.8.6-2.2.4-.5 1-.8 1.7-.8s1.3.3 1.7.8c.4.4.6 1.2.6 2.2v2.7c0 1-.2 1.7-.6 2.2-.4.5-1 .7-1.7.7s-1.3-.2-1.7-.7c-.4-.5-.6-1.2-.6-2.2zm3.7.3v-3.4c0-.6-.1-1-.4-1.3-.2-.3-.6-.5-1-.5s-.8.2-1 .5c-.3.3-.4.7-.4 1.3v3.4c0 .6.1 1 .4 1.4.2.3.6.4 1 .4s.8-.1 1-.4c.3-.3.4-.8.4-1.4zM51 287v-5.7c0-1.2-.5-1.8-1.3-1.8-1 0-1.4.6-1.4 1.8v5.9h-.8v-8.3l.3-.1h.5v.6c.4-.4.8-.7 1.4-.7.7 0 1.2.2 1.6.7.4.5.6 1.3.6 2.3v5.2l-.1.3H51l-.1-.3zm6.6-6.4l-.1.3H57c-.1 0-.2 0-.3-.2 0-.3-.1-.6-.3-.8-.2-.3-.5-.4-.8-.4s-.6.1-.8.4a1 1 0 0 0-.3.7c0 .3 0 .6.3 1l.9.7a45 45 0 0 1 1.8 1.7l.3 1.2a2 2 0 0 1-.7 1.5c-.4.4-1 .6-1.5.6-.7 0-1.2-.2-1.6-.6a2 2 0 0 1-.7-1.5v-.3h.5c.2 0 .3 0 .4.3 0 .4.2.7.4 1 .3.2.6.3 1 .3.3 0 .7-.1 1-.4s.3-.6.3-1c0-.3-.1-.7-.5-1a6 6 0 0 0-1.1-1l-1.2-1a2 2 0 0 1-.5-1.4c0-.6.2-1 .6-1.4.3-.4.8-.6 1.4-.6s1 .2 1.3.5.6.9.7 1.4zm3.9 6.7a2 2 0 0 1-1.7-.7c-.4-.5-.6-1.2-.6-2.2v-2.7c0-1 .2-1.8.6-2.2a2 2 0 0 1 1.7-.8 2 2 0 0 1 1.6.7c.4.5.6 1 .6 1.7v.3H63v-.4c0-.4-.2-.8-.5-1-.2-.3-.5-.5-1-.5-.4 0-.7.2-1 .5-.2.3-.3.7-.3 1.3v3.4c0 .6.1 1 .3 1.4.3.3.6.4 1 .4.5 0 .8-.1 1-.4.3-.2.4-.6.4-1l.1-.4h.7l.1.3c0 .6-.2 1.1-.6 1.6-.3.5-.9.7-1.6.7zM66 278c-.2 0-.4 0-.5-.3v-.5c.1-.2.3-.3.5-.3s.4.1.5.3v.5c-.1.2-.3.3-.5.3zm.5 1.1v7.8l-.1.3h-.8v-8.3l.3-.1h.5v.3zm1.8 5.3v-2.7c0-1 .2-1.8.6-2.2.4-.5 1-.8 1.7-.8s1.3.3 1.7.8c.4.4.6 1.2.6 2.2v1l-.1.2h-3.3l-.3.1v1.7c0 .6.1 1 .4 1.4.2.3.6.4 1 .4s.7-.1 1-.4c.2-.2.3-.6.4-1v-.4h.8v.3c0 .6-.2 1.1-.6 1.6-.3.5-.9.8-1.6.8a2 2 0 0 1-1.7-.8c-.4-.5-.6-1.2-.6-2.2zm.9-3v.7H72v-.8c0-.6 0-1-.3-1.3-.2-.3-.6-.5-1-.5s-.8.2-1 .5c-.3.3-.4.7-.4 1.3zm9.1 5.6v-5.7c0-1.2-.5-1.8-1.3-1.8-1 0-1.4.6-1.4 1.8v5.9h-.8v-8.3l.3-.1h.5v.6c.4-.4.8-.7 1.4-.7.7 0 1.2.2 1.6.7.4.5.6 1.3.6 2.3v5.2l-.1.3h-.7l-.1-.3zm4.9.3a2 2 0 0 1-1.6-.7c-.4-.5-.6-1.2-.6-2.2v-2.7c0-1 .2-1.8.6-2.2a2 2 0 0 1 1.6-.8c.8 0 1.3.3 1.7.7.4.5.5 1 .6 1.7l-.1.3h-.7v-.4l-.5-1c-.2-.3-.6-.5-1-.5s-.7.2-1 .5c-.2.3-.4.7-.4 1.3v3.4c0 .6.2 1 .4 1.4.3.3.6.4 1 .4s.8-.1 1-.4c.2-.2.4-.6.4-1v-.4h.8v.3c0 .6-.1 1.1-.5 1.6s-1 .7-1.7.7zm4-2.9v-2.7c0-1 .2-1.8.6-2.2.4-.5 1-.8 1.6-.8s1.3.3 1.7.8c.4.4.6 1.2.6 2.2v1.2h-3.3l-.3.1v1.7c0 .6 0 1 .3 1.4.3.3.6.4 1 .4s.8-.1 1-.4c.2-.2.4-.6.4-1v-.4h.8v.3c0 .6-.1 1.1-.5 1.6s-1 .8-1.7.8a2 2 0 0 1-1.6-.8c-.4-.5-.6-1.2-.6-2.2zm.8-3v.7h2.8v-.8c0-.6-.1-1-.3-1.3-.3-.3-.6-.5-1-.5s-.8.2-1 .5c-.3.3-.5.7-.5 1.3z"/><path fill="#6F00FF" d="M19.7 38.4c.6 0 1-.2 1.4-.6l.2-.6.1-1.7V22c0-.2 0-.3.2-.4l.4-.1h1.7l.4.1.1.4v13.3c0 2-.3 3.5-1 4.3-.7.9-2 1.3-3.5 1.3-.2 0-.4 0-.5-.2v-2.1l.5-.1zM34.4 41h-5.9c-.2 0-.3 0-.4-.2l-.1-.4V21.7l.5-.1h5.9l.4.1.1.4v1.5l-.1.5h-3.5c-.3 0-.5.1-.5.2v5.1h3.5c.3 0 .4 0 .5.2l.1.4v1.5l-.1.4-.4.2h-3.6v6.2h3.5c.3 0 .4.1.5.2l.1.4v1.5l-.1.4-.4.2zm11.3-19.4H49c1.4 0 2.4.4 3.3 1.3s1.2 2.2 1.2 4v8.8c0 1.7-.4 3-1.2 4S50.3 41 49 41h-3.3c-.2 0-.3 0-.4-.2l-.1-.4V21.7l.5-.1zm2.2 3.1v13l.1.6h1c.5 0 1-.1 1.2-.4s.5-.9.5-1.5V26.2c0-.7-.1-1.2-.5-1.5s-.7-.5-1.2-.5h-1v.5zm17.8 2v9.1c0 1.7-.4 3-1.3 4-.8.8-1.8 1.3-3.2 1.3s-2.4-.5-3.2-1.4-1.2-2.2-1.2-3.9v-9c0-1.8.4-3 1.2-4s1.9-1.3 3.2-1.3 2.4.4 3.2 1.3c.9 1 1.3 2.2 1.3 4zm-2.8 9.8V26c0-.8-.2-1.4-.8-1.8-.6-.3-1.2-.3-1.7 0-.6.4-.9 1-.8 1.8v10.5c0 .9.2 1.5.8 1.8.5.4 1.1.4 1.7 0 .6-.3.9-1 .8-1.8zM72 22.1v18.7l-.5.2h-1.7c-.2 0-.3 0-.4-.2l-.1-.4V21.7l.5-.1h1.7l.4.1.1.4zM79.6 41c-1.3 0-2.3-.4-3.2-1.2a5 5 0 0 1-1.2-3.3v-.4l.6-.2h1.6c.3 0 .5.2.5.7 0 .6.2 1 .5 1.4.3.4.7.5 1.2.5s.9-.1 1.2-.4.5-.7.5-1.2c.2-1.1-.4-2.5-1.8-4a22.4 22.4 0 0 1-1.1-1.4l-.6-.7a23.3 23.3 0 0 0-1.6-2.4 47.1 47.1 0 0 0-.6-1.7l-.1-.9a4 4 0 0 1 4-4.3 4 4 0 0 1 4 3.7v.7l-.5.1h-2l-.1-.5c0-.5-.1-.9-.4-1.1-.2-.3-.5-.4-1-.4s-.8.2-1 .6a2 2 0 0 0-.3 1.2c0 .7.4 1.5 1 2.3l1.8 2.4c.7.7 1.3 1.6 2 2.6.5 1 .9 2 1 3 .2 1.3-.2 2.4-1 3.5-.9 1-2 1.5-3.4 1.5zm14.8-19.4h3.3c1.4 0 2.4.4 3.2 1.3s1.3 2.2 1.3 4v8.8c0 1.7-.4 3-1.3 4S99.1 41 97.7 41h-3.3c-.2 0-.3 0-.4-.2l-.2-.4V22.1c0-.2 0-.3.2-.4l.4-.1zm2.2 3.1v13.6h1.1c.5 0 1-.1 1.2-.4s.5-.9.5-1.5V26.2c0-.7-.2-1.2-.5-1.5s-.7-.5-1.2-.5h-1v.5zM112.2 41h-5.9c-.2 0-.3 0-.4-.2l-.1-.4V21.7l.5-.1h5.9l.4.1.1.4v1.5l-.1.5H109c-.3 0-.5.1-.5.2v5.1h3.5c.3 0 .4 0 .5.2l.1.4v1.5l-.1.4-.4.2h-3.6v6.2h3.5c.3 0 .4.1.5.2l.1.4v1.5l-.1.4-.4.2zm-2.6-20.4h-1c-.1 0-.2 0-.2-.3v-3.1l.5-.2h1.7c.4 0 .5.3.3.8l-.8 2.3c0 .3-.1.4-.2.4l-.3.1zm15 6.2c0 1.6-.3 2.9-1 3.8-.2 0-.2.2 0 .3.7 1 1 2.2 1 3.8v1c0 1.7-.4 3-1.2 4s-1.9 1.3-3.2 1.3h-3.3c-.2 0-.4 0-.5-.2V21.7l.5-.1h3.3c1.3 0 2.4.4 3.2 1.3s1.2 2.2 1.2 4zm-5.5-2v4.6h1.1c1.1 0 1.7-.7 1.7-2v-1.2c0-.7-.2-1.2-.5-1.5s-.7-.5-1.2-.5h-1l-.1.5zm0 7.8v5.7h1.1c.5 0 .9-.1 1.2-.4s.5-.9.5-1.5V34c0-.6-.2-1.1-.5-1.5s-.7-.5-1.2-.5h-.8c-.2 0-.2.1-.3.2v.4zm9.7-11h3.6c1.3 0 2.3.4 3 1.3.8.8 1.1 2 1.1 3.8v1c0 2.1-.5 3.6-1.6 4.4l1.6 8.3c.1.4 0 .6-.3.6H134l-.1-.2-.2-.2-1.4-7.5c0-.2-.1-.2-.3-.2h-1v7.5l-.2.4-.4.2h-1.7c-.2 0-.4 0-.4-.2l-.2-.4V22.1c0-.2 0-.3.2-.4l.4-.1zm3.6 2.4H131l-.1.6v5.7l.6.1h.8c1 0 1.4-.6 1.4-2V26c0-1.3-.5-2-1.4-2zm10.6-1.9v18.3l-.2.4-.4.2h-1.7c-.2 0-.3 0-.4-.2l-.1-.4V22.1l.1-.4.4-.1h1.7l.4.1.1.4zM153.2 41h-5.8c-.2 0-.4 0-.5-.2V21.7l.5-.1h5.8l.5.1v2.4h-3.5c-.3 0-.5.1-.5.2l-.1.4v4.7h3.6c.2 0 .4 0 .5.2v2.3l-.5.2h-3.5l-.1.5v5.7h3.6l.5.2v2.3l-.5.2zm6.4 0h-1.7c-.2 0-.3 0-.4-.2l-.1-.4V22.1l.1-.4.4-.1h5.9l.4.1.1.4v2h-3.5c-.4 0-.5.1-.6.2v5.1h2.7c.2 0 .4 0 .5.2v2.3l-.5.2h-2.7v8.3c0 .2 0 .4-.2.4l-.4.2zm14.4 0h-5.8c-.2 0-.3 0-.4-.2l-.1-.4V21.7l.5-.1h5.9l.4.1.1.4v1.5l-.1.5H171c-.3 0-.5.1-.5.2v5.1h3.5c.3 0 .4 0 .5.2l.1.4v1.5l-.1.4-.4.2h-3.6v6.2h3.5c.3 0 .4.1.5.2l.1.4v1.5l-.1.4-.4.2zm4.8-19.4h3.6c1.3 0 2.3.4 3 1.3.8.8 1.1 2 1.1 3.8v1c0 2.1-.5 3.6-1.7 4.4l1.7 8.3c.1.4 0 .6-.3.6H184l-.2-.2v-.2l-1.5-7.5c0-.2-.1-.2-.3-.2h-1l-.1.5v7l-.1.4-.5.2h-1.6c-.2 0-.4 0-.5-.2V21.7l.5-.1zm3.6 2.4H181l-.1.6v5.7l.5.1h.9c.9 0 1.4-.6 1.4-2V26c0-1.3-.5-2-1.4-2zm20.4 12.5V21.7l.5-.1h1.7l.4.1.1.4v13.7c0 1.7-.4 3-1.2 4-.8.8-1.9 1.3-3.2 1.3-1.3 0-2.4-.5-3.2-1.4s-1.2-2.2-1.2-3.9V22.1l.1-.4.4-.1h1.7l.4.1.1.4v14.4c0 .9.3 1.5.8 1.8.6.4 1.2.4 1.8 0 .6-.3.8-1 .8-1.8zm14.9 4.5h-1.2c-.3 0-.5-.1-.6-.4l-3.6-10.3-.1-.1c-.1-.1 0 0-.1 0v10.2c0 .2 0 .4-.2.4l-.4.2h-1.7c-.2 0-.3 0-.4-.2l-.1-.4V22.1l.1-.4.4-.1h1.3c.3 0 .5.1.5.3l3.7 10.4c.1.1.1.1.2 0V22l.1-.4.5-.1h1.6l.5.1v19.2l-.5.2zm10.9 0h-5.9c-.2 0-.3 0-.4-.2l-.1-.4V21.7l.5-.1h5.9l.4.1.1.4v1.5l-.1.5h-3.5c-.3 0-.5.1-.5.2v5.1h3.5c.3 0 .4 0 .5.2l.1.4v1.5l-.1.4-.4.2H225v6.2h3.5c.3 0 .4.1.5.2l.1.4v1.5l-.1.4-.4.2zm17.2 0h-5.9c-.2 0-.3 0-.4-.2l-.1-.4V21.7l.5-.1h5.9l.4.1.1.4v1.5l-.1.5h-3.5c-.3 0-.4.1-.5.2v5.1h3.5c.3 0 .4 0 .5.2l.1.4v1.5l-.1.4-.4.2h-3.6v6.2h3.5c.3 0 .4.1.5.2l.1.4v1.5l-.1.4-.4.2zm4.7-19.4h3.6c1.3 0 2.3.4 3 1.3.8.8 1.1 2 1.1 3.8v1c0 2.1-.5 3.6-1.7 4.4l1.7 8.3c.1.4 0 .6-.3.6h-2.1l-.2-.2v-.2L254 33c0-.2-.1-.2-.3-.2h-1l-.1.5v7l-.1.4-.5.2h-1.6c-.2 0-.4 0-.4-.2l-.2-.4V22.1c0-.2 0-.3.2-.4l.4-.1zM254 24h-1.3l-.1.6v5.7l.6.1h.8c.9 0 1.4-.6 1.4-2V26c0-1.3-.5-2-1.4-2zm8.4-2.4h3.6c1.3 0 2.4.4 3 1.3.8.8 1.2 2 1.2 3.8v1c0 2.1-.6 3.6-1.7 4.4l1.7 8.3c0 .4 0 .6-.4.6h-2l-.2-.2-.1-.2L266 33c0-.2-.2-.2-.4-.2h-1v7.5l-.2.4-.4.2h-1.7c-.2 0-.3 0-.4-.2l-.1-.4V21.7l.5-.1zM266 24h-1.3v6.3l.5.1h.8c1 0 1.4-.6 1.4-2V26c0-1.3-.5-2-1.4-2zm14.2 17h-5.8c-.2 0-.4 0-.5-.2V21.7l.5-.1h5.8l.4.1.2.4v1.5c0 .2 0 .4-.2.5h-3.4c-.3 0-.5.1-.5.2l-.1.4v4.7h3.6c.2 0 .4 0 .4.2l.2.4v1.5c0 .2 0 .3-.2.4l-.4.2h-3.5l-.1.5v5.7h3.6l.4.2.2.4v1.5c0 .2 0 .4-.2.4l-.4.2zm10.1-4.5V22.1l.1-.4.5-.1h1.6l.5.1.1.4v13.7c0 1.7-.4 3-1.2 4a4.6 4.6 0 0 1-6.5-.1c-.9-.9-1.2-2.2-1.2-3.9V22.1c0-.2 0-.3.2-.4l.4-.1h1.6l.5.1.1.4v14.4c0 .9.2 1.5.8 1.8.6.4 1.2.4 1.7 0 .6-.3.9-1 .8-1.8zm7.1-14.9h3.6c1.3 0 2.3.4 3 1.3.8.8 1.2 2 1.2 3.8v1c0 2.1-.6 3.6-1.7 4.4l1.6 8.3c.1.4 0 .6-.3.6h-2.1l-.1-.2-.2-.2L301 33c0-.2-.1-.2-.3-.2h-1v7.5l-.2.4-.4.2h-1.7c-.2 0-.4 0-.4-.2l-.2-.4V22.1c0-.2 0-.3.2-.4l.4-.1zM301 24h-1.3v6.3l.5.1h.8c1 0 1.4-.6 1.4-2V26c0-1.3-.5-2-1.4-2zM176.4 209.6h10.5v19.9h-10.5z"/><path fill="#6F00FF" d="M181.7 196.2l7.7 18.9-7.7-4.5-7.7 4.5zm-5.3-110.8h10.5v19.9h-10.5z"/><path fill="#6F00FF" d="M181.7 72l7.7 18.9-7.7-4.5-7.7 4.5zm-5.3 261h10.5v19.9h-10.5z"/><path fill="#6F00FF" d="M181.7 319.6l7.7 18.9-7.7-4.5-7.7 4.5zm-5.3 136.6h10.5v19.9h-10.5z"/><path fill="#6F00FF" d="M181.7 442.8l7.7 18.9-7.7-4.5-7.7 4.5z"/><path fill="#6F00FF" stroke="#41D5CF" stroke-miterlimit="10" stroke-width="5" d="M226.1 395.4a44.5 44.5 0 1 1-89-.1 44.5 44.5 0 0 1 89 .1zm0 120.3a44.5 44.5 0 1 1-89-.1 44.5 44.5 0 0 1 89 0zm0-243.2a44.5 44.5 0 1 1-89 0 44.5 44.5 0 0 1 89 0zm-88.8-124.2a44.5 44.5 0 1 1 89 .1 44.5 44.5 0 0 1-89 0z"/><path fill="#FFF" d="M148.9 399.9h-.7l-.3-.1v-11.1h3.9v1.1l-.3.1h-2.3v3.4h2.1v1.2h-1.8l-.3.1v5.2h-.3zm8.5 0h-.7l-.3-.1v-.5a2.5 2.5 0 0 1-3.1.1c-.4-.3-.5-1-.5-1.6v-.3c0-.5 0-1 .3-1.3s.5-.6.8-.7l.6-.2.6-.2.6-.3.3-.3.2-.5c0-.3 0-.5-.3-.7-.1-.2-.4-.3-.7-.3s-.5.1-.7.4c-.2.2-.3.4-.3.8v.3H153v-.3c0-.7.1-1.2.6-1.7a2 2 0 0 1 1.6-.7c.7 0 1.2.2 1.7.7.4.4.7 1 .7 1.8v5.2c.1.2 0 .4-.2.4zm-2.2-1.2c.7 0 1-.5 1-1.3v-1.6a24.6 24.6 0 0 1-1.4.6l-.4.2c-.2.2-.3.6-.3 1 0 .3 0 .5.2.7.2.2.4.4.9.4zm4-7.7l-.2-.7c0-.3 0-.3.2-.5l.6-.2c.2 0 .4 0 .5.2.2.2.2.3.2.5l-.2.6c-.1.2-.3.2-.5.2-.3 0-.4 0-.6-.2zm1 8.9h-.8l-.2-.1-.1-.3v-7.6h1.3v7.9h-.3zm4.5-6.7l-.5-.1c-.4 0-.7.2-.7.5l-.1 1.1v4.8l-.1.3h-1.2v-7.9h1.2v.5c.4-.4.8-.5 1.2-.5h.4l.1.3v.8h-.3zm1 3.8v-2.3c0-1 .3-1.7.7-2.2.5-.5 1-.7 1.7-.7s1.3.2 1.7.7c.5.5.7 1.2.7 2.2v1.4H167v1.3c0 .4 0 .7.3 1 .1.2.4.3.7.3.3 0 .6-.1.8-.3s.3-.5.3-.8v-.3l.3-.1h1v.3c0 .6-.1 1.1-.5 1.6-.4.6-1 .8-1.8.8-.6 0-1.2-.2-1.7-.7-.4-.5-.7-1.2-.7-2.2zm3.5-2.4v-.3c0-.5-.1-.9-.5-1.1a1 1 0 0 0-1.1 0c-.4.2-.6.6-.5 1.1v.6h2v-.3zm8.6-1.4l-.5-.1c-.4 0-.6.2-.7.5v5.9l-.2.3h-1.2v-7.9h1.2l.1.3v.2c.3-.4.7-.5 1.2-.5h.4v1.2h-.3zm5.6 6.7h-.7l-.2-.1-.1-.5c-.4.4-1 .6-1.6.6-.6 0-1-.2-1.4-.5s-.6-1-.6-1.6v-.3c0-.5.1-1 .3-1.3s.5-.6.9-.7l.6-.2.6-.2c.2 0 .3-.2.5-.3.2 0 .3-.2.4-.3l.1-.5c0-.3 0-.5-.2-.7-.2-.2-.4-.3-.7-.3s-.6.1-.8.4l-.2.8-.1.3h-1.1l-.1-.3c0-.7.2-1.2.6-1.7.5-.5 1-.7 1.7-.7a2 2 0 0 1 1.6.7c.5.4.7 1 .7 1.8v4.4l.1.8c0 .2 0 .4-.3.4zm-2.2-1.2c.7 0 1-.5 1-1.3v-1.6a24.6 24.6 0 0 1-1.3.6l-.4.2c-.2.2-.3.6-.3 1 0 .3 0 .5.2.7.1.2.4.4.8.4zm5.1-4.4v3.1c0 .4.1.7.3 1 .2.2.5.3.8.3.3 0 .5-.1.7-.3s.3-.5.3-.8v-.3l.3-.1h.9v.3c.1.6 0 1.1-.5 1.6-.4.6-1 .8-1.7.8s-1.3-.2-1.7-.7c-.5-.5-.7-1.2-.7-2.2v-2.3c0-1 .2-1.7.7-2.2.4-.5 1-.7 1.7-.7s1.3.3 1.7.8.6 1 .6 1.6v.3h-1.2v-.4l-.4-.8a1 1 0 0 0-.7-.3c-.3 0-.6.1-.8.4s-.3.5-.3.9zm9.5.4v2.3c0 1-.2 1.7-.7 2.2-.5.5-1 .7-1.7.7s-1.2-.2-1.7-.7c-.5-.5-.7-1.2-.7-2.2v-2.3c0-1 .2-1.7.7-2.2.5-.5 1-.7 1.7-.7s1.2.2 1.7.7c.5.5.7 1.2.7 2.2zm-1.4 2.7v-3c0-.4 0-.7-.2-1a1 1 0 0 0-.5-.3h-.6a1 1 0 0 0-.6.4l-.2.8v3c0 .4 0 .7.2 1l.6.3h.6c.2 0 .4-.2.5-.4.2-.2.3-.5.2-.8zm4.2-3.1v5.2l-.1.3h-1.2v-7.9h1.2v.5c.4-.4.8-.6 1.3-.6.6 0 1.1.2 1.5.6s.6 1.2.6 2.1v5.3h-1.3v-5.5l-.2-.8a.8.8 0 0 0-.5-.4h-.6c-.2 0-.4.1-.5.4l-.2.8zm6.2-.9v3.7l.1 1.1c.2.2.4.4.8.4h.2v1.2h-.2c-.9 0-1.4-.2-1.8-.6s-.5-1.2-.5-2.2v-3.6l-.1-.2h-.3V392h.3l.1-.2v-1.7h1.3v1.7l.2.1h.7v1.3h-.7l-.1.3zm2.2 3.6v-2.3c0-1 .2-1.7.6-2.2.5-.5 1-.7 1.7-.7s1.3.2 1.7.7c.5.5.7 1.2.7 2.2v1.4h-3.3l-.1.3v1c0 .4 0 .7.3 1 .2.2.4.3.7.3.3 0 .6-.1.8-.3s.3-.5.3-.8v-.3l.3-.1h.9v.3c0 .6 0 1.1-.5 1.6-.4.6-1 .8-1.8.8-.6 0-1.2-.2-1.7-.7-.4-.5-.7-1.2-.7-2.2zm3.4-2.4v-.3c0-.5-.1-.9-.5-1.1a1 1 0 0 0-1.1 0c-.4.2-.6.6-.5 1.1v.6h2l.1-.3zm5.4-1.4l-.5-.1c-.4 0-.6.2-.7.5v5.9l-.1.3h-1.2l-.1-.3v-7.6h1.3v.5c.4-.4.7-.5 1.2-.5h.4v1.2h-.3zM158.6 255h1.8c.7 0 1.3.2 1.7.7.4.4.7 1.1.7 2v.5c0 1.1-.4 2-1 2.4a242.4 242.4 0 0 1 .7 4.8h-.9l-.1-.2-.8-4-.2-.2h-.9v4.1c0 .2-.2.3-.4.3h-.9V255h.3zm1 1.4v3.4h.8c.7 0 1.1-.5 1.1-1.6v-.5c0-1-.4-1.6-1.1-1.6h-.8v.3zm4.4 6.3v-2c0-1 .2-1.7.6-2.2.4-.4 1-.6 1.6-.6.6 0 1.2.2 1.6.6.4.5.7 1.2.7 2.1v1l-.1.3h-2.9l-.2.1v1.2c0 .3 0 .6.2.8s.4.3.7.3c.3 0 .5 0 .7-.3.2-.1.3-.4.3-.7v-.3h1.1v.2c.1.5 0 1-.4 1.6-.4.4-1 .7-1.7.7-.6 0-1.1-.2-1.6-.7-.4-.4-.6-1.1-.6-2zm3.2-2.2v-.3c0-.5-.1-.8-.5-1a1 1 0 0 0-1 0c-.4.2-.5.5-.5 1v.6h1.9v-.3zm3.8-.3v5.2h-1.1V258h1.1v.4c.3-.3.7-.5 1.2-.5.7 0 1.2.2 1.6.7a2 2 0 0 1 1.5-.7 2 2 0 0 1 1.5.6c.3.4.5 1 .5 2v4.8h-1.2V260l-.2-.7a.8.8 0 0 0-.5-.3h-.6l-.4.3c-.2.2-.2.5-.2.8v5.2H173V260a1 1 0 0 0-.3-.7.8.8 0 0 0-.4-.3h-.6c-.2 0-.3.1-.5.3l-.1.8zm7.9-3.2a.7.7 0 0 1-.3-.5c0-.2.1-.4.3-.5l.5-.2c.2 0 .3 0 .5.2l.2.5c0 .2 0 .4-.2.5-.2.2-.3.3-.5.3l-.5-.3zm.8 8.4h-.9V258h1.1v7.4h-.2zm5.7-2.2a2 2 0 0 1-.6 1.6 2 2 0 0 1-1.6.7 2 2 0 0 1-1.6-.7 2 2 0 0 1-.6-1.4l.1-.2.2-.1h.9v.3c0 .2.2.5.4.6.1.2.4.3.6.3.3 0 .5 0 .6-.2l.4-.5c0-.3 0-.6-.2-.8-.1-.3-.4-.5-.7-.6l-.8-.6c-.4-.2-.6-.5-.8-.8-.3-.2-.4-.6-.4-1 0-.5.1-1 .5-1.3.4-.4.9-.6 1.4-.6s1 .2 1.4.6c.4.4.6.9.6 1.4l-.1.3h-1l-.1-.3c0-.3-.1-.5-.3-.6a.7.7 0 0 0-.5-.3c-.4 0-.6.2-.7.5 0 .3 0 .6.3.9l.7.5.8.6.7.7c.3.3.4.6.4 1zm.9-.5v-2c0-1 .2-1.7.7-2.2a2.5 2.5 0 0 1 3.2 0c.4.5.6 1.2.6 2.1v1.3h-2.9l-.3.1v1.2c0 .3 0 .6.3.8s.4.3.7.3c.3 0 .5 0 .7-.3l.2-.7.1-.3h1.1v.2c0 .5-.1 1-.5 1.6a2 2 0 0 1-1.6.7 2 2 0 0 1-1.6-.7c-.5-.4-.7-1.1-.7-2zm3.3-2.2v-.3c0-.5-.2-.8-.5-1a1 1 0 0 0-1 0c-.4.2-.6.5-.5 1v.6h1.9v-.3zm5.4 2.2v-2c0-1 .2-1.7.7-2.2a2.5 2.5 0 0 1 3.2 0c.4.5.6 1.2.6 2.1v1.3h-2.9l-.3.1v1.2c0 .3 0 .6.3.8s.4.3.7.3c.3 0 .5 0 .7-.3l.2-.7.1-.3h1.1v.2c0 .5-.1 1-.5 1.6a2 2 0 0 1-1.6.7 2 2 0 0 1-1.6-.7c-.5-.4-.7-1.1-.7-2zm3.3-2.2v-.3c0-.5-.2-.8-.5-1a1 1 0 0 0-1 0c-.4.2-.6.5-.5 1v.6h1.9v-.3zm3.8-.3v5.2h-1.2V258h1.2v.4c.3-.3.7-.5 1.1-.5.7 0 1.2.2 1.5.6.4.4.6 1 .6 2v4.6l-.1.3H204l-.1-.3v-5c0-.2 0-.5-.2-.7a.8.8 0 0 0-.5-.3h-.5c-.2 0-.4.1-.5.3l-.2.8zM149 279h1v10.1h-1.2V286c-.3.4-.7.6-1.2.6-.6 0-1-.1-1.4-.6-.4-.4-.6-1-.6-2v-2.4c0-.9.2-1.5.6-2 .3-.4.8-.6 1.4-.6.5 0 .9.2 1.1.6v-.2l.1-.3h.2zm-.3 5.2v-3l-.1-.7-.5-.4h-.6c-.2 0-.3.2-.5.4s-.1.4-.1.7v3l.1.8c.2.2.3.3.5.3h.6c.2 0 .3-.1.4-.3.2-.2.2-.5.2-.8zm5.8 0v-5l.1-.2h1.1v7.4h-1.1v-.4c-.3.3-.7.5-1.2.5-.6 0-1-.1-1.4-.6-.4-.4-.6-1-.6-2V279h1.2v5.3c0 .2.1.5.3.7 0 .2.2.3.4.3h.6c.2 0 .3-.1.5-.3l.1-.8zm2.6-.4v-2.1c0-1 .3-1.7.7-2.1a2 2 0 0 1 1.6-.7 2 2 0 0 1 1.6.7c.4.4.6 1.1.6 2v1.3h-2.9l-.2.2v1.1c0 .4 0 .6.2.9s.4.3.7.3c.3 0 .5-.1.7-.3.2-.2.3-.4.3-.7v-.3l.3-.1h.8v.3c.1.5 0 1-.5 1.5-.3.5-.9.7-1.6.7-.6 0-1.2-.2-1.6-.6-.4-.5-.7-1.2-.7-2.1zm3.3-2.2v-.3c0-.5-.1-.9-.5-1a1 1 0 0 0-1 0c-.4.1-.5.5-.5 1v.5h1.9v-.2zm6.6 2.6a2 2 0 0 1-.7 1.6 2 2 0 0 1-1.6.7 2 2 0 0 1-1.6-.6 2 2 0 0 1-.6-1.5l.1-.2h1.1v.2c0 .3.2.5.4.7l.6.3.6-.2.4-.6c0-.3 0-.5-.2-.8l-.6-.6-1-.6-.7-.7c-.3-.3-.4-.6-.4-1a1.9 1.9 0 0 1 1.9-2c.5 0 1 .2 1.4.6.4.4.6 1 .6 1.5l-.1.2h-1l-.1-.3-.3-.6a.7.7 0 0 0-.5-.2c-.4 0-.6.2-.7.5 0 .3 0 .5.3.8.1.2.4.3.7.5l.8.6.7.7c.3.3.4.7.4 1zm2.2-3.8v3.5c0 .5 0 .9.2 1s.3.4.7.4h.2v1.2h-.2c-.8 0-1.3-.1-1.6-.5-.4-.4-.5-1.1-.5-2v-3.5c0-.1 0-.2-.2-.2h-.2v-1h.2l.2-.2v-1.6h1.2v1.6l.2.1h.4l.2.1v1h-.6c-.1 0-.2 0-.2.2zm2.3-2.4l-.2-.4.2-.5.6-.3c.2 0 .3.1.5.3l.2.5c0 .2 0 .3-.2.5l-.5.2c-.2 0-.4 0-.6-.2zm.9 8.5h-.9V279h1.1v7.4h-.2zm6.1-4.8v2c0 1-.2 1.7-.6 2.2a2.5 2.5 0 0 1-3.2 0c-.4-.5-.7-1.2-.7-2.1v-2.1c0-1 .3-1.7.7-2.1a2 2 0 0 1 1.6-.7c.6 0 1.1.2 1.6.7.4.4.6 1.1.6 2zm-1.2 2.4v-2.8c0-.3 0-.6-.2-.8a.9.9 0 0 0-.5-.4h-.6c-.2 0-.4.2-.5.4-.2.2-.2.5-.2.8v2.8c0 .4 0 .6.2.8.1.3.3.4.5.4h.6c.2 0 .3-.1.5-.4l.2-.8zm3.8-2.9v5.2H180l-.1-.2V279h1.2v.5c.3-.4.7-.6 1.2-.6.6 0 1 .2 1.4.6.4.5.6 1.1.6 2v4.7l-.1.2h-1.1v-5.2a1 1 0 0 0-.3-.7.8.8 0 0 0-.4-.4h-.6c-.2 0-.3.2-.5.4l-.2.7zm7.5.5a.7.7 0 0 1-.2-.5c0-.2 0-.4.2-.5.1-.2.3-.2.5-.2l.5.2c.2.1.2.3.2.5s0 .4-.2.5c-.1.2-.3.2-.5.2l-.5-.2zm0 4.6a.7.7 0 0 1-.2-.6c0-.2 0-.3.2-.5l.5-.2c.2 0 .4 0 .5.2.2.2.2.3.2.5s0 .4-.2.6l-.5.2c-.2 0-.4 0-.5-.2zm6.9-1.2l-1.8-2.2v-.3l1.8-2.3h.3v1l-.1.4-.8 1v.1l.8 1 .1.3v1.1h-.3zm2.2 0L196 283v-.3l1.8-2.3h.2v1.4l-.8 1v.1l.7 1 .2.3v1.1h-.3zm.5 3.8v-.6c0-.1.1-.3.3-.3.3 0 .4-.2.5-.4l.1-1v-7.3l.1-.3h1.1l.1.3v7.3c0 .8-.2 1.5-.4 1.9-.3.4-.8.6-1.4.7h-.2l-.1-.1v-.2zm1-10.8l-.1-.5c0-.2 0-.4.2-.5.1-.2.3-.3.5-.3l.5.3.2.5c0 .2 0 .3-.2.5l-.5.2c-.2 0-.4 0-.5-.2zm2.6 5.7v-2.1c0-1 .2-1.7.6-2.1a2 2 0 0 1 1.6-.7 2 2 0 0 1 1.6.7c.4.4.7 1.1.7 2v1l-.1.3h-2.9l-.2.2v1.1c0 .4 0 .6.2.9s.4.3.7.3c.3 0 .5-.1.7-.3.2-.2.3-.4.3-.7v-.3l.3-.1h.8v.3c.1.5 0 1-.4 1.5s-1 .7-1.7.7c-.6 0-1.1-.2-1.6-.6-.4-.5-.6-1.2-.6-2.1zm3.2-2.2v-.3c0-.5-.1-.9-.5-1a1 1 0 0 0-1 0c-.4.1-.5.5-.5 1v.5h1.9v-.2zm2.5 4.7a.7.7 0 0 1-.2-.6c0-.2 0-.3.2-.5l.5-.2c.2 0 .4 0 .5.2.2.2.3.3.3.5l-.3.6-.5.2c-.2 0-.3 0-.5-.2zm2.1 0a.7.7 0 0 1-.2-.6c0-.2 0-.3.2-.5l.5-.2c.2 0 .3 0 .5.2l.2.5c0 .2 0 .4-.2.6l-.5.2c-.2 0-.4 0-.5-.2zm2 0a.7.7 0 0 1-.2-.6c0-.2 0-.3.2-.5l.5-.2c.2 0 .4 0 .5.2.2.2.3.3.3.5l-.3.6-.5.2c-.2 0-.3 0-.5-.2zm4.1-3.4l-1.9 2.2-.2.1v-1.5l.9-.9v-.2l-.8-.9a.5.5 0 0 1-.2-.3v-1l.1-.2.2.1 1.9 2.3v.3zm2.1 0L216 285l-.2.1v-1.5l.8-.9v-.2l-.7-.9a.5.5 0 0 1-.2-.3v-1l.1-.2.2.1 1.8 2.3v.3zM146 503.4h-1V493h3.7v1l-.3.1h-2.1v3.2h1.9v1.2h-1.7l-.2.1v4.6l-.1.3h-.3zm8 0h-1v-.5a2 2 0 0 1-1.5.6c-.6 0-1-.2-1.4-.5a2 2 0 0 1-.5-1.5v-.3c0-.5.1-.9.3-1.2l.8-.7.6-.2a15.4 15.4 0 0 0 1-.4c.2 0 .3-.2.4-.3l.1-.5c0-.2 0-.4-.2-.6a.9.9 0 0 0-.7-.3 1 1 0 0 0-.7.3 1 1 0 0 0-.3.8v.3h-1.1v-.3c0-.6.2-1.1.6-1.6a2 2 0 0 1 1.5-.6 2.2 2.2 0 0 1 2.2 2.3v4.2l.1.7c0 .2 0 .3-.3.3zm-2.2-1c.7-.1 1-.5 1-1.3v-1.5a18.2 18.2 0 0 1-1.3.6l-.3.2c-.2.2-.3.5-.3 1l.1.6c.2.2.5.3.8.3zm3.8-7.4a.7.7 0 0 1-.2-.5l.2-.5.5-.2c.2 0 .4 0 .6.2l.2.5c0 .2 0 .4-.2.5l-.6.3c-.2 0-.3-.1-.5-.3zm.9 8.4h-.9V496h1.1v7.4h-.2zm4.3-6.2l-.5-.1c-.4 0-.6.2-.7.5v5.5l-.1.3h-1.2V496h1.2v.4c.3-.3.7-.5 1.1-.5h.2l.2.1v1.1s-.1.1-.2 0zm.9 3.5v-2c0-1 .3-1.7.7-2.2.4-.4 1-.6 1.6-.6.6 0 1.2.2 1.6.6.4.5.6 1.2.6 2.1v1.3h-2.9l-.2.1-.1.2v1c0 .3 0 .6.3.8.2.2.4.3.7.3.3 0 .5 0 .7-.3.2-.1.3-.4.3-.7v-.3h1.1v.2c.1.5 0 1-.5 1.6a2 2 0 0 1-1.6.7 2 2 0 0 1-1.6-.7c-.4-.4-.7-1.1-.7-2zm3.3-2.2v-.3c0-.5-.1-.8-.5-1a1 1 0 0 0-1 0c-.4.2-.5.5-.5 1v.6h1.9v-.3zm8.6 2.7v-5l.1-.2h1.1l.1.2v7.2h-1.2v-.5c-.3.4-.7.6-1.2.6-.6 0-1-.2-1.4-.6a3 3 0 0 1-.6-2V496h1.2v5.2c0 .3.1.5.3.7l.4.4h.6c.2 0 .3-.2.5-.4s.1-.4.1-.7zm4.1-3v5l-.1.2h-1.1l-.1-.3V496h1.2v.4c.3-.3.7-.5 1.2-.5.6 0 1 .2 1.4.6.4.4.6 1 .6 2v4.8h-1.2V498a1 1 0 0 0-.3-.7.8.8 0 0 0-.4-.3h-.6c-.2 0-.3.1-.5.3 0 .2-.2.5-.1.8zm8.6 0v3c0 .3.1.6.3.8.2.2.4.3.7.3.3 0 .5 0 .7-.3.2-.1.3-.4.3-.7v-.3h1.1v.2c.1.5 0 1-.4 1.6-.4.4-1 .7-1.7.7-.6 0-1.1-.2-1.6-.7-.4-.4-.6-1.1-.6-2v-2.2c0-1 .2-1.6.6-2a2 2 0 0 1 1.6-.7c.7 0 1.3.2 1.7.7s.5 1 .5 1.5l-.1.3h-1.1v-.4a1 1 0 0 0-.3-.7 1 1 0 0 0-.7-.3 1 1 0 0 0-.7.3c-.2.3-.3.6-.3 1zm8.9.4v2.1c0 1-.2 1.7-.7 2.1-.4.5-1 .7-1.6.7s-1.1-.2-1.5-.7c-.5-.4-.7-1.1-.7-2v-2.2c0-1 .2-1.6.7-2a2 2 0 0 1 1.5-.7c.7 0 1.2.2 1.6.6.5.5.7 1.2.7 2.1zm-1.3 2.5v-2.8c0-.4 0-.6-.2-.8-.1-.2-.3-.4-.5-.4h-.6c-.2 0-.3.2-.5.4 0 .2-.2.4-.1.8v2.8l.1.8.5.4h.6c.2 0 .4-.2.5-.4.2-.2.2-.5.2-.8zm3.9-2.9v5.2h-1.2V496h1.1l.1.2v.2c.3-.3.6-.5 1.1-.5a2 2 0 0 1 1.5.6c.3.4.5 1 .5 2v4.8h-1.2V498c0-.2 0-.5-.2-.7a.8.8 0 0 0-.5-.3h-.5c-.2 0-.4.1-.5.3l-.2.8zm8.5 3a2 2 0 0 1-.6 1.6 2 2 0 0 1-1.6.7 2 2 0 0 1-1.6-.7 2 2 0 0 1-.6-1.4v-.2l.3-.1h.8v.3c0 .2.1.5.3.6.2.2.4.3.7.3.2 0 .4 0 .6-.2l.3-.5a1 1 0 0 0-.1-.8c-.2-.3-.4-.5-.7-.6l-.9-.6-.8-.8c-.2-.2-.3-.6-.4-1 0-.5.2-1 .6-1.3.4-.4.8-.6 1.4-.6s1 .2 1.3.6c.4.4.6.9.6 1.4v.3h-1.1v-.3c0-.3-.2-.5-.3-.6l-.6-.3c-.3 0-.5.2-.6.5-.1.3 0 .6.2.9l.7.5.9.6.7.7c.3.2.3.6.4 1zm2.3-3.9v3.5c0 .5 0 1 .2 1.1 0 .2.3.3.6.4h.3v1.1h-.3c-.7 0-1.3-.2-1.6-.6-.3-.4-.5-1-.5-2v-3.5l-.1-.1h-.3v-1.1h.3l.1-.2v-1.5h1.2v1.5l.2.2h.6l.1.3v.7h-.7l-.1.2zm6.3 6.1h-.9v-.5a2 2 0 0 1-1.5.6c-.6 0-1-.2-1.4-.5a2 2 0 0 1-.5-1.5v-.3c0-.5 0-.9.3-1.2l.8-.7c.1 0 .3 0 .5-.2a15.4 15.4 0 0 0 1-.4c.3 0 .4-.2.5-.3v-.5c.1-.2 0-.4-.1-.6a.9.9 0 0 0-.7-.3 1 1 0 0 0-.7.3 1 1 0 0 0-.3.8v.3h-1.1v-.3c0-.6.1-1.1.6-1.6a2 2 0 0 1 1.5-.6 2.2 2.2 0 0 1 2.2 2.3v4.2l.1.7c0 .2 0 .3-.3.3zm-2-1c.6-.1 1-.5 1-1.3v-1.5a18.2 18.2 0 0 1-1.4.6l-.3.2c-.3.2-.4.5-.4 1 0 .2 0 .4.2.6.2.2.4.3.8.3zm4.9-5.1v3.5l.1 1.1c.1.2.4.3.7.4h.3v1.1h-.3c-.8 0-1.3-.2-1.6-.6-.3-.4-.5-1-.5-2v-3.5l-.1-.1h-.3v-1.1h.3l.1-.2v-1.5h1.2v1.5l.2.2h.6v1h-.5l-.1.2zm-74.7 27.2h-.9v-.5c-.3.3-.7.5-1.2.5-.6 0-1-.1-1.4-.6-.4-.4-.6-1-.6-2v-2.4c0-.9.2-1.5.6-2 .3-.4.8-.6 1.4-.6.5 0 .9.2 1.1.6v-3.2l.1-.3h1.1l.1.3v10.1h-.3zm-1-2.3v-3l-.1-.7-.5-.4h-.6c-.2 0-.3.2-.4.4l-.2.7v3c0 .3 0 .6.2.8 0 .2.2.3.4.3h.6c.2 0 .3-.1.5-.3l.1-.8zm2.6-.4v-2.1c0-1 .3-1.7.7-2.1a2 2 0 0 1 1.6-.7 2 2 0 0 1 1.6.7c.4.4.6 1.1.6 2v1.3h-2.9l-.2.1v1.2c0 .4 0 .6.2.9s.4.3.7.3c.3 0 .5-.1.7-.3.2-.2.3-.4.3-.7v-.3l.3-.1h.8v.3c.1.5 0 1-.5 1.5-.3.5-.9.7-1.6.7-.6 0-1.1-.2-1.6-.6-.4-.5-.7-1.2-.7-2.1zm3.3-2.2v-.3c0-.5-.1-.9-.5-1a1 1 0 0 0-1 0c-.4.1-.5.5-.5 1v.5h1.9v-.2zm6.5 2.6a2 2 0 0 1-.6 1.6 2 2 0 0 1-1.6.7 2 2 0 0 1-1.6-.6 2 2 0 0 1-.6-1.5l.1-.2h1.1v.2c0 .3.2.5.4.7l.6.3.6-.2.4-.6c0-.3 0-.5-.2-.8l-.6-.6-1-.6-.7-.7c-.3-.3-.4-.6-.4-1a1.9 1.9 0 0 1 1.9-2c.5 0 1 .2 1.4.6.4.4.6 1 .6 1.5l-.1.2h-1l-.1-.3-.3-.6a.7.7 0 0 0-.5-.2c-.4 0-.6.2-.7.5 0 .3 0 .5.3.8.1.2.4.3.7.5l.8.6.7.7c.3.3.4.7.4 1zm5.2-2.9v2.9c0 .4 0 .6.3.9s.4.3.7.3c.3 0 .5-.1.7-.3l.3-.7v-.3l.3-.1h.8v.3c0 .5 0 1-.5 1.5-.3.5-.9.7-1.6.7-.6 0-1.2-.2-1.6-.6-.5-.5-.7-1.2-.7-2.1v-2.1c0-1 .2-1.7.7-2.1a2 2 0 0 1 1.6-.7c.7 0 1.2.3 1.6.8s.6 1 .6 1.5l-.1.2h-1.1v-.3a1 1 0 0 0-.3-.7 1 1 0 0 0-.7-.3c-.3 0-.6 0-.7.3s-.3.5-.3.9zm8.9.4v2c0 1-.3 1.7-.7 2.2a2.5 2.5 0 0 1-3.2 0c-.4-.5-.6-1.2-.6-2.1v-2.1c0-1 .2-1.7.6-2.1.5-.5 1-.7 1.6-.7a2 2 0 0 1 1.6.7c.4.4.7 1.1.7 2zm-1.3 2.4v-2.8c0-.3 0-.6-.2-.8a.9.9 0 0 0-.5-.4h-.6c-.2 0-.3.2-.5.4l-.2.8v2.8c0 .4 0 .6.2.8.2.3.3.4.5.4h.6c.2 0 .4-.1.5-.4.2-.2.2-.4.2-.8zm3.9-2.9v5.2H170V517h1v.5c.3-.4.7-.6 1.2-.6a2 2 0 0 1 1.5.6c.3.5.5 1.1.5 2v4.9H173v-5.2l-.2-.7a.8.8 0 0 0-.5-.4h-.6c-.2 0-.3.2-.4.4-.2.2-.2.4-.2.7zm8.4 3a2 2 0 0 1-.5 1.6 2 2 0 0 1-1.6.7 2 2 0 0 1-1.6-.6 2 2 0 0 1-.6-1.5v-.2h1.1l.1.2c0 .3.1.5.3.7.2.2.4.3.7.3l.6-.2.3-.6-.1-.8-.7-.6-1-.6-.7-.7c-.2-.3-.4-.6-.4-1 0-.5.2-1 .5-1.4.4-.4 1-.6 1.5-.6s1 .2 1.3.6c.4.4.6 1 .6 1.5v.2h-1.2v-.3l-.3-.6a.7.7 0 0 0-.6-.2c-.3 0-.5.2-.6.5-.1.3 0 .5.2.8.1.2.4.3.7.5l.9.6.7.7c.2.3.3.7.3 1zm1-.4v-2.1c0-1 .2-1.7.6-2.1a2 2 0 0 1 1.6-.7 2 2 0 0 1 1.6.7c.4.4.7 1.1.7 2v1l-.1.3h-3l-.2.1v1.2c0 .4 0 .6.2.9s.4.3.7.3c.3 0 .5-.1.7-.3.2-.2.3-.4.3-.7v-.3l.3-.1h.8v.3c.1.5 0 1-.4 1.5s-1 .7-1.7.7c-.6 0-1.1-.2-1.6-.6-.4-.5-.6-1.2-.6-2.1zm3.2-2.2v-.3c0-.5-.1-.9-.5-1a1 1 0 0 0-1 0c-.4.1-.5.5-.5 1v.5h1.9v-.2zm-.8-3.4h-.4l-.2-.1v-1.5l.1-.2h1c.2 0 .3 0 .2.3l-.4 1.3-.2.2h-.1zm6.7.8h.9v10.1h-1.2V524c-.3.4-.7.6-1.1.6-.7 0-1.1-.1-1.5-.6-.4-.4-.5-1-.5-2v-2.4c0-.9.1-1.5.5-2 .4-.4.8-.6 1.5-.6.5 0 .8.2 1 .6v-.2l.1-.3h.3zm-.3 5.2v-3c0-.3 0-.5-.2-.7l-.5-.4h-.5c-.2 0-.4.2-.5.4l-.2.7v3c0 .3 0 .6.2.8.1.2.3.3.5.3h.5c.2 0 .4-.1.5-.3l.2-.8zm5.8 0V517h1.2v7.4h-1.2v-.4c-.3.3-.7.5-1.1.5-.7 0-1.1-.1-1.5-.6-.4-.4-.5-1-.5-2V517h1.1l.1.3v5c0 .2 0 .5.2.7.1.2.3.3.5.3h.5c.2 0 .4-.1.5-.3l.2-.8zm2.6-.4v-2.1c0-1 .2-1.7.6-2.1.5-.5 1-.7 1.6-.7.7 0 1.2.2 1.6.7.5.4.7 1.1.7 2v1.3h-3l-.2.1v1.2c0 .4 0 .6.2.9s.4.3.7.3c.3 0 .5-.1.7-.3.2-.2.3-.4.3-.7v-.3l.3-.1h.8l.1.3c0 .5-.1 1-.5 1.5s-1 .7-1.7.7c-.6 0-1.1-.2-1.6-.6-.4-.5-.6-1.2-.6-2.1zm3.2-2.2v-.3c0-.5 0-.9-.4-1a1 1 0 0 0-1 0c-.4.1-.6.5-.6 1v.3l.1.2h1.9v-.2zm3.9-.4v5.2h-1.2V517h1.1l.1.3v.2c.3-.4.6-.6 1.1-.6a2 2 0 0 1 1.5.6c.3.5.5 1.1.5 2v4.9h-1.2v-5.2c0-.3 0-.5-.2-.7a.8.8 0 0 0-.5-.4h-.6l-.4.4c-.2.2-.2.4-.2.7zm5.7.1v2.9c0 .4 0 .6.2.9s.4.3.7.3c.3 0 .6-.1.7-.3.2-.2.3-.4.3-.7v-.3l.3-.1h.8l.1.3c0 .5-.1 1-.5 1.5s-1 .7-1.7.7a2 2 0 0 1-1.5-.6c-.5-.5-.7-1.2-.7-2.1v-2.1c0-1 .2-1.7.7-2.1a2 2 0 0 1 1.5-.7c.8 0 1.3.3 1.7.8s.5 1 .5 1.5v.2h-1.2v-.3a1 1 0 0 0-.4-.7 1 1 0 0 0-.7-.3c-.3 0-.5 0-.7.3s-.2.5-.2.9zm4.4 2.5v-2.1c0-1 .2-1.7.6-2.1a2 2 0 0 1 1.6-.7c.6 0 1.1.2 1.6.7.4.4.6 1.1.6 2v1.3h-2.9l-.2.1-.1.3v.9c0 .4 0 .6.3.9s.4.3.7.3c.3 0 .5-.1.7-.3.2-.2.2-.4.3-.7v-.3l.3-.1h.8v.3c0 .5 0 1-.5 1.5-.3.5-.9.7-1.6.7-.6 0-1.2-.2-1.6-.6-.4-.5-.7-1.2-.7-2.1zm3.2-2.2v-.3c0-.5-.1-.9-.5-1a1 1 0 0 0-1 0c-.4.1-.5.5-.5 1v.5h1.9v-.2zm6.5 2.6a2 2 0 0 1-.6 1.6 2 2 0 0 1-1.6.7 2 2 0 0 1-1.6-.6 2 2 0 0 1-.6-1.5l.1-.2h1.1v.2c0 .3.2.5.4.7.1.2.4.3.6.3l.6-.2.4-.6c0-.3 0-.5-.2-.8l-.7-.6-.9-.6-.8-.7c-.2-.3-.3-.6-.3-1a1.9 1.9 0 0 1 1.9-2c.5 0 1 .2 1.4.6.4.4.6 1 .6 1.5l-.1.2h-1.1v-.3l-.3-.6a.7.7 0 0 0-.6-.2c-.3 0-.5.2-.6.5 0 .3 0 .5.3.8a69.6 69.6 0 0 1 2.2 1.8c.2.3.4.7.4 1zm-62.5 23.3h-.9l-.1-.3v-.2c-.2.4-.6.6-1.1.6a2 2 0 0 1-1.5-.6c-.3-.5-.5-1.1-.5-2v-2.5c0-.8.2-1.5.5-2 .4-.3.9-.6 1.5-.5.5 0 .8.2 1.1.5v-3.4h1.2v10.4h-.2zm-1-2.2v-3c0-.3 0-.6-.2-.8l-.5-.3h-.5c-.2 0-.3.1-.5.3s-.2.5-.2.8v3c0 .3 0 .5.2.7l.5.4h.5l.5-.4c.2-.2.2-.4.2-.7zm2.6-.5v-2c0-1 .2-1.7.7-2.2a2.5 2.5 0 0 1 3.2 0c.4.5.6 1.2.6 2.1v1.3h-2.9l-.3.1v1.2c0 .3 0 .6.2.8s.5.3.8.3c.2 0 .5 0 .7-.3l.2-.7.1-.3h1.1v.2c0 .5-.1 1-.5 1.5s-1 .8-1.6.8c-.7 0-1.2-.2-1.6-.7-.5-.4-.7-1.1-.7-2zm3.3-2.2v-.3c0-.5-.2-.8-.5-1a1 1 0 0 0-1 0c-.4.2-.6.5-.5 1v.6h1.9v-.3zm6.7-5.3v7.6l.2 1.1c.1.2.3.3.7.4h.2v1.1h-.2c-.8 0-1.3-.2-1.6-.6-.3-.4-.5-1-.5-2v-7.8h1.2v.2zm1.9.5c0-.2 0-.4.2-.5.1-.2.3-.3.5-.3s.3 0 .4.2l.3.3.1.6c0 .2 0 .5-.2.8l-.7 1h-.2l-.2-.2v-.2l.3-.6-.1-.4-.3-.3a.7.7 0 0 1-.1-.4zm2.5 7v-2c0-1 .2-1.7.7-2.2.4-.4 1-.6 1.5-.6.7 0 1.2.2 1.6.6.5.5.7 1.2.7 2.1v1.3h-2.9l-.3.1v1.2c0 .3 0 .6.2.8s.4.3.7.3c.3 0 .6 0 .7-.3.2-.1.3-.4.3-.7v-.3h1.2l.1.2c0 .5-.1 1-.5 1.5s-1 .8-1.7.8c-.6 0-1.1-.2-1.5-.7-.5-.4-.7-1.1-.7-2zm3.2-2.2v-.3c0-.5 0-.8-.4-1a1 1 0 0 0-1 0c-.4.2-.6.5-.5 1v.6h1.9v-.3zm5.1-1.3l-.4-.1c-.4 0-.6.2-.7.5v5.5l-.2.3h-1.1v-7.4h1.1l.1.2v.2c.3-.3.7-.5 1-.5h.2l.3.1v1.1h-.3zm3.8 0l-.5-.1c-.3 0-.6.2-.6.5l-.1 1v4.8h-1.2v-7.4h1.1v.4c.4-.3.7-.5 1.2-.5h.1l.2.1.1.2v.9h-.3zm1 3.5v-2c0-1 .2-1.7.6-2.2.5-.4 1-.6 1.6-.6.7 0 1.2.2 1.6.6.5.5.7 1.2.7 2.1v1.3h-3l-.2.1v1.2c0 .3 0 .6.2.8s.4.3.7.3c.3 0 .5 0 .7-.3.2-.1.3-.4.3-.7v-.3h1.2l.1.2c0 .5-.1 1-.5 1.5s-1 .8-1.7.8c-.6 0-1.1-.2-1.6-.7-.4-.4-.6-1.1-.6-2zm3.2-2.2v-.3c0-.5-.1-.8-.4-1a1 1 0 0 0-1.1 0c-.3.2-.5.5-.5 1v.3l.1.3h1.8l.1-.3zm5.7 2.7v-5.2h1.2v7.4h-1.2v-.5c-.3.4-.7.6-1.1.6-.7 0-1.1-.2-1.5-.6-.4-.5-.5-1.1-.5-2v-4.9h1.1l.1.2v5c0 .3 0 .5.2.7l.5.4h.5c.2 0 .4-.2.5-.4l.2-.7zm5.2-4l-.5-.1c-.3 0-.5.2-.6.5l-.1 1v4.8H203v-7.4h1.1v.4a2 2 0 0 1 1.2-.5h.1l.3.1v1.1h-.3zm-53.1-407.6h-.9l-.1-.3v-10.8h3.9l.1.2v.9H153l-.3.1v3.4h2l.1.3v.9h-2.1v5l-.1.3h-.3zm8.5 0h-.9l-.1-.5c-.4.4-1 .6-1.5.6a2 2 0 0 1-1.5-.6c-.4-.3-.6-.9-.6-1.5v-.3c0-.5.1-1 .3-1.3.3-.4.6-.6.9-.7l.6-.3a15 15 0 0 0 1.1-.4c.2 0 .3-.2.4-.4l.1-.4c0-.3 0-.5-.2-.7-.2-.2-.4-.3-.7-.3s-.5.1-.7.3c-.2.2-.3.5-.3.9l-.1.2-.3.1h-.8v-.3c-.1-.7.1-1.3.6-1.7a2 2 0 0 1 1.6-.7c.6 0 1.2.2 1.6.6.5.5.7 1 .7 1.8v4.5l.1.8c.1.2 0 .3-.3.3zm-2.2-1.2c.7 0 1-.4 1-1.3v-1.6a23.3 23.3 0 0 1-1.3.7l-.4.2c-.2.2-.3.5-.3 1 0 .2 0 .5.2.7s.4.3.8.3zm4.1-7.7a.8.8 0 0 1-.3-.6c0-.2.1-.4.3-.5l.5-.2c.2 0 .4 0 .6.2l.2.5c0 .2 0 .4-.2.6l-.6.2c-.2 0-.4 0-.5-.2zm.9 9h-.7l-.3-.1v-7.9h1.2v7.9h-.2zm4.5-6.8h-.5c-.4 0-.6.2-.7.5v5.9l-.1.3h-1.2l-.1-.3v-7.6h1.3v.4c.4-.3.7-.5 1.2-.5h.1l.3.1v1.2h-.3zm1.1 3.8v-2.2c0-1 .2-1.7.7-2.2.4-.5 1-.7 1.7-.7s1.2.2 1.7.7c.4.5.7 1.2.7 2.2v1.3l-.4.1h-3v1.3c0 .4 0 .7.2 1l.8.2c.3 0 .5 0 .7-.3.2-.2.3-.4.3-.7v-.4h1.2l.1.3c0 .5-.2 1-.6 1.6-.4.5-1 .8-1.7.8s-1.2-.2-1.7-.7c-.5-.5-.7-1.3-.7-2.3zm3.4-2.3v-.3c0-.5 0-1-.5-1.1a1 1 0 0 0-1 0c-.5.2-.6.6-.6 1v.7l.3.1h1.8v-.3zm7.4-1.3v3.7l.1 1.2.8.4h.2v1.2h-.2c-.8 0-1.4-.2-1.8-.6-.3-.5-.5-1.2-.5-2.2v-3.7l-.1-.1-.3-.1v-1l.3-.1.1-.2v-1.6h1.3v1.6l.2.2h.7v1.1h-.7l-.1.2zm5-.2h-.6c-.4 0-.6.2-.7.5v5.9l-.1.3h-1.2l-.1-.3v-7.6h1.3v.4a2 2 0 0 1 1.2-.5h.2l.2.1v1.2h-.2zm5.8 1.6v2.2c0 1-.2 1.8-.7 2.3-.5.5-1 .7-1.7.7s-1.2-.2-1.7-.7c-.5-.5-.7-1.3-.7-2.3v-2.2c0-1 .2-1.7.7-2.2.5-.5 1-.7 1.7-.7s1.2.2 1.7.7c.5.5.7 1.2.7 2.2zm-1.3 2.6v-3c0-.3-.1-.6-.3-.8a1 1 0 0 0-.5-.5h-.6a1 1 0 0 0-.6.5l-.2.8v3l.2.9c.2.2.4.4.6.4h.6c.2 0 .4-.2.5-.4l.3-.9zm6 .1v-5.5h1.3v7.9h-1.2l-.1-.3v-.2c-.3.4-.7.6-1.2.6-.7 0-1.2-.2-1.6-.7s-.5-1.1-.5-2v-5.3h1.2l.1.2v5.3c0 .3 0 .6.2.8.1.2.3.4.5.4h.6c.2 0 .4-.2.5-.4l.2-.8zm6.1-5.6h.8l.1.1c.1.1 0 .1 0 .2l-1.4 7.4-.1.3h-1.4l-.1-.3-1.5-7.4v-.2h1.2l.1.2.9 4.8h.1l1-4.8v-.2h.3zm1.9 5.1v-2.2c0-1 .2-1.7.7-2.2.4-.5 1-.7 1.7-.7s1.2.2 1.7.7c.4.5.7 1.2.7 2.2v1.3l-.4.1h-3v1.3c0 .4 0 .7.2 1l.8.2c.3 0 .5 0 .7-.3.2-.2.3-.4.3-.7l.1-.4h1.1l.1.3c0 .5-.2 1-.6 1.6-.4.5-1 .8-1.7.8s-1.2-.2-1.7-.7c-.5-.5-.7-1.3-.7-2.3zm3.4-2.3v-.3c0-.5 0-1-.5-1.1a1 1 0 0 0-1 0c-.5.2-.6.6-.6 1v.4l.1.2.2.1h1.8v-.3zm5.5-1.5h-.5c-.4 0-.7.2-.7.5l-.1 1.1v4.8l-.1.3h-1.2v-7.9h1.2c.1 0 0 .1 0 .2v.2a2 2 0 0 1 1.2-.5h.2l.2.1.1.2v1h-.3zm-57.5 25.4v-5.7h1.3v7.9H155l-.1-.2v-.3c-.3.4-.7.6-1.2.6-.7 0-1.2-.2-1.6-.6s-.5-1.2-.5-2v-5.4h1.2l.1.3v5.3c0 .3 0 .6.2.8l.5.4h.6c.2 0 .4-.2.5-.4l.2-.8zm4.3-3.2v5.5h-1.3v-7.9h1.2v.5c.4-.4.8-.6 1.3-.6.6 0 1.2.2 1.5.7.4.4.6 1.1.6 2v5.3h-1.3v-5.5c0-.3 0-.6-.2-.8l-.5-.4h-.6c-.2 0-.4.2-.5.4l-.2.8zm4.7 2.7v-2.2c0-1 .2-1.8.7-2.3.4-.4 1-.7 1.7-.7s1.2.3 1.7.7c.4.5.7 1.2.7 2.3v1l-.1.3h-3.1l-.2.1v1.3c0 .3 0 .6.2.9.2.2.4.3.8.3.3 0 .5-.1.7-.3.2-.2.3-.5.3-.8v-.3l.3-.1h.9v.3c.1.6 0 1.1-.5 1.7-.4.5-1 .7-1.7.7s-1.3-.2-1.7-.7c-.5-.5-.7-1.2-.7-2.2zm3.4-2.4v-.3c0-.5-.1-.9-.5-1a1 1 0 0 0-1 0c-.5.1-.6.5-.6 1v.6h2.1v-.3zm10.2 2.9c0 .6-.2 1.2-.6 1.7-.5.5-1 .7-1.7.7s-1.3-.2-1.7-.7a2 2 0 0 1-.7-1.5l.1-.2.2-.1h1v.3c0 .3.2.5.4.7.2.2.4.3.7.3.2 0 .4 0 .6-.2l.4-.6c0-.3 0-.6-.2-.8l-.7-.7-1-.6-.8-.8c-.3-.3-.4-.7-.4-1 0-.7.1-1.2.6-1.6.4-.4.9-.6 1.5-.6s1 .2 1.4.7c.4.4.6.9.6 1.5v.3H176v-.4l-.3-.6c-.2-.2-.4-.3-.6-.2-.4 0-.6.1-.7.5 0 .3 0 .6.3.9l.7.5a68.5 68.5 0 0 1 1.7 1.4c.2.3.4.7.4 1zm5.8-2.7v2.2c0 1-.3 1.7-.7 2.2-.5.5-1 .7-1.7.7s-1.3-.2-1.7-.7c-.5-.5-.7-1.2-.7-2.2v-2.2c0-1 .2-1.8.7-2.3.4-.4 1-.7 1.7-.7s1.2.3 1.7.7c.4.5.7 1.2.7 2.3zm-1.4 2.6v-3c0-.4 0-.7-.2-.9a1 1 0 0 0-.5-.4h-.7a1 1 0 0 0-.5.4l-.2.9v3c0 .3 0 .6.2.8l.5.5h.7c.2 0 .4-.2.5-.5l.2-.8zm4.1-8.4v8l.1 1.3c.2.2.4.3.8.3l.2.1v1.1h-.2c-.8 0-1.4-.2-1.8-.6-.3-.4-.5-1.1-.5-2.1v-8.4h1.3v.3zm5.5 8.5V145l.1-.3h1.2v7.9h-1.2v-.5c-.3.4-.7.6-1.2.6-.7 0-1.2-.2-1.6-.6s-.6-1.2-.6-2v-5.4h1.3v5.6c0 .3.1.6.3.8 0 .2.3.3.5.4s.4 0 .6 0 .3-.2.5-.4c0-.3.2-.5.1-.8zm4.3-4.1v3.7c0 .6 0 1 .2 1.2.1.2.4.3.7.3l.3.1v1.1h-.3c-.8 0-1.4-.2-1.7-.6-.3-.4-.5-1.1-.5-2.1v-3.7c0-.1 0-.2-.2-.2h-.2V145h.2l.2-.2v-1.7h1.3v1.7l.2.1h.4l.2.1.1.3v.7l-.3.1h-.4c-.1 0-.2 0-.2.2zm2.5-2.5a.8.8 0 0 1-.2-.5c0-.2 0-.4.2-.6s.3-.2.5-.2c.3 0 .4 0 .6.2l.2.6c0 .2 0 .4-.2.5-.2.2-.3.3-.6.3a.5.5 0 0 1-.5-.3zm.9 9h-.7l-.3-.1v-7.9h1.2l.1.3v7.6h-.3zm6.6-5.1v2.2c0 1-.3 1.7-.7 2.2-.5.5-1 .7-1.7.7s-1.3-.2-1.7-.7c-.5-.5-.7-1.2-.7-2.2v-2.2c0-1 .2-1.8.7-2.3.4-.4 1-.7 1.7-.7s1.2.3 1.7.7c.4.5.7 1.2.7 2.3zm-1.4 2.6v-3c0-.4 0-.7-.2-.9a1 1 0 0 0-.5-.4h-.7a1 1 0 0 0-.5.4l-.2.9v3c0 .3 0 .6.2.8l.5.5h.7c.2 0 .4-.2.5-.5l.2-.8zm4.1-3.1v5.5h-1.2l-.1-.2v-7.8h1.3v.5c.3-.4.7-.6 1.2-.6.7 0 1.2.2 1.6.7.4.4.6 1.1.6 2v5l-.1.3h-1.2v-5.5c0-.3-.1-.6-.3-.8l-.5-.4h-.6c-.2 0-.3.2-.5.4s-.2.5-.2.8zm-58.1 18.6h.7l.2.1.1.2v.3c.3-.4.7-.6 1.2-.6.7 0 1.2.2 1.6.6.4.5.5 1.2.5 2v2.8c0 .9-.1 1.6-.5 2a2 2 0 0 1-1.6.7c-.5 0-.9-.2-1.2-.6v3.3l-.3.1h-1v-10.9h.3zm1 2.4v3.2c0 .3 0 .6.2.8.2.2.3.4.5.4h.6c.2 0 .4-.2.5-.4.2-.2.2-.5.2-.8v-3.2c0-.3 0-.5-.2-.8s-.3-.3-.5-.4-.4 0-.6 0-.3.2-.5.4-.2.5-.2.8zm9.4.5v2.2c0 1-.2 1.8-.7 2.3-.4.5-1 .7-1.7.7s-1.2-.2-1.7-.7c-.4-.5-.7-1.3-.7-2.3v-2.2c0-1 .3-1.7.7-2.2.5-.5 1-.7 1.7-.7s1.3.2 1.7.7c.5.5.7 1.2.7 2.2zm-1.3 2.6v-3c0-.3 0-.6-.2-.8a1 1 0 0 0-.6-.5h-.6a1 1 0 0 0-.5.5c-.2.2-.2.5-.2.8v3c0 .4 0 .7.2.9.1.2.3.4.5.4h.6c.2 0 .4-.2.6-.4s.2-.5.2-.9zm6 .1v-5.5h1.3v7.9h-1.2v-.5c-.4.4-.8.6-1.3.6-.6 0-1.2-.2-1.5-.7s-.6-1.1-.6-2v-5.3h1.3v5.5c0 .3 0 .6.2.8.2.2.3.4.5.4h.6c.2 0 .4-.2.5-.4.2-.2.2-.5.2-.8zm5.6-4.2l-.5-.1c-.4 0-.6.2-.7.5l-.1 1.1v5.1h-1.3v-8h1.2l.1.2v.2c.3-.3.7-.5 1.2-.5h.1l.3.1v1.2h-.3zm5.8 1.1v3c0 .5 0 .8.2 1 .2.2.5.3.8.3.3 0 .6 0 .8-.3l.3-.7v-.4h1.2v.3c0 .5-.1 1-.5 1.6-.4.5-1 .8-1.8.8-.6 0-1.2-.2-1.7-.7-.5-.5-.7-1.3-.7-2.3v-2.2c0-1 .2-1.7.7-2.2.5-.5 1-.7 1.7-.7.8 0 1.4.2 1.8.8s.6 1 .5 1.6v.2l-.3.1h-.9v-.4c0-.3-.2-.6-.3-.8a1 1 0 0 0-.8-.3 1 1 0 0 0-.8.3l-.2 1zm9.4.4v2.2c0 1-.2 1.8-.7 2.3-.4.5-1 .7-1.7.7s-1.2-.2-1.7-.7c-.4-.5-.7-1.3-.7-2.3v-2.2c0-1 .3-1.7.7-2.2.5-.5 1-.7 1.7-.7s1.3.2 1.7.7c.5.5.7 1.2.7 2.2zm-1.3 2.6v-3c0-.3 0-.6-.2-.8a1 1 0 0 0-.6-.5h-.6a1 1 0 0 0-.5.5c-.2.2-.2.5-.2.8v3c0 .4 0 .7.2.9.1.2.3.4.5.4h.6c.2 0 .4-.2.6-.4s.2-.5.2-.9zm5.4-4.1l-.5-.1c-.4 0-.6.2-.7.5v5.9l-.2.3h-1.2v-8h1.2l.1.2v.2c.3-.3.7-.5 1.2-.5h.1l.3.1v1.2h-.3zm4 0l-.5-.1c-.4 0-.6.2-.7.5v5.9l-.1.3h-1.2l-.1-.3v-7.6h1.3v.4c.4-.3.7-.5 1.2-.5h.1l.3.1v1.2h-.3zm1.6-2.3a.8.8 0 0 1-.3-.6c0-.2 0-.4.2-.5l.6-.2c.2 0 .4 0 .5.2.2.1.3.3.3.5l-.3.6-.5.2c-.2 0-.4 0-.6-.2zm.8 9h-.7l-.2-.1-.1-.3v-7.6h1.3v7.9h-.3zm2.1 1l.6-.2.4.1c.2.5.5.7 1 .7.3 0 .6-.1.7-.3.2-.3.3-.6.3-1v-1c-.3.5-.7.7-1.2.7-.6 0-1.1-.2-1.5-.7-.4-.4-.6-1.1-.6-2v-2.7c0-1 .2-1.6.6-2 .4-.5.9-.8 1.5-.7.6 0 1 .2 1.2.6v-.3l.1-.2h1.2v7.9c0 1-.2 1.8-.6 2.2-.5.5-1 .8-1.7.8-1 0-1.8-.6-2.2-1.6 0-.1 0-.3.2-.3zm3-3.5v-3.2c0-.3 0-.5-.2-.8s-.3-.3-.5-.4-.4 0-.6 0c-.2 0-.3.2-.5.4l-.2.8v3.2l.2.8c.2.2.3.4.5.4h.6c.2 0 .4-.2.5-.4.2-.2.2-.5.2-.8zm2.8-.4v-2.3c0-1 .2-1.7.7-2.2.5-.5 1-.7 1.7-.7s1.2.2 1.7.7c.5.5.7 1.2.7 2.2v1.3l-.3.1H206v1.3c0 .4 0 .7.2.9.2.2.5.3.8.3.3 0 .5 0 .7-.3.2-.2.3-.4.3-.7l.1-.4h1.2l.1.3c0 .5-.1 1-.5 1.6-.4.5-1 .8-1.8.8-.7 0-1.2-.2-1.7-.7-.5-.5-.7-1.3-.7-2.3zm3.5-2.4v-.3c0-.5-.2-1-.5-1.1a1 1 0 0 0-1.2 0c-.3.2-.5.6-.5 1v.4l.1.2.3.1h1.7v-.3zm5.4-1.4l-.5-.1c-.4 0-.6.2-.7.5l-.1 1.1v5.1H211v-8h1.2v.4a2 2 0 0 1 1.2-.5h.2l.2.1.1.2v1h-.3z"/><path fill="none" stroke="#6F00FF" stroke-miterlimit="10" stroke-width="2" d="M258.5 291.4V269c0-.2.2-.3.4-.3h2.3c.2 0 .2 0 .2-.2v-15.9a10.6 10.6 0 0 1 2.9-7.1c1.6-1.8 3.6-3 6-3.6a13 13 0 0 1 5.9-.3 13 13 0 0 1 7.9 4.4c1.5 1.9 2.4 4 2.4 6.6v8.6l-.2.1h-3.8l-.2-.1v-2.4l.1-.2 1.3-.7h.1l-.2-.2-1.1-.6-.2-.3v-4.4c0-.4 0-.9-.2-1.3a7 7 0 0 0-2.5-4 8.8 8.8 0 0 0-5-1.8 9.1 9.1 0 0 0-7.2 2.8 6.6 6.6 0 0 0-1.8 4.5v16l.2.1h23.1c.4 0 .5.1.5.5v21.9c0 .3-.1.4-.5.4h-30c-.2 0-.3 0-.4-.3z" clip-rule="evenodd"/><g fill="#6F00FF" fill-rule="evenodd" clip-rule="evenodd"><path d="M291.8 165.8c-1.8.5-3.3-.6-4.8-2.1L271.5 148c-.8-.8-1.4-.9-2.5-.5a14.6 14.6 0 0 1-18.3-11.6c-1.3-7 3.5-14.7 10.5-16.7a14.7 14.7 0 0 1 17.7 18.6c0 .2-.2.5-.1.8.1 1 3.6 3.8 4.6 3.9h1.6c2.1-.3 3.5.7 3.5 3.5 0 2.1 0 2.1 2 2.2 2.9 0 4 1 3.8 3.8-.1 2 .5 3.4 2 4.7.5.5.8 1.6 1 2.4v3c0 2.6-1.2 3.7-3.7 3.7h-1.8zm-14.7-32.4c0-8-8-14-15.7-11.4a12.2 12.2 0 0 0-8 13.6 11.7 11.7 0 0 0 16.2 8.7c1.2-.6 1.8-.3 2.6.5l17.2 17.3c.9 1 3.7 1.5 4.7 1l.4-.5c.5-1 0-4.1-.9-4.9a5.3 5.3 0 0 1-2-5c0-1.2-.3-1.7-1.6-1.7-3.5 0-4.2-.6-4.1-4.1 0-1.5-.4-2-1.8-1.8-2.1.4-3.8-.4-5.2-2.1-.8-1-1.8-2-2.8-2.9-.6-.5-.6-1-.4-1.7a41 41 0 0 0 1.4-5z"/><path d="M256.2 132l.6-1.3c1.8-1.9 3.5-3.8 5.4-5.6.4-.3 1.5-.4 2-.1 1 .4 1.9 1 2.5 1.8 1.5 1.7 1.5 2.5.1 4.2a35 35 0 0 1-3.6 3.8c-1.9 1.8-2.7 1.8-4.6.1-1-.8-1.7-2-2.4-3zm7.6-6.3l-.9.5c-1.6 1.6-3.3 3.2-4.9 5-.2.2-.2.9 0 1.1a7 7 0 0 0 1.8 2c.8.7 1.6.7 2.3-.2 1-1.1 2.3-2.1 3.3-3.3.5-.6 1.1-1.7.9-2.2-.6-1-1.6-2-2.5-2.9z"/></g><g fill="#6F00FF"><path fill-rule="evenodd" d="M286.4 500.8a17 17 0 0 1-4.9 12.8c-1 1-.9 1.4 0 2.4 1.6 1.6 2.9 3.5 4.1 5.3l9 12.7c1.1 1.7 1 2.7-.5 3.9a18 18 0 0 1-3.9 2c-1.1.5-2.2 0-2.7-1.2l-9.1-19.6c-1-2.2-.9-2.3-3.3-1.4a17 17 0 0 1-21.6-10.4 16.8 16.8 0 0 1 10.8-21.8 17 17 0 0 1 21.3 11.3c.5 1.5.6 3.1.8 4zm-30.8.7a13.7 13.7 0 0 0 27.3 0c0-7.4-6.2-13.6-13.6-13.6-7.5 0-13.6 6.1-13.7 13.6z" clip-rule="evenodd"/><path d="M269.7 492.7c.8 0 1.5 0 2.2.2-1.4-1-3-1.4-4.7-1.4a8.5 8.5 0 0 0-8.3 9.9c.7-5 5.3-8.7 10.8-8.7z"/></g><path fill="#BABABA" d="M278.7 402.3h20v20.6h-20z"/><path fill="#4A4A4A" d="M278.7 402.1h20v20.8h-20z"/><path fill="#6F00FF" d="M249.2 364.5h20V423h-20z"/><path fill="none" stroke="#41D5CF" stroke-linecap="round" stroke-linejoin="round" stroke-miterlimit="10" d="M298 402.5h-20.8.2H250"/><path fill="#FFF" d="M251 385.2v2c0 .3 0 .6.4.6.2 0 .4-.2.4-.5v-.2h.4v.2c0 .3 0 .5-.2.7s-.4.2-.6.2c-.3 0-.5-.1-.7-.3s-.2-.4-.2-.8v-1.9c0-.3 0-.6.2-.8s.4-.2.7-.2c.2 0 .4 0 .6.2.2.1.3.4.3.7l-.1.1h-.3l-.1-.1c0-.3-.2-.5-.4-.5-.3 0-.5.2-.5.6zm3.4 1.1v.8c0 .4 0 .7-.2.8l-.6.3c-.3 0-.5 0-.6-.3-.2-.1-.3-.4-.3-.8v-.8c0-.3.1-.6.3-.7.1-.2.3-.3.6-.3s.4 0 .6.3l.2.7zm-.5 1v-1.4l-.2-.1h-.2l-.2.1-.1.3v1.4l.3.1h.2l.2-.1v-.3zm1.5-1.1v1.9h-.5v-2.7h.4v.1l.4-.2c.3 0 .5 0 .6.2l.2.8v1.8h-.4v-2l-.1-.2-.2-.2h-.2l-.2.2v.3zm2.1 2h-.3v-2.4l-.1-.1h-.1v-.3h.1v-.2l.2-.8.7-.2h.1v.4h-.1c-.2 0-.3 0-.3.2v.5h.2v.1h.1v.3l-.1.1h-.2v2.3h-.1zm1-3.2l-.1-.2v-.2h.4l.1.2v.2h-.4zm.3 3.2h-.3v-2.9h.3v2.7zm2.2 0h-.3c-.1 0 0-.1 0-.2l-.6.2c-.2 0-.4 0-.5-.2a.8.8 0 0 1-.2-.6l.1-.5c0-.2.2-.2.3-.3h.2l.2-.1.2-.1.2-.1v-.5h-.6l-.1.4h-.4c0-.3 0-.5.2-.6.1-.2.3-.3.6-.3.2 0 .4 0 .6.2l.2.7v1.8zm-.8-.4c.3 0 .4-.2.4-.5v-.6a10 10 0 0 1-.5.2l-.1.1-.1.4v.2l.3.2zm1.9-1.6v1.9h-.4v-2.7h.4v.1l.4-.2c.3 0 .5 0 .6.2l.2.8v1.8h-.4v-2l-.1-.2-.2-.2h-.2l-.2.2v.3zm2.2 0v1.4l.4.2.2-.2.1-.2v-.1h.4l-.1.6a1 1 0 0 1-.7.3c-.2 0-.4 0-.6-.3l-.2-.8v-.8c0-.3 0-.6.2-.7l.6-.3c.3 0 .5 0 .7.3l.2.6h-.4l-.2-.4h-.5l-.1.4zm1.7.9v-.8c0-.3 0-.6.2-.7l.6-.3c.2 0 .4 0 .6.3.2.1.3.4.3.7v.5h-1.2v.8l.3.1h.3v-.4h.5c0 .2 0 .4-.2.6-.1.2-.3.3-.6.3-.2 0-.4 0-.6-.3-.2-.1-.3-.4-.3-.8zm1.2-.8v-.1c0-.2 0-.3-.2-.4s-.3 0-.4 0l-.2.4v.2h.7z"/><path fill="#6F00FF" d="M256.4 432.5h-.2l-.3-.1-.7-3.3h-.1v3.3h-.8v-7h.7l1.2 5v.1h.1l1.3-5 .1-.1h.6v7h-.8v-3.3l-.9 3.3h-.2zm6.6-5.1v.8l.2.1h.8v.8h-.8l-.1.1v1h-.8v-1h-.9l-.1-.1v-.7h.9v-1l.1-.1h.7v.1z"/><path fill="#4A4A4A" d="M287 432.5h-.3l-.2-.1-.8-3.3v3.2l-.1.1h-.8v-7h.7l1.3 5v.1l1.3-5 .2-.1h.5v7h-.8v-3.3l-.9 3.3h-.2zm4.7-2.6v-.4c0-.1 0-.2.2-.2h1.9l.1.2v.4l-.1.2h-2v-.2z"/><path fill="#FFF" d="M284.2 410.8h.7c.3 0 .5 0 .7.2s.2.5.2.8v1.9c0 .3 0 .6-.2.8a1 1 0 0 1-.7.3h-.7v-4.1zm.4.5v3h.4c.3 0 .5-.2.5-.6v-1.9c0-.4-.2-.6-.5-.6h-.2l-.1.1zm3.4 1.7v.7c0 .4 0 .7-.2.8a1 1 0 0 1-.7.3l-.6-.3-.2-.8v-.8c0-.3 0-.6.2-.8l.6-.2c.3 0 .5 0 .7.2l.2.8zm-.5.9v-1.4l-.2-.2h-.3l-.2.2v1.7l.2.1h.3l.2-.1v-.3zm2.2 0v-2h.4v2.8h-.4v-.1l-.4.2c-.3 0-.5 0-.6-.3l-.2-.7V412l.1-.1h.3v2l.1.3.2.1h.2l.2-.1v-.3zm1.5-1.5v1.8l.3.1h.1v.4c-.4 0-.6 0-.7-.2l-.2-.7v-1.4h-.1v-.5l.1-.1v-.5l.1-.1h.3l.1.1v.5h.4v.4h-.2v.1zm.8 1.3v-.8c0-.3 0-.6.2-.8l.6-.2c.3 0 .5 0 .6.2.2.2.3.5.3.8v.5c0 .1 0 0-.1 0h-1.1v.8l.3.1h.3l.1-.3v-.2h.4v.1l-.1.6a1 1 0 0 1-.7.3l-.6-.3-.2-.8zm1.2-.8v-.1c0-.2 0-.3-.2-.4s-.2-.1-.4 0-.2.2-.1.4v.2h.6l.1-.1z"/><path fill="#41D5CF" d="M274 388h-2.6v-7.9h2.9v.8h-1.9v2.5h1.8v.8h-1.6l-.2.1v2.8h1.6l.2.1v.8h-.2zm4.8 0h-.7l-1.8-4.9v4.7l-.1.2h-.9v-7.9h.7l.3.1 1.7 4.8h.1v-4.9h.9v7.9h-.1zm4 0h-2.6v-7.9h2.7v.8h-1.8v2.5h1.8v.8h-1.6l-.2.1v2.8h1.7l.1.1v.8h-.1zm1.4-8h1.4c.6 0 1 .2 1.3.6.4.4.5 1 .5 1.6v.3c0 1-.2 1.5-.7 1.9a184.2 184.2 0 0 1 .5 3.6h-.6l-.1-.1-.7-3-.1-.2h-.7v3.2l-.3.1h-.6v-7.9h.1zm.8 1.2v2.6h.6c.6 0 .9-.4.9-1.2v-.4c0-.8-.3-1.2-.9-1.2h-.6v.2zm4.3.9v3.9c0 .8.3 1.2.9 1.2.5 0 .8-.3.8-1v-2h-.5v-.9h1.4v2.5c0 .7 0 1.3-.4 1.6-.3.4-.8.6-1.3.6-.6 0-1-.2-1.4-.6-.3-.3-.5-.9-.5-1.6v-3.7c0-.7.2-1.3.5-1.6.4-.4.8-.6 1.4-.6.5 0 .9.2 1.2.5s.5.8.6 1.4c0 .2 0 .3-.2.3h-.7v-.3c-.1-.7-.4-1-1-1-.5 0-.8.4-.8 1.2zm4.7-1.8v7.7h-.9c-.1 0 0-.1 0-.2v-7.7h.8v.2zm3.7 7.7h-2.5v-7.9h2.7v.8h-1.8v2.5h1.8v.8h-1.6l-.2.1v2.8h1.6l.2.1v.8h-.2z"/></svg>