<svg xmlns="http://www.w3.org/2000/svg" xmlns:xlink="http://www.w3.org/1999/xlink" viewBox="0 0 320 568"><path fill="#6F00FF" d="M79 38.4c.6 0 1-.2 1.4-.6l.2-.6.2-1.7V21.6l.5-.1H83l.4.1.1.4v13.3c0 2-.3 3.5-1 4.3S80.6 41 79 41c-.2 0-.4 0-.5-.2v-2.2l.5-.1zM93.7 41h-5.9c-.2 0-.3 0-.4-.2l-.1-.4V21.7l.5-.1h5.9l.4.1.1.4v1.5l-.1.5h-3.5c-.3 0-.4.1-.5.2v5.1h3.5c.3 0 .4 0 .5.2l.1.4v1.5l-.1.4-.4.1h-3.1l-.5.1v6.2h3.5c.3 0 .4.1.5.2l.1.4v1.5l-.1.4-.4.2zM105 21.6h3.3c1.4 0 2.5.4 3.3 1.3s1.2 2.2 1.2 4v8.8c0 1.7-.4 3-1.2 4s-2 1.3-3.3 1.3H105c-.2 0-.3 0-.4-.2l-.1-.4V21.7l.5-.1zm2.2 3.1v13l.1.6h1c.5 0 1-.1 1.3-.4s.4-.9.4-1.5V26.2c0-.7-.1-1.2-.4-1.5-.4-.4-.8-.5-1.3-.5h-1v.5zm17.8 2v9.1c0 1.7-.4 3-1.2 4-.9.8-2 1.3-3.3 1.3s-2.4-.5-3.2-1.4c-.8-.9-1.2-2.2-1.2-3.9v-9c0-1.8.4-3 1.2-4 .8-.9 2-1.3 3.2-1.3s2.4.4 3.3 1.3a6 6 0 0 1 1.2 4zm-2.8 9.8V26c0-.8-.2-1.4-.8-1.8-.6-.3-1.1-.3-1.7 0-.6.4-.9 1-.8 1.8v10.5c0 .9.2 1.5.8 1.8.6.4 1.1.4 1.7 0 .6-.3.9-1 .8-1.8zm9.1-14.4v18.7l-.5.2H129c-.2 0-.3 0-.4-.2l-.1-.4V22.1l.1-.4.4-.1h1.7l.4.1.1.4zM139 41c-1.4 0-2.4-.4-3.3-1.2a5 5 0 0 1-1.2-3.3v-.4l.6-.2h1.6c.3 0 .5.2.5.7 0 .6.2 1 .5 1.4.3.4.7.5 1.2.5s.9-.1 1.2-.4.5-.7.5-1.2c.2-1.1-.4-2.5-1.7-4a21 21 0 0 1-1.2-1.4l-.6-.7-.6-.8c0-.2-.3-.4-.5-.8a51.2 51.2 0 0 0-1.1-2.5l-.1-.9a4 4 0 0 1 4-4.3 4 4 0 0 1 4 3.7v.7l-.5.1h-2l-.1-.5c0-.5-.1-.9-.4-1.1-.2-.3-.5-.4-1-.4s-.8.2-1 .6a2 2 0 0 0-.3 1.2c0 .7.4 1.5 1 2.3l1.8 2.4c.7.7 1.3 1.6 2 2.6.5 1 1 2 1 3 .2 1.3-.2 2.4-1 3.5-.9 1-2 1.5-3.4 1.5zm14.7-19.4h3.3c1.4 0 2.4.4 3.2 1.3s1.3 2.2 1.3 4v8.8c0 1.7-.4 3-1.3 4S158.4 41 157 41h-3.3c-.2 0-.3 0-.4-.2l-.1-.4V21.7l.5-.1zm2.2 3.1v13.6h1.1c.5 0 1-.1 1.2-.4s.5-.9.5-1.5V26.2c0-.7-.2-1.2-.5-1.5-.3-.4-.7-.5-1.2-.5h-1v.5zM171.5 41h-5.9c-.2 0-.3 0-.4-.2l-.1-.4V21.7l.5-.1h5.9l.4.1.1.4v1.5l-.1.5h-3.5c-.3 0-.4.1-.5.2v5.1h3.5c.3 0 .4 0 .5.2l.1.4v1.5l-.1.4-.4.1h-3.1l-.5.1v6.2h3.5c.3 0 .4.1.5.2l.1.4v1.5l-.1.4-.4.2zm-2.6-20.4h-1c-.1 0-.2 0-.2-.3v-2.7l.1-.4c0-.1.2-.2.5-.2h1.6c.4 0 .6.3.3.8l-.8 2.3c0 .3-.1.4-.2.4l-.3.1zm15.1 6.2c0 1.6-.4 2.9-1.2 3.8v.3c.8 1 1.1 2.2 1.1 3.8v1c0 1.7-.4 3-1.2 4s-1.9 1.3-3.2 1.3h-3.3c-.2 0-.4 0-.5-.2V21.7l.5-.1h3.3c1.3 0 2.4.4 3.2 1.3s1.2 2.2 1.2 4zm-5.6-2v4.6h1.1c1.1 0 1.7-.7 1.7-2v-1.2c0-.7-.2-1.2-.5-1.5-.3-.4-.7-.5-1.2-.5h-1l-.1.5zm0 7.8v5.7h1.1c.5 0 .9-.1 1.2-.4s.5-.9.5-1.5V34c0-.6-.2-1.1-.5-1.5-.3-.3-.7-.5-1.2-.5h-.8c-.2 0-.2.1-.3.2v.4zm9.6-11h3.7c1.3 0 2.3.4 3 1.3.8.8 1.2 2 1.2 3.8v1c0 2.1-.6 3.6-1.7 4.4l1.6 8.3c.1.4 0 .6-.3.6h-2.1l-.1-.2-.2-.2-1.4-7.5c0-.2-.1-.2-.3-.2h-1v7.5l-.2.4-.4.2H188c-.2 0-.3 0-.4-.2l-.2-.4V22.1c0-.2 0-.3.2-.4l.4-.1zm3.7 2.4h-1.3v6.3l.5.1h.8c1 0 1.4-.6 1.4-2V26c0-1.3-.5-2-1.4-2zm10.6-1.9v18.3c0 .2 0 .4-.2.4l-.4.2H200c-.2 0-.3 0-.4-.2l-.1-.4V22.1l.1-.4.4-.1h1.7l.4.1.2.4zM212.5 41h-5.8c-.2 0-.4 0-.4-.2l-.2-.4V22.1c0-.2 0-.3.2-.4l.4-.1h5.8l.5.1v2.4h-3.5c-.3 0-.5.1-.5.2l-.1.4v4.7h3.6c.2 0 .4 0 .5.2v2.3l-.5.1h-3l-.5.1-.1.5v5.7h3.6l.5.2v2.3l-.5.2zm6.5 0h-1.8c-.2 0-.3 0-.4-.2l-.1-.4V22.1l.1-.4.4-.1h5.9l.4.1.1.4v2H220c-.4 0-.5.1-.6.2v5.1h2.7c.2 0 .4 0 .5.2v2.3l-.5.1H220l-.5.1v8.3c0 .2 0 .4-.2.4l-.4.2zm14.4 0h-5.9c-.2 0-.3 0-.4-.2l-.1-.4V21.7l.5-.1h5.9l.4.1.1.4v1.5l-.1.5h-3.5c-.3 0-.4.1-.5.2v5.1h3.5c.3 0 .4 0 .5.2l.1.4v1.5l-.1.4-.4.1h-3.1l-.5.1v6.2h3.5c.3 0 .4.1.5.2l.1.4v1.5l-.1.4-.4.2zm4.6-19.4h3.7c1.3 0 2.3.4 3 1.3.8.8 1.1 2 1.1 3.8v1c0 2.1-.5 3.6-1.6 4.4l1.6 8.3c.1.4 0 .6-.3.6h-2.1l-.2-.2v-.2l-1.5-7.5c0-.2-.1-.2-.3-.2h-1l-.1.5v7l-.1.4-.5.2h-1.6c-.2 0-.4 0-.4-.2l-.2-.4V22.1c0-.2 0-.3.2-.4l.4-.1zm3.7 2.4h-1.3l-.1.6v5.7l.6.1h.8c1 0 1.4-.6 1.4-2V26c0-1.3-.5-2-1.4-2zm-162 44V53.4c0-.2 0-.3.2-.4l.4-.1h1.6l.5.1.1.4v13.7c0 1.7-.4 3-1.2 4-.8.8-2 1.3-3.2 1.3-1.4 0-2.4-.5-3.2-1.4s-1.3-2.2-1.3-3.9V53.5c0-.2 0-.3.2-.4l.4-.1h1.6l.5.1.1.4V68c0 .9.2 1.5.8 1.8.6.4 1.2.4 1.7 0 .6-.3.9-1 .8-1.8zm15 4.4h-1.3c-.3 0-.4-.1-.5-.4l-3.7-10.3v-.1H89v10.2l-.2.5h-2.5l-.2-.5V53.5c0-.2 0-.3.2-.4l.4-.1H88c.3 0 .5.1.6.3l3.7 10.4c0 .1.1.1.1 0V53.5l.2-.4.4-.1h1.7l.4.1.1.4v18.8h-.5zm13.6-15V68c0 .9.2 1.5.8 1.8.5.4 1.1.4 1.7 0 .6-.3.8-1 .8-1.8v-.2l.1-.4.4-.1h1.7c.4 0 .6.2.5.7a5.1 5.1 0 0 1-1.3 3.4 4 4 0 0 1-3 1.2c-1.4 0-2.5-.5-3.3-1.4s-1.2-2.2-1.2-3.9v-9c0-1.8.4-3 1.2-4s1.9-1.3 3.2-1.3a4 4 0 0 1 3 1.1c.9.8 1.3 2 1.4 3.4 0 .5-.1.8-.5.8H112c-.2 0-.3 0-.4-.2l-.1-.4v-.2c0-.8-.2-1.4-.8-1.8-.6-.3-1.2-.3-1.7 0s-.9 1-.8 1.8zm18.1.7v9.1c0 1.7-.4 3-1.2 4-.8.8-1.9 1.3-3.2 1.3s-2.4-.5-3.2-1.4-1.3-2.2-1.3-3.9v-9c0-1.8.5-3 1.3-4s1.9-1.3 3.2-1.3 2.4.4 3.2 1.3a6 6 0 0 1 1.2 4zm-2.8 9.8V57.4c.1-.8-.2-1.4-.7-1.8-.6-.3-1.2-.3-1.8 0s-.8 1-.8 1.8V68c0 .9.2 1.5.8 1.8.6.4 1.2.4 1.8 0 .5-.3.8-1 .7-1.8zm12.8 4.5h-5.8l-.5-.1V53.1l.5-.1h1.6l.5.1v16.1c0 .3.1.5.2.5h3.5l.4.2.2.4v1.5c0 .2 0 .4-.2.5h-.4zm9.9 0h-5.9l-.4-.1-.1-.5V53.5l.1-.4.4-.1h1.7l.4.1.2.4v16.2h3.5c.3 0 .4.1.5.2l.1.4v2h-.5zm12.2 0h-1.7a2 2 0 0 1-.3 0l-.2-.1-.1-.3-.2-1.5-.2-.5h-3.4l-.2.5-.2 1.5-.1.3h-2.6v-.4l3.4-18.4.2-.4.4-.1h2l.2.5 3.4 18.4v.4h-.4zM154 60l-1.2 6.8v.4l.5.1h2v-.5l-1-6.8h-.3zm16.6-1.8c0 1.6-.4 2.9-1.1 3.8v.3c.7 1 1 2.2 1 3.8v1c0 1.7-.3 3-1.1 4-.9.8-2 1.3-3.3 1.3h-3.3l-.4-.1-.1-.5V53.1l.5-.1h3.3c1.4 0 2.4.4 3.3 1.3a6 6 0 0 1 1.2 4zm-5.6-2v4l.1.6h1c1.2 0 1.7-.7 1.7-2v-1.2c0-.7-.1-1.2-.4-1.5s-.8-.5-1.3-.5h-1v.5zm0 7.8v5.2l.1.5h1c.5 0 1-.1 1.3-.4.3-.4.4-.9.4-1.5v-2.4c0-.6-.1-1.1-.4-1.4s-.8-.5-1.3-.5h-1v.5zm17.8-5.9v9.1c0 1.7-.4 3-1.2 4-.9.8-2 1.3-3.3 1.3s-2.4-.5-3.2-1.4-1.2-2.2-1.2-3.9v-9c0-1.8.4-3 1.2-4s2-1.3 3.2-1.3 2.4.4 3.3 1.3a6 6 0 0 1 1.2 4zM180 68V57.4c0-.8-.2-1.4-.8-1.8-.6-.3-1.2-.3-1.7 0s-.9 1-.8 1.8V68c0 .9.2 1.5.8 1.8.5.4 1.1.4 1.7 0 .6-.3.9-1 .8-1.8zm7-15h3.5c1.3 0 2.4.4 3 1.3.8.8 1.2 2.1 1.2 3.8v1c0 2.1-.6 3.6-1.7 4.4l1.7 8.3c0 .4 0 .6-.4.6h-1.7a2 2 0 0 1-.3 0l-.2-.1-.1-.3-1.4-7.5c0-.2-.2-.2-.4-.2h-1v7.5c0 .2 0 .4-.2.5h-2.5l-.1-.5V53.5l.1-.4.4-.1zm3.5 2.4h-1.3v6.3l.5.1h.8c1 0 1.4-.6 1.4-2v-2.4c0-1.3-.4-2-1.4-2zm16.5 17h-1.6a2 2 0 0 1-.3 0l-.2-.1-.1-.3-.3-1.5-.1-.5H201l-.2.5-.2 1.5-.2.3h-2.5c0-.1-.1-.2 0-.4l3.4-18.4.2-.4.4-.1h2l.1.5 3.5 18.4v.4h-.5zM202.6 60l-1.2 6.8v.4l.5.1h2v-.5l-1.1-6.8h-.2zm6.3-5v-1.5l.1-.4.5-.1h7.2l.4.1.1.4V55l-.1.5H215c-.3 0-.4.1-.5.2v16.1l-.2.5h-2.5l-.1-.5V56.1l-.1-.4-.5-.1h-1.6l-.5-.1-.1-.5zm17.6 17.4h-5.8l-.5-.1V53.1l.5-.1h5.8l.5.1v2.4h-3.5c-.3 0-.5.1-.5.2l-.1.4v4.7h3.6c.2 0 .4 0 .5.2v2.3l-.5.2H223l-.1.5v5.7h3.6l.5.2v2.3l-.5.2zm10.1-4.4V53.4c0-.2 0-.3.2-.4l.4-.1h1.7l.4.1.1.4v13.7c0 1.7-.4 3-1.2 4-.8.8-1.9 1.3-3.2 1.3-1.4 0-2.4-.5-3.2-1.4s-1.3-2.2-1.3-3.9V53.5c0-.2 0-.3.2-.4l.4-.1h1.7l.4.1.1.4V68c0 .9.2 1.5.8 1.8.6.4 1.2.4 1.7 0 .6-.3.9-1 .8-1.8zm7.1-15h3.6c1.3 0 2.3.4 3 1.3.8.8 1.2 2.1 1.2 3.8v1c0 2.1-.6 3.6-1.7 4.4l1.6 8.3c.1.4 0 .6-.3.6h-1.7a2 2 0 0 1-.3 0l-.2-.1-.2-.3-1.4-7.5c0-.2-.1-.2-.3-.2h-1v7.5l-.2.5h-2.5l-.2-.5V53.5c0-.2 0-.3.2-.4l.4-.1zm3.6 2.4H246v6.3l.5.1h.8c1 0 1.4-.6 1.4-2v-2.4c0-1.3-.5-2-1.4-2z"/><circle cx="61.9" cy="189.1" r="8.3" fill="#6F00FF"/><circle cx="166.6" cy="120.2" r="8" fill="#6F00FF"/><circle cx="266.6" cy="186.6" r="8" fill="#6F00FF"/><path fill="#6F00FF" d="M174 261.4a42.2 42.2 0 0 1-6.2-83.9 41.4 41.4 0 0 1 41.5 42.2c0 15.6-9.5 30.1-24.3 37.5v17.5l-11-13.3z"/><path fill="#41D5CF" d="M167.7 180a38.8 38.8 0 0 1 38.9 39.7 40.5 40.5 0 0 1-24.6 36v12l-7.4-9c-2.6.5-3.7.7-6.4.7a39.7 39.7 0 0 1-.5-79.4m0-5a43.6 43.6 0 0 0-31.2 13 44.7 44.7 0 0 0 36.4 76l5.5 7 8.6 10.6v-22.8a45 45 0 0 0 24.6-39.1c0-25-19.2-44.7-43.9-44.7z"/><path fill="#4A4A4A" d="M18 203v6c0 .6 0 1.1.4 1.4.3.3.6.5 1.1.5.5 0 .8-.2 1.1-.5.3-.3.5-.8.5-1.4v-.1c0-.2 0-.3.3-.3h.2c.2 0 .3 0 .3.3 0 1-.2 1.6-.6 2-.5.5-1 .8-1.8.8-.7 0-1.3-.3-1.8-.7-.4-.5-.6-1.2-.6-2v-6c0-.8.2-1.5.6-2 .5-.4 1-.7 1.8-.7.7 0 1.3.3 1.8.7.4.5.6 1.2.6 2v.1c0 .2-.1.3-.3.3h-.2c-.2 0-.3 0-.3-.3v-.1a2 2 0 0 0-.5-1.4c-.3-.3-.6-.5-1.1-.5-.5 0-.8.2-1.1.5a2 2 0 0 0-.5 1.4zm5.4 5.8v-2.4c0-1 .2-1.7.6-2.2s.9-.7 1.6-.7a2 2 0 0 1 1.5.7c.4.5.6 1.2.6 2.2v2.4c0 1-.2 1.7-.6 2.2a2 2 0 0 1-1.5.7c-.7 0-1.2-.3-1.6-.7s-.6-1.2-.6-2.2zm3.5.4V206c0-.6-.1-1-.4-1.3-.2-.3-.5-.4-1-.4-.3 0-.7.1-.9.4-.2.3-.4.7-.4 1.3v3.2c0 .6.2 1 .4 1.3.2.3.6.4 1 .4s.7-.1 1-.4c.2-.3.3-.7.3-1.3zm5.9 2.1V206c0-1.1-.4-1.7-1.3-1.7s-1.2.6-1.2 1.7v5.5l-.3.1h-.5v-7.9l.3-.1h.4l.1.3v.3c.3-.4.7-.7 1.3-.7.6 0 1.1.2 1.5.7.3.5.5 1.2.5 2.2v5.1l-.3.1H33l-.1-.3zm6.2-5.9v.2h-.5c-.2 0-.3 0-.3-.2 0-.3-.1-.5-.3-.8s-.5-.3-.8-.3-.5.1-.7.3-.3.5-.3.8c0 .2 0 .5.3.8l.8.7a37.4 37.4 0 0 1 1.7 1.7 2 2 0 0 1-1.8 3.1 2 2 0 0 1-1.5-.6 2 2 0 0 1-.6-1.5v-.2l.3-.1h.2c.2 0 .3.1.3.3 0 .4.2.7.4 1s.6.3.9.3a1.3 1.3 0 0 0 1.3-1.3c0-.4-.2-.7-.5-1l-1-1a5 5 0 0 1-1.2-1 2 2 0 0 1-.5-1.2c0-.5.2-1 .6-1.3.3-.4.8-.6 1.3-.6s1 .2 1.3.5c.4.4.6.8.6 1.4zm2.5-3.2v1.6c0 .1 0 .2.2.2h.5v.7h-.5l-.2.2v5.4c.1.3.3.5.6.5l.2.1.1.2v.4l-.3.1c-.6 0-1-.2-1.2-.6l-.2-1v-5.1c0-.1 0-.2-.2-.2h-.2l-.1-.3v-.3l.3-.1c.1 0 .2 0 .2-.2V202l.3-.1h.4l.1.3zm4.3 2.1c-.7 0-1.1.5-1.2 1.4v.3h-.8v-.2c0-.6.2-1.1.5-1.6.3-.4.8-.7 1.5-.7 1.4 0 2.1 1 2.1 2.9v4c0 .1 0 .5.2.9 0 .2 0 .3-.4.3h-.2l-.3-.1v-.4a2 2 0 0 1-1.6.6c-.6 0-1-.2-1.4-.6s-.6-.9-.6-1.6v-.5a2.2 2.2 0 0 1 1.2-1.9c.4 0 .7-.2 1-.3l1-.4.3-.6c0-.4-.1-.8-.3-1s-.5-.5-1-.5zm.1 6.6c.4 0 .7-.2 1-.4l.2-1.2V207a9 9 0 0 1-.8.3 5 5 0 0 0-.8.3c-.7.4-1.1 1-1 1.7 0 1.1.5 1.7 1.4 1.6zm4.7-8.7v1.6c0 .1 0 .2.2.2h.5v.7h-.5l-.2.2v5.4c.1.3.3.5.6.5l.2.1.1.2v.4l-.3.1c-.6 0-1-.2-1.2-.6l-.2-1v-5.1c0-.1 0-.2-.2-.2h-.2l-.1-.3v-.3l.3-.1c.1 0 .2 0 .2-.2V202l.3-.1h.4l.1.3zm9.6-1.5v10.6l-.1.2-.3.1h-.4v-.6c-.4.4-.8.6-1.4.7-.6 0-1.1-.2-1.5-.7-.3-.5-.5-1.2-.5-2.2v-2.4c0-1 .2-1.7.5-2.2.4-.5.9-.7 1.5-.7s1 .3 1.3.7v-3.5l.1-.2.2-.1h.5v.3zm-3.4 5.3v3.2c0 1.1.4 1.7 1.3 1.7s1.2-.6 1.2-1.7V206c0-1.1-.4-1.7-1.2-1.7s-1.3.6-1.3 1.7zm6-2v5.2c0 1.1.4 1.7 1.3 1.7s1.2-.6 1.2-1.7v-5.5l.3-.1h.5v7.9l-.3.1h-.4v-.6c-.4.4-.8.7-1.4.7-.6 0-1.1-.2-1.5-.7-.3-.5-.5-1.2-.5-2.2v-5l.3-.1h.5v.3zm10.5.5H73c-.3 0-.6.1-.7.5v6.3l-.2.2-.2.1h-.4l-.1-.3v-7.6l.3-.1h.4l.1.3v.2c.4-.3.7-.5 1.2-.5h.3v1h-.3zm1.2 4.3v-2.4c0-1 .2-1.7.6-2.2s.9-.7 1.5-.7a2 2 0 0 1 1.6.7c.4.5.6 1.2.6 2.2v1.1h-3.5v1.8c0 .6 0 1 .3 1.3.2.3.5.4 1 .4.3 0 .6-.1.9-.4.2-.2.3-.6.3-1l.1-.3h.7v.2c0 .6-.1 1.1-.5 1.6a2 2 0 0 1-1.6.7c-.6 0-1.1-.3-1.5-.7s-.6-1.2-.6-2.2zm.8-2.8v.7H78v-.7c0-.6 0-1-.3-1.3-.2-.3-.5-.4-1-.4-.4 0-.7.1-1 .4-.1.3-.3.7-.3 1.3zm1.4-3.2l-.2-.1v-2h.8v.3l-.3 1.5-.1.2h-.2zm7.3 2.6v.2h-.4c-.2 0-.3 0-.3-.2 0-.3-.1-.5-.3-.8s-.5-.3-.8-.3-.5.1-.7.3-.3.5-.3.8c0 .2 0 .5.3.8l.8.7a37.4 37.4 0 0 1 1.7 1.7 2 2 0 0 1-.3 2.5c-.5.4-1 .6-1.5.6a2 2 0 0 1-1.5-.6 2 2 0 0 1-.6-1.5v-.2l.3-.1h.2c.1 0 .3.1.3.3 0 .4.2.7.4 1s.5.3.9.3a1.3 1.3 0 0 0 1.3-1.3c0-.4-.2-.7-.5-1l-1.1-1a5 5 0 0 1-1-1 2 2 0 0 1-.6-1.2c0-.5.2-1 .6-1.3.3-.4.8-.6 1.3-.6s1 .2 1.3.5c.3.4.5.8.6 1.4zm2.5-1.4v5.2c0 1.1.4 1.7 1.3 1.7s1.2-.6 1.2-1.7v-5.5l.3-.1h.5v7.9l-.3.1h-.4v-.6c-.4.4-.8.7-1.4.7-.6 0-1.1-.2-1.5-.7-.3-.5-.5-1.2-.5-2.2v-5l.3-.1h.4l.1.3zm6.6 6.8l.2.1.1.3v.3l-.3.1c-.6 0-1-.2-1.2-.6l-.2-1v-9.5l.3-.1h.4l.1.3v9.6c.1.3.3.5.6.5zm2.6-8.6v1.6l.1.2h.6v.7h-.6l-.1.2v5.4c.1.3.3.5.6.5l.2.1v.6l-.2.1c-.6 0-1-.2-1.2-.6l-.2-1v-5.1l-.2-.2h-.3v-.6l.3-.1c.1 0 .2 0 .2-.2V202l.3-.1h.4v.3zm4.3 2.1c-.7 0-1.2.5-1.2 1.4l-.1.3H98v-.2c0-.6.1-1.1.5-1.6.3-.4.8-.7 1.5-.7 1.4 0 2.1 1 2.1 2.9v4l.1.9c0 .2 0 .3-.3.3h-.3l-.2-.1-.1-.4a2 2 0 0 1-1.5.6c-.6 0-1-.2-1.4-.6s-.6-.9-.6-1.6v-.5c0-.4.1-.8.4-1.1.2-.4.5-.6.8-.7l1-.4 1-.4.3-.6c0-.4-.1-.8-.4-1s-.5-.5-.9-.5zm.1 6.6c.4 0 .7-.2.9-.4.2-.3.3-.6.3-1.2V207a9 9 0 0 1-.8.3 5 5 0 0 0-.8.3c-.8.4-1.1 1-1 1.7 0 1.1.4 1.7 1.4 1.6zm4.7-8.7v1.6l.1.2h.6v.7h-.6l-.1.2v5.4c.1.3.3.5.6.5l.2.1v.6l-.2.1c-.6 0-1-.2-1.2-.6l-.2-1v-5.1l-.2-.2h-.3v-.6l.3-.1.1-.2v-1.6l.1-.2.3-.1h.4v.3zm-64.8 20h.4v.3L39 230v.2h-1v-.2l-1.6-7.5v-.2h.7l.1.2 1.2 6.2h.2l1.2-6.2v-.2h.2zm5.3 1.8v.3h-.4c-.2 0-.3 0-.3-.3s-.2-.5-.4-.7-.4-.4-.7-.4-.6.1-.8.4-.3.4-.3.7c0 .3.1.6.4.8l.8.8a37.4 37.4 0 0 1 1.7 1.6c.2.3.3.7.3 1 0 .7-.3 1.1-.7 1.5a2 2 0 0 1-1.4.6 2 2 0 0 1-1.5-.6 2 2 0 0 1-.7-1.4l.1-.3h.4c.2 0 .3 0 .3.3 0 .4.2.7.5.9s.5.3.9.3a1.3 1.3 0 0 0 1.2-1.3c0-.3-.1-.7-.4-1l-1.1-1a5 5 0 0 1-1.1-.9 2 2 0 0 1-.5-1.3c0-.5.2-1 .5-1.3.4-.3.8-.5 1.4-.5s.9.1 1.3.5c.3.3.5.7.5 1.3zm6.3 5.5h.2l.1.3v.4h-.3c-.6 0-1-.2-1.2-.6l-.2-1v-9.5h.7l.1.3v9.6c.1.3.3.4.6.5zm1.2-9.9l.1-.4.4-.2c.2 0 .3.1.4.3l.1.7c0 .3-.3.6-.6 1h-.1l-.2-.1v-.2c.2-.2.2-.4.2-.5l-.1-.2a.7.7 0 0 1-.2-.4zm2.2 7.9V225c0-1 .2-1.7.6-2.1s1-.7 1.6-.7a2 2 0 0 1 1.6.7c.3.4.5 1.1.5 2v2.6c0 1-.2 1.6-.5 2.1a2 2 0 0 1-1.6.7c-.7 0-1.2-.2-1.6-.7s-.6-1.2-.6-2.1zm3.5.3v-3.1c0-.6-.1-1-.3-1.3-.3-.3-.6-.5-1-.5s-.7.2-1 .5c-.2.2-.3.7-.3 1.3v3.1c0 .6.1 1 .3 1.3.3.3.6.4 1 .4s.7-.1 1-.4c.2-.3.3-.7.3-1.3zm2.6 2.2v-10.9h.8v3.8c.3-.5.8-.7 1.3-.7.6 0 1.2.2 1.5.6.4.5.6 1.2.6 2.2v2.5c0 1-.2 1.7-.6 2.1-.3.5-.9.7-1.5.7-.5 0-1-.2-1.3-.7v.6h-.7l-.1-.3zm3.3-2.2v-3.1c0-1.2-.4-1.8-1.2-1.8s-1.3.6-1.3 1.8v3.1c0 1.2.4 1.7 1.3 1.7s1.2-.5 1.2-1.7zm1.9 4.6c.3 0 .5-.2.6-.5l.1-1.2v-8.4h.8v9.8c-.3.6-.7 1-1.5 1h-.2l-.1-.3v-.4h.3zm.8-11a.4.4 0 0 1-.2-.5l.4-.4c.2 0 .3 0 .5.2.1 0 .2.3.1.4 0 .2-.2.3-.3.4s-.4 0-.5-.1zm2.5 6.1V225c0-1 .2-1.7.6-2.1s.9-.7 1.6-.7a2 2 0 0 1 1.5.7c.4.4.6 1.1.6 2v1.2h-3.2l-.3.1v1.6c0 .6 0 1 .3 1.3.2.3.5.4 1 .4.3 0 .6 0 .9-.3.2-.3.3-.6.3-1l.1-.4h.7v.2c0 .6-.1 1.1-.5 1.6-.3.5-.9.7-1.5.7-.7 0-1.2-.2-1.6-.7s-.6-1.2-.6-2.1zm.8-2.8v.7H73v-.7c0-.6 0-1-.3-1.3-.2-.3-.5-.5-1-.5-.4 0-.7.2-1 .5-.1.3-.3.7-.3 1.3zm7.2 5.6c-.6 0-1.1-.2-1.5-.7s-.6-1.2-.6-2.1V225c0-1 .2-1.7.6-2.1s.9-.7 1.5-.7c.7 0 1.3.2 1.6.7.3.4.5 1 .5 1.5v.3H79v-.4c0-.4-.2-.7-.4-1-.3-.2-.6-.4-1-.4s-.7.2-1 .5c-.2.2-.3.7-.3 1.3v3.1c0 .6.1 1 .4 1.3.2.3.5.4 1 .4.3 0 .6 0 .9-.3.2-.3.3-.6.3-1l.1-.4h.7v.2c0 .6-.2 1.2-.5 1.6-.3.5-.9.7-1.6.7zm4.7-9.5v1.7l.2.1h.3l.2.1.1.2v.4h-.6l-.2.2v5.5c.2.3.3.4.6.5h.3v.7h-.3c-.6 0-1-.2-1.1-.6-.2-.3-.2-.6-.3-1v-5.1l-.2-.1h-.2v-.7h.2l.2-.2v-1.9h.8v.2zm2.7.7c-.1 0-.3 0-.4-.2v-.5c.1-.2.3-.3.5-.3s.3 0 .4.3v.5l-.4.2zm.5 1v7.7h-.8v-7.9h.7l.1.3zm3.9-2.7c-.5 0-.8.2-1 .5 0 .2-.2.7-.2 1.5v.6c0 .2.1.2.2.2h.9v.7h-.9l-.2.2v6.7h-.7v-6.7l-.2-.1-.3-.1v-.6h.3l.1-.3v-1.3a6 6 0 0 1 .3-1.2v-.2l.2-.1v-.1l.2-.1h.1c.3-.3.7-.4 1.2-.4l.2.1.1.3v.3l-.3.1z"/><path fill="#FFF" d="M63 193.7h-1.7V187a6 6 0 0 1-2.3 1.3v-1.6l1.5-.9c.5-.4 1-.9 1.1-1.4h1.5v9.2z"/><path fill="#4A4A4A" d="M137.7 143.5h-3.2l-.2-.1-.1-.3v-10.8h3.8v.7h-3v4.1h2.7l.3.1v.7h-3v4.7h2.7c.2 0 .2.1.3.2v.6h-.3zm-1.5-11.8h-.1c-.1 0-.2 0-.2-.2V130l.1-.3h.7v.3l-.3 1.5v.2h-.2zm5.6 11.8c-.7 0-1.2-.2-1.6-.7s-.5-1.1-.5-2v-2.6c0-1 .2-1.6.5-2.1s1-.7 1.6-.7c.7 0 1.2.2 1.6.7.3.4.5 1 .5 1.6v.2h-.7l-.1-.3c0-.5-.2-.8-.4-1-.2-.3-.5-.4-.9-.4s-.7.1-1 .4c-.2.3-.3.7-.3 1.3v3.1c0 .6.1 1 .3 1.3.3.3.6.5 1 .5s.7-.2 1-.4c.1-.3.3-.6.3-1v-.3l.3-.1h.4l.1.3c0 .5-.2 1-.5 1.6-.4.4-.9.6-1.6.6zm3.7-2.8v-2.5c0-1 .2-1.6.6-2.1s.9-.7 1.5-.7a2 2 0 0 1 1.6.7c.4.5.6 1.2.6 2.1v2.5c0 1-.2 1.7-.6 2.1a2 2 0 0 1-1.6.7c-.6 0-1.1-.2-1.5-.7s-.6-1.1-.6-2zm3.5.3v-3c0-.6-.2-1-.4-1.3-.2-.3-.6-.4-1-.4s-.7.1-1 .4c-.2.3-.3.7-.3 1.3v3.1c0 .6.1 1 .4 1.3.2.3.5.5 1 .5.3 0 .7-.2.9-.5.2-.3.4-.7.4-1.3zm3.3-5.2v5.2c0 1.2.4 1.8 1.2 1.8s1.3-.6 1.3-1.8v-5.5h.8v7.9h-.7l-.1-.3v-.3c-.3.5-.7.7-1.3.7a2 2 0 0 1-1.5-.6c-.4-.5-.5-1.2-.5-2.2v-5.2h.7l.1.3zm6.1-1.8v1.7l.1.1h.3l.3.1v.6l-.3.1h-.3l-.1.2v5.4c.1.3.3.5.6.5h.2v.7h-.2c-.6 0-1-.2-1.2-.6l-.2-1v-5l-.2-.2h-.3v-.7h.3l.1-.2V134l.1-.3h.7v.3zm2.2 6.7v-2.5c0-1 .1-1.6.5-2.1s1-.7 1.6-.7a2 2 0 0 1 1.6.7c.4.5.5 1.2.5 2.1v1.1h-3.1l-.3.1v1.6c0 .6.1 1 .3 1.3.3.3.6.5 1 .5s.7-.2 1-.4c.1-.3.3-.6.3-1v-.4h.7l.1.3c0 .5-.2 1-.5 1.5a2 2 0 0 1-1.6.7c-.7 0-1.2-.2-1.6-.7s-.5-1.1-.5-2zm.8-2.8v.7h2.6v-.7c0-.6-.1-1-.3-1.3-.3-.3-.6-.4-1-.4s-.7.1-1 .4c-.2.3-.3.7-.3 1.3zM173 144v-1.2c-.3.5-.7.7-1.3.7a2 2 0 0 1-1.5-.6c-.3-.5-.5-1.2-.5-2.2v-2.5c0-1 .2-1.7.5-2.1.4-.5.9-.7 1.5-.7s1 .2 1.3.7v-.6h.8v8.1c0 1-.2 1.6-.5 2a2 2 0 0 1-1.6.8c-1 0-1.7-.5-2-1.5 0-.2 0-.3.2-.3l.3-.1.3.1c.1.7.5 1 1.2 1 .4 0 .7-.1 1-.4.2-.3.3-.7.3-1.3zm-2.5-6.1v3.1c0 1.2.4 1.8 1.3 1.8.8 0 1.2-.6 1.2-1.8v-3c0-1.2-.4-1.7-1.2-1.7-.9 0-1.3.5-1.3 1.7zm6.5 4.8h.3v.7h-.2c-.6 0-1-.1-1.2-.6l-.2-1v-9.5h.7v8.7l.2 1.2c0 .3.2.5.5.5zm1.7-2v-2.5c0-1 .2-1.6.5-2.1s1-.7 1.6-.7a2 2 0 0 1 1.6.7c.4.5.6 1.2.6 2.1v2.5c0 1-.2 1.7-.6 2.1a2 2 0 0 1-1.6.7c-.7 0-1.2-.2-1.6-.7s-.5-1.1-.5-2zm3.4.3v-3c0-.6 0-1-.3-1.3-.3-.3-.6-.4-1-.4s-.7.1-1 .4c-.2.3-.3.7-.3 1.3v3.1c0 .6.1 1 .3 1.3.3.3.6.5 1 .5s.7-.2 1-.5c.2-.3.3-.7.3-1.3zm2.6 2.1v-10.8h.8v3.8c.4-.5.8-.7 1.3-.7.7 0 1.2.2 1.5.7.4.4.6 1.1.6 2.1v2.5c0 1-.2 1.7-.6 2.2-.3.4-.8.6-1.5.6-.5 0-1-.2-1.3-.6v.5h-.7v-.3zm3.3-2v-3.2c0-1.2-.4-1.7-1.2-1.7s-1.3.5-1.3 1.7v3.1c0 1.2.5 1.8 1.3 1.8s1.2-.6 1.2-1.8zm4.6-4.9c-.7 0-1.1.4-1.2 1.4v.3h-.8v-.2c0-.6.2-1.2.5-1.6.3-.5.8-.7 1.5-.7 1.4 0 2.1 1 2.1 2.8v4l.1 1c.1.2 0 .3-.3.3h-.2l-.3-.1-.1-.5a2 2 0 0 1-1.5.6c-.6 0-1-.2-1.4-.5s-.6-1-.6-1.6v-.5c0-.5.1-.9.4-1.2l.8-.7 1-.4c.4 0 .7-.2 1-.4.2-.1.3-.3.3-.6 0-.4-.1-.7-.3-1s-.6-.4-1-.4zm.1 6.6c.4 0 .7-.2.9-.5.2-.2.3-.6.3-1.1v-2.4a9 9 0 0 1-.8.3 5 5 0 0 0-.8.3c-.8.4-1.1 1-1 1.8 0 1.1.4 1.6 1.4 1.6zm5.2-.1h.2l.1.3v.4h-.3c-.6 0-1-.1-1.2-.6l-.2-1v-9.5h.7l.1.3v9.6c.1.3.3.5.6.5zm1.6-2v-2.5c0-1 .2-1.6.6-2.1s.9-.7 1.5-.7a2 2 0 0 1 1.6.7c.4.5.6 1.2.6 2.1v.9l-.1.2h-3.1l-.2.1v1.6c0 .6 0 1 .3 1.3.2.3.5.5 1 .5.3 0 .6-.2.8-.4.3-.3.4-.6.4-1v-.4h.8v.3c0 .5-.2 1-.5 1.5-.4.5-.9.7-1.6.7-.6 0-1.2-.2-1.5-.7s-.6-1.1-.6-2zm.8-2.8v.7h2.7v-.7c0-.6 0-1-.3-1.3-.3-.3-.6-.4-1-.4s-.7.1-1 .4c-.2.3-.3.7-.3 1.3zM135 152.1v8.9l.1.9c.2.5.5.8 1.2 1h.2l.1.2v.4h-.3c-.7 0-1.2-.2-1.6-.6-.3-.4-.5-1-.5-2v-8.8c0-.9.2-1.5.5-2 .4-.4.9-.6 1.6-.6h.2l.1.3v.4h-.3c-.4 0-.7.2-1 .5l-.2.5v.9zm6.2 10c-.3 0-.4 0-.4-.2L139 155v6.7l-.1.2-.3.1h-.4l-.1-.3v-10.8l.3-.1c.3 0 .4 0 .4.2l2.2 9v.1h.1l2.2-9.1c0-.1.1-.2.3-.2h.3l.1.3V162l-.3.1h-.4l-.1-.3V155h-.1l-1.6 6.8-.4.2zm4.7-2.8V157c0-1 .2-1.7.5-2.2s1-.7 1.6-.7a2 2 0 0 1 1.6.7c.4.5.6 1.2.6 2.2v2.4c0 1-.2 1.7-.6 2.2a2 2 0 0 1-1.6.7c-.6 0-1.2-.3-1.5-.7s-.6-1.2-.6-2.2zm3.4.4v-3.2c0-.6 0-1-.3-1.3-.3-.3-.6-.4-1-.4s-.7.1-1 .4c-.2.3-.3.7-.3 1.3v3.2c0 .6.1 1 .4 1.3.2.3.5.4 1 .4.3 0 .6-.1.9-.4.2-.3.3-.7.3-1.3zm3.5-7v1.6l.1.2h.6v.7h-.6l-.1.2v5.4c0 .3.3.5.5.5l.3.1v.6l-.3.1c-.5 0-1-.2-1.1-.6l-.2-1v-5.1l-.2-.2h-.3v-.6l.3-.1.1-.2v-1.8l.3-.1h.5v.3zm2.7.7c-.2 0-.3-.1-.4-.3v-.5c0-.2.2-.2.4-.2s.4 0 .4.2v.5c0 .2-.2.3-.4.3zm.4 1v7.6l-.3.1h-.4l-.1-.3v-7.6l.3-.1h.5v.3zm5.1-.3h.4v.3l-1.4 7.4-.1.2-.3.1h-.6l-.1-.3-1.6-7.4v-.2l.3-.1h.4l.1.2 1.2 6.2.1.1 1.3-6.3v-.1h.1l.2-.1zm3.8.7c-.7 0-1.1.5-1.2 1.4v.3h-.8v-.2c0-.6.2-1.1.5-1.6.3-.4.8-.7 1.5-.7 1.4 0 2.1 1 2.1 2.9v4l.1.9c.1.2 0 .3-.3.3h-.2l-.3-.1-.1-.4a2 2 0 0 1-1.5.6c-.6 0-1-.2-1.4-.6s-.6-.9-.6-1.6v-.5c0-.4.1-.8.4-1.1.2-.4.5-.6.8-.7l1-.4 1-.4.3-.6c0-.4-.1-.8-.3-1s-.6-.5-1-.5zm.1 6.6c.4 0 .7-.2.9-.4.2-.3.3-.6.3-1.2v-2.3a9 9 0 0 1-.8.3 5 5 0 0 0-.8.3c-.8.4-1.1 1-1 1.7 0 1.1.4 1.7 1.4 1.6zm4.7-8.7v1.6l.1.2h.6v.7h-.6l-.1.2v5.4c.1.3.3.5.6.5l.2.1v.6l-.2.1c-.6 0-1-.2-1.2-.6l-.2-1v-5.1l-.2-.2h-.3v-.6l.3-.1c.1 0 .2 0 .2-.2v-1.8l.3-.1h.4v.3zm2.7.7c-.2 0-.3-.1-.4-.3v-.5c0-.2.2-.2.4-.2s.4 0 .5.2v.5c-.1.2-.2.3-.5.3zm.5 1v7.4l-.1.2-.3.1h-.4v-7.9l.2-.1h.5v.3zm1.7 4.9V157c0-1 .2-1.7.6-2.2s.9-.7 1.6-.7a2 2 0 0 1 1.5.7c.4.5.6 1.2.6 2.2v2.4c0 1-.2 1.7-.6 2.2a2 2 0 0 1-1.5.7c-.7 0-1.2-.3-1.6-.7s-.6-1.2-.6-2.2zm3.5.4v-3.2c0-.6-.1-1-.4-1.3-.2-.3-.5-.4-1-.4-.3 0-.7.1-.9.4-.2.3-.4.7-.4 1.3v3.2c0 .6.2 1 .4 1.3.2.3.6.4 1 .4s.7-.1 1-.4c.2-.3.3-.7.3-1.3zm5.9 2.1v-5.3c0-1.1-.4-1.7-1.3-1.7s-1.2.6-1.2 1.7v5.5l-.3.1h-.5v-7.9l.3-.1h.4v.6c.4-.4.8-.7 1.4-.7.6 0 1.1.2 1.5.7.3.5.5 1.2.5 2.2v5.1l-.3.1h-.4l-.1-.3zm6 0v-5.3c0-1.1-.4-1.7-1.3-1.7s-1.2.6-1.2 1.7v5.5l-.3.1h-.5v-7.9l.3-.1h.4v.6c.4-.4.8-.7 1.4-.7.6 0 1.1.2 1.5.7.3.5.5 1.2.5 2.2v5.1l-.3.1h-.4l-.1-.3zm2.5-2.5V157c0-1 .2-1.7.6-2.2s.9-.7 1.5-.7a2 2 0 0 1 1.6.7c.4.5.6 1.2.6 2.2v1.1h-3.5v1.7c0 .6 0 1 .3 1.3.2.3.5.4 1 .4.3 0 .6-.1.9-.4.2-.2.3-.6.3-1l.1-.3h.7v.2a3 3 0 0 1-.5 1.6 2 2 0 0 1-1.6.7c-.6 0-1.1-.3-1.5-.7s-.6-1.2-.6-2.2zm.8-2.8v.7h2.6v-.7c0-.6 0-1-.3-1.3-.2-.3-.6-.4-1-.4s-.7.1-1 .4c-.1.3-.3.7-.3 1.3zm6.6 4.8l.2.1.1.3v.3l-.3.1c-.6 0-1-.2-1.2-.6l-.2-1V151l.3-.1h.4l.1.3v9.6c.1.3.3.5.6.5zm3-.3v-9l-.1-1c-.1-.5-.5-.8-1.2-.9h-.2v-.7h.2c.7 0 1.3.2 1.6.7.3.4.5 1 .5 2v8.7c0 1-.2 1.6-.5 2a2 2 0 0 1-1.6.7h-.2v-.7h.2c.5 0 .8-.3 1-.6l.2-.4v-1z"/><path fill="#FFF" d="M169.5 122.3v1.6h-6.2c.1-.6.3-1.2.6-1.7s1-1.3 2-2.2l1.5-1.5c.2-.4.3-.7.3-1.1 0-.4 0-.7-.3-.9s-.5-.3-.8-.3c-.4 0-.7 0-1 .3-.1.2-.3.6-.3 1.1l-1.7-.2c0-1 .4-1.6 1-2 .5-.5 1.2-.7 2-.7 1 0 1.6.3 2.1.8.6.4.8 1 .8 1.8 0 .4 0 .8-.2 1.2a6.3 6.3 0 0 1-1.9 2.3l-1 1-.4.5h3.5z"/><circle cx="272.1" cy="305" r="39.7" fill="#6F00FF"/><path fill="none" stroke="#41D5CF" stroke-dasharray="2.2 2.2" stroke-miterlimit="10" stroke-width="3" d="M272.2 347.3a42 42 0 0 1-41.9-42.2 42.1 42.1 0 1 1 84.2 0 42.2 42.2 0 0 1-42.3 42.2z"/><path fill="#4A4A4A" d="M227 210.7h-.4v-.1l-.2-.2-.2-1.2v-.3h-3v.3l-.3 1.2v.2h-.8v-.2l2-10.6v-.3h1v.3l2 10.6c.1.1 0 .2 0 .2h-.2zm-2.3-9.7l-1.2 6.8v.3h2.5v-.3l-1.2-6.8h-.1zm7.5 9.4V205c0-1.2-.4-1.7-1.2-1.7s-1.3.5-1.3 1.7v5.5h-.7l-.1-.2v-7.6h.7l.1.3v.3c.3-.4.7-.7 1.3-.7.6 0 1.1.2 1.5.7.4.4.5 1.2.5 2.1v5.2h-.7v-.2zm4.7-7c-.8 0-1.2.4-1.3 1.4v.3h-.7v-.2c0-.6.1-1.2.4-1.6.3-.5.9-.7 1.6-.7 1.4 0 2 1 2 2.8v4l.2 1c0 .2 0 .3-.3.3h-.3l-.2-.1-.2-.4a2 2 0 0 1-1.4.5c-.6 0-1.1-.1-1.5-.5s-.5-1-.5-1.6v-.5c0-.5 0-.8.3-1.2l.9-.7 1-.4c.3 0 .6-.2.9-.4.2-.1.3-.3.3-.5 0-.5 0-.8-.3-1s-.5-.5-1-.5zm0 6.6c.5 0 .7-.2 1-.4l.2-1.2v-2.3a9 9 0 0 1-.8.3 5 5 0 0 0-.7.3c-.8.3-1.2 1-1.1 1.7 0 1.1.5 1.6 1.5 1.6zm5.2 0h.3v.6h-.3c-.5 0-1-.1-1.1-.5l-.2-1v-9.6h.7v8.7l.1 1.2c0 .3.3.5.5.5zm1.3-7v-.3h.7l.1.2 1.4 6.8v.1l1.5-6.9v-.2h.8v.2l-2 9a3 3 0 0 1-.5 1.2c-.2.3-.5.4-1 .5l-.2-.1v-.6h.2l.6-.4.2-.8-.8-4-1-4.8zm9.4 1.4l-.1.3h-.4c-.2 0-.3 0-.3-.2 0-.3-.2-.6-.4-.8s-.4-.3-.7-.3-.5 0-.7.3l-.4.7c0 .3.1.6.4.9l.8.7a37.4 37.4 0 0 1 1.7 1.6c.2.4.3.7.3 1.1 0 .6-.2 1-.7 1.5-.4.4-.9.5-1.4.5a2 2 0 0 1-1.5-.5 2 2 0 0 1-.6-1.5v-.3h.4c.2 0 .3 0 .4.3 0 .4.1.7.4 1s.5.3.9.3a1.3 1.3 0 0 0 1.3-1.3c0-.4-.2-.7-.5-1l-1.1-1a5 5 0 0 1-1.1-1 2 2 0 0 1-.5-1.2c0-.5.2-1 .6-1.3.3-.4.8-.6 1.3-.6s1 .2 1.3.5c.3.3.5.8.6 1.3zm1.5 3.6v-2.6c0-1 .2-1.6.6-2s.9-.8 1.5-.8a2 2 0 0 1 1.6.7c.4.5.6 1.2.6 2.1v.9l-.1.2-.2.1h-3.1v1.7c0 .5 0 1 .3 1.2.2.3.5.5 1 .5.3 0 .6-.2.8-.4.3-.3.4-.6.4-1v-.3l.3-.1h.5v.3c0 .6-.2 1-.5 1.6-.4.4-.9.6-1.6.6-.6 0-1.2-.2-1.5-.7s-.6-1.1-.6-2zm.8-3v.8h2.7v-.7c0-.6 0-1-.3-1.3-.2-.3-.6-.4-1-.4s-.7.1-1 .4c-.2.3-.3.7-.3 1.3zm12.5-5.2v10.6l-.1.2h-.7v-.5c-.4.4-.8.6-1.4.6a2 2 0 0 1-1.5-.6c-.3-.5-.5-1.2-.5-2.2v-2.5c0-1 .2-1.7.5-2.1.4-.5.9-.7 1.5-.7s1 .3 1.3.7v-3.7l.3-.1h.5v.3zm-3.4 5.3v3.2c0 1.1.4 1.7 1.3 1.7s1.2-.6 1.2-1.7V205c0-1.1-.4-1.7-1.2-1.7s-1.3.6-1.3 1.7zm5.1 2.9v-2.6c0-1 .2-1.6.6-2s.9-.8 1.6-.8a2 2 0 0 1 1.5.7c.4.5.6 1.2.6 2.1v1.1l-.3.1h-3.1v1.7c0 .5 0 1 .3 1.2.2.3.6.5 1 .5.3 0 .6-.2.9-.4l.4-1v-.3l.2-.1h.5v.3c0 .6-.1 1-.5 1.6-.3.4-.9.6-1.5.6-.7 0-1.2-.2-1.6-.7s-.6-1.1-.6-2zm.8-3v.8h2.6v-.7c0-.6 0-1-.3-1.3-.2-.3-.5-.4-1-.4-.4 0-.7.1-1 .4-.1.3-.3.7-.3 1.3zm9.8 5h.3v.6h-.3c-.6 0-1-.1-1.1-.5-.2-.3-.2-.7-.3-1v-9.6h.8v9.9c.2.3.3.5.6.5zm1.2-10c0-.1 0-.3.2-.4l.3-.1c.2 0 .4 0 .5.2v.7c0 .3-.2.6-.6 1h-.2c0-.1-.1-.2 0-.2l.2-.6-.2-.2-.2-.4zm4.4 3.4c-.7 0-1.1.4-1.2 1.4v.3h-.8v-.2c0-.6.2-1.2.5-1.6.3-.5.8-.7 1.5-.7 1.4 0 2.1 1 2.1 2.8v4l.1 1c.1.2 0 .3-.3.3h-.2l-.3-.1-.1-.4a2 2 0 0 1-1.5.5c-.6 0-1-.1-1.4-.5s-.6-1-.6-1.6v-.5c0-.5.1-.8.4-1.2l.8-.7 1-.4c.4 0 .7-.2 1-.4.2-.1.3-.3.3-.5 0-.5-.1-.8-.3-1s-.6-.5-1-.5zm.1 6.6c.4 0 .7-.2.9-.4.2-.3.3-.7.3-1.2v-2.3a9 9 0 0 1-.8.3 5 5 0 0 0-.8.3c-.8.3-1.1 1-1 1.7 0 1.1.4 1.6 1.4 1.6zm5.8.7c-.6 0-1.1-.2-1.5-.7s-.6-1.1-.6-2v-2.6c0-1 .2-1.6.6-2s.9-.8 1.5-.8c.7 0 1.3.2 1.6.7.3.5.5 1 .5 1.6v.2h-.7v-.3c-.1-.5-.2-.8-.4-1-.3-.3-.6-.4-1-.4s-.7.1-1 .4c-.2.3-.3.7-.3 1.3v3.2c0 .5.1 1 .4 1.2.2.3.5.5 1 .5.3 0 .6-.2.9-.4.2-.3.3-.6.3-1l.1-.3.2-.1h.5v.3c0 .6-.2 1-.5 1.6-.4.4-.9.6-1.6.6zm4.7-9.4v1.6c0 .1 0 .2.2.2h.5v.7h-.5c-.1 0-.2 0-.2.2v5.4c.2.3.3.5.6.5h.3v.7h-.3c-.6 0-1-.1-1.1-.5-.2-.3-.2-.7-.3-1V204c0-.1 0-.2-.2-.2h-.2v-.7h.2c.1 0 .2 0 .2-.2V201h.8v.3zm2.8.7a.5.5 0 0 1-.5-.3v-.5c.1-.2.3-.3.5-.3s.3.1.4.3v.5c0 .2-.2.3-.4.3zm.4 1v7.6h-.8v-7.9h.7v.3zm1.7 5v-2.6c0-1 .2-1.6.6-2s1-.8 1.6-.8a2 2 0 0 1 1.6.7c.3.5.5 1.2.5 2.1v2.5c0 1-.2 1.7-.5 2.1a2 2 0 0 1-1.6.7c-.7 0-1.2-.2-1.6-.7s-.5-1.1-.5-2zm3.5.3V205c0-.6-.1-1-.3-1.3-.3-.3-.6-.4-1-.4s-.7.1-1 .4c-.2.3-.3.7-.3 1.3v3.2c0 .5.1 1 .3 1.2.3.3.6.5 1 .5s.7-.2 1-.5c.2-.2.3-.7.3-1.2zm5.9 2.1V205c0-1.2-.4-1.7-1.2-1.7s-1.3.5-1.3 1.7v5.5h-.7l-.1-.2v-7.6h.8v.6c.3-.4.8-.7 1.3-.7.7 0 1.2.2 1.5.7.4.4.6 1.2.6 2.1v5l-.1.2h-.7v-.2zM231 226.6V224c0-1 .1-1.7.5-2.2s1-.6 1.6-.6a2 2 0 0 1 1.5.6c.4.5.6 1.2.6 2.2v1.1h-3.4v1.9c0 .6 0 1 .3 1.3.3.3.6.4 1 .4s.7-.1.9-.4c.2-.2.3-.6.4-1v-.3h.7v.2c0 .6-.1 1.1-.5 1.6-.3.5-.8.7-1.5.7s-1.2-.3-1.6-.7-.6-1.2-.6-2.1zm.8-2.9v.7h2.6v-.7c0-.5-.1-1-.4-1.3-.2-.2-.5-.4-1-.4-.3 0-.6.2-.9.4-.2.3-.3.8-.3 1.3zm6-3.7v1.5c0 .1 0 .2.2.2h.5v.7c0 .1-.1 0-.2 0h-.3l-.2.2v5.5c.1.3.3.4.6.4l.2.1.1.3v.3l-.3.1c-.6 0-1-.2-1.2-.6l-.2-1v-5.1l-.2-.1-.2-.1v-.6l.2-.1c.1 0 .2 0 .2-.2v-1.7l.3-.1h.4l.1.3zm7.6 9.4c-.7 0-1.2-.3-1.6-.7s-.6-1.2-.6-2.1V224c0-1 .2-1.7.6-2.2s.9-.6 1.6-.6c.7 0 1.2.2 1.5.6.4.5.5 1 .5 1.6v.2l-.2.1h-.5v-.4c0-.4-.2-.8-.4-1-.3-.3-.6-.4-1-.4s-.7.2-1 .4c-.1.3-.3.8-.3 1.3v3.2c0 .6.2 1 .4 1.3.2.3.5.4 1 .4.3 0 .6-.1.9-.4.2-.2.3-.6.4-1v-.3h.7v.2c0 .6-.1 1.1-.5 1.6-.3.5-.9.7-1.5.7zm5.8-7.4c-.8 0-1.2.5-1.3 1.4v.3l-.2.1h-.5v-.3c0-.6.1-1.1.5-1.6.3-.4.8-.6 1.5-.6 1.4 0 2 .9 2 2.8v4l.2.9c0 .2 0 .3-.3.3h-.5l-.1-.5a2 2 0 0 1-1.5.6c-.6 0-1.1-.2-1.5-.6s-.5-.9-.5-1.5v-.5c0-.5.1-.9.4-1.2.2-.3.5-.6.8-.7l1-.4.9-.4.3-.6c0-.4 0-.8-.3-1s-.5-.5-1-.5zm0 6.6c.5 0 .8-.2 1-.4.2-.2.3-.6.3-1.1v-2.4a9 9 0 0 1-.8.3 5 5 0 0 0-.8.3c-.8.4-1.1 1-1 1.7 0 1.2.4 1.7 1.4 1.6zm3.9 3.3v-10.3l.1-.2h.7v.5c.4-.4.8-.6 1.3-.6.7 0 1.2.2 1.5.6.4.5.6 1.2.6 2.2v2.5c0 1-.2 1.7-.6 2.1-.3.5-.8.7-1.5.7-.5 0-1-.3-1.2-.7v3.2l-.1.2-.3.1h-.4v-.3zm3.4-5v-3.2c0-1.1-.5-1.7-1.3-1.7s-1.2.6-1.2 1.7v3.2c0 1.1.4 1.7 1.2 1.7s1.3-.6 1.3-1.7zm3-6.3c-.2 0-.4 0-.5-.3v-.5l.5-.2c.2 0 .3 0 .4.2v.5c0 .2-.2.3-.4.3zm.4 1v7.6l-.3.1h-.5v-7.9h.7v.2zm2.7-1.6v1.5c0 .1 0 .2.2.2h.5l.1.3v.4h-.6l-.2.2v4.3l.1 1.2c0 .3.2.4.5.4l.3.1v.6l-.3.1c-.6 0-1-.2-1.1-.6-.2-.3-.2-.6-.3-1v-5.1l-.2-.1-.2-.1v-.6l.2-.1c.1 0 .2 0 .2-.2v-1.7l.3-.1h.5v.3zm4.4 2c-.8 0-1.2.5-1.3 1.4v.3l-.3.1h-.4v-.3c0-.6 0-1.1.4-1.6.3-.4.8-.6 1.6-.6 1.3 0 2 .9 2 2.8v4c0 .2 0 .5.2.9 0 .2 0 .3-.3.3h-.6v-.5a2 2 0 0 1-1.6.6c-.6 0-1-.2-1.4-.6s-.5-.9-.5-1.5v-.5c0-.5 0-1 .3-1.2.2-.3.5-.6.9-.7l1-.4.9-.4.3-.6c0-.4-.1-.8-.3-1s-.5-.5-1-.5zm0 6.6c.4 0 .7-.2 1-.4l.2-1.1v-2.4a9 9 0 0 1-.8.3 5 5 0 0 0-.7.3c-.8.4-1.2 1-1.1 1.7 0 1.2.5 1.7 1.4 1.6zm5.2-.1l.3.1v.6l-.3.1c-.6 0-1-.2-1.1-.6-.2-.3-.2-.6-.3-1v-9.5h.8v8.7l.1 1.2c0 .3.2.4.5.4zm2.2-7.9c-.2 0-.4 0-.4-.3v-.5l.4-.2c.2 0 .3 0 .4.2v.5c0 .2-.2.3-.4.3zm.4 1v7.6l-.3.1h-.5v-7.9h.7l.1.2zm5.4 1.4v.3l-.3.1h-.1c-.2 0-.3-.1-.3-.3 0-.3-.2-.5-.4-.8s-.4-.3-.7-.3-.5.1-.8.3-.3.5-.3.8c0 .3.1.5.4.8l.8.8a37.4 37.4 0 0 1 1.7 1.6c.2.3.3.7.3 1 0 .6-.2 1.1-.7 1.5a2 2 0 0 1-1.4.6 2 2 0 0 1-1.5-.6 2 2 0 0 1-.7-1.5l.1-.2h.4c.2 0 .3 0 .3.2 0 .4.2.7.5 1s.5.3.9.3a1.3 1.3 0 0 0 1.3-1.3c0-.3-.2-.7-.5-1l-1.1-1a5 5 0 0 1-1.1-1 2 2 0 0 1-.5-1.2c0-.5.2-1 .5-1.3.4-.4.8-.5 1.4-.5s1 .1 1.3.5c.3.3.5.7.5 1.3zm3.8-1c-.8 0-1.2.5-1.3 1.4v.3l-.3.1h-.5v-.3c0-.6.2-1.1.5-1.6.3-.4.8-.6 1.5-.6 1.4 0 2.1.9 2.1 2.8v4c0 .2 0 .5.2.9 0 .2-.1.3-.4.3h-.5v-.5a2 2 0 0 1-1.6.6c-.6 0-1-.2-1.4-.6s-.6-.9-.6-1.5v-.5c0-.5.2-1 .4-1.2.2-.3.5-.6.8-.7l1-.4 1-.4.3-.6c0-.4-.1-.8-.3-1s-.6-.5-1-.5zm0 6.6c.4 0 .7-.2.9-.4.2-.2.3-.6.3-1.1v-2.4a9 9 0 0 1-.8.3 5 5 0 0 0-.8.3c-.8.4-1.1 1-1 1.7 0 1.2.5 1.7 1.4 1.6zm4.7-8.6v1.5c0 .1 0 .2.2.2h.5v.7h-.5c-.2 0-.2.1-.2.2v5.5c.1.3.3.4.6.4l.2.1v.6l-.2.1c-.6 0-1-.2-1.2-.6l-.2-1v-5.1l-.2-.1-.2-.1-.1-.3v-.3l.3-.1c.1 0 .2 0 .2-.2v-1.7l.3-.1h.4v.3zm2.7.6c-.2 0-.3 0-.4-.3v-.5l.4-.2c.2 0 .4 0 .5.2v.5c0 .2-.2.3-.5.3zm.5 1v7.4l-.1.2-.3.1h-.4v-7.9h.7v.2zm1.7 5V224c0-1 .2-1.7.6-2.2s1-.6 1.6-.6a2 2 0 0 1 1.5.6c.4.5.6 1.2.6 2.2v2.5c0 1-.2 1.6-.6 2a2 2 0 0 1-1.5.8c-.7 0-1.2-.3-1.6-.7s-.6-1.2-.6-2.1zm3.5.3v-3.2c0-.5-.1-1-.4-1.3-.2-.2-.5-.4-1-.4-.3 0-.7.2-.9.4-.2.3-.3.8-.3 1.3v3.2c0 .6 0 1 .3 1.3.2.3.6.4 1 .4s.7-.1 1-.4c.2-.3.3-.7.3-1.3zm5.9 2.1v-5.3c0-1.1-.4-1.7-1.2-1.7s-1.3.6-1.3 1.7v5.5l-.3.1h-.5v-7.9h.7l.1.2v.3c.3-.4.7-.6 1.3-.6a2 2 0 0 1 1.5.6c.3.5.5 1.2.5 2.2v5.1l-.3.1h-.4l-.1-.3zm-68.9 9v9.8c.2.5.6.8 1.2.9h.3v.7h-.3c-.7 0-1.2-.2-1.5-.6-.4-.5-.5-1.1-.5-2V238c0-.9.1-1.6.5-2 .3-.4.8-.6 1.5-.7l.3.1v.6l-.3.1c-.4 0-.7.2-1 .5l-.1.4-.1 1zm7.8 1.4v5.9c0 .9-.2 1.6-.7 2-.4.5-1 .7-1.7.7-.8 0-1.3-.2-1.8-.7-.4-.4-.6-1.1-.6-2v-5.9c0-.9.2-1.6.6-2 .5-.5 1-.7 1.8-.7.7 0 1.3.2 1.7.7.5.4.7 1.1.7 2zm-.9 6v-6c0-.7-.1-1.1-.4-1.5-.3-.3-.7-.4-1.1-.4-.5 0-.9.1-1.2.4-.2.4-.4.8-.4 1.4v6c0 .7.2 1.2.4 1.5.3.3.7.5 1.2.5.4 0 .8-.2 1.1-.5.3-.3.4-.8.4-1.4zm2.6 5.1v-10.2l.1-.3h.7v.6c.4-.5.8-.7 1.4-.7.6 0 1 .2 1.5.7.3.4.5 1.1.5 2.1v2.5c0 1-.2 1.7-.5 2.2-.4.4-1 .6-1.5.6-.6 0-1-.2-1.3-.7v3.2l-.1.3h-.7v-.3zm3.4-5v-3.1c0-1.2-.4-1.7-1.3-1.7s-1.2.5-1.2 1.7v3.1c0 1.2.4 1.8 1.2 1.8s1.3-.6 1.3-1.8zm2.4-.3v-2.5c0-1 .2-1.6.6-2.1s.9-.7 1.5-.7a2 2 0 0 1 1.6.7c.4.5.6 1.2.6 2.1v1.1h-3.2l-.3.1v1.6c0 .6 0 1 .3 1.3.2.3.5.5 1 .5.3 0 .6-.2.9-.4.2-.3.3-.6.3-1l.1-.4h.7v.3c0 .5-.2 1-.5 1.5s-.9.7-1.6.7c-.6 0-1.1-.2-1.5-.7s-.6-1.1-.6-2zm.8-2.8v.7h2.6v-.7c0-.6 0-1-.3-1.3-.2-.3-.6-.4-1-.4s-.7.1-1 .4c-.2.3-.3.7-.3 1.3zm1.4-3.2c-.2 0-.2 0-.2-.2v-1.8h.8v.3l-.3 1.4-.1.2h-.2zm5.9 1.7l-.4-.1c-.4 0-.6.2-.7.5l-.1 1.1v5.5h-.8V240h.7v.5c.4-.4.8-.5 1.2-.5h.3v.8s-.1.1-.2 0zm3.3-.2c-.7 0-1.2.4-1.2 1.4l-.1.3h-.7v-.3c0-.5.1-1 .5-1.5.3-.5.8-.7 1.5-.7 1.4 0 2.1 1 2.1 2.8v4l.1 1c0 .2 0 .3-.3.3h-.3l-.2-.1-.1-.5a2 2 0 0 1-1.5.6c-.6 0-1-.2-1.4-.5s-.6-1-.6-1.6v-.5c0-.5.1-.9.4-1.2l.8-.7 1-.4c.4 0 .7-.2 1-.4.1-.1.3-.3.3-.6 0-.4-.1-.7-.4-1s-.5-.4-.9-.4zm.1 6.6c.4 0 .7-.2.9-.5.2-.2.3-.6.3-1.1v-2.4a9 9 0 0 1-.8.3 5 5 0 0 0-.8.3c-.8.4-1.1 1-1 1.8 0 1.1.4 1.6 1.4 1.6zm4.7-8.7v1.6l.1.1h.3l.3.1v.6l-.3.1h-.3l-.1.2v5.4c.1.3.3.5.6.5h.2v.7h-.2c-.6 0-1-.2-1.2-.6l-.2-1v-5l-.2-.2h-.3v-.7h.3l.1-.2v-1.6l.1-.3h.7v.3zm2.7.6c-.2 0-.3 0-.4-.2v-.5c0-.2.2-.3.4-.3s.4.1.5.3v.5c-.1.2-.3.2-.5.2zm.4 1v7.7h-.7V240h.7v.3zm1.8 5v-2.5c0-1 .2-1.6.6-2.1s.9-.7 1.5-.7a2 2 0 0 1 1.6.7c.4.5.6 1.2.6 2.1v2.5c0 1-.2 1.7-.6 2.1a2 2 0 0 1-1.6.7c-.6 0-1.1-.2-1.5-.7s-.6-1.1-.6-2zm3.5.3v-3.1c0-.6-.2-1-.4-1.3-.2-.3-.5-.4-1-.4-.4 0-.7.1-1 .4-.1.3-.3.7-.3 1.3v3.1c0 .6.2 1 .4 1.3.2.3.5.5 1 .5.4 0 .7-.2 1-.5.1-.3.3-.7.3-1.3zm5.9 2.1v-5.2c0-1.2-.4-1.7-1.3-1.7s-1.2.5-1.2 1.7v5.5h-.8V240h.7v.6c.4-.5.8-.7 1.4-.7.6 0 1.1.2 1.5.7.3.4.5 1.1.5 2.1v5.2h-.7l-.1-.3zm6 0v-5.2c0-1.2-.4-1.7-1.3-1.7s-1.2.5-1.2 1.7v5.5h-.8V240h.7v.6c.4-.5.8-.7 1.4-.7.6 0 1.1.2 1.5.7.3.4.5 1.1.5 2.1v5.2h-.7l-.1-.3zm2.5-2.4v-2.5c0-1 .2-1.6.6-2.1s.9-.7 1.5-.7a2 2 0 0 1 1.6.7c.4.5.6 1.2.6 2.1v1.1h-3.3l-.2.1v1.6c0 .6 0 1 .3 1.3.2.3.5.5 1 .5.3 0 .6-.2.8-.4.3-.3.4-.6.4-1l.1-.4h.7v.3c0 .5-.2 1-.5 1.5-.4.5-.9.7-1.6.7-.6 0-1.1-.2-1.5-.7s-.6-1.1-.6-2zm.8-2.8v.7h2.7v-.7c0-.6 0-1-.3-1.3-.2-.3-.6-.4-1-.4s-.7.1-1 .4c-.2.3-.3.7-.3 1.3zm6.6 4.8h.2v.7h-.2c-.6 0-1-.2-1.2-.6l-.2-1v-9.5h.7v8.7l.2 1.2c0 .3.2.5.5.5zm2.9-.4V237c-.1-.5-.5-.8-1.2-.9h-.2v-.7h.2c.7 0 1.2.2 1.6.6.3.4.5 1.1.5 2v8.8c0 .9-.2 1.5-.5 2-.4.4-.9.6-1.6.6h-.2v-.6l.2-.1c.4 0 .8-.2 1-.5l.2-.5v-.9z"/><path fill="#FFF" d="M263.7 188.7l1.7-.2c0 .4.2.8.5 1 .2.2.5.4.8.4.4 0 .7-.2 1-.5.2-.2.3-.6.3-1 0-.5-.1-.9-.3-1.1-.3-.3-.6-.4-1-.4a3 3 0 0 0-.7.1l.2-1.4c.5 0 .8-.1 1-.3.3-.2.4-.5.4-.9 0-.3 0-.6-.2-.7a1 1 0 0 0-.8-.3 1 1 0 0 0-.7.3c-.3.2-.4.5-.4 1l-1.6-.4c0-.5.2-1 .5-1.3a2 2 0 0 1 1-.8c.3-.2.8-.3 1.3-.3.8 0 1.5.3 2 .9.5.4.7 1 .7 1.5 0 .8-.4 1.4-1.3 2 .5 0 1 .3 1.3.7s.4.8.4 1.4c0 .8-.3 1.5-.9 2s-1.3 1-2.2 1a3 3 0 0 1-2-.8c-.6-.5-.9-1.1-1-1.9z"/><defs><path id="a" d="M53.6 297.7v-.2h-.2l.4-.7v.7l-.1.2h-.1z"/></defs><clipPath id="b"><use overflow="visible" xlink:href="#a"/></clipPath><path fill="#232323" d="M84.3 271.6l7 4.6a20 20 0 0 0-8.4-3c-3.2-.5-6.4-.2-9.5.8a26 26 0 0 0-8.4 4.4 29.9 29.9 0 0 0-9.5 34.2c1.2 2.5 2.7 4.8 4.7 6.7 1.9 1.9 4.2 3.4 6.8 4.4l-7.8-3a21.7 21.7 0 0 1-11.7-11.5 26 26 0 0 1-2.1-8.5 32 32 0 0 1 12-26.7 28 28 0 0 1 8.5-4.6 23 23 0 0 1 14.3.2 20.5 20.5 0 0 1 4 2" clip-path="url(#b)"/><defs><path id="c" d="M55.3 312a19.8 19.8 0 0 0 1 2.2l-8-3.3a14.8 14.8 0 0 1-.5-.9c0-.1 0-.3-.2-.4 0-.1 0-.3-.2-.4.5 0 .9.2 1.3.3l-1.3-.3v-.1a4.4 4.4 0 0 1-.1-.3l4.6 1.9-2.9-.7 2 .5.8.1h.1l3.4 1.5z"/></defs><clipPath id="d"><use overflow="visible" xlink:href="#c"/></clipPath><path fill="#232323" d="M84.3 271.6l7 4.6a20 20 0 0 0-8.4-3c-3.2-.5-6.4-.2-9.5.8a26 26 0 0 0-8.4 4.4 29.9 29.9 0 0 0-9.5 34.2c1.2 2.5 2.7 4.8 4.7 6.7 1.9 1.9 4.2 3.4 6.8 4.4l-7.8-3a21.7 21.7 0 0 1-11.7-11.5 26 26 0 0 1-2.1-8.5 32 32 0 0 1 12-26.7 28 28 0 0 1 8.5-4.6 23 23 0 0 1 14.3.2 20.5 20.5 0 0 1 4 2" clip-path="url(#d)"/><defs><path id="e" d="M67 323.7l-4.9-1.9a63.6 63.6 0 0 1-6.6-3 20.3 20.3 0 0 1-7.2-8l8 3.4a22.1 22.1 0 0 0 7.4 7.9 20 20 0 0 0 3.3 1.6z"/></defs><clipPath id="f"><use overflow="visible" xlink:href="#e"/></clipPath><path fill="#232323" d="M84.3 271.6l7 4.6a20 20 0 0 0-8.4-3c-3.2-.5-6.4-.2-9.5.8a26 26 0 0 0-8.4 4.4 29.9 29.9 0 0 0-9.5 34.2c1.2 2.5 2.7 4.8 4.7 6.7 1.9 1.9 4.2 3.4 6.8 4.4l-7.8-3a21.7 21.7 0 0 1-11.7-11.5 26 26 0 0 1-2.1-8.5 32 32 0 0 1 12-26.7 28 28 0 0 1 8.5-4.6 23 23 0 0 1 14.3.2 20.5 20.5 0 0 1 4 2" clip-path="url(#f)"/><defs><path id="g" d="M55.3 312c-2.7-1-5.4-2.2-8-3.3a13.3 13.3 0 0 1-.7-1.8v-.2l-.1-.1v-.1l1 .4-1-.4a24.4 24.4 0 0 1-1.2-6l2.9 1.3-2.9-1.3a29.6 29.6 0 0 1 .9-9.2l.1-.7a22 22 0 0 1 .6-2l3.2 1.6 1 .5-1-.5-3.2-1.5a32 32 0 0 1 11.4-15.4 24 24 0 0 1 8.2-4 22.8 22.8 0 0 1 15.8 1.2l2 1.2 7 4.5a20.1 20.1 0 0 0-8.4-3c-3.2-.5-6.3-.2-9.3.7a29.7 29.7 0 0 0-19.2 20.5l.2-1.8-.2 1.8v.2l-.1.2v.2l-.1.1-.1.5-.1.4v.4l-.2.4-.4.6-.5-1.4-.4-.5c-.2-.2-.5-.5-.8-.6l-.5-.1a8 8 0 0 0-1-.1h-1.4l-1.5.1h1.5c.5-.1 1.2-.2 1.5-.1h1l.4.2.8.6.4.5.5 1.4v.1h.1v.2l-2.7-1.3 2.8 1.3v.1a28.8 28.8 0 0 0 .6 11l1.1 3.3zm-2-14.5l-.2-.1-.1-.1h-.2l-.2-.1-.1-.1h-.2l-.1-.1-.2-.1h-.2l-.1-.1-.2-.1h-.1l-.2-.1-.1-.1h-.2.3l.2.1h.1l.2.2h.3l.2.2h.1l.2.1h.1l.2.1h.2l.1.2h.2m-6.9-2.8v.1l-.1.1v.2h-.1l-.1.2v.1l-.1.2-.1.1v.1l-.1.2h-.1v.2l-.1.1-.1.2-.1.2v-.1l.1-.1v-.2h.1v-.2l.2-.1v-.3l.2-.1v-.2l.2-.2v-.3h.2v-.2m-.7 2.1l.2.1.2.1.2.1.2.1.2.1.2.1.3.1.2.1.2.1.2.1.2.1.3.1.2.1.2.1.2.1h.2-.4l-.2-.2h-.2l-.3-.2h-.2l-.2-.2h-.2l-.2-.2-.3-.1-.2-.1-.2-.1-.2-.1-.2-.1h-.2l-.2-.2m3.4 1.6l.3.1.2.1.2.2h.2l.3.2.2.1.3.1.2.2h.3l.2.2.2.1.3.2h.2l.2.2h.3l.2.2-.2-.1-.3-.1-.2-.1-.2-.1-.3-.2h-.2l-.2-.2-.3-.1-.2-.2h-.3l-.2-.2-.3-.1-.2-.1-.2-.2h-.2l-.3-.2m3.8 2v.1l-.1.2v.4l-.1.2v.3l-.1.2v.4l-.1.1v-.4l.1-.1v-.5l.1-.2v-.4l.1-.2v-.2m-.3 2l-.2-.1-.3-.1-.2-.1-.3-.1-.3-.1-.2-.2h-.3l-.3-.2h-.3l-.2-.2-.3-.1-.3-.1-.3-.1-.2-.1-.3-.1-.2-.1h.2l.3.2h.2l.3.2.3.1.3.1.2.1.3.1.3.1.3.1.2.2h.3l.3.2h.2l.3.2h.2m-2-.6l-.1.1-.1.1v.1h-.1v.1l-.1.2H50v.1h-.1l-.1.1h.1v-.1h.1v-.1l.1-.1.1-.1v-.1l.1-.1v-.1h.1v-.1h.1-.2l-.1-.1-.2-.1-.2-.1-.1-.1h-.2l-.1-.1-.2-.1H49l-.2-.1-.1-.1h-.2l-.1-.1-.2-.1h.2l.1.1h.2l.1.2h.3l.2.2h.1l.2.1h.1l.2.1.1.1h.2l.1.1h.2"/></defs><clipPath id="h"><use overflow="visible" xlink:href="#g"/></clipPath><path fill="#232323" d="M84.3 271.6l7 4.6a20 20 0 0 0-8.4-3c-3.2-.5-6.4-.2-9.5.8a26 26 0 0 0-8.4 4.4 29.9 29.9 0 0 0-9.5 34.2c1.2 2.5 2.7 4.8 4.7 6.7 1.9 1.9 4.2 3.4 6.8 4.4l-7.8-3a21.7 21.7 0 0 1-11.7-11.5 26 26 0 0 1-2.1-8.5 32 32 0 0 1 12-26.7 28 28 0 0 1 8.5-4.6 23 23 0 0 1 14.3.2 20.5 20.5 0 0 1 4 2" clip-path="url(#h)"/><defs><path id="i" d="M63.5 313a15.3 15.3 0 0 0 5.6 4l-7.8-3.2a15.3 15.3 0 0 1-5.5-3.9l.5.2.4.2-.4-.2-.5-.2a16.2 16.2 0 0 1-3.1-5.1l-.7-2a19.9 19.9 0 0 1-.5-7.8 22.3 22.3 0 0 1 3.7-10.1 21.3 21.3 0 0 1 11.6-9 17 17 0 0 1 11.8.7l1.3.8 7.3 4.4a14.9 14.9 0 0 0-5.9-2 15 15 0 0 0-7 .5c-2.3.6-4.4 1.8-6.3 3.2a22 22 0 0 0-8 22.9 58.6 58.6 0 0 0-1.5-2.1 8.1 8.1 0 0 0-2.8-2.2l-1.8-.7 1.8.7a7 7 0 0 1 2.8 2.2 12.7 12.7 0 0 1 1.5 2 17.9 17.9 0 0 0 3.5 6.7l-1.7-.7 1.7.7zm-2.8-1.1l-.2-.1-.2-.1-.3-.1-.2-.1-.3-.1-.2-.1-.3-.1-.3-.1-.2-.1-.3-.1-.3-.1-.2-.1-.3-.1-.2-.1-.3-.1-.2-.1h.2l.3.2h.2l.3.2h.2l.3.2h.3l.2.2h.3l.3.2h.2l.3.2h.2l.3.2h.2l.2.2"/></defs><clipPath id="j"><use overflow="visible" xlink:href="#i"/></clipPath><path fill="#3A3A3A" d="M80 277.4l7.1 4.4a15 15 0 0 0-5.8-2 15 15 0 0 0-7 .5c-2.3.7-4.4 1.8-6.3 3.2a22 22 0 0 0-7.2 25.3c.9 1.9 2 3.5 3.4 5A15 15 0 0 0 69 317l-7.8-3.3c-2-.8-3.6-2-5-3.4a16.7 16.7 0 0 1-3.4-5 22 22 0 0 1-.9-13.1 23.7 23.7 0 0 1 8.3-13c2-1.5 4.2-2.7 6.5-3.4a17 17 0 0 1 11.8.7l1.3.8" clip-path="url(#j)"/><defs><path id="k" d="M65.7 297c-.4 1.5-.5 2.9-.4 4.3.1 1.4.5 2.7 1 3.9a9.8 9.8 0 0 0 5.2 5.4l-7.8-3.5a10 10 0 0 1-3.1-2.3c-.9-.9-1.6-2-2.1-3.2-.5-1.3-.9-2.6-1-4 0-1.5 0-3 .4-4.5l1 .5 6.8 3.4z"/></defs><clipPath id="l"><use overflow="visible" xlink:href="#k"/></clipPath><path fill="#232323" d="M76 283.3l7.3 4.2a10.4 10.4 0 0 0-3.6-1.2c-1.5-.2-3 0-4.5.4s-3 1.1-4.2 2a14.3 14.3 0 0 0-5.3 8.3c-.4 1.5-.5 2.9-.4 4.3.1 1.4.5 2.7 1 3.9a9.8 9.8 0 0 0 5.2 5.4l-7.8-3.5a10 10 0 0 1-3.1-2.3c-.9-.9-1.6-2-2.1-3.2-.5-1.3-.9-2.6-1-4 0-1.5 0-3 .4-4.5a15.5 15.5 0 0 1 5.5-8.4c1.3-1 2.7-1.8 4.2-2.2a11 11 0 0 1 7.5.4l.8.4" clip-path="url(#l)"/><defs><path id="m" d="M79.7 286.3a12.2 12.2 0 0 0-8.7 2.4 14.3 14.3 0 0 0-5.3 8.3l-3.8-2-4-1.9a15.5 15.5 0 0 1 5.5-8.4c1.3-1 2.7-1.8 4.2-2.2a11 11 0 0 1 7.5.4l.8.4 7.4 4.2a10 10 0 0 0-3.6-1.2zM67 288.1h.2v-.1h.1l.1-.1h.1-.2v.1H67v.1m-1.5-1.3h.3v.1l.2.1h.1l.2.2h.2l.1.2h.2l.1.1h.1l.1.1.2.1.2.1h-.1l-.1-.1H67v-.1l-.2-.1h-.1l-.2-.1v-.1h-.2l-.1-.1-.2-.1-.2-.2h-.2v-.1m-.1 0l-.1.1v.1h-.1v.2l.1.1.1.1h.1l.1.1h.2v.1l.2.1.2.1h.1l.1.1.1.1h.1l.1.1h.1-.2v-.1h-.2v-.1h-.2l-.1-.1-.1-.1H66l-.1-.1h-.2v-.1l-.2-.1-.2-.1v-.3h.1v-.2m-6 4.3l-.2.1v.2H59v.2l-.2.1v.2h-.1l-.1.2v.2h-.2v.2l-.1.2-.1.2v.1l-.2.2.5.2.4.2.5.2.5.3.4.2.5.2.5.3.5.2.5.2.5.3.4.2.5.2.4.2.5.3.4.2.4.2-.4-.2-.4-.2-.5-.3-.4-.2-.5-.2-.4-.2-.5-.3-.5-.2-.5-.2-.5-.3-.5-.2-.4-.2-.5-.3-.5-.2-.4-.2-.5-.2.1-.2.1-.2.1-.1v-.2l.1-.1.1-.1v-.2l.2-.1v-.1l.1-.2.1-.1v-.1l.2-.1v-.2h.1l.4.1.5.2.4.3.5.2.4.2.5.2.4.2.5.2.5.3.4.2.5.2.4.2.5.2.4.2.4.2.4.2-.4-.2-.4-.2-.4-.2-.5-.2-.4-.2-.5-.2-.4-.2-.5-.3-.5-.2-.4-.2-.5-.2-.4-.2-.5-.2-.4-.3-.5-.2-.4-.2m7.1 3.4v.1l-.1.2v.1l-.1.2-.1.1v.1l-.1.2v.1l-.1.2-.1.1v.2l-.1.1v.2l-.1.1v.3-.6l.1-.1.1-.2v-.1l.1-.2v-.1l.1-.2v-.1l.2-.1v-.3l.1-.2h.1"/></defs><clipPath id="n"><use overflow="visible" xlink:href="#m"/></clipPath><path fill="#232323" d="M76 283.3l7.3 4.2a10.4 10.4 0 0 0-3.6-1.2c-1.5-.2-3 0-4.5.4s-3 1.1-4.2 2a14.3 14.3 0 0 0-5.3 8.3c-.4 1.5-.5 2.9-.4 4.3.1 1.4.5 2.7 1 3.9a9.8 9.8 0 0 0 5.2 5.4l-7.8-3.5a10 10 0 0 1-3.1-2.3c-.9-.9-1.6-2-2.1-3.2-.5-1.3-.9-2.6-1-4 0-1.5 0-3 .4-4.5a15.5 15.5 0 0 1 5.5-8.4c1.3-1 2.7-1.8 4.2-2.2a11 11 0 0 1 7.5.4l.8.4" clip-path="url(#n)"/><defs><path id="o" d="M72.2 289.4a27038 27038 0 0 0 6.4 3.6 5 5 0 0 0-2.6 0l-2 1a6.7 6.7 0 0 0-2.4 4 6.5 6.5 0 0 0 .2 3.7l1 1.5 1.3 1-.3-.2-7.3-3.5c-.5-.2-1-.6-1.4-1l-1-1.5c-.2-.6-.3-1.2-.3-1.9l.1-2a7.2 7.2 0 0 1 2.6-4c.6-.5 1.3-.8 2-1a5.1 5.1 0 0 1 3.4.1l.3.2z"/></defs><clipPath id="p"><use overflow="visible" xlink:href="#o"/></clipPath><path fill="#3A3A3A" d="M72.2 289.4l7.5 4a5.4 5.4 0 0 0-1.1-.4 5 5 0 0 0-2.6 0l-2 1a6.7 6.7 0 0 0-2.4 4 6.5 6.5 0 0 0 .2 3.7l1 1.5 1.3 1-7.6-3.7c-.5-.2-1-.6-1.4-1l-1-1.5c-.2-.6-.3-1.2-.3-1.9l.1-2a7.2 7.2 0 0 1 2.6-4c.6-.5 1.3-.8 2-1a5.1 5.1 0 0 1 3.4.1l.3.2" clip-path="url(#p)"/><defs><path id="q" d="M55.5 318.8a104 104 0 0 0 7 3.2l-3.3-1.3a21 21 0 0 1-3.7-1.9z"/></defs><clipPath id="r"><use overflow="visible" xlink:href="#q"/></clipPath><path fill="#232323" d="M84.3 271.6l7 4.6a20 20 0 0 0-8.4-3c-3.2-.5-6.4-.2-9.5.8a26 26 0 0 0-8.4 4.4 29.9 29.9 0 0 0-9.5 34.2c1.2 2.5 2.7 4.8 4.7 6.7 1.9 1.9 4.2 3.4 6.8 4.4l-7.8-3a21.7 21.7 0 0 1-11.7-11.5 26 26 0 0 1-2.1-8.5 32 32 0 0 1 12-26.7 28 28 0 0 1 8.5-4.6 23 23 0 0 1 14.3.2 20.5 20.5 0 0 1 4 2" clip-path="url(#r)"/><defs><path id="s" d="M72.2 289.4l7.5 4 1.3 1 .8 1.5c.3.6.4 1.2.4 1.8a6.5 6.5 0 0 1-1 4.1c-.5.7-1 1.2-1.7 1.7-.6.5-1.2.8-2 1a5 5 0 0 1-3.3-.3 10633.7 10633.7 0 0 1-6.4-3.3 4 4 0 0 0 2.2-.1 6 6 0 0 0 2-1 7 7 0 0 0 2.4-7.8 5.1 5.1 0 0 0-2.2-2.6z"/></defs><clipPath id="t"><use overflow="visible" xlink:href="#s"/></clipPath><path fill="#232323" d="M72.2 289.4l7.5 4 1.3 1 .8 1.5c.3.6.4 1.2.4 1.8a6.5 6.5 0 0 1-1 4.1c-.5.7-1 1.2-1.7 1.7-.6.5-1.2.8-2 1a5 5 0 0 1-3.3-.3l-7.7-3.7a3.7 3.7 0 0 0 .7.3 4 4 0 0 0 .6.1 4 4 0 0 0 2.2-.1 6 6 0 0 0 2-1 7 7 0 0 0 2.4-7.8 5.1 5.1 0 0 0-2.2-2.6" clip-path="url(#t)"/><radialGradient id="u" cx="69.3" cy="294.9" r="19.9" gradientUnits="userSpaceOnUse"><stop offset="0" stop-color="#5dc1f9"/><stop offset="1" stop-color="#06a4ea"/></radialGradient><path fill="url(#u)" d="M70.7 289a4.6 4.6 0 0 1 3.4 2.2c.3.7.6 1.4.7 2.1.1.8 0 1.6-.1 2.5a7.2 7.2 0 0 1-2.6 4l-2 1a6 6 0 0 1-2.3.1 4.6 4.6 0 0 1-3.3-2.3c-.4-.7-.6-1.4-.7-2.1-.1-.8 0-1.6.1-2.4a7.2 7.2 0 0 1 2.6-4c.6-.5 1.3-.8 2-1 .7-.2 1.5-.3 2.2-.2z"/><defs><path id="v" d="M76 283.3l7.3 4.2a11 11 0 0 1 4.5 5.3 13.9 13.9 0 0 1 .5 7.7 14.8 14.8 0 0 1-5.6 8.5c-1.3 1-2.7 1.7-4.2 2a10.7 10.7 0 0 1-7-.4l-7.8-3.5a8.8 8.8 0 0 0 2.5.7c1.6.3 3.2.2 4.7-.2a13 13 0 0 0 4.4-2.2 15 15 0 0 0 5.2-16.6 11 11 0 0 0-4.6-5.5z"/></defs><clipPath id="w"><use overflow="visible" xlink:href="#v"/></clipPath><path fill="#3A3A3A" d="M76 283.3l7.3 4.2a11 11 0 0 1 4.5 5.3 13.9 13.9 0 0 1 .5 7.7 14.8 14.8 0 0 1-5.6 8.5c-1.3 1-2.7 1.7-4.2 2a10.7 10.7 0 0 1-7-.4l-7.8-3.5a8.8 8.8 0 0 0 2.5.7c1.6.3 3.2.2 4.7-.2a13 13 0 0 0 4.4-2.2 15 15 0 0 0 5.2-16.6 11 11 0 0 0-4.6-5.5" clip-path="url(#w)"/><path fill="#EDEDED" d="M72.3 282a10 10 0 0 1 7.3 5 12 12 0 0 1 1.6 4.5 15.5 15.5 0 0 1-5.9 13.9 13 13 0 0 1-4.4 2.2c-1.5.4-3.1.5-4.7.2a9.9 9.9 0 0 1-7.2-5.1 13.2 13.2 0 0 1-1.1-9.5 15.5 15.5 0 0 1 5.5-8.5c1.3-1 2.7-1.8 4.2-2.2a11 11 0 0 1 4.7-.4zm-4.5 19c.8 0 1.5 0 2.2-.2a6 6 0 0 0 2-1 7 7 0 0 0 2.8-6.5c-.1-.7-.4-1.4-.7-2-.4-.7-.8-1.2-1.4-1.6a5 5 0 0 0-2-.8c-.7-.1-1.5 0-2.2.2-.7.2-1.4.5-2 1a7 7 0 0 0-2.7 6.4c0 .7.3 1.4.7 2 .3.7.8 1.2 1.4 1.6a4 4 0 0 0 2 .8"/><defs><path id="x" d="M80 277.4l7.1 4.4c1.5.9 2.9 2 4 3.4a19 19 0 0 1 3.8 10.2 22.7 22.7 0 0 1-9 19.1c-2 1.5-4.2 2.6-6.5 3.2a16.4 16.4 0 0 1-10.3-.6l-7.8-3.3a17.8 17.8 0 0 0 3.2 1c2.4.4 5 .3 7.3-.3a20 20 0 0 0 6.8-3.4 22.9 22.9 0 0 0 8.7-13.4 22.1 22.1 0 0 0-.6-12c-.7-1.8-1.6-3.4-2.8-4.8a15.5 15.5 0 0 0-4-3.5z"/></defs><clipPath id="y"><use overflow="visible" xlink:href="#x"/></clipPath><path fill="#232323" d="M80 277.4l7.1 4.4c1.5.9 2.9 2 4 3.4a19 19 0 0 1 3.8 10.2 22.7 22.7 0 0 1-9 19.1c-2 1.5-4.2 2.6-6.5 3.2a16.4 16.4 0 0 1-10.3-.6l-7.8-3.3a17.8 17.8 0 0 0 3.2 1c2.4.4 5 .3 7.3-.3a20 20 0 0 0 6.8-3.4 22.9 22.9 0 0 0 8.7-13.4 22.1 22.1 0 0 0-.6-12c-.7-1.8-1.6-3.4-2.8-4.8a15.5 15.5 0 0 0-4-3.5" clip-path="url(#y)"/><defs><path id="z" d="M84.3 271.6a2031.7 2031.7 0 0 0 7 4.6 23 23 0 0 1 8.5 10.9c1 2.3 1.4 4.8 1.6 7.4a30.5 30.5 0 0 1-12.2 25.7 26 26 0 0 1-9 4.3 22 22 0 0 1-13.2-.8 12723.8 12723.8 0 0 0-5.1-2.2l1 .2c3.2.7 6.6.5 9.8-.3 3.2-.9 6.4-2.4 9.2-4.5a30.8 30.8 0 0 0 11.8-18.2 29.9 29.9 0 0 0-.7-16 22 22 0 0 0-3.6-6.3 21 21 0 0 0-5.1-4.8z"/></defs><clipPath id="A"><use overflow="visible" xlink:href="#z"/></clipPath><path fill="#3A3A3A" d="M84.3 271.6l7 4.6a23 23 0 0 1 8.5 10.9c1 2.3 1.4 4.8 1.6 7.4a30.5 30.5 0 0 1-12.2 25.7 26 26 0 0 1-9 4.3 22 22 0 0 1-13.2-.8l-7.8-3a17.8 17.8 0 0 0 3.6 1c3.3.7 6.7.5 10-.3a30.8 30.8 0 0 0 21-22.6 29.9 29.9 0 0 0-.8-16c-.9-2.4-2-4.5-3.6-6.4a21 21 0 0 0-5.1-4.8" clip-path="url(#A)"/><path fill="#EDEDED" d="M75.6 268.5a20.6 20.6 0 0 1 15.3 10 25 25 0 0 1 3.3 9.3A32 32 0 0 1 82 317c-2.8 2.1-6 3.6-9.2 4.5a22 22 0 0 1-9.9.3A20.4 20.4 0 0 1 48.3 311a25.4 25.4 0 0 1-2.8-9.2A32 32 0 0 1 57.3 274c2.6-2 5.6-3.6 8.6-4.6a23 23 0 0 1 9.7-.9zm-11 46.3c2.3.4 4.8.3 7.2-.4a20 20 0 0 0 6.8-3.3 22.9 22.9 0 0 0 8.7-13.4c.6-2.8.7-5.5.4-8-.4-2.6-1.2-4.9-2.5-7a15.2 15.2 0 0 0-11.3-7.5 17 17 0 0 0-7.1.7c-2.3.7-4.5 1.9-6.5 3.4a23 23 0 0 0-8.8 20.7 17.3 17.3 0 0 0 6.6 12c1.8 1.4 4 2.3 6.4 2.8"/><radialGradient id="B" cx="70.3" cy="295.5" r="42.2" gradientTransform="matrix(1 0 0 1.0642 0 -19)" gradientUnits="userSpaceOnUse"><stop offset="0" stop-color="#5dc1f9"/><stop offset="1" stop-color="#06a4ea"/></radialGradient><path fill="url(#B)" d="M77.4 261a26.5 26.5 0 0 1 19.9 12.6 32 32 0 0 1 4.4 12 41.2 41.2 0 0 1-16 37.9 34.5 34.5 0 0 1-12 5.7 29 29 0 0 1-12.7.4 26.4 26.4 0 0 1-18.7-14.2 33 33 0 0 1-3.6-11.8A41.2 41.2 0 0 1 54 268.2c3.4-2.7 7.2-4.8 11.1-6a29 29 0 0 1 12.4-1.3zm-14.6 60.7c3.3.7 6.7.5 10-.3a30.9 30.9 0 0 0 21-22.6c.8-3.8 1-7.5.4-11a24 24 0 0 0-3.3-9.3 20.6 20.6 0 0 0-15.3-10 25.4 25.4 0 0 0-18.3 5.5 31 31 0 0 0-11.8 27.7 24 24 0 0 0 2.8 9.2 20.4 20.4 0 0 0 14.6 10.9"/><radialGradient id="C" cx="69.6" cy="296.5" r="35.5" gradientUnits="userSpaceOnUse"><stop offset="0" stop-color="#5dc1f9"/><stop offset="1" stop-color="#06a4ea"/></radialGradient><path fill="url(#C)" d="M74 275.3a15.2 15.2 0 0 1 11.2 7.5c1.3 2 2.1 4.3 2.5 6.9a23.7 23.7 0 0 1-9.1 21.5 20 20 0 0 1-6.8 3.2c-2.4.7-4.9.8-7.3.4a15.1 15.1 0 0 1-10.9-8c-1-2-1.8-4.4-2.1-6.8a23.7 23.7 0 0 1 8.8-20.7c2-1.5 4.2-2.7 6.5-3.4a17 17 0 0 1 7.2-.6zm-7.8 32.5c1.6.3 3.2.2 4.7-.2a13 13 0 0 0 4.4-2.2 15 15 0 0 0 5.9-13.9 12 12 0 0 0-1.6-4.5 10 10 0 0 0-7.3-5 11 11 0 0 0-4.7.5c-1.5.4-3 1.2-4.2 2.2a15 15 0 0 0-5.8 13.5c.2 1.6.7 3.2 1.4 4.5a9.8 9.8 0 0 0 7.2 5.1"/><defs><path id="D" d="M89.5 265.4l7 4.8a27 27 0 0 1 10.4 14c1 2.8 1.7 6 1.9 9.3a39.5 39.5 0 0 1-15.9 33.1 33.5 33.5 0 0 1-11.6 5.5 28.4 28.4 0 0 1-16.2-.7l-7.9-2.8a28.4 28.4 0 0 0 16.5.7c4.2-1.1 8.3-3 12-5.7a39.7 39.7 0 0 0 15.4-23.7 38.6 38.6 0 0 0-1-20.2 30.3 30.3 0 0 0-10.6-14.3z"/></defs><clipPath id="E"><use overflow="visible" xlink:href="#D"/></clipPath><path fill="#056F99" d="M89.5 265.4l7 4.8a27 27 0 0 1 10.4 14c1 2.8 1.7 6 1.9 9.3a39.5 39.5 0 0 1-15.9 33.1 33.5 33.5 0 0 1-11.6 5.5 28.4 28.4 0 0 1-16.2-.7l-7.9-2.8a28.4 28.4 0 0 0 16.5.7c4.2-1.1 8.3-3 12-5.7a39.7 39.7 0 0 0 15.4-23.7 38.6 38.6 0 0 0-1-20.2 30.3 30.3 0 0 0-10.6-14.3" clip-path="url(#E)"/><defs><path id="F" d="M53.6 297.7v-.2h-.2l.4-.7v.7l-.1.2h-.1z"/></defs><clipPath id="G"><use overflow="visible" xlink:href="#F"/></clipPath><path fill="#232323" d="M84.3 271.6l7 4.6a20.1 20.1 0 0 0-8.4-3c-3.2-.5-6.4-.2-9.5.8a26 26 0 0 0-8.4 4.4 29.9 29.9 0 0 0-9.5 34.2c1.2 2.5 2.7 4.8 4.7 6.7 1.9 1.9 4.2 3.4 6.8 4.4l-7.8-3a21.7 21.7 0 0 1-11.7-11.5 26 26 0 0 1-2.1-8.5 32 32 0 0 1 12-26.7 28 28 0 0 1 8.5-4.6 23 23 0 0 1 14.3.2 20.5 20.5 0 0 1 4 2" clip-path="url(#G)"/><defs><path id="H" d="M55.3 312a19.8 19.8 0 0 0 1 2.2l-8-3.3a14.8 14.8 0 0 1-.5-.9c0-.1 0-.3-.2-.4 0-.1 0-.3-.2-.4.5 0 .9.2 1.3.3l-1.3-.3v-.1a4.4 4.4 0 0 1-.1-.3l4.6 1.9-2.9-.7 2 .5.8.1h.1l3.4 1.5z"/></defs><clipPath id="I"><use overflow="visible" xlink:href="#H"/></clipPath><path fill="#232323" d="M84.3 271.6l7 4.6a20.1 20.1 0 0 0-8.4-3c-3.2-.5-6.4-.2-9.5.8a26 26 0 0 0-8.4 4.4 29.9 29.9 0 0 0-9.5 34.2c1.2 2.5 2.7 4.8 4.7 6.7 1.9 1.9 4.2 3.4 6.8 4.4l-7.8-3a21.7 21.7 0 0 1-11.7-11.5 26 26 0 0 1-2.1-8.5 32 32 0 0 1 12-26.7 28 28 0 0 1 8.5-4.6 23 23 0 0 1 14.3.2 20.5 20.5 0 0 1 4 2" clip-path="url(#I)"/><defs><path id="J" d="M67 323.7l-4.9-1.9a63.6 63.6 0 0 1-6.6-3 20.4 20.4 0 0 1-7.2-8l8 3.4a22.1 22.1 0 0 0 7.4 7.9 20 20 0 0 0 3.3 1.6z"/></defs><clipPath id="K"><use overflow="visible" xlink:href="#J"/></clipPath><path fill="#232323" d="M84.3 271.6l7 4.6a20.1 20.1 0 0 0-8.4-3c-3.2-.5-6.4-.2-9.5.8a26 26 0 0 0-8.4 4.4 29.9 29.9 0 0 0-9.5 34.2c1.2 2.5 2.7 4.8 4.7 6.7 1.9 1.9 4.2 3.4 6.8 4.4l-7.8-3a21.7 21.7 0 0 1-11.7-11.5 26 26 0 0 1-2.1-8.5 32 32 0 0 1 12-26.7 28 28 0 0 1 8.5-4.6 23 23 0 0 1 14.3.2 20.5 20.5 0 0 1 4 2" clip-path="url(#K)"/><defs><path id="L" d="M55.3 312c-2.7-1-5.4-2.2-8-3.3l-.2-.4-.2-.5a59.8 59.8 0 0 1-.3-.9v-.2l-.1-.1v-.1l1 .4-1-.4a25.2 25.2 0 0 1-1.2-6l2.9 1.3-2.9-1.3a28.6 28.6 0 0 1 .9-9.2l.1-.7a22 22 0 0 1 .6-2l3.2 1.6 1 .5-1-.5-3.2-1.5a31.9 31.9 0 0 1 11.4-15.4 24 24 0 0 1 8.2-4 22.8 22.8 0 0 1 15.8 1.2l2 1.2 7 4.5a20.2 20.2 0 0 0-8.4-3c-3.2-.5-6.3-.2-9.3.7a29.7 29.7 0 0 0-19.2 20.5l.2-1.8-.2 1.8v.2l-.1.2v.2l-.1.1-.1.5-.1.4v.4l-.2.4-.4.6-.5-1.4-.4-.5c-.2-.2-.5-.5-.8-.6l-.5-.1a8 8 0 0 0-1-.1h-1.4l-1.5.1h1.5c.5-.1 1.2-.2 1.5-.1h1l.4.2.8.6.4.5.5 1.4v.1h.1v.2l-2.7-1.3 2.8 1.3v.1a28.8 28.8 0 0 0 .6 11l1.1 3.3zm-1.9-14.5h-.1l-.2-.1-.1-.1h-.2l-.2-.1-.1-.1h-.2l-.1-.1-.2-.1h-.2l-.1-.1-.2-.1h-.1l-.2-.1-.1-.1h-.2.3l.2.1h.1l.2.2h.3l.2.2h.1l.2.1h.1l.2.1h.2l.1.2h.3m-7-2.8v.1l-.1.1v.2h-.1l-.1.2v.1l-.1.2-.1.1v.1l-.1.2h-.1v.2l-.1.1-.1.2-.1.2v-.1l.1-.1v-.2h.1v-.2l.2-.1v-.3l.2-.1v-.2l.2-.2v-.3h.2v-.2m-.7 2.1l.2.1.2.1.2.1.2.1.2.1.2.1.3.1.2.1.2.1.2.1.2.1.3.1.2.1.2.1.2.1h.2-.4l-.2-.2h-.2l-.3-.2h-.2l-.2-.2h-.2l-.2-.2-.3-.1-.2-.1-.2-.1-.2-.1-.2-.1h-.2l-.2-.2m3.4 1.6l.3.1.2.1.2.2h.2l.3.2.2.1.3.1.2.2h.3l.2.2.2.1.3.2h.2l.2.2h.3l.2.2-.2-.1-.3-.1-.2-.1-.2-.1-.3-.2h-.2l-.2-.2-.3-.1-.2-.2h-.3l-.2-.2-.3-.1-.2-.1-.2-.2h-.2l-.3-.2m3.8 2v.1l-.1.2v.4l-.1.2v.3l-.1.2v.4l-.1.1v-.4l.1-.1v-.5l.1-.2v-.4l.1-.2v-.2m-.3 2l-.2-.1-.3-.1-.2-.1-.3-.1-.3-.1-.2-.2h-.3l-.3-.2h-.3l-.2-.2-.3-.1-.3-.1-.3-.1-.2-.1-.3-.1-.2-.1h.2l.3.2h.2l.3.2.3.1.3.1.2.1.3.1.3.1.3.1.2.2h.3l.3.2h.2l.3.2h.2m-2-.6l-.1.1-.1.1v.1h-.1v.1l-.1.2H50v.1h-.1l-.1.1h.1v-.1h.1v-.1l.1-.1.1-.1v-.1l.1-.1v-.1h.1v-.1h.1-.2l-.1-.1-.2-.1-.2-.1-.1-.1h-.2l-.1-.1-.2-.1H49l-.2-.1-.1-.1h-.2l-.1-.1-.2-.1h.2l.1.1h.2l.1.2h.3l.2.2h.1l.2.1h.1l.2.1.1.1h.2l.1.1h.2"/></defs><clipPath id="M"><use overflow="visible" xlink:href="#L"/></clipPath><path fill="#232323" d="M84.3 271.6l7 4.6a20.1 20.1 0 0 0-8.4-3c-3.2-.5-6.4-.2-9.5.8a26 26 0 0 0-8.4 4.4 29.9 29.9 0 0 0-9.5 34.2c1.2 2.5 2.7 4.8 4.7 6.7 1.9 1.9 4.2 3.4 6.8 4.4l-7.8-3a21.7 21.7 0 0 1-11.7-11.5 26 26 0 0 1-2.1-8.5 32 32 0 0 1 12-26.7 28 28 0 0 1 8.5-4.6 23 23 0 0 1 14.3.2 20.5 20.5 0 0 1 4 2" clip-path="url(#M)"/><defs><path id="N" d="M63.5 313a15.3 15.3 0 0 0 5.6 4l-7.8-3.2a15.3 15.3 0 0 1-5.5-3.9l.5.2.4.2-.4-.2-.5-.2a16.2 16.2 0 0 1-3.1-5.1l-.7-2a19.5 19.5 0 0 1-.5-7.8 22.3 22.3 0 0 1 3.7-10.1 21.3 21.3 0 0 1 11.6-9 17 17 0 0 1 11.8.7l1.3.8 7.3 4.4a14.9 14.9 0 0 0-5.9-2 15 15 0 0 0-7 .5c-2.3.6-4.4 1.8-6.3 3.2a22 22 0 0 0-8 22.9 58.6 58.6 0 0 0-1.5-2.1 8.1 8.1 0 0 0-2.8-2.2l-1.8-.7 1.8.7a7 7 0 0 1 2.8 2.2 12.7 12.7 0 0 1 1.5 2 17.9 17.9 0 0 0 3.5 6.7l-1.7-.7 1.7.7zm-2.8-1.1l-.2-.1-.2-.1-.3-.1-.2-.1-.3-.1-.2-.1-.3-.1-.3-.1-.2-.1-.3-.1-.3-.1-.2-.1-.3-.1-.2-.1-.3-.1-.2-.1h.2l.3.2h.2l.3.2h.2l.3.2h.3l.2.2h.3l.3.2h.2l.3.2h.2l.3.2h.2l.2.2"/></defs><clipPath id="O"><use overflow="visible" xlink:href="#N"/></clipPath><path fill="#3A3A3A" d="M80 277.4l7.1 4.4a15 15 0 0 0-5.8-2 15 15 0 0 0-7 .5c-2.3.7-4.4 1.8-6.3 3.2a22 22 0 0 0-7.2 25.3c.9 1.9 2 3.5 3.4 5A15 15 0 0 0 69 317l-7.8-3.3c-2-.8-3.6-2-5-3.4a16.7 16.7 0 0 1-3.4-5 22 22 0 0 1-.9-13.1 23.7 23.7 0 0 1 8.3-13c2-1.5 4.2-2.7 6.5-3.4a17 17 0 0 1 11.8.7l1.3.8" clip-path="url(#O)"/><defs><path id="P" d="M65.7 297c-.4 1.5-.5 2.9-.4 4.3.1 1.4.5 2.7 1 3.9a9.8 9.8 0 0 0 5.2 5.4l-7.8-3.5a10 10 0 0 1-3.1-2.3c-.9-.9-1.6-2-2.1-3.2-.5-1.3-.9-2.6-1-4 0-1.5 0-3 .4-4.5l1 .5 6.8 3.4z"/></defs><clipPath id="Q"><use overflow="visible" xlink:href="#P"/></clipPath><path fill="#232323" d="M76 283.3l7.3 4.2a10.4 10.4 0 0 0-3.6-1.2c-1.5-.2-3 0-4.5.4s-3 1.1-4.2 2a14.3 14.3 0 0 0-5.3 8.3c-.4 1.5-.5 2.9-.4 4.3.1 1.4.5 2.7 1 3.9a9.8 9.8 0 0 0 5.2 5.4l-7.8-3.5a10 10 0 0 1-3.1-2.3c-.9-.9-1.6-2-2.1-3.2-.5-1.3-.9-2.6-1-4 0-1.5 0-3 .4-4.5a15.4 15.4 0 0 1 5.5-8.4c1.3-1 2.7-1.8 4.2-2.2a11 11 0 0 1 7.5.4l.8.4" clip-path="url(#Q)"/><defs><path id="R" d="M79.7 286.3a12.2 12.2 0 0 0-8.7 2.4 14.3 14.3 0 0 0-5.3 8.3l-3.8-2-4-1.9a15.4 15.4 0 0 1 5.5-8.4c1.3-1 2.7-1.8 4.2-2.2a11 11 0 0 1 7.5.4l.8.4 7.4 4.2a10 10 0 0 0-3.6-1.2zM67 288.1h.2v-.1h.1l.1-.1h.1-.2v.1H67v.1m-1.5-1.3h.3v.1l.2.1h.1l.2.2h.2l.1.2h.2l.1.1h.1l.1.1.2.1.2.1h-.1l-.1-.1H67v-.1l-.2-.1h-.1l-.2-.1v-.1h-.2l-.1-.1-.2-.1-.2-.2h-.2v-.1m-.1 0l-.1.1v.1h-.1v.2l.1.1.1.1h.1l.1.1h.2v.1l.2.1h.1l.1.1h.1l.1.1.1.1h.1l.1.1h.1-.2v-.1h-.2v-.1h-.2l-.1-.1-.1-.1H66l-.1-.1h-.2v-.1l-.2-.1-.2-.1v-.3h.1v-.2m-6 4.3l-.2.1v.2H59v.2l-.2.1v.2h-.1l-.1.2v.2h-.2v.2l-.1.2-.1.2v.1l-.2.2.5.2.4.2.5.2.5.3.4.2.5.2.5.3.5.2.5.2.5.3.4.2.5.2.4.2.5.3.4.2.4.2-.4-.2-.4-.2-.5-.3-.4-.2-.5-.2-.4-.2-.5-.3-.5-.2-.5-.2-.5-.3-.5-.2-.4-.2-.5-.3-.5-.2-.4-.2-.5-.2.1-.2.1-.2.1-.1v-.2l.1-.1.1-.1v-.2l.2-.1v-.1l.1-.2.1-.1v-.1l.2-.1v-.2h.1l.4.1.5.2.4.3.5.2.4.2.5.2.4.2.5.2.5.3.4.2.5.2.4.2.5.2.4.2.4.2.4.2-.4-.2-.4-.2-.4-.2-.5-.2-.4-.2-.5-.2-.4-.2-.5-.3-.5-.2-.4-.2-.5-.2-.4-.2-.5-.2-.4-.3-.5-.2-.4-.2m7.1 3.4v.1l-.1.2v.1l-.1.2-.1.1v.1l-.1.2v.1l-.1.2-.1.1v.2l-.1.1v.2l-.1.1v.3-.6l.1-.1.1-.2v-.1l.1-.2v-.1l.1-.2v-.1l.2-.1v-.3l.1-.2h.1"/></defs><clipPath id="S"><use overflow="visible" xlink:href="#R"/></clipPath><path fill="#232323" d="M76 283.3l7.3 4.2a10.4 10.4 0 0 0-3.6-1.2c-1.5-.2-3 0-4.5.4s-3 1.1-4.2 2a14.3 14.3 0 0 0-5.3 8.3c-.4 1.5-.5 2.9-.4 4.3.1 1.4.5 2.7 1 3.9a9.8 9.8 0 0 0 5.2 5.4l-7.8-3.5a10 10 0 0 1-3.1-2.3c-.9-.9-1.6-2-2.1-3.2-.5-1.3-.9-2.6-1-4 0-1.5 0-3 .4-4.5a15.4 15.4 0 0 1 5.5-8.4c1.3-1 2.7-1.8 4.2-2.2a11 11 0 0 1 7.5.4l.8.4" clip-path="url(#S)"/><defs><path id="T" d="M72.2 289.4a27038 27038 0 0 0 6.4 3.6 5 5 0 0 0-2.6 0l-2 1a6.7 6.7 0 0 0-2.4 4 6.5 6.5 0 0 0 .2 3.7l1 1.5 1.3 1-.3-.2-7.3-3.5c-.5-.2-1-.6-1.4-1l-1-1.5c-.2-.5-.3-1.2-.3-1.9l.1-2a7.2 7.2 0 0 1 2.6-4c.6-.5 1.3-.8 2-1a5.1 5.1 0 0 1 3.4.1l.3.2z"/></defs><clipPath id="U"><use overflow="visible" xlink:href="#T"/></clipPath><path fill="#3A3A3A" d="M72.2 289.4l7.5 4a5.4 5.4 0 0 0-1.1-.4 5 5 0 0 0-2.6 0l-2 1a6.7 6.7 0 0 0-2.4 4 6.5 6.5 0 0 0 .2 3.7l1 1.5 1.3 1-7.6-3.7c-.5-.2-1-.6-1.4-1l-1-1.5c-.2-.5-.3-1.2-.3-1.9l.1-2a7.2 7.2 0 0 1 2.6-4c.6-.5 1.3-.8 2-1a5.1 5.1 0 0 1 3.4.1l.3.2" clip-path="url(#U)"/><defs><path id="V" d="M55.5 318.8a104 104 0 0 0 7 3.2l-3.3-1.3a21 21 0 0 1-3.7-1.9z"/></defs><clipPath id="W"><use overflow="visible" xlink:href="#V"/></clipPath><path fill="#232323" d="M84.3 271.6l7 4.6a20.1 20.1 0 0 0-8.4-3c-3.2-.5-6.4-.2-9.5.8a26 26 0 0 0-8.4 4.4 29.9 29.9 0 0 0-9.5 34.2c1.2 2.5 2.7 4.8 4.7 6.7 1.9 1.9 4.2 3.4 6.8 4.4l-7.8-3a21.7 21.7 0 0 1-11.7-11.5 26 26 0 0 1-2.1-8.5 32 32 0 0 1 12-26.7 28 28 0 0 1 8.5-4.6 23 23 0 0 1 14.3.2 20.5 20.5 0 0 1 4 2" clip-path="url(#W)"/><defs><path id="X" d="M72.2 289.4l7.5 4 1.3 1 .8 1.5c.3.6.4 1.2.4 1.8a6.5 6.5 0 0 1-1 4.1c-.5.7-1 1.2-1.7 1.7-.6.5-1.2.8-2 1a5 5 0 0 1-3.3-.3 13205.8 13205.8 0 0 1-6.4-3.3 4 4 0 0 0 2.2-.1 6 6 0 0 0 2-1 7 7 0 0 0 2.7-4 6.7 6.7 0 0 0-.3-3.8 5.1 5.1 0 0 0-2.2-2.6z"/></defs><clipPath id="Y"><use overflow="visible" xlink:href="#X"/></clipPath><path fill="#232323" d="M72.2 289.4l7.5 4 1.3 1 .8 1.5c.3.6.4 1.2.4 1.8a6.5 6.5 0 0 1-1 4.1c-.5.7-1 1.2-1.7 1.7-.6.5-1.2.8-2 1a5 5 0 0 1-3.3-.3l-7.7-3.7a3.9 3.9 0 0 0 1 .4h.3a4 4 0 0 0 2.2-.1 6 6 0 0 0 2-1 7 7 0 0 0 2.7-4 6.7 6.7 0 0 0-.3-3.8 5.1 5.1 0 0 0-2.2-2.6" clip-path="url(#Y)"/><path fill="#6F00FF" d="M70.7 289a4.6 4.6 0 0 1 3.4 2.2c.3.7.6 1.4.7 2.1.1.8 0 1.6-.1 2.5a7.2 7.2 0 0 1-2.6 4l-2 1a6 6 0 0 1-2.3.1 4.6 4.6 0 0 1-3.3-2.3c-.4-.7-.6-1.4-.7-2.1-.1-.8 0-1.6.1-2.4a7.2 7.2 0 0 1 2.6-4c.6-.5 1.3-.8 2-1 .7-.2 1.5-.3 2.2-.2z"/><defs><path id="Z" d="M76 283.3l7.3 4.2a11 11 0 0 1 4.5 5.3 13.8 13.8 0 0 1 .5 7.7 14.8 14.8 0 0 1-5.6 8.5c-1.3 1-2.7 1.7-4.2 2a10.7 10.7 0 0 1-7-.4l-7.8-3.5a8.8 8.8 0 0 0 2.5.7c1.6.3 3.2.2 4.7-.2a13 13 0 0 0 4.4-2.2 15 15 0 0 0 5.2-16.6 11 11 0 0 0-4.6-5.5z"/></defs><clipPath id="aa"><use overflow="visible" xlink:href="#Z"/></clipPath><path fill="#3A3A3A" d="M76 283.3l7.3 4.2a11 11 0 0 1 4.5 5.3 13.8 13.8 0 0 1 .5 7.7 14.8 14.8 0 0 1-5.6 8.5c-1.3 1-2.7 1.7-4.2 2a10.7 10.7 0 0 1-7-.4l-7.8-3.5a8.8 8.8 0 0 0 2.5.7c1.6.3 3.2.2 4.7-.2a13 13 0 0 0 4.4-2.2 15 15 0 0 0 5.2-16.6 11 11 0 0 0-4.6-5.5" clip-path="url(#aa)"/><path fill="#EDEDED" d="M72.3 282a10 10 0 0 1 7.3 5c.8 1.3 1.4 2.9 1.6 4.5a15.5 15.5 0 0 1-5.9 13.9 13 13 0 0 1-4.4 2.2 11 11 0 0 1-4.7.2 9.9 9.9 0 0 1-7.2-5.1c-.7-1.3-1.2-2.9-1.4-4.5a15.4 15.4 0 0 1 5.8-13.6c1.3-1 2.7-1.7 4.2-2.1a11 11 0 0 1 4.7-.4zm-4.5 19c.8 0 1.5 0 2.2-.2a6 6 0 0 0 2-1 7 7 0 0 0 2.7-4c.2-.9.2-1.7.1-2.5-.1-.7-.4-1.4-.7-2-.4-.7-.8-1.2-1.4-1.6a5 5 0 0 0-2-.8c-.7-.1-1.5 0-2.2.2-.7.2-1.4.5-2 1a7 7 0 0 0-2.7 6.4c0 .7.3 1.4.7 2 .3.7.8 1.2 1.4 1.6a4 4 0 0 0 2 .8"/><defs><path id="ab" d="M80 277.4l7.1 4.4c1.5.9 2.9 2 4 3.4a19 19 0 0 1 3.8 10.2 22.8 22.8 0 0 1-9 19.1c-2 1.5-4.2 2.6-6.5 3.2a16.4 16.4 0 0 1-10.3-.6l-7.8-3.3a16.8 16.8 0 0 0 3.2 1c2.4.4 5 .3 7.3-.3a20 20 0 0 0 6.8-3.4 22.9 22.9 0 0 0 8.7-13.4 22 22 0 0 0-.6-12c-.7-1.8-1.6-3.4-2.8-4.8a15.5 15.5 0 0 0-4-3.5z"/></defs><clipPath id="ac"><use overflow="visible" xlink:href="#ab"/></clipPath><path fill="#232323" d="M80 277.4l7.1 4.4c1.5.9 2.9 2 4 3.4a19 19 0 0 1 3.8 10.2 22.8 22.8 0 0 1-9 19.1c-2 1.5-4.2 2.6-6.5 3.2a16.4 16.4 0 0 1-10.3-.6l-7.8-3.3a16.8 16.8 0 0 0 3.2 1c2.4.4 5 .3 7.3-.3a20 20 0 0 0 6.8-3.4 22.9 22.9 0 0 0 8.7-13.4 22 22 0 0 0-.6-12c-.7-1.8-1.6-3.4-2.8-4.8a15.5 15.5 0 0 0-4-3.5" clip-path="url(#ac)"/><defs><path id="ad" d="M84.3 271.6l3.6 2.4 3.5 2.2a23 23 0 0 1 8.5 10.9 25.8 25.8 0 0 1 .8 15.5 30.5 30.5 0 0 1-11.5 17.6 26 26 0 0 1-9 4.3 22 22 0 0 1-13.2-.8 12723.8 12723.8 0 0 0-5.1-2.2l1 .2c3.2.7 6.6.5 9.8-.3 3.3-.9 6.4-2.4 9.2-4.5a30.8 30.8 0 0 0 11.8-18.2 29.9 29.9 0 0 0-.7-16 22 22 0 0 0-3.6-6.3 21 21 0 0 0-5.1-4.8z"/></defs><clipPath id="ae"><use overflow="visible" xlink:href="#ad"/></clipPath><path fill="#3A3A3A" d="M84.3 271.6l7 4.6a23 23 0 0 1 8.5 10.9 25.8 25.8 0 0 1 .9 15.5 30.5 30.5 0 0 1-11.5 17.6 26 26 0 0 1-9 4.3 22 22 0 0 1-13.2-.8l-7.8-3a17.8 17.8 0 0 0 3.6 1c3.3.7 6.7.5 10-.3a30.8 30.8 0 0 0 21-22.6 29.9 29.9 0 0 0-.8-16c-.9-2.4-2-4.5-3.6-6.4a21 21 0 0 0-5.1-4.8" clip-path="url(#ae)"/><path fill="#EDEDED" d="M75.6 268.5a20.6 20.6 0 0 1 15.3 10 25 25 0 0 1 3.3 9.3A32 32 0 0 1 82 317c-2.8 2.1-6 3.6-9.2 4.5a22 22 0 0 1-9.9.3A20.4 20.4 0 0 1 48.3 311a25.4 25.4 0 0 1-2.8-9.2A32 32 0 0 1 57.3 274c2.6-2 5.6-3.6 8.6-4.6a23 23 0 0 1 9.7-.9zm-11 46.3c2.3.4 4.8.3 7.2-.4a20 20 0 0 0 6.8-3.3 22.9 22.9 0 0 0 8.7-13.4c.6-2.8.7-5.5.4-8-.4-2.6-1.2-4.9-2.5-7a15.2 15.2 0 0 0-11.3-7.5 17 17 0 0 0-7.1.7c-2.3.7-4.5 1.9-6.5 3.4a23 23 0 0 0-8.8 20.7 17.3 17.3 0 0 0 6.6 12c1.8 1.4 4 2.3 6.4 2.8"/><path fill="#6F00FF" d="M77.4 261a26.5 26.5 0 0 1 19.9 12.6 32 32 0 0 1 4.4 12 41.2 41.2 0 0 1-16 37.9 34.5 34.5 0 0 1-12 5.7 29 29 0 0 1-12.7.4 26.4 26.4 0 0 1-18.7-14.2 33 33 0 0 1-3.6-11.8A41.2 41.2 0 0 1 54 268.2c3.4-2.7 7.2-4.8 11.1-6a29 29 0 0 1 12.4-1.3zm-14.6 60.7c3.3.7 6.7.5 10-.3a30.9 30.9 0 0 0 21-22.6c.8-3.8 1-7.5.4-11a24 24 0 0 0-3.3-9.3 20.6 20.6 0 0 0-15.3-10 25.4 25.4 0 0 0-18.3 5.5 31 31 0 0 0-11.8 27.7 22.4 22.4 0 0 0 8.8 16.2c2.4 1.9 5.3 3.2 8.5 3.8"/><path fill="#6F00FF" d="M74 275.3a15.2 15.2 0 0 1 11.2 7.5c1.3 2 2.1 4.3 2.5 6.9a23.7 23.7 0 0 1-9.1 21.5 20 20 0 0 1-6.8 3.2c-2.4.7-4.9.8-7.3.4a15.1 15.1 0 0 1-10.9-8c-1-2-1.8-4.4-2.1-6.8a23.7 23.7 0 0 1 8.8-20.7c2-1.5 4.2-2.7 6.5-3.4a17 17 0 0 1 7.2-.6zm-7.8 32.5c1.6.3 3.2.2 4.7-.2a13 13 0 0 0 4.4-2.2 15 15 0 0 0 5.9-13.9 12 12 0 0 0-1.6-4.5 10 10 0 0 0-7.3-5 11 11 0 0 0-4.7.5c-1.5.4-3 1.2-4.2 2.2a15 15 0 0 0-5.8 13.5c.2 1.6.7 3.2 1.4 4.5a9.8 9.8 0 0 0 7.2 5.1"/><defs><path id="af" d="M89.5 265.4l7 4.8a27 27 0 0 1 10.4 14c1 2.8 1.7 6 1.9 9.3a39.5 39.5 0 0 1-15.9 33.1 33.5 33.5 0 0 1-11.6 5.5 28.4 28.4 0 0 1-16.2-.7l-7.9-2.8a28.4 28.4 0 0 0 16.5.7c4.2-1.1 8.3-3 12-5.7a39.7 39.7 0 0 0 15.4-23.7 38.6 38.6 0 0 0-1-20.2 30.3 30.3 0 0 0-10.6-14.3z"/></defs><use fill="#41D5CF" overflow="visible" xlink:href="#af"/><clipPath id="ag"><use overflow="visible" xlink:href="#af"/></clipPath><path fill="#41D5CF" d="M89.5 265.4l7 4.8a27 27 0 0 1 10.4 14c1 2.8 1.7 6 1.9 9.3a39.5 39.5 0 0 1-15.9 33.1 33.5 33.5 0 0 1-11.6 5.5 28.4 28.4 0 0 1-16.2-.7l-7.9-2.8a28.4 28.4 0 0 0 16.5.7c4.2-1.1 8.3-3 12-5.7a39.7 39.7 0 0 0 15.4-23.7 38.6 38.6 0 0 0-1-20.2 30.3 30.3 0 0 0-10.6-14.3" clip-path="url(#ag)"/><path d="M62 294L5 258.5s.1-1.3 1.5-1.2l56.6 36.2-1 .3zm8.3 15l-62-25.7s-.1-1.3 1.3-1.4l61.6 26.7-.9.4zm.8-21.6L22.7 241s.3-1.2 1.7-.9l47.8 47.2-1 .1z"/><path fill="#6F00FF" d="M9.7 259.6s1.5-2.7 2-2.8c.6-.1 1.5-.7 4.7 2a49.8 49.8 0 0 1 12.5 13L9.7 259.6zm-.8 1.3s-2.3 2.5-.5 4c2 1.5 7.3 5 19.8 8L8.9 261zm4.2 22.6s1-2.9 1.6-3c.5-.2 1.3-1 5 1.3 5 3 12.6 7.6 14.3 10.8l-20.9-9zm-.6 1.5s-1.9 2.9.2 4c2.1 1.2 8 3.7 20.8 4.8l-21-8.9zM27 243s2-2.4 2.6-2.4c.6 0 1.6-.3 4.2 3 3.6 4.8 9 11.8 9.5 15.3L27 243zm-1 1s-2.8 2-1.3 4c1.5 1.8 6.1 6.3 17.6 11.9L26 244z"/><path fill="#FFF" d="M184.3 212.7l-1.3-4 4.8-1.5 1.2 4.1-4.7 1.4zm3.5-19.2l.3 1.3a5.3 5.3 0 0 1-.2 2.4l-.5 1.3-1.5 3.4.7 2.3-4.3 1.2-1-3.4 1.6-3.9a102.6 102.6 0 0 0 .7-2.5v-.8l-.5-1c-.1-.3-.3-.4-.5-.6l-.9-.1-1.4.3a20.7 20.7 0 0 0-3.2 1.5l-1-3.7.7-.4a23.7 23.7 0 0 1 3.1-1.3c1-.3 2-.4 2.8-.5a4 4 0 0 1 2.2.3 4 4 0 0 1 1.6 1.4c.5.6 1 1.6 1.3 2.8zm1.7 28.9l7.4-1.3m-7.4 2.1a.7.7 0 0 1-.7-.6c-.1-.5.2-.8.6-.9l7.4-1.3a.7.7 0 0 1 .3 1.5l-7.5 1.3h-.1z"/><path fill="none" d="M148.6 214.5s-2-3.7-4.2-13.6l-2-.2s2.2 11.5 6.2 13.8z"/><path fill="#FFF" d="M197.5 220.7a.7.7 0 0 0-.8.2l-14.6 14-8.5-3.9a.7.7 0 0 0-1 .3l-7.1 11.9a.7.7 0 0 1 1.2.7l6.9-11.3 8.4 3.9c.3.1.6 0 .8-.2l13.5-13-.3 5.5c0 .4.2.8.6.8.4 0 .8-.3.8-.7l.5-7.5c0-.3-.1-.5-.4-.7zm-31.4 23.6l-.4-.1a.7.7 0 0 1-.2-1l-3.3 5.4-7.8-11.4a.7.7 0 0 0-.6-.3c-.3 0-.5 0-.6.2l-6.5 8.3a.7.7 0 0 0 1.2.9l5.8-7.4 8 11.6c0 .2.3.5.5.5.3 0 .5-.3.7-.5l3.8-6.5c-.1.3-.3.3-.6.3z"/><path fill="#FFF" d="M166.5 243a.7.7 0 1 0-.8 1.2.7.7 0 0 0 .8-1.3zm-24.9-43.3c.5 0 6.7 0 15.6-3.2a48.5 48.5 0 0 1-15.6 3.2zm17.4.1v1l.6-.1c1.1-.2.7-1.4.7-1.4 1.1-.2 1.3 1 1.3 1l.4 1s0 4.2-3 10.1v4.3c7-7.9 5.2-14.8 5.2-14.8l-.4-1.2s-.5-2.2-2.7-1.8l-1.2.3c-1 .2-.8 1.3-.8 1.3l-1 .2h.9zm-3.4 19.9h-.6.6zm-13.5-16.5l-.6-3.2.6 3.2c-.7.2-1.1 0-1.1.1h1.1zm16.9-.2zm-2.2 19.9h-.2.2zm-6.2 3.6s0 1 1.1 1c-.8-.2-1.1-1-1.1-1zm.9-7.4c-1 0-1.9-.6-1.9-.6-11.2-4.2-12.6-12-12.6-12l-.3-1.1s-.3-2.3 1.9-2.8c.6 0 1.2-.4 1.2-.4v-.2.2l-1.2.3c-2.2.5-1.9 2.8-1.9 2.8l.3 1.2s1.4 7.8 12.6 12c0 0 .8.5 1.9.6zm6.5 6.9h.4c1-.2 1-1.2 1-1.2s0-.8-1.2-.8l-.2-.2v2.3zm-1.8-6c.2.9-1 .8-1 .8l.3 1.3c.2.8.8.8 1 .8-.3 0-.7-.2-.9-.8l-.3-1.3s1.2 0 1-.7c0-.4-.4-.4-.7-.4.3 0 .6 0 .6.4zm-14.7-20.3z"/><path fill="#FFF" d="M158.2 223.8c-1.3-.2-1.1-1-1.1-1l-.3.1c0 .2.3 1 1.4.9zm-3.4-5.2l.2 1.2-.2-1.2c1-.2 2.5-.8 3.1-1.7l1.1-.5v-.7c-1 .4-1 .8-1.4 1.2-.6.9-1.7 1.5-2.8 1.7zm2.5-22.2l-.1.1.6 3.3h.3l-.8-3.4zm-5.6 31h.9c1.2-.2 3.4-1 6.4-1.2v-.1l-6.7 1.3h-.6zm6.4-15.4l.3-.6v-.9c0 .6-.2 1-.3 1.5zm-.5-11c.2.6.4 1.2.4 2v-2.2l-.4.1z"/><path fill="#FFF" d="M141 203.3s-.1-.8-.9-1l-.2.1-1.3.2c-2.2.5-1.8 2.8-1.8 2.8l.2 1.1s1.4 7.8 12.6 12c0 0 1 .7 2.4.7l.5-.1.3 1.2s-1.1 0-1 .7c.1.7 1.2.3 1.2.3l.3 1.3s0 1-.8 1.2c.2 1-1 1.4-1 1.4s-1 .4-.9 1.3c0 0 .3.8 1.1 1h.6c1.5-.4 5.7-1.3 6.7-1.4v-2.3h-.5c-1 .2-1.5-.7-1.6-.9h-.3c-.3 0-1 0-1-.8l-.4-1.3s1.2 0 1-.7c0-.3-.3-.4-.6-.4h-.6l-.2-1a6 6 0 0 0 2.8-1.8c.4-.4.4-.8 1.4-1.2v-4.3c-1 .2-.2.4-.4.6.2-.4.4-1 .4-1.5V203c0-.8-.2-1.4-.4-2 .1-.1-.6-.1.4-.2v-1h-1.1l-.7-3.2a51.3 51.3 0 0 1-15.6 3.4h-.1l.6 3.2c-.7.2-1.1.1-1.1.1s-.1-.8-.9-1l-.3.1h.3c.7 0 1 .9 1 .9zm3.4-2.4c2.2 10 4.2 13.6 4.2 13.6-4-2.3-6.2-13.8-6.2-13.8l2 .2zm-2.3 3.6c.8 3.6 2.8 8.3 4.5 10-6.5-3.8-7.6-8.2-7.6-8.2l-.3-1s-.2-1.2.9-1.5c0 0 .2 1.2 1.4 1l1.1-.3zm-2-2.1h-.2.2z"/><path fill="#FFF" d="M141 203.3s-.1-.9-.9-1c.8.1 1 1 1 1z"/><circle cx="254.2" cy="293.9" r="14.7" fill="#FFF"/><circle cx="271.8" cy="324.6" r="14.7" fill="#FFF"/><g fill="#6F00FF"><path d="M245.5 290.3c0-2.1 2.4-3.9 5.5-3.9h.3a3 3 0 0 0-.3 1.3c0 2 2.3 3.8 5.1 3.9-.6 1.4-2.5 2.5-4.7 2.6-1.5 1.2-4.2 2-4.2 2 1.3-1.2 1.4-2 1.3-2.4-1.8-.7-3-2-3-3.5z"/><path d="M252 285.9c.7-1.5 2.7-2.6 5.2-2.6 3 0 5.5 1.7 5.5 3.9 0 1.5-1.3 2.8-3 3.5-.1.4 0 1.2 1.2 2.3 0 0-2.6-.7-4-1.9h-.1c-2.9-.2-5.2-1.8-5.2-4l.3-1.2z"/></g><g fill="#6F00FF"><path d="M266.6 319.3c.2 1 1 2 1.8 2 1 .1 1.8-1 2-2l.1-.3s.2-.7 0-.6c0-.3.4-1.3-.2-2 0 0-.2-.4-.9-.6h-.2v-.1h-.1a28.5 28.5 0 0 0-.4-.5l-.2.2c0-.1 0-.2.2-.3l-.2.2-.3.3v-.2.2h-.2l.1-.3v.2c0-.1 0-.2-.3 0 0 0-1 .4-1.2 1.3 0 0-.2.4 0 1.5-.3-.1-.1.7-.1.7l.1.3zm1.9-4l-.1.2v-.2z"/><path d="M280 320.9c-.3-.6-1.8-1-1.8-1-.8-.4-.8-.7-.8-.7-1.7 3.2-2.8 0-2.8 0-.2.4-1.8 1-1.8 1-.5 0-.7.4-.7.4-.3.3-.4.8-.6 1.4l-.8-.4c-.8-.3-.8-.6-.8-.6-1.7 3.2-2.9 0-2.9 0 0 .4-1.7.9-1.7.9l-.7.4c-.8 1-.9 3.4-.9 3.4 0 .6.2.6.2.6 1.7.8 4.3 1 4.3 1 2.6 0 4.5-.7 4.5-.7l.3-.3V325l2.7.4c2.6.1 4.6-.7 4.6-.7l.3-.3c.2-1.7-.6-3.6-.6-3.6z"/><path d="M274.2 317.5c0 1 1 2.1 1.8 2.1.9 0 1.8-1 1.9-2l.2-.4s.2-.7 0-.6c0-.3.3-1.3-.2-2 0 0-.3-.3-1-.5v-.1h-.1l-.1-.1v.1l-.1-.1c-.1 0-.3-.2-.3-.5 0 0-.2 0-.3.2l.2-.3-.2.2-.3.3v-.2.2h-.2l.2-.2h-.1l-.2.2s-1 .4-1.3 1.2c0 0-.2.4 0 1.6-.3-.2 0 .6 0 .6v.3zm1.8-4l-.1.3v-.3z"/></g><path fill="none" stroke="#6F00FF" stroke-miterlimit="10" stroke-width="1.6" d="M268.9 332.5l2.7 3.6 5.5-7.9m-25.9-26.1l2.7 3.6 5.5-7.9"/><circle cx="290.6" cy="295" r="14.7" fill="#FFF"/><path fill="none" stroke="#6F00FF" stroke-miterlimit="10" stroke-width="1.6" d="M287.7 303.2l2.7 3.6 5.5-7.9"/><g fill="#6F00FF"><path d="M286.8 284.5v11.3h6.3v-2.5h2.1v-8.9h-8.4zm3.6 2.5h-2.7v-.4h2.7v.4zm3.7 1.6h-6v-.4h6v.4zm0 1h-6v-.4h6v.4zm0 1h-6v-.4h6v.4zm-3.7-4.5h-2.7v-.4h2.7v.4zm0 7h-2.6v-.4h2.7v.4zm0-1l-2.6.1v-.4h2.7v.4zm3.5 0c0 .4-.3.7-.6.7a.6.6 0 1 1 .6-.6z"/><path d="M293.6 295.5l1.6-1.9h-1.6z"/></g><path d="M263.4 396.3c-.8-2.9-2.1-5-3.6-7.1-1.5-2-2.6-4.4-4-6.5-1.2-2.4-3.1-4-4.2-6.5-1-2.5-1.7-5.4-3.2-7.4l-.5-2.3-.8-1.3c0-2.8-1.4-4.4-2.6-6-1.1-1-2.1-1.9-3.4-2.5-1.1-.9-2.5-1.4-3.7-2.1-1.5-.3-2.8-.8-4-1.5l-3.4-1.9c-.5-.4-1.1-.8-1.6-1.4-.7-.2-.9-1-1.8-1-.3-.6-.8-1-1.2-1.6-.3-.3-.6-.6-1.1-.7v-3l.3.2c.5-1 .3-2.4.2-3.5-.1-.6.2-1.2.4-1.8.2-.6.3-1 .3-1.7.1-1 .7-2 .6-3.1-.1-.9.2-1.8 0-2.7-.2-.5-.2-1-.5-1.4h.7c.3-.1.4-.3.6-.5-.4.3-.8.4-1 .2l-.1-.3-.3-.6-.1-.3c-.2-.9-.6-1.8-1.4-2.5l-1-.5-.3-.6a.6.6 0 0 1-.2-.5l.3-.2-.5.2-.3-.2-.5-.4-.3-.4.3-.3-.4.2h-1c0-.2 0-.4-.2-.4a1 1 0 0 1-.7-.3c-.4-.3-1-.2-1.5-.2a7 7 0 0 1-2-.3c-.1 0 0 .3-.3.2l-.9-.2h-.9l-.9-.1c-.8-.3-1.5-.6-2-1.3.1.5.5 1 1 1.4-.3 0-.6-.2-.8-.3 0 .2 0 .4-.2.4a2 2 0 0 1-1-.8c.1.5.5.9 1 1.2l-1.4-.4c.4.4.9.6 1.4.8l-.2.2h.7l.2.2.2.2h-.6c-.9-.4-1.7 0-2.3 0-.6 0-1.2-.3-1.7-.9a2.8 2.8 0 0 0 .9 1.1l-.2.1c.2.1 2 .6.9.8-.9.1-1.6 0-2.4-.2l-1-.3c.4.4 1 .7 1.4.9l.5.1c-.2.2-.5.1-.7.1-.7-.3-1.6-.6-2.4-.4 1 0 1.6.6 2.4 1-.3 0-.6.2-.8.3-.6.2-1 .6-1.4.9l-.5.5-.5.5a3 3 0 0 1-1.2.7c-.4 0-1 0-1.3-.3.2.4.8.7 1.3.7h.7l-.6.4c-.4.3-.8.6-1.3.6.5.2 1 0 1.5-.2.3 0 .5-.2.8-.4h.4l.2-.2a15.3 15.3 0 0 0 .5-.2l-1 .7-.1.2a2 2 0 0 1-1.2.5c-.5 0-1 0-1.4-.3.3.3.8.7 1.3.8.6 0 1.2 0 1.6-.3l.3-.1-.3.4-.7.4h-2c.6.2 1.3.5 2 .5a2 2 0 0 0 1-.3h.1c-.5.5-.9 1-1.5 1.4.6-.1 1-.4 1.5-.8v.2l-1.3 1.6a9 9 0 0 0 1-.7v.4l-.6.2h.5v.2h-.1.1v.2c0 .4-.3.5-.4.9 0 .5 0 1.2.2 1.6 0 .4-.5.2-.6.5-.2 0-.2.3-.3.5.3.4.8.5 1.4.4-.2.3-.6.3-.6.7.2.1.4-.3.5 0-.3.8-.3 1.9-.7 2.4.2.5 0 1.4.1 2 .2 0 .1.2.1.4l.8 2 .8 1.3c0 .6-.3.7-.2 1.4 0 .6.3 1 .5 1.5 0 2.3.5 4.2 3 4 .2.3-.6.4-.6.8l-.8.6c-1.2.4-2.2 1-3.3 1.5-1 .6-2.2 1-3 1.7-2.1 1-4 2.5-5.5 4.1-.1.5-.4.8-.7 1.2-.1.5-.4.9-.4 1.5-.1.4-.6.7-.7 1l-.7 2.5-.3 3.8c-1.2 3.5-1.4 8-2.6 11.6-.6 1.3-1.2 2.6-2 3.7 0 .7-.3 1.2-.4 1.9a49.3 49.3 0 0 1-9.7-5c-1.6-.8-2.9-2-4.3-3-1.6-.9-2.8-2-5.1-2.2-1 0-1.1.5-1.7.7l-1.4-1.7-2.4-1.6-1.8-.5c-.3-.2.6-.5.1-.9a21 21 0 0 0-3.6-.3c-1-.5-2-1.1-3.2-1l-.5.8c-.2.8.5 1.1.9 1.7-.6.4-1.4.5-1.8 1-.3.4-.2 1.3 0 1.8-1.2-.1-2.3-.3-3-1-.6.1-.8-.2-1.4-.1-.7-.3-1.3-.8-2.2-1-1 0-1.6.3-2 .7 0 .4.6.4.8.7l1.1.5c.7.5 1.5.7 2.3 1 1.4.7 3 1.2 4.5 1.8l1.3 1.4c1.6.5 3.7.5 5.2 1.1 1.8.2 3.4.8 5.2 1 .2 1.4.5 2.5 1 3.6 1.5 1.3 3.3 2.5 4.7 4 .5.1.8.6 1.2.9l1.3.8c.7.7 1.6 1.2 2.3 2 3.4 2.3 6.6 4.9 9.7 7.5l4.5 2.3c1.6-.1 2.9.2 4.5.1l3.1-1.5c.2 1 .2 3 .7 4 0 .5-.5.6-.5 1.2 0 1.4-.2 2.9-.1 4.5.2 0 0 .6.2.6 0 .3.5.1.4.5-.2 4-.3 8.1-.8 11.8l-1.4 11.2c-.1.6.4.5.5.7-.5 6-1.3 12-1.5 18-.3 6.4 0 12.8-.4 19.3 0 1.5 0 3.1-.2 4.7l-.5 4.3-.7 9.2c0 1.5 0 3.1-.2 4.7-.2 4.3-.7 9.4-.4 14.1.3 3.2 1.2 5.7 1.7 8.7v2.2c-.6 1.3-1.5 3-1 5-.3.8-1 1.2-1.5 1.8-.7.3-1 1-1.6 1.4-.4.9-.9 1.6-1 2.6-1 1.3-2.6 2-4 2.8-1.5.7-3 1.5-4.7 2l-1.1.6c-2.1.7-4.6 1-6.2 2.2l-.3 1c.2.5-.7.5-.2.9 0 .6.6.5 1 .6 3.8.4 8 .7 12.1.9a24.2 24.2 0 0 0 11-2c.5-.2.5.2.6.4.2.1.6 0 .7.3 1.2.2 2 .7 3.1 1h.5c1.3 0 2.9.1 4-.1 1.4 0 2.8 0 3.7-.6v-3c0-.4 0-.7-.4-.8.5-1.2 1-2.9.6-4.4-.2-.7-.5-1.4-1-1.8 0-.3.4-.3.6-.4l.3-.6c.3-2 1.3-3.5 1.7-5.4l.1-.5c-.2-3.7.4-6.8.7-10.4l.8-7.8 1.4-11.6c.3-4 .4-8 1-12 1-7.7 1.6-15.5 3-22.7a271 271 0 0 1 2.3 13c.6 3.2 1 6.4 1.5 9.8l.6 3c1.7 8.7 2.7 17.4 4.5 25.9.4 2.9 1 5.6 1.6 8.4.4 1.2.8 2.6 1.3 3.7.5 1.2 1 2.3 1.3 3.6a7 7 0 0 1-.3 3.9l.8 1.8-.5 2.1.8 6c.4.3 1 .5 1.7.6-.7 1.2-1.3 2.6-1.9 3.9l-1.9 2.4-1.7 2.7c-.2.9-.3 1.9-.6 2.7.2 1.3-.2 2.1 0 3.2.9.8 2.7.5 4.3.5 4.4-.7 9-1 12.3-2.8 0-.2.3-.3.4-.4.7-1 1.2-2.3 1.3-3.9.6 0 1 .2 1.7 0 1-.4 2-1 2.5-2l-.3-3.4c0-.6-.5-.5-.6-1 .2-1.2.2-2.7-.4-3.6l1.7-2.2c0-4.1 0-8-.2-11.9l-.6-3.4a300 300 0 0 1-2.6-24.8c-.6-3.6-1.7-7.3-2.4-10.8-1.2-6-2-12.7-2.6-19.4-.6-5.3-1-10.7-1.7-16-.6-5.3-1.4-10.4-2.1-15.4 1.1-.3 2.8-.3 3.8-.8.3-4-.1-8.3-.3-12.4.1-.8.8-1.2 1.2-1.8.9-2 2-3.7 2.4-6.3.3-.3 1-.3 1.3-.6.5-.2.8-.7 1.3-1 .4-.1.5-.5.6-.8.3-.2.6-.3.8-.7l1.2-1.5 4.6-3.4c1.5-1 3-2.3 4.5-3.4.9-1.2 2-2.1 2.8-3.3l1.7-3.7c0-1.5-.2-3 0-4.3zm-107.3-17c0-.4-.3-.4-.3-.6.9.2 1.4-1.3 1.8-.3-.7.1-1 .6-1.5.8zm51-53.9h.1l-.1.2v-.2zm36.6 78.7l-3.6 4.2-.5.6c-.2 0-.2.2-.3.2a73.5 73.5 0 0 1-.5-5.5c.3-2.3.2-4.6.5-6.8l1.1-6.3.1-.1c0 .1.2.1.2.3a22 22 0 0 1 4.5 6.6c.5.6 1 1.2 1.4 2-1 1.6-1.7 3.3-3 4.8z"/><path d="M66.8 447.9c0 .9.7 3.2 1.1 4 .5.8 1.6 1.5 2.1 2.5.4-.9.6-1 1.5-.5-.2-.6.3-1 0-1.8-.3-.5-.9-.8-1.2-1.3 0-.8-.6-1.1-.7-2 .1 0 .5.6 1 .1.5-1.1-.5-2-.2-3.2.4-1.3 1.6-2 2.5-2.8 0 2.2-1.3 3.2-1.6 5.1.6.6 1.9.8 2.6-.2.4-.5.3-1.2.6-2 .1-.5.8-1.1 1-1.8.4-.6.4-1.3.6-1.6.4-.6 1.4-1 1.8-1.7.8-1.6-.6-3.6.4-4.7.6.4 1.2.9 1.2 2 2.6-2 3.2-5.8 4-9 2.6-10.4 5.6-21 8-31.5 2 4.1 1.3 10.5.6 15.6-.2.6-.7.8-1 1.4-.5 2.3-1.2 4.5-2 6.7-.2.5.4.4.1.8-2.4 5.5-1.9 14-2.7 21.3h1.6c0 10.5 1 21.2 1.5 31.2 2 1.8 5.4 2.2 9 2.3.6 1.6 1.4 3.3 1.9 5.2.3 1.2.2 2.6.6 3.9.2.8.7 1.4.8 2.5.3 2.6-.2 5.6-.2 8.3 0 4.1 1.1 7.2 1 12l-.7 8.3c-.4 5-.4 9-2.1 12.3.1 1.6-.7 2.4-1 3.5-1 .5-1.6 1.5-2 2.7 0 .3 0 .6.2.9-1 1.3-1.7 3.1-3.6 3.5-.8 1.3-1.9 2.6-1.5 4.3-.4.6-.9 1-.7 2.1.5.6 1.4.8 2.3.8 4.2.4 8.6-1 11.1-2.6l1-2.2c1.3-.8 4-2.4 2.2-4.4.9-1 .2-2 0-3.4 0-.5.2-1 .1-1.3-.2-.8-1-1.3-1.4-1.7v-1.2c-1-2.6.6-5 1.1-7.3l1.8 5.1c.5 1.7 1.3 3.6 1.4 5.5.1 2-1.1 4.4-.1 6-1 2.5-2.8 4.1-3.4 7-.6.3-1.1 1-1.7 1.7-.6.8-.4.7-.6 1.8-.1.8-.5 1.2.1 2 1.3 1.9 7 2.7 9.8 1.7.8-.6 2-1.5 1.3-3 .5-2 .1-3.5.2-5.5.7-1.3.7-4 0-5.2.3-1 1-1.7 1-2.9s-1.2-3-1.4-4.6c-.7-6-.5-12.6-.2-19 .1-4 .4-8.2 0-11.8l-.2-1.5c0-1.1.3-2.3.5-3.4.5-4.8-.1-9.6-1.8-13.3.5-2.4 1.8-4.2 2.5-6.5 2 0 4.6.4 5.6-.8 2-10.1 3.7-20.7 5.3-31.2.8-.5 1.8-.8 2.4-1.4a52.8 52.8 0 0 0-4.3-29c-2.2-6.6-1.4-16.1-2-24.2 1.2 1.2 1.5 3.4 2.5 5 .3.6 1 .9 1.2 1.4.4.7.5 1.5 1 2.1.3.6 1 1 1.4 1.6.5.5 1.2 1 2 1 .7 0 1.3-.5 2-.6.5-.2 1.1 0 1.7-.3.5-.3 1.2-.8 1.5-1.3 2.6-5.6-.3-12.8.2-19.6 1-1.3 2.5-2.2 3.8-3.2.4-2.3 2.2-3.2 3.4-4.8-.3-.5-.3-1.2-.8-1.5a17 17 0 0 0 3.1-5.4c.7-.6 1.7-.9 2-1.9-1.7-1-3.5.5-5.3 1.7-1.2.8-2.1 2-3.2 2.6-1 .5-1.8.7-2.3 1.7-.5.2-1.4 0-1.7.3-1.7-1-.3-3.5-.5-5.4-.1-.8-.8-2.4-1.5-2.4-.6 0-1.3 1-1.4 1.8-.2 1 .2 2 .1 2.7-.1 1.8-1 4.6-1.8 5.8-.1.6 0 1.6-.2 2.2-.7-.5-.7-1.5-.9-2.3-.2-.9-.2-2-.5-2.7-.4-1-1.6-1.7-2.3-2.6-.8-.9-1.4-1.9-2.2-2.5-2-.3-4.2-.2-6.1-.5-1.1 0-2.6-.4-3.3-.9-.4-.2-.6-.7-.9-1-1-1-2.7-1.3-3.7-2.4l.2-1c.4 0 .6.3.8.6.6.1 1 .3 1.6.3.4.7.9 1.2 1.3 1.7-.4-.7-.7-1.4-.9-2.2.4.8 1 1.4 1.4 2-.6-1-1.3-2-1.3-3 .1-.8.7-1.4 1.1-2.2l.7 2c-.3-.9-.3-1.8-.3-2.7l.3.6c0 .1 0 .4.2.5.3.7.7 1.4 1.2 2l-.9-1.7 1.1 1.2a7.8 7.8 0 0 1-1.4-3.2c0-.5 0-1 .2-1.4l.3-.8v-.1l.1-.3.3-1.5v-.2l.2-1 .6 1.3c-.3-1-.5-1.9-.5-2.9a12.7 12.7 0 0 0 1.4 2.5c-.4-1-.8-1.9-1-2.9.4.5.8 1 1.4 1-.8-.2-1.2-.8-1.5-1.6v-.6c.2.4.6.7 1 .8-.7-.3-1-1-1.1-1.9l-.1-.9c0-.4-.1-.9-.4-1.3-.1-.8-.4-1.6-.7-2.3l-.2-.3v-.2c.4.2.9.2 1.3 0-.6.2-1.2 0-1.7-.4l-.1-.3-.4-.5-1-1-.8-.7-.4-.4-.1-.2c0-.6-.2-1-.4-1.3l-.8-1-1.3-.9a5 5 0 0 0-1.5-.5h-1.6l-.7.1a2 2 0 0 0-.8.2c-.6.2-1 .5-1.4.8l-.3.1-.8.2c-.3 0-.5-.3-.7-.6.1.3.3.7.6.8a2 2 0 0 1-1.4 0c-.4-.2-.7-.6-1-1 .2.4.5.9 1 1.1.3.3.8.3 1.3.2l-.7.4c-.3-.2-.7-.2-1-.2-.4 0-.7.2-1 .4l-.3.3-1.2.5a6 6 0 0 0-2 2.1l-.9 1.2c-.3.3-.7.6-1.2.4.4.3 1 0 1.4-.2l.5-.5-.5.6-.4 1.2c-.2.4-.5.7-1 .6-.3 0-.6-.4-.9-.7.3.3.5.7 1 .8.3.1.6 0 .9-.3v.1l-.1.2v.1h-.1l-.4.7-.2.5-.3.5c-.4.5-1 1-1.8.9.5.2.9 0 1.3-.1l-.3.2-.1.3c-.4.3-.8.5-1.3.4.5.2 1 0 1.5-.2l.8-.7-.8 1-1 .9h-.4.3c-.6.3-1.1.4-1.7.4.8.2 1.7 0 2.5-.4h.1l.3-.1v-.1.3H94v.7l-.1 1-.3 1.3a1 1 0 0 1-.5.6c-.3.1-.7 0-1-.1a1 1 0 0 0 1.4.2l-.9 1c.4-.3.8-.6 1-1l.1.7c0 .4-.2.8-.5 1.2 0 .1-.2.3-.4.2-.2 0-.4-.3-.5-.4 0 .2.2.4.4.5.2.1.6 0 .7-.2.4-.3.6-.7.8-1.2a33.1 33.1 0 0 1 0 .6v1.6c-.2.3-.5.4-.9.4l.8-.1-.4.6c.3-.2.4-.5.6-.8l.2-.2.3-.6c.2.2-.1.6.1.7h.1v.7l-.4.8a1 1 0 0 1-.9.2h1l.6-.9.2-.7.2 1.6c0 .7-.6 1.3-1.3 1.4.3 0 .7-.1 1-.4l.5-.7c0 .5-.1 1-.4 1.3a2 2 0 0 1-1.2.8c.5 0 1-.2 1.4-.6.4-.4.6-.9.7-1.4.2-.7.3-1.5.2-2.3a4.5 4.5 0 0 1-.1 3.6c-.3.4-.7.6-1.2.7.5 0 1-.2 1.3-.6l.7-1c.1.2.2.5.5.6v.3c0 .6 0 1.2-.5 1.7.5-.3.7-.8.9-1.4l.1-.3h.1l.3.6s-.3 0-.3.3l.5-.1.3.3.8 4.4-1.5.5c-.6.8-1.4 1.6-2.3 2.3-.4 1.2-1.4 2-2.1 3-1 .8-2.3 1.5-2.8 2.3-1.6.6-2.8 1.3-4 2.4-.6.5-1.3 1-1.6 1.5-.7 1-.8 2.4-1.5 3.7 0 6.2-1.6 11.1-3.2 16.3-3.3 10-5 21-6.8 32.7-.5 2.7-2.1 6.8.2 8-2 3.6-5 6-7 9.6-.3.7-.2 2.2-.4 3.3 0 .4-.3.8-.3 1.1zM94 349v.2h-.1v-.2zm22 192.2c.6 0 1 1 .5 1.3 0-.6-.4-.7-.4-1.3zm.2 5.1c0 .2 0 .5-.2.4 0-.2 0-.4.2-.4zm-7.5-1.7c-.8 1.5 0-.1 0 0zM107 533c.2-.1.4.3.2.4l-.2-.4zM97 349.2l.1.5v-.5zm12.4-16l-.6-.2c.2 0 .4 0 .6.2z"/></svg>