<svg xmlns="http://www.w3.org/2000/svg" xmlns:xlink="http://www.w3.org/1999/xlink" viewBox="0 0 58 73">
  <path id="a" fill="#fff" transform="translate(-251 -708)" d="M285.6 716.3h-12v-3.6l1-1h9.9l1 1zm-3.7 7.4l-1-.1h-3.7V719h4.7zm-23.6 9.4l-3-3c-.3-.4-.5-.7-.5-1.2 0-.4.2-.8.5-1 .5-.6 1.6-.6 2.2 0l3 3-.4.4-1.4 1.5zm42.5 0l-.3-.4-1.5-1.5-.4-.3 3.1-3.1c.6-.6 1.6-.6 2.2 0 .6.6.6 1.6 0 2.2zm-22.5-1v2c0 .7.6 1.2 1.3 1.2.7 0 1.3-.5 1.3-1.3v-1.8c0-.7-.6-1.3-1.3-1.3-.7 0-1.3.6-1.3 1.3zm-13.8 5c-.2.3-.4.6-.4 1s.2.7.4 1l1.3 1.2c.5.5 1.4.5 1.9 0s.5-1.3 0-1.8l-1.3-1.3a1.4 1.4 0 0 0-1.9.1zm-5 13.8c-.6 0-1.2.6-1.2 1.3 0 .8.6 1.3 1.3 1.3h1.8c.7 0 1.3-.5 1.3-1.3 0-.7-.6-1.3-1.3-1.3zm38.3 0c-.7 0-1.3.6-1.3 1.3 0 .8.6 1.3 1.3 1.3h1.8c.7 0 1.3-.5 1.3-1.3 0-.7-.6-1.3-1.3-1.3zm-21.2 1.3a3 3 0 0 1 3-3 3 3 0 0 1 2 .8l.1.2a3 3 0 0 1 1 2.1 3 3 0 0 1-3 3 3 3 0 0 1-3-3zm-2.6 0a5.6 5.6 0 1 0 11.2 0 6 6 0 0 0-.7-2.6l-.1-.3 10.7-10.7c.5-.5.5-1.3 0-1.8s-1.4-.5-1.9 0l-10.7 10.7-.3-.2c-.8-.4-1.7-.6-2.6-.6a5.6 5.6 0 0 0-5.6 5.6zm-8.2 12l-1.3 1.3c-.2.3-.4.6-.4 1s.2.7.4 1c.5.4 1.4.4 1.9 0l1.3-1.4c.5-.5.5-1.3 0-1.8-.3-.2-.6-.4-1-.4-.3 0-.6.2-.9.4zm25.7 0c-.2.3-.4.6-.4 1 0 .3.2.6.4.8l1.3 1.3c.5.5 1.4.5 1.9 0s.5-1.3 0-1.8l-1.3-1.2c-.3-.3-.6-.4-1-.4-.3 0-.6.1-.9.4zm-13.2 6.3v1.9c0 .7.6 1.3 1.3 1.3.7 0 1.3-.6 1.3-1.3v-1.9c0-.7-.6-1.3-1.3-1.3-.7 0-1.3.6-1.3 1.3zm-24.7-18.2a26 26 0 1 1 52 .1 26 26 0 0 1-52 0zm-.2-26a4.2 4.2 0 0 0 0 5.8l3.3 3.2-.3.4a28.5 28.5 0 0 0 23.2 45.2 28.6 28.6 0 0 0 28.6-28.5c0-3.2-.5-5.2-.8-6.8v-.4a29 29 0 0 0-4.5-9.4l-.2-.4 3.3-3.3a4.1 4.1 0 0 0 0-5.9 4.4 4.4 0 0 0-5.9 0l-3.2 3.2-.4-.2-2-1.3-3.5-1.9c-1.9-.8-4-1.4-6-1.9h-.4V719h2.3c.7 0 1.3-.6 1.3-1.3v-5.5a1 1 0 0 0-.4-.9l-1.8-1.8c-.2-.3-.6-.4-.9-.4h-10.9c-.3 0-.7.1-.9.4l-1.8 1.8c-.2.3-.4.6-.4 1v5.4c0 .7.6 1.3 1.3 1.3h2.4v5l-.4.2c-4 .7-7.9 2.4-11.3 4.8l-.3.3-3.2-3.2c-.8-.8-1.8-1.2-3-1.2s-2.2.4-3 1.2z"/>
</svg>
