<svg xmlns="http://www.w3.org/2000/svg" xmlns:xlink="http://www.w3.org/1999/xlink" viewBox="0 0 62 67">
  <path id="a" fill="#fff" transform="translate(-440 -714)" d="M495.2 757.6a3.8 3.8 0 1 0 0-7.7h-12.8a3.9 3.9 0 0 0-3.9 3.9c0 2 1.8 3.8 4 3.8zm-2.6 10.3c2.2 0 3.9-1.7 3.9-3.9s-1.8-3.8-4-3.8H481a3.9 3.9 0 0 0 0 7.7zm-5.1 10.2c2.1 0 3.9-1.7 3.9-3.8a4 4 0 0 0-3.9-4h-7.7a3.9 3.9 0 0 0 0 7.8zm-12.8 0c-.8-1-1.3-2.4-1.3-3.8 0-2.5 1.3-4.5 3.3-5.6a6.4 6.4 0 0 1 1.3-10.3 6.4 6.4 0 0 1 2.2-10.7 6.5 6.5 0 0 1-1.6-4.3c0-1.4.5-2.7 1.3-3.8h-5.2c-.7 0-1.2-.6-1.2-1.3V723c0-3.5-3-6.4-6.5-6.4h-1.2v10.3l-.2.6-10.1 16.4v30.4c0 2.1 1.7 3.9 3.9 3.9zm10.2-38.5a3.9 3.9 0 1 0 0 7.7h10.3a3.9 3.9 0 1 0 0-7.6zm14.1 9a6.4 6.4 0 0 1-1.6 11.1c1 1.2 1.7 2.7 1.7 4.3 0 3.6-3 6.4-6.5 6.4a6.4 6.4 0 0 1-5.1 10.3h-28.2c-2.1 0-4-1-5.1-2.6h-13c-.6 0-1.2-.6-1.2-1.3s.5-1.3 1.2-1.3h11.6v-33.3h-11.6a1.3 1.3 0 1 1 0-2.5h12.9c.2 0 .5 0 .7.2l8.3-13.5v-11.2c0-.7.5-1.2 1.2-1.2h2.6c5 0 9 4 9 9v14h19.3c3.5 0 6.4 3 6.4 6.4 0 2.1-1 4-2.6 5.2zM450.3 768c0 1.4-1.2 2.5-2.6 2.5a2.6 2.6 0 0 1 0-5c1.4 0 2.6 1.1 2.6 2.5z"/>
</svg>
