<svg xmlns="http://www.w3.org/2000/svg" viewbox="0 0 43 37">
  <path fill="#4A4A4A" fill-rule="evenodd" stroke="#4A4A4A" stroke-width=".8" d="M22.72 14.75v20.58a.87.87 0 1 1-1.74 0V14.75l-8.68 6.32a.87.87 0 0 1-1.03-1.4l10.03-7.3a.87.87 0 0 1 1.08-.01l10.04 7.3a.87.87 0 0 1-.51 1.58.86.86 0 0 1-.51-.17l-8.68-6.32zM34.24 27.8H30.1a.87.87 0 1 1 0-1.74h4.13a5.6 5.6 0 0 0 4.13-1.84 7.32 7.32 0 0 0-7.09-12.45.87.87 0 0 1-1.13-.74 9.59 9.59 0 1 0-18.92 2.83.86.86 0 0 1-.86 1.03H8.43a5.6 5.6 0 0 0 0 11.17h5.15a.87.87 0 0 1 0 1.74H8.43a7.33 7.33 0 0 1 0-14.64h.93a11.33 11.33 0 0 1 22.38-3.3 9.07 9.07 0 0 1 7.87 15.6 7.28 7.28 0 0 1-5.37 2.34z"/>
</svg>
