<svg xmlns="http://www.w3.org/2000/svg" viewBox="0 0 320 568"><linearGradient id="a" x1="119" x2="206" y1="299" y2="299" gradientUnits="userSpaceOnUse"><stop offset=".1" stop-color="#94f2ff"/><stop offset=".3" stop-color="#91f1fd"/><stop offset=".5" stop-color="#88eef8"/><stop offset=".7" stop-color="#79e9ef"/><stop offset=".8" stop-color="#63e1e3"/><stop offset="1" stop-color="#47d8d3"/><stop offset="1" stop-color="#3dd4cd"/></linearGradient><path fill="url(#a)" d="M119 128h87v342h-87z"/><path fill="#009BFF" d="M78.9 38.6c.6 0 1-.2 1.4-.6l.2-.6.1-1.7V22.3c0-.2 0-.3.2-.4l.4-.1h1.7l.4.1.1.4v13.3c0 2-.3 3.5-1 4.3-.7.9-2 1.3-3.5 1.3l-.5-.1v-2.4l.5-.1zm14.7 2.6h-5.9l-.4-.1-.1-.5V22l.5-.1h5.9l.4.1.1.4v1.5l-.1.5h-3.5c-.3 0-.5.1-.5.2v5h3.5c.3 0 .4.1.5.2l.1.4v1.5l-.1.4-.4.2H90v6.2h3.5c.3 0 .4.1.5.2l.1.4v1.5l-.1.5h-.4zM105 21.8h3.2c1.4 0 2.4.4 3.3 1.3a6 6 0 0 1 1.2 4v8.8c0 1.7-.4 3-1.2 4-.9.8-2 1.3-3.3 1.3H105l-.4-.1-.1-.5V22l.5-.1zm2.1 3.1V38l.1.5h1c.5 0 1 0 1.2-.4.3-.4.5-.8.5-1.5V26.4c0-.7-.2-1.2-.5-1.5s-.7-.5-1.2-.5h-1v.5zm17.8 2.1v9c0 1.8-.4 3-1.3 4-.8.8-1.8 1.3-3.2 1.3s-2.4-.4-3.2-1.3-1.2-2.2-1.2-4v-9c0-1.8.4-3 1.2-4s1.9-1.3 3.2-1.3 2.4.4 3.2 1.3c.9 1 1.3 2.2 1.3 4zm-2.8 9.8V26.2c0-.8-.2-1.4-.8-1.7-.6-.4-1.2-.4-1.7 0s-.9.9-.8 1.7v10.6c0 .8.2 1.4.8 1.7.5.4 1.1.4 1.7 0 .6-.3.8-1 .8-1.7zm9.1-14.5v18.8h-2.6l-.1-.5V22l.5-.1h1.7l.4.1.1.4zm7.6 19c-1.3 0-2.3-.4-3.2-1.3-.8-1-1.3-2-1.2-3.2v-.5l.5-.2h1.7c.3 0 .5.3.5.7 0 .6.2 1 .5 1.4.2.4.7.5 1.2.5s.9-.1 1.2-.4.5-.7.5-1.2c.2-1.1-.4-2.5-1.8-4a22.4 22.4 0 0 1-1.1-1.4l-.6-.7-.6-.8a23.3 23.3 0 0 0-1-1.6 47.1 47.1 0 0 0-.6-1.7l-.1-.8a4 4 0 0 1 4-4.4 4 4 0 0 1 4 3.7v.7l-.5.2h-1.6c-.2 0-.3 0-.4-.2l-.1-.4c0-.5-.1-.8-.4-1.1-.2-.2-.5-.4-1-.4s-.8.2-1 .6-.4.8-.3 1.2c0 .7.4 1.5 1 2.3l1.8 2.4c.7.7 1.3 1.6 2 2.6.5 1 .9 2 1 3 .2 1.3-.2 2.4-1 3.5-.9 1-2 1.5-3.4 1.5zm22.7-.1h-1.3a.5.5 0 0 1-.5-.3L156 30.5c0-.1-.1-.1-.1 0v10.1l-.2.5h-2.5l-.2-.5V22.3c0-.2 0-.3.2-.4l.4-.1h1.2c.3 0 .5.1.6.4l3.7 10.3v.1h.1V22.3l.2-.4.4-.1h1.7l.4.1.1.4v18.8h-.5zm10.8 0h-5.8l-.5-.1V22l.5-.1h5.8l.5.1v2.4h-3.5c-.3 0-.5.1-.5.2l-.1.4v4.7h3.6l.5.2V32l-.5.2h-3.5l-.1.5v5.7h3.6l.5.2V41h-.5zm-2.5-20.4h-1c-.2 0-.3 0-.3-.3v-2.7c0-.2 0-.3.2-.4l.4-.2h1.6c.5 0 .6.3.4.8l-.8 2.3-.2.5h-.3zm9.2 5.4v10.6c0 .8.2 1.4.8 1.7.5.4 1.1.4 1.7 0 .6-.3.9-1 .8-1.7v-4.5h-.8l-.4-.1-.1-.5v-1.9l.5-.1h3.4l.2.5V36c0 1.7-.4 3-1.2 3.9s-1.9 1.4-3.3 1.4c-1.3 0-2.4-.4-3.2-1.3s-1.2-2.2-1.2-4v-9c0-1.8.4-3 1.2-4s2-1.3 3.2-1.3a4 4 0 0 1 3 1.1c.9.8 1.3 2 1.4 3.5 0 .4-.1.7-.5.7h-1.6c-.2 0-.4 0-.5-.2l-.1-.4v-.2c0-.8-.2-1.4-.8-1.7-.6-.4-1.2-.4-1.7 0s-.9.9-.8 1.7zm18.3.8v9c0 1.8-.4 3-1.3 4-.8.8-1.8 1.3-3.2 1.3s-2.4-.4-3.2-1.3-1.2-2.2-1.2-4v-9c0-1.8.4-3 1.2-4s1.9-1.3 3.2-1.3 2.4.4 3.2 1.3c.9 1 1.3 2.2 1.3 4zm-2.8 9.8V26.2c0-.8-.2-1.4-.8-1.7-.6-.4-1.2-.4-1.7 0s-.9.9-.8 1.7v10.6c0 .8.2 1.4.8 1.7.5.4 1.1.4 1.7 0 .6-.3.8-1 .8-1.7zm8.9-10.6v10.6c-.1.8.2 1.4.7 1.7.6.4 1.2.4 1.8 0 .6-.3.8-1 .8-1.7v-.2l.1-.5.4-.1h1.7c.4 0 .6.2.5.7a5.1 5.1 0 0 1-1.3 3.4 4 4 0 0 1-3 1.2c-1.4 0-2.5-.5-3.3-1.3s-1.2-2.3-1.2-4v-9c0-1.8.4-3 1.2-4s1.9-1.3 3.2-1.3a4 4 0 0 1 3 1.1c.9.8 1.3 2 1.4 3.5 0 .4-.1.7-.5.7h-1.7c-.2 0-.3 0-.4-.2l-.1-.4v-.2c0-.8-.2-1.4-.8-1.8-.6-.3-1.2-.3-1.8 0s-.8 1-.7 1.8zm12.3-3.9v18.3l-.1.5H213V22l.5-.1h1.6l.5.1v.4zM226 41.2h-6l-.4-.1-.1-.5V22l.5-.1h5.9l.4.1.1.4v1.5l-.1.5h-3.5c-.3 0-.4.1-.5.2v5h3.5c.3 0 .4.1.5.2l.1.4v1.5l-.1.4-.4.2h-3.6v6.2h3.5c.3 0 .4.1.5.2l.1.4v1.5l-.1.5h-.4zm4.7-19.4h3.6c1.3 0 2.3.4 3 1.3.8.8 1.1 2.1 1.1 3.8v1c0 2.1-.5 3.6-1.6 4.4l1.6 8.3c.1.4 0 .6-.3.6h-1.8a2 2 0 0 1-.3 0l-.2-.1v-.3l-1.5-7.5c0-.1-.1-.2-.3-.2h-1l-.1.5v7l-.1.5h-2.5l-.2-.5V22.3c0-.2 0-.3.2-.4l.4-.1zm3.6 2.4h-.9l-.4.1-.1.5v5.8h1.4c.9 0 1.4-.6 1.4-2v-2.4c0-1.3-.5-2-1.4-2zM92.6 72.6h-2l-.2-.1v-.3l-.3-1.5c0-.3-.1-.5-.2-.5h-3.4l-.2.5-.2 1.5-.1.3h-2.2a2 2 0 0 1-.2 0h-.2V72l3.4-18.4.2-.4.5-.1h1.9l.2.5L93 72l-.1.4h-.4zM88 60.2L87 67v.4l.4.1h2.1V67l-1.2-6.8H88zm14-7h2l.2.1v.4L100.7 72l-.1.4h-2.4L98 72l-3.5-18.4v-.4l.5-.1h2l.1.1.2.3 2 12h.2l2-12 .1-.3h.2l.3-.1zm11.8 19.4h-5.9l-.4-.1-.1-.5V53.7l.1-.4.4-.1h5.9l.4.1.1.4v2l-.5.1h-3.6V61h3.5c.3 0 .4.1.5.2l.1.4v1.9l-.5.2h-3.6V70h3.5c.3 0 .4.1.5.2l.1.4v2h-.5zm6.6-15v10.6c0 .8.2 1.4.8 1.7s1.2.4 1.8 0c.5-.3.8-1 .8-1.7v-.7h2.1c.4 0 .6.1.6.6a5.1 5.1 0 0 1-1.4 3.4 4 4 0 0 1-3 1.2 4 4 0 0 1-3.2-1.3 6 6 0 0 1-1.2-4v-9c0-1.8.4-3 1.2-4a4 4 0 0 1 3.2-1.3c1.2 0 2.2.4 3 1.1.8.8 1.3 2 1.4 3.5 0 .4-.1.7-.6.7h-1.6c-.2 0-.3 0-.4-.2l-.1-.4v-.2c0-.8-.3-1.4-.8-1.7-.6-.4-1.2-.4-1.8 0-.6.3-.8.9-.8 1.7zm24.8.7v9.1c0 2.2-.6 3.7-2 4.6l.5 1.8c.1.3 0 .5-.4.6l-1.6.5c-.3 0-.5 0-.6-.4l-.5-1.8a4 4 0 0 1-3-1.4c-.9-1-1.2-2.2-1.2-3.9v-9c0-1.8.4-3 1.2-4 .8-.9 1.9-1.3 3.2-1.3s2.4.4 3.2 1.3a6 6 0 0 1 1.2 4zm-2.7 9.9V57.6c0-.8-.3-1.4-.8-1.7-.6-.4-1.2-.4-1.8 0-.6.3-.8.9-.8 1.7v10.6c0 .8.2 1.4.8 1.7s1.2.4 1.8 0c.5-.3.8-1 .8-1.7zm12.3 0V53.7l.1-.4.4-.1h1.7l.4.1.2.4v13.7c0 1.8-.4 3-1.3 4-.8.9-1.8 1.3-3.2 1.3a4 4 0 0 1-3.2-1.3 6 6 0 0 1-1.2-4V53.7l.1-.4.4-.1h1.7l.4.1.2.4v14.5c0 .8.2 1.4.8 1.7s1.1.4 1.7 0 .8-1 .8-1.7zm12.9 4.4h-5.8l-.5-.1-.1-.5V53.7l.1-.4.5-.1h5.8l.4.1.2.4v1.5c0 .2 0 .4-.2.5l-.4.1h-3.6V61h3.6l.4.2.2.4v1.5c0 .2 0 .4-.2.4l-.4.2h-3.6V70h3.6l.4.2.2.4V72c0 .2 0 .4-.2.5h-.4zm10.6 0h-5.9l-.4-.1-.1-.5V53.3l.5-.1h1.7l.4.1.1.4V70h3.6c.3 0 .4.1.5.2l.1.4V72l-.1.5h-.4zm12-14.3v9.1c0 2.2-.6 3.7-2 4.6l.5 1.8c.1.3 0 .5-.4.6l-1.6.5c-.3 0-.5 0-.6-.4l-.5-1.8a4 4 0 0 1-3.1-1.4c-.8-1-1.2-2.2-1.2-3.9v-9c0-1.8.4-3 1.3-4 .8-.9 1.8-1.3 3.2-1.3s2.4.4 3.2 1.3a6 6 0 0 1 1.2 4zm-2.8 9.9V57.6c0-.8-.2-1.4-.8-1.7-.5-.4-1.1-.4-1.7 0-.6.3-.8.9-.8 1.7v10.6c0 .8.2 1.4.8 1.7s1.2.4 1.7 0c.6-.3.9-1 .8-1.7zm12.4 0V53.3l.5-.1h1.7l.4.1.1.4v13.7a6 6 0 0 1-1.2 4 4 4 0 0 1-3.2 1.3 4 4 0 0 1-3.2-1.3 6 6 0 0 1-1.2-4V53.7l.1-.4.4-.1h1.7l.4.1.1.4v14.5c0 .8.3 1.4.8 1.7s1.2.4 1.8 0 .8-1 .8-1.7zm5.8-13.4c0-.5.1-.8.4-1.1.3-.4.7-.5 1.1-.5.4 0 .7.1 1 .3.3.2.5.6.6 1 .1.3.2.8.1 1.2 0 .5-.2 1-.5 1.6-.3.6-.8 1.2-1.3 1.8-.1.1-.3.1-.4 0l-.5-.4c-.2 0-.2-.2-.1-.3.4-.6.7-1 .7-1.4s0-.5-.2-.7l-.6-.6c-.2-.3-.3-.6-.3-1zm12.4 13.4V53.7l.1-.4.5-.1h1.6l.4.1.2.4v13.7a6 6 0 0 1-1.2 4c-.9.9-2 1.3-3.3 1.3a4 4 0 0 1-3.2-1.3 6 6 0 0 1-1.2-4V53.7l.1-.4.5-.1h1.6l.5.1v14.9c0 .8.3 1.4.9 1.7s1.1.4 1.7 0 .9-1 .8-1.7zm14.9 4.4h-1.2c-.3 0-.5-.1-.5-.3l-3.7-10.4h-.2V72l-.1.5h-2.6V53.3l.5-.1h1.2c.3 0 .5.1.6.4l3.6 10.3.1.1h.1c.1 0 0 0 0-.1V53.7c0-.2 0-.3.2-.4l.4-.1h1.7l.4.1.1.4V72l-.1.5h-.4z"/><path fill="#002CFF" d="M105.2 295.5a8 8 0 0 1-1.6 5.2v.4c1 1.3 1.6 3 1.6 5.3v1.4c0 2.4-.6 4.2-1.7 5.5A5.7 5.7 0 0 1 99 315h-4.6l-.6-.1-.2-.6v-25.5c0-.2 0-.4.2-.6l.6-.1H99c1.9 0 3.4.6 4.5 1.8a8.2 8.2 0 0 1 1.7 5.5zm-7.7-3v6.5l.8.1h.7c1.6-.1 2.3-1 2.3-2.8v-1.7c0-1-.2-1.7-.6-2.1-.4-.5-1-.7-1.7-.7h-1.4l-.1.8zm0 11v7.9l.8.1h.7c.7 0 1.3-.2 1.7-.7.4-.4.6-1.1.6-2v-3.3c0-1-.2-1.6-.6-2-.4-.5-1-.8-1.7-.8h-1l-.4.2v.6z"/><path fill="#009BFF" d="M233.4 153h-2.7c-.1 0-.2 0-.3-.2l-.2-.4-.3-2c0-.4-.2-.7-.2-.7l-.7-.1h-4l-.3.8-.3 2-.2.4-.2.2h-3.2l-.2-.2v-.4l4.8-25.7.2-.5.7-.2h2c.4 0 .6 0 .7.2l.2.5 4.8 25.7v.5l-.6.1zm-6.3-17.2l-1.5 9.4v.7h3.4v-.7l-1.5-9.4-.2-.1-.2.1z"/><path fill="#009BFF" stroke="#009BFF" stroke-miterlimit="10" stroke-width="5" d="M119.5 128v342m87-342v342"/><path fill="#009BFF" d="M219 229H90"/><g fill="none" stroke="#009BFF" stroke-linecap="round" stroke-linejoin="round" stroke-width="3"><path d="M219 229.5h-4"/><path stroke-dasharray="8 8" d="M207 229.5H98"/><path d="M94 229.5h-4"/></g><path fill="#009BFF" d="M219 179H90"/><g fill="none" stroke="#009BFF" stroke-linecap="round" stroke-linejoin="round" stroke-width="3"><path d="M219 179.5h-4"/><path stroke-dasharray="8 8" d="M207 179.5H98"/><path d="M94 179.5h-4"/></g><path fill="#002CFF" d="M235 400H106"/><g fill="none" stroke="#002CFF" stroke-linecap="round" stroke-linejoin="round" stroke-width="3"><path d="M235 400.5h-4"/><path stroke-dasharray="8 8" d="M223 400.5H114"/><path d="M110 400.5h-4"/></g><path fill="#002CFF" d="M235 350H106"/><g fill="none" stroke="#002CFF" stroke-linecap="round" stroke-linejoin="round" stroke-width="3"><path d="M235 350.5h-4"/><path stroke-dasharray="8 8" d="M223 350.5H114"/><path d="M110 350.5h-4"/></g><path fill="#002CFF" d="M197.4 370.9h22.4v11.9h-22.4z"/><path fill="#002CFF" d="M234.8 376.9l-21.2 8.6 5-8.6-5-8.7z"/><path fill="#009BFF" d="M105.6 199.8H128v11.9h-22.4z"/><path fill="#009BFF" d="M90.5 205.7l21.2-8.7-5 8.7 5 8.7z"/><path fill="#4A4A4A" d="M30.5 484.2c0-.3.1-.5.3-.5h.3c.2 0 .3.2.3.4 0 .6.2 1 .6 1.3.3.4.7.5 1.2.5.6 0 1.1-.2 1.5-.7.3-.4.5-1 .4-1.5 0-.4-.2-.7-.4-1a7.6 7.6 0 0 0-1.5-1.7l-.2-.2-.3-.3-.2-.2-.6-.6-.2-.2-.2-.2-.4-.6-.3-1.3c0-.7.1-1.4.6-2 .4-.4 1-.7 1.8-.7a2 2 0 0 1 1.6.7c.5.4.7 1 .8 1.7 0 .2-.2.2-.4.2h-.1c-.2 0-.3 0-.4-.2 0-.5-.2-.8-.4-1.1s-.7-.5-1.1-.5c-.5 0-.9.2-1.2.5a2 2 0 0 0-.4 1.3c0 .4.2.8.5 1.2.2.4.7.9 1.3 1.5a27.4 27.4 0 0 1 2 2.3c.3.4.5.9.5 1.4.1.8 0 1.5-.6 2.1-.5.6-1.2 1-2 1s-1.4-.3-2-.8c-.4-.5-.7-1.1-.8-1.8zm6.9-.5v-2.6c0-1 .2-1.8.6-2.3.4-.5 1-.7 1.6-.7s1.3.2 1.7.7c.4.5.6 1.3.6 2.3v1.2h-3.7v1.9c0 .6 0 1 .3 1.4.3.3.6.4 1 .4s.8-.1 1-.4c.2-.2.4-.6.4-1v-.4h.8v.2c0 .7-.1 1.2-.5 1.7s-1 .7-1.7.7a2 2 0 0 1-1.6-.7c-.4-.5-.6-1.2-.6-2.3zm.8-3v.8H41v-.8c0-.6 0-1-.3-1.3-.3-.3-.6-.5-1-.5s-.8.2-1 .5c-.3.3-.5.7-.5 1.3zm7 5.2h.3v.7h-.3c-.6 0-1-.2-1.2-.6l-.3-1v-10.3h.8v9.3l.2 1.2c0 .4.2.5.5.6zm1.7-2.2v-2.6c0-1 .2-1.8.6-2.3.4-.5 1-.7 1.7-.7s1.2.2 1.6.7c.5.5.7 1.3.7 2.3v2.6c0 1-.2 1.8-.7 2.3-.4.5-1 .7-1.6.7s-1.3-.2-1.7-.7c-.4-.5-.6-1.2-.6-2.3zm3.7.4v-3.4c0-.6-.2-1-.4-1.3-.3-.3-.6-.5-1-.5s-.8.2-1 .5c-.3.3-.4.7-.4 1.3v3.4c0 .6.1 1 .4 1.4.2.3.5.4 1 .4s.7-.1 1-.4c.2-.3.4-.8.4-1.4zm6.3 2.2v-5.6c0-1.2-.5-1.8-1.4-1.8s-1.3.6-1.3 1.8v5.9h-.8v-8.4h.7l.1.3v.3c.3-.4.8-.7 1.4-.7.6 0 1.2.2 1.6.7s.5 1.3.5 2.3v5.5h-.8v-.3zm11.3-8.6v.2c0 1.1-.3 2-1 2.4v.2c.7.4 1 1.3 1 2.4v.9c0 1-.2 1.6-.7 2.1-.4.5-1 .8-1.8.8h-2.2l-.3-.1v-11.9h2.5c.7 0 1.4.2 1.8.7s.7 1.2.7 2.2zm-4.2-1.8v4h1.7c.5 0 .9-.1 1.2-.5.3-.3.4-.8.4-1.5v-.2c0-.7-.1-1.2-.4-1.6-.3-.3-.8-.5-1.3-.5H64v.3zm0 5.2v4.7h1.6c.5 0 1-.1 1.3-.5.3-.3.4-.8.4-1.5v-1c0-.6-.1-1-.4-1.4-.3-.4-.7-.6-1.2-.6H64v.3zm5.7 5l.1-.4c.1-.2.3-.1.4-.1.2 0 .4 0 .5.2.1.2.1.4 0 .8s-.2.6-.6 1h-.3v-.2c.2-.3.3-.5.2-.6l-.2-.3-.1-.4zm6.3-8.7c-.3 0-.4 0-.5-.3v-.5c0-.2.2-.3.4-.3s.4.1.5.3v.5c0 .2-.2.3-.5.3zm.4 1.1v7.8l-.1.3h-.7l-.1-.3v-8.1h.8v.3zm3.4 7.4h.3v.7h-.3c-.6 0-1-.2-1.2-.6l-.2-1v-10.3h.7l.1.3v10.2c.2.4.3.5.6.6zm7.4-10.3c-.5 0-.8.2-1 .5a4 4 0 0 0-.2 1.6v.7c0 .1 0 .2.2.2h.8v.7h-.8l-.2.2v7.1h-.8v-7.1l-.3-.1-.2-.1-.1-.3v-.4h.3c.2 0 .2-.1.2-.2v-1.5a6.3 6.3 0 0 1 .3-1.3l.1-.1.1-.1.1-.1a4 4 0 0 1 .3-.2c.2-.2.6-.3 1.2-.3h.3v.7h-.3zm3.6 3.4c-.8 0-1.3.4-1.4 1.4v.3l-.2.1h-.5l-.1-.3c0-.6.2-1.2.5-1.7.4-.5 1-.7 1.7-.7 1.5 0 2.2 1 2.2 3v4.2l.1 1c0 .3 0 .4-.3.4h-.3l-.2-.1-.2-.5c-.4.4-.9.6-1.5.6s-1.2-.2-1.6-.6c-.4-.3-.6-.9-.6-1.6v-.6c0-.5.2-.9.4-1.2.3-.3.6-.6 1-.7l1-.5c.4 0 .7-.2 1-.4l.3-.6c0-.5-.1-.8-.3-1.1-.3-.3-.6-.5-1-.5zm0 7c.5-.1.8-.3 1-.5s.3-.7.3-1.2v-2.5l-.8.3-.8.3c-.9.4-1.2 1-1.2 1.8 0 1.2.5 1.8 1.6 1.7zm5-7.5v5.6c0 1.2.4 1.8 1.3 1.8s1.3-.6 1.3-1.8v-5.9h.8v8.4h-.7v-.6c-.4.5-.9.7-1.5.7s-1.2-.2-1.6-.7c-.3-.5-.5-1.2-.5-2.3v-5.5h.8v.3zm6.4-1.8v1.7c0 .1 0 .2.2.2h.6v.7h-.6c-.1 0-.2.1-.2.3v5.7c.2.4.3.5.6.6h.3v.7h-.3c-.6 0-1-.2-1.2-.6l-.2-1v-5.4c0-.2-.1-.2-.2-.2h-.3v-.7l.3-.1.1-.2v-1.7l.1-.3h.7l.1.3zm5.9 12.7v-11.2h.8l.1.3v.3c.3-.4.8-.7 1.4-.7.6 0 1.2.2 1.6.7s.5 1.3.5 2.3v2.6c0 1-.2 1.8-.5 2.3s-1 .8-1.6.7c-.6 0-1-.2-1.4-.7v3.7h-.8v-.3zm3.6-5.3v-3.4c0-1.2-.5-1.8-1.4-1.8s-1.3.6-1.3 1.8v3.4c0 1.2.4 1.8 1.3 1.8s1.4-.6 1.4-1.8zm4.8-5.1c-.8 0-1.2.4-1.3 1.4v.3l-.3.1h-.5v-.3c0-.6.1-1.2.5-1.7.3-.5.9-.7 1.6-.7 1.5 0 2.2 1 2.2 3v4.2c0 .2 0 .6.2 1 0 .3 0 .4-.4.4h-.3l-.2-.1-.1-.5c-.4.4-1 .6-1.6.6s-1.2-.2-1.5-.6c-.4-.3-.6-.9-.6-1.6v-.6c0-.5.1-.9.4-1.2.2-.3.5-.6.9-.7l1-.5c.4 0 .7-.2 1-.4l.3-.6c0-.5 0-.8-.3-1.1-.2-.3-.5-.5-1-.5zm.1 7l1-.5c.3-.2.3-.7.3-1.2v-2.5l-.9.3-.8.3c-.8.4-1.2 1-1.1 1.8 0 1.2.5 1.8 1.5 1.7zm7.8-6v.3h-.5c-.2 0-.3 0-.3-.2 0-.3-.1-.6-.3-.8-.3-.3-.5-.4-.8-.4s-.6.1-.8.3a1 1 0 0 0-.4.8c0 .3.2.6.4 1l.8.7a45 45 0 0 1 1.9 1.7l.3 1.2a2 2 0 0 1-.7 1.5 2.5 2.5 0 0 1-3.2 0c-.4-.4-.6-1-.6-1.5v-.3h.5c.2 0 .3 0 .3.3 0 .4.2.7.5 1 .3.2.6.3 1 .3a1.3 1.3 0 0 0 1.3-1.4c0-.3-.2-.7-.5-1a6 6 0 0 0-1.2-1l-1.1-1a2 2 0 0 1-.5-1.4c0-.6.1-1 .5-1.4.4-.4.9-.6 1.4-.6s1 .2 1.4.5c.4.4.6.8.6 1.4zm5.6 0v.3h-.5c-.2 0-.3 0-.3-.2 0-.3-.2-.6-.4-.8-.2-.3-.5-.4-.8-.4s-.6.1-.8.3a1 1 0 0 0-.3.8l.3 1 .9.7a45 45 0 0 1 1.8 1.7l.3 1.2a2 2 0 0 1-.7 1.5c-.4.4-1 .6-1.5.6a2.2 2.2 0 0 1-2.2-2.2v-.2h.4c.2 0 .4 0 .4.3 0 .4.2.7.4 1 .3.2.6.3 1 .3a1.3 1.3 0 0 0 1.3-1.4c0-.3-.1-.7-.5-1a6 6 0 0 0-1.1-1l-1.2-1a2 2 0 0 1-.5-1.4c0-.6.2-1 .6-1.4.4-.4.8-.6 1.4-.6s1 .2 1.4.5c.3.4.5.8.6 1.4zm1.6 3.7v-2.6c0-1 .2-1.8.6-2.3.4-.5 1-.7 1.7-.7s1.2.2 1.7.7c.4.5.6 1.3.6 2.3v1l-.1.2h-3.6v1.9c0 .6.1 1 .4 1.4.2.3.6.4 1 .4s.7-.1 1-.4c.2-.2.3-.6.4-1v-.4h.8v.2c0 .7-.2 1.2-.6 1.7-.3.5-.9.7-1.6.7a2 2 0 0 1-1.7-.7c-.4-.5-.6-1.2-.6-2.3zm.9-3v.8h2.7v-.8c0-.6 0-1-.3-1.3-.2-.3-.6-.5-1-.5s-.8.2-1 .5c-.3.3-.4.7-.4 1.3zm7.7-1.6h-.4c-.4 0-.7.1-.8.5v6.7c0 .2-.1.2-.2.3h-.7v-8.4h.7l.1.3v.2a2 2 0 0 1 1.2-.5h.3l.1.3v.6h-.3zm5.2 10.3v-11.2h.8v.6c.4-.4.8-.7 1.4-.7.7 0 1.2.2 1.6.7s.6 1.3.6 2.3v2.6c0 1-.2 1.8-.6 2.3s-.9.8-1.6.7c-.6 0-1-.2-1.3-.7v3.4l-.1.3h-.7l-.1-.3zm3.5-5.3v-3.4c0-1.2-.4-1.8-1.3-1.8s-1.3.6-1.3 1.8v3.4c0 1.2.4 1.8 1.3 1.8s1.3-.6 1.3-1.8zm4.9-5.1c-.8 0-1.3.4-1.4 1.4v.3l-.2.1h-.5l-.1-.3c0-.6.2-1.2.5-1.7.4-.5 1-.7 1.7-.7 1.5 0 2.2 1 2.2 3v4.2l.1 1c.1.3 0 .4-.3.4h-.3l-.2-.1-.2-.5c-.4.4-.9.6-1.5.6s-1.2-.2-1.6-.6c-.4-.3-.6-.9-.6-1.6v-.6c0-.5.2-.9.4-1.2.3-.3.6-.6 1-.7l1-.5c.4 0 .7-.2 1-.4l.3-.6c0-.5-.1-.8-.3-1.1-.3-.3-.6-.5-1-.5zm0 7c.5-.1.8-.3 1-.5s.3-.7.3-1.2v-2.5l-.8.3-.8.3c-.9.4-1.2 1-1.2 1.8 0 1.2.5 1.8 1.6 1.7zm6.3-6.9h-.4c-.4 0-.6.1-.8.5v6.7l-.1.3h-.8v-8.4h.8v.5c.4-.3.8-.5 1.3-.5h.3v.9h-.3zm5.6-1.7c-.2 0-.3 0-.4-.3v-.5c0-.2.2-.3.4-.3s.4.1.5.3v.5c0 .2-.2.3-.5.3zm.5 1.1v8.1h-.9l-.1-.3v-8.1h.8v.3zm4.1 8.2a2 2 0 0 1-1.6-.7c-.4-.5-.6-1.2-.6-2.3v-2.6c0-1 .2-1.8.6-2.3a2 2 0 0 1 1.6-.7c.8 0 1.3.2 1.7.7.4.5.6 1 .6 1.7l-.1.2-.2.1h-.5v-.4c-.1-.5-.3-.8-.5-1-.2-.4-.6-.5-1-.5s-.7.2-1 .5c-.2.3-.4.7-.4 1.3v3.4c0 .6.2 1 .4 1.4.3.3.6.4 1 .4s.8-.1 1-.4c.2-.2.4-.6.4-1v-.4h.8v.2c0 .7-.1 1.2-.5 1.7s-1 .7-1.7.7zm4.6-9.3c-.2 0-.4 0-.5-.3v-.5c.1-.2.3-.3.5-.3s.3.1.4.3v.5c0 .2-.2.3-.4.3zm.4 1.1v8.1h-.8v-8.4h.7l.1.3zM133 112.2c0-.3.2-.5.4-.5h.3c.2 0 .3.2.3.4a1.7 1.7 0 0 0 1.8 1.8c.6 0 1-.2 1.4-.7.4-.4.5-1 .4-1.5 0-.4-.1-.7-.4-1a7.6 7.6 0 0 0-1.4-1.7l-.2-.2-.3-.3-.2-.2-.6-.6-.2-.2-.2-.2-.4-.6-.4-1.3c0-.7.2-1.4.7-2 .4-.4 1-.7 1.8-.7.6 0 1.1.2 1.6.7.5.4.7 1 .7 1.7 0 .2 0 .2-.3.2h-.1c-.2 0-.4 0-.4-.2 0-.5-.2-.8-.5-1.1s-.6-.5-1-.5c-.5 0-.9.2-1.2.5a2 2 0 0 0-.4 1.3c0 .4.2.8.4 1.2l1.4 1.5a27.4 27.4 0 0 1 2 2.3c.3.4.5.9.5 1.4.1.8-.1 1.5-.6 2.1-.6.6-1.2 1-2.1 1a3 3 0 0 1-1.9-.8c-.5-.5-.8-1-.8-1.8zm7-.5v-2.6c0-1 .1-1.8.5-2.3.5-.5 1-.7 1.7-.7s1.3.2 1.7.7c.4.5.6 1.3.6 2.3v1.2h-3.7v1.9c0 .6 0 1 .3 1.4.2.3.6.4 1 .4s.7-.1 1-.4c.2-.2.4-.6.4-1v-.4h.8v.2c0 .7-.2 1.2-.5 1.7-.4.5-1 .7-1.7.7a2 2 0 0 1-1.7-.7c-.4-.5-.6-1.2-.6-2.3zm.8-3v.8h2.8v-.8c0-.6-.1-1-.4-1.3-.2-.3-.6-.5-1-.5s-.8.2-1 .5c-.3.3-.4.7-.4 1.3zm7 5.2h.2l.1.3v.4h-.3c-.6 0-1-.2-1.3-.6l-.2-1v-10.3h.8v9.3l.1 1.2c.1.4.3.5.6.6zm1.7-2.2v-2.6c0-1 .2-1.8.6-2.3.4-.5 1-.7 1.7-.7s1.2.2 1.6.7c.4.5.6 1.3.6 2.3v2.6c0 1-.2 1.8-.6 2.3-.4.5-1 .7-1.7.7s-1.2-.2-1.6-.7c-.4-.5-.6-1.2-.6-2.3zm3.6.4v-3.4c0-.6 0-1-.3-1.3-.3-.3-.6-.5-1-.5s-.8.2-1 .5c-.3.3-.4.7-.4 1.3v3.4c0 .6 0 1 .3 1.4.3.3.6.4 1 .4s.8-.1 1-.4c.3-.3.4-.8.4-1.4zm6.3 2.2v-5.6c0-1.2-.4-1.8-1.3-1.8s-1.3.6-1.3 1.8v5.9h-.9l-.1-.3v-8.1h.8v.6c.4-.4.9-.7 1.4-.7.7 0 1.3.2 1.6.7s.6 1.3.6 2.3v5.5h-.8v-.3zm11.1.4h-.4v-.1l-.2-.2-.2-1.3-.1-.3h-3v.3l-.3 1.3-.1.2h-.7l-.1-.2 2.1-11.3.1-.3h1l.1.3 2.1 11.3v.2h-.3zm-2.5-10.3l-1.2 7.2v.3h2.6v-.3l-1.2-7.2h-.1zm4.1 9.7l.2-.4c.2-.2.2-.1.3-.1.2 0 .4 0 .5.2.1.2.2.4.1.8s-.3.6-.6 1h-.3c0-.1-.1-.2 0-.2l.2-.6-.2-.3-.2-.4zm6.3-8.7c-.2 0-.4 0-.5-.3v-.5c.1-.2.3-.3.5-.3s.3.1.4.3v.5c0 .2-.2.3-.4.3zm.4 1.1v8.1h-.8v-8.4h.7l.1.3zm3.5 7.4h.2l.1.3v.4h-.3c-.6 0-1-.2-1.3-.6l-.2-1v-10.3h.8v9.3l.1 1.2c0 .4.3.5.6.6zm7.4-10.3c-.6 0-.9.2-1 .5a4 4 0 0 0-.3 1.6v.7c0 .1 0 .2.2.2h.9l.1.3v.4h-1l-.2.2v7.1h-.8v-7.1l-.2-.1-.3-.1v-.7h.3l.2-.2v-1.5a6.3 6.3 0 0 1 .3-1.3v-.1l.2-.1v-.1a4 4 0 0 1 .3-.2c.3-.2.7-.3 1.3-.3h.2l.1.3v.4h-.3zm3.5 3.4c-.8 0-1.2.4-1.3 1.4v.3l-.3.1h-.5v-.3c0-.6.1-1.2.5-1.7.3-.5.9-.7 1.6-.7 1.5 0 2.2 1 2.2 3v4.2c0 .2 0 .6.2 1 0 .3 0 .4-.4.4h-.3l-.2-.1-.1-.5c-.4.4-1 .6-1.6.6s-1.2-.2-1.5-.6c-.4-.3-.6-.9-.6-1.6v-.6c0-.5.1-.9.4-1.2.2-.3.5-.6.9-.7l1-.5c.4 0 .7-.2 1-.4l.3-.6c0-.5 0-.8-.3-1.1-.2-.3-.5-.5-1-.5zm.1 7l1-.5c.2-.2.3-.7.3-1.2v-2.5l-.9.3-.8.3c-.8.4-1.2 1-1.1 1.8 0 1.2.5 1.8 1.5 1.7zm4.9-7.5v5.6c0 1.2.4 1.8 1.3 1.8s1.3-.6 1.3-1.8v-5.6l.1-.3h.8v8.4h-.8v-.6c-.4.5-.8.7-1.4.7-.7 0-1.2-.2-1.6-.7-.4-.5-.6-1.2-.6-2.3v-5.5h.8v.3zm6.5-1.8v1.7l.1.2h.6v.7h-.6l-.1.3v5.7c0 .4.3.5.6.5l.2.1.1.3v.4h-.3c-.6 0-1-.2-1.3-.6l-.2-1v-5.4c0-.2 0-.2-.2-.2h-.3v-.7l.3-.1c.1 0 .2 0 .2-.2v-2h.8v.3zm5.9 12.7v-11.2h.8v.6c.4-.4.8-.7 1.4-.7.7 0 1.2.2 1.6.7s.6 1.3.6 2.3v2.6c0 1-.2 1.8-.6 2.3s-1 .8-1.6.7c-.6 0-1-.2-1.4-.7v3.7h-.8v-.3zm3.5-5.3v-3.4c0-1.2-.5-1.8-1.3-1.8s-1.4.6-1.4 1.8v3.4c0 1.2.5 1.8 1.4 1.8s1.3-.6 1.3-1.8zm4.9-5.1c-.8 0-1.3.4-1.4 1.4v.3l-.2.1h-.6v-.3c0-.6.2-1.2.5-1.7.4-.5.9-.7 1.6-.7 1.5 0 2.3 1 2.3 3v4.2l.1 1c0 .3 0 .4-.3.4h-.3l-.3-.1v-.5c-.5.4-1 .6-1.7.6s-1.1-.2-1.5-.6c-.4-.3-.6-.9-.6-1.6v-.6c0-.5.1-.9.4-1.2.2-.3.5-.6.9-.7l1-.5c.4 0 .8-.2 1-.4.3-.2.4-.4.4-.6 0-.5-.1-.8-.4-1.1-.2-.3-.5-.5-1-.5zm0 7c.5-.1.8-.3 1-.5s.3-.7.3-1.2v-2.5l-.9.3-.8.3c-.8.4-1.2 1-1 1.8 0 1.2.4 1.8 1.5 1.7zm7.9-6l-.1.3h-.4c-.2 0-.3 0-.3-.2 0-.3-.2-.6-.4-.8-.2-.3-.5-.4-.8-.4s-.6.1-.8.3a1 1 0 0 0-.3.8c0 .3 0 .6.3 1l.9.7a45 45 0 0 1 1.8 1.7l.3 1.2a2 2 0 0 1-.7 1.5c-.4.4-1 .6-1.5.6a2.2 2.2 0 0 1-2.2-2.2v-.2h.4c.2 0 .3 0 .4.3 0 .4.2.7.4 1 .3.2.6.3 1 .3a1.3 1.3 0 0 0 1.3-1.4c0-.4-.1-.7-.5-1a6 6 0 0 0-1.1-1l-1.2-1a2 2 0 0 1-.5-1.4c0-.6.2-1 .6-1.4.4-.4.8-.6 1.4-.6s1 .2 1.4.5c.3.4.5.8.6 1.4zm5.5 0v.3h-.5c-.2 0-.3 0-.3-.2a1 1 0 0 0-.4-.8c-.2-.3-.5-.4-.8-.4s-.5.1-.7.3a1 1 0 0 0-.4.8c0 .3.1.6.4 1l.8.7a45 45 0 0 1 1.9 1.7l.3 1.2a2 2 0 0 1-.7 1.5 2.5 2.5 0 0 1-3.2 0c-.4-.4-.6-1-.6-1.5v-.3h.5c.2 0 .3 0 .3.3 0 .4.2.7.5 1 .2.2.5.3 1 .3a1.3 1.3 0 0 0 1.3-1.4c0-.4-.2-.7-.5-1a6 6 0 0 0-1.2-1l-1.1-1a2 2 0 0 1-.6-1.4c0-.6.2-1 .6-1.4.4-.4.9-.6 1.4-.6s1 .2 1.4.5c.4.4.6.8.6 1.4zm1.6 3.7v-2.6c0-1 .2-1.8.7-2.3.4-.5 1-.7 1.6-.7s1.3.2 1.7.7c.4.5.6 1.3.6 2.3v1.2H235v1.9c0 .6 0 1 .3 1.4.3.3.6.4 1 .4s.8-.1 1-.4c.2-.2.4-.6.4-1v-.4h.8v.2c0 .7-.2 1.2-.5 1.7-.4.5-1 .7-1.7.7a2 2 0 0 1-1.6-.7c-.4-.5-.7-1.2-.7-2.3zm1-3v.8h2.7v-.8c0-.6-.1-1-.4-1.3-.2-.3-.5-.5-1-.5s-.7.2-1 .5c-.2.3-.4.7-.4 1.3zm7.6-1.6h-.4c-.4 0-.6.1-.7.5l-.1 1.2v5.5l-.1.3h-.8v-8.4h.8v.5c.4-.3.8-.5 1.3-.5h.3v.9h-.3zm5.2 10.3v-11.2h.8l.1.3v.3c.3-.4.8-.7 1.4-.7.6 0 1.2.2 1.6.7s.5 1.3.5 2.3v2.6c0 1-.2 1.8-.5 2.3s-1 .8-1.6.7c-.6 0-1-.2-1.4-.7v3.7h-.8v-.3zm3.6-5.3v-3.4c0-1.2-.5-1.8-1.4-1.8s-1.3.6-1.3 1.8v3.4c0 1.2.4 1.8 1.3 1.8s1.4-.6 1.4-1.8zm4.8-5.1c-.8 0-1.2.4-1.3 1.4v.3l-.3.1h-.5v-.3c0-.6.1-1.2.5-1.7.3-.5.9-.7 1.6-.7 1.5 0 2.2 1 2.2 3v4.2c0 .2 0 .6.2 1 0 .3 0 .4-.4.4h-.3l-.2-.1-.1-.5c-.4.4-1 .6-1.6.6s-1.2-.2-1.5-.6c-.4-.3-.6-.9-.6-1.6v-.6c0-.5.1-.9.4-1.2.2-.3.5-.6.9-.7l1-.5c.4 0 .7-.2 1-.4l.3-.6c0-.5 0-.8-.3-1.1-.2-.3-.5-.5-1-.5zm.1 7l1-.5c.3-.2.3-.7.3-1.2v-2.5l-.9.3-.8.3c-.8.4-1.2 1-1.1 1.8 0 1.2.5 1.8 1.5 1.7zm6.2-6.9h-.4c-.4 0-.6.1-.7.5l-.1 1.2v5.5l-.1.3h-.7l-.1-.3v-8.1h.8v.5c.4-.3.8-.5 1.3-.5h.3v.9h-.3zm5.7-1.7c-.2 0-.4 0-.5-.3v-.5c.1-.2.3-.3.5-.3s.4.1.5.3v.5c-.1.2-.3.3-.5.3zm.4 1.1v8.1h-.8v-8.4h.7l.1.3zm4.2 8.2a2 2 0 0 1-1.7-.7c-.4-.5-.6-1.2-.6-2.3v-2.6c0-1 .2-1.8.6-2.3a2 2 0 0 1 1.7-.7c.7 0 1.3.2 1.6.7.4.5.6 1 .6 1.7v.2l-.3.1h-.5v-.4c0-.5-.2-.8-.5-1-.2-.4-.5-.5-1-.5-.4 0-.7.2-1 .5-.2.3-.3.7-.3 1.3v3.4c0 .6.1 1 .3 1.4.3.3.6.4 1 .4.5 0 .8-.1 1-.4.3-.2.4-.6.4-1l.1-.4h.7l.1.2c0 .7-.2 1.2-.6 1.7-.3.5-.9.7-1.6.7zm4.5-9.3c-.2 0-.4 0-.4-.3v-.5c0-.2.2-.3.4-.3s.4.1.5.3v.5c-.1.2-.3.3-.5.3zm.5 1.1v7.8l-.1.3h-.8v-8.4h.8v.3zM81.1 532h-3.5l-.3-.1v-11.8h.7l.1.3V531h3.3v.8h-.3zm1.7-3v-2.6c0-1 .2-1.8.6-2.3.4-.5 1-.7 1.6-.7s1.3.2 1.7.7c.4.5.6 1.2.6 2.3v1.1l-.3.1h-3.3v1.9c0 .6 0 1 .3 1.3.3.3.6.5 1 .5s.8-.2 1-.4c.2-.3.4-.6.4-1.1v-.3l.3-.1h.5v.3c0 .6-.1 1.2-.5 1.7s-1 .7-1.7.7a2 2 0 0 1-1.6-.7c-.4-.5-.6-1.3-.6-2.3zm.8-3v.8h2.8v-.8c0-.6 0-1-.3-1.4-.3-.3-.6-.4-1-.4s-.8.1-1 .4a2 2 0 0 0-.5 1.4zm9.4-.7l-.1.3h-.5c-.2 0-.3 0-.3-.3s-.1-.5-.4-.8c-.2-.2-.4-.3-.7-.3s-.6 0-.8.3a1 1 0 0 0-.4.8c0 .3.1.6.4.9l.8.8a45 45 0 0 1 1.9 1.7c.2.4.3.7.3 1.1a2 2 0 0 1-.7 1.6c-.5.4-1 .6-1.6.6-.6 0-1.1-.2-1.6-.6-.4-.5-.6-1-.6-1.6v-.3h.5c.2 0 .3 0 .3.3 0 .4.2.8.5 1 .2.3.6.4 1 .4a1.3 1.3 0 0 0 1.3-1.4c0-.4-.2-.8-.5-1.1a6 6 0 0 0-1.2-1l-1.1-1a2 2 0 0 1-.6-1.4c0-.5.2-1 .6-1.4.4-.3.9-.5 1.4-.5s1 .1 1.4.5c.4.3.6.8.6 1.4zm5.9 4.2v1.6h3.6v.8H98l-.1-.3v-2.3c0-.9.4-1.9 1.3-2.9a52.9 52.9 0 0 0 2.2-3.2l.1-.6c0-1.2-.4-1.8-1.4-1.8-.4 0-.7.1-1 .4-.2.3-.3.8-.3 1.4v.3l-.1.2-.3.1H98l-.1-.3c0-1 .2-1.6.5-2.2.4-.5 1-.7 1.7-.7.5 0 .9 0 1.2.2l.7.7a3.3 3.3 0 0 1 .4 1.7c0 1-.4 1.9-1.3 2.9l-.5.6a40 40 0 0 0-1.5 2l-.2.6-.1.8zm8.7-.5v-2.6c0-1 .3-1.8.7-2.3.4-.5 1-.7 1.6-.7s1.3.2 1.7.7c.4.5.6 1.2.6 2.3v2.6c0 1-.2 1.8-.6 2.3-.4.4-1 .7-1.7.7s-1.2-.3-1.6-.7c-.4-.5-.7-1.3-.7-2.3zm3.7.4V526c0-.6-.1-1-.4-1.4-.2-.3-.5-.4-1-.4s-.7.1-1 .4c-.2.3-.4.8-.4 1.4v3.4c0 .6.2 1 .4 1.3.3.3.6.5 1 .5s.8-.2 1-.5c.3-.3.4-.7.4-1.3zm6.3 2.2V526c0-1.2-.4-1.8-1.3-1.8s-1.3.6-1.3 1.8v5.6l-.1.3h-.7l-.1-.3v-8.1h.8v.6c.4-.5.8-.7 1.4-.7.7 0 1.2.2 1.6.7s.6 1.2.6 2.3v5.5h-.8v-.3zm3.7-9.6v1.7l.2.1h.3l.3.1v.7h-.6l-.2.2v4.5l.1 1.3c0 .3.2.5.5.5l.3.1v.7h-.3c-.6 0-1-.2-1.2-.6l-.2-1v-5.5l-.2-.1-.3-.1v-.7h.3l.1-.2v-1.8l.1-.2h.8v.2zm8.1 2.4h-.4c-.4 0-.7.1-.8.5v6.7l-.2.3h-.7v-8.4h.7l.1.3v.2c.4-.4.8-.6 1.2-.6l.3.1.1.3v.6h-.3zm3.6-.2c-.9 0-1.3.5-1.4 1.5v.3h-.8v-.2c0-.7.1-1.2.5-1.7.3-.5.9-.7 1.6-.7 1.5 0 2.3 1 2.3 3v5.2c.1.2 0 .3-.2.3h-.6l-.1-.5c-.4.4-1 .6-1.6.6s-1.2-.2-1.5-.6c-.4-.4-.6-1-.6-1.7v-.5c0-.5.1-1 .4-1.2.2-.4.5-.6.9-.8l1-.4 1-.4c.2-.2.4-.4.4-.7 0-.4-.2-.8-.4-1-.2-.4-.5-.5-1-.5zm0 7c.4 0 .8-.2 1-.5s.3-.6.3-1.2V527l-.9.3-.8.4c-.8.4-1.2 1-1.1 1.8 0 1.2.5 1.7 1.5 1.7zm4.6-8.5c-.3 0-.4-.1-.5-.3v-.6c0-.1.2-.2.5-.2s.3 0 .4.2v.6c0 .2-.2.3-.4.3zm.4 1v8.3h-.8v-8.4h.7v.3zm5.8 1.6l-.1.3h-.4c-.2 0-.3 0-.3-.3s-.2-.5-.4-.8c-.2-.2-.5-.3-.8-.3s-.6 0-.8.3a1 1 0 0 0-.3.8c0 .3 0 .6.3.9l.9.8a45 45 0 0 1 1.8 1.7c.2.4.3.7.3 1.1a2 2 0 0 1-.7 1.6c-.4.4-1 .6-1.5.6a2.2 2.2 0 0 1-2.2-2.2v-.3h.4c.2 0 .3 0 .4.3 0 .4.2.8.4 1 .3.3.6.4 1 .4a1.3 1.3 0 0 0 1.3-1.4c0-.4-.1-.8-.5-1.1a6 6 0 0 0-1.1-1l-1.2-1a2 2 0 0 1-.5-1.4c0-.5.2-1 .6-1.4.4-.3.8-.5 1.4-.5s1 .1 1.4.5c.3.3.5.8.6 1.4zm1.6 3.7v-2.6c0-1 .2-1.8.6-2.3.4-.5 1-.7 1.7-.7s1.2.2 1.6.7c.5.5.7 1.2.7 2.3v2.6c0 1-.2 1.8-.7 2.3-.4.4-1 .7-1.6.7s-1.3-.3-1.7-.7c-.4-.5-.6-1.3-.6-2.3zm3.7.4V526c0-.6-.1-1-.4-1.4-.2-.3-.6-.4-1-.4s-.8.1-1 .4c-.3.3-.4.8-.4 1.4v3.4c0 .6.1 1 .4 1.3.2.3.6.5 1 .5s.8-.2 1-.5c.3-.3.4-.7.4-1.3zm6.3 2.2V526c0-1.2-.5-1.8-1.4-1.8s-1.3.6-1.3 1.8v5.9h-.8v-8.4h.7l.1.3v.3c.3-.5.8-.7 1.4-.7.7 0 1.2.2 1.6.7s.6 1.2.6 2.3v5.2l-.1.3h-.8v-.3zm6.9-5.3c0 .2-.1.3-.3.4h-.5a.5.5 0 0 1-.3-.5c0-.2 0-.3.3-.4h.5c.2 0 .3.2.3.5zm0 5c0 .3-.1.5-.3.6h-.5a.5.5 0 0 1-.3-.5c0-.2 0-.4.3-.5h.5c.2.1.3.3.3.5zm5.1-8.6c-.2 0-.3-.1-.4-.3v-.6l.4-.2c.2 0 .4 0 .5.2v.6c0 .2-.3.3-.5.3zm.5 1v7.9l-.1.3h-.7l-.1-.3v-8.1h.8v.3zm3.4 7.4l.3.1v.7h-.3c-.6 0-1-.2-1.2-.6l-.2-1v-10.2h.7l.1.3v10.2c.1.3.3.5.6.5zm7.4-10.3c-.5 0-.8.2-1 .5a4 4 0 0 0-.2 1.7v.6c0 .2 0 .2.2.2h.6l.3.1v.7h-.9c-.2 0-.2 0-.2.2v7.1h-.9l-.1-.3v-6.8c0-.1 0-.2-.2-.2h-.2l-.1-.3v-.4h.3c.1 0 .2-.1.2-.3v-1.4a6.3 6.3 0 0 1 .3-1.3l.1-.1.1-.2h.1a4 4 0 0 1 .3-.3c.2-.2.6-.3 1.2-.3l.3.1v.7h-.3zm3.6 3.4c-.8 0-1.3.5-1.4 1.5v.3h-.8v-.2c0-.7.2-1.2.5-1.7.4-.5 1-.7 1.7-.7 1.4 0 2.2 1 2.2 3v4.2l.1 1c0 .2 0 .3-.3.3h-.6v-.5c-.5.4-1 .6-1.7.6s-1.1-.2-1.5-.6c-.4-.4-.6-1-.6-1.7v-.5c0-.5.2-1 .4-1.2.3-.4.6-.6 1-.8l1-.4 1-.4c.2-.2.3-.4.3-.7 0-.4-.1-.8-.3-1-.3-.4-.6-.5-1-.5zm0 7c.5 0 .8-.2 1-.5s.3-.6.3-1.2V527l-.8.3-.8.4c-.9.4-1.3 1-1.2 1.8 0 1.2.5 1.7 1.6 1.7zm4.9-7.4v5.6c0 1.2.5 1.8 1.4 1.8s1.3-.6 1.3-1.8v-5.9h.8v8.4h-.7l-.1-.3v-.3c-.3.4-.8.7-1.4.7a2 2 0 0 1-1.6-.7c-.4-.5-.5-1.3-.5-2.3v-5.5h.8v.3zm6.5-1.8v1.7l.2.1h.3l.2.1.1.3v.4h-.6l-.2.2v5.8c.1.3.3.5.6.5l.3.1v.7h-.3c-.6 0-1-.2-1.2-.6l-.2-1v-5.5l-.3-.1-.2-.1v-.7h.2c.2 0 .2-.1.2-.2v-1.8l.1-.2h.7l.1.2zm6.8 0v1.7l.2.1h.3l.2.1.1.3v.4h-.6c-.2 0-.2.1-.2.2v5.8c.1.3.3.5.6.5l.3.1v.7h-.3c-.6 0-1-.2-1.2-.6-.2-.3-.2-.7-.3-1v-5.5l-.2-.1-.2-.1-.1-.3v-.4h.3l.2-.2v-2h.8v.2zm4.6 2.4h-.4c-.4 0-.6.1-.7.5l-.1 1.1v5.6l-.1.3h-.8v-8.4h.8v.5c.4-.4.8-.6 1.3-.6l.3.1v.9h-.3zm3.6-.2c-.8 0-1.3.5-1.4 1.5v.3h-.8v-.2c0-.7.2-1.2.5-1.7.4-.5 1-.7 1.7-.7 1.4 0 2.2 1 2.2 3v4.2l.1 1c0 .2 0 .3-.3.3h-.6v-.5c-.5.4-1 .6-1.7.6s-1.1-.2-1.5-.6c-.4-.4-.6-1-.6-1.7v-.5c0-.5.2-1 .4-1.2.3-.4.6-.6 1-.8l1-.4 1-.4c.2-.2.3-.4.3-.7 0-.4-.1-.8-.3-1-.3-.4-.6-.5-1-.5zm0 7c.5 0 .8-.2 1-.5s.3-.6.3-1.2V527l-.8.3-.8.4c-.9.4-1.3 1-1.2 1.8 0 1.2.5 1.7 1.6 1.7zm7.5-7.8h.4l.1.1v.2l-1.6 8-.1.2h-1v-.3l-1.7-7.9v-.2h.7l.2.2 1.2 6.6h.1c.1 0 0 0 0 0l1.4-6.6v-.2h.3zm1.8 5.6v-2.6c0-1 .2-1.8.6-2.3.4-.5 1-.7 1.7-.7s1.2.2 1.6.7c.4.5.6 1.2.6 2.3v1.1l-.3.1h-3.3v1.9c0 .6 0 1 .3 1.3.3.3.6.5 1 .5.5 0 .8-.2 1-.4.3-.3.4-.6.4-1.1l.1-.3.2-.1h.5v.3c0 .6-.1 1.2-.5 1.7s-1 .7-1.6.7a2 2 0 0 1-1.7-.7c-.4-.5-.6-1.3-.6-2.3zm.9-3v.8h2.7v-.8c0-.6 0-1-.3-1.4-.3-.3-.6-.4-1-.4s-.8.1-1 .4c-.3.3-.4.8-.4 1.4zm7.6-1.6h-.4c-.3 0-.6.1-.7.5l-.1 1.1v6h-.9l-.1-.3v-8.1h.8v.5c.4-.4.8-.6 1.3-.6l.3.1v.8h-.3zm5.5.9v.3h-.4c-.2 0-.3 0-.3-.3s-.2-.5-.4-.8c-.2-.2-.5-.3-.8-.3s-.6 0-.8.3a1 1 0 0 0-.3.8c0 .3 0 .6.3.9l.9.8a45 45 0 0 1 1.8 1.7c.2.4.3.7.3 1.1a2 2 0 0 1-.7 1.6c-.4.4-1 .6-1.5.6a2.2 2.2 0 0 1-2.2-2.2v-.3h.4c.2 0 .3 0 .4.3 0 .4.2.8.4 1 .3.3.6.4 1 .4a1.3 1.3 0 0 0 1.3-1.4c0-.4-.1-.8-.5-1.1a6 6 0 0 0-1.1-1l-1.2-1a2 2 0 0 1-.5-1.4c0-.5.2-1 .6-1.4.4-.3.8-.5 1.4-.5s1 .1 1.3.5c.4.3.6.8.7 1.4zm1.7 3.7v-2.6c0-1 .2-1.8.6-2.3.4-.5 1-.7 1.7-.7s1.2.2 1.6.7c.5.5.7 1.2.7 2.3v.9l-.1.2-.3.1h-3.3v1.9c0 .6.1 1 .4 1.3.2.3.5.5 1 .5.4 0 .7-.2 1-.4l.4-1.1v-.3l.2-.1h.5l.1.3c0 .6-.2 1.2-.6 1.7-.3.5-.9.7-1.6.7a2 2 0 0 1-1.7-.7c-.4-.5-.6-1.3-.6-2.3zm.9-3v.8h2.7v-.8c0-.6 0-1-.3-1.4-.3-.3-.6-.4-1-.4s-.8.1-1 .4c-.3.3-.4.8-.4 1.4zm7.7-1.6h-.4c-.4 0-.7.1-.8.5v6.7l-.2.3h-.7v-8.4h.7l.1.3v.2c.4-.4.8-.6 1.2-.6l.3.1.1.3v.6h-.3zm6.3 7c0 .1 0 .3-.2.4l-.4.1c-.2 0-.4 0-.5-.3s0-.4.1-.6c.2-.2.4-.2.6-.1.2 0 .4.2.4.5zm-.6-2.1l-.3-.1v-.3l-.1-8.5v-.3h.8v8.8l-.1.3h-.3zM38.2 554c-.3 0-.4-.1-.4-.3l-3.2-8.5h-.1v8.4l-.1.3h-.8v-11.8h.3c.3 0 .4 0 .4.2l3.2 8.4v.1h.1v-8.4l.1-.3h.8v11.8h-.3zm2.2-3v-2.6c0-1 .2-1.8.6-2.3.4-.5 1-.7 1.7-.7s1.2.2 1.6.7c.5.5.7 1.2.7 2.3v.9l-.1.2-.3.1h-3.3v1.9c0 .6.1 1 .4 1.3.2.3.6.5 1 .5s.7-.2 1-.4l.4-1.1v-.3l.2-.1h.6v.3c0 .6-.2 1.2-.6 1.7-.3.5-.9.7-1.6.7a2 2 0 0 1-1.7-.7c-.4-.5-.6-1.3-.6-2.3zm.9-3v.8H44v-.8c0-.6 0-1-.3-1.4-.2-.3-.6-.4-1-.4s-.8.1-1 .4c-.3.3-.4.8-.4 1.4zm1.5-3.4h-.1c-.1 0-.2 0-.2-.2v-1.9l.4-.1h.5v.4l-.4 1.6v.2h-.2zm7.4 9.8v-1.1c-.3.4-.8.7-1.3.7-.7 0-1.3-.2-1.6-.7s-.6-1.3-.6-2.3v-2.6c0-1 .2-1.8.6-2.3s.9-.8 1.6-.7c.5 0 1 .2 1.3.7v-.6h.8l.1.3v8.2c0 1-.2 1.8-.6 2.3a2 2 0 0 1-1.7.7c-1 0-1.8-.5-2-1.6v-.3l.4-.1c.2 0 .3 0 .3.2.2.7.6 1 1.3 1 .5 0 .8-.1 1-.4.3-.3.4-.8.4-1.4zm-2.6-6.4v3.4c0 1.2.4 1.8 1.3 1.8s1.3-.6 1.3-1.8V548c0-1.2-.4-1.8-1.3-1.8s-1.3.6-1.3 1.8zm5.4 3v-2.6c0-1 .2-1.8.6-2.3.4-.5 1-.7 1.6-.7s1.3.2 1.7.7c.4.5.6 1.2.6 2.3v2.6c0 1-.2 1.8-.6 2.3-.4.4-1 .7-1.7.7s-1.2-.3-1.6-.7c-.4-.5-.6-1.3-.6-2.3zm3.6.4V548c0-.6-.1-1-.3-1.4-.3-.3-.6-.4-1-.4s-.8.1-1 .4a2 2 0 0 0-.5 1.4v3.4c0 .6.2 1 .4 1.3.3.3.6.5 1 .5s.8-.2 1-.5c.3-.3.4-.7.4-1.3zm4.9 2.6a2 2 0 0 1-1.7-.7c-.4-.5-.6-1.3-.6-2.3v-2.6c0-1 .2-1.8.6-2.3a2 2 0 0 1 1.7-.7c.7 0 1.3.2 1.6.7.4.5.6 1 .6 1.7v.2H63v-.3c0-.5-.2-.9-.4-1.1-.3-.3-.6-.4-1-.4s-.8.1-1 .4c-.3.3-.4.8-.4 1.4v3.4c0 .6.1 1 .4 1.3.2.3.6.5 1 .5s.7-.2 1-.4l.4-1.1v-.3l.2-.1h.6v.3c0 .6-.2 1.2-.6 1.7-.3.5-.9.7-1.6.7zm4.5-9.3c-.2 0-.3-.1-.4-.3v-.6l.4-.2c.2 0 .4 0 .5.2v.6c0 .2-.2.3-.5.3zm.5 1v7.9l-.1.3h-.7l-.1-.3v-8.1h.8v.3zm1.8 5.3v-2.6c0-1 .2-1.8.6-2.3.5-.5 1-.7 1.7-.7s1.3.2 1.7.7c.4.5.6 1.2.6 2.3v1.1l-.3.1h-3.3v1.9c0 .6 0 1 .3 1.3.2.3.6.5 1 .5s.7-.2 1-.4c.2-.3.4-.6.4-1.1v-.3l.3-.1h.5v.3c0 .6-.2 1.2-.5 1.7-.4.5-1 .7-1.7.7a2 2 0 0 1-1.7-.7c-.4-.5-.6-1.3-.6-2.3zm1-3v.8H72v-.8c0-.6-.1-1-.4-1.4-.2-.3-.6-.4-1-.4s-.8.1-1 .4c-.3.3-.4.8-.4 1.4zm7.7-1.6h-.5c-.4 0-.6.1-.8.5v6.7l-.1.3h-.8v-8.4h.8v.5c.4-.4.8-.6 1.3-.6l.3.1v.9h-.3zm7.2 7.6a2 2 0 0 1-1.7-.7c-.4-.5-.6-1.3-.6-2.3v-2.6c0-1 .2-1.8.6-2.3a2 2 0 0 1 1.7-.7c.8 0 1.3.2 1.7.7.3.5.5 1 .5 1.7v.2h-.7l-.1-.3c0-.5-.2-.9-.4-1.1-.3-.3-.6-.4-1-.4s-.8.1-1 .4c-.3.3-.4.8-.4 1.4v3.4c0 .6.1 1 .4 1.3.2.3.6.5 1 .5s.7-.2 1-.4c.2-.3.4-.6.4-1.1v-.3l.3-.1h.5v.3c0 .6-.2 1.2-.5 1.7-.4.5-1 .7-1.7.7zm3.5-11.4c0-.2 0-.3.2-.4l.4-.2c.2 0 .3.1.4.3.2.1.2.4.1.7 0 .3-.3.7-.6 1 0 0-.1.1-.2 0v-.2l.2-.5-.2-.3-.2-.4zm2.4 8.4v-2.6c0-1 .2-1.8.6-2.3.4-.5 1-.7 1.7-.7s1.3.2 1.7.7c.4.5.6 1.2.6 2.3v1.1l-.4.1h-3.2v1.9c0 .6 0 1 .3 1.3.2.3.6.5 1 .5s.7-.2 1-.4c.2-.3.4-.6.4-1.1v-.3l.3-.1h.5v.3c0 .6-.2 1.2-.5 1.7-.4.5-1 .7-1.7.7a2 2 0 0 1-1.7-.7c-.4-.5-.6-1.3-.6-2.3zm1-3v.8h2.7v-.8c0-.6-.1-1-.4-1.4-.2-.3-.6-.4-1-.4s-.8.1-1 .4c-.3.3-.4.8-.4 1.4zm9.2-.7v.3h-.5c-.2 0-.3 0-.3-.3s-.2-.5-.4-.8c-.2-.2-.5-.3-.8-.3s-.5 0-.8.3a1 1 0 0 0-.3.8c0 .3.1.6.4.9l.8.8a45 45 0 0 1 1.8 1.7c.3.4.4.7.4 1.1a2 2 0 0 1-.7 1.6 2.5 2.5 0 0 1-3.2 0c-.4-.5-.6-1-.7-1.6l.1-.3h.5c.2 0 .3 0 .3.3 0 .4.2.8.5 1 .2.3.5.4.9.4a1.3 1.3 0 0 0 1.4-1.4c0-.4-.2-.8-.6-1.1a6 6 0 0 0-1.1-1l-1.2-1a2 2 0 0 1-.5-1.4c0-.5.2-1 .6-1.4.4-.3.8-.5 1.4-.5s1 .1 1.4.5c.4.3.6.8.6 1.4zm2.7-3.3v1.7l.2.1h.3l.2.1.1.3v.4h-.6c-.2 0-.2.1-.2.2v5.8c.1.3.3.5.6.5l.3.1v.7h-.3c-.6 0-1-.2-1.2-.6-.2-.3-.2-.7-.3-1v-5.5l-.2-.1-.2-.1-.1-.3v-.4h.3l.2-.2v-2h.8v.2zm6.8 0v1.7l.1.1h.3l.3.1v.7h-.6l-.1.2v5.8c.1.3.3.5.6.5l.2.1.1.3v.4h-.3c-.6 0-1-.2-1.2-.6a2 2 0 0 1-.3-1v-5.5l-.2-.1-.3-.1v-.7h.3l.2-.2v-2h.8v.2zm4.6 2.4h-.4c-.4 0-.7.1-.8.5v6.7l-.1.3h-.8v-8.4h.8v.5c.4-.4.8-.6 1.3-.6l.3.1v.9h-.3zm1.3 4.6v-2.6c0-1 .2-1.8.6-2.3.4-.5 1-.7 1.6-.7s1.3.2 1.7.7c.4.5.6 1.2.6 2.3v2.6c0 1-.2 1.8-.6 2.3-.4.4-1 .7-1.7.7s-1.2-.3-1.6-.7c-.4-.5-.6-1.3-.6-2.3zm3.6.4V548c0-.6 0-1-.3-1.4-.3-.3-.6-.4-1-.4s-.8.1-1 .4a2 2 0 0 0-.5 1.4v3.4c0 .6.2 1 .4 1.3.3.3.6.5 1 .5s.8-.2 1-.5c.3-.3.4-.7.4-1.3zm3.6-5.6v5.6c0 1.2.4 1.8 1.3 1.8s1.3-.6 1.3-1.8v-5.6l.1-.3h.7l.1.3v8.1h-.8v-.6c-.4.4-.8.7-1.4.7-.7 0-1.2-.2-1.6-.7-.4-.5-.6-1.3-.6-2.3v-5.5h.8v.3zm8.9-.4h.4l.1.1v.2l-1.6 8v.2h-1l-.1-.3-1.7-7.9v-.2h.9v.2l1.4 6.6h.1l1.3-6.6v-.2h.3zm1.8 5.6v-2.6c0-1 .2-1.8.6-2.3.4-.5 1-.7 1.7-.7s1.2.2 1.6.7c.5.5.7 1.2.7 2.3v.9l-.1.2-.3.1h-3.3v1.9c0 .6.1 1 .4 1.3.2.3.5.5 1 .5.4 0 .7-.2 1-.4l.4-1.1v-.3l.2-.1h.5l.1.3c0 .6-.2 1.2-.6 1.7-.3.5-.9.7-1.6.7a2 2 0 0 1-1.7-.7c-.4-.5-.6-1.3-.6-2.3zm.9-3v.8h2.7v-.8c0-.6 0-1-.3-1.4-.3-.3-.6-.4-1-.4s-.8.1-1 .4c-.3.3-.4.8-.4 1.4zm7.7-1.6h-.4c-.4 0-.7.1-.8.5v6.7l-.2.3h-.7v-8.4h.7l.1.3v.2c.4-.4.8-.6 1.2-.6l.3.1.1.3v.6h-.3zm6.6 6.7l.2.1.1.3v.4h-.3c-.6 0-1-.2-1.2-.6-.2-.3-.2-.7-.3-1v-10.2h.8v9.3l.1 1.2c.1.3.3.5.6.5zm1.7-2.1v-2.6c0-1 .2-1.8.6-2.3.4-.5 1-.7 1.7-.7s1.2.2 1.6.7c.4.5.6 1.2.6 2.3v1.1l-.3.1h-3.3v1.9c0 .6 0 1 .3 1.3.3.3.6.5 1 .5.5 0 .8-.2 1-.4.3-.3.4-.6.4-1.1l.1-.3.2-.1h.5v.3c0 .6-.1 1.2-.5 1.7s-.9.7-1.6.7a2 2 0 0 1-1.7-.7c-.4-.5-.6-1.3-.6-2.3zm.9-3v.8h2.7v-.8c0-.6 0-1-.3-1.4-.3-.3-.6-.4-1-.4s-.8.1-1 .4c-.3.3-.4.8-.4 1.4zm11 6a2 2 0 0 1-1.6-.7c-.4-.5-.6-1.3-.6-2.3v-2.6c0-1 .2-1.8.6-2.3a2 2 0 0 1 1.6-.7c.8 0 1.3.2 1.7.7.4.5.5 1 .6 1.7l-.1.2h-.7v-.3c-.1-.5-.3-.9-.5-1.1-.2-.3-.6-.4-1-.4s-.7.1-1 .4c-.2.3-.4.8-.4 1.4v3.4c0 .6.2 1 .4 1.3.3.3.6.5 1 .5s.8-.2 1-.4c.2-.3.4-.6.4-1.1v-.3l.3-.1h.5v.3c0 .6-.1 1.2-.5 1.7s-1 .7-1.7.7zm7.6-.4V548c0-1.2-.4-1.8-1.3-1.8s-1.3.6-1.3 1.8v5.9h-.8v-11.8h.7l.1.3v3.7c.3-.5.8-.7 1.4-.7.7 0 1.2.2 1.6.7s.5 1.2.5 2.3v5.5h-.8v-.3zm2.7-2.6v-2.6c0-1 .2-1.8.6-2.3.5-.5 1-.7 1.7-.7s1.3.2 1.7.7c.4.5.6 1.2.6 2.3v1.1l-.4.1h-3.2v1.9c0 .6 0 1 .3 1.3.2.3.6.5 1 .5s.7-.2 1-.4c.2-.3.4-.6.4-1.1v-.3l.3-.1h.5v.3c0 .6-.2 1.2-.5 1.7-.4.5-1 .7-1.7.7a2 2 0 0 1-1.7-.7c-.4-.5-.6-1.3-.6-2.3zm1-3v.8h2.7v-.8c0-.6-.1-1-.4-1.4-.2-.3-.6-.4-1-.4s-.8.1-1 .4c-.3.3-.4.8-.4 1.4zm9.9 0v5.6l-.1.3h-.7l-.1-.3V548c0-1.2-.4-1.8-1.3-1.8s-1.4.6-1.4 1.8v5.9h-.8v-8.4h.8v.6c.4-.5.8-.7 1.4-.7.8 0 1.4.3 1.8 1 .4-.7 1-1 1.7-1s1.3.2 1.6.7.6 1.2.6 2.3v5.5h-.8V548c0-1.2-.5-1.8-1.4-1.8-.9 0-1.3.6-1.3 1.8zm5.9-3.3c-.2 0-.4-.1-.4-.3v-.6l.4-.2c.2 0 .4 0 .5.2v.6c-.1.2-.3.3-.5.3zm.5 1v7.9l-.1.3h-.8v-8.4h.8v.3zm5.5 7.9V548c0-1.2-.4-1.8-1.3-1.8s-1.3.6-1.3 1.8v5.6l-.1.3h-.7l-.1-.3v-8.1h.8v.6c.4-.5.9-.7 1.4-.7.7 0 1.2.2 1.6.7s.6 1.2.6 2.3v5.5h-.8v-.3zm10.5-7.8v11.1h-.8v-3.6c-.4.4-.8.7-1.4.7-.7 0-1.2-.2-1.6-.7-.4-.5-.6-1.3-.6-2.3v-2.6c0-1 .2-1.8.6-2.3.4-.5 1-.8 1.6-.7.6 0 1 .2 1.3.7v-.3l.1-.3h.8v.3zm-3.5 2.2v3.4c0 1.2.4 1.8 1.3 1.8 1 0 1.3-.6 1.3-1.8V548c0-1.2-.4-1.8-1.3-1.8s-1.3.6-1.3 1.8zm6.4-2.2v5.6c0 1.2.4 1.8 1.3 1.8s1.3-.6 1.3-1.8v-5.6l.1-.3h.7l.1.3v8.1h-.8v-.6c-.4.4-.9.7-1.4.7-.7 0-1.2-.2-1.6-.7-.4-.5-.6-1.3-.6-2.3v-5.5h.8v.3zm6-1.1a.5.5 0 0 1-.5-.3v-.6l.5-.2c.2 0 .4 0 .5.2v.6c-.1.2-.3.3-.5.3zm.4 1v8.3h-.8v-8.4h.8v.3zm9.2 1.6v.3h-.5c-.2 0-.3 0-.3-.3s-.1-.5-.4-.8c-.2-.2-.4-.3-.7-.3s-.6 0-.8.3a1 1 0 0 0-.4.8c0 .3.1.6.4.9l.8.8a45 45 0 0 1 1.9 1.7c.2.4.3.7.3 1.1a2 2 0 0 1-.7 1.6c-.5.4-1 .6-1.6.6-.6 0-1.1-.2-1.6-.6-.4-.5-.6-1-.6-1.6v-.3h.5c.2 0 .3 0 .3.3 0 .4.2.8.5 1 .2.3.6.4 1 .4a1.3 1.3 0 0 0 1.3-1.4c0-.4-.2-.8-.5-1.1a6 6 0 0 0-1.2-1l-1.1-1a2 2 0 0 1-.5-1.4c0-.5.1-1 .5-1.4.4-.3.9-.5 1.4-.5s1 .1 1.4.5c.4.3.6.8.6 1.4zm3.9-1.1c-.8 0-1.2.5-1.3 1.5v.3h-.8v-.2c0-.7.2-1.2.5-1.7s.9-.7 1.6-.7c1.5 0 2.3 1 2.3 3v4.2l.1 1c0 .2 0 .3-.3.3h-.6l-.1-.5c-.4.4-1 .6-1.6.6s-1.1-.2-1.5-.6c-.4-.4-.6-1-.6-1.7v-.5c0-.5.1-1 .4-1.2.2-.4.5-.6.9-.8l1-.4 1-.4c.2-.2.4-.4.4-.7 0-.4-.1-.8-.4-1-.2-.4-.5-.5-1-.5zm.1 7c.5 0 .8-.2 1-.5s.3-.6.3-1.2V549l-.9.3-.8.4c-.8.4-1.2 1-1.1 1.8 0 1.2.5 1.7 1.5 1.7zm5-9.2v1.7l.2.1h.3l.2.1.1.3v.4h-.6l-.2.2v5.8c.1.3.3.5.6.5l.3.1v.7h-.3c-.6 0-1-.2-1.2-.6l-.2-1v-5.5l-.2-.1-.3-.1v-.7h.3l.1-.2v-1.8l.1-.2h.7l.1.2zm2.9.7c-.2 0-.3-.1-.4-.3v-.6l.4-.2c.2 0 .4 0 .5.2v.6c0 .2-.2.3-.5.3zm.5 1v7.9l-.1.3h-.7l-.1-.3v-8.1h.8v.3zm5.8 1.6l-.1.3h-.5c-.1 0-.2 0-.3-.3 0-.3-.1-.5-.3-.8-.3-.2-.5-.3-.8-.3s-.6 0-.8.3a1 1 0 0 0-.3.8c0 .3 0 .6.3.9l.9.8a45 45 0 0 1 1.8 1.7c.2.4.3.7.3 1.1a2 2 0 0 1-.7 1.6c-.4.4-1 .6-1.6.6a2.2 2.2 0 0 1-2.2-2.2v-.3h.5c.2 0 .3 0 .3.3.1.4.2.8.5 1 .3.3.6.4 1 .4a1.3 1.3 0 0 0 1.3-1.4c0-.4-.2-.8-.5-1.1a6 6 0 0 0-1.2-1l-1.1-1a2 2 0 0 1-.5-1.4c0-.5.2-1 .6-1.4.3-.3.8-.5 1.3-.5s1 .1 1.4.5c.4.3.6.8.7 1.4zm3.9-4.5c-.5 0-.9.2-1 .5a4 4 0 0 0-.3 1.7v.6c0 .2 0 .2.2.2h.7l.3.1v.7h-1c-.1 0-.2 0-.2.2v7.1h-.8v-7.1l-.2-.2h-.3v-.7h.3c.1 0 .2-.1.2-.3v-1.4a6.3 6.3 0 0 1 .3-1.3v-.1l.2-.2a4 4 0 0 1 .3-.3c.3-.2.7-.3 1.3-.3l.2.1.1.3v.4h-.3zm3.5 3.4c-.8 0-1.2.5-1.3 1.5v.3h-.8v-.2c0-.7.1-1.2.5-1.7.3-.5.9-.7 1.6-.7 1.5 0 2.2 1 2.2 3v4.2l.2 1c0 .2 0 .3-.4.3h-.5l-.1-.5c-.4.4-1 .6-1.6.6s-1.2-.2-1.5-.6c-.4-.4-.6-1-.6-1.7v-.5c0-.5.1-1 .4-1.2.2-.4.5-.6.9-.8l1-.4 1-.4c.2-.2.3-.4.3-.7 0-.4 0-.8-.3-1-.2-.4-.5-.5-1-.5zm.1 7c.4 0 .7-.2 1-.5s.3-.6.3-1.2V549l-.9.3-.8.4c-.8.4-1.2 1-1.1 1.8 0 1.2.5 1.7 1.5 1.7zm4.5-8.5c-.2 0-.3-.1-.4-.3v-.6l.4-.2c.2 0 .4 0 .5.2v.6c0 .2-.2.3-.5.3zm.5 1v7.9l-.1.3h-.7l-.1-.3v-8.1h.8v.3zm2.9-1.7v1.7l.2.1h.3l.2.1.1.3v.4h-.6l-.2.2v5.8c.1.3.3.5.6.5l.3.1v.7h-.3c-.6 0-1-.2-1.2-.6l-.2-1v-5.5l-.3-.1-.2-.1v-.7h.2c.2 0 .2-.1.2-.2v-1.8l.1-.2h.7l.1.2zm10.7 10h-.4v-.1l-.1-.2-.3-1.3v-.3h-3.2v.3l-.3 1.3-.1.2h-.7l-.1-.3 2.1-11.3.1-.2h1l.1.2 2.1 11.3v.3h-.3zm-2.5-10.3l-1.2 7.2v.3h2.6v-.3l-1.2-7.2h-.2zm7.7 7.3v-2.6c0-1 .3-1.8.7-2.3.4-.5 1-.7 1.7-.7s1.2.2 1.6.7c.4.5.6 1.2.6 2.3v1.1l-.3.1H275v1.9c0 .6 0 1 .3 1.3.3.3.6.5 1 .5.5 0 .8-.2 1-.4.3-.3.4-.6.4-1.1l.1-.3.2-.1h.5v.3c0 .6-.1 1.2-.5 1.7s-.9.7-1.6.7a2 2 0 0 1-1.7-.7c-.4-.5-.6-1.3-.6-2.3zm1-3v.8h2.7v-.8c0-.6 0-1-.3-1.4-.3-.3-.6-.4-1-.4s-.8.1-1 .4c-.3.3-.4.8-.4 1.4zm6.4-4v1.7l.2.1h.3l.2.1.1.3v.4h-.6c-.2 0-.2.1-.2.2v5.8c.1.3.3.5.6.5l.3.1v.7h-.3c-.6 0-1-.2-1.2-.6l-.3-1v-5.5l-.2-.1-.2-.1-.1-.3v-.4h.3c.2 0 .2-.1.2-.2v-2h.8v.2zm11 1v.1c0 1.2-.3 2-1 2.5v.1c.7.5 1 1.3 1 2.5v.8c0 1-.2 1.7-.7 2.2-.5.5-1 .7-1.9.7h-2.4l-.1-.3v-11.5h2.5c.8 0 1.4.2 1.9.7s.7 1.2.7 2.1zm-4.2-1.8v4h1.6c.6 0 1-.1 1.3-.5.3-.3.4-.9.4-1.5v-.3c0-.7-.1-1.2-.5-1.5-.3-.4-.7-.6-1.2-.6h-1.6v.4zm0 5.2v4.7h1.6c.5 0 1-.2 1.2-.5.4-.4.5-.9.5-1.6v-.8c0-.7-.1-1.2-.4-1.6-.3-.3-.7-.5-1.3-.5h-1.6v.3z"/><path d="M313.9 188.4c-.6-2.2-1.7-4-2.9-5.5-1.2-1.6-2-3.5-3.2-5.2-.9-2-2.4-3.2-3.3-5.1-.8-2-1.3-4.3-2.5-5.9 0-.6-.3-1.2-.4-1.8l-.6-1c0-2.2-1.1-3.5-2-4.8l-2.8-2c-.9-.6-2-1-3-1.6a9 9 0 0 1-3-1.2c-1-.4-1.8-1-2.7-1.5-.4-.3-1-.6-1.3-1-.5-.3-.7-.8-1.4-.9l-1-1.3a2 2 0 0 0-.9-.5v-2.4l.3.2c.4-.9.2-2 .1-2.8 0-.4.2-1 .4-1.4l.2-1.4c0-.8.5-1.5.5-2.4v-2.1l-.4-1.2h.6l.4-.3c-.3.2-.6.3-.8 0l-.1-.1c-.1-.3 0-.3-.2-.5l-.1-.2a4 4 0 0 0-1.1-2l-.7-.4c0-.2-.2-.3-.3-.5-.1-.1-.2-.2-.1-.4l.1-.1a1 1 0 0 1-.4 0h-.2c0-.2-.2-.3-.4-.3 0-.2 0-.3-.2-.4l.2-.2a1 1 0 0 1-.3.1h-.7c-.1 0 0-.2-.2-.3-.2 0-.4 0-.6-.2-.3-.2-.8-.2-1.2-.1l-1.5-.3c-.1 0-.1.2-.3.2l-.7-.2h-.7a9 9 0 0 1-.7-.1c-.6-.2-1.2-.4-1.6-1 0 .4.4.8.8 1.1l-.7-.2v.3c-.4-.2-.7-.3-.9-.6 0 .4.4.7.7.9l-1-.3c.3.3.7.5 1.1.6l-.2.2h.6l.2.1v.2h-.4c-.6-.3-1.3 0-1.8 0-.4 0-1-.3-1.3-.7a2.2 2.2 0 0 0 .6.9c0 .1 1.6.5.6.6a5 5 0 0 1-1.9 0l-.7-.4c.2.4.7.6 1 .8h.5c-.2.2-.4.1-.6.2-.6-.3-1.2-.6-1.9-.4.7 0 1.3.5 1.9.8l-.6.2c-.5.2-.8.5-1.1.8-.2 0-.3.2-.4.3l-.5.4c-.2.3-.6.5-.9.6-.3 0-.7 0-1-.3.2.4.6.6 1 .6h.6l-.5.4c-.3.2-.6.4-1 .4.4.2.8 0 1.2-.1l.6-.3h.3c0-.1 0-.2.2-.3h.3l-.7.5-.2.1a2 2 0 0 1-.9.4c-.3 0-.7 0-1-.2.2.3.6.5 1 .6.4 0 .9 0 1.3-.2l.1-.1-.2.3c-.1.2-.3.3-.6.3h-1.5c.5.2 1 .5 1.6.4.3 0 .5 0 .7-.2h.1c-.3.4-.7.8-1.1 1 .4 0 .8-.2 1.1-.5v.1l-1 1.3.8-.5v.2l-.4.2h.3v.2c0 .3-.2.4-.3.7v.1c0 .4 0 .9.2 1.2 0 .3-.5.1-.5.4l-.2.4c.2.3.6.4 1 .4-.1.1-.4.2-.4.5.2 0 .3-.3.4 0-.2.6-.2 1.4-.6 2 .2.3 0 1 .1 1.5l.1.2.6 1.7c.2.3.5.6.6 1 .1.5-.2.6-.1 1 0 .5.2.9.4 1.3 0 1.8.4 3.3 2.3 3.2.2.2-.4.3-.4.5l-.6.6c-1 .2-1.8.7-2.7 1-.7.6-1.7.9-2.4 1.5-1.6.8-3 2-4.2 3.2l-.6 1c-.1.4-.3.7-.3 1.1-.2.4-.5.6-.6 1l-.6 1.8-.2 3c-1 2.8-1.1 6.4-2 9.2l-1.6 3c0 .5-.3.9-.4 1.4-2.8-1-5.2-2.4-7.6-3.9-1.3-.7-2.3-1.6-3.4-2.4-1.3-.7-2.2-1.6-4-1.7-.8-.1-1 .3-1.4.5l-1.1-1.3-1.9-1.3-1.4-.4c-.3-.2.4-.4 0-.7l-2.8-.3c-.7-.3-1.6-.8-2.6-.7l-.3.6c-.2.6.4.9.7 1.3-.5.3-1.1.4-1.4.9-.2.2-.2 1 0 1.4-1-.1-1.9-.3-2.4-.8-.5 0-.6-.2-1-.1l-1.8-.8c-.8 0-1.3.2-1.7.5 0 .4.5.4.7.6l1 .4c.4.4 1 .5 1.7.8 1 .5 2.4 1 3.6 1.4.3.4.5.9 1 1.1 1.2.4 3 .4 4 .9l4.2.8c.2 1 .4 2 .8 2.8 1.2 1 2.6 2 3.7 3.1l1 .8 1 .7 1.8 1.5c2.7 1.8 5.2 3.9 7.7 6 1.2.5 2.4 1.1 3.5 1.8h3.6l2.5-1.1c.1.7.1 2.3.5 3.2 0 .3-.4.4-.4.8v3.6l.1.5c0 .3.3 0 .3.4-.2 3.2-.2 6.4-.6 9.3l-1.1 9c-.1.3.2.3.4.4-.4 4.7-1 9.5-1.2 14.4-.2 5 0 10-.3 15.1 0 1.3 0 2.5-.2 3.8 0 1.1-.3 2.2-.4 3.4-.3 2.4-.3 4.8-.5 7.2l-.2 3.8c-.2 3.3-.6 7.4-.3 11.1.2 2.5.9 4.5 1.3 6.9v1.7c-.5 1-1.2 2.4-.8 4-.2.6-.7 1-1.2 1.4-.5.3-.8.8-1.2 1.1-.3.7-.7 1.3-.8 2-.8 1-2 1.6-3.1 2.3-1.3.5-2.4 1.1-3.8 1.5l-.9.6c-1.6.5-3.6.8-4.9 1.7l-.2.8c.2.4-.6.3-.2.7 0 .5.5.4.9.5l9.5.7a19 19 0 0 0 8.8-1.7c.3 0 .3.2.4.4.2 0 .5 0 .5.2 1 .2 1.7.6 2.5.8h3.6c1-.1 2.2-.1 2.8-.5V304c.1-.3 0-.6-.2-.6.4-1 .8-2.3.4-3.5l-.7-1.4c0-.3.3-.2.4-.4l.2-.4c.3-1.7 1-2.8 1.4-4.3v-.4c0-3 .4-5.4.6-8.2l.7-6.2c.4-3 .8-6 1-9.1.3-3.2.4-6.4.8-9.5.9-6.2 1.3-12.3 2.5-18l1.8 10.2 1.1 7.9.5 2.4c1.3 6.8 2.2 13.7 3.5 20.4l1.3 6.6 1 3c.5.9.8 1.8 1.1 2.8.2 1.2.1 2.2-.3 3l.7 1.5-.4 1.7c.1 1.7.4 3.1.7 4.7.3.3.7.4 1.3.5l-1.5 3-1.5 2-1.4 2.1-.4 2.1c0 1-.3 1.7 0 2.6.6.6 2 .4 3.4.4 3.4-.6 7.1-.9 9.7-2.3l.3-.2c.6-.9 1-1.9 1-3.1h1.3a4 4 0 0 0 2-1.6l-.2-2.7c0-.5-.4-.4-.5-.8.2-1 .2-2.1-.3-2.8.4-.7 1-1.1 1.3-1.8.1-3.2.1-6.3-.2-9.4 0-.9-.2-1.8-.4-2.7-.9-6.2-1.7-12.7-2-19.6-.5-2.9-1.4-5.8-2-8.6-.9-4.7-1.5-10-2-15.3l-1.3-12.6-1.7-12.2c.9-.3 2.2-.2 3-.7.3-3 0-6.6-.3-9.7.2-.7.7-1 1-1.4.7-1.7 1.7-3 2-5 .2-.3.7-.3 1-.5l1-.8c.2-.1.3-.4.5-.7.2-.1.5-.2.6-.5l.9-1.2c1.2-1 2.4-1.8 3.7-2.7l3.5-2.7 2.2-2.6 1.4-3c0-1-.2-2.4 0-3.4zM229 175c0-.3-.2-.3-.3-.5.8.2 1.2-1 1.5-.2-.5.1-.8.5-1.2.7zm40.4-42.6v.2-.2zm28.9 62.2l-2.8 3.4-.5.4-.2.2a58.5 58.5 0 0 1-.4-4.3c.2-1.9.1-3.7.4-5.4.2-1.7.7-3.4.9-5v-.1l.2.2a16 16 0 0 1 3.6 5.3c.4.4.8.9 1 1.5-.7 1.3-1.3 2.7-2.2 3.8zM19.6 372.2c0 .7.6 2.6 1 3.3.4.7 1.3 1.3 1.7 2.1.3-.7.5-.8 1.2-.4-.1-.5.3-.8 0-1.5-.2-.5-.7-.7-1-1.1 0-.7-.5-1-.5-1.7 0 0 .4.6.7.1.5-1-.3-1.7 0-2.7.3-1 1.3-1.6 2-2.3 0 1.8-1 2.6-1.4 4.2.6.5 1.7.7 2.3-.1.3-.5.2-1 .4-1.7l1-1.5.4-1.3c.4-.6 1.2-1 1.5-1.5.7-1.4-.5-3 .4-4 .5.4 1 .8 1 1.7 2.2-1.6 2.7-4.8 3.4-7.6 2.1-8.7 4.7-17.6 6.7-26.4 1.7 3.5 1 8.8.5 13.1-.2.5-.6.7-.8 1.1-.5 2-1.1 3.9-1.8 5.7 0 .4.4.3.2.7-2.1 4.6-1.6 11.8-2.3 17.8h1.3c0 9 .9 17.9 1.3 26.3 1.7 1.5 4.5 1.9 7.5 2 .5 1.3 1.2 2.7 1.6 4.3.3 1 .2 2.2.5 3.3.2.6.6 1.2.7 2 .3 2.3-.2 4.8-.1 7.1 0 3.4.9 6 .7 10 0 2.2-.3 4.6-.5 7-.3 4.2-.4 7.6-1.8 10.3.1 1.4-.5 2-.9 3a4 4 0 0 0-1.6 2.2l.1.8c-.8 1.2-1.3 2.7-3 3-.6 1-1.5 2.2-1.2 3.6-.3.5-.7.9-.6 1.8.4.4 1.2.6 1.9.7 3.6.3 7.2-.9 9.4-2.2.2-.6.6-1.2.8-2 1-.6 3.3-2 1.9-3.6.7-.8 0-1.7 0-2.8v-1.2c-.1-.6-.7-1-1.2-1.3 0-.5.2-.7.1-1-.8-2.3.4-4.3.9-6.3l1.5 4.4c.4 1.4 1.1 3 1.2 4.6 0 1.7-1 3.7-.1 5.1-.9 2-2.4 3.4-2.9 5.7l-1.4 1.5c-.5.7-.3.6-.5 1.6-.1.6-.4 1 .1 1.7 1 1.5 6 2.2 8.2 1.4.7-.5 1.7-1.3 1-2.5.5-1.7.2-3 .3-4.7.5-1 .6-3.3 0-4.3.2-.9.8-1.5.8-2.5s-1-2.5-1.2-3.9c-.6-5-.4-10.6-.2-16 .2-3.4.4-6.8.1-9.8l-.2-1.3c0-1 .3-2 .4-2.8.5-4.1 0-8.1-1.5-11.2.5-2.1 1.5-3.6 2.1-5.5 1.7 0 4 .3 4.7-.7 1.8-8.5 3.1-17.3 4.5-26.2.6-.4 1.5-.7 2-1.2 1.3-9.1-.7-18.1-3.6-24.4-1.8-5.5-1.2-13.5-1.7-20.3 1 1 1.2 2.9 2.1 4.3.3.4.8.6 1 1 .4.6.4 1.4.8 1.9l1.2 1.3c.4.4 1 .9 1.7.8.6 0 1-.4 1.7-.5.4-.1 1 0 1.4-.2.5-.2 1-.7 1.3-1.1 2.2-4.7-.3-10.8.2-16.5.9-1 2-1.8 3.1-2.7.4-2 1.9-2.7 2.9-4-.2-.4-.2-1-.6-1.3 1-1.3 2-2.7 2.6-4.5.5-.5 1.4-.7 1.6-1.6-1.4-.9-2.9.4-4.4 1.4-1 .7-1.8 1.6-2.7 2.2-.8.5-1.6.6-2 1.4-.4.2-1.1 0-1.4.3-1.4-.8-.2-3-.4-4.6-.1-.7-.7-2-1.2-2s-1.1.9-1.2 1.6c-.2.7 0 1.6 0 2.2 0 1.5-.8 3.8-1.4 4.9-.2.5 0 1.3-.2 1.8-.6-.4-.7-1.3-.8-1.9l-.4-2.3c-.4-.7-1.3-1.4-2-2.1-.6-.8-1.1-1.6-1.8-2.2-1.7-.2-3.6-.2-5.2-.3a7 7 0 0 1-2.7-.8c-.4-.2-.5-.6-.7-.9-1-.8-2.3-1-3.2-2l.2-.9c.3.1.5.3.6.6l1.4.2c.3.6.7 1 1.1 1.5-.3-.6-.6-1.3-.7-1.9.2.7.7 1.2 1.1 1.7-.5-.8-1.1-1.6-1.1-2.5v-.1c.1-.6.6-1 1-1.8l.5 1.7c-.2-.7-.2-1.5-.2-2.2l.2.4c0 .1 0 .3.2.4l1 1.7-.7-1.4 1 1a6.5 6.5 0 0 1-1.3-2.7c0-.4 0-.8.2-1.2l.2-.6v-.1l.1-.3.2-1.2v-.2c.2-.3.2-.6.2-.9l.6 1.2c-.3-.8-.5-1.6-.5-2.4a12.8 12.8 0 0 0 1.2 2c-.3-.8-.7-1.6-.8-2.4.3.4.6.8 1.1.9-.6-.2-1-.8-1.2-1.4l-.1-.5c.2.3.6.6 1 .7-.7-.3-1-1-1-1.6v-.8c-.1-.4-.2-.7-.5-1.1a5 5 0 0 0-.5-2l-.2-.2v-.1c.3.1.7.2 1.1 0-.5.1-1-.1-1.4-.4l-.1-.2-.4-.4-.8-.9-.7-.6-.3-.3-.1-.2c0-.5-.2-.8-.4-1a4.8 4.8 0 0 0-3-2l-1.3-.1-.6.1c-.3 0-.5 0-.7.2-.4.1-.8.4-1.1.6l-.3.1-.7.2c-.2 0-.4-.3-.5-.5 0 .3.2.5.5.6v.1h-1.2a2 2 0 0 1-.8-1c.1.5.4.8.7 1 .4.3.8.3 1.2.2l-.6.3c-.2-.1-.6-.2-.8-.1-.3 0-.6.2-.8.3l-.4.3a4 4 0 0 0-1 .3 5 5 0 0 0-1.7 1.9l-.7 1c-.2.2-.6.5-1 .3.4.2.9 0 1.2-.2l.4-.4a2 2 0 0 1-.4.5l-.3 1c-.2.3-.5.6-.8.5-.4 0-.6-.3-.8-.6.2.3.4.6.7.7.3.1.6 0 .8-.3v.2l-.1.2-.3.6-.2.4-.3.4c-.3.4-.8.9-1.5.7.4.2.8.1 1.1 0l-.2.1-.2.3c-.2.3-.6.4-1 .3.4.2.9 0 1.2-.2.3 0 .4-.4.7-.5l-.6.8-1 .8h-.3.3l-1.5.3a3 3 0 0 0 2.2-.3c.1 0 .4 0 .3-.1l.1-.1v.2h-.3v1.6a2 2 0 0 0-.3 1 1 1 0 0 1-.4.5l-.9-.1c.3.1.6.3 1 .2l.2-.1a2 2 0 0 1-.7.8c.3-.1.6-.4.9-.7v.6c0 .3-.2.7-.4 1 0 0-.2.2-.4.1-.2 0-.3-.2-.4-.3l.4.4c.2.1.4 0 .6-.1.3-.3.4-.7.6-1v1.7c-.2.2-.4.4-.7.3h.6l-.3.4c.2-.1.4-.3.5-.6l.2-.2.2-.5c.2.2 0 .5.1.6h.1v.6l-.4.7c-.1.1-.4.2-.7.1.3.1.6.1.8 0 .3-.2.4-.5.5-.7l.2-.6c.1.4.2.9.1 1.3 0 .6-.4 1.1-1 1.2a1.4 1.4 0 0 0 1.3-1v.1c0 .4-.2.8-.4 1.1-.2.3-.6.5-1 .6.4 0 .9-.1 1.2-.5.3-.3.5-.7.6-1.1.2-.7.2-1.3.1-2 .3.6.3 1.3.3 2 0 .3-.2.7-.4 1-.2.3-.6.6-1 .6.4 0 .9-.1 1.2-.4l.5-1c.1.3.2.5.4.6v.2c0 .5 0 1-.3 1.5.3-.3.5-.7.7-1.2l.1-.3.3.6s-.2 0-.2.2l.3-.1.4.3c0 1.3.3 2.5.6 3.7l-1.3.4c-.5.7-1.2 1.3-1.9 1.9-.4 1-1.2 1.7-1.8 2.6-.8.6-2 1.2-2.3 2-1.4.4-2.4 1-3.4 1.9l-1.3 1.2c-.6 1-.7 2.1-1.3 3.1 0 5.3-1.3 9.4-2.7 13.8-2.7 8.4-4.1 17.6-5.7 27.5-.4 2.3-1.8 5.7.1 6.7-1.6 3-4.2 5-5.9 8-.1.7 0 2-.2 2.8 0 .4-.3.7-.3 1zM42.5 289v.1h-.2l.2-.1zM61 450.6c.5 0 .7.7.4 1 0-.4-.4-.5-.4-1zm.1 4.3c0 .1 0 .4-.2.3 0-.2 0-.3.2-.3zm-6.2-1.4c-.8 1.2-.1-.2 0 0zm-1.5-10c.2 0 .4.4.2.4l-.2-.3zM45 289.3zm10.4-13.5a1 1 0 0 1-.5-.2l.5.2z"/></svg>