<svg xmlns="http://www.w3.org/2000/svg" viewBox="0 0 320 568"><path fill="#00659C" d="M88.6 38c.6 0 1-.1 1.4-.5l.3-.6V21.8l.2-.4.4-.1h1.7l.4.1.1.4v13.3c0 2-.3 3.5-1 4.3-.7.9-1.9 1.3-3.5 1.3l-.4-.1-.2-.5v-1.5c0-.2 0-.3.2-.4l.4-.1zm14.7 2.7h-5.9l-.4-.1-.1-.5V21.8l.1-.4.4-.1h5.9l.4.1.1.4v2h-3.6c-.3 0-.4.1-.5.2v5h3.5c.3 0 .4.1.5.2l.1.4v1.9l-.5.2h-3.6V38h3.5c.3 0 .4.1.5.2l.1.4v2h-.5zm11.3-19.4h3.4c1.3 0 2.4.4 3.2 1.3s1.2 2.2 1.2 4v8.8c0 1.7-.4 3-1.2 4s-2 1.3-3.2 1.3h-3.4l-.4-.1-.1-.5V21.8l.1-.4.4-.1zm2.3 3.1V38h1.1c.5 0 .9 0 1.2-.4s.4-.8.4-1.5V25.9c0-.7-.1-1.2-.4-1.5s-.7-.5-1.2-.5h-1.1v.5zm17.7 2v9.1c0 1.7-.4 3-1.2 4-.8.8-2 1.3-3.2 1.3s-2.4-.5-3.3-1.3-1.2-2.3-1.2-4v-9c0-1.8.4-3 1.2-4s2-1.3 3.3-1.3 2.4.4 3.2 1.3a6 6 0 0 1 1.2 4zm-2.8 9.9V25.7c0-.8-.2-1.4-.8-1.8-.6-.3-1.1-.3-1.7 0-.6.4-.9 1-.8 1.8v10.6c0 .8.2 1.4.8 1.7.6.4 1.1.4 1.7 0 .6-.3.9-1 .8-1.7zm9.2-14.5v18.3c0 .2 0 .4-.2.5h-2.5l-.1-.5V21.8l.1-.4.4-.1h1.7l.4.1.2.4zm7.5 19c-1.2 0-2.3-.4-3.2-1.3-.8-1-1.2-2-1.2-3.2l.1-.5c0-.1.2-.2.5-.2h1.6c.3 0 .5.3.5.7 0 .6.2 1 .5 1.4.3.4.7.5 1.2.5s.9-.1 1.2-.4.5-.7.5-1.2c.2-1.1-.4-2.5-1.7-4a22.4 22.4 0 0 1-1.2-1.4l-.6-.7a23.3 23.3 0 0 0-1.6-2.4 47.1 47.1 0 0 0-.6-1.7l-.1-.8a4 4 0 0 1 4-4.4c1 0 2 .3 2.7 1a4 4 0 0 1 1.3 2.7v.7l-.5.1h-2l-.1-.5c0-.5-.1-.8-.4-1.1-.2-.2-.5-.4-1-.4-.4 0-.8.2-1 .6a2 2 0 0 0-.3 1.2 5 5 0 0 0 1 2.3l1.8 2.4c.7.7 1.4 1.6 2 2.6.6 1 1 2 1 3 .2 1.3-.2 2.4-1 3.5-.9 1-2 1.5-3.4 1.5zm23-.1h-1.7a2 2 0 0 1-.3 0l-.2-.1v-.3l-.3-1.5c0-.3-.1-.5-.2-.5h-3.4l-.1.5-.3 1.5-.1.3h-2.6v-.4l3.5-18.4.1-.4.5-.1h1.9l.2.5 3.5 18.4v.4h-.5zM167 28.3l-1.1 6.8v.4l.4.1h2.1V35l-1.2-6.8h-.2zm16.7 12.4h-1.2c-.3 0-.5-.1-.6-.3L178.3 30h-.1c-.1 0 0-.1-.1 0v10.1c0 .2 0 .4-.2.5h-2.5l-.1-.5V21.8l.1-.4.4-.1h1.3c.3 0 .5.1.5.4l3.7 10.3v.1h.2V21.8l.1-.4.5-.1h1.6l.5.1.1.4v18.3l-.1.5h-.5zm7.3-18.9v18.3l-.2.5h-2.5l-.1-.5V21.8l.1-.4.4-.1h1.7l.4.1.1.4zm9.7 18.9h-.6c-.3 0-.5-.1-.6-.4l-1.7-7.1-.2-.1v7l-.1.5h-2.6V21.4l.5-.1h1.2c.3 0 .5.1.6.3l3 13 .2.2.1-.1 3.1-13c0-.3.3-.4.6-.4h1.2l.4.1.2.4v18.3c0 .2 0 .4-.2.5h-2.5l-.1-.5v-7h-.1l-1.8 7.2c0 .3-.3.4-.6.4zm15.5 0h-5.8l-.4-.1-.2-.5V21.8c0-.2 0-.3.2-.4l.4-.1h5.8l.5.1.1.4v1.5l-.1.5h-3.5c-.3 0-.5.1-.5.2v5h3.5l.5.2.1.4v1.5l-.1.4-.5.2h-3.5V38h3.5l.5.2.1.4v1.5l-.1.5h-.5zm4.8-19.4h3.6c1.3 0 2.3.4 3 1.3.7.8 1.1 2.1 1.1 3.8v1c0 2.1-.5 3.6-1.7 4.4l1.7 8.3c0 .4 0 .6-.3.6h-2.1l-.2-.1-.1-.3-1.4-7.5c0-.1-.1-.2-.3-.2h-1.1v7.5c0 .2 0 .4-.2.5h-2.5l-.1-.5V21.8l.1-.4.5-.1zm3.6 2.4h-.9l-.5.1v6.3h1.4c.9 0 1.3-.6 1.3-2v-2.4c0-1.3-.4-2-1.3-2zm-164.1 44V53.2l.1-.4.5-.1h1.6l.4.1.2.4V67c0 1.8-.4 3-1.3 4-.8.9-1.8 1.3-3.2 1.3-1.3 0-2.4-.4-3.2-1.3s-1.2-2.2-1.2-4V53.2l.1-.4.5-.1h1.6l.4.1.2.4v14.5c0 .8.2 1.4.8 1.7.5.4 1.1.4 1.7 0 .6-.3.9-1 .8-1.7zm15 4.3h-1.3c-.3 0-.5 0-.5-.2L70 61.4h-.2v10.1l-.1.5H67V52.8l.5-.1h1.2c.3 0 .5.1.6.4L73 63.4l.1.1h.1c.1 0 0 0 0-.1V53.2c0-.2 0-.3.2-.4l.4-.1h1.7l.4.1.1.4v18.3l-.1.5h-.4zM89 57.1v10.6c0 .8.2 1.4.8 1.7.6.4 1.2.4 1.8 0 .6-.3.8-1 .8-1.7v-4l-.1-.5h-.7L91 63v-2.4l.5-.1H95l.1.5v6c0 1.7-.4 3-1.1 3.9s-2 1.4-3.3 1.4c-1.3 0-2.4-.4-3.2-1.3s-1.2-2.2-1.2-4v-9c0-1.8.4-3 1.2-4s1.9-1.3 3.2-1.3c1.2 0 2.3.4 3 1.1.8.8 1.3 2 1.4 3.5 0 .4-.1.7-.5.7h-1.7c-.2 0-.3 0-.4-.2l-.1-.4v-.2c0-.8-.2-1.4-.8-1.7-.6-.4-1.2-.4-1.8 0-.6.3-.8.9-.8 1.7zm10.3-4.4h3.6c1.3 0 2.3.4 3 1.3.8.8 1.1 2.1 1.1 3.8v1c0 2.1-.5 3.6-1.6 4.5l1.6 8.2c.1.4 0 .6-.3.6h-2.1l-.1-.1-.2-.3-1.4-7.5c0-.1-.1-.2-.3-.2h-1v7.5l-.2.5h-2.5l-.2-.5V53.2c0-.2 0-.3.2-.4l.4-.1zm3.6 2.4h-.8l-.5.1v6.3h1.3c1 0 1.4-.6 1.4-2v-2.4c0-1.3-.5-2-1.4-2zm16.4 2.7V67c0 1.8-.4 3-1.3 4-.8.9-1.8 1.3-3.2 1.3s-2.4-.4-3.2-1.3-1.2-2.2-1.2-4v-9c0-1.8.4-3 1.2-4s1.9-1.3 3.2-1.3 2.4.4 3.2 1.3c.9 1 1.3 2.2 1.3 4zm-2.8 9.9V57c0-.8-.2-1.4-.8-1.7-.6-.4-1.2-.4-1.7 0-.6.3-.9.9-.8 1.7v10.6c0 .8.2 1.4.8 1.7.5.4 1.1.4 1.7 0 .6-.3.9-1 .8-1.7zm12.3 0V53.2l.1-.4.5-.1h1.6l.5.1.1.4V67a6 6 0 0 1-1.2 4c-.8.9-2 1.3-3.2 1.3-1.4 0-2.4-.4-3.3-1.3s-1.2-2.2-1.2-4V53.2c0-.2 0-.3.2-.4l.4-.1h1.6l.5.1.1.4v14.5c0 .8.2 1.4.8 1.7.6.4 1.2.4 1.7 0 .6-.3.9-1 .8-1.7zm7.1-15h3.3c1.3 0 2.4.4 3.2 1.3s1.2 2.2 1.2 4v2.4c0 1.7-.4 3-1.2 3.9s-1.9 1.3-3.2 1.3h-.8c-.1 0-.2 0-.3.2v5.7c0 .4-.2.6-.5.6h-1.7l-.5-.1V52.8l.5-.1zm2.2 3.2V63h1.1c.5 0 1-.1 1.2-.5.3-.3.5-.8.5-1.5v-3.7c0-.7-.2-1.2-.5-1.5s-.7-.5-1.2-.5h-1v.6zM153.4 72H147l-.1-.5V53.2l.1-.4.4-.1h5.9l.4.1.1.4v1.5l-.1.5-.4.1h-3.6v5.3h3.5c.3 0 .4.1.5.2l.1.4v1.5l-.1.4-.4.2h-3.6v6.2h3.5c.3 0 .4.1.5.2l.1.4v1.5l-.1.5h-.4zm11.3-19.3h3.4c1.3 0 2.4.4 3.2 1.3s1.2 2.2 1.2 4v8.8c0 1.7-.4 3-1.2 4s-2 1.3-3.2 1.3h-3.4l-.4-.1-.1-.5V53.2l.1-.4.4-.1zm2.3 3.2v13.5h1.1c.5 0 .9 0 1.2-.4s.4-.8.4-1.5V57.3c0-.7-.1-1.2-.4-1.5s-.7-.5-1.2-.5H167v.6zM182.5 72h-6.3l-.1-.5V53.2l.1-.4.4-.1h5.9l.4.1.2.4v1.5c0 .2 0 .4-.2.5l-.4.1h-3.6v5.3h3.6l.4.2.2.4v1.5c0 .2 0 .4-.2.4l-.4.2h-3.6v6.2h3.6l.4.2.2.4v1.5c0 .2 0 .4-.2.5h-.4zm9.8-17.3v-1.5c0-.2 0-.3.2-.4l.4-.1h7.2l.4.1.1.4v2l-.5.1h-2.2v16.2l-.1.5h-2.6l-.1-.5v-16l-.5-.1h-1.7l-.4-.1-.2-.5zm11.8-2h3.6c1.3 0 2.3.4 3 1.3.8.8 1.2 2.1 1.2 3.8v1c0 2.1-.6 3.6-1.7 4.5l1.6 8.2c.1.4 0 .6-.3.6h-2l-.2-.1-.1-.3-1.5-7.5c0-.1 0-.2-.3-.2h-1v7.5l-.2.5h-2.5l-.1-.5V52.8l.5-.1zm3.6 2.4h-.8l-.5.1v6.3h1.3c1 0 1.4-.6 1.4-2v-2.4c0-1.3-.5-2-1.4-2zM224.2 72h-1.6a2 2 0 0 1-.3 0h-.2l-.1-.3-.3-1.5c0-.3-.1-.5-.2-.5h-3.3c-.1 0-.2.2-.2.5l-.3 1.5v.3H215v-.4l3.5-18.4c0-.2 0-.3.2-.4l.4-.1h1.9l.2.5 3.5 18.4v.4h-.5zm-4.5-12.3l-1.1 6.8v.4l.5.1h2v-.5l-1.1-6.8h-.2zm14-7h2l.1.1v.4l-3.4 18.4-.2.4h-2.4l-.1-.4-3.5-18.4v-.4l.4-.1h2l.2.1.1.3 2 12h.2l2-12 .1-.3h.2l.3-.1zM246.5 72h-1.7a2 2 0 0 1-.3 0h-.1l-.2-.3-.2-1.5c0-.3-.1-.5-.2-.5h-3.4l-.1.5-.3 1.5-.1.3h-2.6v-.4l3.5-18.4.1-.4.5-.1h1.9l.2.5 3.5 18.4v.4h-.5zM242 59.8l-1.1 6.8v.4l.4.1h2.1v-.5l-1.2-6.8h-.2zm11-6.6V72h-2.6l-.1-.5V53.2l.1-.4.4-.1h1.7l.4.1.2.4zM263.3 72h-6.2l-.2-.5V53.2c0-.2 0-.3.2-.4l.4-.1h1.7l.4.1.1.4v16.2h3.6c.3 0 .4.1.5.2l.1.4v1.5l-.1.5h-.5z"/><path fill="#41D5CF" d="M186 103H60v79.7l126-15.4z"/><path fill="#00659C" d="M315 103H189v63.9l126-15.5zM80 126.5h-.3l-.3-.1v-13.9h4.7v.8l-.3.1h-3.4v5.2l.4.1h2.7v.9h-2.7l-.4.1v6.4l-.1.4H80zm8.2-9.2c-.9 0-1.4.6-1.5 1.8l-.1.4h-.9v-.3c0-.7.2-1.4.6-2 .4-.5 1-.8 2-.8 1.7 0 2.6 1.2 2.6 3.5v5l.1 1.2c0 .2 0 .4-.4.4h-.3c-.2 0-.3 0-.3-.2l-.2-.5c-.4.5-1 .7-1.8.7s-1.4-.2-1.8-.7-.7-1-.7-2v-.5c0-.6.1-1.1.4-1.5.3-.4.7-.7 1.1-.9l1.3-.5 1-.5c.2-.2.5-.4.5-.7 0-.5-.1-1-.4-1.3-.3-.4-.7-.6-1.2-.6zm.1 8.3c.5 0 1-.2 1.1-.5.3-.3.4-.8.4-1.5v-3l-1 .5-1 .3c-1 .5-1.4 1.2-1.3 2.2 0 1.4.6 2 1.8 2zm7.3.9c-.8 0-1.4-.2-2-.8s-.6-1.5-.6-2.7v-3c0-1.2.2-2 .7-2.7s1.1-.8 2-.8c.8 0 1.5.3 1.9.8.4.6.6 1.3.6 2v.3h-.9v-.4c0-.6-.2-1-.5-1.3-.3-.3-.7-.5-1.2-.5s-.9.2-1.2.6c-.3.3-.4.9-.4 1.6v4c0 .7.1 1.2.4 1.5.3.4.7.6 1.2.6s.9-.2 1.2-.5c.3-.3.4-.7.5-1.3v-.4h.9v.3c0 .7-.2 1.4-.6 2-.5.6-1.1.8-2 .8zm5.4-10.9c-.3 0-.5-.1-.6-.4a.7.7 0 0 1 0-.6c.1-.2.3-.3.6-.3.2 0 .4 0 .5.3v.6c0 .3-.3.4-.5.4zm.5 1.3v9.2l-.1.3h-.9v-9.9h.9c.1 0 0 .2 0 .4zm4 8.6l.4.1v.8h-.4c-.7 0-1.2-.2-1.4-.7l-.3-1.2v-11.9l.4-.1h.5l.1.4v10.5l.1 1.5c0 .4.3.6.6.6zm2-2.5v-3c0-1.2.3-2 .8-2.7s1.1-.8 2-.8c.8 0 1.4.3 1.9.8s.7 1.5.7 2.7v1.4H109l-.4.1v2c0 .8.1 1.3.4 1.6.3.4.7.6 1.2.6s.9-.2 1.2-.5c.2-.3.4-.7.4-1.3l.1-.4h.9v.3c0 .7-.2 1.4-.6 2-.5.6-1.1.8-2 .8-.8 0-1.5-.3-2-.8s-.7-1.5-.7-2.7zm1-3.5v.5l.1.4h3.2v-.9c0-.7 0-1.3-.4-1.6s-.7-.6-1.2-.6-.9.2-1.2.6c-.3.3-.4.9-.4 1.6zm13.1-2.2c-1 0-1.4.6-1.6 1.8v.4h-1v-.3c0-.7.2-1.4.6-2 .4-.5 1-.8 2-.8 1.7 0 2.5 1.2 2.5 3.5v5l.2 1.2c0 .2 0 .4-.4.4h-.4c-.1 0-.2 0-.3-.2v-.5c-.6.5-1.2.7-2 .7-.7 0-1.3-.2-1.8-.7s-.6-1-.6-2v-.5c0-.6.1-1.1.4-1.5l1-.9 1.3-.5c.5-.1.8-.3 1.1-.5s.5-.4.5-.7c0-.5-.2-1-.4-1.3-.3-.4-.7-.6-1.2-.6zm.1 8.3c.5 0 .9-.2 1.1-.5.3-.3.4-.8.4-1.5v-3l-1 .5-1 .3c-1 .5-1.4 1.2-1.3 2.2 0 1.4.6 2 1.8 2zm0-10.1h-.3v-.3l-.5-1.9c0-.3 0-.4.3-.4h.2c.3 0 .5.1.5.4v2c0 .1 0 .2-.2.2zm14 4v6.9h-.9v-6.9c0-1.4-.6-2.2-1.7-2.2s-1.5.8-1.5 2.2v6.6l-.1.3h-.9v-9.9h.9c.1 0 0 .2 0 .4v.3c.5-.5 1-.8 1.7-.8 1 0 1.7.3 2.1 1.2.5-.8 1.2-1.2 2-1.2s1.5.2 2 .8.6 1.5.6 2.7v6.5h-.9l-.1-.3v-6.6c0-1.4-.6-2.2-1.6-2.2s-1.6.8-1.6 2.2zm6.3 3.5v-3c0-1.2.2-2 .7-2.7s1.2-.8 2-.8 1.5.3 2 .8.7 1.5.7 2.7v1l-.1.4h-3.9l-.3.1v2c0 .8 0 1.3.4 1.6.3.4.7.6 1.2.6s.8-.2 1.1-.5c.3-.3.5-.7.5-1.3v-.4h1l.1.3a3 3 0 0 1-.7 2c-.4.6-1 .8-2 .8-.7 0-1.4-.3-1.9-.8s-.7-1.5-.7-2.7zm1-3.5v.5l.1.4h3.2v-.9c0-.7-.1-1.3-.4-1.6s-.7-.6-1.2-.6-1 .2-1.2.6c-.3.3-.5.9-.5 1.6zm7.6-4.8v2c0 .2 0 .2.2.2h.4l.3.1v.8l-.3.1h-.4c-.1 0-.2 0-.2.2v6.8c.2.4.4.6.7.6l.3.1.1.3v.5h-.4c-.7 0-1.2-.2-1.4-.7l-.3-1.2V118l-.2-.2h-.3l-.1-.4v-.5h.4c.1 0 .2-.1.2-.3v-2.3h1l.1.3zm4 0v2c0 .2 0 .2.2.2h.3l.3.1.1.3v.5l-.4.1h-.3c-.2 0-.2 0-.2.2v6.8c.1.4.3.6.7.6l.3.1v.8h-.3c-.7 0-1.2-.2-1.5-.7l-.2-1.2V118c0-.1-.1-.2-.3-.2h-.3v-.9h.3c.2 0 .2-.1.2-.3v-2l.1-.3h.9v.3zm5.4 2.9l-.5-.1c-.4 0-.7.2-.9.7v7.8l-.2.3h-.8l-.1-.3v-9.6h1l.1.4v.2a2 2 0 0 1 1.5-.6h.3l.1.4v.7h-.4zm1.5 5.4v-3c0-1.2.2-2 .7-2.7s1.2-.8 2-.8 1.5.3 2 .8.7 1.5.7 2.7v1l-.1.4h-3.9l-.3.1v2c0 .8 0 1.3.4 1.6.3.4.7.6 1.2.6s.8-.2 1.1-.5c.3-.3.5-.7.5-1.3v-.4h1l.1.3a3 3 0 0 1-.7 2c-.4.6-1 .8-2 .8-.7 0-1.4-.3-1.9-.8s-.7-1.5-.7-2.7zm1-3.5v.5l.1.4h3.2v-.9c0-.7-.1-1.3-.4-1.6s-.7-.6-1.2-.6-1 .2-1.2.6c-.3.3-.5.9-.5 1.6zm-68 27.5v-3c0-1.2.3-2 .8-2.6s1-1 2-1c.7 0 1.4.4 1.9 1s.7 1.4.7 2.6v1.4H96l-.4.1v2c0 .8.1 1.3.4 1.7.3.3.7.5 1.2.5s.9-.2 1.2-.5c.2-.3.4-.7.4-1.3l.1-.3.3-.1h.6v.3c0 .7-.2 1.4-.6 2-.5.6-1.1.8-2 .8-.8 0-1.5-.2-2-.8s-.7-1.5-.7-2.7zm1-3.5v.5l.1.4h3.2v-.9c0-.7 0-1.3-.4-1.6s-.7-.6-1.2-.6-.9.2-1.2.6c-.3.3-.4.9-.4 1.6zm10.8 6.5v-6.5c0-1.4-.6-2.2-1.6-2.2s-1.6.8-1.6 2.2v6.9h-1l-.1-.3v-9.5l.4-.1h.5l.1.4v.3a2 2 0 0 1 1.6-.8c.8 0 1.5.2 2 .8.4.6.6 1.5.6 2.7v6.5h-1v-.3zm7.1-3v-3c0-1.2.3-2 .7-2.6s1.2-1 2-1 1.5.4 2 1 .7 1.4.7 2.6v3.1c0 1.2-.3 2-.7 2.7s-1.2.8-2 .8-1.5-.2-2-.8-.7-1.5-.7-2.7zm4.3.4v-4c0-.6-.1-1.2-.4-1.5s-.7-.6-1.2-.6-1 .2-1.2.6c-.3.3-.4.9-.4 1.6v4c0 .7.1 1.2.4 1.5.3.4.7.6 1.2.6s1-.2 1.2-.6c.3-.3.4-.8.4-1.6zm3.1-.4v-3c0-1.2.2-2 .7-2.6s1.1-1 2-1c.8 0 1.4.4 2 1s.6 1.4.6 2.6v1.4h-3.9l-.3.1v2c0 .8 0 1.3.4 1.7.3.3.7.5 1.2.5.4 0 .8-.2 1.1-.5.3-.3.4-.7.5-1.3v-.3l.3-.1h.6v.3c0 .7-.2 1.4-.6 2-.4.6-1 .8-2 .8-.8 0-1.4-.2-1.9-.8s-.7-1.5-.7-2.7zm1-3.5v.9h3.2l.1-.4v-.5c0-.7-.1-1.3-.4-1.6s-.7-.6-1.2-.6-1 .2-1.2.6c-.3.3-.5.9-.5 1.6zm7.5-2.6v6.5c0 1.5.5 2.2 1.5 2.2s1.6-.7 1.6-2.2v-6.8h1v9.9h-.9l-.1-.3v-.4a2 2 0 0 1-1.6.8c-.8 0-1.4-.2-1.9-.8s-.7-1.5-.7-2.7V141l.1-.4h.9v.4zm10.5-.4h.5l.1.3-2 9.3v.3h-1.2v-.3l-2-9.3v-.3h.9l.1.3 1.5 7.7.1.1c.1 0 0 0 0 0l1.6-7.8v-.3h.4zm4.8 1.1l-.5-.1c-.4 0-.7.2-.9.7v7.8l-.2.3h-.8l-.1-.3v-9.5l.4-.1h.5l.1.4v.2a2 2 0 0 1 1.5-.6h.3l.1.4v.7h-.4zm1.5 5.4v-3c0-1.2.2-2 .7-2.6s1.2-1 2-1 1.5.4 2 1 .7 1.4.7 2.6v1l-.1.4h-3.9l-.3.1v2c0 .8 0 1.3.4 1.7.3.3.7.5 1.2.5s.8-.2 1.1-.5c.3-.3.5-.7.5-1.3v-.3l.3-.1h.6l.1.3a3 3 0 0 1-.7 2c-.4.6-1 .8-2 .8-.7 0-1.4-.2-1.9-.8s-.7-1.5-.7-2.7zm1-3.5v.9h3.3v-.9c0-.7-.1-1.3-.4-1.6s-.7-.6-1.2-.6-1 .2-1.2.6c-.3.3-.5.9-.5 1.6z"/><path d="M16.7 186h.6c.3 0 .5.2.4.5 0 1.2-.3 2.1-.8 2.7-.6.6-1.4 1-2.4 1s-1.8-.4-2.3-1c-.6-.6-.9-1.5-.9-2.7v-7.9c0-1.2.3-2.1.9-2.7.5-.6 1.3-1 2.3-1s1.8.4 2.4 1 .8 1.5.8 2.7c0 .3 0 .5-.4.5h-.6c-.3 0-.4-.2-.4-.4a3 3 0 0 0-.5-1.8c-.3-.4-.7-.6-1.3-.6-.6 0-1 .2-1.3.7-.3.4-.4 1-.4 2v7.1c0 1 .1 1.6.4 2 .3.5.7.7 1.3.7.6 0 1-.2 1.3-.6.3-.4.4-1 .5-1.8 0-.2.1-.4.4-.4zm7.6 3.6v-7c0-.6-.2-1.1-.5-1.5s-.6-.5-1-.5c-.5 0-.9.2-1.1.5s-.5.9-.5 1.5v7.4h-1.3l-.1-.4v-14.5h1.4v5.1c.5-.6 1-1 1.8-1s1.5.3 2 1c.5.6.7 1.5.7 2.8v7h-1.4v-.4zm4.9-4.4v1.6c0 1.3.5 2 1.4 2 .4 0 .7-.2 1-.4.2-.3.4-.7.4-1.2l.1-.4h1.2l.1.6c0 .8-.3 1.5-.8 2s-1.2.7-2 .7c-.9 0-1.6-.3-2-.9-.6-.6-.9-1.6-.9-2.8V183c0-1.2.3-2.2.8-2.8s1.2-1 2.1-1 1.6.4 2.1 1 .8 1.6.8 2.8v1.4l-.1.3h-3.8l-.3.1-.1.4zm0-2.6v.8H32v-.8c0-1.3-.4-2-1.4-2-1 0-1.4.7-1.4 2zm9.5-1.7l-.5-.1c-.5 0-.8.2-1 .7l-.1 1.5v6.6l-.1.4h-1.3v-10.6H37v.6c.5-.4 1-.6 1.6-.7l.4.1.1.4v1c-.1.1-.3.1-.4 0zm-22.5 17.8v2.4c0 .2 0 .3.3.3h2l.5.1.2.5v.7c0 .3 0 .4-.2.5l-.4.1h-2.1c-.2 0-.3.1-.3.3v2.4l-.1.4-.5.1h-.8l-.4-.1-.1-.4v-2.4c0-.2-.1-.3-.3-.3h-2.1l-.5-.1v-1.7l.5-.1H14c.2 0 .3 0 .3-.3v-2.4l.1-.4.4-.2h.8c.2 0 .4 0 .5.2v.4zm-4.9 334.7v-.8c0-.4.1-.6.4-.6h4.8c.3 0 .4.2.4.6v.8c0 .3-.1.5-.4.5h-4.8c-.3 0-.4-.2-.4-.5zm1.7 20.3v4.4l-.1.4h-1.3v-14.9h2.8c1 0 1.8.3 2.3.9.6.6.9 1.5.9 2.7v2.4c0 1.2-.3 2.1-.9 2.8a3 3 0 0 1-2.3.9H13v.4zm0-8.4v6.7h1.4c.6 0 1-.2 1.3-.6.3-.4.4-1.1.4-2v-1.7c0-1-.1-1.6-.4-2-.3-.5-.7-.7-1.3-.7H13v.4zm10.5 12.6c-.5.5-1.2.7-2 .7-.7 0-1.4-.2-1.8-.7-.5-.5-.8-1.2-.8-2.1v-.7c0-.6.2-1 .4-1.5.3-.4.6-.6 1-.8l1.2-.5 1-.5c.4-.2.6-.5.7-.8 0-.5 0-1-.2-1.3-.3-.4-.6-.6-1.1-.6-.4 0-.7.2-1 .4-.2.3-.4.7-.4 1.2v.4h-1.3v-.4c-.1-.8.1-1.5.6-2 .6-.7 1.3-1 2-1a3 3 0 0 1 2 .8c.6.5.9 1.3.9 2.2v6.2c0 .2 0 .7.2 1.2 0 .3-.1.5-.5.5H24c-.2 0-.3 0-.4-.2l-.1-.5zm-1.5-.6c.4 0 .7-.2 1-.5l.2-1.2V553a13.3 13.3 0 0 0-1.7.6c-.8.5-1.2 1-1.1 1.9v.2c0 .6.1 1 .4 1.3.3.3.7.4 1.2.4zm9.6-7.1v.3l-.4.1h-.5c-.2 0-.3-.1-.4-.3a1.2 1.2 0 0 0-1.1-1.2c-.4 0-.6.1-.9.4-.2.2-.3.5-.3.8 0 .3.1.7.4 1l1 1 1.2.9c.4.3.8.7 1 1.2s.4 1 .4 1.5c0 .8-.3 1.5-1 2-.5.5-1.1.7-1.9.7-.8 0-1.4-.2-2-.8-.5-.5-.8-1.1-.8-2v-.2l.4-.1h.6c.2 0 .4.1.4.4 0 .4.2.7.4 1 .3.2.6.4 1 .4s.8-.2 1-.5c.3-.2.5-.6.5-1s-.2-.7-.4-1.1l-1-1a43 43 0 0 1-1.2-1c-.4-.2-.7-.6-1-1-.2-.5-.4-1-.4-1.4 0-.7.3-1.3.8-1.8.4-.5 1-.8 1.7-.8s1.3.3 1.8.7c.4.5.7 1 .7 1.8zm6.6 4.7v-3.4c0-1.3.3-2.2.8-2.8s1.2-1 2-1c1 0 1.6.3 2 .8.5.5.8 1.2.9 2l-.1.5-.4.2H43l-.3-.1-.1-.4c0-.5-.2-.9-.5-1.2-.2-.2-.5-.4-1-.4-.9 0-1.3.7-1.3 2v4.2c0 1.3.4 2 1.4 2 .4 0 .7-.2 1-.5.2-.2.3-.6.4-1.1v-.4h1.3v.5c0 .9-.3 1.6-.8 2-.4.6-1 .8-2 .8-.8 0-1.5-.3-2-.9-.5-.6-.8-1.6-.8-2.8zm12.3 3.2v-7c0-.6-.1-1.1-.4-1.5s-.7-.5-1.1-.5c-.4 0-.8.2-1 .5s-.5.9-.5 1.5v7l-.1.4h-1.3v-14.9h1.3l.1.4v4.7c.4-.6 1-1 1.7-1 .9 0 1.5.3 2 1 .5.6.8 1.5.8 2.8v6.6l-.1.4h-1.3l-.1-.4zm5-4.4v1.6c0 1.3.4 2 1.4 2 .4 0 .7-.2 1-.5.2-.2.3-.6.4-1.1v-.4h1.4v.6c0 .8-.3 1.5-.8 2s-1.1.7-2 .7c-.8 0-1.5-.3-2-.9-.6-.6-.8-1.6-.8-2.8v-3.4c0-1.3.2-2.2.8-2.8s1.2-1 2-1 1.7.4 2.2 1 .7 1.5.7 2.8v1.7H56l-.4.1v.4zm0-2.6v.8h2.7v-.8c0-1.3-.4-2-1.3-2-1 0-1.4.7-1.4 2zm9.5-1.7l-.6-.1c-.5 0-.8.2-1 .7v8.1c0 .2 0 .3-.2.4H62l-.1-.4v-10.2h1.3l.1.4v.2c.5-.4 1-.7 1.6-.7l.4.1v1.4c-.1.1-.2.1-.4 0z"/><path fill="#FFF" d="M206.4 126.5h-2.8l-.3-.1-.1-.3v-13.6h3.3c1 0 1.7.2 2.2.8.6.6.8 1.4.8 2.6v7.2c0 1-.2 2-.8 2.5s-1.2.9-2.2.9zm0-13h-2.1l-.1.3v11.6l.4.1h1.8c.6 0 1-.2 1.5-.6.3-.4.5-1 .5-1.9v-7c0-.8-.2-1.4-.5-1.9-.4-.4-1-.6-1.5-.6zm5.8 2.1c-.3 0-.5-.1-.6-.4a.7.7 0 0 1 0-.6c.1-.2.3-.3.6-.3.2 0 .4 0 .5.3v.6c0 .3-.3.4-.5.4zm.5 1.3v9.2l-.1.3h-.9v-9.9h.9v.4zm4.9-3.5c-.6 0-1 .2-1.2.6-.2.3-.3 1-.3 1.9v.8c0 .2 0 .2.2.2h.8l.3.1.1.3v.5h-1.3c-.1 0-.2.1-.2.3v8.3h-.9l-.1-.3v-8c0-.2 0-.2-.2-.2l-.3-.1-.1-.3v-.5h.4c.1 0 .2-.1.2-.3V115a7.4 7.4 0 0 1 .4-1.5v-.2l.2-.1.1-.2h.2c.2 0 0-.2.1-.2.3-.2.8-.3 1.5-.3h.3v.8l-.3.1zm4.1 0c-.6 0-1 .2-1.1.6-.2.3-.3 1-.3 1.9v.8c0 .2 0 .2.2.2h.8l.3.1.1.3v.5h-1.3c-.1 0-.2.1-.2.3v8.3h-.9l-.1-.3v-8c0-.2-.1-.2-.2-.2l-.3-.1-.1-.3v-.5h.4s.2-.1.2-.3V115a7.4 7.4 0 0 1 .3-1.5l.1-.2.2-.1c.2-.1 0-.1 0-.2h.2l.2-.2c.3-.2.8-.3 1.4-.3h.4v.8l-.4.1zm2.3 2.2c-.3 0-.5-.1-.6-.4a.7.7 0 0 1 0-.6c.1-.2.3-.3.6-.3.2 0 .4 0 .5.3v.6c0 .3-.3.4-.5.4zm.5 1.3v9.2l-.1.3h-.9v-9.9h.9v.4zm4.9 9.6c-.9 0-1.5-.2-2-.8s-.7-1.5-.7-2.7v-3c0-1.2.2-2 .7-2.7s1.1-.8 2-.8c.8 0 1.5.3 1.9.8.4.6.7 1.3.7 2v.3h-1l-.1-.4a1.7 1.7 0 0 0-1.6-1.8c-.5 0-1 .2-1.2.6-.3.3-.5.9-.5 1.6v4c0 .7.2 1.2.5 1.5.3.4.7.6 1.2.6.4 0 .8-.2 1.1-.5.3-.3.4-.7.5-1.3v-.4h1.1v.3c0 .7-.2 1.4-.6 2-.4.6-1 .8-2 .8zm5.3-10.9c-.3 0-.4-.1-.5-.4a.7.7 0 0 1 0-.6c0-.2.2-.3.5-.3s.4 0 .6.3 0 .4 0 .6c-.1.3-.3.4-.6.4zm.5 1.3v9.5h-1l-.1-.3v-9.6h1.1l.1.4zm4.1 8.6l.3.1v.8h-.3c-.7 0-1.2-.2-1.5-.7l-.2-1.2v-11.9l.3-.1h.6v10.9l.1 1.5c.1.4.3.6.7.6zm2-2.5v-3c0-1.2.2-2 .7-2.7s1.1-.8 2-.8c.8 0 1.4.3 2 .8s.6 1.5.6 2.7v1.4h-3.9l-.3.1v2c0 .8 0 1.3.4 1.6.3.4.7.6 1.2.6.4 0 .8-.2 1.1-.5.3-.3.4-.7.5-1.3v-.4h1v.3c0 .7-.2 1.4-.6 2-.4.6-1 .8-2 .8-.8 0-1.4-.3-1.9-.8s-.7-1.5-.7-2.7zm1-3.5v.9h3.3v-.9c0-.7-.1-1.3-.4-1.6s-.7-.6-1.2-.6-1 .2-1.2.6c-.3.3-.5.9-.5 1.6zm13-2.2c-.9 0-1.4.6-1.5 1.8l-.1.4h-.8l-.1-.3c0-.7.2-1.4.6-2 .4-.5 1-.8 2-.8 1.7 0 2.6 1.2 2.6 3.5v5l.1 1.2c0 .2 0 .4-.4.4h-.3c-.2 0-.3 0-.3-.2l-.2-.5c-.4.5-1 .7-1.8.7s-1.4-.2-1.8-.7-.7-1-.7-2v-.5c0-.6.1-1.1.4-1.5.3-.4.7-.7 1.1-.9l1.3-.5 1-.5c.3-.2.5-.4.5-.7 0-.5-.1-1-.4-1.3-.2-.4-.6-.6-1.2-.6zm.2 8.3c.5 0 .8-.2 1-.5.3-.3.4-.8.4-1.5v-3l-1 .5-1 .3c-1 .5-1.4 1.2-1.3 2.2 0 1.4.6 2 1.9 2zm0-10.1h-.4v-.3l-.5-1.9c0-.3 0-.4.4-.4h.2c.3 0 .4.1.4.4v2c0 .1 0 .2-.2.2zm14 4v6.6l-.1.3h-.9v-6.9c0-1.4-.6-2.2-1.6-2.2s-1.6.8-1.6 2.2v6.9h-1l-.1-.3v-9.6h1.1l.1.4v.3a2 2 0 0 1 1.6-.8c1 0 1.7.3 2.1 1.2.5-.8 1.2-1.2 2-1.2.9 0 1.5.2 2 .8s.6 1.5.6 2.7v6.5h-1l-.1-.3v-6.6c0-1.4-.5-2.2-1.6-2.2s-1.5.8-1.5 2.2zm6.2 3.5v-3c0-1.2.3-2 .8-2.7s1-.8 2-.8c.7 0 1.4.3 1.9.8s.7 1.5.7 2.7v1.4h-3.9l-.4.1v2c0 .8.1 1.3.4 1.6.3.4.7.6 1.2.6s.9-.2 1.2-.5c.2-.3.4-.7.4-1.3l.1-.4h.9v.3c0 .7-.2 1.4-.6 2-.5.6-1.1.8-2 .8-.8 0-1.5-.3-2-.8s-.7-1.5-.7-2.7zm1-3.5v.5l.1.4h3.2v-.9c0-.7 0-1.3-.4-1.6s-.7-.6-1.2-.6-.9.2-1.2.6c-.3.3-.4.9-.4 1.6zm7.6-4.8v2c0 .2.1.2.2.2h.4l.3.1.1.3v.5l-.4.1h-.4s-.2 0-.2.2v5.3l.1 1.5c.1.4.3.6.7.6l.3.1v.8h-.3c-.8 0-1.2-.2-1.5-.7l-.3-1.2V118c0-.1 0-.2-.2-.2h-.3l-.1-.4v-.5h.4c.1 0 .2-.1.2-.3v-2.3h1v.3zm4 0v2c0 .2 0 .2.2.2h.4l.3.1v.8l-.3.1h-.4c-.1 0-.2 0-.2.2v6.8c.2.4.4.6.7.6l.3.1.1.3v.5h-.4c-.7 0-1.2-.2-1.4-.7l-.3-1.2V118l-.2-.2h-.3l-.1-.4v-.5h.4s.2-.1.2-.3v-2.3h1l.1.3zm5.4 2.9l-.4-.1c-.5 0-.8.2-1 .7v7.8l-.1.3h-.9v-9.9h.9v.7a2 2 0 0 1 1.5-.6h.4v1.1h-.4zm1.5 5.4v-3c0-1.2.3-2 .8-2.7s1-.8 2-.8c.7 0 1.4.3 1.9.8s.7 1.5.7 2.7v1.4h-3.9l-.4.1v2c0 .8.1 1.3.4 1.6.3.4.7.6 1.2.6s.9-.2 1.2-.5c.2-.3.4-.7.4-1.3l.1-.4h.9v.3c0 .7-.2 1.4-.6 2-.5.6-1.1.8-2 .8-.8 0-1.5-.3-2-.8s-.7-1.5-.7-2.7zm1-3.5v.5l.1.4h3.2v-.9c0-.7 0-1.3-.4-1.6s-.7-.6-1.2-.6-.9.2-1.2.6c-.3.3-.4.9-.4 1.6zM223.3 147v-3c0-1.2.3-2 .7-2.6s1.2-1 2-1 1.5.4 2 1 .7 1.4.7 2.6v1l-.1.4h-3.8l-.4.1v2c0 .8.1 1.3.4 1.7.3.3.7.5 1.2.5s.9-.2 1.1-.5c.3-.3.5-.7.5-1.3l.1-.3.2-.1h.7v.3a3 3 0 0 1-.7 2c-.4.6-1 .8-1.9.8-.8 0-1.5-.2-2-.8s-.7-1.5-.7-2.7zm1-3.5v.5l.1.4h3.2v-.9c0-.7-.1-1.3-.4-1.6s-.7-.6-1.2-.6-1 .2-1.2.6c-.3.3-.4.9-.4 1.6zM235 150v-6.5c0-1.4-.5-2.2-1.5-2.2s-1.6.8-1.6 2.2v6.9h-.9l-.1-.3v-9.5l.4-.1h.5l.1.4v.3a2 2 0 0 1 1.6-.8c.8 0 1.4.2 1.9.8.5.6.7 1.5.7 2.7v6.2l-.1.3h-1v-.3zm7.2-3v-3c0-1.2.2-2 .7-2.6s1.2-1 2-1 1.5.4 2 1 .7 1.4.7 2.6v3.1c0 1.2-.3 2-.8 2.7s-1 .8-2 .8c-.7 0-1.4-.2-1.9-.8s-.7-1.5-.7-2.7zm4.3.4v-4c0-.6-.1-1.2-.4-1.5s-.7-.6-1.2-.6-1 .2-1.2.6c-.3.3-.5.9-.5 1.6v4c0 .7.2 1.2.5 1.5.3.4.7.6 1.2.6s.9-.2 1.2-.6c.3-.3.4-.8.4-1.6zm3.1-.4v-3c0-1.2.2-2 .7-2.6s1.1-1 2-1c.8 0 1.4.4 1.9 1s.7 1.4.7 2.6v1.4H251l-.3.1-.1.4v1.6c0 .8.1 1.3.4 1.7.3.3.7.5 1.2.5s.9-.2 1.2-.5c.3-.3.4-.7.5-1.3v-.3l.3-.1h.6v.3c0 .7-.2 1.4-.6 2-.4.6-1 .8-2 .8-.8 0-1.4-.2-2-.8s-.6-1.5-.6-2.7zm1-3.5v.9h3.3v-.9c0-.7 0-1.3-.4-1.6s-.7-.6-1.2-.6-.9.2-1.2.6c-.3.3-.4.9-.4 1.6zm7.4-2.6v6.5c0 1.5.6 2.2 1.6 2.2s1.6-.7 1.6-2.2v-6.8h1l.1.4v9.5h-1.1l-.1-.3v-.4a2 2 0 0 1-1.6.8c-.8 0-1.4-.2-1.9-.8s-.7-1.5-.7-2.7V141l.1-.4h1v.4zm10.6-.4h.6v.3l-2 9.3v.3H266l-.1-.3-2-9.3.1-.3h.9l.1.3 1.5 7.7v.1h.2l1.5-7.8v-.3h.4zm4.8 1.1l-.5-.1c-.5 0-.7.2-.9.7l-.1 1.3v6.9h-.9l-.1-.3v-9.5l.4-.1h.5l.1.4v.2a2 2 0 0 1 1.4-.6h.4v1.1h-.3zm1.5 5.4v-3c0-1.2.2-2 .7-2.6s1.1-1 2-1c.8 0 1.4.4 2 1s.6 1.4.6 2.6v1.4h-3.9l-.3.1v2c0 .8 0 1.3.4 1.7.3.3.7.5 1.2.5.4 0 .8-.2 1.1-.5.3-.3.4-.7.5-1.3v-.3l.3-.1h.6v.3c0 .7-.2 1.4-.6 2-.4.6-1 .8-2 .8-.8 0-1.4-.2-1.9-.8s-.7-1.5-.7-2.7zm1-3.5v.9h3.3v-.9c0-.7-.1-1.3-.4-1.6s-.7-.6-1.2-.6-1 .2-1.2.6c-.3.3-.5.9-.5 1.6z"/><path stroke="#4A4A4A" stroke-miterlimit="10" stroke-width="2" d="M66 211h8m-8 27h8m-8 27h8m-8 27h8m123-81h8m-8 27h8m-8 27h8m-8 27h8M66 318h8m-8 58h8m-8 27h8m123-85h8m-8 58h8m-8 27h8M66 429h8m-8 27h8m-8 27h8m123-54h8m-8 27h8m-8 27h8"/><path fill="none" stroke="#4A4A4A" stroke-miterlimit="10" d="M35.5 508V206"/><path fill="#4A4A4A" d="M40.4 507l-4.9 8.6-4.9-8.6zm0-299l-4.9-8.6-4.9 8.6z"/><path fill="#3DD4CD" d="M43.8 530.8v.5l-.1.1v.2l-.1.2v.1l-.1.2a3.7 3.7 0 0 1-.2.3v.2l-.1.1-.1.2-.1.1-.2.3-.1.1-.2.2-.3.3a6.8 6.8 0 0 1-.4.4l-.1.1a14 14 0 0 1-.4.3l-.2.1-.2.2a5.6 5.6 0 0 1-.4.2l-.6.3-.1.1-.4.2h-.2l-.6.3a10.7 10.7 0 0 1-.8.3h-.2l-.3.1-.3.1h-.2l-.3.1h-.2l-.3.2a6.2 6.2 0 0 1-1 .1h-.6l-.2.1h-.6a7.1 7.1 0 0 1-1 0h-2.3a13.6 13.6 0 0 1-1.2-.2h-.5l-.2-.1-.4-.1h-.2l-.4-.2h-.2l-.5-.2a15.4 15.4 0 0 1-1-.3l-.1-.1-.3-.1-.2-.1-.2-.2h-.2l-.4-.3c-2.3-1.3-3.4-3-3.4-4.7v4.2c0 1.7 1.1 3.4 3.4 4.7l.4.2h.1a6.3 6.3 0 0 0 .8.4l.2.1h.1l.1.1.6.2h.1l.5.2h.2a12.4 12.4 0 0 0 1 .3h.1l.4.1h.2l.5.1a24 24 0 0 0 1.2.2h.1a10.1 10.1 0 0 0 .6 0h2.9l.6-.1a17.4 17.4 0 0 0 .8-.2h.4l.3-.1h.3l.2-.1.3-.1h.2l.3-.2h.2l.5-.2h.1l.6-.3h.1l.5-.2.1-.1.5-.3h.2l.1-.2.2-.1.2-.1.2-.2h.2l.1-.2a5 5 0 0 0 .4-.3l.2-.2.2-.3h.1l.2-.3.1-.1.2-.2v-.1l.2-.3.1-.3.1-.1v-.2h.1v-.3l.1-.1v-.3h.1v-4.9.2z"/><linearGradient id="a" x1="32.4" x2="32.4" y1="537.3" y2="523.9" gradientUnits="userSpaceOnUse"><stop offset="0" stop-color="#94f2ff"/><stop offset=".4" stop-color="#41d5cf"/><stop offset=".5" stop-color="#3dd4cd"/></linearGradient><path fill="url(#a)" d="M40.4 525.9a17.8 17.8 0 0 0-16.2 0c-4.4 2.6-4.4 6.8.1 9.3a17.8 17.8 0 0 0 16.2 0c4.4-2.5 4.4-6.7 0-9.3z"/><linearGradient id="b" x1="32.4" x2="32.4" y1="525" y2="536.2" gradientUnits="userSpaceOnUse"><stop offset="0" stop-color="#94f2ff"/><stop offset="1" stop-color="#3dd4cd"/></linearGradient><path fill="url(#b)" d="M32.4 535.7a15 15 0 0 1-7.2-1.8c-1.7-.9-2.6-2-2.6-3.2 0-1.1 1-2.3 2.5-3.2 1.9-1 4.5-1.7 7.2-1.7s5.4.6 7.3 1.7c1.6 1 2.5 2.1 2.5 3.3 0 1-1 2.2-2.5 3.1a14.8 14.8 0 0 1-7.2 1.8z"/><path fill="#3DD4CD" d="M25.1 527.5c1.9-1 4.5-1.7 7.2-1.7s5.4.6 7.3 1.7c1.4.9 2.3 2 2.5 3v-.3c0-1-1-2.3-2.5-3.2a15 15 0 0 0-7.3-1.7c-2.7 0-5.3.6-7.2 1.7-1.6 1-2.5 2.1-2.5 3.2v.3c.2-1 1-2.1 2.5-3z"/><linearGradient id="c" x1="32.4" x2="32.4" y1="539.2" y2="532.6" gradientUnits="userSpaceOnUse"><stop offset="0" stop-color="#fff"/><stop offset="1" stop-color="#fff" stop-opacity="0"/></linearGradient><path fill="url(#c)" d="M24.3 535.8a17.1 17.1 0 0 0 16.2 0c2.2-1.4 3.3-3.1 3.3-4.9v-.2.6l-.1.1v.2l-.1.2v.1l-.1.2a3.7 3.7 0 0 1-.2.3v.2l-.1.1-.1.2-.1.1-.2.3-.1.1-.2.2-.3.3a6.8 6.8 0 0 1-.4.4l-.1.1a14 14 0 0 1-.4.3l-.2.1-.2.2a5.6 5.6 0 0 1-.4.2l-.6.3-.1.1-.4.2h-.2l-.6.3a10.7 10.7 0 0 1-.8.3h-.2l-.3.1-.3.1h-.2l-.3.1h-.2l-.3.2a6.2 6.2 0 0 1-1 .1h-.6l-.2.1h-.6a7.1 7.1 0 0 1-1 0h-2.3a13.6 13.6 0 0 1-1.2-.2h-.5l-.2-.1-.4-.1h-.2l-.4-.2h-.2l-.5-.2a15.4 15.4 0 0 1-1-.3l-.1-.1-.3-.1-.2-.1-.2-.2h-.2l-.4-.3c-2.2-1.2-3.3-2.9-3.4-4.5 0 1.8 1 3.7 3.4 5z"/><path fill="#3DD4CD" d="M28 163.3v.7l-.1.2v.1l-.1.2a4 4 0 0 1-.2.3v.1l-.1.1-.1.2-.1.2-.2.2v.1l-.2.2h-.1l-.2.3a5.9 5.9 0 0 1-.4.3l-.1.2h-.2a33.3 33.3 0 0 1-.4.3l-.1.2h-.2l-.3.2-.5.3h-.1a10.3 10.3 0 0 1-1 .5H23l-.4.2-.2.1h-.3a33 33 0 0 1-.7.3h-.5a23.1 23.1 0 0 1-1.1.3H19a13 13 0 0 1-.6.1h-3l-.6-.1a19.6 19.6 0 0 1-.7-.1l-.3-.1h-.2a10.6 10.6 0 0 1-.9-.3h-.1l-.6-.2-.6-.2-.2-.1H11l-.3-.2h-.1l-.3-.2a8 8 0 0 0-.5-.3c-2.1-1.2-3.2-2.8-3.2-4.4v3.9c0 1.6 1 3.2 3.2 4.4l.4.2h.1l.3.2.1.1.3.1h.2l.1.2.6.2h.1l.5.2h.2a9 9 0 0 0 1 .2l.4.1h.2l.4.1h.1l.5.1h.1a14.1 14.1 0 0 0 .4 0h.2l.4.1H18a21.3 21.3 0 0 0 1 0h.2l.5-.1.7-.1h.2l.3-.1h.2l.3-.1.2-.1h.3l.2-.1.3-.1h.2a11 11 0 0 0 1.6-.7l.1-.1a9.7 9.7 0 0 0 .7-.4l.3-.2a8.4 8.4 0 0 0 .3-.2l.2-.1.1-.2h.2l.1-.2h.1l.1-.2.3-.3.2-.2.1-.2.2-.2.2-.3v-.1a4.1 4.1 0 0 0 .2-.3v-.2l.1-.1v-.2h.1v-.6h.1V163v.3z"/><linearGradient id="d" x1="17.3" x2="17.3" y1="169.8" y2="156.6" gradientUnits="userSpaceOnUse"><stop offset="0" stop-color="#94f2ff"/><stop offset="1" stop-color="#3dd4cd"/></linearGradient><path fill="url(#d)" d="M24.9 158.7c-4.2-2.5-11-2.5-15.2 0-4.1 2.4-4.1 6.3 0 8.7 4.3 2.5 11 2.5 15.2 0 4.2-2.4 4.2-6.3 0-8.7z"/><linearGradient id="e" x1="17.3" x2="17.3" y1="158.3" y2="168.2" gradientUnits="userSpaceOnUse"><stop offset="0" stop-color="#94f2ff"/><stop offset="1" stop-color="#3dd4cd"/></linearGradient><path fill="url(#e)" d="M17.4 167.8c-2.6 0-5-.6-6.8-1.6-1.5-.9-2.4-2-2.4-3s.9-2.1 2.3-3c1.8-1 4.3-1.6 6.8-1.6s5 .6 6.8 1.6c1.5.9 2.3 2 2.4 3 0 1-.9 2.2-2.4 3-1.7 1-4.2 1.6-6.7 1.6z"/><path fill="#3DD4CD" d="M10.5 160.2c1.8-1 4.3-1.6 6.8-1.6s5 .6 6.8 1.6c1.4.8 2.2 1.8 2.3 2.8v-.3c0-1-.8-2.1-2.3-3a14 14 0 0 0-6.8-1.6c-2.5 0-5 .6-6.8 1.6-1.4.9-2.3 2-2.3 3v.2c.2-1 1-2 2.3-2.7z"/><path fill="#3DD4CD" d="M13.2 160.2v.7l.5.3v-.7zm2.9.9H16l-.1-.1-.2-.1h-.6v.8a.6.6 0 0 1 .3-.2h.2l.2.1.2.1.2.2.3.1v-.7l-.3-.2z"/><path fill="#3DD4CD" d="M16.4 161.3v.7l1.7-1v-.7zm3.6 2.3c0-.2 0-.2-.2-.3a8.5 8.5 0 0 0-.7-.4 2.3 2.3 0 0 0-.2 0l-.1-.1H18a8.3 8.3 0 0 0-.5 0h-.1l-.3.1h-.7v.1h-1.3a5.4 5.4 0 0 1-.6-.1 4.5 4.5 0 0 1-.5-.2l-.3-.2c-.5-.3-.7-.6-.7-1v.8c0 .3.2.6.7 1h.3a3.2 3.2 0 0 0 .5.3h.2a2.4 2.4 0 0 0 .2 0 6.6 6.6 0 0 0 .5.1h1.3a4.5 4.5 0 0 0 .3 0h.2l.3-.1h.3a8.8 8.8 0 0 1 .5-.1h.6l.2.1h.2v.1l.2.1c.2 0 .2.1.3.2.2 0 .3.1.3.2v-.6zm2.1-.6v.4l-.1.1-.1.2h-.1v.1a1.6 1.6 0 0 1-.2.1l-.1.2v.7l.1-.1v-.1h.1v-.1h.1v-.1h.1v-.1l.1-.1v-.1h.1V163zm-1.4 1.5v.7l.6.4v-.7z"/><path fill="#3DD4CD" d="M21.3 164.9v.7l.8-.5v-.7z"/><linearGradient id="f" x1="24.1" x2="11.2" y1="162.3" y2="162.3" gradientUnits="userSpaceOnUse"><stop offset="0" stop-color="#94f2ff"/><stop offset="1" stop-color="#3dd4cd"/></linearGradient><path fill="url(#f)" d="M22.1 163c0-.5-.4-.8-1-1.2a4 4 0 0 0-2-.5l-1.6.1-1.5.2c-.2 0-.5 0-.8-.2l-.2-.3v-.2h.5l.6.2.3.2 1.7-1-.3-.2a3 3 0 0 0-1.6-.4 4 4 0 0 0-1.7.3l-.5-.3-.8.5.5.3c-.5.4-.7.7-.7 1 0 .4.2.7.7 1 .4.2.8.4 1.2.4.4.1.8.2 1.1.1.4 0 1 0 1.8-.2H19l1 .5.2.2s0 .2-.2.2c0 .1-.2.1-.4 0a6 6 0 0 1-.9-.4l-.4-.2-1.7 1 .3.2a4 4 0 0 0 2.1.6c.7 0 1.3-.2 1.8-.4l.6.4.8-.5-.6-.3c.5-.4.7-.8.6-1.2z"/><path fill="#3DD4CD" d="M20.7 164.5a4.8 4.8 0 0 1-.5.2h-.3l-.2.1h-1a19.6 19.6 0 0 0-.3 0h-.5l-.2-.1c-.2 0-.2-.1-.3-.2H17v-.1l-.3-.1-.3-.2v.7l.3.2.3.1.3.2a7 7 0 0 0 .2 0l.3.1.2.1h.5l.1.1h1.2l.2-.1h.2v-.1h.3v-.1h.3v-.8z"/><linearGradient id="g" x1="17.3" x2="17.3" y1="171.1" y2="164.9" gradientUnits="userSpaceOnUse"><stop offset="0" stop-color="#fff"/><stop offset="1" stop-color="#fff" stop-opacity="0"/></linearGradient><path fill="url(#g)" d="M9.8 168a16 16 0 0 0 15.1 0c2.1-1.3 3.1-3 3.1-4.6v-.2.8l-.1.2v.1l-.1.2a4 4 0 0 1-.2.3v.1l-.1.1-.1.2-.1.2-.2.2v.1l-.2.2h-.1l-.2.3a5.9 5.9 0 0 1-.4.3l-.1.2h-.2a33.3 33.3 0 0 1-.4.3l-.1.2h-.2l-.3.2-.5.3h-.1a10.3 10.3 0 0 1-1 .5H23l-.4.2-.2.1h-.3a33 33 0 0 1-.7.3h-.5a23.1 23.1 0 0 1-1.1.3H19a13 13 0 0 1-.6.1h-3l-.6-.1a19.6 19.6 0 0 1-.7-.1l-.3-.1h-.2a10.6 10.6 0 0 1-.9-.3h-.1l-.6-.2-.6-.2-.2-.1H11l-.3-.2h-.1l-.3-.2a8 8 0 0 0-.5-.3c-2-1.1-3.1-2.7-3.2-4.2 0 1.7 1 3.4 3.2 4.7z"/><path fill="#3DD4CD" d="M49.5 163.3v.3l-.1.1v.3l-.1.2v.1l-.1.2v.1l-.1.2-.1.1-.1.1-.1.2v.2c-.1 0-.2 0-.2.2h-.1v.1l-.2.2-.3.3a5.9 5.9 0 0 1-.4.3l-.1.2h-.2l-.2.2-.1.1-.2.2h-.2l-.2.2a11 11 0 0 1-1.8.8 13.4 13.4 0 0 1-.7.3h-.3l-.2.1a17.2 17.2 0 0 1-1 .3h-.3a16.5 16.5 0 0 1-.8.2h-.8l-.3.1h-3.4l-.6-.1-.5-.1h-.2l-.3-.1H35a10.6 10.6 0 0 1-.5-.2h-.3l-.2-.1-.5-.2h-.1l-.6-.2-.2-.1h-.2l-.2-.2H32l-.3-.2h-.1l-.4-.3c-2-1.2-3.1-2.8-3.1-4.4v3.9c0 1.6 1 3.2 3.1 4.4l.4.2h.1l.3.2.2.1.2.1h.2l.1.2h.1l.6.2.6.2h.1a9 9 0 0 0 1 .2h.1l.3.1h.2l.5.1.5.1h.2a13 13 0 0 0 .4 0h.1l.4.1h2.8l.6-.1h.1l.6-.1h.2l.3-.1h.2l.3-.1.2-.1h.3l.2-.1.3-.1h.1a11.1 11.1 0 0 0 1.2-.5h.1l.4-.2.2-.1a9 9 0 0 0 .6-.4c.2 0 .2-.1.3-.2h.2l.1-.2.2-.1.2-.2a4.6 4.6 0 0 0 .3-.2l.2-.2.2-.3a4.7 4.7 0 0 0 .3-.3l.2-.3.2-.3v-.1l.1-.2a3.4 3.4 0 0 0 .2-.3v-.1a4.7 4.7 0 0 0 .1-.3v-.2a2.8 2.8 0 0 0 .1-.4V163v.3z"/><linearGradient id="h" x1="38.8" x2="38.8" y1="169.8" y2="156.6" gradientUnits="userSpaceOnUse"><stop offset="0" stop-color="#94f2ff"/><stop offset="1" stop-color="#3dd4cd"/></linearGradient><path fill="url(#h)" d="M46.3 158.7c-4.2-2.5-11-2.5-15.1 0-4.2 2.4-4.2 6.3 0 8.7 4.2 2.5 11 2.5 15.2 0 4.1-2.4 4-6.3-.1-8.7z"/><linearGradient id="i" x1="38.8" x2="38.8" y1="158.3" y2="168.2" gradientUnits="userSpaceOnUse"><stop offset="0" stop-color="#94f2ff"/><stop offset="1" stop-color="#3dd4cd"/></linearGradient><path fill="url(#i)" d="M38.8 167.8c-2.6 0-5-.6-6.8-1.6-1.5-.9-2.4-2-2.4-3s.9-2.1 2.4-3c1.7-1 4.2-1.6 6.7-1.6 2.6 0 5 .6 6.8 1.6 1.5.9 2.4 2 2.4 3s-.9 2.2-2.3 3c-1.8 1-4.3 1.6-6.8 1.6z"/><path fill="#3DD4CD" d="M32 160.2c1.7-1 4.2-1.6 6.7-1.6 2.6 0 5 .6 6.8 1.6 1.4.8 2.2 1.8 2.4 2.8v-.3c0-1-.9-2.1-2.4-3a14 14 0 0 0-6.8-1.6c-2.5 0-5 .6-6.7 1.6-1.5.9-2.4 2-2.4 3v.2c.2-1 1-2 2.4-2.7z"/><path fill="#3DD4CD" d="M34.6 160.2v.7l.5.3v-.7zm2.9.9h-.1l-.2-.1-.2-.1h-.7v.8h.1a.6.6 0 0 1 .2-.2h.4l.1.1.2.1.2.2.3.1v-.7l-.3-.2zm.3.2v.7l1.7-1v-.7zm3.7 2.3c0-.2-.1-.2-.3-.3l-.2-.2a4 4 0 0 0-.5-.2h-.2l-.1-.1h-.7a8.8 8.8 0 0 0-.5 0l-.3.1h-.5a6.5 6.5 0 0 0-.3.1h-1.3a5.3 5.3 0 0 1-.5-.1H36a4.7 4.7 0 0 1-.5-.2c-.2 0-.3-.1-.3-.2-.6-.3-.8-.6-.8-1v.8c0 .3.2.6.8 1h.3l.1.2h.4v.1h.3a6.4 6.4 0 0 0 .5.1h1.8l.3-.1h.3a8.3 8.3 0 0 1 .5-.1h.6l.2.1h.2v.1l.2.1c.2 0 .3.1.3.2.2 0 .3.1.3.2v-.6zm2.1-.6v.3h-.1v.2h-.1v.2h-.1a3.9 3.9 0 0 1-.2.2l-.2.2v.7l.1-.1.1-.1.1-.1.1-.1a1.4 1.4 0 0 0 .1-.2l.1-.1V163zm-1.5 1.5v.7l.6.4v-.7z"/><path fill="#3DD4CD" d="M42.7 164.9v.7l.8-.5v-.7z"/><linearGradient id="j" x1="45.5" x2="32.6" y1="162.3" y2="162.3" gradientUnits="userSpaceOnUse"><stop offset="0" stop-color="#94f2ff"/><stop offset="1" stop-color="#3dd4cd"/></linearGradient><path fill="url(#j)" d="M43.6 163c-.1-.5-.4-.8-1-1.2a4.1 4.1 0 0 0-2.2-.5l-1.5.1-1.5.2c-.2 0-.5 0-.7-.2l-.3-.3.1-.2c.1 0 .3-.1.4 0l.6.2.3.2 1.7-1-.3-.2a3 3 0 0 0-1.6-.4 4 4 0 0 0-1.7.3l-.5-.3-.8.5.5.3c-.5.4-.7.7-.7 1 0 .4.2.7.8 1 .3.2.7.4 1.1.4.4.1.8.2 1.2.1.3 0 .9 0 1.7-.2h1.1l1 .5.2.2-.1.2h-.5a6 6 0 0 1-.9-.4l-.4-.2-1.7 1 .3.2a4 4 0 0 0 2.2.6c.6 0 1.2-.2 1.7-.4l.7.4.7-.5-.6-.3c.5-.4.7-.8.7-1.2z"/><path fill="#3DD4CD" d="M42 164.5a4 4 0 0 1-.4.2h-.2l-.3.1a4.7 4.7 0 0 1-.7 0h-1.2l-.2-.1-.3-.2h-.3v-.1l-.3-.1-.3-.2v.7l.3.2a5.7 5.7 0 0 0 .3.1l.3.2a5.9 5.9 0 0 0 .2 0h.1l.2.1.2.1h.5l.1.1h1l.2-.1h.1a2.7 2.7 0 0 0 .2-.1h.2v-.1h.3v-.8z"/><linearGradient id="k" x1="38.8" x2="38.8" y1="171.1" y2="164.9" gradientUnits="userSpaceOnUse"><stop offset="0" stop-color="#fff"/><stop offset="1" stop-color="#fff" stop-opacity="0"/></linearGradient><path fill="url(#k)" d="M31.2 168a16 16 0 0 0 15.2 0c2-1.3 3-3 3-4.6v-.2a3 3 0 0 1 0 .4v.4l-.1.2v.1l-.1.2v.1l-.1.2-.1.1-.1.1-.1.2v.2c-.1 0-.2 0-.2.2h-.1v.1l-.2.2-.3.3a5.9 5.9 0 0 1-.4.3l-.1.2h-.2l-.2.2-.1.1-.2.2h-.2l-.2.2a11 11 0 0 1-1.8.8 13.4 13.4 0 0 1-.7.3h-.3l-.2.1a17.2 17.2 0 0 1-1 .3h-.3a16.5 16.5 0 0 1-.8.2h-.8l-.3.1h-3.4l-.6-.1-.5-.1h-.2l-.3-.1H35a10.6 10.6 0 0 1-.5-.2h-.3l-.2-.1-.5-.2h-.1l-.6-.2-.2-.1h-.2l-.2-.2H32l-.3-.2h-.1l-.4-.3c-2-1.1-3-2.7-3.1-4.2-.1 1.7 1 3.4 3.1 4.7z"/><path fill="#3DD4CD" d="M28 159.4v.8l-.1.1v.2l-.1.1a5.6 5.6 0 0 1-.2.3v.2a5.8 5.8 0 0 1-.2.3l-.1.1-.2.2a6 6 0 0 1-.2.4h-.1l-.2.3-.2.2-.2.1-.1.1-.2.2a11.1 11.1 0 0 1-.4.2l-.1.1-.2.2-.3.1-.5.3h-.1l-.4.2-.1.1a14.9 14.9 0 0 1-1.1.4h-.2a7.8 7.8 0 0 1-1 .3l-.3.1H21l-.3.1a11.9 11.9 0 0 1-.8.2 18.4 18.4 0 0 1-1.7.1h-.6a15.8 15.8 0 0 1-.5 0h-1.7l-.6-.2h-.7l-.3-.1a8.5 8.5 0 0 1-.5-.2h-.6l-.1-.1-.6-.2-.6-.2-.2-.1-.2-.1-.3-.1h-.1l-.3-.2h-.1l-.4-.3c-2.1-1.2-3.2-2.8-3.2-4.4v3.9c0 1.6 1 3.2 3.2 4.4l.4.2h.1l.3.2h.1a8 8 0 0 0 .5.3h.1a14 14 0 0 0 1.2.4h.1l.1.1h.3l.2.1.4.1h.1l.4.1h.2l.4.1h.1l.5.1h1.3l.3.1h1.2a14.3 14.3 0 0 0 .6 0h.6l.5-.2h.7l.2-.1h.3l.2-.1h.3l.2-.1a11.5 11.5 0 0 0 .8-.2l.2-.1.4-.2h.1l.5-.2h.2l.4-.3h.1l.5-.3h.2v-.2h.3l.1-.2.2-.1.2-.1a4.4 4.4 0 0 0 .4-.4h.1l.1-.2.3-.3.2-.2v-.1h.1l.2-.3v-.1l.2-.2v-.1a3 3 0 0 0 .2-.3v-.2l.1-.1a4 4 0 0 0 .1-.5v-.3l.1-.1v-4.2.1z"/><linearGradient id="l" x1="17.3" x2="17.3" y1="166" y2="152.7" gradientUnits="userSpaceOnUse"><stop offset="0" stop-color="#94f2ff"/><stop offset="1" stop-color="#3dd4cd"/></linearGradient><path fill="url(#l)" d="M24.9 154.8a17 17 0 0 0-15.2 0c-4.1 2.5-4.1 6.4 0 8.8a17 17 0 0 0 15.2 0c4.2-2.4 4.2-6.3 0-8.8z"/><linearGradient id="m" x1="17.3" x2="17.3" y1="154.4" y2="164.4" gradientUnits="userSpaceOnUse"><stop offset="0" stop-color="#94f2ff"/><stop offset="1" stop-color="#3dd4cd"/></linearGradient><path fill="url(#m)" d="M17.4 164c-2.6 0-5-.6-6.8-1.6-1.5-.9-2.4-2-2.4-3s.9-2.2 2.3-3c1.8-1 4.3-1.6 6.8-1.6s5 .6 6.8 1.6c1.5.8 2.3 2 2.4 3 0 1-.9 2.1-2.4 3-1.7 1-4.2 1.6-6.7 1.6z"/><path fill="#3DD4CD" d="M10.5 156.4c1.8-1 4.3-1.6 6.8-1.6s5 .6 6.8 1.6c1.4.8 2.2 1.8 2.3 2.8v-.3c0-1-.8-2.1-2.3-3a14 14 0 0 0-6.8-1.6c-2.5 0-5 .6-6.8 1.6-1.4.9-2.3 2-2.3 3v.2c.2-1 1-2 2.3-2.7z"/><path fill="#3DD4CD" d="M13.2 156.4v.7l.5.3v-.7zm2.9.9H16v-.1h-.1l-.2-.1h-.1l-.1-.1h-.3v.1H15v.7a.6.6 0 0 1 .3 0h.4l.2.1.2.1.3.2v-.7l-.3-.2z"/><path fill="#3DD4CD" d="M16.4 157.5v.7l1.7-1v-.7zm3.6 2.2s0-.2-.2-.3h-.2l-.1-.1-.2-.1-.2-.1h-.2v-.1H18a8.3 8.3 0 0 0-.5 0h-.1l-.3.1h-.7l-.2.1H15l-.2-.1h-.1a4.5 4.5 0 0 1-.5-.2H14l-.3-.2c-.5-.3-.7-.6-.7-1v.8c0 .3.2.6.7.9l.3.1.2.1.3.1h.2l.2.1a6.6 6.6 0 0 0 .5.1h.4a2.9 2.9 0 0 0 .2 0h.7a11.3 11.3 0 0 0 .3 0h.2l.3-.1h.3a5.8 5.8 0 0 1 .6-.1h.7v.1h.2v.1h.2v.1c.2 0 .2.1.3.2.2 0 .3.1.3.2v-.7zm2.1-.5v.4l-.1.1-.1.1-.1.2h-.2v.1l-.1.1v.7h.1v-.1h.1v-.1l.1-.1h.1v-.2h.1v-.2h.1v-1zm-1.4 1.5v.7l.6.4v-.7zm.6.4v.7l.8-.5v-.7z"/><linearGradient id="n" x1="24.1" x2="11.2" y1="158.5" y2="158.5" gradientUnits="userSpaceOnUse"><stop offset="0" stop-color="#94f2ff"/><stop offset="1" stop-color="#3dd4cd"/></linearGradient><path fill="url(#n)" d="M22.1 159.1c0-.4-.4-.7-1-1a4 4 0 0 0-2-.7l-1.6.2-1.5.2-.8-.3-.2-.2v-.2h.5l.6.2.3.2 1.7-1-.3-.2c-.5-.3-1-.4-1.6-.5a4 4 0 0 0-1.7.4l-.5-.3-.8.5.5.3c-.5.4-.7.7-.7 1 0 .4.2.7.7 1l1.2.4 1.1.1c.4 0 1 0 1.8-.2H19l1 .4.2.3-.2.2s-.2.1-.4 0l-.9-.4-.4-.2-1.7 1 .3.1a4 4 0 0 0 2.1.7c.7 0 1.3-.2 1.8-.4l.6.4.8-.5-.6-.4c.5-.3.7-.7.6-1.1z"/><path fill="#3DD4CD" d="M20.7 160.7a4.8 4.8 0 0 1-.5.2h-.5v.1h-1.8l-.2-.1a4.8 4.8 0 0 1-.3-.2H17v-.1l-.3-.2-.3-.2v.8l.3.1.3.2.3.1.2.1.3.1h.2a2 2 0 0 0 .3.2h1.2l.1-.1h.2l.2-.1h.1a2 2 0 0 0 .2-.1l.3-.1v-.7z"/><linearGradient id="o" x1="17.3" x2="17.3" y1="167.3" y2="161.1" gradientUnits="userSpaceOnUse"><stop offset="0" stop-color="#fff"/><stop offset="1" stop-color="#fff" stop-opacity="0"/></linearGradient><path fill="url(#o)" d="M9.8 164.1a16 16 0 0 0 15.1 0c2.1-1.3 3.1-3 3.1-4.6v-.1.8l-.1.1v.2l-.1.1a5.6 5.6 0 0 1-.2.3v.2a5.8 5.8 0 0 1-.2.3l-.1.1-.2.2a6 6 0 0 1-.2.4h-.1l-.2.3-.2.2-.2.1-.1.1-.2.2a11.1 11.1 0 0 1-.4.2l-.1.1-.2.2-.3.1-.5.3h-.1l-.4.2-.1.1a14.9 14.9 0 0 1-1.1.4h-.2a7.8 7.8 0 0 1-1 .3l-.3.1H21l-.3.1a11.9 11.9 0 0 1-.8.2 18.4 18.4 0 0 1-1.7.1h-.6a15.8 15.8 0 0 1-.5 0h-1.7l-.6-.2h-.7l-.3-.1a8.5 8.5 0 0 1-.5-.2h-.6l-.1-.1-.6-.2-.6-.2-.2-.1-.2-.1-.3-.1h-.1l-.3-.2h-.1l-.4-.3c-2-1.2-3.1-2.7-3.2-4.3 0 1.8 1 3.5 3.2 4.8z"/><path fill="#3DD4CD" d="M49.5 159.4v.3l-.1.2v.3l-.1.1v.2l-.1.1v.2l-.1.1-.1.2-.1.1-.1.2v.1l-.2.2-.1.1-.2.3-.3.3-.2.2-.2.1-.1.1-.2.2a22 22 0 0 1-.3.2l-.2.1-.2.2-.2.1-.5.3h-.2l-.4.2-.1.1a15.7 15.7 0 0 1-2.8.9h-.5l-.6.2h-1.4l-.3.1h-2.8l-.6-.2h-.7a17.6 17.6 0 0 1-.8-.3h-.5l-.2-.1-.5-.2h-.1l-.6-.2-.2-.1-.2-.1-.2-.1H32l-.3-.2h-.1l-.4-.3c-2-1.2-3.1-2.8-3.1-4.4v3.9c0 1.6 1 3.2 3.1 4.4l.4.2h.1l.3.2h.2a8 8 0 0 0 .4.3h.2a14 14 0 0 0 1.2.4l.1.1h.4l.2.1.3.1h.2l.3.1h.2a21 21 0 0 0 .5.1l.5.1H38l.3.1h1.3a14.6 14.6 0 0 0 .9 0h.1l.6-.2h.7l.2-.1h.3l.2-.1h.3l.2-.1a11.5 11.5 0 0 0 .8-.2h.1v-.1l.5-.2h.1l.6-.2h.1l.4-.3h.2l.4-.3h.2v-.2h.3l.2-.2.1-.1.2-.1a4.4 4.4 0 0 0 .5-.4l.2-.2.2-.3.2-.2v-.1h.1l.2-.3v-.1l.2-.2v-.1l.1-.2a4 4 0 0 0 .2-.3v-.1a7 7 0 0 0 .1-.3v-.3a3 3 0 0 0 .1-.3v-4.2.1z"/><linearGradient id="p" x1="38.8" x2="38.8" y1="166" y2="152.7" gradientUnits="userSpaceOnUse"><stop offset="0" stop-color="#94f2ff"/><stop offset="1" stop-color="#3dd4cd"/></linearGradient><path fill="url(#p)" d="M46.3 154.8c-4.2-2.4-11-2.4-15.1 0-4.2 2.5-4.2 6.4 0 8.8a17 17 0 0 0 15.2 0c4.1-2.4 4-6.3-.1-8.8z"/><linearGradient id="q" x1="38.8" x2="38.8" y1="154.4" y2="164.4" gradientUnits="userSpaceOnUse"><stop offset="0" stop-color="#94f2ff"/><stop offset="1" stop-color="#3dd4cd"/></linearGradient><path fill="url(#q)" d="M38.8 164c-2.6 0-5-.6-6.8-1.6-1.5-.9-2.4-2-2.4-3s.9-2.2 2.4-3c1.7-1 4.2-1.6 6.7-1.6 2.6 0 5 .6 6.8 1.6 1.5.8 2.4 2 2.4 3s-.9 2.1-2.3 3c-1.8 1-4.3 1.6-6.8 1.6z"/><path fill="#3DD4CD" d="M32 156.4c1.7-1 4.2-1.6 6.7-1.6 2.6 0 5 .6 6.8 1.6 1.4.8 2.2 1.8 2.4 2.8v-.3c0-1-.9-2.1-2.4-3a14 14 0 0 0-6.8-1.6c-2.5 0-5 .6-6.7 1.6-1.5.9-2.4 2-2.4 3v.2c.2-1 1-2 2.4-2.7z"/><path fill="#3DD4CD" d="M34.6 156.4v.7l.5.3v-.7zm2.9.9h-.1v-.1h-.2l-.2-.1h-.1v-.1h-.5v.1h-.1v.7h.9l.2.1.2.1.3.2v-.7l-.3-.2z"/><path fill="#3DD4CD" d="M37.8 157.5v.7l1.7-1v-.7zm3.7 2.2l-.3-.3H41v-.1l-.2-.1h-.1l-.2-.1h-.2v-.1h-.8a8.8 8.8 0 0 0-.5 0l-.3.1h-.5a8.4 8.4 0 0 1-.3 0l-.1.1h-1.5l-.2-.1H36a4.7 4.7 0 0 1-.5-.2l-.3-.2c-.6-.3-.8-.6-.8-1v.8c0 .3.2.6.8.9l.2.1h.1l.1.1.3.1h.1l.3.1h.3l.2.1h.4a2.8 2.8 0 0 0 .3 0h1.2l.3-.1h.3a5.6 5.6 0 0 1 .4-.1h.5a.7.7 0 0 1 .2 0 2 2 0 0 1 .4.2h.2v.1c.2 0 .3.1.3.2.2 0 .3.1.3.2v-.7zm2.1-.5v.2l-.1.1v.2h-.1v.1h-.1l-.1.2H43v.1l-.2.1v.7h.1v-.1h.1l.1-.1v-.1h.1a1.7 1.7 0 0 0 .1-.2l.1-.2v-1zm-1.5 1.5v.7l.6.4v-.7zm.6.4v.7l.8-.5v-.7z"/><linearGradient id="r" x1="45.5" x2="32.6" y1="158.5" y2="158.5" gradientUnits="userSpaceOnUse"><stop offset="0" stop-color="#94f2ff"/><stop offset="1" stop-color="#3dd4cd"/></linearGradient><path fill="url(#r)" d="M43.6 159.1c-.1-.4-.4-.7-1-1a4 4 0 0 0-2.2-.7l-1.5.2-1.5.2a1 1 0 0 1-.7-.3c-.2 0-.3-.1-.3-.2l.1-.2c.1 0 .3-.1.4 0l.6.2.3.2 1.7-1-.3-.2c-.5-.3-1-.4-1.6-.5a4 4 0 0 0-1.7.4l-.5-.3-.8.5.5.3c-.5.4-.7.7-.7 1 0 .4.2.7.8 1l1.1.4 1.2.1c.3 0 .9 0 1.7-.2h1.1c.3 0 .6.2 1 .4l.2.3-.1.2h-.5l-.9-.4-.4-.2-1.7 1 .3.1a4 4 0 0 0 2.2.7c.6 0 1.2-.2 1.7-.4l.7.4.7-.5-.6-.4c.5-.3.7-.7.7-1.1z"/><path fill="#3DD4CD" d="M42 160.7a4 4 0 0 1-.4.2H41v.1h-1.2a4 4 0 0 1-.5 0h-.1l-.2-.1-.3-.2h-.3v-.1l-.3-.2-.3-.2v.8l.3.1a5.7 5.7 0 0 0 .3.2l.3.1a9.7 9.7 0 0 0 .2.1h.1l.2.1h.2l.1.1h1.8l.2-.1a1.8 1.8 0 0 0 .3-.1l.2-.1v-.7z"/><linearGradient id="s" x1="38.8" x2="38.8" y1="167.3" y2="161.1" gradientUnits="userSpaceOnUse"><stop offset="0" stop-color="#fff"/><stop offset="1" stop-color="#fff" stop-opacity="0"/></linearGradient><path fill="url(#s)" d="M31.2 164.1a16 16 0 0 0 15.2 0c2-1.3 3-3 3-4.6v-.1.8l-.1.1v.2l-.1.1v.2l-.1.1-.1.2-.1.1-.1.2v.1l-.2.2-.1.1-.2.3-.3.3-.2.2-.2.1-.1.1-.2.2a22 22 0 0 1-.3.2l-.2.1-.2.2-.2.1-.5.3h-.2l-.4.2-.1.1a15.7 15.7 0 0 1-2.8.9h-.5l-.6.2h-1.4l-.3.1h-2.8l-.6-.2h-.7a17.6 17.6 0 0 1-.8-.3h-.5l-.2-.1-.5-.2h-.1l-.6-.2-.2-.1-.2-.1-.2-.1H32l-.3-.2h-.1l-.4-.3c-2-1.2-3-2.7-3.1-4.3-.1 1.8 1 3.5 3.1 4.8z"/><path fill="#3DD4CD" d="M28 155.6v.8l-.1.1v.2l-.1.1-.1.2v.1a4.1 4.1 0 0 1-.3.5l-.1.1-.2.2v.1l-.2.3h-.1a8 8 0 0 1-.3.3l-.1.2-.2.1-.1.1-.2.2h-.2l-.2.2-.1.1-.2.1-.3.2-.5.3h-.1l-.4.2h-.1l-.6.3-.5.2h-.2l-.3.1a11.9 11.9 0 0 1-.5.2h-.5l-.2.1-.3.1a11.9 11.9 0 0 1-.8.1 18.4 18.4 0 0 1-.8.1h-.9l-.3.1h-.3a15.8 15.8 0 0 1-.5 0h-1.7v-.1a28.4 28.4 0 0 1-1.1-.2h-.7l-.3-.2H13l-.4-.1h-.1l-.6-.2-.6-.2-.2-.1a9.4 9.4 0 0 1-.5-.2l-.1-.1-.3-.1-.1-.1-.4-.2c-2.1-1.2-3.2-2.8-3.2-4.4v3.9c0 1.6 1 3.2 3.2 4.4l.4.2h.1l.3.2h.1l.3.2h.2l.1.1.6.2h.1l.5.2h.2a11.9 11.9 0 0 0 1 .3l.4.1h.2l.4.1h.6l.1.1h1a5.2 5.2 0 0 0 .5 0h.2l.3.1h1.8l.2-.1h.5l.7-.2a7.4 7.4 0 0 0 .5 0l.2-.1h.3l.2-.1.3-.1h.2l.3-.2h.2l.4-.2h.1l.5-.2h.2a9.7 9.7 0 0 0 1-.6l.2-.1.3-.2.1-.1.2-.1.2-.2h.1l.2-.2.1-.1.1-.1.1-.1.3-.3.2-.3h.1c0-.2.1-.2.2-.3v-.1l.2-.2v-.1a3 3 0 0 0 .3-.5v-.1a3.6 3.6 0 0 0 .1-.3v-.5l.1-.1v-4.3.2z"/><linearGradient id="t" x1="17.3" x2="17.3" y1="162.2" y2="148.9" gradientUnits="userSpaceOnUse"><stop offset="0" stop-color="#94f2ff"/><stop offset="1" stop-color="#3dd4cd"/></linearGradient><path fill="url(#t)" d="M24.9 151a17 17 0 0 0-15.2 0c-4.1 2.4-4.1 6.4 0 8.8a17 17 0 0 0 15.2 0c4.2-2.4 4.2-6.4 0-8.8z"/><linearGradient id="u" x1="17.3" x2="17.3" y1="150.6" y2="160.6" gradientUnits="userSpaceOnUse"><stop offset="0" stop-color="#94f2ff"/><stop offset="1" stop-color="#3dd4cd"/></linearGradient><path fill="url(#u)" d="M17.4 160.2c-2.6 0-5-.6-6.8-1.6-1.5-.9-2.4-2-2.4-3 0-1.1.9-2.2 2.3-3 1.8-1 4.3-1.6 6.8-1.6s5 .5 6.8 1.6c1.5.8 2.3 2 2.4 3 0 1-.9 2.1-2.4 3-1.7 1-4.2 1.6-6.7 1.6z"/><path fill="#3DD4CD" d="M10.5 152.6c1.8-1 4.3-1.6 6.8-1.6s5 .5 6.8 1.6c1.4.8 2.2 1.8 2.3 2.7v-.2c0-1-.8-2.2-2.3-3a14 14 0 0 0-6.8-1.6c-2.5 0-5 .6-6.8 1.6-1.4.8-2.3 2-2.3 3v.2c.2-1 1-2 2.3-2.7z"/><g fill="#3DD4CD"><path d="M22.1 155.4v.4H22v.1l-.1.1-.1.1-.2.2-.1.1v.7h.1v-.1l.1-.1a2.8 2.8 0 0 0 .2-.2v-.1h.1v-.2h.1v-1.1zm-1.4 1.5v.7l.6.4v-.8z"/><path d="M21.3 157.2v.8l.8-.5v-.7z"/></g><linearGradient id="v" x1="17.3" x2="17.3" y1="163.5" y2="157.3" gradientUnits="userSpaceOnUse"><stop offset="0" stop-color="#fff"/><stop offset="1" stop-color="#fff" stop-opacity="0"/></linearGradient><path fill="url(#v)" d="M9.8 160.3a16 16 0 0 0 15.1 0c2.1-1.3 3.1-3 3.1-4.6v-.1.8l-.1.1v.2l-.1.1-.1.2v.1a4.1 4.1 0 0 1-.3.5l-.1.1-.2.2v.1l-.2.3h-.1a8 8 0 0 1-.3.3l-.1.2-.2.1-.1.1-.2.2h-.2l-.2.2-.1.1-.2.1-.3.2-.5.3h-.1l-.4.2h-.1l-.6.3-.5.2h-.2l-.3.1a11.9 11.9 0 0 1-.5.2h-.5l-.2.1-.3.1a11.9 11.9 0 0 1-.8.1 18.4 18.4 0 0 1-.8.1h-.9l-.3.1h-.3a15.8 15.8 0 0 1-.5 0h-1.7v-.1a28.4 28.4 0 0 1-1.1-.2h-.7l-.3-.2H13l-.4-.1h-.1l-.6-.2-.6-.2-.2-.1a9.4 9.4 0 0 1-.5-.2l-.1-.1-.3-.1-.1-.1-.4-.2c-2-1.2-3.1-2.7-3.2-4.3 0 1.7 1 3.5 3.2 4.8z"/><path fill="#3DD4CD" d="M49.5 155.6a2.8 2.8 0 0 1 0 .3l-.1.2v.1a4 4 0 0 1-.1.3v.2l-.1.1v.2l-.1.1-.1.2-.1.1-.1.2v.1l-.2.2-.1.1-.2.3a6.9 6.9 0 0 1-.3.3l-.2.2-.2.1-.1.1-.2.2h-.2l-.1.2-.2.1-.2.1-.2.2c-.2 0-.4.2-.5.3h-.2a11.2 11.2 0 0 1-1 .5h-.1a13.4 13.4 0 0 1-.7.3h-.3a18.5 18.5 0 0 1-.7.2h-.3l-.2.1-.3.1H42l-.6.1-.6.1h-1.1l-.2.1H37l-.1-.1a28.5 28.5 0 0 1-1-.2h-.8l-.3-.2h-.2l-.3-.1H34l-.5-.2h-.1l-.6-.2-.2-.1a7.2 7.2 0 0 1-.4-.2l-.2-.1-.3-.1-.1-.1-.4-.2c-2-1.2-3.1-2.8-3.1-4.4v3.9c0 1.6 1 3.2 3.1 4.4l.4.2h.1l.3.2h.2l.2.2h.2l.1.1h.1l.6.2.6.2h.1a11.9 11.9 0 0 0 1 .3h.1l.3.1h.2l.5.1h.5l.2.1h1.6l.3.1h.8a11 11 0 0 0 .5 0h.5v-.1h.7l.6-.2h.5l.2-.1h.3l.2-.1.3-.1h.2l.3-.2h.1l.5-.2h.1l.6-.2h.1a10.3 10.3 0 0 0 1-.6l.2-.1.3-.2.2-.1.1-.1.2-.2a5.7 5.7 0 0 0 .3-.2l.2-.1v-.1l.2-.1.2-.3a5.3 5.3 0 0 0 .3-.3l.2-.3v-.1l.2-.2v-.1l.1-.2a4 4 0 0 0 .2-.3v-.1a5.6 5.6 0 0 0 .1-.3v-.3l.1-.2v-4.4.2z"/><linearGradient id="w" x1="38.8" x2="38.8" y1="162.2" y2="148.9" gradientUnits="userSpaceOnUse"><stop offset="0" stop-color="#94f2ff"/><stop offset="1" stop-color="#3dd4cd"/></linearGradient><path fill="url(#w)" d="M46.3 151c-4.2-2.4-11-2.4-15.1 0-4.2 2.4-4.2 6.4 0 8.8a17 17 0 0 0 15.2 0c4.1-2.4 4-6.4-.1-8.8z"/><linearGradient id="x" x1="38.8" x2="38.8" y1="150.6" y2="160.6" gradientUnits="userSpaceOnUse"><stop offset="0" stop-color="#94f2ff"/><stop offset="1" stop-color="#3dd4cd"/></linearGradient><path fill="url(#x)" d="M38.8 160.2c-2.6 0-5-.6-6.8-1.6-1.5-.9-2.4-2-2.4-3 0-1.1.9-2.2 2.4-3 1.7-1 4.2-1.6 6.7-1.6 2.6 0 5 .5 6.8 1.6 1.5.8 2.4 2 2.4 3s-.9 2.1-2.3 3c-1.8 1-4.3 1.6-6.8 1.6z"/><path fill="#3DD4CD" d="M32 152.6c1.7-1 4.2-1.6 6.7-1.6 2.6 0 5 .5 6.8 1.6 1.4.8 2.2 1.8 2.4 2.7v-.2c0-1-.9-2.2-2.4-3a14 14 0 0 0-6.8-1.6c-2.5 0-5 .6-6.7 1.6-1.5.8-2.4 2-2.4 3v.2c.2-1 1-2 2.4-2.7z"/><path fill="#3DD4CD" d="M34.6 152.5v.7l.5.4v-.7zm2.9 1l-.1-.1h-.2v-.1H37v-.1h-.6v.1h-.1v.7h.1a.6.6 0 0 1 .2-.1.6.6 0 0 1 .3 0l.1.1h.2v.1l.2.1.3.2v-.7l-.3-.2z"/><linearGradient id="y" x1="38.8" x2="38.8" y1="163.5" y2="157.3" gradientUnits="userSpaceOnUse"><stop offset="0" stop-color="#fff"/><stop offset="1" stop-color="#fff" stop-opacity="0"/></linearGradient><path fill="url(#y)" d="M31.2 160.3a16 16 0 0 0 15.2 0c2-1.3 3-3 3-4.6v-.1a2.8 2.8 0 0 1 0 .3v.3a4 4 0 0 1-.1.3v.2l-.1.1v.2l-.1.1-.1.2-.1.1-.1.2v.1l-.2.2-.1.1-.2.3a6.9 6.9 0 0 1-.3.3l-.2.2-.2.1-.1.1-.2.2h-.2l-.1.2-.2.1-.2.1-.2.2c-.2 0-.4.2-.5.3h-.2a11.2 11.2 0 0 1-1 .5h-.1a13.4 13.4 0 0 1-.7.3h-.3a18.5 18.5 0 0 1-.7.2h-.3l-.2.1-.3.1H42l-.6.1-.6.1h-1.1l-.2.1H37l-.1-.1a28.5 28.5 0 0 1-1-.2h-.8l-.3-.2h-.2l-.3-.1H34l-.5-.2h-.1l-.6-.2-.2-.1a7.2 7.2 0 0 1-.4-.2l-.2-.1-.3-.1-.1-.1-.4-.2c-2-1.2-3-2.7-3.1-4.3-.1 1.7 1 3.5 3.1 4.8z"/><path fill="#3DD4CD" d="M38.8 151v.6l-.1.1v.2l-.1.1v.2l-.1.1-.1.2a5 5 0 0 1-.2.2v.2l-.1.2-.2.2-.1.1-.2.2-.3.3-.2.2-.1.1a4.2 4.2 0 0 1-.4.3l-.1.1-.2.1a5.1 5.1 0 0 1-.4.3l-.2.1-.5.3h-.1l-.4.3h-.2a15.2 15.2 0 0 1-1 .4l-.3.1a11.2 11.2 0 0 1-.4.1l-.3.1a8.3 8.3 0 0 1-.7.2h-.5l-.6.2h-.1a18.5 18.5 0 0 1-1.1.1h-3.4l-.5-.1h-.1l-.4-.1h-.2l-.3-.1h-.2l-.4-.1a14.2 14.2 0 0 1-.5-.2h-.2l-.5-.2-.6-.2-.3-.1h-.1l-.3-.2h-.2a22.3 22.3 0 0 1-.7-.5c-2.2-1.2-3.2-2.8-3.2-4.4v3.9c0 1.6 1 3.2 3.1 4.4l.4.2.2.1.2.1.2.1.2.1h.2l.2.2.6.2h.1l.5.2h.2l.3.1h.2l.4.1h.1l.4.1h.2l.4.1.6.1h.1a18.5 18.5 0 0 0 .4 0h.2l.3.1H30l.6-.1.7-.1h.2l.3-.1h.2l.3-.1.2-.1a8.7 8.7 0 0 0 .5-.1l.2-.1h.2l.5-.2a12.2 12.2 0 0 0 1.1-.5l.2-.1.5-.3h.1l.1-.1.2-.2h.2l.2-.2.1-.1.2-.2h.2l.1-.2.2-.2.3-.3.2-.2v-.2c.1 0 .2 0 .2-.2a7.5 7.5 0 0 0 .2-.3h.1a2.7 2.7 0 0 0 .2-.4v-.2l.1-.2a3.3 3.3 0 0 0 .1-.3v-.6l.1-.1v-4.1.3z"/><linearGradient id="z" x1="28.1" x2="28.1" y1="157" y2="144.5" gradientUnits="userSpaceOnUse"><stop offset="0" stop-color="#94f2ff"/><stop offset=".3" stop-color="#3dd4cd"/><stop offset=".4" stop-color="#41d5cf"/><stop offset=".6" stop-color="#94f2ff"/></linearGradient><path fill="url(#z)" d="M35.6 146.4c-4.1-2.5-11-2.5-15 0s-4.2 6.3 0 8.7a16 16 0 0 0 15 0c4.3-2.4 4.2-6.3 0-8.7z"/><linearGradient id="A" x1="28.1" x2="28.1" y1="145.5" y2="156" gradientUnits="userSpaceOnUse"><stop offset="0" stop-color="#94f2ff"/><stop offset="1" stop-color="#3dd4cd"/></linearGradient><path fill="url(#A)" d="M28.1 155.5c-2.5 0-5-.6-6.7-1.6-1.6-.9-2.4-2-2.4-3s.8-2.1 2.3-3c1.8-1 4.2-1.6 6.8-1.6 2.5 0 5 .6 6.8 1.6 1.5.9 2.3 2 2.3 3s-.8 2.2-2.3 3c-1.8 1-4.2 1.6-6.8 1.6z"/><path fill="#3DD4CD" d="M21.3 147.9c1.8-1 4.2-1.6 6.8-1.6 2.5 0 5 .6 6.8 1.6 1.3.8 2.2 1.8 2.3 2.8v-.3c0-1-.8-2.1-2.3-3a14 14 0 0 0-6.8-1.6c-2.6 0-5 .6-6.8 1.6-1.5.9-2.3 2-2.3 3v.2c.1-1 1-2 2.3-2.7z"/><linearGradient id="B" x1="28.1" x2="28.1" y1="158.8" y2="152.6" gradientUnits="userSpaceOnUse"><stop offset="0" stop-color="#fff"/><stop offset="1" stop-color="#fff" stop-opacity="0"/></linearGradient><path fill="url(#B)" d="M20.6 155.6a16 16 0 0 0 15 0c2.2-1.2 3.2-2.9 3.2-4.5v-.2.7l-.1.1v.2l-.1.1v.2l-.1.1-.1.2a5 5 0 0 1-.2.2v.2l-.1.2-.2.2-.1.1-.2.2-.3.3-.2.2-.1.1a4.2 4.2 0 0 1-.4.3l-.1.1-.2.1a5.1 5.1 0 0 1-.4.3l-.2.1-.5.3h-.1l-.4.3h-.2a15.2 15.2 0 0 1-1 .4l-.3.1a11.2 11.2 0 0 1-.4.1l-.3.1a8.3 8.3 0 0 1-.7.2h-.5l-.6.2h-.1a18.5 18.5 0 0 1-1.1.1h-3.4l-.5-.1h-.1l-.4-.1h-.2l-.3-.1h-.2l-.4-.1a14.2 14.2 0 0 1-.5-.2h-.2l-.5-.2-.6-.2-.3-.1h-.1l-.3-.2h-.2a22.3 22.3 0 0 1-.7-.5c-2-1.1-3.1-2.7-3.2-4.2 0 1.7 1 3.4 3.2 4.7z"/><path fill="#FFF" stroke="#4A4A4A" stroke-miterlimit="10" d="M26.5 337.7l20 11.6-20 11.5z"/><path fill="none" stroke="#4A4A4A" stroke-miterlimit="10" d="M46 349.5h268"/></svg>