<svg xmlns="http://www.w3.org/2000/svg" viewBox="0 0 320 568">
  <path fill="#41D5CF" d="M173 96H38v79.7l135-15.4z"/>
  <path fill="#00659C" d="M311 96H176v63.9l135-15.5zM38 330v80.7l135-15.4V330z"/>
  <path fill="#41D5CF" d="M311 330H176v64.9l135-15.5z"/>
  <path fill="#00659C" d="M4.5 38c.7 0 1.1-.1 1.4-.5.2-.1.2-.3.3-.6l.1-1.7V21.8l.1-.4.5-.1h1.6l.5.1v13.8c0 2-.3 3.4-1 4.3-.7.8-1.8 1.2-3.5 1.2l-.4-.1L4 40v-1.5l.1-.4.5-.1zm14.7 2.7h-5.8l-.4-.1-.2-.5V21.8c0-.2 0-.3.2-.4l.4-.1h5.8l.5.1v2.4l-.5.1h-3.5l-.1.6V29h3.6l.5.2v2.3l-.5.2h-3.5l-.1.5V38h3.6l.5.2v2.4h-.5zm11.4-19.4h3.3c1.3 0 2.4.4 3.2 1.3.8 1 1.2 2.2 1.2 4v8.8c0 1.7-.4 3-1.2 4a4.1 4.1 0 0 1-3.2 1.3h-3.3l-.4-.1-.2-.5V21.8c0-.2 0-.3.2-.4l.4-.1zm2.2 3.1V38H34c.5 0 1 0 1.2-.4.3-.4.5-.9.5-1.5V25.9c0-.7-.2-1.2-.5-1.5s-.7-.5-1.2-.5h-1v.6zm17.7 2v9.1c0 1.7-.4 3-1.2 4-.8.9-1.9 1.3-3.2 1.3s-2.4-.4-3.2-1.3-1.2-2.2-1.2-4v-9c0-1.8.4-3 1.2-4s1.9-1.3 3.2-1.3 2.4.4 3.2 1.3c.8 1 1.2 2.2 1.2 4zm-2.7 9.9V25.6c0-.8-.2-1.4-.8-1.8-.6-.3-1.2-.3-1.8 0s-.8 1-.8 1.8v10.5c0 .9.2 1.5.8 1.8.6.4 1.2.4 1.8 0 .6-.3.8-1 .8-1.7zm9.1-14.5v18.3l-.1.5h-2.5L54 40V21.8c0-.2 0-.3.2-.4l.4-.1h1.7l.4.1.1.4zm7.6 19a4.4 4.4 0 0 1-4.4-4.5v-.5l.5-.2h1.6c.4 0 .6.3.6.7 0 .6.1 1 .4 1.4.3.4.7.5 1.3.5.4 0 .8-.1 1.1-.4s.5-.7.6-1.2c.2-1.1-.4-2.5-1.8-4l-.5-.7-.6-.7-.6-.7-.6-.8-.5-.7a5.1 5.1 0 0 1-.5-.9l-.3-.8a4.2 4.2 0 0 1-.3-.9l-.1-.8a4 4 0 0 1 4-4.4c1 0 1.9.3 2.7 1a4 4 0 0 1 1.3 2.7v.7l-.6.1H66l-.2-.5c0-.5 0-.8-.3-1.1a1.3 1.3 0 0 0-1-.4c-.5 0-.9.2-1 .6s-.4.8-.3 1.2c0 .7.4 1.5 1 2.3.5.9 1.1 1.7 1.8 2.4s1.3 1.6 1.9 2.6c.6 1 1 2 1 3a4.4 4.4 0 0 1-1 3.5 4.2 4.2 0 0 1-3.3 1.5zm14.8-19.5h3.3c1.3 0 2.4.4 3.2 1.3.8 1 1.2 2.2 1.2 4V29c0 1.7-.4 3-1.2 3.9a4.1 4.1 0 0 1-3.2 1.3h-.8c-.2 0-.2 0-.3.2V40c0 .4-.2.6-.6.6h-1.6l-.5-.1V21.8v-.4l.5-.1zm2.2 3.1V31.6l.5.1h.6c.5 0 .9-.1 1.2-.5s.5-.8.5-1.5V26c0-.7-.2-1.2-.5-1.5s-.7-.5-1.2-.5h-1l-.1.6zm9.4-3.1h3.6c1.3 0 2.3.4 3 1.3.8.8 1.2 2.1 1.2 3.8v1c0 2.1-.6 3.6-1.7 4.5l1.6 8.2c.1.4 0 .6-.3.6h-2a.3.3 0 0 1-.2-.1.5.5 0 0 1-.1-.3l-1.5-7.5c0-.1 0-.2-.3-.2h-1v7.5l-.2.5h-2.5l-.1-.5V21.8v-.4l.5-.1zm3.6 2.4h-.8l-.5.1v6.3h1.3c1 0 1.4-.6 1.4-2v-2.4c0-1.3-.5-2-1.4-2zm14.2 17h-5.8l-.5-.1-.1-.5V21.8l.1-.4.4-.1h5.9l.4.1.2.4v1.5c0 .2 0 .4-.2.5l-.4.1h-3.6V29.2h3.6l.4.2.2.4v1.5c0 .2 0 .4-.2.4l-.4.2h-3.6V38h3.6l.4.2.2.4v1.5c0 .2 0 .4-.2.5h-.4zm-2.5-20.4h-1c-.2 0-.3 0-.3-.3v-2.7l.1-.4.5-.2h1.6c.5 0 .6.3.4.8l-.8 2.3a1.3 1.3 0 0 1-.2.4l-.3.1zm10.3 20.5a4.4 4.4 0 0 1-4.4-4.5l.1-.5.5-.2h1.6c.4 0 .6.3.6.7 0 .6.1 1 .4 1.4.3.4.7.5 1.2.5s1-.1 1.2-.4.5-.7.6-1.2c.1-1.1-.4-2.5-1.8-4l-.6-.7-.6-.7-.5-.7a8 8 0 0 1-.6-.8l-.5-.7a5.1 5.1 0 0 1-.5-.9l-.4-.8a4.2 4.2 0 0 1-.3-.9v-.8a4 4 0 0 1 4-4.4c1 0 1.8.3 2.6 1a4 4 0 0 1 1.4 2.7v.7l-.6.1h-2v-.5c0-.5-.2-.8-.4-1.1a1.3 1.3 0 0 0-1-.4c-.5 0-1 .2-1.1.6s-.3.8-.3 1.2c.1.7.4 1.5 1 2.3.6.9 1.2 1.7 1.9 2.4.6.7 1.3 1.6 1.9 2.6.6 1 1 2 1 3a4.4 4.4 0 0 1-1 3.5 4.2 4.2 0 0 1-3.4 1.5zm14-.1h-5.8l-.4-.1-.2-.5V21.8c0-.2 0-.3.2-.4l.4-.1h5.8l.5.1v2.4l-.5.1H127l-.1.6V29h3.6l.5.2v2.3l-.5.2H127l-.1.5V38h3.6l.5.2v2.4h-.5zm12.6 0H142c-.3 0-.5-.1-.6-.4L137.7 30h-.1c0-.1 0-.1-.1 0v10.1c0 .2 0 .4-.2.5h-2.5l-.1-.5V21.8l.1-.4.4-.1h1.3c.3 0 .5.1.5.3l3.7 10.4c.1.1.2.1.2 0V21.8l.1-.4.5-.1h1.6l.5.1v19.2h-.5zm3.5-17.4v-1.5l.1-.4.5-.1h7.2l.4.1.1.4v1.5l-.1.5-.4.1h-2.2v16.2l-.2.5h-2.5l-.1-.5V24.4l-.1-.4-.5-.1h-1.7l-.4-.1-.1-.5zm17.6 17.4h-5.8l-.5-.1V21.8v-.4l.5-.1h5.8l.5.1v2.4l-.5.1h-3.5l-.1.6V29h3.6l.4.2.2.4v1.5c0 .2 0 .4-.2.4l-.4.2h-3.5l-.1.5V38h3.6l.4.2.2.4v1.5c0 .2 0 .4-.2.5h-.4zm4.7-19.4h3.6c1.3 0 2.4.4 3.1 1.3.7.8 1.1 2.1 1.1 3.8v1c0 2.1-.6 3.6-1.7 4.5l1.7 8.2c0 .4 0 .6-.4.6h-2a.3.3 0 0 1-.2-.1.5.5 0 0 1-.1-.3l-1.4-7.5-.4-.2h-1v7.5c0 .2 0 .4-.2.5h-2.5l-.1-.5V21.8l.1-.4.4-.1zm3.6 2.4h-.8l-.5.1v6.3h1.3c1 0 1.4-.6 1.4-2v-2.4c0-1.3-.4-2-1.4-2zm20.3 17h-.6c-.3 0-.5-.1-.6-.4l-1.7-7.1-.1-.1v7l-.2.5h-2.5l-.1-.5V21.8l.1-.4.4-.1h1.3c.3 0 .4.1.5.3l3.1 13 .1.2.1-.1 3.2-13c0-.3.2-.4.5-.4h1.3l.4.1.1.4v18.3l-.1.5h-2.5l-.2-.5v-7h-.1l-1.7 7.2c-.1.3-.3.4-.7.4zm18 0h-2a.3.3 0 0 1-.2-.1.5.5 0 0 1-.2-.3l-.2-1.5c0-.3-.1-.5-.2-.5h-3.3s-.2.2-.2.5l-.3 1.5a.5.5 0 0 1 0 .3h-2.5-.2v-.4l3.5-18.4c0-.2 0-.3.2-.4l.4-.1h1.5l.4.1.2.4 3.5 18.4v.4l-.5.1zm-4.6-12.4l-1.1 6.8v.5h2.5V35l-1.1-6.8H206.2zM225 40.8a4.4 4.4 0 0 1-4.5-4.5l.1-.5.5-.2h1.6c.4 0 .6.3.6.7 0 .6.1 1 .4 1.4.3.4.7.5 1.2.5s1-.1 1.2-.4.5-.7.6-1.2c.1-1.1-.4-2.5-1.8-4l-.6-.7-.6-.7-.5-.7a8 8 0 0 1-.6-.8l-.5-.7a5.1 5.1 0 0 1-.5-.9l-.4-.8a4.2 4.2 0 0 1-.3-.9v-.8a4 4 0 0 1 4-4.4c1 0 1.8.3 2.6 1a4 4 0 0 1 1.4 2.7v.7l-.6.1h-2v-.5c0-.5-.2-.8-.4-1.1a1.3 1.3 0 0 0-1-.4c-.5 0-.9.2-1.1.6s-.3.8-.3 1.2c.1.7.4 1.5 1 2.3.6.9 1.2 1.7 1.9 2.4.6.7 1.3 1.6 1.9 2.6.6 1 1 2 1 3a4.4 4.4 0 0 1-1 3.5 4.2 4.2 0 0 1-3.4 1.5zm6.6-17.5v-1.5l.1-.4.4-.1h7.2l.5.1v2.4l-.5.1h-2.1v16.2l-.2.5h-2.5l-.2-.5V24.4 24l-.5-.1H232l-.4-.1-.1-.5zm11.8-2h3.5c1.4 0 2.4.4 3.1 1.3.7.8 1.1 2.1 1.1 3.8v1c0 2.1-.6 3.6-1.7 4.5L251 40c0 .4 0 .6-.4.6h-2a.3.3 0 0 1-.2-.1.5.5 0 0 1-.1-.3l-1.4-7.5-.4-.2h-1v7.5c0 .2 0 .4-.2.5h-2.5l-.1-.5V21.8l.1-.4.4-.1zm3.5 2.4h-.8l-.5.1v6.3h1.3c1 0 1.4-.6 1.4-2v-2.4c0-1.3-.4-2-1.4-2zm16.6 17h-2a.3.3 0 0 1-.2-.1.5.5 0 0 1-.1-.3l-.3-1.5-.1-.5h-3.4l-.2.5-.2 1.5a.5.5 0 0 1-.2.3h-2.4-.1v-.4l3.4-18.4.2-.4.4-.1h2l.1.5 3.5 18.4v.4h-.4zm-4.5-12.4l-1.2 6.8v.5h2.5V35l-1.1-6.8h-.1-.1zm6.3-5v-1.5l.1-.4.5-.1h7.2l.4.1.1.4v2l-.5.1h-2.2v16.2c0 .2 0 .4-.2.5h-2.5l-.1-.5V24.4 24l-.5-.1h-1.7l-.5-.1v-.5zm17.6 17.4H277l-.4-.1-.2-.5V21.8c0-.2 0-.3.2-.4l.4-.1h5.8l.5.1.1.4v1.5l-.1.5-.5.1h-3.5V29.2h3.5l.5.2.1.4v1.5l-.1.4c-.1.1-.2.2-.5.2h-3.5V38h3.5l.5.2.1.4v1.5l-.1.5h-.5zm-2.5-20.4h-1c-.2 0-.3 0-.3-.3v-2.7c0-.2 0-.4.2-.4l.4-.2h1.7c.4 0 .5.3.3.8l-.8 2.3a1.3 1.3 0 0 1-.2.4l-.3.1zm9.2 5.4v10.5c0 .9.2 1.5.8 1.8.6.4 1.1.4 1.7 0 .6-.3.9-1 .8-1.7v-4-.5h-.8l-.4-.1-.1-.5v-1.5-.4l.5-.1h3.5v6.3c0 1.7-.3 3-1 3.9a4 4 0 0 1-3.4 1.4c-1.3 0-2.4-.4-3.2-1.3s-1.2-2.2-1.2-4v-9c0-1.8.4-3 1.2-4s2-1.3 3.3-1.3c1.2 0 2.2.4 3 1.1a5 5 0 0 1 1.4 3.5c0 .4-.2.7-.6.7h-1.6l-.5-.1v-.7c0-.8-.3-1.4-.9-1.7-.6-.4-1.1-.4-1.7 0s-.9.9-.8 1.7zm12.5-3.9v18.3c0 .2 0 .4-.2.5h-2.5l-.1-.5V21.8l.1-.4.4-.1h1.7l.4.1.2.4zm10.2 18.9h-5.8l-.4-.1-.2-.5V21.8c0-.2 0-.3.2-.4l.4-.1h5.8l.5.1v2.4l-.5.1h-3.5V29.2h3.5l.5.2v2.3l-.5.2h-3.5V38h3.5l.5.2v2.4h-.5zM76 108.8v7.3c0 1.2-.3 2-.8 2.6s-1.3.8-2.2.8-1.6-.2-2.2-.8-.8-1.4-.8-2.6v-7.3c0-1.1.3-2 .8-2.6s1.3-.8 2.2-.8 1.7.3 2.2.8.8 1.5.8 2.6zm-1 7.4v-7.5c0-.8-.2-1.4-.6-1.8s-.8-.6-1.4-.6c-.6 0-1 .2-1.4.6s-.6 1-.6 1.8v7.5c0 .8.2 1.4.6 1.8s.8.6 1.4.6c.6 0 1-.2 1.4-.6s.6-1 .6-1.8zm3.2 6.5v-12.8l.1-.4h.8l.1.3v.4a2 2 0 0 1 1.6-.8c.8 0 1.5.2 2 .8.4.6.6 1.5.6 2.7v3.1c0 1.2-.2 2.1-.7 2.7-.4.6-1 .9-1.9.8a1.9 1.9 0 0 1-1.6-.8v4.3H78.3l-.1-.3zm4.2-6.3v-4c0-1.4-.6-2-1.6-2s-1.6.6-1.6 2v4c0 1.5.6 2.2 1.6 2.2s1.6-.7 1.6-2.2zm3.2 6.3v-12.8l.1-.4h.8l.1.3v.4a2 2 0 0 1 1.6-.8c.8 0 1.5.2 2 .8.4.6.6 1.5.6 2.7v3.1c0 1.2-.2 2.1-.7 2.7-.4.6-1 .9-1.9.8a1.9 1.9 0 0 1-1.6-.8v4.3H85.6l-.1-.3zm4.2-6.3v-4c0-1.4-.6-2-1.6-2s-1.6.6-1.6 2v4c0 1.5.6 2.2 1.6 2.2s1.6-.7 1.6-2.2zm3-.4V113c0-1.2.2-2 .7-2.7s1.2-.8 2-.8 1.5.3 2 .8.7 1.5.7 2.7v3.1c0 1.2-.3 2-.8 2.7s-1 .8-2 .8c-.7 0-1.4-.2-1.9-.8s-.7-1.5-.7-2.7zm4.3.4v-4c0-.6-.1-1.2-.4-1.5s-.7-.6-1.2-.6-1 .2-1.2.6c-.3.3-.5.9-.5 1.6v4c0 .7.2 1.2.5 1.5.3.4.7.6 1.2.6s.9-.2 1.2-.5c.3-.4.4-1 .4-1.7zm5.8-5.8l-.5-.1c-.5 0-.7.2-.9.7a6.7 6.7 0 0 0-.1 1.3V119.4H100.4l-.1-.3v-9.2-.4H101.4l.1.4v.2a2 2 0 0 1 1.4-.6h.4v1.1h-.3zm3.1-2.9v2c0 .2 0 .2.2.2h.4l.3.1v.8l-.3.1h-.4c-.1 0-.2 0-.2.2v5.3l.1 1.5c0 .4.3.6.6.6l.3.1.1.3v.5h-.3c-.8 0-1.2-.2-1.5-.7a4.2 4.2 0 0 1-.3-1.2V111c0-.1 0-.2-.2-.2h-.3l-.1-.4v-.2-.3h.4c.1 0 .2-.1.2-.3v-2-.3H106l.1.3zm3.9 2.2v6.5c0 1.5.5 2.2 1.5 2.2s1.6-.7 1.6-2.2V110l.1-.4h.8l.1.3v9.6H113l-.1-.3v-.4c-.4.5-1 .8-1.6.8-.8 0-1.4-.2-1.9-.8s-.7-1.5-.7-2.7V110l.1-.4H109.8v.3zm10.7 9.2v-6.6c0-1.4-.5-2.2-1.6-2.2s-1.5.8-1.5 2.2v6.6l-.1.3H116.5v-9.5-.4H117.4v.7c.5-.5 1-.8 1.7-.8.8 0 1.4.2 1.9.8.4.6.6 1.5.6 2.7v6.5H120.6l-.1-.3zm3.9-10.5c-.3 0-.5-.1-.6-.4a.7.7 0 0 1 0-.6c.1-.2.3-.3.6-.3.2 0 .4 0 .5.3s.1.4 0 .6c0 .3-.3.4-.5.4zm.5 1.3v9.2l-.1.3H124v-9.5-.4H125v.3zm3.4-2.2v2c0 .2 0 .2.2.2h.4l.3.1v.8l-.3.1h-.4c-.1 0-.2 0-.2.2v5.3l.1 1.5c0 .4.3.6.6.6l.3.1.1.3v.5h-.4c-.7 0-1.2-.2-1.4-.7a4.2 4.2 0 0 1-.3-1.2V111c0-.1 0-.2-.2-.2h-.3l-.1-.4v-.2-.3h.4c.1 0 .2-.1.2-.3v-2-.3H128.4l.1.3zm2.7 8.3V113c0-1.2.3-2 .8-2.7s1.1-.8 2-.8c.7 0 1.4.3 1.9.8s.7 1.5.7 2.7v1.4h-3.9l-.4.1v2c0 .8.1 1.3.4 1.6.3.4.7.6 1.2.6s.9-.2 1.2-.5c.2-.3.4-.7.4-1.3l.1-.4H136.4v.3a3.4 3.4 0 0 1-.6 2c-.5.6-1.1.8-2 .8-.8 0-1.5-.3-2-.8s-.7-1.5-.7-2.7zm1-3.5v.5l.1.4H135.4v-.9c0-.7 0-1.3-.4-1.6s-.7-.6-1.2-.6-.9.2-1.2.6c-.3.3-.4.9-.4 1.6zm1.8-4c-.2 0-.3 0-.3-.2v-2l.1-.3.3-.1h.6v.4l-.4 1.9v.2h-.3zm9.2 3.2v.3H142.4c-.2 0-.3 0-.4-.3 0-.4-.1-.7-.4-1a1.2 1.2 0 0 0-1-.4c-.3 0-.6.2-.9.4s-.3.6-.3 1c0 .3.1.6.4 1l1 1 1.1.8c.4.4.8.7 1 1.2.3.4.4.8.4 1.3a2.4 2.4 0 0 1-.8 1.8c-.5.5-1.2.7-1.9.7s-1.3-.2-1.8-.7c-.5-.5-.8-1.1-.8-1.8v-.3l.4-.1h.2c.2 0 .4.1.4.4 0 .5.2.9.5 1.2.3.2.7.4 1.1.4a1.6 1.6 0 0 0 1.7-1.7c0-.4-.2-.8-.7-1.3l-1.3-1.1a6.3 6.3 0 0 1-1.4-1.2 2.4 2.4 0 0 1-.6-1.6c0-.6.2-1.2.7-1.6.5-.5 1-.7 1.6-.7.7 0 1.2.2 1.7.6.4.4.7 1 .7 1.7zM64.6 131v12.2c.2.7.7 1 1.5 1.2h.3v.8l-.3.1c-.9 0-1.5-.3-2-.8-.4-.6-.6-1.4-.6-2.5v-11c0-1.1.2-2 .6-2.5.5-.5 1.1-.8 2-.8h.3v.8l-.3.1c-.5 0-.9.3-1.2.6l-.2.6-.1 1.2zm9.7 1.8v7.3c0 1.2-.3 2-.8 2.6s-1.3.8-2.2.8-1.7-.2-2.2-.8-.8-1.4-.8-2.6v-7.3c0-1.1.3-2 .8-2.6s1.3-.8 2.2-.8 1.6.3 2.2.8.8 1.5.8 2.6zm-1 7.4v-7.5c0-.8-.2-1.4-.6-1.8s-.8-.6-1.4-.6c-.6 0-1 .2-1.4.6s-.6 1-.6 1.8v7.5c0 .8.2 1.4.6 1.8s.8.6 1.4.6c.6 0 1-.2 1.4-.6s.5-1 .5-1.8zm3.2 6.5v-12.8-.4H77.5l.1.3v.4a2 2 0 0 1 1.6-.8c.8 0 1.4.2 1.9.8.5.6.7 1.5.7 2.7v3.1c0 1.2-.2 2.1-.7 2.7-.5.6-1 .9-1.9.8a1.9 1.9 0 0 1-1.6-.8v4.3H76.5l-.1-.3zm4.1-6.3v-4c0-1.4-.5-2-1.5-2s-1.6.6-1.6 2v4c0 1.5.5 2.2 1.6 2.2s1.5-.7 1.5-2.2zm3.3 6.3v-12.8-.4H84.9l.1.3v.4a2 2 0 0 1 1.6-.8c.8 0 1.4.2 1.9.8.5.6.7 1.5.7 2.7v3.1c0 1.2-.2 2.1-.7 2.7-.5.6-1 .9-1.9.8a1.9 1.9 0 0 1-1.6-.8v4.3H84l-.1-.3zm4.1-6.3v-4c0-1.4-.5-2-1.5-2s-1.6.6-1.6 2v4c0 1.5.5 2.2 1.6 2.2s1.5-.7 1.5-2.2zm3-.4V137c0-1.2.3-2 .8-2.6s1.1-1 2-1c.8 0 1.4.4 2 1s.6 1.4.6 2.6v3.1c0 1.2-.2 2-.7 2.7s-1.1.8-2 .8c-.8 0-1.4-.2-1.9-.8s-.7-1.5-.7-2.7zm4.4.4v-4c0-.6-.1-1.2-.4-1.5s-.7-.6-1.2-.6-1 .2-1.2.6c-.3.3-.5.9-.5 1.6v4c0 .7.2 1.2.5 1.5.3.4.7.6 1.2.6s.9-.2 1.2-.6c.3-.3.4-.8.4-1.6zm5.8-5.8l-.5-.1c-.5 0-.8.2-.9.7a6.7 6.7 0 0 0-.1 1.3v6.6l-.1.3H98.7v-9.5-.3l.3-.1h.6V134.2a2 2 0 0 1 1.5-.6h.4v1.1h-.3zm3.1-2.9v2c0 .2 0 .2.2.2h.4l.3.1v.8l-.3.1h-.4c-.1 0-.2 0-.2.2v6.8c.2.4.4.6.7.6l.3.1.1.3v.5h-.4c-.7 0-1.2-.2-1.4-.7a4.2 4.2 0 0 1-.3-1.2V135l-.2-.2h-.3l-.1-.4v-.2-.3h.4c.1 0 .2-.1.2-.3v-2-.3H104.3l.1.3zm3.9 2.2v6.5c0 1.5.5 2.2 1.5 2.2s1.6-.7 1.6-2.2V134v-.3l.4-.1h.5l.1.4v9.5H111.3l-.1-.3v-.4c-.4.5-1 .8-1.6.8-.8 0-1.4-.2-1.9-.8s-.7-1.5-.7-2.7V134l.1-.3.3-.1h.6v.4zm10.7 9.2v-6.6c0-1.5-.5-2.2-1.6-2.2s-1.5.7-1.5 2.2v6.6l-.1.3H114.8v-9.5-.3l.3-.1h.6v.7c.4-.5 1-.8 1.7-.8.8 0 1.4.2 1.8.8.5.6.7 1.5.7 2.7v6.5H119l-.1-.3zm3.8-10.5c-.2 0-.4-.1-.5-.4a.7.7 0 0 1 0-.6c.1-.2.3-.3.5-.3.3 0 .5 0 .6.3s.1.4 0 .6c-.1.3-.3.4-.6.4zm.6 1.3v9.2l-.1.3H122.3v-9.5-.3l.3-.1h.6v.4zm3.4-2.2v2c0 .2 0 .2.2.2h.4l.3.1v.8l-.3.1h-.4c-.1 0-.2 0-.2.2v6.8c.2.4.4.6.7.6l.3.1.1.3v.5h-.4c-.7 0-1.2-.2-1.4-.7a4.2 4.2 0 0 1-.3-1.2V135l-.2-.2h-.3l-.1-.4v-.2-.3h.4c.1 0 .2-.1.2-.3v-2-.3H126.7l.1.3zm3.4.9c-.2 0-.4-.1-.5-.4a.7.7 0 0 1 0-.6c.1-.2.3-.3.5-.3.3 0 .5 0 .6.3s.1.4 0 .6c-.1.3-.3.4-.6.4zm.6 1.3v9.2l-.1.3H129.7v-9.5-.3l.3-.1h.6v.4zm2.2 6.1V137c0-1.2.2-2 .7-2.6s1.1-1 2-1c.8 0 1.4.4 1.9 1s.7 1.4.7 2.6v1.4h-3.9l-.3.1-.1.4v1.6c0 .8.1 1.3.4 1.7.3.3.7.5 1.2.5s.9-.2 1.2-.5c.3-.3.4-.7.5-1.3v-.4H138.1v.3a3.4 3.4 0 0 1-.6 2c-.4.6-1 .8-2 .8-.8 0-1.4-.3-2-.8s-.6-1.5-.6-2.7zm1-3.5v.9H137.2v-.9c0-.7 0-1.3-.4-1.6s-.6-.6-1.2-.6c-.5 0-.9.2-1.2.6-.2.3-.4.9-.4 1.6zm11-.8l-.2.3h-.5c-.2 0-.3 0-.3-.3 0-.4-.2-.7-.5-1a1.2 1.2 0 0 0-.9-.4c-.4 0-.7.2-1 .4s-.3.6-.3 1c0 .3.1.7.4 1l1 1 1.2.8 1 1.2c.2.4.3.8.3 1.3a2.4 2.4 0 0 1-.8 1.8c-.5.5-1.1.7-1.8.7-.8 0-1.4-.2-1.9-.7-.5-.5-.8-1.1-.8-1.8l.1-.3.3-.1h.2c.3 0 .4.1.4.4 0 .5.3.9.6 1.1.3.3.6.5 1 .5a1.6 1.6 0 0 0 1.7-1.7c0-.4-.2-.8-.6-1.3a7 7 0 0 0-1.4-1.1 6.3 6.3 0 0 1-1.3-1.2 2.4 2.4 0 0 1-.7-1.6c0-.6.3-1.2.7-1.6.5-.5 1-.7 1.7-.7.6 0 1.1.2 1.6.6.4.4.7 1 .7 1.7zm3.6 6.3v-11l-.1-1.2c-.2-.7-.6-1-1.5-1.2h-.3v-.5-.3l.3-.1c1 0 1.6.3 2 .8.4.6.6 1.4.6 2.5v11c0 1.1-.2 2-.6 2.5-.4.5-1 .8-2 .8h-.3v-.5-.3l.3-.1a1.4 1.4 0 0 0 1.5-1.2V142zM96.3 247.1a4.8 4.8 0 0 1-6.6-2c-.1-.3-.2-.5-.1-.6l.3-.3 1.1-.6c.3-.2.6 0 .9.3a2.8 2.8 0 0 0 1.5 1.3c.6.2 1.2.1 1.7-.1.6-.4 1-.8 1.2-1.3.2-.6.1-1.2-.1-1.7-.5-1.3-1.9-2.3-4-3l-1.4-.6-1.6-.6a19.8 19.8 0 0 1-2.7-1.3 9 9 0 0 1-1-.9 4.7 4.7 0 0 1-1-1 4.4 4.4 0 0 1 1.7-6.3 4.2 4.2 0 0 1 3-.3c1.1.2 2 .9 2.6 1.8l.4.7c0 .2-.2.3-.4.4l-1 .6h-.5l-.4-.3a2.3 2.3 0 0 0-1.2-1 1.8 1.8 0 0 0-1.4.2c-.5.3-.9.7-1 1.3s0 1.1.4 1.7A5.4 5.4 0 0 0 89 235c1 .5 2 1 3 1.3 1.2.3 2.3.8 3.4 1.4a7.5 7.5 0 0 1 2.6 2.3 4.7 4.7 0 0 1 .8 3.9 4.5 4.5 0 0 1-2.4 3.1zm13.4-7.3l-1.2.6h-.5c-.2 0-.3-.2-.5-.5a4.2 4.2 0 0 1-2 2.3c-1 .5-2 .7-3 .4a4 4 0 0 1-2.3-2.1l-.2-.5a4.4 4.4 0 0 1-.6-2.4c0-.8.3-1.4.7-2l.8-.8.8-1c.2-.2.5-.4.7-.8l.3-.9a1.9 1.9 0 0 0-.2-1 1.8 1.8 0 0 0-2.4-.7c-.5.3-.8.7-1 1.2a2.2 2.2 0 0 0 .3 1.7c.1.2.2.3.1.4 0 .2-.1.3-.3.4l-1 .5c-.2.1-.4.2-.5.1l-.3-.3a4.2 4.2 0 0 1-.5-3.4 4 4 0 0 1 2.1-2.6 4.5 4.5 0 0 1 6 2l4 7.4.9 1.2c.3.3.2.6-.2.8zm-4.7 0c1.1-.7 1.3-1.7.5-3l-1.4-2.7-1 1.2-.7 1-.4.8c-.2.5-.1 1.2.3 2 .2.3.5.6 1 .9.4.2 1 .2 1.7-.2zm-.2-16.4a1.5 1.5 0 0 1-1-1.8c.1-.4.4-.7.7-.9s.7-.2 1.1 0c.4 0 .7.3.9.6s.2.7.1 1.1a1.4 1.4 0 0 1-1.8 1zm9.4 14l-1.2.6c-.2.1-.3.2-.5.1l-.3-.3-6.5-12.2v-.5s0-.2.2-.3l1.2-.6c.2-.1.4-.2.5-.1l.3.3 6.5 12.2c.1.2.2.3.1.5l-.3.3zm8-9.3a4 4 0 0 1 .4 3.4 4.2 4.2 0 0 1-2.1 2.7 4 4 0 0 1-3.5.3 4.2 4.2 0 0 1-2.4-2v-.4c0-.2.1-.3.3-.4l1.1-.6h.5c.1 0 .2 0 .3.3.3.4.6.7 1.1.9.5.1 1 0 1.5-.2a2 2 0 0 0 1-2.2 1.9 1.9 0 0 0-1-1.2 4.7 4.7 0 0 0-1.9-.5l-2-.2a6.4 6.4 0 0 1-2.2-.5c-.7-.3-1.2-.8-1.5-1.4a3.5 3.5 0 0 1-.4-3 3.9 3.9 0 0 1 1.9-2.4 3.6 3.6 0 0 1 3-.2 4.1 4.1 0 0 1 2.3 2c.1.2.2.4.1.5l-.3.3-1 .6h-.5l-.4-.4a1.8 1.8 0 0 0-1-.8 1.5 1.5 0 0 0-1.2.2c-.6.3-.8.8-.7 1.4.1.6.5 1 1.3 1.3l1.7.3 2 .2c.6 0 1.3.2 2 .6.6.3 1.1.7 1.5 1.4zm-3.8-12a1.5 1.5 0 0 1-1-1.8c.2-.4.4-.7.8-.9.3-.2.7-.2 1 0 .5 0 .8.3 1 .6s.2.7 0 1.2a1.4 1.4 0 0 1-.7.8c-.3.2-.7.2-1 .1zm9.4 14l-1.1.6c-.2.1-.4.2-.5.1l-.3-.3-6.5-12.2c-.2-.2-.2-.3-.1-.5l.3-.3 1.2-.6c.2-.1.3-.2.4-.1.2 0 .3.1.4.3l6.5 12.2v.5s0 .2-.3.3zm1.7-15c-.4 0-.7.2-1 .3-.6.3-.8.8-.6 1.5l.8 1.8 4.3 8v.5l-.3.3-1.2.6c-.2.1-.3.2-.4.1l-.4-.3-6.5-12.2v-.5s0-.2.3-.3l1.1-.6c.2-.1.4-.2.5-.1l.4.3.1.3a3 3 0 0 1 1.5-1.8l.2-.2h.5c.1 0 .2 0 .3.3l.7 1.1v.6s0 .2-.3.2zM218.5 238.1l4.8 9c1 1.8 2.2 2.4 3.5 1.7 1.2-.6 1.4-1.8.8-3.4l-.2-.6.3-.3 1.2-.7c.4-.2.7 0 1 .5.6 1.5.7 2.8.3 4a4.6 4.6 0 0 1-2.3 2.6c-1.3.6-2.5.8-3.8.3-1.2-.4-2.2-1.4-3.1-3l-4.6-8.8c-1-1.6-1.2-3-.9-4.3a4.5 4.5 0 0 1 2.4-3c1.2-.6 2.3-.7 3.5-.4s2.1 1.1 3 2.5c.3.5.3.8-.1 1l-1.2.7h-.5c-.2 0-.2-.2-.4-.4-1-1.5-2-2-3.2-1.3-1.3.7-1.5 2-.5 4zm19-3.4l2 3.7c.8 1.7 1.1 3.1.8 4.4a4.3 4.3 0 0 1-2.2 2.6c-1.1.6-2.2.7-3.4.4-1.3-.4-2.3-1.5-3.2-3.1l-2-3.7c-.9-1.7-1.1-3.1-.8-4.3a4.2 4.2 0 0 1 2.2-2.7c1.1-.6 2.3-.7 3.4-.3 1.2.3 2.3 1.4 3.2 3zm0 5.6l-2.6-5c-.3-.6-.6-1-1-1.2s-1-.4-1.3-.3c-.4.1-.8.3-1 .6-.4.3-.5.7-.6 1.2s.1 1 .4 1.6l2.7 5c.3.5.6 1 1 1.2.5.2 1 .3 1.4.2.3-.1.7-.3 1-.6.3-.2.5-.6.5-1.1 0-.5-.1-1-.4-1.6zm4.2-8.8l4.6 8.7c.1.2.2.4.1.5l-.3.3-1.2.6c-.2.1-.3.2-.5.1l-.3-.3-6.5-12.2-.1-.4c0-.2.1-.3.3-.4l1.2-.6.5-.1.3.3.2.4a2.9 2.9 0 0 1 1.4-2 3.5 3.5 0 0 1 3.2-.3c1 .4 2 1.3 2.8 2.9l4.4 8.3c.1.2.2.3.1.4 0 .2-.1.3-.3.4l-1.2.6-.5.1-.3-.3-4.7-8.8c-.2-.5-.6-.9-1-1.1a1.6 1.6 0 0 0-1.2-.2c-.3 0-.7.2-1 .5-.2.3-.4.6-.4 1 0 .6 0 1 .4 1.6zm9.4-7l3.3 6.1a5 5 0 0 0 1.3 1.8c.4.3.9.3 1.5 0h.5c.1 0 .2 0 .3.3l.6 1c0 .2.1.3 0 .4 0 .2 0 .3-.3.4-1.3.7-2.5.8-3.4.4-1-.4-1.8-1.4-2.8-3.1l-3.2-6c-.1-.3-.2-.3-.4-.2h-.5c-.1 0-.2 0-.3-.3l-.5-.9-.1-.4c0-.2.1-.3.3-.4.2 0 .3-.2.2-.4l-1.3-2.3v-.5s0-.2.3-.3l1.1-.6c.2-.1.4-.2.5-.1l.4.3 1.2 2.3c0 .2.2.3.4.2l.6-.4h.5c.1 0 .3 0 .4.2l.4 1c.1.1.2.3.1.4l-.3.4-.7.3c-.1.1-.2.2-.1.4zm8.1-4.7a5 5 0 0 0-1 .3c-.6.4-.8.9-.6 1.6l.8 1.9 4.3 7.9v.5l-.3.3-1.2.6c-.2.1-.3.2-.4.1-.2 0-.3-.1-.4-.3l-6.5-12.2v-.5s0-.2.3-.3l1.1-.6c.2-.1.4-.2.5-.1l.3.3.2.3a3 3 0 0 1 1.5-1.8l.2-.2h.5c.1 0 .2 0 .3.3l.6 1.1c.2.2.2.4.2.5 0 .2-.2.3-.4.3zm5 5.4l-1.9-3.7c-.9-1.7-1.2-3.1-.8-4.3a4.2 4.2 0 0 1 2.2-2.7c1-.6 2.2-.7 3.4-.3 1.2.3 2.2 1.3 3.1 3l1 1.8v.5c0 .1 0 .2-.3.3l-4.6 2.5-.4.3.1.5.9 1.6c.3.7.8 1 1.3 1.3s1 .1 1.5-.1c.5-.3.9-.7 1-1.2a2.1 2.1 0 0 0-.2-1.5 1.4 1.4 0 0 1-.2-.6c0-.2.2-.3.4-.4l1-.6h.5c.1 0 .2 0 .4.3.5.9.7 2 .5 3.2-.2 1.2-1 2.1-2.3 2.8-1 .6-2.2.7-3.4.4-1.2-.4-2.2-1.5-3.1-3.1zm3.7-7l-.3-.5c-.4-.9-1-1.4-1.8-1.4a1.9 1.9 0 0 0-1.8 1c-.5.7-.4 1.4.1 2.3l.3.5c.1.2.2.3.4.3h.4l2.5-1.4c.2 0 .3-.2.3-.3v-.5zm7.7-7.2l-.9.4c-.6.3-.9.8-.7 1.5l.8 1.9 4.3 8c0 .1.1.3 0 .4 0 .1 0 .2-.3.3l-1.1.6c-.2.1-.4.2-.5.1l-.3-.3-6.5-12.2c-.2-.2-.2-.3-.1-.4 0-.2.1-.3.3-.4l1.2-.6c.2-.1.3-.2.4-.1.2 0 .3.1.4.3l.1.4a3 3 0 0 1 1.5-2h.3l.4-.2c.2 0 .3.2.4.4l.6 1.1.1.6c0 .1-.1.2-.4.2zM59.8 471.3l3.2-1.8a4.5 4.5 0 0 1 3.7-.3c1.3.4 2.3 1.5 3.2 3.1l4.5 8.5c1 1.6 1.2 3 .9 4.4a4.5 4.5 0 0 1-2.4 2.9l-3.2 1.7h-.5c-.2 0-.2 0-.3-.3l-9.3-17.4c-.1-.2-.2-.4-.1-.5l.3-.3zm3 1.6l7.2 13.3.3.5c.1 0 .3 0 .5-.2l1-.5c1.3-.7 1.5-2 .5-4l-4.7-8.6c-1-2-2.2-2.5-3.5-1.8l-1 .5-.4.3c0 .1 0 .3.2.5zm13-5l-.8.4c-.1 0-.3 0-.4-.2l-1.3-2.6c-.2-.2-.2-.4-.2-.5l.4-.3 1.4-.8c.4-.2.6 0 .7.6l.4 2.6v.5c0 .1 0 .2-.2.2zm.9 12l-2-3.7c-.9-1.7-1.1-3-.8-4.3.3-1.2 1-2 2.2-2.7s2.2-.7 3.4-.3c1.2.4 2.3 1.4 3.2 3l.9 1.8.1.5-.4.4-4.6 2.4-.4.4.1.5.9 1.6c.3.6.8 1 1.3 1.2.5.2 1 .2 1.6-.1.5-.3.8-.7 1-1.1a2.1 2.1 0 0 0-.3-1.6 1.4 1.4 0 0 1-.1-.6c0-.1 0-.3.3-.4l1-.5c.2-.1.4-.2.5-.1l.4.3c.5 1 .7 2 .5 3.2-.2 1.2-1 2.2-2.2 2.9-1.1.5-2.3.7-3.5.3-1.2-.4-2.2-1.4-3.1-3zm3.6-7l-.3-.5c-.3-.9-1-1.3-1.8-1.4a1.9 1.9 0 0 0-1.8 1c-.4.7-.4 1.5.2 2.3l.2.5.4.4.4-.1 2.5-1.3c.2-.1.3-.2.3-.4v-.4zm7.4-9.7l1.1-.7h.3c0-.1.1 0 .2 0 0 0 .2.1.2.3l4.1 13.6c.1.2.1.3 0 .4 0 .1 0 .2-.3.4l-1.4.7-.5.2-.4-.4-9-11c-.1 0-.2-.2-.1-.3l.3-.3 1.2-.7h.3a.4.4 0 0 1 .2 0l.3.1 5.7 7.2s.1.1.1 0h.1l-2.8-8.8a.5.5 0 0 1 0-.4.4.4 0 0 1 0-.2l.4-.1zm7.7 6.7l-2-3.7c-1-1.6-1.2-3-.8-4.3.3-1.2 1-2 2.2-2.7s2.2-.7 3.4-.3c1.2.4 2.2 1.4 3.1 3l1 1.9c0 .2.1.3 0 .4 0 .2 0 .3-.3.4l-4.6 2.5c-.2 0-.3.2-.4.3l.1.5.9 1.6a2.6 2.6 0 0 0 1.3 1.2c.5.2 1 .2 1.5 0 .5-.4.8-.7 1-1.2a2.1 2.1 0 0 0-.2-1.6 1.4 1.4 0 0 1-.2-.6l.4-.4 1-.5c.2-.1.4-.2.5-.1l.3.3c.6 1 .8 2 .6 3.2-.2 1.2-1 2.2-2.3 2.9-1 .6-2.2.7-3.4.3-1.2-.4-2.3-1.4-3.1-3zm3.6-7l-.3-.4c-.4-1-1-1.4-1.8-1.5a1.9 1.9 0 0 0-1.8 1c-.5.7-.4 1.5.1 2.3l.3.5c.1.2.2.4.4.4l.4-.1 2.5-1.3.3-.3-.1-.5zm1.7-12.8l7.2 13.3a5 5 0 0 0 1.3 1.8c.4.3.9.3 1.5 0h.5c.1 0 .2 0 .3.3l.5 1c.1.2.2.3.1.4l-.3.4c-1.4.7-2.5.8-3.4.4-1-.4-1.9-1.4-2.8-3.1l-7.1-13.3c-.1-.2-.2-.4-.1-.5l.3-.4 1.2-.6h.5s.2 0 .3.3zm16.6 3.3l2 3.7c.9 1.7 1.2 3.1.8 4.4-.3 1.1-1 2-2.1 2.6s-2.3.7-3.5.4c-1.2-.4-2.2-1.5-3.1-3.1l-2-3.7c-1-1.7-1.2-3.1-.8-4.3a4.2 4.2 0 0 1 2.2-2.7c1-.6 2.2-.7 3.4-.3 1.2.3 2.2 1.4 3.1 3zm.1 5.6l-2.6-5a2.7 2.7 0 0 0-1.1-1.3 1.7 1.7 0 0 0-1.3-.2c-.4.1-.7.3-1 .6-.3.2-.5.6-.5 1.1 0 .6 0 1 .4 1.6l2.6 5c.3.6.7 1 1.1 1.2.5.3 1 .4 1.3.3l1-.6c.3-.2.5-.6.5-1.1 0-.6 0-1-.4-1.7zm.3-11.9l1.2-.6.4-.1c.2 0 .3.1.4.3l.2.4a2.8 2.8 0 0 1 1.4-2 3.5 3.5 0 0 1 3.2-.4c1 .5 2 1.4 2.7 3l2.4 4.4c.8 1.5 1.1 2.8.9 4a3.5 3.5 0 0 1-2 2.4 2.9 2.9 0 0 1-2.5 0l2.7 5.2c.1.2.2.3.1.4 0 .2-.1.3-.3.4l-1.2.6-.5.1-.3-.3-9-17c-.1-.2-.2-.3-.1-.4 0-.2.1-.3.3-.4zm3.8 3l2.8 5.4c.3.5.6.9 1 1.1s.9.3 1.3.2c.3 0 .6-.3 1-.5.2-.3.4-.6.4-1.1 0-.5 0-1-.4-1.5l-2.8-5.3c-.3-.5-.6-.9-1-1.1-.4-.3-.8-.3-1.2-.2l-1 .5c-.3.2-.4.6-.5 1 0 .6.1 1 .4 1.6zm6.3-8.4l1.2-.6c.2-.1.3-.2.4-.1.2 0 .3.1.4.3l.2.4a2.8 2.8 0 0 1 1.4-2 3.5 3.5 0 0 1 3.2-.4c1 .5 2 1.4 2.7 3l2.4 4.4c.8 1.5 1.1 2.8.9 4s-1 1.8-2 2.4a2.9 2.9 0 0 1-2.5 0l2.7 5.2c.1.2.2.3.1.4 0 .2-.1.3-.3.4l-1.2.6-.4.1c-.2 0-.3-.1-.4-.3l-9-17c-.1-.2-.2-.3-.1-.5l.3-.3zm3.8 3l2.9 5.4c.2.5.6.9 1 1.1.4.2.8.3 1.2.2.3 0 .7-.2 1-.5.2-.3.4-.6.4-1.1 0-.5 0-1-.4-1.5L135 443c-.3-.5-.6-.9-1-1.1a1.6 1.6 0 0 0-1.2-.2c-.4 0-.7.2-1 .5-.3.2-.4.6-.5 1 0 .6.1 1 .4 1.6zm10 .5l-2-3.7c-.8-1.7-1.1-3.1-.7-4.3.3-1.2 1-2.1 2.1-2.7s2.3-.7 3.5-.3c1.2.4 2.2 1.4 3.1 3l1 1.8v.5l-.3.3-4.7 2.5c-.2.1-.3.2-.3.4l.1.4.8 1.6a2.6 2.6 0 0 0 1.3 1.3c.5.2 1 .2 1.6-.1.5-.3.8-.7 1-1.2a2.1 2.1 0 0 0-.2-1.5 1.4 1.4 0 0 1-.2-.6c0-.2.1-.3.3-.4l1.1-.6h.5l.3.3c.6.9.7 2 .5 3.2-.2 1.2-.9 2.2-2.2 2.8-1 .6-2.2.7-3.4.4-1.2-.4-2.3-1.4-3.2-3.1zm3.7-7l-.3-.5c-.4-.9-1-1.3-1.8-1.4a1.9 1.9 0 0 0-1.9 1c-.4.7-.3 1.5.2 2.3l.3.5c0 .2.2.3.3.4l.5-.1 2.4-1.3.4-.4-.1-.4zm7.7-7.1c-.4 0-.7.2-1 .3-.6.3-.8.8-.6 1.5l.8 1.9 4.3 8v.4l-.3.3-1.2.7c-.2 0-.3.1-.4 0-.2 0-.3 0-.4-.3l-6.5-12.2c0-.1-.1-.3 0-.4 0-.2 0-.3.3-.4l1.1-.6h.5c.1 0 .2 0 .3.3l.2.3a3 3 0 0 1 1.5-1.9l.2-.1c.2-.1.4-.2.5-.1l.3.3.6 1.1.2.6-.4.3zM213.4 463.2l3.2-1.7a4.5 4.5 0 0 1 3.8-.3c1.2.4 2.3 1.5 3.1 3.1l.4.7c1.1 2 1.3 3.8.6 5.2a494.2 494.2 0 0 1 5.8 7.1c.3.3.3.6 0 .7l-1.2.7a2.7 2.7 0 0 1-.3.2.4.4 0 0 1-.3 0 .5.5 0 0 1-.2-.3l-5.3-6.3c0-.2-.2-.2-.4-.1l-1.2.6-.4.3c0 .1 0 .3.2.5l3.6 6.7c.2.4 0 .6-.3.8l-1.2.7c-.2 0-.3.1-.4 0-.2 0-.3 0-.4-.3l-9.3-17.4v-.5l.2-.4zm3.1 1.7l3 5.6.3.4.5-.1 1-.5c1.3-.8 1.5-2 .5-4l-.5-1c-1-1.8-2.2-2.4-3.6-1.7l-1 .5-.3.3.1.5zm13-5l-.8.3c-.2.1-.3 0-.4 0l-1.4-2.7c-.1-.2-.2-.4-.1-.5l.3-.3 1.4-.8c.4-.2.7 0 .7.6l.4 2.6v.5c0 .1 0 .2-.2.2zm.8 12l-2-3.7c-.8-1.7-1.1-3.1-.7-4.3.3-1.2 1-2 2.1-2.7s2.3-.7 3.5-.3c1.2.4 2.2 1.4 3 3l1 1.8c.1.2.2.4.1.5l-.3.4-4.7 2.4c-.2.1-.3.2-.3.4v.4l1 1.6a2.6 2.6 0 0 0 1.2 1.3c.5.2 1 .2 1.6-.1.5-.3.8-.7 1-1.2a2.1 2.1 0 0 0-.2-1.5 1.4 1.4 0 0 1-.2-.6l.3-.4 1-.5c.3-.1.4-.2.6-.1l.3.3c.6 1 .7 2 .5 3.2-.2 1.2-1 2.2-2.2 2.9-1.1.5-2.2.7-3.4.3-1.2-.4-2.3-1.4-3.2-3zm3.7-7l-.3-.5c-.4-.9-1-1.3-1.8-1.4a1.9 1.9 0 0 0-1.9 1c-.4.7-.3 1.5.2 2.3l.3.5c0 .2.2.3.3.4l.5-.1 2.4-1.3.4-.4-.1-.4zm16.1 2.6l-1.1.6h-.5c-.1 0-.2 0-.3-.3l-.2-.3a2.8 2.8 0 0 1-1.5 2 3.5 3.5 0 0 1-3.1.3c-1-.4-2-1.4-2.8-2.9l-2.4-4.4c-.8-1.6-1-2.9-.9-4 .3-1 1-1.9 2-2.4a2.9 2.9 0 0 1 2.5 0l-3-5.7v-.5c0-.1 0-.2.3-.4l1.1-.6h.5c.1 0 .2 0 .3.3l9.4 17.4v.5c0 .1 0 .2-.3.3zm-3.8-3.1l-2.8-5.3c-.3-.5-.6-1-1-1.1a1.6 1.6 0 0 0-1.2-.3c-.4.1-.7.3-1 .6-.3.2-.4.6-.5 1 0 .6.1 1 .4 1.5l2.8 5.3c.3.6.6 1 1 1.2.5.2.9.3 1.2.2l1-.5c.3-.3.5-.6.5-1.1 0-.5-.1-1-.4-1.5zm10.3-5.5l-4.7-8.7-.1-.5.3-.3 1.2-.6c.2-.2.3-.2.5-.2l.3.4 6.5 12.2.1.4c0 .2-.1.3-.3.4l-1.2.6-.5.1-.3-.3-.2-.4a2.9 2.9 0 0 1-1.4 2 3.5 3.5 0 0 1-3.2.3c-1-.4-2-1.3-2.8-2.9l-4.4-8.3c-.1-.2-.2-.3-.1-.4 0-.2.1-.3.3-.4l1.2-.6.5-.1.3.3 4.7 8.8c.2.5.6.9 1 1.1.4.3.8.3 1.2.2s.7-.2 1-.5.4-.6.4-1.1c0-.5 0-1-.3-1.5zm-.8-13.5a1.5 1.5 0 0 1-.8-.7 1.4 1.4 0 0 1-.1-1.2c0-.3.3-.6.7-.8s.7-.2 1-.1c.5.1.8.3 1 .7.1.3.2.7 0 1.1 0 .4-.3.7-.6.9s-.8.2-1.1 0zm9.4 14l-1.1.6-.5.1-.3-.3-6.5-12.2c-.2-.2-.2-.4-.1-.5l.3-.3 1.2-.7h.4c.2 0 .3.1.4.3l6.5 12.2c0 .2.1.3 0 .4 0 .2 0 .3-.3.4zm1.7-15.1a5 5 0 0 0-1 .3c-.6.4-.8.9-.6 1.5l.8 2 4.2 7.9c.1.2.2.3.1.4 0 .2-.1.3-.3.4l-1.2.6-.4.1c-.2 0-.3-.1-.4-.3l-6.5-12.2v-.5c0-.1 0-.2.3-.3l1.1-.7h.5l.3.3.2.3a3 3 0 0 1 1.5-1.9l.2-.1.5-.1.3.3.6 1.2c.2.2.2.4.2.5 0 .2-.2.2-.4.3zm5 5.3L270 446c-.9-1.6-1.2-3-.8-4.2a4.2 4.2 0 0 1 2.2-2.8c1-.5 2.2-.6 3.4-.2 1.2.3 2.2 1.3 3.1 3l1 1.8v.5s0 .2-.3.3l-4.6 2.5c-.2 0-.3.2-.4.3s0 .3.1.5l.9 1.6c.3.6.8 1 1.3 1.3s1 .1 1.5-.2c.5-.2.9-.6 1-1.1a2.1 2.1 0 0 0-.2-1.6 1.4 1.4 0 0 1-.2-.6l.4-.3 1-.6h.5l.4.2c.5 1 .7 2 .5 3.2-.2 1.3-1 2.2-2.2 2.9-1.1.6-2.3.7-3.5.3-1.2-.4-2.2-1.4-3.1-3zm3.7-6.9l-.3-.5c-.4-1-1-1.4-1.8-1.4a1.9 1.9 0 0 0-1.8 1c-.5.7-.4 1.4.1 2.2l.3.6c.1.2.2.3.4.3h.4l2.5-1.4c.2 0 .3-.2.3-.3v-.5zM28.6 216v5.4l-.1.4-.4.1H10.3l-.5-.1v-5.9-.4H11l.1.5v4.4l.6.1H17.9l.1-.5v-4l.1-.5h1.1l.1.5v4.4l.5.1h7.5V216l.1-.5h1.1l.1.5zm-5.1-6.3l4.6 2 .5.3v.8c0 .3-.2.4-.5.3l-6.2-2.7-6.2 2.7c-.4.1-.6 0-.6-.3v-.4-.5l.6-.2 4.5-2-4.5-2a1.5 1.5 0 0 1-.5-.2v-.9c0-.3.1-.4.5-.3l6.2 2.7 6.2-2.7c.3-.1.5 0 .5.3v.8l-.5.3-4.6 2zm-10.7-6.9h2.7c.2 0 .3 0 .3-.3v-.5-.4l.5-.1h.2l.4.1.2.4v.5c0 .2 0 .3.2.3h7.2l2-.1c.5-.1.8-.4.8-.9 0-.2 0-.3.2-.4l.4-.1h.2l.4.1.1.4c0 1-.3 1.6-1 2a26.1 26.1 0 0 1-3.9.4h-6.4c-.1 0-.2.1-.2.3 0 .2 0 .3-.2.4l-.4.1h-.2l-.4-.1-.1-.4c0-.2-.1-.3-.3-.3h-2.7l-.4-.1-.2-.4v-.4c0-.2 0-.3.2-.4l.4-.1zm11.2-3.7h-4.2c-1.6 0-2.8-.3-3.6-1a3.3 3.3 0 0 1-1.2-2.6c0-1.1.4-2 1.2-2.6.8-.7 2-1 3.6-1h1.4l.4.1.2.4v5.3h2.7c1 0 1.7-.2 2.2-.6s.7-1 .7-1.6a2 2 0 0 0-.6-1.5c-.4-.4-1-.6-1.7-.7a1.3 1.3 0 0 1-.5 0l-.2-.4v-.4l.1-.4.4-.1c1 0 1.9.3 2.7.9.7.6 1.1 1.4 1.1 2.6 0 1.1-.4 2-1.1 2.7-.8.6-2 1-3.6 1zm-4.8-1.4h1.2v-3.9-.4l-.5-.1h-.7c-1 0-1.7.2-2.2.6a2 2 0 0 0-.7 1.6 2 2 0 0 0 .7 1.6c.5.4 1.2.6 2.2.6zm-2.5-12.2l-.2.7c0 .6.3 1 1 1.2l1.8.1H28l.4.1.1.5v.3l-.1.4-.4.1H15.7l-.4-.1-.2-.4v-.3c0-.2 0-.4.2-.5h.7a2.8 2.8 0 0 1-.9-2c0-.3 0-.4.2-.5l.4-.1h.4l.5.1c.1 0 .1.2 0 .4zm11.4-8.4h-8.9c-2 0-2.9.7-2.9 2s1 2.2 3 2.2H28l.4.1.1.4v.3l-.1.5H15.3l-.2-.5v-.3l.1-.4.5-.1h.5A2.5 2.5 0 0 1 15 179a2.9 2.9 0 0 1 1.1-2.5c.8-.6 2-1 3.7-1H28l.4.2.1.4v.3l-.1.5h-.4zm-4.1-4.3h-4.2c-1.6 0-2.8-.3-3.6-1a3.3 3.3 0 0 1-1.2-2.6c0-1.1.4-2 1.2-2.6.8-.7 2-1 3.6-1h1.4l.4.1.2.4v5.3h2.7c1 0 1.7-.2 2.2-.6s.7-.9.7-1.6a2 2 0 0 0-.6-1.5c-.4-.4-1-.6-1.7-.7a1.3 1.3 0 0 1-.5 0l-.2-.4v-.4l.1-.4.4-.1c1 0 1.9.3 2.7.9.7.6 1.1 1.4 1.1 2.6 0 1.1-.4 2-1.1 2.7-.8.6-2 1-3.6 1zm-4.8-1.4h1.2v-3.9-.4l-.5-.1h-.7c-1 0-1.7.2-2.2.6a2 2 0 0 0-.7 1.6 2 2 0 0 0 .7 1.6c.5.4 1.2.6 2.2.6zM10.3 452.6H28l.4.1.1.4v.4l-.1.4-.4.1H10.3l-.5-.1v-.8-.4l.5-.1zm17.8-8.9h-8.9c-2 0-2.9.7-2.9 2.1s1 2.2 3 2.2H28.4l.1.5v.3l-.1.4-.4.2H15.7c-.2 0-.4 0-.4-.2l-.2-.4v-.3l.1-.4.5-.1h.5a2.5 2.5 0 0 1-1.2-2.2 2.9 2.9 0 0 1 1.1-2.5c.8-.7 2-1 3.7-1H28c.2 0 .3 0 .4.2l.1.4v.3l-.1.4-.4.1zm-15.3-5.9h2.7c.2 0 .3 0 .3-.2v-.5-.5H17l.2.5v.5c0 .1 0 .2.2.2h9.2c.5-.2.8-.5.8-1 0-.1 0-.3.2-.4h1l.1.5c0 1-.3 1.6-1 1.9l-1.7.4H17.3c-.1 0-.2.1-.2.3 0 .2 0 .3-.2.4l-.4.1H16l-.1-.5c0-.2-.1-.3-.3-.3h-3.1l-.2-.5v-.3c0-.2 0-.4.2-.5h.4zm11.2-3.6h-4.2c-1.6 0-2.8-.4-3.6-1a3.3 3.3 0 0 1-1.2-2.7c0-1 .4-2 1.2-2.6.8-.7 2-1 3.6-1h1.4l.4.1.2.5v5.2h2.7c1 0 1.7-.1 2.2-.5s.7-1 .7-1.7a2 2 0 0 0-.6-1.5c-.4-.4-1-.6-1.7-.7a1.3 1.3 0 0 1-.5 0l-.2-.4v-.4l.1-.4.4-.1c1 0 1.9.3 2.7 1 .7.5 1.1 1.4 1.1 2.5 0 1.2-.4 2-1.1 2.7-.8.6-2 1-3.6 1zm-4.8-1.4h.7l.5-.1v-3.8-.5h-1.2c-1 0-1.7.1-2.2.5a2 2 0 0 0-.7 1.6 2 2 0 0 0 .7 1.7c.5.4 1.2.6 2.2.6zm-2.5-12.3l-.2.7c0 .6.3 1 1 1.2l1.8.2H28.5l.1.5v.3l-.1.4-.4.2H15.7c-.2 0-.4 0-.4-.2l-.2-.4v-.3c0-.2 0-.3.2-.4l.4-.1h.3a2.8 2.8 0 0 1-.9-2c0-.3 0-.4.2-.5h1.3c.1.1.1.2 0 .4zm11.4-8.4h-8.9c-2 0-2.9.7-2.9 2.1s1 2.1 3 2.1H28l.4.1.1.5v.3l-.1.4-.4.1H15.7l-.4-.1-.2-.4v-.3l.1-.5h1a2.5 2.5 0 0 1-1.2-2.2 2.9 2.9 0 0 1 1.1-2.6c.8-.6 2-.9 3.7-.9H28l.4.1.1.4v.4l-.1.4-.4.1zm-4.1-4.2h-4.2c-1.6 0-2.8-.4-3.6-1a3.3 3.3 0 0 1-1.2-2.7c0-1 .4-2 1.2-2.6.8-.6 2-1 3.6-1h1.4l.4.1.2.5v5.2h2.7c1 0 1.7-.1 2.2-.5s.7-1 .7-1.7a2 2 0 0 0-.6-1.5c-.4-.4-1-.6-1.7-.6a1.3 1.3 0 0 1-.5-.1l-.2-.4v-.4l.1-.4.4-.1c1 0 1.9.3 2.7 1 .7.5 1.1 1.4 1.1 2.5 0 1.2-.4 2-1.1 2.7-.8.6-2 1-3.6 1zm-4.8-1.4h.7l.5-.1v-3.8-.5h-1.2c-1 0-1.7.1-2.2.5a2 2 0 0 0-.7 1.6 2 2 0 0 0 .7 1.7c.5.4 1.2.6 2.2.6z"/>
  <path fill="#FFF" d="M222.1 119.5h-.1c-.2 0-.4-.1-.4-.3l-2-8.4-.2-.1V119.5h-1v-13.5-.4h.4c.3 0 .4 0 .4.2l2.8 11.4h.1l2.8-11.4c0-.2.2-.2.4-.2h.4v13.9H224.8V110.8l-.2-.1-2 8.5c-.1.2-.2.3-.5.3zm5.9-3.5V113c0-1.2.2-2 .7-2.7s1.1-.8 2-.8c.8 0 1.4.3 1.9.8s.7 1.5.7 2.7v1.4h-3.9l-.3.1-.1.4v1.6c0 .8.1 1.3.4 1.6.3.4.7.6 1.2.6s.9-.2 1.2-.5c.3-.3.4-.7.5-1.3v-.4H233.2v.3a3.4 3.4 0 0 1-.6 2c-.5.6-1.1.8-2 .8-.8 0-1.4-.3-2-.8s-.6-1.5-.6-2.7zm1-3.5v.9H232.3v-.9c0-.7 0-1.3-.4-1.6-.3-.4-.7-.6-1.2-.6s-.9.2-1.2.6-.4.9-.4 1.6zm10.7 6.6v-6.6c0-1.4-.5-2.2-1.6-2.2s-1.5.8-1.5 2.2v6.6l-.1.3H235.6v-9.5-.4H236.5v.7c.4-.5 1-.8 1.7-.8.8 0 1.4.2 1.8.8s.7 1.5.7 2.7v6.5H239.7l-.1-.3zm5.8-8.8c-1 0-1.4.6-1.6 1.8a1 1 0 0 1 0 .4H243v-.3c0-.8.2-1.4.6-2 .4-.5 1-.8 1.9-.8 1.7 0 2.6 1.1 2.6 3.5v5l.2 1.2c0 .2 0 .4-.4.4h-.4c-.1 0-.2 0-.3-.2l-.1-.5c-.5.5-1.1.7-1.9.7a2.4 2.4 0 0 1-1.8-.6c-.4-.5-.6-1.2-.6-2v-.6c0-.6.1-1.1.4-1.5.3-.4.6-.7 1-.9l1.3-.5 1.1-.5c.3-.2.5-.4.5-.7 0-.5-.2-1-.4-1.3-.3-.4-.7-.6-1.2-.6zm.1 8.3c.5 0 .9-.2 1.1-.5.3-.3.4-.8.4-1.5v-3l-1 .5-1 .3c-1 .5-1.4 1.2-1.3 2.2 0 1.4.6 2 1.8 2zm7.3 1c-.8 0-1.5-.3-2-1s-.7-1.4-.7-2.6V113c0-1.2.3-2 .7-2.7s1.2-.8 2-.8c.9 0 1.5.3 2 .8.4.6.6 1.3.6 2v.3h-.7-.2v-.4a2.1 2.1 0 0 0-.6-1.3 1.4 1.4 0 0 0-1.1-.5c-.5 0-.9.2-1.2.6s-.4.9-.4 1.6v4c0 .7.1 1.2.4 1.5.3.4.7.6 1.2.6s.9-.2 1.1-.5c.3-.3.5-.7.5-1.3l.1-.4H255.5v.3a3.4 3.4 0 0 1-.7 2c-.4.6-1 .8-1.9.8zm4.6-3.6V113c0-1.2.3-2 .7-2.7s1.2-.8 2-.8 1.5.3 2 .8.7 1.5.7 2.7v1l-.1.4H259l-.4.1v2c0 .8.1 1.3.4 1.6.3.4.7.6 1.2.6s.9-.2 1.1-.5c.3-.3.5-.7.5-1.3l.1-.4h.8l.1.3a3.4 3.4 0 0 1-.7 2c-.4.6-1 .8-1.9.8-.8 0-1.5-.3-2-.8s-.7-1.5-.7-2.7zm1-3.5v.5l.1.4H261.8v-.9c0-.7-.1-1.3-.4-1.6-.3-.4-.7-.6-1.2-.6s-.9.2-1.2.6c-.3.3-.4.9-.4 1.6zm11-.8l-.1.3h-.5c-.2 0-.3 0-.4-.3 0-.4-.1-.7-.4-1a1.2 1.2 0 0 0-1-.4c-.3 0-.6.2-.9.4s-.4.6-.4 1c0 .3.2.6.5 1l1 1 1.1.8c.4.4.8.7 1 1.2.3.4.4.8.4 1.3a2.4 2.4 0 0 1-.8 1.8c-.6.5-1.2.7-1.9.7s-1.3-.2-1.8-.7c-.5-.5-.8-1.1-.8-1.8v-.3l.3-.1h.3c.2 0 .4.1.4.4 0 .5.2.9.5 1.2.3.2.7.4 1.1.4a1.6 1.6 0 0 0 1.6-1.7c0-.4-.2-.8-.6-1.3a7 7 0 0 0-1.3-1.1 6.4 6.4 0 0 1-1.4-1.2 2.4 2.4 0 0 1-.6-1.6c0-.6.2-1.2.7-1.6s1-.7 1.6-.7c.7 0 1.2.2 1.7.6.4.4.7 1 .7 1.7zM219 131v12.2c.2.7.7 1 1.5 1.2h.3l.1.4v.4l-.4.1c-.9 0-1.5-.3-2-.8-.3-.6-.6-1.4-.6-2.5v-11c0-1.1.2-2 .7-2.5.4-.5 1-.8 1.9-.8h.3l.1.4v.4l-.4.1c-.5 0-.9.3-1.2.6l-.2.6-.1 1.2zm3.2-1v-.1l.1-.3.3-.1h5.5l.1.4v.4l-.4.1h-2V143.2l-.2.3h-.8l-.1-.3v-12.3-.3h-2.1c-.2 0-.3-.1-.3-.2l-.1-.3zm11.9 13v-6.5c0-1.5-.6-2.2-1.6-2.2s-1.6.7-1.6 2.2V143.4H230l-.1-.3v-13.2-.3l.4-.1h.5l.1.4v4.3c.4-.5 1-.8 1.6-.8.8 0 1.5.2 2 .8s.6 1.5.6 2.7v6.5H234.2l-.1-.3zm5.8-8.4a3 3 0 0 0-.5-.1c-.4 0-.7.2-.8.7a6.7 6.7 0 0 0-.2 1.3V143.4H237.6l-.1-.3v-9.2l.1-.3.3-.1H238.5V134.2a2 2 0 0 1 1.5-.6h.3l.1.4v.7h-.4zm1.5 5.4V137c0-1.2.3-2 .7-2.6.5-.6 1.2-1 2-1s1.5.4 2 1c.4.5.7 1.4.7 2.6v1l-.1.4H243l-.4.1v2c0 .8.1 1.3.4 1.7.3.3.7.5 1.2.5s.9-.2 1.1-.5c.3-.3.5-.7.5-1.3l.1-.4h.8l.1.3a3.4 3.4 0 0 1-.7 2c-.4.6-1 .8-1.9.8a2.4 2.4 0 0 1-2-.8c-.4-.6-.7-1.5-.7-2.7zm1-3.5v.5l.1.4H245.8v-.9c0-.7-.1-1.3-.4-1.6s-.7-.6-1.2-.6-.9.2-1.2.6c-.3.3-.4.9-.4 1.6zm9-2.2c-.9 0-1.4.6-1.5 1.8a1 1 0 0 1 0 .4H249l-.1-.3c0-.7.2-1.4.6-2 .4-.5 1-.8 2-.8 1.7 0 2.6 1.2 2.6 3.5v5l.1 1.2c.1.2 0 .4-.4.4h-.3c-.1 0-.2 0-.3-.2a1.5 1.5 0 0 1-.1-.5c-.5.5-1.1.7-1.9.7s-1.4-.2-1.8-.6-.7-1.2-.7-2v-.6c0-.6.2-1.1.5-1.5.3-.4.6-.7 1-.9l1.3-.5 1-.5c.4-.2.5-.4.5-.7 0-.5-.1-1-.4-1.3-.2-.4-.6-.6-1.1-.6zm.2 8.3c.5 0 .8-.2 1-.5s.4-.8.4-1.5v-3l-1 .5-.9.3c-1 .5-1.4 1.2-1.3 2.2 0 1.4.6 2 1.8 2zm5.8-10.9v2c0 .2 0 .2.2.2h.4l.3.1v.8l-.3.1h-.4c-.1 0-.2 0-.2.2v5.3l.1 1.5c0 .4.3.6.6.6l.3.1.1.3v.5h-.4c-.7 0-1.2-.2-1.4-.7a4.2 4.2 0 0 1-.3-1.2V135c0-.1 0-.2-.2-.2h-.3l-.1-.4v-.2-.3h.4c.1 0 .2-.1.2-.3v-2-.3H257.5l.1.3zm7.3 4v.3H264.2c-.2 0-.3 0-.3-.3 0-.4-.2-.7-.4-1s-.6-.4-1-.4c-.3 0-.7.2-1 .4s-.3.6-.3 1c0 .3.1.7.4 1l1 1 1.2.8 1 1.2c.2.4.4.8.3 1.3a2.4 2.4 0 0 1-.8 1.8c-.5.5-1.1.7-1.8.7-.8 0-1.4-.2-1.9-.7-.5-.5-.7-1.1-.8-1.8l.1-.3.3-.1h.2c.3 0 .4.1.4.4 0 .5.3.9.6 1.1.3.3.7.5 1 .5a1.6 1.6 0 0 0 1.7-1.7c0-.4-.2-.8-.6-1.3a7 7 0 0 0-1.4-1.1 6.3 6.3 0 0 1-1.3-1.2 2.4 2.4 0 0 1-.6-1.6c0-.6.2-1.2.6-1.6.5-.5 1-.7 1.7-.7s1.2.2 1.6.6c.5.4.7 1 .7 1.7zm3.7 6.3v-11l-.1-1.2c-.1-.7-.6-1-1.4-1.2h-.4v-.5-.3l.4-.1c.8 0 1.5.3 1.9.8.4.6.6 1.4.6 2.5v11c0 1.1-.2 2-.6 2.5-.4.5-1 .8-2 .8h-.2l-.2-.4v-.1l.1-.3.4-.1a1.4 1.4 0 0 0 1.4-1.2V142zM85.8 352.7h-.3l-.3-.1V339v-.3l.3-.1H90v.8l-.3.1h-3.4V344.9H89.3v.9H86.6l-.4.1v6.4l-.1.4h-.3zm5.5-3.5v-3c0-1.3.3-2.1.8-2.7s1.1-.9 2-.9c.8 0 1.4.3 1.9.9s.7 1.4.7 2.6v3.1c0 1.2-.2 2.1-.7 2.7s-1.2.9-2 .9-1.5-.3-2-1-.7-1.4-.7-2.6zm4.4.5v-4c0-.7-.2-1.3-.5-1.6s-.7-.5-1.2-.5-.9.1-1.2.5c-.3.3-.4.9-.4 1.6v4c0 .7.1 1.2.4 1.6.3.3.7.5 1.2.5s1-.2 1.2-.5c.3-.4.5-1 .5-1.6zm5.7-5.9h-.5c-.4 0-.7.1-.8.6l-.2 1.4v6.8H99l-.1-.3V343l.1-.3.3-.1h.5l.1.4v.2a2 2 0 0 1 1.5-.6h.3l.1.4v.7h-.4zm4.2 9c-.8 0-1.5-.3-2-1s-.7-1.4-.7-2.6v-3c0-1.3.3-2.1.7-2.7s1.2-.9 2-.9c.9 0 1.5.3 2 .9.4.5.6 1.2.6 2v.2h-.7-.2v-.4c-.1-.5-.3-1-.6-1.3a1.4 1.4 0 0 0-1.1-.4c-.5 0-.9.1-1.2.5-.3.3-.4.9-.4 1.6v4c0 .7.1 1.2.4 1.6.3.3.7.5 1.2.5s.9-.2 1.1-.5c.3-.3.5-.7.5-1.2l.1-.4.2-.1h.7v.3a3.4 3.4 0 0 1-.7 2c-.4.6-1 .9-1.9.9zm4.6-3.6v-3c0-1.3.3-2.1.7-2.7s1.2-.9 2-.9 1.5.3 2 .9.7 1.4.7 2.6v1.1l-.1.3-.3.1h-3.9v2.1c0 .7.1 1.2.4 1.6.3.3.7.5 1.2.5s.9-.2 1.1-.5c.3-.3.5-.7.5-1.2l.1-.4.2-.1h.7v.3a3.4 3.4 0 0 1-.7 2c-.4.6-1 .9-1.9.9-.8 0-1.5-.3-2-1s-.7-1.4-.7-2.6zm1-3.5v.5l.1.4H114.5v-.9c0-.7-.1-1.3-.4-1.6s-.7-.5-1.2-.5-.9.1-1.2.5c-.3.3-.4.9-.4 1.6zm11-.8l-.1.3h-.5c-.2 0-.3 0-.4-.3 0-.3-.1-.7-.4-1a1.2 1.2 0 0 0-1-.3c-.3 0-.6 0-.9.3s-.4.6-.4 1c0 .3.2.7.4 1l1 1 1.2.9 1 1c.3.5.4 1 .4 1.4a2.4 2.4 0 0 1-.8 1.8c-.6.5-1.2.8-1.9.8s-1.3-.3-1.8-.8-.8-1-.8-1.8v-.3l.3-.1h.3c.2 0 .4.1.4.4 0 .5.2.9.5 1.2.3.3.7.4 1.1.4a1.6 1.6 0 0 0 1.6-1.6c0-.5-.2-1-.6-1.3l-1.3-1.2a6.3 6.3 0 0 1-1.4-1.2 2.4 2.4 0 0 1-.6-1.6c0-.6.2-1.2.7-1.6.4-.5 1-.7 1.6-.7.7 0 1.2.2 1.7.6.4.4.7 1 .7 1.7zm-49.5 19.3v11l.1 1.2c.2.7.6 1 1.4 1.2h.3l.1.4v.5h-.3c-1 0-1.6-.3-2-.8-.4-.5-.6-1.4-.6-2.5v-11c0-1.1.2-1.9.6-2.4.4-.6 1-.9 2-.9h.2l.1.4v.5h-.3c-.5 0-1 .3-1.2.7l-.3.5v1.2zm3.4 9.6c0-.4.1-.6.3-.6h.4c.2 0 .4.2.4.5a2.1 2.1 0 0 0 2.1 2.1 2 2 0 0 0 1.7-.8 2.3 2.3 0 0 0 .5-1.8 3 3 0 0 0-.5-1.2l-.7-1a23 23 0 0 0-1-1l-.2-.2-.1-.1-.3-.2-.3-.3-.6-.7a1.6 1.6 0 0 1-.1 0l-.2-.3-.2-.2a3.8 3.8 0 0 1-.9-2.2c0-.9.2-1.6.7-2.3a2.7 2.7 0 0 1 2.2-.9c.7 0 1.3.3 1.9.8.5.5.8 1.1.9 2 0 .2-.2.3-.5.3h-.1c-.3 0-.4-.1-.4-.3 0-.5-.2-1-.6-1.3a1.7 1.7 0 0 0-1.3-.5c-.5 0-1 .2-1.3.5a2 2 0 0 0-.5 1.6c0 .5.2 1 .5 1.4l1.6 1.7a29 29 0 0 1 2.4 2.7c.3.5.5 1 .6 1.6 0 1-.2 1.8-.8 2.6a3 3 0 0 1-2.4 1 3.1 3.1 0 0 1-2.2-.8c-.6-.6-1-1.3-1-2.1zm9.3-8.9v2c0 .2 0 .3.2.3h.7v.8l-.3.1h-.4c-.1 0-.2 0-.2.2v6.8c.2.4.4.6.7.6l.3.1.1.3v.5H86c-.7 0-1.2-.2-1.4-.7a4.2 4.2 0 0 1-.3-1.2 21.5 21.5 0 0 1 0-1.7v-4.7l-.2-.2h-.3l-.1-.4v-.1-.4h.4l.2-.2v-2-.4H85.4l.1.3zm5.4 3l-.4-.2c-.5 0-.8.2-1 .7v7.9l-.1.3H88.4V367v-.3l.3-.1h.6V367.4a2 2 0 0 1 1.5-.6h.4v1.1h-.3zm1.5 5.3v-3c0-1.3.3-2.1.8-2.7s1.1-.9 2-.9c.8 0 1.4.3 1.9.9s.7 1.4.7 2.6V371.5l-.4.1h-3.9v2.1c0 .7.1 1.2.4 1.6.3.3.7.5 1.2.5s.9-.2 1.2-.5c.2-.3.4-.7.4-1.2l.1-.4.3-.1h.6v.3a3.4 3.4 0 0 1-.6 2c-.5.6-1.1.9-2 .9-.8 0-1.5-.3-2-1s-.7-1.4-.7-2.6zm1-3.5v.5l.1.4H96.6v-.9c0-.7 0-1.3-.4-1.6s-.7-.5-1.2-.5-.9.1-1.2.5c-.3.3-.4.9-.4 1.6zm10.8 6.6v-6.6c0-1.4-.6-2.1-1.6-2.1s-1.6.7-1.6 2.1V376.6H100l-.1-.3V367l.1-.3.3-.1h.5l.1.4v.4c.4-.6 1-.9 1.6-.9.8 0 1.5.2 2 .8.4.6.6 1.5.6 2.7v6.5H104.1l-.1-.3zm7.3 1v-1.4c-.4.6-1 .9-1.6.9-.8 0-1.4-.3-1.9-.9-.5-.5-.7-1.4-.7-2.7v-3c0-1.3.2-2.2.7-2.8a2.2 2.2 0 0 1 1.9-.8 2 2 0 0 1 1.6.8v-.3-.3l.4-.1h.5l.1.4v9.7c0 1.2-.2 2-.7 2.7s-1.1.8-2 .8c-1.3 0-2-.6-2.4-1.9 0-.1 0-.3.2-.3l.4-.2c.1 0 .2 0 .3.2.2.9.7 1.3 1.5 1.3.5 0 1-.2 1.2-.5.3-.4.5-1 .5-1.7zm-3.1-7.6v4c0 1.4.5 2.1 1.5 2.1s1.6-.7 1.6-2.1v-4c0-1.4-.5-2.1-1.6-2.1s-1.5.7-1.5 2.1zm7.5-4.8v2c0 .2.1.3.2.3h.7l.1.3v.5l-.4.1h-.4s-.2 0-.2.2v5.3l.1 1.5c.1.4.3.6.7.6l.3.1v.8h-.3c-.8 0-1.2-.2-1.5-.7a4.2 4.2 0 0 1-.3-1.2 21.5 21.5 0 0 1 0-1.7v-4.7c0-.1 0-.2-.2-.2h-.3l-.1-.4v-.1l.1-.4h.3l.2-.2v-2l.1-.4h.8l.1.3zm7.1 11.4v-6.6c0-1.4-.5-2.1-1.5-2.1s-1.6.7-1.6 2.1V376.6H118.8l-.1-.3V363v-.3l.4-.1h.5l.1.4v4.4c.4-.6 1-.9 1.6-.9.8 0 1.4.2 1.9.8.4.6.7 1.5.7 2.7v6.2l-.1.3H123v-.3zm7.8-7.4l-.1.3h-.5c-.2 0-.4 0-.4-.3s-.2-.7-.4-1a1.2 1.2 0 0 0-1-.3c-.3 0-.6 0-.9.3s-.4.6-.4 1c0 .3.2.7.4 1l1 1 1.2.9 1 1c.2.5.4 1 .4 1.4a2.4 2.4 0 0 1-.9 1.8c-.5.5-1 .8-1.8.8-.7 0-1.4-.3-1.9-.8s-.7-1-.7-1.8v-.3l.3-.1h.3c.2 0 .3.1.4.4 0 .5.2.9.5 1.2.3.3.7.4 1.1.4a1.6 1.6 0 0 0 1.6-1.6c0-.5-.2-1-.6-1.3-.4-.5-.9-.9-1.4-1.2a6.3 6.3 0 0 1-1.3-1.2 2.4 2.4 0 0 1-.6-1.6c0-.6.2-1.2.7-1.6.4-.5 1-.7 1.6-.7.6 0 1.2.2 1.6.6.5.4.7 1 .8 1.7zm3.6 6.4v-11.1l-.1-1.2c-.1-.6-.6-1-1.4-1.1l-.3-.1-.1-.3v-.2-.3l.4-.1c.9 0 1.5.3 2 .9.3.5.5 1.3.5 2.4v11c0 1.1-.2 2-.6 2.5-.4.5-1 .8-2 .8h-.2l-.1-.4v-.1-.3l.4-.1a1.4 1.4 0 0 0 1.4-1.2l.1-1.1z"/>
  <path fill="#00659C" d="M214.2 352.7h-.2l-.3-.1-.1-.3V339v-.3l.4-.1h4.3l.1.4v.4l-.4.1h-3.3V344.9h3v.9H215l-.3.1v6.4l-.2.4h-.3zm8.3-9.1c-1 0-1.5.5-1.6 1.7a1 1 0 0 1 0 .4H220v-.3c0-.7.1-1.4.6-2 .4-.5 1-.8 1.9-.8 1.7 0 2.6 1.2 2.6 3.5v5l.2 1.2c0 .2-.1.4-.4.4h-.4l-.3-.1-.1-.6c-.5.5-1.1.8-1.9.8a2.4 2.4 0 0 1-1.8-.7c-.4-.5-.7-1.2-.7-2v-.6c0-.6.2-1.1.5-1.5.3-.4.6-.7 1-.9l1.3-.5 1.1-.5c.3-.2.4-.4.4-.7 0-.5 0-1-.4-1.3-.2-.4-.6-.5-1.1-.5zm.1 8.2c.5 0 .9-.2 1.1-.5.2-.3.4-.8.4-1.4v-3l-1 .4-1 .4c-1 .4-1.4 1.1-1.3 2.1 0 1.4.6 2 1.8 2zm5.3-10c-.2 0-.4-.1-.5-.3v-.7c0-.2.3-.3.5-.3.3 0 .5.1.6.3s0 .4 0 .7c-.1.2-.3.3-.6.3zm.5 1.3v9.5H227.4l-.1-.3V343l.1-.3.3-.1h.5l.1.4zm2.4 9.2V339l.1-.3.3-.1h.6V343.6c.5-.6 1-.9 1.7-.9.8 0 1.4.2 1.9.8s.6 1.5.6 2.7v3.1c0 1.2-.2 2.1-.6 2.7s-1.1.9-2 .9a2 2 0 0 1-1.5-.9v.4l-.1.3H230.9v-.3zm4.2-2.6v-4c0-1.4-.5-2.1-1.6-2.1s-1.5.7-1.5 2.1v4c0 1.4.5 2.1 1.5 2.1s1.6-.7 1.6-2.1zm4.9 2l.3.1.1.3v.5h-.4c-.7 0-1.2-.2-1.4-.7a4.2 4.2 0 0 1-.3-1.2V339v-.2l.3-.1h.6v10.9l.2 1.5c0 .4.3.6.6.6zm2-2.5v-3c0-1.3.2-2.1.7-2.7a2.4 2.4 0 0 1 2-.9c.8 0 1.5.3 2 .9.4.6.7 1.4.7 2.6v1.1l-.1.3-.3.1H243v2.1c0 .7 0 1.2.4 1.6.3.3.7.5 1.2.5s.8-.2 1.1-.5c.3-.3.5-.7.5-1.2v-.4l.3-.1h.6l.1.3a3.4 3.4 0 0 1-.7 2c-.4.6-1 .9-2 .9-.8 0-1.4-.3-1.9-1-.5-.5-.7-1.4-.7-2.6zm1-3.5v.9h3.3v-.9c0-.7-.1-1.3-.4-1.6s-.7-.5-1.2-.5-1 .1-1.2.5-.5.9-.5 1.6zm11-.8l-.1.3h-.5c-.2 0-.4 0-.4-.3s-.2-.7-.4-1a1.2 1.2 0 0 0-1-.3c-.3 0-.6 0-.9.3s-.4.6-.4 1c0 .3.2.7.4 1l1 1 1.2.9 1 1c.2.5.4 1 .4 1.4a2.4 2.4 0 0 1-.9 1.8c-.5.5-1 .8-1.8.8s-1.4-.3-1.9-.8-.7-1.1-.7-1.8v-.3l.3-.1h.3c.2 0 .3.1.4.4 0 .5.2.9.5 1.2.3.2.7.4 1.1.4a1.6 1.6 0 0 0 1.6-1.6c0-.5-.2-1-.6-1.3a7 7 0 0 0-1.4-1.2 6.4 6.4 0 0 1-1.3-1.2 2.4 2.4 0 0 1-.6-1.6c0-.6.2-1.2.7-1.6s1-.7 1.6-.7a2.3 2.3 0 0 1 2.4 2.3zm6.5 0l-.1.3h-.5c-.2 0-.3 0-.4-.3 0-.3-.1-.7-.4-1a1.2 1.2 0 0 0-1-.3c-.3 0-.6 0-.9.3s-.4.6-.4 1c0 .3.2.7.5 1l1 1 1.1.9 1 1c.3.5.4 1 .4 1.4a2.4 2.4 0 0 1-.8 1.8c-.6.5-1.2.8-1.9.8s-1.3-.3-1.8-.8-.8-1.1-.8-1.8v-.3l.3-.1h.3c.2 0 .4.1.4.4 0 .5.2.9.5 1.2.3.2.7.4 1.1.4a1.6 1.6 0 0 0 1.6-1.6c0-.5-.2-1-.6-1.3a7 7 0 0 0-1.3-1.2 6.4 6.4 0 0 1-1.4-1.2 2.4 2.4 0 0 1-.6-1.6c0-.6.2-1.2.7-1.6s1-.7 1.6-.7c.7 0 1.2.2 1.7.6.4.4.7 1 .7 1.7zm1.9 4.3v-3c0-1.3.2-2.1.7-2.7.5-.6 1.2-.9 2-.9s1.5.3 2 .9c.4.6.7 1.4.7 2.6v1.1l-.1.3-.3.1h-3.9v2.1c0 .7 0 1.2.4 1.6.3.3.7.5 1.2.5s.8-.2 1.1-.5c.3-.3.5-.7.5-1.2v-.4l.3-.1h.6l.1.3a3.4 3.4 0 0 1-.7 2c-.4.6-1 .9-2 .9a2.4 2.4 0 0 1-1.9-1c-.5-.5-.7-1.4-.7-2.6zm1-3.5v.9h3.3v-.9c0-.7-.1-1.3-.4-1.6s-.7-.5-1.2-.5-1 .1-1.2.5c-.3.3-.5.9-.5 1.6zm11-.8l-.1.3h-.5c-.2 0-.4 0-.4-.3s-.2-.7-.4-1-.6-.3-1-.3-.6 0-.9.3-.4.6-.4 1c0 .3.2.7.4 1l1 1 1.2.9 1 1c.3.5.4 1 .4 1.4a2.4 2.4 0 0 1-.9 1.8c-.5.5-1 .8-1.8.8-.7 0-1.4-.3-1.9-.8s-.7-1.1-.7-1.8v-.3l.3-.1h.3c.2 0 .3.1.4.4 0 .5.2.9.5 1.2.3.2.7.4 1.1.4a1.6 1.6 0 0 0 1.6-1.6c0-.5-.2-1-.6-1.3a7 7 0 0 0-1.4-1.2 6.3 6.3 0 0 1-1.3-1.2 2.4 2.4 0 0 1-.6-1.6c0-.6.2-1.2.7-1.6.4-.5 1-.7 1.6-.7.6 0 1.2.2 1.6.6.5.4.7 1 .8 1.7zm-70.4 19.3v11l.1 1.2c.2.7.6 1 1.4 1.2h.3l.1.4v.5h-.4c-.9 0-1.5-.3-2-.8-.3-.5-.5-1.4-.5-2.5v-11c0-1.1.2-1.9.6-2.4.4-.6 1-.9 2-.9h.2l.1.4v.5h-.4c-.5 0-.9.3-1.2.7l-.2.5v1.2zm8.6-1.5h.3c.2 0 .4 0 .4.3l1.4 10.5v.1h.2l2-10.6v-.2a.3.3 0 0 1 .2-.1h.7v.3l-2.4 13.3-.1.3H214.3l-.1-.3-1.4-9.8-.1-.1-.2.1-1.4 9.8-.1.3H210l-.1-.3-2.5-13.3v-.2l.3-.1h.6l.1.3 2 10.6h.2L212 363c0-.2.2-.3.4-.3zm6.3 10.5v-3c0-1.3.2-2.1.7-2.7s1.1-.9 2-.9c.8 0 1.4.3 2 .9s.6 1.4.6 2.6V371.5l-.4.1H220v2.1c0 .7 0 1.2.3 1.6.4.3.8.5 1.3.5.4 0 .8-.2 1-.5.4-.3.5-.7.6-1.2v-.4l.3-.1h.6v.3a3.4 3.4 0 0 1-.6 2c-.4.6-1 .9-2 .9-.8 0-1.4-.3-2-1s-.6-1.4-.6-2.6zm1-3.5v.9H223v-.9c0-.7 0-1.3-.3-1.6-.3-.4-.7-.5-1.2-.5s-1 .1-1.2.5-.5.9-.5 1.6zm9-2.1c-1 0-1.4.5-1.6 1.7a1 1 0 0 1 0 .4H226.3v-.3c0-.7.2-1.4.6-2 .4-.5 1-.8 2-.8 1.7 0 2.5 1.2 2.5 3.5v5l.2 1.2c0 .2 0 .4-.4.4h-.4l-.3-.1v-.6c-.6.5-1.2.8-2 .8a2.4 2.4 0 0 1-1.8-.7c-.4-.5-.6-1.2-.6-2v-.6c0-.6.1-1.1.4-1.5l1-.9 1.3-.5 1.1-.5c.3-.2.5-.4.5-.7 0-.5-.2-1-.4-1.3-.3-.4-.7-.5-1.2-.5zm.1 8.2c.5 0 .9-.2 1.1-.5.3-.3.4-.8.4-1.4v-3l-1 .4-1 .4c-1 .4-1.4 1.1-1.3 2.1 0 1.4.6 2 1.8 2zm5.5.9h-.3l-.3-.1V363v-.3l.3-.1h.6v9.1l2.7-4.7v-.3a.3.3 0 0 1 .2 0 .5.5 0 0 1 .2-.1h.4c.3 0 .4.1.2.4l-2 3.7 2.1 5.5c.1.2 0 .4-.3.4h-.6s0-.3-.2-.4l-1.7-4.5-1 1.7V376.6h-.3zm10.1-.4v-6.6c0-1.4-.5-2.1-1.6-2.1s-1.5.7-1.5 2.1v6.6l-.1.3H240.4V367v-.3l.3-.1h.6l.1.4v.4c.4-.6 1-.9 1.6-.9.8 0 1.4.2 1.9.8.4.6.6 1.5.6 2.7v6.5H244.6v-.3zm3.2-3V370c0-1.2.2-2 .7-2.6s1.1-.9 2-.9c.8 0 1.4.3 1.9.9s.7 1.4.7 2.6V371.5l-.4.1h-3.9v2.1c0 .7.1 1.2.4 1.6.3.3.7.5 1.2.5s.9-.2 1.2-.5c.2-.3.4-.7.4-1.2l.1-.4.3-.1h.6v.3a3.4 3.4 0 0 1-.6 2c-.5.6-1.1.9-2 .9-.8 0-1.5-.3-2-1s-.7-1.4-.7-2.6zm1-3.6v.9H252v-.9c0-.7 0-1.3-.4-1.6-.3-.4-.7-.5-1.2-.5s-.9.1-1.2.5c-.3.3-.4.9-.4 1.6zm11-.8l-.2.3h-.5c-.2 0-.3 0-.3-.3s-.2-.7-.5-1a1.2 1.2 0 0 0-1-.3c-.3 0-.6 0-.8.3s-.4.6-.4 1c0 .3.1.7.4 1l1 1 1.2.9 1 1 .3 1.4a2.4 2.4 0 0 1-.8 1.8c-.5.5-1.1.8-1.8.8-.8 0-1.4-.3-2-.8-.4-.5-.7-1.1-.7-1.8v-.3l.4-.1h.2c.3 0 .4.1.4.4 0 .5.2.9.6 1.2.3.2.6.4 1 .4a1.6 1.6 0 0 0 1.7-1.6c0-.5-.2-1-.6-1.3a7 7 0 0 0-1.4-1.2 6.4 6.4 0 0 1-1.3-1.2 2.4 2.4 0 0 1-.7-1.6 2.4 2.4 0 0 1 2.3-2.3c.7 0 1.2.2 1.7.6.4.4.7 1 .7 1.7zm6.4 0v.3H265.4c-.2 0-.3 0-.3-.3s-.2-.7-.5-1-.5-.3-.9-.3-.7 0-1 .3-.3.6-.3 1c0 .3.1.7.4 1l1 1 1.2.9 1 1c.2.5.4 1 .3 1.4a2.4 2.4 0 0 1-.8 1.8 2.5 2.5 0 0 1-3.7 0c-.5-.5-.8-1.1-.8-1.8l.1-.3.3-.1h.2c.3 0 .4.1.4.4 0 .5.3.9.6 1.2.3.2.6.4 1 .4a1.6 1.6 0 0 0 1.7-1.6c0-.5-.2-1-.6-1.3a7 7 0 0 0-1.4-1.2 6.3 6.3 0 0 1-1.3-1.2 2.4 2.4 0 0 1-.6-1.6c0-.6.2-1.2.6-1.6.5-.5 1-.7 1.7-.7.6 0 1.2.2 1.6.6.5.4.7 1 .7 1.7zm2 4.3v-3c0-1.3.2-2.1.7-2.7s1.1-.9 2-.9c.8 0 1.4.3 1.9.9s.7 1.4.7 2.6V371.5l-.4.1h-3.9v2.1c0 .7.1 1.2.4 1.6.3.3.7.5 1.2.5s.9-.2 1.2-.5c.3-.3.4-.7.5-1.2v-.4l.3-.1h.6v.3a3.4 3.4 0 0 1-.6 2c-.5.6-1.1.9-2 .9-.8 0-1.4-.3-2-1s-.6-1.4-.6-2.6zm1-3.5v.9H272.3v-.9c0-.7 0-1.3-.4-1.6-.3-.4-.7-.5-1.2-.5s-.9.1-1.2.5-.4.9-.4 1.6zm11-.8l-.2.3h-.5c-.2 0-.3 0-.3-.3s-.2-.7-.5-1-.6-.3-1-.3c-.3 0-.6 0-.8.3s-.4.6-.4 1c0 .3.1.7.4 1l1 1 1.2.9 1 1 .3 1.4a2.4 2.4 0 0 1-.8 1.8c-.5.5-1.1.8-1.8.8-.8 0-1.4-.3-2-.8-.4-.5-.7-1.1-.7-1.8v-.3l.4-.1h.2c.3 0 .4.1.4.4 0 .5.2.9.6 1.2.3.2.6.4 1 .4a1.6 1.6 0 0 0 1.7-1.6c0-.5-.2-1-.6-1.3a7 7 0 0 0-1.4-1.2 6.3 6.3 0 0 1-1.3-1.2 2.4 2.4 0 0 1-.7-1.6c0-.6.3-1.2.7-1.6.5-.5 1-.7 1.7-.7s1.1.2 1.6.6c.4.4.7 1 .7 1.7zm3.5 6.4v-11.1-1.2c-.2-.6-.7-1-1.5-1.1l-.3-.1v-.5-.3l.3-.1c1 0 1.6.3 2 .9s.6 1.3.6 2.4v11c0 1.1-.2 2-.6 2.5s-1 .8-2 .8h-.3v-.5-.3l.3-.1a1.4 1.4 0 0 0 1.4-1.2l.1-1.1z"/>
  <path fill="none" stroke="#00659C" stroke-miterlimit="10" stroke-width="2" d="M44 198h8m-8 27h8m-8 27h8m-8 27h8M183 198h8m-8 27h8m-8 27h8m-8 27h8M44 435h8m-8 27h8m-8 27h8m-8 27h8M183 435h8m-8 27h8m-8 27h8m-8 27h8"/>
</svg>
