<svg xmlns="http://www.w3.org/2000/svg" viewBox="0 0 320 568"><path fill="#00659C" d="M88.5 38c.6 0 1-.1 1.4-.5l.2-.6.1-1.7V21.8c0-.2 0-.3.2-.4l.4-.1h1.7l.4.1.1.4v13.3c0 2-.3 3.5-1 4.3-.7.9-2 1.3-3.5 1.3l-.5-.1v-2.4l.5-.1zm14.7 2.7h-5.9l-.4-.1-.1-.5V21.4l.5-.1h5.9l.4.1.1.4v1.5l-.1.5H100c-.3 0-.5.1-.5.2v5h3.5c.3 0 .4.1.5.2l.1.4v1.5l-.1.4-.4.2h-3.6V38h3.5c.3 0 .4.1.5.2l.1.4v1.5l-.1.5h-.4zm11.3-19.4h3.3c1.4 0 2.4.4 3.3 1.3s1.2 2.2 1.2 4v8.8c0 1.7-.4 3-1.2 4s-2 1.3-3.3 1.3h-3.3l-.4-.1-.1-.5V21.4l.5-.1zm2.2 3.1v13.1l.1.5h1c.5 0 1 0 1.2-.4s.5-.8.5-1.5V25.9c0-.7-.2-1.2-.5-1.5s-.7-.5-1.2-.5h-1v.5zm17.8 2v9.1c0 1.7-.4 3-1.3 4-.8.8-1.8 1.3-3.2 1.3s-2.4-.5-3.2-1.3-1.2-2.3-1.2-4v-9c0-1.8.4-3 1.2-4s1.9-1.3 3.2-1.3 2.4.4 3.2 1.3c.9 1 1.3 2.2 1.3 4zm-2.8 9.9V25.7c0-.8-.2-1.4-.8-1.8-.6-.3-1.2-.3-1.7 0-.6.4-.9 1-.8 1.8v10.6c0 .8.2 1.4.8 1.7.5.4 1.1.4 1.7 0 .6-.3.8-1 .8-1.7zm9.1-14.5v18.8h-2.6l-.1-.5V21.4l.5-.1h1.7l.4.1.1.4zm7.6 19c-1.3 0-2.3-.4-3.2-1.3-.8-1-1.3-2-1.2-3.2v-.5l.5-.2h1.7c.3 0 .5.3.5.7 0 .6.2 1 .5 1.4.2.4.7.5 1.2.5s.9-.1 1.2-.4.5-.7.5-1.2c.2-1.1-.4-2.5-1.8-4a22.4 22.4 0 0 1-1.1-1.4l-.6-.7a23.3 23.3 0 0 0-1.6-2.4 47.1 47.1 0 0 0-.6-1.7l-.1-.8a4 4 0 0 1 4-4.4 4 4 0 0 1 4 3.7v.7l-.5.1h-2l-.1-.5c0-.5-.1-.8-.4-1.1-.2-.2-.5-.4-1-.4s-.8.2-1 .6a2 2 0 0 0-.3 1.2c0 .7.4 1.5 1 2.3l1.8 2.4c.7.7 1.3 1.6 2 2.6.5 1 .9 2 1 3 .2 1.3-.2 2.4-1 3.5-.9 1-2 1.5-3.4 1.5zm20.6-.1h-5.8l-.4-.1-.2-.5V21.8c0-.2 0-.3.2-.4l.4-.1h1.7l.4.1.1.4V38h3.6l.5.2.1.4v1.5l-.1.5h-.5zm12.2 0h-1.6a2 2 0 0 1-.3 0l-.2-.1-.1-.3-.3-1.5c0-.3-.1-.5-.2-.5h-3.3l-.2.5-.2 1.5-.2.3H172v-.4l3.5-18.4c0-.2 0-.3.2-.4l.4-.1h1.9l.2.5 3.5 18.4v.4h-.5zm-4.5-12.4l-1 6.8c-.1.2-.1.4 0 .4l.4.1h2V35l-1.1-6.8h-.3zm16.8 12.4h-1.3c-.3 0-.4-.1-.5-.3L188 30h-.2v10.1l-.1.5h-2.5l-.2-.5V21.8c0-.2 0-.3.2-.4l.4-.1h1.2c.3 0 .5.1.6.4L191 32l.1.1h.1c.1 0 0 0 0-.1V21.8l.2-.4.4-.1h1.7l.4.1.1.4v18.8h-.5zm6.9-15v10.6c0 .8.2 1.4.8 1.7.6.4 1.2.4 1.7 0 .6-.3.9-1 .8-1.7V36c0-.2 0-.4.2-.5l.4-.1h1.6c.4 0 .6.2.6.7a5.1 5.1 0 0 1-1.4 3.4 4 4 0 0 1-3 1.2c-1.4 0-2.4-.5-3.2-1.3s-1.3-2.3-1.3-4v-9c0-1.8.4-3 1.3-4s1.8-1.3 3.2-1.3c1.2 0 2.2.4 3 1.1.8.8 1.3 2 1.4 3.5 0 .4-.2.7-.6.7h-1.6c-.2 0-.4 0-.4-.2l-.2-.4v-.2c0-.8-.2-1.4-.8-1.8-.5-.3-1.1-.3-1.7 0-.6.4-.8 1-.8 1.8zm16 15h-5.9l-.4-.1-.1-.5V21.4l.5-.1h5.9l.4.1.1.4v1.5l-.1.5h-3.5c-.3 0-.4.1-.5.2v5h3.5c.3 0 .4.1.5.2l.1.4v1.5l-.1.4-.4.2h-3.6V38h3.5c.3 0 .4.1.5.2l.1.4v1.5l-.1.5h-.4zm4.6-19.4h3.7c1.3 0 2.3.4 3 1.3.8.8 1.1 2.1 1.1 3.8v1c0 2.1-.5 3.6-1.7 4.4l1.7 8.3c.1.4 0 .6-.3.6h-2.1l-.2-.1v-.3l-1.5-7.5c0-.1-.1-.2-.3-.2h-1l-.1.5v7l-.1.5h-2.5l-.2-.5V21.8c0-.2 0-.3.2-.4l.4-.1zm3.7 2.4h-.9l-.4.1-.1.5V30h1.4c.9 0 1.4-.6 1.4-2v-2.4c0-1.3-.5-2-1.4-2zm-152.3 44V53.2l.1-.4.5-.1h1.6l.5.1V67c0 1.8-.3 3-1.1 4-.8.9-2 1.3-3.2 1.3-1.4 0-2.5-.4-3.3-1.3s-1.2-2.2-1.2-4V53.2l.1-.4.5-.1h1.6l.5.1v14.9c0 .8.3 1.4.9 1.7.6.4 1.1.4 1.7 0 .6-.3.9-1 .8-1.7zm15 4.3H86c-.3 0-.5 0-.5-.2l-3.7-10.4h-.2v10.1l-.1.5H79V52.8l.5-.1h1.2c.3 0 .5.1.6.4l3.6 10.3.1.1h.1c.1 0 0 0 0-.1V53.2l.2-.4.4-.1h1.7l.4.1.1.4v18.3l-.1.5h-.4zm19.6 0h-1.3c-.3 0-.5 0-.6-.2l-3.6-10.4h-.1s-.1-.1-.1 0v10.1l-.2.5h-2.5l-.1-.5V52.8l.5-.1h1.3c.3 0 .4.1.5.4l3.7 10.3v.1h.2V53.2l.1-.4.4-.1h1.7l.4.1.2.4v18.3c0 .2 0 .4-.2.5h-.4zm13-14.2V67a6 6 0 0 1-1.3 4c-.8.9-1.9 1.3-3.2 1.3s-2.4-.4-3.2-1.3-1.2-2.2-1.2-4v-9c0-1.8.4-3 1.2-4s1.9-1.3 3.2-1.3 2.4.4 3.2 1.3a6 6 0 0 1 1.2 4zm-2.8 9.9V57c0-.8-.2-1.4-.8-1.7-.6-.4-1.2-.4-1.8 0-.6.3-.8.9-.8 1.7v10.6c0 .8.2 1.4.8 1.7.6.4 1.2.4 1.8 0 .6-.3.8-1 .8-1.7zm12.3 0V53.2l.1-.4.4-.1h1.7l.4.1.2.4V67c0 1.8-.4 3-1.3 4-.8.9-1.8 1.3-3.2 1.3-1.3 0-2.4-.4-3.2-1.3s-1.2-2.2-1.2-4V53.2l.1-.4.4-.1h1.7l.4.1.2.4v14.5c0 .8.2 1.4.8 1.7.5.4 1.1.4 1.7 0 .6-.3.8-1 .8-1.7zm13.5-15h1.9l.1.1c0 .1.1.2 0 .4l-3.4 18.4-.2.4H139l-.1-.4-3.5-18.4v-.4l.5-.1h1.9l.2.1.1.3 2 12h.3l2-12v-.3h.3l.3-.1zM154.6 72h-6.2l-.2-.5V53.2c0-.2 0-.3.2-.4l.4-.1h5.8l.5.1.1.4v1.5l-.1.5-.5.1h-3.5v5.3h3.5c.3 0 .4.1.5.2l.1.4v1.5l-.1.4c-.1.1-.2.2-.5.2h-3.5v6.2h3.5c.3 0 .4.1.5.2l.1.4v1.5l-.1.5h-.5zm12.9 0H166a2 2 0 0 1-.3 0h-.2l-.1-.3-.3-1.5c0-.3-.1-.5-.2-.5h-3.3l-.2.5-.3 1.5v.3h-2.7v-.4l3.5-18.4c0-.2 0-.3.2-.4l.4-.1h1.9l.2.5 3.5 18.4v.4h-.5zM163 59.8l-1 6.8c-.1.2-.1.4 0 .4l.4.1h2v-.5l-1.1-6.8h-.3zm14.3 7.9V53.2l.1-.4.4-.1h1.7l.4.1.2.4V67c0 1.8-.4 3-1.3 4-.8.9-1.8 1.3-3.2 1.3-1.3 0-2.4-.4-3.2-1.3s-1.2-2.2-1.2-4V53.2l.1-.4.4-.1h1.7l.4.1.2.4v14.5c-.1.8.2 1.4.8 1.7.5.4 1.1.4 1.7 0 .6-.3.8-1 .8-1.7zm13.7-15h3.3c1.4 0 2.4.4 3.2 1.3s1.3 2.2 1.3 4v2.4c0 1.7-.4 3-1.3 3.9s-1.8 1.3-3.2 1.3h-.8c-.1 0-.2 0-.2.2v5.7c0 .4-.3.6-.6.6H191l-.4-.1-.2-.5V53.2c0-.2 0-.3.2-.4l.4-.1zm2.2 3.2V63h1.1c.5 0 1-.1 1.2-.5.3-.3.5-.8.5-1.5v-3.7c0-.7-.2-1.2-.5-1.5s-.7-.5-1.2-.5h-1v.6zm9.4-3.2h3.6c1.4 0 2.4.4 3.1 1.3.7.8 1.1 2.1 1.1 3.8v1c0 2.1-.6 3.6-1.7 4.5l1.7 8.2c0 .4 0 .6-.4.6h-2l-.2-.1-.1-.3-1.4-7.5-.4-.2h-1v7.5c0 .2 0 .4-.2.5h-2.5l-.1-.5V53.2l.1-.4.4-.1zm3.6 2.4h-.8l-.5.1v6.3h1.3c1 0 1.4-.6 1.4-2v-2.4c0-1.3-.4-2-1.4-2zm16.4 2.7V67a6 6 0 0 1-1.2 4c-.8.9-1.9 1.3-3.2 1.3s-2.4-.4-3.2-1.3-1.3-2.2-1.3-4v-9c0-1.8.5-3 1.3-4s1.9-1.3 3.2-1.3 2.4.4 3.2 1.3a6 6 0 0 1 1.2 4zm-2.8 9.9V57c.1-.8-.2-1.4-.7-1.7-.6-.4-1.2-.4-1.8 0-.6.3-.8.9-.8 1.7v10.6c0 .8.2 1.4.8 1.7.6.4 1.2.4 1.8 0 .5-.3.8-1 .7-1.7zm6 1.8c.6 0 1-.2 1.4-.6l.3-.6V53.2l.2-.4.4-.1h1.7l.4.1.1.4v13.3c0 2-.3 3.5-1 4.3-.7.9-1.9 1.3-3.5 1.3l-.4-.1-.2-.5V70c0-.2 0-.3.2-.4l.4-.1zm14.7 2.5h-6.3l-.1-.5V53.2l.1-.4.4-.1h5.9l.4.1.1.4v2l-.5.1h-3.6v5.3h3.5c.3 0 .4.1.5.2l.1.4V63l-.5.2h-3.6v6.2h3.5c.3 0 .4.1.5.2l.1.4v2h-.5zm3.2-17.3v-1.5l.1-.4.4-.1h7.2l.5.1v2.4l-.5.1h-2.1v16.2l-.2.5h-2.5l-.2-.5v-16l-.5-.1h-1.7l-.4-.1-.1-.5zm18 155.3l16.6-61.8s2.9-7.2-1.5-7.2H104.7c-5 0-2 7.7-2 7.7l16 61.3h143z"/><path fill="#4A4A4A" d="M291.8 218.1c0-.3.1-.5.3-.5h.3c.2 0 .3.2.3.4 0 .6.2 1 .6 1.3s.8.5 1.3.5c.6 0 1-.2 1.4-.7.4-.4.5-1 .4-1.5 0-.4-.2-.7-.4-1a7.6 7.6 0 0 0-1.5-1.7l-.1-.2h-.1l-.2-.3-.3-.2-.5-.6h-.1l-.2-.3-.2-.2-.4-.6-.3-1.2c0-.8.1-1.4.6-2 .5-.5 1-.7 1.8-.7.6 0 1.2.2 1.6.6.5.4.8 1 .8 1.8 0 .1-.1.2-.3.2h-.2c-.2 0-.3 0-.3-.2 0-.5-.2-.9-.5-1.2a1.5 1.5 0 0 0-2.2 0c-.4.4-.5.9-.5 1.4 0 .4.2.8.5 1.2.3.4.7.9 1.4 1.5a27.7 27.7 0 0 1 2 2.3c.3.4.4.9.5 1.4 0 .8-.2 1.5-.7 2.1-.5.6-1.2 1-2 1s-1.4-.3-2-.8c-.4-.5-.7-1-.8-1.8zm6.9-.5V215c0-1 .2-1.8.6-2.3a2 2 0 0 1 1.7-.7 2 2 0 0 1 1.7.7c.4.5.6 1.3.6 2.3v.9l-.1.3h-3.6v1.8c0 .6.1 1 .4 1.4.2.3.6.4 1 .4s.7-.1 1-.4c.2-.2.3-.6.4-1v-.4h.8v.2c0 .7-.2 1.2-.6 1.7-.3.5-.9.8-1.6.8a2 2 0 0 1-1.7-.8c-.4-.5-.6-1.2-.6-2.3zm.9-3v.8h2.7v-.8c0-.6 0-1-.3-1.4s-.6-.4-1-.4-.8.1-1 .4c-.3.4-.4.8-.4 1.4zm9.1 5.6v-5.6c0-1.2-.4-1.8-1.3-1.8-1 0-1.4.6-1.4 1.8v5.9h-.8v-8.4h.8v.6c.4-.5.8-.7 1.4-.7.7 0 1.2.2 1.6.7.4.5.6 1.2.6 2.3v5.5h-.8v-.3zm6.6-6.2v.2h-.5c-.2 0-.3 0-.3-.2 0-.3-.1-.6-.4-.9a1 1 0 0 0-.8-.3 1 1 0 0 0-.8.3 1 1 0 0 0-.3.8c0 .3.1.6.4.9l.8.8a42 42 0 0 1 1.9 1.7l.3 1.2a2 2 0 0 1-.7 1.5c-.5.4-1 .7-1.6.7-.6 0-1.2-.3-1.6-.7a3 3 0 0 1-.7-1.5l.1-.3h.5c.2 0 .3 0 .3.3 0 .4.2.7.5 1 .2.2.5.3.9.3s.7-.1 1-.4.4-.6.4-1c0-.3-.2-.7-.5-1a6 6 0 0 0-1.2-1l-1.1-1a2 2 0 0 1-.6-1.4c0-.6.2-1 .6-1.4a2 2 0 0 1 1.4-.6c.6 0 1 .2 1.4.5.4.4.6.8.6 1.4zm-270 194v4.8c0 1-.4 1.8-1 2l.1.8c0 .2 0 .3-.2.3h-.1c-.2 0-.3 0-.4-.2l-.1-.7a2.7 2.7 0 0 0-.3 0c-.6 0-1-.1-1.4-.5s-.5-1-.5-1.7V408c0-.7.1-1.3.5-1.6.3-.4.8-.6 1.4-.6.6 0 1 .2 1.4.6.4.3.6.9.6 1.6zm-.7 4.9v-5c0-.4-.1-.8-.4-1-.2-.3-.5-.5-.9-.5s-.7.2-1 .4c-.2.3-.3.7-.3 1.2v4.9c0 .5.1.9.4 1.1.2.3.5.4 1 .4.3 0 .6-.1.8-.4.3-.2.4-.6.4-1.1zm2.7-4.2v4.3c0 1 .4 1.4 1 1.4.7 0 1-.4 1-1.4v-4.3l.1-.2h.6v6.4h-.6v-.4c-.3.3-.6.5-1 .5-.6 0-1-.1-1.3-.5s-.5-1-.5-1.8v-4l.1-.2h.6v.2zm4.2 4v-2c0-.8.1-1.3.4-1.7s.8-.6 1.3-.6c.6 0 1 .2 1.3.6.3.4.5 1 .5 1.7v.9h-2.7l-.2.1v1.3c0 .5 0 .8.2 1 .2.3.5.4.8.4.3 0 .6 0 .8-.3.1-.2.3-.5.3-.8v-.3h.8v.2c0 .5-.1.9-.4 1.3-.3.4-.7.5-1.3.5-.5 0-1-.1-1.3-.5s-.4-1-.4-1.8zm.7-2.3v.6h2.1v-.6c0-.4-.1-.8-.3-1s-.4-.4-.8-.4c-.3 0-.6.2-.8.4s-.2.6-.2 1zm5.3 4h.2v.5h-.2c-.5 0-.8 0-1-.4l-.1-.8v-7.9h.6v8.1l.5.4zm2.5 0h.2v.5H60c-.5 0-.8 0-1-.4l-.1-.8v-7.9h.6v7.2l.1.9c0 .2.2.3.4.4zm1.3-1.7v-2c0-.8.2-1.3.5-1.7s.7-.6 1.3-.6c.5 0 1 .2 1.2.6.4.4.5 1 .5 1.7v.9h-2.5l-.3.1v1.3c0 .5 0 .8.3 1 .2.3.4.4.8.4.3 0 .5 0 .7-.3.2-.2.3-.5.3-.8v-.3h.7v.2c0 .5 0 .9-.4 1.3-.2.4-.7.5-1.2.5-.6 0-1-.1-1.3-.5s-.5-1-.5-1.8zm.7-2.3v.6h2.1v-.6c0-.4 0-.8-.2-1s-.5-.4-.8-.4c-.4 0-.6.2-.8.4s-.3.6-.3 1zm7.1-.5v.2h-.4c-.1 0-.2 0-.2-.2a1 1 0 0 0-.3-.6c-.1-.2-.4-.3-.6-.3l-.6.3c-.2.2-.2.4-.2.6 0 .2 0 .4.2.7l.7.6.7.6.7.7c.2.3.2.6.2.9 0 .5-.2.9-.5 1.2-.3.3-.7.4-1.2.4s-.9-.1-1.2-.4c-.4-.4-.5-.8-.5-1.2v-.2h.4c.1 0 .2 0 .2.2 0 .3.2.5.4.7.2.2.4.3.7.3a1 1 0 0 0 1-1c0-.3 0-.6-.4-.9-.2-.3-.5-.6-.8-.7l-1-.8a2 2 0 0 1-.3-1c0-.5.1-.9.4-1.1.3-.3.7-.5 1-.5.5 0 .9.1 1.2.4.2.3.4.6.4 1.1zm6.9 0v.2h-.3c-.2 0-.3 0-.3-.2a1 1 0 0 0-.3-.6l-.6-.3-.6.3-.3.6.3.7.7.6.7.6.7.7.2.9c0 .5-.2.9-.5 1.2a2 2 0 0 1-1.2.4c-.5 0-1-.1-1.2-.4-.4-.4-.5-.8-.6-1.2l.1-.2h.3c.2 0 .3 0 .3.2 0 .3.2.5.4.7.2.2.4.3.7.3a1 1 0 0 0 1-1c0-.3-.1-.6-.4-.9-.3-.3-.6-.6-.9-.7l-.8-.8a2 2 0 0 1-.4-1c0-.5.1-.9.4-1.1.3-.3.7-.5 1-.5.5 0 .8.1 1.1.4.3.3.5.6.5 1.1zm1.3 2.8v-2c0-.8.1-1.3.4-1.7s.8-.6 1.3-.6c.6 0 1 .2 1.3.6.3.4.5 1 .5 1.7v2a3 3 0 0 1-.5 1.8c-.3.4-.7.5-1.3.5-.5 0-1-.1-1.3-.5s-.4-1-.4-1.8zm2.8.3v-2.6c0-.4-.1-.8-.3-1s-.5-.4-.8-.4c-.3 0-.6.2-.8.4s-.3.6-.3 1v2.6c0 .5.1.8.3 1 .2.3.5.4.8.4.3 0 .6-.1.8-.3.2-.3.3-.6.3-1zm4.9 1.7v-4.3c0-.9-.4-1.4-1.1-1.4-.7 0-1 .5-1 1.4v4.5h-.7l-.1-.2v-6.2h.8v.5c.3-.4.7-.6 1.1-.6.5 0 1 .2 1.2.6.3.3.5 1 .5 1.7v4.2H85v-.2zm2.8-7.4v1.3l.1.2h.4l.1.2v.3l-.3.1H88l-.1.1v4.5c0 .2.2.3.4.4h.2l.1.2v.4h-.3c-.4 0-.7 0-.9-.4l-.2-.8v-4.1l-.1-.2h-.2l-.1-.3v-.3h.3v-1.5l.2-.2h.5v.2zm5.6 7.1h.2v.5h-.2c-.5 0-.8 0-1-.4l-.1-.8v-7.9h.6v8.1l.5.4zm1.3-1.7v-2c0-.8.2-1.3.5-1.7s.7-.6 1.2-.6c.6 0 1 .2 1.3.6.3.4.5 1 .5 1.7v.9h-2.7l-.2.1v1.3c0 .5 0 .8.3 1 .2.3.4.4.7.4.4 0 .6 0 .8-.3.2-.2.3-.5.3-.8v-.3h.8v.2c0 .5-.1.9-.4 1.3-.3.4-.7.5-1.3.5-.5 0-1-.1-1.2-.5s-.5-1-.5-1.8zm.7-2.3v.6h2.1v-.6c0-.4 0-.8-.3-1s-.4-.4-.8-.4c-.3 0-.5.2-.7.4s-.3.6-.3 1zm7.1-.5v.2h-.3c-.2 0-.3 0-.3-.2a1 1 0 0 0-.3-.6l-.6-.3c-.2 0-.5.1-.6.3l-.3.6.3.7.6.6.8.6.7.7.2.9c0 .5-.2.9-.5 1.2a2 2 0 0 1-1.2.4c-.5 0-1-.1-1.3-.4a2 2 0 0 1-.5-1.2v-.2h.4c.2 0 .3 0 .3.2 0 .3.1.5.3.7.2.2.5.3.8.3a1 1 0 0 0 1-1c0-.3-.1-.6-.4-.9-.3-.3-.6-.6-.9-.7l-.8-.8a2 2 0 0 1-.5-1c0-.5.2-.9.5-1.1.3-.3.6-.5 1-.5.5 0 .8.1 1.1.4.3.3.5.6.5 1.1zm5.6-.9c-.6 0-1 .4-1 1.2v.2h-.6v-.1c0-.5.1-1 .4-1.3.2-.4.7-.6 1.2-.6 1.2 0 1.7.8 1.7 2.3v3.3l.1.7c0 .2 0 .3-.2.3h-.4l-.1-.4c-.3.3-.7.4-1.2.4s-1-.1-1.2-.4c-.3-.3-.5-.7-.5-1.3v-.4c0-.4.1-.7.3-1l.7-.5.9-.3c.3 0 .5-.3.7-.4.2-.1.2-.3.2-.5 0-.3 0-.6-.2-.8-.2-.2-.4-.4-.8-.4zm.1 5.4c.3 0 .6-.1.7-.3s.3-.5.3-1v-1.9l-.7.3-.6.2c-.7.3-1 .8-.9 1.4 0 1 .4 1.4 1.2 1.3zm4.8.6c-.6 0-1-.1-1.3-.5s-.5-1-.5-1.8v-2c0-.8.2-1.3.5-1.7s.7-.6 1.3-.6c.5 0 1 .2 1.2.6.3.3.5.8.5 1.3v.1h-.6v-.2l-.4-.9a1 1 0 0 0-.7-.3c-.4 0-.6.2-.8.4s-.3.6-.3 1v2.6c0 .5 0 .8.3 1 .2.3.4.4.8.4.3 0 .5 0 .7-.3.2-.2.3-.5.3-.8v-.3h.7v.2c0 .5 0 .9-.4 1.3-.3.4-.7.5-1.2.5zm3.8-7.7v1.3l.1.2h.5v.5l-.2.1h-.3l-.1.1v4.5c0 .2.2.3.5.4h.2v.5h-.2c-.5 0-.8 0-1-.4l-.2-.8v-4.1l-.1-.2h-.2v-.6h.2l.1-.2v-1.5h.7v.2zm2.2.6c-.1 0-.2 0-.3-.2v-.5l.3-.2.4.2v.5l-.4.2zm.4.8v6.2h-.7l-.1-.2v-6.2h.8v.2zm1.4 4v-2c0-.8.2-1.3.5-1.7s.7-.6 1.3-.6c.5 0 1 .2 1.2.6.4.4.5 1 .5 1.7v2c0 .8-.1 1.4-.5 1.8-.3.4-.7.5-1.2.5-.6 0-1-.1-1.3-.5s-.5-1-.5-1.8zm2.8.3v-2.6c0-.4 0-.8-.3-1s-.4-.4-.7-.4c-.4 0-.6.2-.8.4s-.3.6-.3 1v2.6c0 .5 0 .8.3 1 .2.3.4.4.8.4.3 0 .6-.1.7-.3.2-.3.3-.6.3-1zm4.9 1.7v-4.3c0-.9-.4-1.4-1-1.4-.7 0-1 .5-1 1.4v4.3l-.1.2h-.6v-6.4h.6v.5c.3-.4.6-.6 1-.6.6 0 1 .2 1.3.6.3.3.4 1 .4 1.7v4.2h-.6v-.2zm5-4.8v.2h-.4c-.1 0-.2 0-.2-.2a1 1 0 0 0-.3-.6l-.6-.3-.6.3-.3.6.3.7.7.6.7.6.7.7.2.9c0 .5-.2.9-.5 1.2a2 2 0 0 1-1.2.4c-.5 0-1-.1-1.2-.4-.4-.4-.5-.8-.5-1.2v-.2h.3c.2 0 .3 0 .3.2 0 .3.2.5.4.7.2.2.4.3.7.3a1 1 0 0 0 1-1c0-.3-.1-.6-.4-.9-.3-.3-.6-.6-.9-.7l-.8-.8a2 2 0 0 1-.4-1c0-.5.1-.9.4-1.1.3-.3.7-.5 1-.5.5 0 .8.1 1.1.4.3.3.5.6.5 1.1zm-70.7 14.8c-.6 0-1 .4-1 1.1v.3h-.7v-.2c0-.5.1-.9.4-1.3.2-.3.6-.5 1.2-.5 1.2 0 1.7.7 1.7 2.3v3.2l.1.8c0 .2 0 .3-.2.3h-.2l-.2-.1-.1-.4c-.3.4-.8.5-1.2.5s-1-.1-1.2-.4c-.3-.3-.5-.8-.5-1.3v-.4c0-.4.1-.7.3-1l.7-.6c.3 0 .6-.2.8-.3l.8-.3.2-.5c0-.3 0-.6-.2-.8-.2-.3-.4-.4-.8-.4zm.1 5.4c.3 0 .6-.2.7-.3s.3-.6.3-1v-2l-.7.3-.6.3c-.7.3-1 .8-.9 1.4 0 1 .4 1.3 1.2 1.3zm0-6.6h-.2v-.2l-.4-1.2c0-.2 0-.3.3-.3h.1c.2 0 .3.1.3.3v1.3zm9.1 2.6v4.5h-.6v-4.5c0-1-.4-1.4-1-1.4-.7 0-1 .5-1 1.4v4.3l-.1.2h-.6v-6.4h.6v.4c.3-.3.6-.5 1-.5.7 0 1.2.2 1.5.8.3-.5.7-.8 1.3-.8.5 0 1 .1 1.2.5.3.4.5 1 .5 1.8v4.2h-.7v-4.5c0-1-.4-1.4-1-1.4-.7 0-1 .5-1 1.4zm4.1 2.3v-2c0-.8.2-1.4.5-1.8s.7-.5 1.3-.5c.5 0 1 .2 1.3.5.3.4.4 1 .4 1.8v.9h-2.8v1.3c0 .6.1 1 .3 1.1.2.3.5.4.8.4.3 0 .5-.1.7-.3.2-.2.3-.5.3-.8l.1-.3h.6v.2c0 .4-.2.9-.4 1.3-.3.3-.7.5-1.3.5-.6 0-1-.2-1.3-.6s-.5-1-.5-1.7zm.7-2.3v.6H79v-.7c0-.5 0-.8-.2-1s-.5-.4-.8-.4c-.3 0-.6.1-.8.4s-.3.5-.3 1zm5-3.1v1.4h.3l.2.1v.5H82l-.1.2v4.5c0 .2.2.3.4.3l.2.1v.5h-.2c-.4 0-.8-.1-1-.4l-.1-.8v-4.2l-.2-.1h-.2v-.6h.2l.2-.2v-1.5h.5v.2zm2.5 0v1.3l.2.1h.2l.2.1v.5h-.4l-.2.2v4.5c.1.2.3.3.5.3l.2.1v.5h-.2c-.5 0-.8-.1-1-.4l-.1-.8v-4.2l-.2-.1h-.2v-.6h.2l.2-.2v-1.5h.6v.2zm3.6 1.9h-.3c-.3 0-.5 0-.6.3v5.2l-.1.2h-.6v-6.4h.6v.4c.3-.3.6-.5 1-.5h.2v.8h-.2zm1 3.5v-2c0-.8.1-1.4.4-1.8s.8-.5 1.3-.5c.6 0 1 .2 1.3.5.3.4.5 1 .5 1.8v.9h-2.8v1.3c0 .6 0 1 .2 1.1.2.3.5.4.8.4.3 0 .6-.1.8-.3.1-.2.3-.5.3-.8v-.3h.6v.2c0 .4-.1.9-.4 1.3-.3.3-.7.5-1.3.5-.5 0-1-.2-1.3-.6s-.4-1-.4-1.7zm.6-2.3v.6h2.2v-.7c0-.5-.1-.8-.3-1s-.4-.4-.8-.4c-.3 0-.6.1-.8.4s-.3.5-.3 1zm6.8 2.3v-2c0-.8.2-1.4.5-1.8s.7-.5 1.2-.5c.6 0 1 .2 1.3.5.3.4.5 1 .5 1.8v.9H97v1.3c0 .6 0 1 .3 1.1.2.3.4.4.7.4.4 0 .6-.1.8-.3.2-.2.3-.5.3-.8v-.3h.7v.2c0 .4-.1.9-.4 1.3-.3.3-.7.5-1.3.5-.5 0-1-.2-1.2-.6s-.5-1-.5-1.7zm.7-2.3v.6h2.1v-.7c0-.5 0-.8-.3-1s-.4-.4-.7-.4c-.4 0-.6.1-.8.4s-.3.5-.3 1zm7 4.3v-4.3c0-1-.4-1.4-1-1.4-.7 0-1 .5-1 1.4v4.3l-.1.2h-.6v-6.4h.6v.4c.3-.3.6-.5 1-.5.6 0 1 .1 1.3.5.3.4.4 1 .4 1.8v4.2h-.6v-.2zm4.6-2v-2c0-.8.2-1.4.5-1.8s.7-.5 1.3-.5c.5 0 1 .2 1.3.5.3.4.4 1 .4 1.8v2c0 .8-.1 1.4-.4 1.7-.4.4-.8.6-1.3.6-.6 0-1-.2-1.3-.6s-.5-1-.5-1.7zm2.8.3V426c0-.5 0-.8-.2-1s-.5-.4-.8-.4c-.4 0-.6.1-.8.4s-.3.5-.3 1v2.6c0 .5.1.8.3 1 .2.3.4.4.8.4.3 0 .6-.1.8-.4.2-.2.2-.5.2-1zm2-.3v-2c0-.8.2-1.4.5-1.8s.7-.5 1.3-.5c.5 0 1 .2 1.3.5.3.4.4 1 .4 1.8v.9H114v1.3c0 .6.1 1 .3 1.1.2.3.4.4.8.4.3 0 .5-.1.7-.3.2-.2.3-.5.3-.8v-.3h.6v.2c0 .4 0 .9-.4 1.3-.2.3-.7.5-1.2.5-.6 0-1-.2-1.3-.6s-.5-1-.5-1.7zm.7-2.3v.6h2.1v-.7c0-.5 0-.8-.2-1s-.5-.4-.8-.4c-.3 0-.6.1-.8.4s-.3.5-.3 1zm4.9-1.7v4.3c0 1 .3 1.4 1 1.4s1-.5 1-1.4v-4.5h.7l.1.2v6.2h-.8v-.4c-.3.3-.7.5-1.1.5-.5 0-1-.1-1.3-.5s-.4-1-.4-1.8v-4.2h.8v.2zm6.9-.3h.2l.1.1v.2l-1.2 6v.2h-.8l-.1-.2-1.3-6v-.2h.7l.1.1 1 5v.1h.1l1-5v-.2h.3zm3.1.8h-.3c-.3 0-.5 0-.6.3v5.2l-.1.2h-.6v-6.4h.6v.4c.3-.3.6-.5 1-.5h.2v.8h-.2zm1 3.5v-2c0-.8.1-1.4.4-1.8s.8-.5 1.3-.5c.6 0 1 .2 1.3.5.3.4.5 1 .5 1.8v.7l-.1.2h-2.7v1.3c0 .6 0 1 .2 1.1.2.3.5.4.8.4.3 0 .6-.1.8-.3l.3-.8v-.3h.6v.2c0 .4-.1.9-.4 1.3-.3.3-.7.5-1.3.5-.5 0-1-.2-1.3-.6s-.4-1-.4-1.7zm.6-2.3v.6h2.2v-.7c0-.5-.1-.8-.3-1s-.5-.4-.8-.4c-.3 0-.6.1-.8.4s-.3.5-.3 1zm-94.5 22.3v-8.5l.3-.1h.3l.1.3v.2c.2-.3.6-.5 1-.6.6 0 1 .2 1.3.6.3.4.4 1 .4 1.7v2c0 .9-.1 1.5-.4 1.8-.3.4-.7.6-1.3.6-.4 0-.8-.2-1-.6v2.8h-.7v-.2zm2.7-4v-2.6c0-1-.3-1.4-1-1.4s-1 .4-1 1.4v2.6c0 .9.3 1.4 1 1.4s1-.5 1-1.4zm2-.4v-2c0-.7.2-1.3.5-1.7s.7-.5 1.3-.5c.5 0 1 .1 1.2.5.4.4.5 1 .5 1.7v2c0 .9-.1 1.4-.5 1.8-.3.4-.7.6-1.2.6-.6 0-1-.2-1.3-.6s-.5-1-.5-1.7zm2.8.4v-2.6c0-.5 0-.8-.2-1s-.5-.4-.8-.4c-.4 0-.6 0-.8.3s-.3.6-.3 1v2.7c0 .4 0 .8.3 1 .2.2.4.4.8.4.3 0 .6-.2.8-.4l.2-1zm2.8-4.4v4.4c0 .9.3 1.4 1 1.4s1-.5 1-1.4v-4.6l.3-.1h.3v6.5h-.5l-.1-.2v-.3c-.2.4-.6.6-1 .6-.6 0-1-.2-1.3-.6s-.4-1-.4-1.7v-4.2l.3-.1h.3v.3zm5.9.5H52c-.3 0-.5.1-.6.4v5.2l-.1.2h-.6v-6.5l.2-.1h.4v.4c.3-.2.6-.4 1-.4h.2v.7h-.2zm5.7 0h-.4c-.3 0-.5.1-.6.4v5.4h-.7v-6.5l.3-.1h.3v.4c.3-.2.7-.4 1-.4h.2l.1.3v.4h-.3zm1 3.5v-2c0-.7 0-1.3.4-1.7s.7-.5 1.3-.5c.5 0 1 .1 1.2.5.4.4.5 1 .5 1.7v1h-2.8v1.3c0 .5 0 .9.3 1.1.2.2.4.4.8.4.3 0 .5-.1.7-.3.2-.3.3-.5.3-.9v-.2h.7v.1c0 .5 0 1-.4 1.3-.2.4-.7.6-1.2.6-.6 0-1-.2-1.3-.6s-.5-1-.5-1.7zm.6-2.2v.6h2.1v-.6c0-.5 0-.8-.3-1s-.4-.4-.7-.4c-.4 0-.6 0-.8.3s-.3.6-.3 1zm1.1-2.6c-.1 0-.2 0-.2-.2v-1.5h.7v.3l-.3 1.2v.1h-.2zm3.8.8v4.4c0 .9.3 1.4 1 1.4s1-.5 1-1.4v-4.6l.3-.1h.2v6.5h-.5l-.1-.2v-.3c-.2.4-.6.6-1 .6-.6 0-1-.2-1.3-.6s-.4-1-.4-1.7v-4.2l.2-.1h.4v.3zm7.1 1.2v.2l-.2.1h-.2c-.1 0-.2 0-.2-.2a1 1 0 0 0-.3-.7l-.6-.2c-.2 0-.4 0-.6.2l-.3.6c0 .3.1.5.3.7l.7.6.7.6.7.7.2 1c0 .4-.2.8-.5 1.1a2 2 0 0 1-1.2.5c-.5 0-1-.2-1.2-.5-.4-.3-.5-.7-.5-1.2v-.2h.4c.1 0 .2 0 .2.2 0 .3.2.6.4.8.2.2.4.3.7.3a1 1 0 0 0 1-1.1c0-.3 0-.6-.4-.9l-.9-.7-.8-.8a2 2 0 0 1-.4-1c0-.4.1-.8.4-1.1.3-.3.7-.5 1-.5.5 0 .9.2 1.1.5.3.2.5.6.5 1zm4.3 0v.2l-.3.1h-.1c-.2 0-.2 0-.2-.2a1 1 0 0 0-.3-.7l-.6-.2c-.2 0-.5 0-.6.2l-.3.6c0 .3 0 .5.3.7l.6.6.8.6.6.7c.2.3.3.6.3 1s-.2.8-.6 1.1c-.3.3-.7.5-1.2.5-.4 0-.9-.2-1.2-.5-.3-.3-.5-.7-.5-1.2v-.2h.4c.2 0 .3 0 .3.2 0 .3.1.6.3.8.2.2.5.3.7.3a1 1 0 0 0 1.1-1.1c0-.3-.1-.6-.4-.9l-.9-.7-.9-.8c-.3-.3-.4-.7-.4-1 0-.4.2-.8.5-1.1.3-.3.6-.5 1-.5.5 0 .8.2 1.1.5.3.2.5.6.5 1zm1.7-2c-.2 0-.3 0-.4-.2v-.4c.1-.2.2-.2.4-.2s.3 0 .4.2v.4l-.4.2zm.3.9v6.2h-.6v-6.5l.2-.1h.4v.3zm3.3.4h-.4c-.3 0-.4.1-.5.4l-.1 1v4.4h-.7v-6.5l.2-.1h.3v.4c.4-.2.7-.4 1-.4h.3v.7h-.2zm7.3 1.3v4.5H88v-4.5c0-1-.4-1.4-1-1.4-.7 0-1 .4-1 1.4v4.3l-.1.2h-.6v-6.5l.2-.1h.4v.5c.3-.4.6-.5 1-.6.7 0 1.2.3 1.5.8.3-.5.7-.7 1.3-.8.5 0 1 .2 1.2.6.3.4.5 1 .5 1.7v4l-.1.3h-.6v-4.5c0-1-.4-1.4-1-1.4-.7 0-1 .4-1 1.4zm5.9-1.4c-.6 0-1 .4-1 1.1v.3h-.6v-.2c0-.5 0-1 .3-1.3.3-.4.7-.5 1.3-.5 1.1 0 1.7.7 1.7 2.3v4c.1.1 0 .2-.2.2h-.4v-.4c-.4.3-.8.5-1.3.5s-.9-.2-1.2-.5c-.3-.3-.4-.7-.4-1.3v-.4c0-.3 0-.7.3-1l.7-.5.8-.3.7-.3c.2-.2.3-.3.3-.5 0-.3 0-.6-.3-.9-.1-.2-.4-.3-.7-.3zm0 5.4c.4 0 .6-.2.8-.4s.2-.5.2-1v-1.8l-.6.2-.7.3c-.6.3-.9.7-.8 1.3 0 1 .4 1.4 1.2 1.4zm5.8 2.6v-8.5l.3-.1h.3l.1.3v.2c.2-.3.6-.5 1-.6.6 0 1 .2 1.3.6.3.4.4 1 .4 1.7v2c0 .9-.1 1.5-.4 1.8-.3.4-.7.6-1.3.6-.4 0-.7-.2-1-.6v2.8h-.7v-.2zm2.7-4v-2.6c0-1-.3-1.4-1-1.4s-1 .4-1 1.4v2.6c0 .9.3 1.4 1 1.4s1-.5 1-1.4zm3.8-3.9h-.3c-.3 0-.5.1-.6.4v5.2l-.1.2h-.6v-6.5l.2-.1h.4v.4c.3-.2.6-.4 1-.4h.2v.7h-.2zm1.7-1.3c-.2 0-.3 0-.3-.2a.3.3 0 0 1 0-.4c0-.2.1-.2.3-.2.2 0 .3 0 .4.2v.4l-.4.2zm.3.9v6.2h-.6v-6.5l.2-.1h.4v.3zm1.5 3.9v-2c0-.7.1-1.3.5-1.7s.7-.5 1.2-.5c.6 0 1 .1 1.3.5.3.4.5 1 .5 1.7v2c0 .9-.2 1.4-.5 1.8-.3.4-.7.6-1.3.6-.5 0-1-.2-1.2-.6s-.5-1-.5-1.7zm2.8.4v-2.6c0-.5 0-.8-.3-1s-.4-.4-.8-.4c-.3 0-.6 0-.8.3s-.2.6-.2 1v2.7c0 .4 0 .8.2 1 .2.2.5.4.8.4.4 0 .6-.2.8-.4.2-.2.3-.6.3-1zm3.8-3.9h-.4c-.2 0-.4.1-.5.4l-.1 1v4.4h-.7v-6.5l.2-.1h.4l.1.3v.1c.3-.2.6-.4 1-.4h.2v.7h-.2zm1.7-1.3c-.2 0-.3 0-.4-.2v-.4c0-.2.2-.2.4-.2.1 0 .3 0 .3.2.1.1.1.3 0 .4l-.3.2zm.3.9v6.2h-.6v-6.5l.2-.1h.4v.3zm2.2-1.4v1.3l.2.1h.4v.6h-.4l-.1.2v4.4c0 .3.2.4.4.4h.2v.6h-.2c-.4 0-.8-.1-1-.5v-.8l-.1-1v-3.1c0-.1 0-.2-.2-.2h-.2v-.5h.2l.2-.2v-1.5l.2-.1h.4v.3zm1.8 5.3v-2c0-.7.2-1.3.5-1.7s.7-.5 1.3-.5c.5 0 1 .1 1.3.5.3.4.4 1 .4 1.7v1h-2.8v1.3c0 .5.1.9.3 1.1.2.2.5.4.8.4.3 0 .5-.1.7-.3.2-.3.3-.5.3-.9v-.2h.6v.1c0 .5 0 1-.4 1.3-.2.4-.7.6-1.2.6-.6 0-1-.2-1.3-.6s-.5-1-.5-1.7zm.7-2.2v.6h2.1v-.6c0-.5 0-.8-.2-1s-.5-.4-.8-.4c-.3 0-.6 0-.8.3s-.3.6-.3 1zm1.1-2.6l-.1-.2v-1.5h.6v.3l-.3 1.2v.1h-.2zm7 5.1v-.5c0-.8.2-1.5.6-2.3a4 4 0 0 0 .7-2.2c0-1-.3-1.5-1-1.5-.4 0-.6 0-.8.3s-.3.6-.3 1v.3h-.7v-.2c0-.7 0-1.1.4-1.5s.7-.6 1.3-.6c.5 0 .9.2 1.2.6.3.3.5.9.5 1.5 0 .8-.2 1.6-.7 2.4a4 4 0 0 0-.7 2.2v.7h-.6v-.2zm.7 1.6l-.1.3-.3.1c-.2 0-.4 0-.4-.2v-.5h.5c.2 0 .3.1.3.3zM32.4 339.4v4.8c0 1-.4 1.8-1 2l.1.8c0 .2 0 .3-.2.3h-.1l-.3-.1-.2-.8a2 2 0 0 0-.3 0c-.6 0-1-.1-1.4-.5-.3-.4-.5-1-.5-1.7v-4.8c0-.7.2-1.3.5-1.6.4-.4.8-.6 1.4-.6a2 2 0 0 1 1.5.6c.3.3.5.9.5 1.6zm-.7 4.9v-5c0-.4-.1-.8-.3-1-.3-.3-.6-.5-1-.5-.3 0-.7.2-.9.4-.2.3-.3.7-.3 1.2v4.9c0 .5 0 .9.3 1.1.2.3.6.4 1 .4.3 0 .6-.1.9-.4.2-.2.3-.6.3-1.1zm2.7-4.2v4.3c0 1 .4 1.4 1 1.4.7 0 1-.4 1-1.4v-4.3l.1-.2h.6v6.4l-.2.1h-.4v-.5c-.3.4-.6.5-1 .5-.6 0-1-.1-1.3-.5-.3-.4-.4-1-.4-1.7v-4.3h.6v.2zm4.2 4v-2c0-.8.2-1.3.5-1.7.3-.4.7-.6 1.3-.6.5 0 1 .2 1.2.6.3.4.5 1 .5 1.7v.9h-2.7l-.2.1v1.3c0 .5 0 .8.3 1 .2.3.4.4.7.4.4 0 .6 0 .8-.3.2-.2.3-.5.3-.8v-.3h.7v.2c0 .5-.1 1-.4 1.3-.3.4-.7.5-1.3.5-.5 0-1-.1-1.2-.5s-.5-1-.5-1.8zm.7-2.3v.6h2.1v-.6c0-.4 0-.8-.3-1s-.4-.4-.7-.4c-.4 0-.6.2-.8.4s-.3.6-.3 1zm5.3 4h.2v.5l-.2.1c-.4 0-.8-.2-1-.5l-.1-.8v-7.8h.6v7.2l.1.9c0 .2.2.4.4.4zm2.5 0h.2l.1.2v.3l-.3.1a1 1 0 0 1-.9-.5l-.2-.8v-7.8h.7v7.2l.1.9c0 .2.2.4.4.4zm1.3-1.7v-2c0-.8.2-1.3.5-1.7.3-.4.8-.6 1.3-.6s1 .2 1.3.6c.3.4.4 1 .4 1.7v.9h-2.5l-.2.1v1.3c0 .5 0 .8.2 1 .2.3.5.4.8.4.3 0 .6 0 .7-.3l.4-.8v-.3h.6v.2c0 .5-.2 1-.4 1.3-.3.4-.7.5-1.3.5-.5 0-1-.1-1.3-.5s-.5-1-.5-1.8zm.7-2.3v.6h2.1v-.6c0-.4 0-.8-.2-1s-.5-.4-.8-.4c-.3 0-.6.2-.8.4s-.3.6-.3 1zm6.8 2.3v-2c0-.8.1-1.3.4-1.7.4-.4.8-.6 1.3-.6.6 0 1 .2 1.3.6.3.4.5 1 .5 1.7v.9h-2.7l-.2.1v1.3c0 .5 0 .8.2 1 .2.3.5.4.8.4.3 0 .6 0 .8-.3.2-.2.3-.5.3-.8v-.3h.7v.2c0 .5-.1 1-.4 1.3-.3.4-.7.5-1.3.5-.5 0-1-.1-1.3-.5s-.4-1-.4-1.8zm.7-2.3v.6h2.1v-.6c0-.4-.1-.8-.3-1s-.4-.4-.8-.4c-.3 0-.6.2-.8.4s-.2.6-.2 1zm7.1-.5v.2h-.4c-.1 0-.2 0-.2-.2a1 1 0 0 0-.3-.6l-.6-.3c-.2 0-.5.1-.6.3l-.3.6c0 .2.1.5.3.7l.6.6.8.6c.3.2.5.4.6.7l.3.9c0 .5-.2.9-.6 1.2-.3.3-.7.4-1.2.4a2 2 0 0 1-1.2-.4 2 2 0 0 1-.5-1.2v-.2h.4c.2 0 .3 0 .3.2 0 .3.1.6.3.7.2.2.5.3.7.3a1 1 0 0 0 1.1-1c0-.3-.1-.6-.4-.9-.3-.3-.6-.6-.9-.7l-.9-.8c-.3-.3-.4-.7-.4-1 0-.5.2-.8.5-1.1.3-.3.6-.5 1-.5.5 0 .8.1 1.1.4.3.3.5.7.5 1.1zm2-2.6v1.3c0 .1 0 .2.2.2h.4v.5l-.2.1H66l-.2.1v3.5l.1 1c0 .2.2.4.4.4h.2v.5h-.2c-.5 0-.8 0-1-.4l-.1-.8V341c0-.2 0-.2-.2-.2h-.2v-.6h.2c.1 0 .2 0 .2-.2v-1.5h.5v.2zm5.7 7.1h.2v.5l-.2.1c-.5 0-.8-.2-1-.5l-.2-.8v-7.8h.7v7.2l.1.9c.1.2.2.4.5.4zm3-5.4c-.6 0-1 .4-1 1.2v.2h-.7v-.1c0-.5.1-1 .4-1.3.2-.4.6-.6 1.2-.6 1.2 0 1.7.8 1.7 2.3v3.3l.1.7c0 .2 0 .3-.2.3h-.4l-.1-.4c-.3.3-.8.4-1.3.4s-.8-.1-1.1-.4c-.3-.3-.5-.7-.5-1.3v-.4c0-.4.1-.7.3-1s.4-.4.7-.5l.8-.3.7-.4c.1 0 .3-.3.3-.5 0-.3 0-.6-.2-.8-.2-.2-.4-.4-.8-.4zm.1 5.4c.3 0 .6-.1.7-.3.2-.2.2-.5.2-1v-1.9l-.6.3-.6.2c-.7.3-1 .8-.9 1.4 0 1 .4 1.4 1.2 1.3zm7.4.6c-.6 0-1-.1-1.3-.5s-.5-1-.5-1.7v-2c0-.9.2-1.4.5-1.8.3-.4.7-.6 1.3-.6.5 0 1 .2 1.2.6.3.4.5.8.5 1.3v.1H83v-.2c0-.4-.2-.6-.4-.9a1 1 0 0 0-.7-.3c-.4 0-.6.2-.8.4s-.3.6-.3 1v2.6c0 .5.1.8.3 1 .2.3.4.4.8.4.3 0 .5 0 .7-.3.2-.2.3-.5.3-.8v-.3h.7v.2c0 .5 0 1-.4 1.3-.2.4-.7.5-1.2.5zm3-2.3v-2c0-.8.1-1.3.5-1.7.3-.4.7-.6 1.2-.6.6 0 1 .2 1.3.6.3.4.5 1 .5 1.7v2a3 3 0 0 1-.5 1.8c-.3.4-.7.5-1.3.5-.5 0-1-.1-1.2-.5s-.5-1-.5-1.8zm2.8.3v-2.6c0-.4 0-.8-.3-1s-.4-.4-.8-.4c-.3 0-.6.2-.7.4s-.3.6-.3 1v2.6c0 .5 0 .8.3 1 .1.3.4.4.7.4.4 0 .6 0 .8-.3.2-.3.3-.6.3-1zm4.8 1.7v-4.3c0-.9-.3-1.4-1-1.4s-1 .5-1 1.4v4.5l-.3.1H90v-6.6h.5l.1.2v.3c.3-.4.6-.6 1-.6.6 0 1 .2 1.3.6.3.3.4 1 .4 1.7v4.2h-.6v-.2zm5.5-8.6v8.8l-.3.1h-.3v-.5c-.3.3-.7.5-1.1.5-.6 0-1-.1-1.3-.5-.3-.4-.4-1-.4-1.7v-2c0-.9.1-1.5.4-1.8.3-.4.7-.6 1.3-.6.4 0 .8.2 1 .6v-3.1h.7v.2zm-2.7 4.3v2.6c0 1 .3 1.4 1 1.4s1-.4 1-1.4v-2.6c0-.9-.3-1.4-1-1.4s-1 .5-1 1.4zm4.6-2.5c-.2 0-.3 0-.4-.2v-.4c.1-.2.2-.3.4-.3s.3.1.4.3v.4l-.4.2zm.3.8v6.2l-.2.1h-.4v-6.6h.6v.2zm2.3-1.4v1.3l.1.2h.4l.1.2v.3l-.3.1h-.2l-.1.1v4.5c0 .2.2.4.4.4h.3v.5h-.3c-.4 0-.7 0-.9-.4l-.2-.8V341l-.1-.2h-.2v-.6h.2l.1-.2v-1.5h.7v.2zm2.2.6c-.1 0-.3 0-.3-.2-.1-.2-.1-.3 0-.4 0-.2.2-.3.3-.3.2 0 .3.1.4.3v.4l-.4.2zm.4.8v6.2l-.3.1h-.4v-6.6h.6v.2zm1.4 4v-2c0-.8.2-1.3.5-1.7.3-.4.7-.6 1.3-.6.5 0 1 .2 1.2.6.3.4.5 1 .5 1.7v2a3 3 0 0 1-.5 1.8c-.3.4-.7.5-1.2.5-.6 0-1-.1-1.3-.5s-.5-1-.5-1.8zm2.8.3v-2.6c0-.4 0-.8-.3-1s-.4-.4-.7-.4c-.4 0-.6.2-.8.4s-.3.6-.3 1v2.6c0 .5 0 .8.3 1 .2.3.4.4.8.4.3 0 .5 0 .7-.3.2-.3.3-.6.3-1zm4.9 1.7v-4.3c0-.9-.4-1.4-1-1.4-.7 0-1 .5-1 1.4v4.3l-.1.2-.2.1h-.4v-6.6h.5v.5c.3-.4.6-.6 1-.6.6 0 1 .2 1.3.6.3.3.4 1 .4 1.7v4.2h-.6v-.2zm-70.7 7.1v8.6l-.1.2h-.6v-.4c-.3.3-.6.5-1 .5-.6 0-1-.1-1.3-.5-.3-.4-.4-1-.4-1.8v-2c0-.8.1-1.4.4-1.8.3-.4.7-.5 1.2-.5s.8.2 1 .5v-2.8l.1-.2h.6v.2zm-2.8 4.3v2.6c0 1 .4 1.4 1 1.4.7 0 1-.5 1-1.4v-2.6c0-1-.3-1.4-1-1.4-.6 0-1 .5-1 1.4zm4.2 2.3v-2c0-.8.2-1.4.5-1.7.3-.4.7-.6 1.2-.6.6 0 1 .2 1.3.6.3.3.5 1 .5 1.7v.9h-2.8v1.3c0 .6 0 1 .3 1.1.2.3.4.4.7.4.4 0 .6-.1.8-.3.2-.2.3-.5.3-.8v-.3h.7v.2c0 .4-.1.9-.4 1.3-.3.3-.7.5-1.3.5-.5 0-1-.2-1.2-.6s-.5-.9-.5-1.7zm.7-2.3v.6h2.1v-.6c0-.5 0-.8-.3-1s-.4-.4-.8-.4c-.3 0-.5.1-.7.4s-.3.5-.3 1zm9.7-.5v.2h-.4c-.1 0-.2 0-.2-.2a1 1 0 0 0-.3-.6c-.1-.2-.4-.3-.6-.3l-.6.3c-.2.1-.2.3-.2.6 0 .2 0 .4.2.6l.7.7.7.6.7.7c.2.3.2.6.2.9 0 .4-.2.8-.5 1.1-.3.4-.7.5-1.2.5s-.9-.1-1.2-.5c-.4-.3-.5-.7-.5-1.2v-.2h.4c.1 0 .2 0 .2.2 0 .4.2.6.4.8.2.2.4.3.7.3a1 1 0 0 0 1-1c0-.4 0-.6-.4-1l-.8-.7-1-.8c-.3-.4-.3-.6-.3-1s.1-.8.4-1c.3-.4.7-.5 1-.5.5 0 .9.1 1.2.4.2.3.4.6.4 1zm2-1.2v4.3c0 1 .4 1.4 1 1.4.7 0 1-.5 1-1.4v-4.3l.1-.2h.6v6.4h-.6v-.4c-.3.3-.6.5-1 .5-.6 0-1-.1-1.3-.5a3 3 0 0 1-.5-1.8v-4l.1-.2h.6v.2zm5.9 6.3c-.5 0-1-.2-1.3-.6s-.4-.9-.4-1.7v-2c0-.8.1-1.4.4-1.7.4-.4.8-.6 1.3-.6.6 0 1 .2 1.3.5.3.4.4.8.4 1.3v.2h-.6v-.3c0-.3-.1-.6-.3-.8a1 1 0 0 0-.8-.3c-.3 0-.6.1-.8.4s-.2.5-.2 1v2.6c0 .5 0 .8.2 1 .2.3.5.4.8.4.3 0 .6-.1.8-.3.2-.2.3-.5.3-.8v-.3h.7v.2c0 .4-.1.9-.4 1.3-.3.3-.7.5-1.3.5zm4.8 0c-.5 0-1-.2-1.3-.6s-.5-.9-.5-1.7v-2c0-.8.2-1.4.5-1.7.3-.4.8-.6 1.3-.6.6 0 1 .2 1.3.5.2.4.4.8.4 1.3v.2H69v-.3c0-.3-.2-.6-.4-.8a1 1 0 0 0-.7-.3c-.3 0-.6.1-.8.4s-.3.5-.3 1v2.6c0 .5.1.8.3 1 .2.3.5.4.8.4.3 0 .6-.1.7-.3l.4-.8v-.3h.7v.2c0 .4-.2.9-.4 1.3-.3.3-.7.5-1.3.5zm3-2.3v-2c0-.8.2-1.4.5-1.7.3-.4.7-.6 1.3-.6.5 0 1 .2 1.2.6.4.3.5 1 .5 1.7v.9h-2.8v1.3c0 .6 0 1 .3 1.1.2.3.4.4.8.4.3 0 .5-.1.7-.3.2-.2.3-.5.3-.8v-.3h.7v.2c0 .4 0 .9-.4 1.3-.3.3-.7.5-1.2.5-.6 0-1-.2-1.3-.6s-.5-.9-.5-1.7zm.7-2.3v.6h2.1v-.6c0-.5 0-.8-.3-1s-.4-.4-.7-.4c-.4 0-.6.1-.8.4s-.3.5-.3 1zm1-2.6h-.2v-.2l-.3-1.2c0-.2 0-.3.2-.3h.1c.2 0 .3.1.3.3v1.3l-.1.1zm6.1 2.1v.2h-.4c-.1 0-.2 0-.2-.2a1 1 0 0 0-.3-.6l-.6-.3-.6.3c-.2.1-.3.3-.3.6l.3.6.7.7.7.6.7.7.2.9c0 .4-.2.8-.5 1.1-.4.4-.8.5-1.2.5-.5 0-1-.1-1.2-.5-.4-.3-.5-.7-.5-1.2v-.2h.4c.1 0 .2 0 .2.2 0 .4.2.6.4.8.2.2.4.3.7.3a1 1 0 0 0 1-1c0-.4 0-.6-.4-1l-.9-.7c-.3-.2-.6-.4-.8-.8s-.4-.6-.4-1 .1-.8.4-1c.3-.4.7-.5 1-.5.5 0 .9.1 1.1.4.3.3.5.6.5 1zm4.4-3.1v7.2l.1.8c.1.4.4.7 1 .8h.1l.1.2v.3h-.3c-.5 0-1-.1-1.2-.5-.3-.3-.4-.9-.4-1.6V354c0-.7.1-1.2.4-1.6.2-.3.7-.5 1.2-.5h.2l.1.2v.2h-.3a1 1 0 0 0-.7.5l-.2.4v.7zm2.6 10.3v-8.6h.7v.4c.3-.3.7-.5 1.1-.5.6 0 1 .1 1.3.5.3.4.4 1 .4 1.8v2c0 .8-.1 1.4-.4 1.8-.3.4-.7.5-1.3.5-.4 0-.8-.2-1-.5v2.8h-.8v-.2zm2.7-4.1v-2.6c0-1-.3-1.4-1-1.4s-1 .5-1 1.4v2.6c0 1 .3 1.4 1 1.4s1-.5 1-1.4zm3.8-3.8H92c-.3 0-.5 0-.6.3v5.2l-.1.2h-.6v-6.4h.6v.4c.3-.3.6-.5 1-.5h.2v.8h-.2zM94 355c-.2 0-.3-.1-.4-.3v-.4l.4-.2c.2 0 .3 0 .4.2v.4c-.1.2-.2.2-.4.2zm.3.8v6.2h-.6v-6.4h.6v.2zm1.5 4v-2c0-.8.1-1.4.4-1.7.4-.4.8-.6 1.3-.6.6 0 1 .2 1.3.6.3.3.5 1 .5 1.7v2c0 .8-.2 1.4-.5 1.7-.3.4-.7.6-1.3.6-.5 0-1-.2-1.3-.6s-.4-.9-.4-1.7zm2.8.3v-2.6c0-.5-.1-.8-.3-1s-.5-.4-.8-.4c-.3 0-.6.1-.8.4s-.3.5-.3 1v2.6c0 .5.1.8.3 1 .2.3.5.4.8.4.3 0 .6-.1.8-.4.2-.2.3-.5.3-1zm3.7-3.8h-.3c-.3 0-.5 0-.5.3l-.1 1v4.4h-.7l-.1-.2v-6.2h.8v.4c.4-.3.7-.5 1-.5h.3v.8h-.3zm1.7-1.3l-.3-.3v-.4l.4-.2c.1 0 .2 0 .3.2v.4c0 .2-.2.2-.3.2zm.4.8v6.2h-.7v-6.4h.5l.1.2zm2.2-1.4v1.3l.2.1h.2l.2.1v.5h-.4l-.2.2v3.5l.1 1c0 .2.2.3.4.3l.2.1v.5h-.2c-.5 0-.8-.1-1-.4l-.1-.8v-4.1c0-.2 0-.2-.2-.2h-.2v-.6h.2l.2-.2v-1.5h.6v.2zm1.8 5.4v-2c0-.8.2-1.4.5-1.7.3-.4.7-.6 1.3-.6.5 0 1 .2 1.3.6.3.3.4 1 .4 1.7v.9H109v1.3c0 .6.1 1 .3 1.1.2.3.4.4.8.4.3 0 .5-.1.7-.3.2-.2.3-.5.3-.8v-.3h.8v.2c0 .4 0 .9-.4 1.3-.2.3-.7.5-1.2.5-.6 0-1-.2-1.3-.6s-.5-.9-.5-1.7zm.7-2.3v.6h2.1v-.6c0-.5 0-.8-.2-1s-.5-.4-.8-.4c-.4 0-.6.1-.8.4s-.3.5-.3 1zm1.1-2.6l-.2-.1v-1.3l.1-.2h.6v.2l-.3 1.2v.2h-.2zm4.1 6.2v-7.8c-.1-.5-.4-.7-1-.8h-.1l-.1-.3v-.3h.3c.5 0 1 .2 1.2.5.3.4.4.9.4 1.6v7.2c0 .7-.1 1.3-.4 1.6-.2.4-.7.6-1.2.6h-.2l-.1-.3v-.3h.3c.3 0 .6-.2.7-.4l.2-.4v-.8zM3.1 379.8v-8.5h.7v.4c.3-.3.7-.5 1.1-.5.6 0 1 .1 1.3.5.3.4.4 1 .4 1.8v2c0 .8-.1 1.4-.4 1.7-.3.4-.7.6-1.3.6-.4 0-.8-.2-1-.6v2.8h-.8v-.2zm2.7-4v-2.6c0-1-.3-1.4-1-1.4s-1 .4-1 1.4v2.6c0 .9.3 1.4 1 1.4s1-.5 1-1.4zm2-.3v-2c0-.8.2-1.4.5-1.8.3-.4.7-.5 1.3-.5.5 0 1 .1 1.2.5.4.4.5 1 .5 1.8v2c0 .8-.1 1.3-.5 1.7-.3.4-.7.6-1.2.6-.6 0-1-.2-1.3-.6s-.5-1-.5-1.7zm2.8.3v-2.6c0-.5 0-.8-.3-1s-.4-.4-.7-.4c-.4 0-.6.1-.8.3s-.3.6-.3 1v2.7c0 .4 0 .8.3 1 .2.2.4.4.8.4.3 0 .6-.2.7-.4.2-.2.3-.6.3-1zm2.8-4.3v4.3c0 .9.3 1.4 1 1.4s1-.5 1-1.4v-4.5h.6v6.4h-.5l-.1-.2v-.3c-.3.4-.6.6-1 .6-.6 0-1-.2-1.3-.6-.3-.3-.4-1-.4-1.7v-4.2h.6v.2zm5.9.5l-.3-.1c-.3 0-.5.1-.6.4v5.2l-.1.2h-.6v-6.4h.6v.3c.3-.2.6-.4 1-.4h.2v.7h-.2zm5.6-.2c-.6 0-1 .4-1 1.1v.3h-.7v-.2c0-.5 0-1 .3-1.3.3-.4.7-.5 1.3-.5 1.1 0 1.7.7 1.7 2.3v3.2l.1.8c0 .2 0 .2-.2.2h-.5v-.4c-.4.3-.8.5-1.3.5s-.9-.2-1.1-.5c-.3-.3-.5-.7-.5-1.2v-.5c0-.3.1-.7.3-1s.4-.4.7-.5l.8-.3.7-.3c.2-.1.3-.3.3-.5 0-.3 0-.6-.2-.9-.2-.2-.5-.3-.8-.3zm0 5.4c.4 0 .6-.2.8-.4.2-.2.2-.5.2-1V374l-.6.2-.6.3c-.7.3-1 .7-1 1.4 0 .9.5 1.3 1.3 1.3zm3.9-7.2v1.4l.1.1h.5v.6h-.5l-.1.2v4.4c.1.3.2.4.5.4h.2v.6h-.2c-.5 0-.8-.1-1-.5l-.2-.8v-4.1l-.1-.2h-.2v-.5h.2l.1-.2v-1.6h.7v.2zm2.6 0v1.4l.1.1h.4l.1.3v.3h-.5l-.1.2v4.4c0 .3.2.4.4.4h.3v.6h-.3c-.4 0-.7-.1-.9-.5l-.2-.8v-4.1l-.1-.2h-.2v-.5h.2l.1-.2v-1.6h.7v.2zm1.8 5.5v-2c0-.8.1-1.4.4-1.8.3-.4.8-.5 1.3-.5s1 .1 1.3.5c.3.4.5 1 .5 1.8v.7l-.1.2h-2.7v1.3c0 .5 0 .9.2 1.1.2.2.5.4.8.4.3 0 .6-.1.7-.3l.4-.9v-.2h.6v.1c0 .5-.1 1-.4 1.3-.3.4-.7.6-1.3.6-.5 0-1-.2-1.3-.6s-.4-1-.4-1.7zm.6-2.3v.6H36v-.6c0-.5 0-.8-.2-1s-.5-.4-.8-.4c-.3 0-.6.1-.8.3s-.3.6-.3 1zm4.6-2.6c-.1 0-.3 0-.3-.2v-.4l.3-.2c.2 0 .3 0 .4.2v.4l-.4.2zm.4.9v6.2h-.7l-.1-.2v-6.2h.8v.2zm4.2 6v-4.3c0-1-.3-1.4-1-1.4-.6 0-1 .4-1 1.4v4.5h-.6v-6.4h.6v.4c.3-.3.6-.5 1-.5.6 0 1 .1 1.3.5.3.4.4 1 .4 1.8v4.2h-.6v-.2zm5.5-8.6v8.8h-.7v-.5c-.3.4-.7.6-1.1.6-.5 0-1-.2-1.3-.6-.2-.3-.4-1-.4-1.7v-2c0-.8.2-1.4.4-1.8.3-.4.8-.6 1.3-.5.4 0 .8.1 1 .5v-2.9l.3-.1h.4l.1.3zm-2.7 4.3v2.6c0 .9.3 1.4 1 1.4s1-.5 1-1.4v-2.6c0-1-.3-1.4-1-1.4s-1 .4-1 1.4zm5.9-1.2l-.3-.1c-.3 0-.5.1-.6.4v5.2l-.1.2h-.6v-6.4h.6v.3c.3-.2.6-.4 1-.4h.2v.7h-.2zm1 3.5v-2c0-.8.1-1.4.5-1.8.3-.4.7-.5 1.2-.5.6 0 1 .1 1.3.5.3.4.5 1 .5 1.8v.9h-2.8v1.3c0 .5 0 .9.3 1.1.1.2.4.4.7.4.4 0 .6-.1.8-.3.2-.3.3-.5.3-.9v-.2h.6v.1c0 .5-.1 1-.4 1.3-.3.4-.7.6-1.3.6-.5 0-1-.2-1.2-.6s-.5-1-.5-1.7zm.7-2.3v.6h2.1v-.6c0-.5 0-.8-.3-1s-.4-.4-.8-.4c-.3 0-.5.1-.7.3s-.3.6-.3 1zm10.2 0v4.5H63v-4.5c0-1-.4-1.4-1-1.4-.7 0-1 .4-1 1.4v4.3l-.1.2h-.6v-6.4h.7v.4c.3-.3.6-.5 1-.5.7 0 1.2.2 1.5.7.3-.5.7-.7 1.3-.7.5 0 1 .1 1.2.5.3.4.5 1 .5 1.8v4l-.1.2h-.6v-4.5c0-1-.4-1.4-1-1.4-.7 0-1 .4-1 1.4zm4.1 2.3v-2c0-.8.2-1.4.5-1.8.3-.4.7-.5 1.3-.5.5 0 1 .1 1.3.5.3.4.4 1 .4 1.8v2c0 .8-.1 1.3-.4 1.7-.3.4-.8.6-1.3.6-.6 0-1-.2-1.3-.6s-.5-1-.5-1.7zm2.9.3v-2.6c0-.5-.1-.8-.3-1s-.5-.4-.8-.4c-.3 0-.6.1-.8.3s-.3.6-.3 1v2.7c0 .4.1.8.3 1 .2.2.5.4.8.4.3 0 .6-.2.8-.4.2-.2.3-.6.3-1zm4.8 1.7v-4.3c0-1-.4-1.4-1-1.4-.7 0-1 .4-1 1.4v4.3l-.1.2h-.6v-6.4h.6v.4c.3-.3.7-.5 1-.5.6 0 1 .1 1.3.5.3.4.5 1 .5 1.8v4.2h-.7v-.2zm4.6-2v-2c0-.8.2-1.4.5-1.8.3-.4.8-.5 1.3-.5.6 0 1 .1 1.3.5.3.4.5 1 .5 1.8v2c0 .8-.2 1.3-.5 1.7-.3.4-.7.6-1.3.6-.5 0-1-.2-1.3-.6s-.4-1-.4-1.7zm2.9.3v-2.6c0-.5-.1-.8-.3-1s-.5-.4-.8-.4c-.3 0-.6.1-.8.3s-.3.6-.3 1v2.7c0 .4.1.8.3 1 .2.2.5.4.8.4.3 0 .6-.2.8-.4.2-.2.3-.6.3-1zm2.1 1.7v-8.8l.3-.1h.3v3.2c.3-.3.7-.5 1.1-.5.5 0 1 .1 1.2.5.3.4.5 1 .5 1.8v2c0 .8-.2 1.4-.5 1.7-.2.4-.7.6-1.2.6-.4 0-.8-.2-1-.6v.5H85l-.1-.2zm2.7-1.7v-2.6c0-1-.3-1.4-1-1.4s-1 .4-1 1.4v2.6c0 .9.3 1.4 1 1.4s1-.5 1-1.4zm1.6 3.7c.2 0 .3-.2.4-.4l.1-1v-6.8h.7l.1.2v7.7c-.2.6-.6.9-1.2.9H89l-.1-.3v-.3h.3zm.6-9a.3.3 0 0 1-.1-.4c0-.2.1-.3.2-.3l.4.1c.2.1.2.3.2.4l-.3.3-.4-.1zm2.1 5v-2c0-.8.1-1.4.4-1.8.3-.4.8-.5 1.3-.5s1 .1 1.3.5c.3.4.4 1 .4 1.8v.9h-2.7v1.3c0 .5 0 .9.2 1.1.2.2.5.4.8.4.3 0 .6-.1.7-.3.2-.3.3-.5.3-.9l.1-.2h.6v.1c0 .5-.2 1-.4 1.3-.3.4-.7.6-1.3.6-.5 0-1-.2-1.3-.6s-.5-1-.5-1.7zm.6-2.3v.6h2.1v-.6c0-.5 0-.8-.2-1s-.5-.4-.8-.4c-.3 0-.6.1-.8.3s-.3.6-.3 1zm5.9 4.6c-.5 0-1-.2-1.3-.6s-.5-1-.5-1.7v-2c0-.8.2-1.4.5-1.8.3-.4.8-.5 1.3-.5.6 0 1 .1 1.3.5.3.4.4.8.4 1.3v.2h-.6v-.3c0-.3-.2-.6-.4-.8a1 1 0 0 0-.7-.3c-.3 0-.6.1-.8.3s-.3.6-.3 1v2.7c0 .4.1.8.3 1 .2.2.5.4.8.4.3 0 .6-.1.7-.3.2-.2.3-.5.4-.9v-.2h.6v.1c0 .5-.1 1-.4 1.3-.3.4-.7.6-1.3.6zm3.8-7.8v1.4l.2.1h.4v.6h-.4c-.1 0-.2 0-.2.2v4.4c.1.3.3.4.5.4h.2v.6h-.2c-.5 0-.8-.1-1-.5l-.1-.8v-4.1l-.2-.2h-.2v-.5h.2l.1-.2V370l.1-.2h.6v.2zm2.3.6c-.2 0-.3 0-.4-.2v-.4l.4-.2c.1 0 .3 0 .3.2.1.1.1.3 0 .4l-.3.2zm.3.9v6.2h-.6v-6.4h.6v.2zm3.1-2.3c-.3 0-.6.2-.7.4a3 3 0 0 0-.1 1.2v.7h.8v.6h-.7l-.1.2v5.2l-.1.2h-.6v-5.4c0-.1 0-.2-.2-.2h-.2v-.5h.2l.2-.2v-1.1a4.9 4.9 0 0 1 .2-1v-.1l.2-.1v-.1l.1-.1c.1-.1.1 0 .1 0 .2-.2.6-.3 1-.3h.2v.6h-.2zm5 6.5v-.5c0-.7.2-1.5.7-2.3.4-.8.7-1.5.7-2.2 0-1-.4-1.5-1.1-1.5-.3 0-.6 0-.8.3s-.3.6-.3 1v.3h-.6v-.2c0-.7.1-1.1.4-1.5s.7-.6 1.3-.6c.5 0 1 .2 1.2.6.4.3.5.9.5 1.5 0 .8-.2 1.6-.7 2.4-.4.8-.7 1.5-.7 2.2v.7h-.6v-.2zm.7 1.6l-.1.3-.3.1c-.2 0-.3 0-.4-.2v-.5h.6c.1 0 .2.1.2.3z"/><path fill="#328EC7" stroke="#328EC7" stroke-miterlimit="10" d="M284.5 141.5h1v139h-1z"/><path fill="#4A4A4A" d="M258.7 313.9v6.4c0 .7.1 1.2.4 1.5.3.3.7.5 1.2.5s1-.2 1.2-.5c.4-.3.5-.8.5-1.5v-.2c0-.1.1-.2.3-.2h.3c.2 0 .3 0 .3.2v.1c0 1-.2 1.7-.7 2.2s-1 .7-1.9.7c-.8 0-1.4-.2-1.8-.7s-.7-1.2-.7-2.2V314c0-1 .2-1.6.7-2.1s1-.8 1.8-.8 1.4.3 1.9.8.7 1.2.7 2.1v.1c0 .2-.1.3-.3.3h-.3c-.2 0-.3 0-.3-.3v-.1c0-.7-.1-1.2-.5-1.5-.3-.4-.7-.5-1.2-.5s-.9.1-1.2.5c-.3.3-.4.8-.4 1.5zm5.8 6.2v-2.6c0-1 .2-1.8.6-2.3a2 2 0 0 1 1.7-.7c.7 0 1.3.2 1.7.7s.6 1.2.6 2.3v2.6c0 1-.2 1.8-.6 2.3s-1 .7-1.7.7a2 2 0 0 1-1.7-.7c-.4-.5-.6-1.3-.6-2.3zm3.7.4V317c0-.6-.1-1-.4-1.4s-.6-.4-1-.4-.8.1-1 .4c-.3.3-.4.8-.4 1.4v3.4c0 .6.1 1 .4 1.4.2.3.6.4 1 .4s.8-.1 1-.4c.3-.3.4-.8.4-1.4zm7.2-3.4v5.9h-.8v-6c0-1.2-.5-1.8-1.4-1.8-.9 0-1.3.6-1.3 1.8v5.6l-.1.3h-.8v-8.4h.8v.6c.4-.5.8-.7 1.4-.7.9 0 1.5.3 1.8 1 .5-.7 1-1 1.8-1 .7 0 1.2.2 1.6.7.4.5.6 1.2.6 2.3v5.2l-.1.3h-.7l-.1-.3V317c0-1.2-.5-1.8-1.4-1.8-.8 0-1.3.6-1.3 1.8zm5.6 5.6v-11.5h.7l.1.3v3.7c.3-.5.8-.7 1.4-.7.7 0 1.2.2 1.6.7.4.5.6 1.2.6 2.3v2.6c0 1-.2 1.8-.6 2.3-.4.5-1 .8-1.6.7-.6 0-1-.2-1.4-.7v.6h-.8v-.3zm3.5-2.2V317c0-1.2-.5-1.8-1.4-1.8-.8 0-1.3.6-1.3 1.8v3.4c0 1.2.5 1.8 1.3 1.8 1 0 1.4-.6 1.4-1.8zm3.2-6.7a.5.5 0 0 1-.5-.3v-.6c0-.2.3-.2.5-.2s.4 0 .5.2v.6c-.1.2-.3.3-.5.3zm.4 1v8.2h-.8v-8.4h.8v.3zm1.9 5.3v-2.6c0-1 .2-1.8.6-2.3a2 2 0 0 1 1.7-.7c.7 0 1.3.2 1.7.7s.6 1.2.6 2.3v1.1l-.4.1H291v1.9c0 .6.1 1 .4 1.4.2.3.6.4 1 .4s.7-.1 1-.4l.4-1v-.4h.8v.2c0 .6-.2 1.2-.5 1.7-.4.5-1 .7-1.7.7a2 2 0 0 1-1.7-.7c-.4-.5-.6-1.3-.6-2.3zm.9-3v.8h2.8v-.8c0-.6-.1-1-.4-1.4s-.6-.4-1-.4-.8.1-1 .4c-.3.3-.4.8-.4 1.4zm9.1 5.6v-5.6c0-1.2-.4-1.8-1.3-1.8s-1.3.6-1.3 1.8v5.6l-.1.3h-.8v-8.4h.8v.6c.4-.5.8-.7 1.4-.7.7 0 1.2.2 1.6.7.4.5.6 1.2.6 2.3v5.5h-.8v-.3zm-61.1 106.1v6.5c0 .6.1 1.1.4 1.5.3.3.7.5 1.3.5s.9-.2 1.2-.5c.3-.4.4-.9.4-1.5v-.2c0-.2.1-.3.4-.3h.2c.2 0 .3.1.3.3v.1c0 1-.2 1.7-.7 2.2s-1 .7-1.8.7-1.5-.2-2-.7-.6-1.2-.6-2.2v-6.3c0-1 .2-1.7.7-2.2s1-.7 1.9-.7c.7 0 1.4.3 1.8.7s.7 1.3.7 2.2v.1c0 .2-.1.3-.3.3h-.2c-.3 0-.4-.1-.4-.3v-.2c0-.6-.1-1.1-.4-1.5-.3-.3-.7-.5-1.2-.5s-1 .2-1.3.5c-.3.4-.4.9-.4 1.5zm5.8 6.2v-2.6c0-1 .2-1.7.7-2.2a2 2 0 0 1 1.6-.8c.7 0 1.3.3 1.7.8s.6 1.2.6 2.2v2.7c0 1-.2 1.8-.6 2.3s-1 .7-1.7.7a2 2 0 0 1-1.6-.7c-.5-.5-.7-1.3-.7-2.3zm3.7.5V432c0-.6-.1-1.1-.4-1.4s-.5-.5-1-.5c-.4 0-.7.2-1 .5-.3.3-.4.8-.4 1.4v3.4c0 .6.1 1 .4 1.3.3.3.6.5 1 .5.5 0 .8-.2 1-.5.3-.3.4-.7.4-1.3zm7.2-3.5v6h-.8v-6c0-1.2-.5-1.9-1.4-1.9-.9 0-1.3.7-1.3 1.9v5.6l-.1.3h-.7l-.1-.3v-8.1l.3-.1h.5v.7c.4-.5.9-.8 1.4-.8.9 0 1.5.3 1.9 1 .4-.6 1-1 1.7-1s1.2.2 1.6.7c.4.5.6 1.3.6 2.3v5.3l-.1.3h-.7l-.1-.3V432c0-1.2-.5-1.9-1.3-1.9-1 0-1.4.7-1.4 1.9zm10 0v6h-.8l-.1-.3V432c0-1.2-.4-1.9-1.3-1.9-1 0-1.4.7-1.4 1.9v6h-.8v-8.4l.3-.1h.5v.7c.4-.5.8-.8 1.4-.8.8 0 1.4.3 1.8 1 .4-.6 1-1 1.7-1s1.3.2 1.7.7c.3.5.5 1.3.5 2.3v5.6h-.8v-6c0-1.2-.5-1.9-1.4-1.9-.9 0-1.3.7-1.3 1.9zm5.4 3v-2.6c0-1 .1-1.7.5-2.2a2 2 0 0 1 1.7-.8c.7 0 1.3.3 1.7.8s.6 1.2.6 2.2v1.2h-3.3l-.3.1v1.8c0 .6 0 1 .3 1.3.2.3.6.5 1 .5s.8-.2 1-.4c.2-.3.4-.6.4-1.1v-.3l.3-.1h.5v.3c0 .6-.2 1.2-.5 1.7-.4.5-1 .7-1.7.7a2 2 0 0 1-1.7-.7c-.4-.5-.6-1.3-.6-2.3zm.8-3v.8h2.8v-.7c0-.6-.1-1.1-.4-1.4s-.5-.5-1-.5c-.4 0-.8.2-1 .5-.3.3-.4.8-.4 1.4zm9.2 5.7V432c0-1.2-.5-1.9-1.4-1.9-.9 0-1.3.7-1.3 1.9v5.6l-.1.3h-.7l-.1-.3v-8.1l.3-.1h.5v.7c.4-.5.9-.8 1.4-.8.7 0 1.3.2 1.6.7.4.5.6 1.3.6 2.3v5.6h-.8v-.3zm3.7-9.7v1.7l.1.2h.6l.1.3v.4l-.3.1h-.4l-.1.2v5.8c.1.3.3.5.6.5l.3.1v.7h-.3c-.6 0-1-.2-1.2-.6-.2-.3-.2-.7-.3-1v-5.5c0-.1 0-.2-.2-.2h-.2l-.1-.3v-.4l.3-.1c.1 0 .2 0 .2-.2v-2h.8v.3z"/><path fill="#41D5CF" stroke="#41D5CF" stroke-miterlimit="10" d="M230.5 356.5h1v134h-1z"/><path fill="#94F2FF" stroke="#94F2FF" stroke-miterlimit="10" d="M250.5 286.5h1v63h-1z"/><path fill="#4A4A4A" d="M33 273.7v4.8c0 1-.3 1.7-1 2l.2.8c0 .1 0 .2-.2.3h-.2c-.1 0-.2 0-.3-.2l-.2-.7a2 2 0 0 0-.2 0c-.6 0-1-.2-1.4-.5-.4-.4-.6-1-.6-1.7v-4.8c0-.7.2-1.3.6-1.6s.8-.6 1.4-.6c.6 0 1 .2 1.4.5s.5 1 .5 1.7zm-.6 4.9v-5c0-.5-.1-.8-.4-1-.2-.4-.5-.5-1-.5a1 1 0 0 0-.8.4c-.3.3-.4.6-.4 1.1v5c0 .5.1.9.4 1.1.2.3.5.4.9.4s.7-.1 1-.4c.2-.2.3-.6.3-1.1zm2.7-4.2v4.3c0 1 .3 1.4 1 1.4s1-.5 1-1.4v-4.5h.7v6.4h-.6v-.4c-.3.3-.7.5-1.1.5-.5 0-1-.1-1.2-.5a3 3 0 0 1-.5-1.8v-4.2h.6l.1.2zm4.2 4v-2c0-.8.1-1.4.4-1.7.3-.4.8-.6 1.3-.6s1 .2 1.3.6c.3.3.5 1 .5 1.7v.7l-.1.2h-2.5l-.2.1v1.3c0 .5 0 .8.2 1 .2.3.5.4.8.4.3 0 .6 0 .7-.3l.4-.8v-.3h.6v.2c0 .5-.1.9-.4 1.3-.3.4-.7.5-1.3.5-.5 0-1-.2-1.3-.5a3 3 0 0 1-.5-1.8zm.6-2.3v.6H42v-.6c0-.4 0-.8-.2-1s-.5-.4-.8-.4c-.3 0-.6.1-.8.4s-.3.6-.3 1zm5.4 3.9l.2.1v.5h-.2c-.5 0-.8 0-1-.4l-.2-.8v-7.8h.7l.1.2v7.9c.1.2.2.3.5.4zm6.5-1.6v-2c0-.8.2-1.4.5-1.7.3-.4.7-.6 1.3-.6.5 0 1 .2 1.3.6.3.3.4 1 .4 1.7v.9h-2.5l-.3.1v1.3c0 .5.1.8.3 1 .2.3.4.4.8.4.3 0 .5 0 .7-.3.2-.2.3-.5.3-.8v-.3h.7v.2c0 .5 0 .9-.4 1.3-.2.4-.7.5-1.2.5-.6 0-1-.2-1.3-.5a3 3 0 0 1-.5-1.8zm.7-2.3v.6h2.1v-.6c0-.4 0-.8-.2-1s-.5-.4-.8-.4c-.4 0-.6.1-.8.4s-.3.6-.3 1zm7.1-.5v.2h-.4c-.1 0-.2 0-.2-.2a1 1 0 0 0-.3-.6c-.1-.2-.3-.3-.6-.3s-.4.1-.6.3c-.2.2-.2.4-.2.6 0 .2 0 .4.2.7l.7.6.7.6.7.7c.2.3.2.6.2.9 0 .5-.2.9-.5 1.2-.3.3-.7.4-1.2.4s-.9-.1-1.2-.4a2 2 0 0 1-.5-1.2v-.2l.2-.1h.2c.1 0 .2 0 .2.3s.2.5.4.7c.2.2.4.3.7.3a1 1 0 0 0 1-1c0-.4 0-.6-.4-1l-.8-.7-1-.8c-.2-.3-.3-.6-.3-1s.1-.8.4-1 .7-.5 1.1-.5c.4 0 .8.1 1 .4.3.3.5.6.5 1zm2.1-2.6v1.3l.1.2h.5v.5h-.5l-.1.2v4.5c.1.2.2.3.5.4h.2v.5h-.2c-.5 0-.8 0-1-.4l-.2-.8v-4.1l-.1-.2h-.2v-.6h.2l.1-.2v-1.5h.7l.1.2zm5.6 7l.2.1v.5h-.2c-.5 0-.8 0-1-.4l-.1-.8v-7.8h.6v8.1l.5.4zm1-8l.1-.3.3-.2.4.2v.6c0 .2-.2.5-.5.8h-.2v-.2l.2-.4-.2-.2-.1-.3zm1.8 6.4v-2c0-.8.2-1.4.5-1.7.3-.4.8-.6 1.3-.6s1 .2 1.3.6c.3.3.4 1 .4 1.7v2c0 .8-.1 1.4-.4 1.8-.3.3-.8.5-1.3.5s-1-.2-1.3-.5a3 3 0 0 1-.5-1.8zm2.9.3v-2.6c0-.4-.1-.8-.3-1s-.5-.4-.8-.4c-.3 0-.6.1-.8.4s-.3.6-.3 1v2.6c0 .5.1.8.3 1 .2.3.5.4.8.4.3 0 .6-.1.8-.3.2-.3.3-.6.3-1zm2 1.7v-8.6l.1-.2h.6v3.1c.3-.4.7-.6 1.1-.6.5 0 1 .2 1.2.5.3.4.5 1 .5 1.8v2a3 3 0 0 1-.5 1.8c-.3.4-.7.5-1.2.5-.4 0-.8-.2-1-.5v.2l-.1.2h-.6v-.2zm2.8-1.7v-2.6c0-1-.3-1.4-1-1.4s-1 .5-1 1.4v2.6c0 1 .3 1.4 1 1.4s1-.5 1-1.4zm1.5 3.7c.3 0 .4-.1.5-.3l.1-1v-6.9h.7v8c-.2.5-.5.8-1.2.8h-.2v-.5l.2-.1zm.6-9a.3.3 0 0 1 0-.4c0-.1 0-.2.2-.3.2 0 .3 0 .4.2.2 0 .2.2.1.4l-.3.2H80zm2.1 5v-2c0-.8.2-1.4.5-1.7.3-.4.7-.6 1.3-.6.5 0 1 .2 1.3.6.3.3.4 1 .4 1.7v.9H83l-.3.1v1.3c0 .5.1.8.3 1 .2.3.4.4.8.4.3 0 .5 0 .7-.3.2-.2.3-.5.3-.8v-.3h.6v.2c0 .5 0 .9-.4 1.3-.2.4-.7.5-1.2.5-.6 0-1-.2-1.3-.5a3 3 0 0 1-.5-1.8zm.7-2.3v.6h2.1v-.6c0-.4 0-.8-.2-1s-.5-.4-.8-.4c-.4 0-.6.1-.8.4s-.3.6-.3 1zm5.9 4.6c-.6 0-1-.2-1.3-.5a3 3 0 0 1-.5-1.8v-2c0-.8.2-1.4.5-1.7.3-.4.7-.6 1.3-.6.6 0 1 .2 1.3.6.2.3.4.8.4 1.2v.2h-.7v-.2c0-.4-.2-.7-.4-.9a1 1 0 0 0-.7-.3c-.3 0-.6.1-.8.4s-.3.6-.3 1v2.6c0 .5.1.8.3 1 .2.3.5.4.8.4.3 0 .5-.1.7-.3.2-.2.3-.5.3-.8v-.3h.6v.2c0 .5 0 .9-.4 1.3-.2.4-.7.5-1.2.5zm3.8-7.7v1.3l.1.2h.5v.5h-.5v4.7c0 .2.2.3.4.4h.2v.5h-.2c-.5 0-.8 0-1-.4l-.1-.8v-4.1c0-.2-.1-.2-.2-.2h-.2v-.6h.2l.1-.2v-1.5h.7v.2zm2.3.6l-.4-.2v-.5l.4-.2.3.2v.5l-.3.2zm.3.8v6.2h-.7v-6.4h.5v.2zm3.2-2.2c-.4 0-.7.1-.8.3a3 3 0 0 0-.2 1.3v.5c0 .1 0 .2.2.2h.7v.5h-.7l-.2.2v5.4h-.6v-5.4l-.2-.1h-.2v-.6h.2c.1 0 .2 0 .2-.2v-1.1a4.9 4.9 0 0 1 .2-1v-.1l.2-.1a5 5 0 0 1 .2-.2c.2-.2.5-.3 1-.3l.2.1v.5h-.2zm-70.9 18.2c-.7 0-1 .4-1 1.1l-.1.3h-.6v-.2c0-.5.1-1 .4-1.3.3-.3.7-.5 1.3-.5 1 0 1.7.7 1.7 2.3v4c.1.2 0 .3-.2.3h-.2l-.2-.1-.1-.4c-.3.3-.7.5-1.2.5s-1-.1-1.2-.4c-.3-.3-.4-.8-.4-1.3v-.4c0-.4 0-.7.2-1l.7-.6c.2-.2.6-.2.9-.3l.7-.3c.2-.1.3-.3.3-.5 0-.3-.1-.6-.3-.8-.2-.3-.4-.4-.8-.4zm0 5.4c.3 0 .6-.2.7-.4.2-.2.3-.5.3-.9v-2l-.7.3-.6.3c-.6.3-1 .7-.9 1.4 0 1 .4 1.3 1.2 1.3zm0-6.6H27v-.2l-.3-1.2c0-.2 0-.3.2-.3h.1c.2 0 .3 0 .3.3v1.3zm7.4 1.2c-.6 0-1 .4-1 1.1v.3H33v-.2c0-.5 0-1 .4-1.3.2-.3.6-.5 1.2-.5 1.1 0 1.7.7 1.7 2.3v3.2l.1.8c0 .2 0 .3-.2.3H36l-.2-.1v-.4c-.4.3-.8.5-1.3.5s-.9-.1-1.1-.4c-.3-.3-.5-.8-.5-1.3v-.4c0-.4.1-.7.3-1l.7-.6.8-.3.7-.3c.2-.1.3-.3.3-.5 0-.3 0-.6-.2-.8a1 1 0 0 0-.8-.4zm0 5.4c.4 0 .6-.2.8-.4.2-.2.2-.5.2-.9v-2l-.6.3-.6.3c-.7.3-1 .7-1 1.4.1 1 .5 1.3 1.3 1.3zm3.9-7.1v1.3l.1.1h.5v.7h-.5l-.1.2v4.5c.1.2.2.3.5.3h.2v.6H39c-.5 0-.8-.1-1-.5l-.2-.8V291l-.1-.1-.2-.1v-.6h.2l.1-.2v-1.5h.8l.1.2zm2.6 0v1.3l.1.1h.5v.7h-.5l-.1.2v4.5c0 .2.2.3.5.3h.2v.6h-.2c-.5 0-.8-.1-1-.5l-.2-.8V291l-.1-.1-.2-.1v-.6h.2l.1-.2v-1.5h.7v.2zm1.8 5.4v-2c0-.8.1-1.4.4-1.8.3-.3.8-.5 1.3-.5s1 .2 1.3.5c.3.4.5 1 .5 1.8v.7l-.1.2h-2.7v1.3c0 .5 0 .9.2 1.1.2.3.5.4.8.4.3 0 .6-.1.8-.3l.3-.9v-.2h.6v.2c0 .4-.1.9-.4 1.3-.3.3-.7.5-1.3.5-.5 0-1-.2-1.3-.6s-.4-1-.4-1.7zm.6-2.3v.6h2.1v-.6c0-.5 0-.8-.2-1s-.5-.4-.8-.4c-.3 0-.6.1-.8.3s-.3.6-.3 1zm4.6-2.6c-.1 0-.2 0-.3-.2v-.4l.3-.2c.2 0 .3 0 .4.2v.4c0 .2-.2.2-.4.2zm.4.9v6.2H48l-.1-.2v-6.2h.7v.2zm4.3 5.9v-4.2c0-1-.4-1.4-1-1.4-.7 0-1 .5-1 1.4v4.3l-.1.2h-.6v-6.5h.6v.4c.3-.3.6-.5 1-.5.6 0 1 .1 1.3.5.3.4.4 1 .4 1.8v4.2H53v-.2zm5.4-8.5v8.8h-.7v-.4c-.3.3-.7.5-1.1.5-.5 0-1-.2-1.3-.5a4 4 0 0 1-.4-1.8v-2c0-.8.2-1.4.4-1.8.3-.4.8-.5 1.3-.5.4 0 .8.2 1 .5v-3h.8l.1.2zm-2.7 4.3v2.6c0 1 .3 1.4 1 1.4s1-.5 1-1.4v-2.6c0-1-.3-1.4-1-1.4s-1 .5-1 1.4zm5.9-1.2l-.3-.1c-.3 0-.5.1-.6.4v5.2l-.1.2H60v-6.5h.5v.4c.3-.2.6-.4 1-.4h.2v.7h-.2zm1 3.5v-2c0-.8.2-1.4.5-1.8.3-.3.7-.5 1.2-.5.6 0 1 .2 1.3.5.3.4.5 1 .5 1.8v.9h-2.8v1.3c0 .5 0 .9.3 1.1.1.3.4.4.7.4.4 0 .6-.1.8-.3.2-.2.3-.5.3-.9v-.2h.7v.2c0 .4-.1.9-.4 1.3-.3.3-.7.5-1.3.5-.5 0-1-.2-1.2-.6s-.5-1-.5-1.7zm.7-2.3v.6h2.1v-.6c0-.5 0-.8-.3-1s-.4-.4-.8-.4c-.3 0-.5.1-.7.3s-.3.6-.3 1zm6.8 6.6v-8.3l.1-.2h.6v.4c.3-.3.6-.5 1-.5.6 0 1 .1 1.3.5.3.4.5 1 .5 1.8v2a3 3 0 0 1-.5 1.8c-.3.3-.7.5-1.2.5s-.8-.2-1-.6v2.6l-.1.2-.2.1h-.4v-.3zm2.8-4v-2.6c0-1-.4-1.4-1-1.4-.7 0-1 .5-1 1.4v2.6c0 1 .3 1.4 1 1.4.6 0 1-.5 1-1.4zm2-.3v-2c0-.8.1-1.4.4-1.8.3-.3.8-.5 1.3-.5s1 .2 1.3.5c.3.4.5 1 .5 1.8v2c0 .8-.2 1.4-.5 1.7-.3.4-.8.6-1.3.6s-1-.2-1.3-.6-.4-1-.4-1.7zm2.8.3v-2.6c0-.5-.1-.8-.3-1s-.5-.4-.8-.4c-.3 0-.6.1-.8.3s-.3.6-.3 1v2.7c0 .4.1.8.3 1 .2.3.5.4.8.4.3 0 .6-.1.8-.4.2-.2.3-.6.3-1zm2.7-4.4v4.4c0 1 .3 1.4 1 1.4s1-.5 1-1.4V290l.1-.2h.6v6.4h-.6v-.5c-.3.4-.7.6-1.1.6-.5 0-1-.2-1.2-.5a3 3 0 0 1-.5-1.8v-4.2h.7l.1.2zm5.9.6l-.3-.1c-.3 0-.5.1-.6.4v5.4h-.7v-6.5h.6v.4c.3-.2.6-.4 1-.4h.2v.7h-.2zm6.9.7v.2h-.3c-.2 0-.3 0-.3-.2a1 1 0 0 0-.3-.6l-.6-.3c-.2 0-.5 0-.6.3-.2.1-.3.3-.3.6l.3.6.6.7.8.5.7.8.2.8c0 .5-.2 1-.5 1.2a2 2 0 0 1-1.2.5c-.5 0-1-.2-1.3-.5-.3-.3-.5-.7-.5-1.2v-.2h.4c.2 0 .3 0 .3.2 0 .4.1.6.3.8.2.2.5.3.8.3a1 1 0 0 0 1-1c0-.4-.1-.7-.4-1l-.9-.7-.8-.8a2 2 0 0 1-.5-1c0-.4.2-.8.5-1 .3-.4.6-.5 1-.5.5 0 .8.1 1.1.4.3.2.5.6.5 1zm1.3 2.8v-2c0-.8.1-1.4.4-1.8.3-.3.8-.5 1.3-.5s1 .2 1.3.5c.3.4.5 1 .5 1.8v.7l-.1.2H95v1.3c0 .5 0 .9.2 1.1.2.3.5.4.8.4.3 0 .6-.1.7-.3.2-.2.3-.5.4-.9v-.2h.7v.2c0 .4-.1.9-.4 1.3-.3.3-.7.5-1.3.5-.5 0-1-.2-1.3-.6s-.4-1-.4-1.7zm.6-2.3v.6h2.1v-.6c0-.5 0-.8-.2-1s-.5-.4-.8-.4c-.3 0-.6.1-.8.3s-.3.6-.3 1zm-84 14.4h-.4c-.3 0-.5.1-.6.4v5.2l-.1.2h-.6v-6.5h.7v.4c.3-.3.6-.4 1-.4h.2v.7H11zm2.7-.2c-.7 0-1 .4-1 1.2l-.1.3H12v-.2c0-.5.1-1 .4-1.3.3-.4.7-.6 1.3-.6 1.1 0 1.7.8 1.7 2.3v4.1c.1.1 0 .2-.2.2h-.4l-.1-.4c-.3.3-.7.5-1.2.5s-.9-.2-1.2-.5c-.3-.3-.4-.7-.4-1.3v-.4c0-.3 0-.7.3-1l.7-.5c.3 0 .5-.2.8-.3l.7-.4c.2-.2.3-.2.3-.4 0-.4-.1-.6-.3-.9a1 1 0 0 0-.7-.3zm0 5.4c.4 0 .6 0 .8-.3l.2-1v-1.9l-.7.3-.6.2c-.6.3-1 .8-.9 1.4 0 1 .4 1.4 1.2 1.3zm3.2 2.7v-8.6h.6v.5c.3-.4.6-.5 1-.6.6 0 1 .2 1.3.6.3.4.5 1 .5 1.7v2c0 .9-.2 1.5-.5 1.8-.3.4-.7.6-1.2.6s-.8-.2-1-.6v2.6l-.1.2H17v-.2zm2.7-4v-2.6c0-1-.4-1.4-1-1.4-.7 0-1 .4-1 1.4v2.5c0 1 .3 1.4 1 1.4.6 0 1-.4 1-1.4zm2.1 4v-8.6h.7v.5c.3-.4.7-.5 1.1-.6.5 0 1 .2 1.3.6.2.4.4 1 .4 1.7v2c0 .9-.2 1.5-.4 1.8-.3.4-.8.6-1.3.6-.4 0-.8-.2-1-.6v2.8h-.8l-.1-.2zm2.7-4v-2.6c0-1-.3-1.4-1-1.4s-1 .4-1 1.4v2.5c0 1 .3 1.4 1 1.4s1-.4 1-1.4zm3.8-3.9h-.3c-.3 0-.5.1-.6.4v5.2l-.1.2h-.6v-6.5h.6v.4c.3-.3.6-.4 1-.4h.2v.7h-.2zm1 3.6v-2c0-.8.1-1.4.4-1.8.3-.4.8-.6 1.3-.6s1 .2 1.3.6c.3.4.5 1 .5 1.7v2a3 3 0 0 1-.5 1.8c-.3.4-.8.6-1.3.6s-1-.2-1.3-.6-.4-1-.4-1.7zm2.8.2v-2.5c0-.5-.1-.9-.3-1s-.5-.4-.8-.4c-.3 0-.6 0-.8.3s-.3.6-.3 1v2.6c0 .5.1.9.3 1.1.2.2.5.3.8.3.3 0 .6 0 .8-.3.2-.2.3-.6.3-1zm3.7 2c-.5 0-1-.1-1.3-.5s-.4-1-.4-1.7v-2c0-.8.1-1.4.4-1.8.3-.4.8-.6 1.3-.6.6 0 1 .2 1.3.6.3.4.4.8.4 1.3v.2h-.6v-.3c0-.3-.2-.6-.3-.8a1 1 0 0 0-.8-.3c-.3 0-.6 0-.8.3s-.3.6-.3 1v2.6c0 .5.1.9.3 1.1.2.2.5.3.8.3.3 0 .6 0 .8-.3l.3-.8v-.2l.2-.1h.4v.2c0 .5-.1 1-.4 1.3-.3.4-.7.6-1.3.6zm5.9-.2v-4.3c0-1-.4-1.4-1-1.4-.7 0-1 .4-1 1.4v4.3l-.1.2H39v-9.2h.5v3.1c.3-.4.6-.6 1-.6.6 0 1 .2 1.3.6.3.4.5 1 .5 1.7v4l-.1.3h-.6v-.2zm2-2v-2c0-.8.2-1.4.5-1.8.3-.4.7-.6 1.3-.6.5 0 1 .2 1.3.6.3.4.4 1 .4 1.7v.9l-.2.1h-2.6v1.3c0 .5.1.9.3 1.1.2.2.4.3.8.3.3 0 .5 0 .7-.3.2-.2.3-.4.3-.8v-.2l.2-.1h.4v.2c0 .5 0 1-.4 1.3-.2.4-.7.6-1.2.6-.6 0-1-.2-1.3-.6s-.5-1-.5-1.7zm.7-2.3v.5h2.1v-.5c0-.5 0-.9-.2-1s-.5-.4-.8-.4c-.4 0-.6 0-.8.3s-.3.6-.3 1zm5.9-1.3H50c-.3 0-.5.1-.6.4v5.2l-.1.2h-.6v-6.5h.5v.4c.3-.3.6-.4 1-.4h.2v.7h-.2zm7.3-3.1v8.9h-.7v-.5c-.3.4-.6.6-1 .6-.6 0-1-.2-1.3-.6-.3-.3-.4-1-.4-1.7v-2c0-.9.1-1.4.4-1.8.3-.4.7-.6 1.2-.6s.8.2 1 .6v-2.9l.1-.2h.6v.2zm-2.8 4.4v2.5c0 1 .4 1.4 1 1.4.7 0 1-.4 1-1.4v-2.5c0-1-.3-1.4-1-1.4-.6 0-1 .4-1 1.4zm4.2 2.3v-2c0-.8.2-1.4.5-1.8.3-.4.7-.6 1.3-.6.5 0 1 .2 1.2.6.3.4.5 1 .5 1.7v.9l-.3.1h-2.5v1.3c0 .5 0 .9.3 1.1.2.2.4.3.8.3.3 0 .5 0 .7-.3.2-.2.3-.4.3-.8v-.2l.2-.1h.4v.2c0 .5-.1 1-.4 1.3-.3.4-.7.6-1.3.6-.5 0-1-.2-1.2-.6s-.5-1-.5-1.7zm.7-2.3v.5h2.1v-.5c0-.5 0-.9-.3-1s-.4-.4-.7-.4c-.4 0-.6 0-.8.3s-.3.6-.3 1zm7.9 3.9h.2l.1.3v.3h-.3c-.4 0-.7-.1-.9-.5l-.2-.8v-7.8h.6v7.2l.1.9c0 .2.2.4.4.4zm1-8.1l.1-.3.3-.1c.2 0 .3 0 .4.2v.5c0 .3-.2.5-.4.8h-.2s-.1-.1 0-.1l.1-.5-.1-.2-.2-.3zm1.9 6.5v-2c0-.8.1-1.4.4-1.8.4-.4.8-.6 1.3-.6.6 0 1 .2 1.3.6.3.4.5 1 .5 1.7v.9l-.3.1h-2.5v1.3c0 .5 0 .9.2 1.1.2.2.5.3.8.3.3 0 .6 0 .8-.3.2-.2.3-.4.3-.8v-.2l.2-.1h.4v.2c0 .5-.1 1-.4 1.3-.3.4-.7.6-1.3.6-.5 0-1-.2-1.3-.6s-.4-1-.4-1.7zm.7-2.3v.5h2.1v-.5c0-.5 0-.9-.3-1s-.4-.4-.8-.4c-.3 0-.6 0-.8.3s-.2.6-.2 1zm6.9 4.3v-4.3c0-1-.3-1.4-1-1.4s-1 .4-1 1.4v4.5h-.7v-6.5h.5v.5c.3-.4.7-.6 1.1-.6.6 0 1 .2 1.3.6.3.4.4 1 .4 1.7v4.3H78v-.2zm1.6 1.9c.3 0 .4 0 .5-.3l.1-1v-6.8l.3-.1h.3v8c-.2.6-.5.9-1.2.9h-.2v-.6h.2zm.6-9a.3.3 0 0 1 0-.3c0-.2 0-.3.2-.3l.4.1c.2.1.2.2.1.4l-.3.3-.4-.1zm2.1 5.1v-2c0-.8.2-1.4.5-1.8.3-.4.7-.6 1.3-.6.5 0 1 .2 1.3.6.3.4.4 1 .4 1.7v.9l-.2.1H83v1.3c0 .5.1.9.3 1.1.2.2.4.3.8.3.3 0 .5 0 .7-.3.2-.2.3-.4.3-.8v-.2l.2-.1h.4v.2c0 .5 0 1-.4 1.3-.2.4-.7.6-1.2.6-.6 0-1-.2-1.3-.6s-.5-1-.5-1.7zm.7-2.3v.5h2.1v-.5c0-.5 0-.9-.2-1s-.5-.4-.8-.4c-.4 0-.6 0-.8.3s-.3.6-.3 1zm4.9-1.7v4.2c0 1 .3 1.4 1 1.4s1-.4 1-1.4v-4.5h.7v6.5H90v-.5c-.3.4-.7.6-1.1.6-.6 0-1-.2-1.3-.6-.3-.3-.4-1-.4-1.7v-4.2l.3-.1h.3v.3zM96 310v-.5c0-.8.2-1.5.6-2.3.5-.8.7-1.5.7-2.3 0-1-.3-1.4-1-1.4-.4 0-.6 0-.8.3s-.3.6-.3 1v.2l-.3.1h-.3v-.3c0-.6 0-1 .4-1.4s.7-.6 1.2-.6c.6 0 1 .2 1.3.6.3.3.5.8.5 1.5 0 .8-.3 1.6-.7 2.4a4 4 0 0 0-.7 2.2v.7H96v-.2zm.7 1.6c0 .1 0 .2-.2.3l-.3.1c-.1 0-.3 0-.3-.2v-.5c.2-.1.3-.2.5 0 .2 0 .3.1.3.3zm-76.5-93.4v4.8c0 1-.4 1.7-1.1 2l.2.7c0 .2 0 .3-.2.4h-.2c-.1 0-.2 0-.3-.2l-.2-.7a2 2 0 0 0-.2 0c-.6 0-1-.2-1.4-.5-.4-.4-.6-1-.6-1.7v-4.8c0-.7.2-1.3.6-1.7s.8-.5 1.4-.5c.6 0 1 .2 1.4.5s.6 1 .6 1.7zm-.7 4.9v-5c0-.5-.1-.8-.4-1.1-.2-.3-.5-.4-.9-.4s-.7.1-1 .4c-.2.3-.3.6-.3 1.1v5c0 .5.1.8.4 1.1.2.3.5.4.9.4s.7-.1 1-.4c.2-.3.3-.6.3-1.1zm2.7-4.2v4.3c0 1 .3 1.4 1 1.4s1-.5 1-1.4v-4.3l.1-.2h.6v6.4h-.6v-.4c-.3.3-.7.5-1.1.5-.5 0-1-.1-1.2-.5a3 3 0 0 1-.5-1.8v-4.2h.7l.1.2zm4.2 4.1v-2.1c0-.8.1-1.4.4-1.7.3-.4.8-.6 1.3-.6s1 .2 1.3.6c.3.3.5 1 .5 1.7v.7l-.1.2h-2.7v1.5c0 .5 0 .8.2 1 .2.3.5.4.8.4.3 0 .6-.1.8-.3l.3-.8v-.3h.6v.2c0 .5-.1.9-.4 1.3-.3.3-.7.5-1.3.5-.5 0-1-.2-1.3-.5-.3-.4-.4-1-.4-1.8zm.6-2.4v.6h2.2v-.6c0-.5-.1-.8-.3-1s-.5-.4-.8-.4c-.3 0-.6.1-.8.4s-.3.5-.3 1zm5.4 3.9l.2.1v.5h-.2c-.5 0-.8-.1-1-.4l-.1-.8v-7.8h.6v8.1c.1.2.3.3.5.3zm3.9-1.5v-2.1c0-.8.2-1.4.5-1.7.3-.4.7-.6 1.3-.6.5 0 1 .2 1.2.6.4.3.5 1 .5 1.7v.9H37v1.5c0 .5 0 .8.3 1 .2.3.4.4.8.4.3 0 .5-.1.7-.3.2-.2.3-.5.3-.8v-.3h.7v.2c0 .5 0 .9-.4 1.3-.3.3-.7.5-1.2.5-.6 0-1-.2-1.3-.5a3 3 0 0 1-.5-1.8zm.7-2.4v.6h2.1v-.6c0-.5 0-.8-.3-1s-.4-.4-.7-.4c-.4 0-.6.1-.8.4s-.3.5-.3 1zm7.1-.6v.3h-.4c-.1 0-.2 0-.2-.2a1 1 0 0 0-.3-.6l-.6-.3-.6.3c-.2.1-.3.3-.3.6l.3.7.7.6.7.6.7.7.2.9c0 .4-.2.8-.5 1.2a2 2 0 0 1-1.2.4c-.5 0-1-.1-1.2-.5-.4-.3-.5-.7-.5-1.1v-.3h.4c.1 0 .2 0 .2.3s.2.5.4.7c.2.2.4.3.7.3a1 1 0 0 0 1-1c0-.4 0-.6-.4-1l-.9-.7c-.3-.2-.6-.4-.8-.8-.3-.3-.4-.6-.4-1s.1-.8.4-1 .7-.5 1-.5c.5 0 .9.1 1.1.4.3.3.5.6.5 1zm2.1-2.5v1.3l.1.2h.5v.5h-.5l-.1.2v4.5c0 .2.2.3.5.3l.2.1v.5h-.2c-.5 0-.8-.1-1-.4l-.2-.8v-4.1l-.1-.2h-.2v-.6h.2l.1-.2v-1.5h.7v.2zm5.6 7l.2.1v.5h-.2c-.5 0-.8-.1-1-.4l-.1-.8v-7.8h.6v8.1c.1.2.3.3.5.3zm1-8.1l.1-.2.3-.2c.2 0 .3 0 .4.2v.6c0 .2-.2.5-.5.8h-.2v-.2l.2-.4-.2-.2-.1-.4zm1.8 6.6v-2.1c0-.8.2-1.4.5-1.7.3-.4.7-.6 1.3-.6.5 0 1 .2 1.3.6.3.3.4 1 .4 1.7v.9h-2.8v1.5c0 .5.1.8.3 1 .2.3.4.4.8.4.3 0 .5-.1.7-.3.2-.2.3-.5.3-.8v-.3h.6v.2c0 .5 0 .9-.4 1.3-.2.3-.7.5-1.2.5-.6 0-1-.2-1.3-.5a3 3 0 0 1-.5-1.8zm.7-2.4v.6h2.1v-.6c0-.5 0-.8-.2-1s-.5-.4-.8-.4c-.3 0-.6.1-.8.4s-.3.5-.3 1zm7 4.4v-4.4c0-1-.4-1.4-1-1.4-.7 0-1 .5-1 1.4v4.3l-.1.2h-.6v-6.3h.6v.5c.3-.4.6-.6 1-.6.6 0 1 .2 1.3.5.3.4.5 1 .5 1.8v4l-.1.2h-.6v-.2zm1.6 1.9c.2 0 .4-.1.4-.3l.2-1v-6.9h.6v8c-.2.5-.6.8-1.2.8h-.2v-.5l.2-.1zm.6-9a.3.3 0 0 1-.1-.4l.3-.3c.1 0 .3 0 .4.2v.3c0 .1 0 .3-.2.3h-.4zm2.1 5.1v-2.1c0-.8.1-1.4.4-1.7.4-.4.8-.6 1.3-.6.6 0 1 .2 1.3.6.3.3.5 1 .5 1.7v.9h-2.8v1.5c0 .5 0 .8.2 1 .2.3.5.4.8.4.3 0 .6-.1.8-.3.2-.2.3-.5.3-.8v-.3h.6v.2c0 .5-.1.9-.4 1.3-.3.3-.7.5-1.3.5-.5 0-1-.2-1.3-.5-.3-.4-.4-1-.4-1.8zm.7-2.4v.6h2.1v-.6c0-.5-.1-.8-.3-1s-.4-.4-.8-.4c-.3 0-.6.1-.8.4s-.2.5-.2 1zm4.8-1.7v4.3c0 1 .4 1.4 1 1.4.7 0 1-.5 1-1.4v-4.3l.1-.2h.6v6.4h-.6v-.4c-.3.3-.6.5-1 .5-.6 0-1-.1-1.3-.5a3 3 0 0 1-.5-1.8v-4l.1-.2h.6v.2zm8.1 4.2v-.4c0-.8.2-1.6.7-2.3.4-.8.7-1.6.7-2.3 0-1-.4-1.5-1.1-1.5a1 1 0 0 0-.8.4c-.2.2-.3.5-.3 1v.2h-.6v-.2c0-.6.1-1.1.4-1.5s.7-.5 1.3-.5c.5 0 1 .2 1.3.5.3.4.4.9.4 1.6 0 .8-.2 1.5-.7 2.3-.4.8-.7 1.6-.7 2.3v.6h-.5l-.1-.2zm.7 1.7l-.1.3h-.3c-.2 0-.3 0-.4-.2l.1-.4c.1-.2.3-.2.5-.1l.2.4z"/><path fill="#00659C" fill-rule="evenodd" d="M121.8 238.5l-4.7 7-.3-2.2c-9.6-.3-19.2-8-24.2-20.3-5.3-13.2-3.7-27.8 3-36.7.2 0 .3.2.5.3-5.2 9.4-3.6 21 1 33.3a22.6 22.6 0 0 0 18.9 14.9l-.2-2.1 6 5.8zm17.1 72.1l-4.7 7-.3-2.2c-9.6-.3-19.2-8-24.2-20.3-5.3-13.2-3.7-27.8 3-36.7.2 0 .3.2.4.3-5.1 9.4-3.5 21 1 33.3a22.6 22.6 0 0 0 19 14.9l-.3-2.1 6 5.8zM157 379l-4.7 6.9-.3-2.1c-9.6-.3-19.3-8-24.2-20.4-5.3-13.1-3.7-27.7 3-36.6l.4.2c-5.2 9.5-3.6 21 1 33.4a22.6 22.6 0 0 0 19 14.8l-.3-2 6 5.8zm19 68l-4.7 6.9-.3-2.1c-9.6-.3-19.3-8-24.2-20.4-5.3-13.1-3.7-27.7 3-36.6l.4.2c-5.2 9.5-3.6 21 1 33.4a22.6 22.6 0 0 0 19 14.8l-.3-2 6 5.8z" clip-rule="evenodd"/><path fill="#00659C" d="M261.8 215h-143l16.8 65H245z"/><path fill="#94F2FF" d="M244.7 286H136.2l17 64h74.1z"/><path fill="#41D5CF" d="M227.2 356h-73.6l17.6 64h38zM172 424l16 58.4 1 4.4c1.3 4.9 2.6 0 2.6 0l.8-2.8 2-7 2.9-10.7 11.4-42.3H172z"/><path fill="#FFF" d="M120.4 181c-.8 0-1.5-.3-2-.9-.5-.5-.8-1.2-.8-2l.1-.3h1c.2 0 .3 0 .3.3 0 .5.2.9.5 1.1.2.3.5.4.9.4s.7-.1.9-.4c.2-.2.4-.5.4-.8 0-.8-.3-1.7-1.2-2.6l-.6-.7a322 322 0 0 1-1.6-2l-.3-.8-.2-.8a2.5 2.5 0 0 1 2.5-2.7c.6 0 1.2.3 1.7.7.4.4.7 1 .8 1.6v.5h-1.3v-.3c0-.4-.2-.6-.4-.8a1 1 0 0 0-.8-.3 1 1 0 0 0-.8.4c-.2.2-.3.5-.2 1 0 .3.2.8.6 1.3l1.2 1.5 1.3 1.6c.4.6.6 1.2.7 1.8.1.8-.1 1.6-.7 2.2-.5.6-1.2 1-2 1zm8.1-7.7l-1.2 7.2-.1.3h-.9l-.1-.3-2.2-11.3c0-.2 0-.3.3-.3h1l.2.3 1.2 6.9h.1l1.2-6.9v-.2h1.1v.2l1.2 6.9h.1l1.3-6.9.1-.2h1c.3 0 .4 0 .3.2l-2.1 11.3-.1.3h-1.2v-.3l-1-7.2h-.2zm11.1-1.3v5.7c0 1-.2 1.8-.7 2.4s-1.2.8-2 .8-1.5-.2-2-.8c-.5-.6-.7-1.4-.7-2.4V172c0-1 .2-1.9.7-2.4.5-.6 1.2-.9 2-.9s1.5.3 2 .9.7 1.3.7 2.4zm-4 0v5.8c0 1.2.4 1.8 1.3 1.8s1.3-.6 1.3-1.8V172c0-1.2-.4-1.8-1.3-1.8s-1.3.6-1.3 1.8zm5-2.1v-.9l.3-.1h4.7l.1.3v1h-1.8v10.4l-.1.2h-1.3v-10.3l-.1-.2h-1.5l-.2-.1-.1-.3zm9.5 5.5a.8.8 0 0 1-.2-.6c0-.2 0-.4.2-.5l.6-.3.6.3c.2.1.2.3.2.5 0 .3 0 .5-.2.6l-.6.3c-.2 0-.4 0-.6-.3zm0 5.2a.8.8 0 0 1-.2-.6c0-.2 0-.4.2-.6l.6-.2c.2 0 .4 0 .6.2.2.2.2.4.2.6 0 .2 0 .4-.2.6l-.6.3-.6-.3zm11.3.3h-1v-.1l-.2-.2-.2-1v-.4h-2.7l-.1.3-.2 1.1v.2h-1.3v-.2l2.1-11.4.1-.2h1.5l.1.2 2.1 11.4v.2h-.2zm-2.8-9.2l-1 5.8v.3h2.1v-.3l-1-5.8h-.1zm5.9 3.2v5.6l-.1.3H163v-8.4h1.3v.5c.4-.4.8-.6 1.3-.6a2 2 0 0 1 1.7.7c.4.4.6 1.2.6 2.2v5.6h-1.4v-5.9c0-.3 0-.6-.2-.9s-.4-.3-.6-.4h-.6c-.2 0-.4.2-.5.4l-.2.9zm9.8 6h-.7l-.3-.1v-.5c-.5.4-1 .6-1.7.6s-1.2-.2-1.6-.6-.6-1-.6-1.6v-.4c0-.5.1-1 .4-1.3.2-.4.5-.7.9-.8l.6-.2a17.2 17.2 0 0 0 1.2-.5l.4-.4.2-.5a1 1 0 0 0-.3-.7 1 1 0 0 0-.8-.3 1 1 0 0 0-.7.3c-.3.3-.4.5-.4 1v.2h-1.2v-.3c-.1-.7.1-1.3.6-1.8s1-.7 1.8-.7c.6 0 1.2.2 1.7.7.5.5.7 1.1.7 1.9v4.8l.2.8c0 .2 0 .4-.4.4zm-2.3-1.3c.7 0 1-.5 1-1.4v-1.7a22.7 22.7 0 0 1-1.4.7l-.4.2c-.2.2-.4.6-.4 1 0 .3 0 .6.3.8.1.3.4.4.9.4zm5.5-10.4v8.7c0 .6 0 1 .2 1.2.1.2.4.4.8.4l.2.1.1.3v.9h-.3c-1 0-1.5-.2-1.9-.6-.3-.5-.5-1.3-.5-2.3V169h1.3l.1.2zm3.5 3.4l1.1 6.5h.1l1.2-6.5v-.2h1.5c.1 0 0 .1 0 .2l-1.7 8.5c-.2 1.1-.5 1.9-.9 2.3-.4.3-1 .5-1.7.5h-.3v-1.2l.3-.1c.7 0 1-.5.8-1.3l-1.8-8.7v-.2h1.3l.1.2zm9.5 5.7c0 .7-.2 1.3-.7 1.8-.5.6-1.1.8-1.8.8-.8 0-1.4-.2-1.8-.7-.5-.5-.7-1-.7-1.7v-.2l.3-.1h1v.3l.4.8c.2.2.5.3.8.3.2 0 .5 0 .7-.2l.4-.6c0-.4 0-.7-.2-1l-.8-.7-1-.6-1-.9a2 2 0 0 1-.3-1c0-.7.1-1.2.6-1.7.4-.4 1-.6 1.6-.6s1.1.2 1.5.6c.5.5.7 1 .7 1.7v.3h-1.3v-.4a1 1 0 0 0-.3-.7.8.8 0 0 0-.7-.2c-.4 0-.6.2-.7.5-.1.4 0 .7.3 1a82.5 82.5 0 0 1 2.6 2l.4 1.2zm1-.5v-2.4c0-1 .3-1.9.8-2.4.4-.5 1-.7 1.8-.7.7 0 1.3.2 1.8.7.5.5.7 1.3.7 2.4v1.4h-3.3c-.2 0-.2.1-.3.2v1.2c0 .5 0 .8.2 1 .2.3.5.4.9.4.3 0 .5-.1.7-.3.2-.2.4-.5.4-.8v-.4h1.3v.2c0 .6-.1 1.2-.6 1.8-.4.5-1 .8-1.8.8-.7 0-1.4-.2-1.9-.7-.4-.5-.7-1.3-.7-2.4zm3.7-2.5v-.4c0-.5-.1-1-.5-1.2a1 1 0 0 0-1.2 0c-.4.3-.6.7-.6 1.2v.4l.1.2.3.1h1.8v-.3zm10.8 5.6h-.7l-.3-.1v-.5c-.3.4-.7.6-1.3.6a2 2 0 0 1-1.7-.7c-.4-.5-.6-1.2-.6-2.2v-2.8c0-1 .2-1.8.6-2.2a2 2 0 0 1 1.7-.7c.5 0 1 .2 1.3.6V169h1.3v11.8h-.3zm-1-2.6v-3.4l-.2-.9c-.1-.3-.4-.3-.6-.4h-.6c-.2 0-.4.2-.6.4s-.2.6-.2.9v3.4c0 .3 0 .6.2.8.2.3.4.4.6.5h.6c.2 0 .4-.2.6-.5l.2-.8zm6.6 0v-5.9h1.3l.1.3v8.1h-1.5v-.5c-.3.4-.8.6-1.3.6a2 2 0 0 1-1.7-.7c-.4-.5-.6-1.2-.6-2.2v-5.6h1.6v5.9c0 .3.1.6.3.8.1.3.3.4.5.5h.6c.2 0 .4-.2.6-.5l.2-.8zm7.8-3.3v3.2c0 .5 0 .8.3 1 .2.3.5.4.8.4.3 0 .6-.1.8-.3.2-.2.3-.5.3-.8l.1-.4h1.2v.3a2 2 0 0 1-.5 1.7c-.4.5-1 .8-1.9.8-.7 0-1.3-.2-1.8-.7-.5-.5-.7-1.3-.7-2.4v-2.4c0-1 .2-1.9.7-2.4.5-.5 1-.7 1.8-.7s1.5.2 1.9.8c.4.6.6 1.2.6 1.7l-.1.3h-1.2v-.4c0-.3-.2-.6-.4-.8a1 1 0 0 0-.8-.3 1 1 0 0 0-.8.3c-.2.3-.3.6-.3 1zm10.1.4v2.4c0 1-.3 1.9-.8 2.4s-1 .7-1.8.7c-.7 0-1.3-.2-1.8-.7-.5-.5-.7-1.3-.7-2.4v-2.4c0-1 .2-1.9.7-2.4.5-.5 1.1-.7 1.8-.7s1.4.2 1.8.7c.5.5.8 1.3.8 2.4zm-1.4 2.8V175c0-.4-.1-.7-.3-1a1 1 0 0 0-.5-.4h-.7a1 1 0 0 0-.6.5l-.2.9v3.2c0 .4 0 .7.2 1l.6.4h.7c.2-.1.4-.2.5-.5.2-.2.3-.5.3-1zm4.4-3.3v5.6l-.1.3H231v-8.4h1.3v.5c.4-.4.8-.6 1.3-.6a2 2 0 0 1 1.7.7c.4.4.6 1.2.6 2.2v5.6h-1.3l-.1-.3V175c0-.3 0-.6-.2-.9s-.3-.3-.6-.4h-.6c-.2 0-.4.2-.5.4l-.2.9zm6.5-.9v3.9c0 .6.1 1 .3 1.2 0 .2.3.4.7.4l.3.1v1.2h-.3c-.8 0-1.4-.2-1.8-.6-.4-.5-.5-1.3-.6-2.3v-4l-.1-.1-.3-.1v-1.1l.3-.1.1-.2v-1.5l.1-.2.3-.1h1v1.8l.2.2h.7l.1.3v.9h-.8l-.1.2zm2.4 3.8v-2.4c0-1 .2-1.9.7-2.4.5-.5 1.1-.7 1.9-.7.7 0 1.3.2 1.8.7.5.5.7 1.3.7 2.4v1.4h-3.3c-.2 0-.2.1-.3.2v1.2c0 .5 0 .8.2 1 .2.3.5.4.9.4.3 0 .5-.1.7-.3.2-.2.4-.5.4-.8v-.4h1.2l.1.2c0 .6-.1 1.2-.6 1.8-.4.5-1 .8-1.8.8s-1.4-.2-1.9-.7c-.5-.5-.7-1.3-.7-2.4zm3.7-2.5v-.4c0-.5-.1-1-.5-1.2a1 1 0 0 0-1.2 0c-.4.3-.6.7-.6 1.2v.4l.1.2.3.1h1.8v-.3zm7.3 5.6h-.8l-.3-.1-.2-.3-1-2.3-1 2.3-.1.3h-1.1c-.2 0-.3 0-.2-.3l1.7-4-1.7-3.8c0-.3 0-.4.2-.4h.8c.2 0 .4.1.5.4l1 2.2 1-2.2c0-.3.2-.4.4-.4h.8c.2 0 .3.1.2.4l-1.7 3.9 1.7 4c0 .1 0 .3-.2.3zm2.7-6.9v3.9c0 .6 0 1 .2 1.2.1.2.4.4.8.4l.2.1.1.3v.9h-.3c-.9 0-1.5-.2-1.9-.6-.3-.5-.5-1.3-.5-2.3v-4l-.2-.1-.3-.1v-1.1l.3-.1c.1 0 .2 0 .2-.2v-1.7l.3-.1h1l.1.3v1.5c0 .1 0 .2.2.2h.7v1.2h-.7l-.2.2zm2.3 3.8v-2.4c0-1 .3-1.9.8-2.4s1-.7 1.8-.7c.7 0 1.3.2 1.8.7.5.5.8 1.3.8 2.4v1.1l-.1.3h-3.3l-.3.2v1.2c0 .5 0 .8.3 1 .2.3.4.4.8.4.3 0 .6-.1.8-.3.2-.2.3-.5.3-.8v-.4h1.3v.2c.1.6-.1 1.2-.5 1.8-.5.5-1 .8-2 .8-.6 0-1.2-.2-1.7-.7-.5-.5-.8-1.3-.8-2.4zm3.7-2.5v-.4c0-.5-.1-1-.5-1.2a1 1 0 0 0-1.2 0c-.4.3-.6.7-.5 1.2v.6l.3.1h1.8l.1-.3zM152.8 242h-3.9v-11.9h4.2v1.2h-2.5l-.3.1v3.6h2.5l.3.1v1.2h-2.5l-.3.1v4.2h2.5l.3.1v1.2h-.3zm3.3-6v6h-1.3l-.1-.3v-8.1h1.3l.1.3v.2c.3-.4.7-.6 1.3-.6a2 2 0 0 1 1.6.7c.5.5.7 1.2.7 2.2v5.3l-.1.3h-1.3v-6c0-.3-.1-.6-.3-.8l-.5-.5h-.6c-.3 0-.4.2-.6.5s-.2.5-.2.8zm4.1 8.7v-.6c0-.2.1-.3.4-.4.2 0 .4-.2.5-.4l.2-1.2v-8.6h1.3l.1.3v8.3a4 4 0 0 1-.5 2.2c-.3.4-.8.7-1.5.8h-.3l-.1-.1v-.3zm1.2-12.3a.9.9 0 0 1 0-1.1l.6-.3.6.3c.2.1.2.3.2.5l-.2.6-.6.3-.6-.3zm2.9 6.6v-2.5c0-1 .2-1.8.7-2.3.5-.6 1.1-.8 1.8-.8s1.3.2 1.8.8c.5.5.8 1.2.8 2.3v1.2l-.1.2-.3.1h-3.2l-.1.4v1c0 .4 0 .7.3 1 .2.2.5.3.8.3.3 0 .6 0 .8-.3.2-.2.3-.5.3-.8l.1-.4h1.2v.3c.1.6 0 1.2-.5 1.7-.4.6-1 .9-1.9.9-.7 0-1.3-.3-1.8-.8s-.7-1.3-.7-2.4zm3.6-2.6v-.3c0-.6 0-1-.5-1.2a1 1 0 0 0-1.2 0c-.4.2-.6.6-.5 1.2v.6h2.2v-.3zm6.5 3v-5.9h1.3l.1.3v8.1h-1.3l-.1-.3v-.2c-.3.4-.7.6-1.3.7a2 2 0 0 1-1.7-.7c-.4-.5-.6-1.3-.6-2.2v-5.4l.1-.3h1.3v5.9c0 .4.1.6.3.9l.5.4h.6c.2 0 .4-.2.6-.4l.2-.9zm10.3-5.9h1V245h-1.3v-3.6c-.4.4-.8.6-1.3.7a2 2 0 0 1-1.7-.7c-.4-.5-.6-1.3-.6-2.2v-3c0-.9.2-1.6.6-2.1a2 2 0 0 1 1.7-.7c.5 0 1 .2 1.2.6v-.2l.1-.3h.3zm-.4 6V236c0-.3 0-.6-.2-.8l-.5-.5h-.7c-.2 0-.3.2-.5.5s-.2.5-.2.8v3.4c0 .4 0 .6.2.9l.5.4h.7c.2 0 .4-.2.5-.4.2-.3.2-.5.2-.9zm6.7-.1v-5.9h1.3v8.4H191v-.5c-.4.4-.8.6-1.3.7a2 2 0 0 1-1.7-.7c-.4-.5-.6-1.3-.6-2.2v-5.7h1.3l.1.3v5.6c0 .4 0 .6.2.9l.6.4h.6c.2 0 .4-.2.5-.4.2-.3.2-.5.2-.9zm3.2-7a.9.9 0 0 1 0-1.1l.6-.3.6.3.2.5c0 .2 0 .5-.2.6l-.6.3-.6-.3zm1 9.6H194v-8.5h1.3l.1.3v8.1h-.3zm9.9 0h-1v-.7c-.4.4-.8.6-1.4.7a2 2 0 0 1-1.6-.7c-.4-.5-.6-1.3-.6-2.2v-3c0-.9.2-1.6.6-2.1a2 2 0 0 1 1.6-.7c.6 0 1 .2 1.3.6V230h1.5v12h-.3zm-1-2.6V236c0-.3-.1-.6-.3-.8l-.5-.5h-.7c-.2 0-.4.2-.5.5l-.2.8v3.4c0 .4 0 .6.2.9l.5.4h.7c.2 0 .4-.2.5-.4.2-.3.2-.5.2-.9zm8-2.9v2.4c0 1-.2 1.9-.7 2.4-.6.5-1.2.8-1.9.8s-1.3-.3-1.8-.8-.7-1.3-.7-2.4v-2.4c0-1 .2-1.8.7-2.3.5-.6 1.1-.8 1.8-.8.8 0 1.4.2 1.9.8.5.5.7 1.2.7 2.3zm-1.4 2.8v-3.2c0-.3-.1-.7-.3-.9a1 1 0 0 0-.5-.5h-.7a1 1 0 0 0-.6.5l-.2 1v3.1c0 .4 0 .7.2 1l.6.4h.7c.2 0 .4-.2.5-.5.2-.2.3-.5.3-.9zm4.3-3.3v6h-1.3v-8.4h1.3v.5c.4-.4.8-.6 1.3-.6a2 2 0 0 1 1.7.7c.4.5.6 1.2.6 2.2v5.6h-1.3l-.1-.3V236c0-.3 0-.6-.2-.8l-.6-.5h-.6c-.2 0-.4.2-.5.5l-.2.8zm6.7 0v5.6l-.1.3h-1.3v-8.4h1.3v.5c.4-.4.8-.6 1.3-.6a2 2 0 0 1 1.7.7c.4.5.6 1.2.6 2.2v5.6h-1.4l-.1-.3V236c0-.3 0-.6-.2-.8l-.5-.5h-.7c-.2 0-.4.2-.5.5l-.2.8zm5 3v-2.5c0-1 .2-1.8.7-2.3.5-.6 1.1-.8 1.8-.8.8 0 1.4.2 1.9.8.5.5.7 1.2.7 2.3v1.4l-.4.1h-3.2v1.4c0 .4 0 .7.2 1 .2.2.5.3.8.3.4 0 .6 0 .8-.3l.4-.8v-.4h1.2l.1.3c0 .6-.1 1.2-.6 1.7-.4.6-1 .9-1.9.9-.7 0-1.3-.3-1.8-.8s-.7-1.3-.7-2.4zm3.7-2.6v-.3c0-.6-.2-1-.6-1.2a1 1 0 0 0-1.2 0c-.3.2-.5.6-.5 1.2v.3l.1.3h2.1v-.3zM175 262.5h-.7l-.2-.1-.1-.3v-.2c-.3.4-.7.6-1.3.6a2 2 0 0 1-1.6-.7c-.5-.4-.7-1.2-.7-2.2v-2.8c0-1 .2-1.7.7-2.2a2 2 0 0 1 1.6-.7c.6 0 1 .2 1.3.6v-3.8h1.3l.1.3v11.5h-.3zm-1-2.6v-3.4c0-.3 0-.6-.2-.8l-.6-.5h-.6c-.2 0-.4.2-.5.5l-.2.8v3.4c0 .4 0 .6.2.9l.5.4h.6c.3 0 .4-.2.6-.4l.2-.9zm6.6.1v-6h1.4v8.4h-1.3l-.1-.3v-.2c-.3.4-.7.6-1.3.6a2 2 0 0 1-1.6-.7c-.4-.4-.7-1.2-.7-2.2v-5.3l.1-.3h1.3v6c0 .4.1.6.3.9l.5.4h.7c.2 0 .3-.2.5-.4l.2-.9zm11 0c0 .6-.2 1.2-.7 1.8-.4.5-1 .7-1.8.7-.7 0-1.3-.2-1.8-.7-.4-.5-.7-1-.7-1.6l.1-.3h1.3v.3l.4.7c.2.2.4.3.7.3.3 0 .5 0 .7-.2.2-.2.4-.4.4-.6 0-.4 0-.7-.2-1l-.7-.7c-.3-.3-.7-.4-1-.6l-1-.8a2 2 0 0 1-.4-1.1c0-.7.2-1.2.6-1.7.5-.4 1-.6 1.6-.6s1.2.2 1.6.7c.4.4.6 1 .6 1.6v.3h-1.2l-.1-.4a1 1 0 0 0-.3-.6.8.8 0 0 0-.6-.3c-.4 0-.7.2-.8.5 0 .4 0 .7.3 1l.8.6a82.5 82.5 0 0 1 1.8 1.5c.2.3.4.7.4 1.1zm1.1-.6V257c0-1 .2-1.9.7-2.4.5-.5 1.1-.7 1.8-.7s1.3.2 1.8.7c.5.5.8 1.3.8 2.4v1.2l-.1.2-.3.1h-3.2l-.1.3v1c0 .5 0 .8.3 1 .2.3.5.4.8.4.3 0 .6 0 .8-.3.2-.2.3-.5.3-.8l.1-.4h1.2v.3c.1.6 0 1.1-.5 1.7-.4.6-1 .8-1.9.8-.7 0-1.3-.2-1.8-.7-.5-.5-.7-1.3-.7-2.4zm3.6-2.5v-.3c0-.6 0-1-.5-1.2a1 1 0 0 0-1.2 0c-.4.2-.6.6-.5 1.2v.6h2.2v-.3zm4.4-.4v5.9h-1.3V254h1.3v.5c.4-.4.8-.6 1.3-.6a2 2 0 0 1 1.7.7c.4.5.6 1.2.6 2.2v5.6h-1.5v-5.9c0-.3 0-.6-.2-.8l-.6-.5h-.6c-.2 0-.4.2-.5.5l-.3.8zm9.7 3.5c0 .6-.2 1.2-.7 1.8-.5.5-1 .7-1.8.7-.7 0-1.4-.2-1.8-.7-.5-.5-.7-1-.7-1.6v-.3h1.3l.1.3c0 .2.1.5.3.7.3.2.5.3.8.3.3 0 .5 0 .7-.2l.4-.6c0-.4 0-.7-.2-1l-.8-.7-1-.6-.9-.8a2 2 0 0 1-.4-1.1c0-.7.2-1.2.6-1.7.5-.4 1-.6 1.6-.6s1.1.2 1.6.7c.4.4.6 1 .6 1.6v.3h-1.3v-.4a1 1 0 0 0-.3-.6.8.8 0 0 0-.7-.3c-.3 0-.6.2-.7.5-.1.4 0 .7.3 1a82.5 82.5 0 0 1 2.6 2l.4 1.2z"/><path fill="#00659C" d="M176.3 294.2v5.6c0 1-.3 1.9-.8 2.4s-1.1.9-2 .9c-.8 0-1.4-.3-2-.9-.4-.5-.7-1.3-.7-2.4v-5.6c0-1 .3-1.8.8-2.4.5-.5 1.1-.8 2-.8a3 3 0 0 1 2 .8c.4.6.7 1.4.7 2.4zm-4 0v5.7c0 1.2.4 1.8 1.2 1.8s1.3-.6 1.3-1.8v-5.7c0-1.3-.4-1.9-1.3-1.9s-1.3.6-1.3 1.9zm6.6 8.8h-1v-12h1.3v3.9c.3-.4.8-.6 1.3-.6a2 2 0 0 1 1.7.7c.4.5.6 1.2.6 2.2v2.9c0 1-.2 1.7-.6 2.2a2 2 0 0 1-1.7.7c-.6 0-1-.3-1.3-.7v.5l-.3.1zm.3-6v3.4l.2.9c.1.3.4.4.6.4h.6c.2 0 .4-.2.6-.4s.2-.5.2-.9V297l-.2-.8a.9.9 0 0 0-.6-.5h-.6c-.2.1-.4.2-.6.5l-.2.8zm4.1 8.7v-.6c0-.2 0-.3.3-.4.3 0 .5-.2.6-.4l.1-1.2v-8.3l.1-.3h1.3v8.6a4 4 0 0 1-.4 2.2c-.3.5-.9.7-1.6.8h-.2l-.2-.1v-.3zm1.2-12.2a.8.8 0 0 1 0-1.2c.1-.2.3-.3.5-.3.3 0 .5.1.6.3.2.1.3.3.3.6l-.3.6-.6.2c-.2 0-.4 0-.5-.2zm2.8 6.5v-2.5c0-1 .3-1.8.8-2.3.4-.6 1-.8 1.8-.8.7 0 1.3.2 1.8.8.5.5.7 1.3.7 2.3v1.5H189l-.3.1v1.3c0 .4 0 .7.2 1s.5.3.9.3c.3 0 .5 0 .7-.3.3-.2.4-.5.4-.8v-.4h1.3v.3c0 .6-.1 1.2-.6 1.7a2 2 0 0 1-1.8.9c-.7 0-1.4-.3-1.9-.8-.4-.5-.7-1.3-.7-2.4zm3.7-2.6v-.3c0-.6-.1-1-.5-1.2a1 1 0 0 0-1.2 0c-.4.2-.6.6-.6 1.2v.3l.1.3h2.1v-.3zm4.2-.4v3.4c0 .4.1.7.3 1s.5.3.9.3c.3 0 .5 0 .7-.3l.4-.8v-.4h1.2l.1.3c0 .6-.1 1.2-.6 1.7-.4.6-1 .9-1.9.9-.7 0-1.3-.3-1.8-.8s-.7-1.3-.7-2.4v-2.4c0-1 .2-1.8.7-2.3.5-.6 1.1-.8 1.8-.8.9 0 1.5.3 2 .8.4.6.6 1.2.5 1.8v.2l-.3.1h-1v-.4c0-.4-.2-.7-.4-.9a1 1 0 0 0-.8-.3c-.3 0-.6.1-.8.4s-.3.6-.3 1zm6.6-1v4c0 .6 0 1 .2 1.3.1.2.4.3.8.4h.3v1.2l-.3.1c-.9 0-1.5-.3-1.9-.7-.3-.5-.5-1.2-.5-2.3v-4l-.2-.1h-.3v-1.2h.3l.2-.2v-1.8h1.3l.1.3v1.5l.2.1h.4l.3.1v1.1h-.7l-.2.3zm2.6-2.5a.8.8 0 0 1 0-1.2l.6-.3c.3 0 .4.1.6.3.2.1.3.3.3.6l-.3.6-.6.2c-.2 0-.4 0-.6-.2zm1 9.5h-1v-8.6h1.3v8.4l-.3.1zm3.1 0h-1v-7l-.2-.2h-.3v-1.1h.3l.1-.2v-.5c0-1 .3-1.8.6-2.3.4-.4 1-.7 2-.7l.2.1v1.2h-.3c-.4.1-.7.2-.8.5l-.2 1.3v.4l.2.1h.6l.3.1v1.1h-1c-.2 0-.2.2-.2.3v6.8l-.4.1zm-43.9 8.3h-.2a1 1 0 0 0-.8.4c-.2.4-.3.8-.3 1.3v9.1c0 .5.1 1 .3 1.3.2.3.5.4.8.4h.2l.3.1v1.1l-.3.1h-.2c-.9 0-1.5-.3-2-.8-.3-.5-.5-1.4-.5-2.6v-8.3c0-1.2.2-2 .6-2.6.4-.5 1-.8 2-.8h.4v1.2h-.3zm1.9 2.7a.8.8 0 0 1 0-1.2l.6-.3.6.3c.2.1.3.3.3.5 0 .3-.1.5-.3.6l-.6.3-.6-.3zm1 9.5h-1l-.1-.4V315h1.5v8.4h-.3zm3.5-6v5.6l-.1.3h-1.3V315h1.3v.5c.4-.4.8-.6 1.3-.6a2 2 0 0 1 1.7.7c.4.5.6 1.2.6 2.2v5.6h-1.3l-.1-.3v-5.6c0-.3 0-.6-.2-.8a.9.9 0 0 0-.6-.5h-.6c-.2 0-.4.2-.5.5-.2.2-.2.5-.2.8zm9.6 6h-1v-.7c-.4.4-.8.6-1.3.7-.7 0-1.3-.3-1.7-.7s-.6-1.3-.6-2.2v-3c0-.9.2-1.6.6-2.1s1-.7 1.7-.7c.5 0 1 .2 1.2.6V312l.1-.3h1.3v11.8h-.3zm-1-2.6v-3.4c0-.3-.1-.6-.3-.8a.9.9 0 0 0-.5-.5h-.6c-.3 0-.4.2-.6.5l-.2.8v3.4c0 .4 0 .6.2.9s.3.3.6.4h.6c.2 0 .4-.2.5-.4l.2-.9zm3.2-6.9a.8.8 0 0 1 0-1.2l.6-.3.6.3.2.5c0 .3 0 .5-.2.6l-.6.3-.6-.3zm1 9.5h-1.1V315h1.3l.1.3v8.1h-.3zm3.2-5.9v3.3c0 .4.2.7.4 1s.5.3.8.3c.3 0 .6 0 .8-.3.2-.2.3-.5.3-.8v-.4h1.3v.3c.1.6 0 1.1-.5 1.7-.4.6-1 .9-1.9.9-.7 0-1.3-.3-1.8-.8s-.8-1.3-.8-2.4V318c0-1 .3-1.9.8-2.4s1-.7 1.8-.7 1.4.3 1.9.8c.4.6.6 1.2.6 1.8l-.1.2-.3.1h-.9v-.4c-.1-.4-.2-.7-.4-.9a1 1 0 0 0-.8-.3c-.3 0-.6.1-.8.4s-.3.5-.3 1zm10 5.9h-.8l-.3-.1v-.5c-.5.5-1 .7-1.7.7s-1.2-.2-1.6-.6-.6-1-.6-1.7v-.3c0-.6.1-1 .4-1.4.2-.4.5-.6.9-.8l.6-.2a15.6 15.6 0 0 0 1.2-.5c.2 0 .3-.2.4-.4l.2-.5a1 1 0 0 0-.3-.7 1 1 0 0 0-.8-.3 1 1 0 0 0-.7.4c-.2.2-.4.5-.4.8v.3l-.3.1h-.9v-.3c-.1-.8.1-1.4.6-1.9s1-.7 1.8-.7c.6 0 1.2.2 1.7.7.5.5.7 1.1.7 2v4.7l.2.8c0 .3 0 .4-.4.4zm-2.4-1.3c.7 0 1.1-.5 1.1-1.4v-1.7a23 23 0 0 1-1.5.7l-.4.3c-.2.2-.4.5-.4 1 0 .3.1.5.3.7.1.3.4.4.9.4zm5.6-5.6v3.9c0 .6 0 1 .2 1.3.1.2.4.3.7.4h.3v1.2h-.3c-.8 0-1.4-.2-1.8-.6-.3-.5-.5-1.2-.5-2.3v-4l-.2-.1h-.3v-1.2h.3l.2-.2v-1.8h1.3v1.8l.3.1h.4l.3.1v1.1h-.7c-.2 0-.2.1-.2.3zm2.3 3.8V318c0-1 .3-1.8.8-2.3.5-.6 1-.8 1.8-.8.7 0 1.3.2 1.8.8.5.5.7 1.2.7 2.3v1.4l-.3.1H204v1.4c0 .4 0 .7.3 1s.4.3.8.3c.3 0 .6 0 .8-.3.2-.2.3-.5.3-.8v-.4h1.3v.3c0 .6-.1 1.2-.5 1.7-.5.6-1.1.9-2 .9-.6 0-1.2-.3-1.7-.8s-.8-1.3-.8-2.4zm3.7-2.5v-.3c0-.6-.1-1-.5-1.2a1 1 0 0 0-1.2 0c-.4.2-.6.6-.6 1.2v.3l.1.3h2.1l.1-.3zm6.4 3.1v-5.7l.1-.3h1.3v8.4h-1.3v-.5c-.4.4-.8.6-1.3.7a2 2 0 0 1-1.7-.7c-.4-.5-.6-1.3-.6-2.2V315h1.3l.1.3v5.6c0 .4 0 .6.2.9s.4.3.6.4h.6c.2 0 .4-.2.5-.4l.2-.9zm6-4.6l-.5-.1c-.5 0-.7.2-.8.6v6.1c0 .2-.1.3-.2.3H216l-.1-.3v-8.1h1.3l.1.3v.2c.4-.4.8-.5 1.2-.5h.5v1.3h-.3zm-44.8 19.1v1.3c0 .2 0 .2.2.2h1.5v1.3H174l-.2.2v1.7h-1.2l-.1-.3v-1.4c0-.1 0-.2-.2-.2h-1.5v-1.2h1.5c.1 0 .2-.1.2-.3v-1.6h1.2l.1.3zm11.1 8.5h-.8l-.2-.1-.1-.3v-.2c-.3.4-.7.6-1.3.6-.7 0-1.2-.2-1.7-.7s-.6-1.2-.6-2.2v-2.8c0-1 .2-1.7.6-2.2s1-.7 1.7-.7c.6 0 1 .2 1.3.6v-3.9h1.3l.1.3v11.5h-.3zm-1.1-2.6V338c0-.3 0-.6-.2-.8a.9.9 0 0 0-.6-.5h-.6c-.2 0-.4.2-.5.5-.2.2-.2.5-.2.8v3.4c0 .3 0 .6.2.9s.3.3.5.4h.6c.2 0 .4-.2.6-.4s.2-.6.2-.9zm3-.4v-2.5c0-1 .2-1.9.7-2.4.5-.5 1.1-.7 1.8-.7s1.3.2 1.8.7c.5.5.8 1.3.8 2.4v1.2l-.1.2-.3.1h-3.2l-.1.3v1c0 .5 0 .8.3 1s.5.4.8.4c.3 0 .6 0 .8-.3.2-.2.3-.5.3-.8l.1-.4h1.2v.3c.1.6 0 1.1-.5 1.7-.4.6-1 .8-1.9.8-.7 0-1.3-.2-1.8-.7-.5-.5-.7-1.3-.7-2.4zm3.6-2.6v-.3c0-.6 0-1-.5-1.2a1 1 0 0 0-1.2 0c-.4.2-.6.6-.5 1.2v.6h2.2v-.3zm-.9-3.8h-.4c-.2 0-.2 0-.2-.2v-1.9l.3-.1h1c.2 0 .3.2.1.5l-.5 1.4v.3h-.3zm5.3-2.2v8.6l.1 1.2c.2.3.4.4.8.4l.3.1v1.2h-.3c-.8 0-1.5-.2-1.8-.6-.4-.5-.6-1.2-.6-2.3v-8.6l.1-.3h1.3v.3zM202 344h-.8l-.2-.1-.2-.5c-.4.4-1 .6-1.6.6-.6 0-1.2-.2-1.6-.5s-.6-1-.6-1.7v-.3c0-.6.1-1 .4-1.4.2-.4.5-.6.9-.8l.6-.2a15.6 15.6 0 0 0 1.2-.5c.2 0 .3-.2.4-.4l.2-.5c0-.2 0-.5-.3-.7a1 1 0 0 0-.7-.3 1 1 0 0 0-.8.3c-.2.3-.3.6-.3 1l-.1.2h-1.2v-.3c0-.7.1-1.3.6-1.8s1-.7 1.8-.7c.7 0 1.2.2 1.7.7.5.5.8 1.1.8 1.9v5.6c.1.3 0 .4-.2.4zm-2.4-1.3c.7 0 1.1-.5 1.1-1.4v-1.7a23 23 0 0 1-1.5.7l-.4.3c-.2.2-.3.5-.3 1 0 .2 0 .5.2.7.1.3.5.4.9.4zm4.4-8.3a.8.8 0 0 1 0-1.1c0-.2.3-.3.5-.3l.6.3.2.5c0 .3 0 .5-.2.6l-.6.3-.6-.3zm.9 9.6h-.8l-.2-.1-.1-.3v-8.1h1.3l.1.3v8.1h-.3zm2.3-12.2h-.2l-.3-.1v-1.1h.5c.9 0 1.5.2 2 .7.3.5.5 1.4.5 2.6v8.3c0 1.2-.2 2-.6 2.6-.4.5-1 .8-2 .8h-.4v-1.2h.5c.4 0 .6-.2.8-.5.2-.4.3-.8.3-1.3v-9.1c0-.5 0-1-.3-1.3a1 1 0 0 0-.8-.4zm-34.9 49.3h2c.9 0 1.5.3 2 .9s.8 1.3.8 2.4v1.3c0 1-.3 1.8-.8 2.4-.5.5-1.1.8-2 .8h-.8v3.8c0 .3-.2.4-.4.4h-.8l-.3-.1v-11.8h.3zm1.1 1.7v4.7h1c.8 0 1.3-.5 1.3-1.8v-1.4c0-1.2-.5-1.8-1.3-1.8h-.9v.3zm7.9 3.2l-.5-.1c-.5 0-.7.2-.8.6l-.1 1.1v5.4h-1.5v-8.4h1.3l.1.3v.2c.4-.4.8-.5 1.2-.6h.2l.3.1v1.3h-.3zm1.6-2.5a.8.8 0 0 1 0-1.1c.1-.2.3-.3.6-.3.2 0 .4.1.5.3.2.1.3.3.3.5 0 .3 0 .5-.3.6-.1.2-.3.3-.5.3-.3 0-.5-.1-.6-.3zm1 9.6h-.8l-.3-.1v-8.4h1.3v8.4h-.3zm6.9-5.5v2.4c0 1-.2 1.9-.7 2.4-.5.5-1.1.8-1.8.8s-1.3-.3-1.8-.8-.8-1.3-.8-2.4v-2.4c0-1 .3-1.9.8-2.4s1-.7 1.8-.7c.7 0 1.3.2 1.8.7.5.5.7 1.3.7 2.4zm-1.4 2.8v-3.2c0-.4 0-.7-.2-1a1 1 0 0 0-.6-.4h-.7a1 1 0 0 0-.5.5c-.2.2-.3.5-.2 1v3.1c0 .4 0 .7.2 1l.5.4h.7c.2 0 .4-.2.6-.5l.2-.9zm5.8-4.4l-.5-.1c-.5 0-.7.2-.8.6v6.2c0 .2-.1.3-.2.3h-1.2l-.1-.3v-8h1.3l.1.3v.2c.4-.4.8-.5 1.2-.6h.2l.3.1v1.3h-.3zm1.6-2.5a.8.8 0 0 1 0-1.1l.6-.3.6.3.2.5c0 .3 0 .5-.2.6l-.6.3-.6-.3zm1 9.6h-.8l-.3-.1v-8.4h1.3l.1.3v8.1h-.3zm3.4-7v4l.2 1.2c.2.3.4.4.8.4l.3.1v1.2h-.3c-.9 0-1.5-.2-1.8-.6-.4-.5-.6-1.2-.6-2.3v-4l-.2-.1-.2-.1-.1-.3v-.8h.3c.2 0 .2-.1.2-.3v-1.7h1.5v1.7c0 .2.1.2.2.2h.7v1.2h-.7l-.2.2zm2.4 3.9v-2.4c0-1 .2-1.9.7-2.4.5-.5 1.1-.7 1.8-.7s1.3.2 1.8.7c.5.5.8 1.3.8 2.4v1.4l-.4.1h-3.2l-.1.3v1c0 .5.1.8.3 1s.5.4.8.4c.3 0 .6 0 .8-.3.2-.2.3-.5.3-.8l.1-.4h1.2l.1.3a3 3 0 0 1-.6 1.7c-.4.6-1 .8-1.9.8-.7 0-1.3-.2-1.8-.7-.5-.5-.7-1.3-.7-2.4zm3.7-2.5v-.3c0-.6-.2-1-.6-1.2a1 1 0 0 0-1.2 0c-.4.2-.5.6-.5 1.2v.6h2.2v-.3zm-1-3.8h-.4c-.1 0-.2 0-.2-.2v-1.8l.4-.1h.8c.3 0 .4.2.3.5l-.6 1.4v.3h-.3zm-26.6 57.6h2c.9 0 1.5.2 2 .8s.8 1.4.8 2.4v1.3c0 1-.3 1.9-.8 2.4-.5.6-1.1.9-2 .9h-.8v3.8c0 .2-.1.3-.3.3h-1.1v-12h.3zm1.1 1.6v4.8h1c.8 0 1.3-.6 1.3-1.8v-1.5c0-1.2-.5-1.8-1.3-1.8h-1v.3zm6.4-1.3v8.6c0 .6 0 1 .2 1.3.1.2.4.3.8.4h.2l.1.3v.9l-.3.1c-.9 0-1.5-.2-1.9-.7-.3-.4-.5-1.2-.5-2.3v-8.9h1.3l.1.3zm7.2 11.6h-1l-.1-.5c-.5.4-1 .6-1.7.6-.6 0-1.1-.2-1.5-.6s-.6-1-.6-1.7v-.3c0-.5 0-1 .3-1.4.3-.3.6-.6 1-.7l.6-.3a15.6 15.6 0 0 0 1.2-.4l.4-.4.1-.5c0-.3 0-.5-.2-.7a1 1 0 0 0-.8-.4 1 1 0 0 0-.8.4c-.2.2-.3.5-.3.9v.3h-1.2l-.1-.3c0-.7.2-1.3.7-1.8.4-.5 1-.8 1.7-.8s1.3.3 1.8.7c.5.5.7 1.2.7 2v4.7l.1.9c0 .2 0 .3-.3.3zM192 452c.8 0 1.2-.5 1.2-1.4v-1.7a23 23 0 0 1-1.5.6l-.4.3c-.3.2-.4.6-.4 1 0 .3 0 .5.2.8.2.2.5.3 1 .4zm5.7-4.8v5.7l-.1.2-.3.1h-1v-8.4l.3-.1h1v.6c.4-.4.8-.7 1.3-.7a2 2 0 0 1 1.7.7c.4.5.6 1.2.6 2.2v5.6l-.3.1h-1l-.1-.3v-5.7c0-.3 0-.6-.2-.8a.9.9 0 0 0-.6-.4h-.6c-.2 0-.4.2-.5.4-.2.2-.3.5-.2.8zm-26.1 26.5h-1v-.6c-.4.4-.8.6-1.3.7-.8 0-1.3-.2-1.7-.7s-.6-1.2-.6-2.2V468c0-1 .2-1.7.6-2.2s1-.7 1.7-.7c.5 0 1 .3 1.2.7v-4.1h1.5v11.8l-.3.1zm-1-2.5v-3.5c0-.3-.1-.6-.3-.8a.9.9 0 0 0-.5-.4h-.7c-.2 0-.3.2-.5.4l-.2.8v3.5c0 .3 0 .6.2.8l.5.4h.7c.2 0 .4-.2.5-.4l.2-.8zm2.6-8.6a.9.9 0 0 1 .9-.8l.5.1.3.4v.7c0 .3 0 .6-.2.9-.2.3-.4.7-.8 1 0 .1-.1.1-.2 0l-.2-.1v-.2l.3-.8v-.3l-.4-.4a.8.8 0 0 1-.2-.5zm7.8 11.1h-1l-.1-.5c-.5.4-1 .6-1.7.6-.6 0-1.1-.2-1.5-.6s-.6-1-.6-1.7v-.3c0-.6 0-1 .3-1.4.2-.3.6-.6 1-.8l.6-.2a15.6 15.6 0 0 0 1.1-.5c.2 0 .4-.2.5-.3l.1-.5c0-.3 0-.6-.3-.8a1 1 0 0 0-.7-.3 1 1 0 0 0-.8.4c-.2.2-.3.5-.3.9v.2l-.3.1h-.9l-.1-.3c0-.7.2-1.3.7-1.8.4-.5 1-.8 1.7-.8s1.3.2 1.8.7c.4.5.7 1.1.7 2v4.7l.1.9c0 .2 0 .3-.3.3zm-2.4-1.3c.8 0 1.2-.5 1.2-1.4v-1.7a23 23 0 0 1-1.5.7l-.4.3c-.3.2-.4.6-.4 1 0 .3 0 .5.2.8.2.2.5.3 1 .3zm5.4-4.6v3.3c0 .4.2.8.4 1s.5.3.8.3c.3 0 .6 0 .8-.3.2-.2.3-.5.3-.8v-.3l.4-.1h.9v.3c.1.6 0 1.2-.5 1.7-.4.6-1 .9-1.9.9-.7 0-1.3-.3-1.8-.8s-.8-1.3-.8-2.4v-2.4c0-1 .3-1.8.8-2.3.5-.5 1-.8 1.8-.8s1.4.3 1.9.9c.4.5.6 1.1.6 1.7l-.1.2-.3.1h-.9v-.4l-.4-.8a1 1 0 0 0-.8-.4c-.3 0-.6.2-.8.4s-.3.6-.3 1zm6.7-1v4c0 .5 0 1 .2 1.2 0 .2.3.3.7.4h.3v1.2l-.3.1c-.8 0-1.5-.2-1.8-.7-.4-.4-.6-1.2-.6-2.3v-4h-.1c-.2 0-.3-.1-.3-.2v-1.1h.3l.1-.2v-1.5l.1-.3h1.3v1.8l.2.1h.5l.2.1.1.3v.8l-.3.1h-.5l-.1.2zm2.6-2.6a.8.8 0 0 1 0-1.2c.2-.2.3-.3.6-.3l.6.3.2.6c0 .2 0 .4-.2.6l-.6.2c-.3 0-.4 0-.6-.2zm1 9.5h-1.1v-8.5l.3-.1h1v8.4l-.3.1zm7-5.5v2.4c0 1.1-.3 2-.8 2.4-.5.5-1.1.8-1.8.8s-1.3-.3-1.8-.8-.8-1.3-.8-2.4v-2.4c0-1 .3-1.8.8-2.3.5-.5 1-.8 1.8-.8.7 0 1.3.3 1.8.8s.8 1.3.8 2.3zm-1.5 2.8v-3.2c0-.3 0-.6-.2-.9a1 1 0 0 0-.6-.4h-.6a1 1 0 0 0-.6.4c-.2.3-.2.6-.2 1v3.1c0 .4 0 .7.2 1 .1.2.3.4.6.4h.6c.2 0 .4-.2.6-.4.2-.3.2-.6.2-1zm4.4-3.3v5.9l-.3.1h-1l-.1-.3v-8.1l.3-.1h1l.1.3v.3c.3-.4.8-.7 1.3-.7a2 2 0 0 1 1.7.7c.4.5.6 1.2.6 2.2v5.4l-.1.2-.3.1h-1v-6c0-.3-.1-.6-.3-.8a.9.9 0 0 0-.5-.4h-.6c-.2 0-.4.2-.6.4l-.2.8zm9.7 3.5c0 .7-.2 1.3-.7 1.8-.5.5-1.1.8-1.8.8-.8 0-1.4-.3-1.8-.8-.5-.5-.7-1-.7-1.6v-.3h1.3v.3l.4.7c.2.2.5.3.8.3.2 0 .5 0 .7-.2.2-.1.3-.3.4-.6 0-.3 0-.6-.2-.9l-.8-.7-1-.7-1-.8a2 2 0 0 1-.3-1.1c0-.7.1-1.2.6-1.6.4-.5 1-.7 1.6-.7s1.1.2 1.5.7c.5.5.7 1 .7 1.6l-.1.3h-1.2v-.3a1 1 0 0 0-.3-.7.8.8 0 0 0-.7-.3c-.4 0-.6.2-.7.6-.1.3 0 .6.3 1l.8.6 1 .6.7.8c.3.4.4.7.5 1.2z"/></svg>