<svg xmlns="http://www.w3.org/2000/svg" viewBox="0 0 320 568"><path fill="#002CFF" d="M100.3 41.2h-5.9L94 41l-.1-.5V22l.5-.1h1.7l.4.1.1.4V38l.1.5h3.5c.3 0 .4.1.5.2l.1.4v1.5l-.1.5h-.4zm9.8 0h-5.8l-.4-.1-.2-.5V22.3c0-.2 0-.3.2-.4l.4-.1h5.8l.5.1v2.4H107c-.3 0-.5.1-.5.2v5.1h3.5l.5.2V32l-.5.2h-3.5v6.2h3.5l.5.2V41h-.5zm16.7 0h-.6c-.3 0-.5-.1-.6-.4l-1.7-7.1-.2-.1v7l-.1.5H121l-.2-.5V22.3c0-.2 0-.3.2-.4l.4-.1h1.2c.3 0 .5.1.6.3l3.1 13 .1.2.1-.1 3.2-13c0-.3.2-.4.5-.4h1.2l.5.1v19.2h-2.6v-7.5h-.2l-1.8 7.2c0 .3-.3.4-.6.4zm15.6 0h-5.9l-.4-.1-.1-.5V22l.5-.1h5.9l.4.1.1.4v1.5l-.1.5h-3.5c-.3 0-.5.1-.5.2v5h3.5c.3 0 .4.1.5.2l.1.4v1.5l-.1.4-.4.2h-3.6v6.2h3.5c.3 0 .4.1.5.2l.1.4v1.5l-.1.5h-.4zm-2.6-20.4h-1c-.1 0-.2 0-.2-.3v-3.1l.5-.2h1.7c.4 0 .5.3.3.8l-.8 2.3c0 .3-.1.4-.2.5h-.3zm9.2 5.4v10.6c0 .8.2 1.4.8 1.7.6.4 1.2.4 1.7 0 .6-.3.9-1 .8-1.7v-.2c0-.2 0-.4.2-.5l.4-.1h1.6c.4 0 .6.2.6.7a5.1 5.1 0 0 1-1.4 3.4 4 4 0 0 1-3 1.2c-1.4 0-2.4-.5-3.2-1.3s-1.3-2.3-1.3-4v-9c0-1.8.4-3 1.3-4s1.8-1.3 3.2-1.3c1.2 0 2.2.4 3 1.1.8.8 1.3 2 1.4 3.5 0 .4-.2.7-.6.7H153c-.2 0-.4 0-.4-.2l-.2-.4v-.2c0-.8-.2-1.4-.8-1.8-.5-.3-1.1-.3-1.7 0s-.8 1-.8 1.8zm18.3 15h-1.7a2 2 0 0 1-.3 0l-.2-.1v-.3l-.3-1.5c0-.3-.1-.5-.2-.5h-3.4l-.1.5-.3 1.5-.1.3h-2.6v-.4l3.5-18.4.1-.4.5-.1h1.9l.2.5 3.5 18.4v.4h-.5zm-4.5-12.4l-1.1 6.8v.4l.4.1h2.1v-.5l-1.2-6.8h-.2zm16.7 12.4h-1.2c-.3 0-.5-.1-.6-.3l-3.6-10.4h-.1c0-.1 0-.1-.1 0v10.1c0 .2 0 .4-.2.5h-2.5l-.1-.5V22.3l.1-.4.4-.1h1.3c.3 0 .5.1.5.4l3.7 10.3v.1h.2V22.3c0-.2 0-.3.2-.4l.4-.1h1.6l.5.1.1.4v18.3l-.1.5h-.5zm7.2-18.9v18.8H184l-.1-.5V22.3l.1-.4.4-.1h1.7l.4.1.1.4zm7.6 19c-1.3 0-2.3-.4-3.2-1.3-.8-1-1.2-2-1.2-3.2v-.5l.6-.2h1.6c.3 0 .5.3.5.7 0 .6.2 1 .5 1.4.3.4.7.5 1.2.5s.9-.1 1.2-.4.5-.7.5-1.2c.2-1.1-.4-2.5-1.7-4a22.4 22.4 0 0 1-1.2-1.4l-.6-.7-.6-.8a23.3 23.3 0 0 0-1-1.6 47.1 47.1 0 0 0-.6-1.7l-.1-.8a4 4 0 0 1 4-4.4 4 4 0 0 1 4 3.7v.7l-.5.2H196c-.2 0-.3 0-.4-.2l-.1-.4c0-.5-.1-.8-.4-1.1-.2-.2-.5-.4-1-.4s-.8.2-1 .6-.4.8-.3 1.2c0 .7.4 1.5 1 2.3l1.8 2.4c.7.7 1.3 1.6 2 2.6.5 1 1 2 1 3 .2 1.3-.2 2.4-1 3.5-.9 1-2 1.5-3.4 1.5zm13.5-.1h-.6c-.3 0-.6-.1-.6-.4l-1.8-7.1-.1-.1v7c0 .2 0 .4-.2.5H202l-.1-.5V22.3l.1-.4.5-.1h1.2c.3 0 .5.1.5.3l3.2 13v.2l.2-.1 3.1-13c0-.3.2-.4.5-.4h1.3l.4.1.1.4v18.8h-2.6l-.1-.5v-7h-.2l-1.7 7.2c-.1.3-.3.4-.6.4zm15.5 0h-5.8l-.5-.1V22l.5-.1h5.8l.5.1v2.4h-3.5c-.3 0-.5.1-.5.2l-.1.4v4.7h3.6l.5.2V32l-.5.2h-3.5l-.1.5v5.7h3.6l.5.2V41h-.5zm-145.5 12h3.4c1.3 0 2.4.4 3.2 1.3s1.2 2.2 1.2 4v8.8c0 1.7-.4 3-1.2 4s-2 1.3-3.2 1.3h-3.4l-.4-.1-.1-.5V53.7l.1-.4.4-.1zm2.2 3.2v13l.1.5h1.1c.5 0 .9 0 1.2-.4s.4-.8.4-1.5V57.8c0-.7-.1-1.2-.4-1.5-.3-.3-.7-.5-1.2-.5H80v.6zm15.6 16.2h-5.9l-.4-.1-.1-.5V53.7l.1-.4.4-.1h5.9l.4.1.1.4v2l-.5.1H92V61h3.5c.3 0 .4.1.5.2l.1.4v1.9l-.5.2H92V70h3.5c.3 0 .4.1.5.2l.1.4v2h-.5zm17.2 0h-5.9l-.4-.1-.1-.5V53.7l.1-.4.4-.1h1.7l.4.1.2.4V70h3.6l.4.2.2.4V72c0 .2 0 .4-.2.5h-.4zm12.2 0h-2l-.2-.1v-.3l-.3-1.5c0-.3-.1-.5-.2-.5h-3.4l-.1.5-.3 1.5-.1.3h-2.2a2 2 0 0 1-.2 0h-.2V72l3.5-18.4.1-.4.5-.1h1.9l.2.5 3.5 18.4-.1.4h-.4zm-4.5-12.4l-1.1 6.8v.4l.4.1h2.1V67l-1.2-6.8h-.2zm20.8 12.4h-.6c-.3 0-.5-.1-.6-.4l-1.7-7.1-.2-.1v7l-.1.5h-2.5l-.2-.5V53.7c0-.2 0-.3.2-.4l.4-.1h1.2c.3 0 .5.1.6.3l3 13 .2.2.1-.1 3.1-13c.1-.3.3-.4.6-.4h1.2l.4.1.2.4V72c0 .2 0 .4-.2.5H144l-.1-.5v-7h-.1l-1.8 7.2c0 .3-.3.4-.6.4zM159 58.3v9.1a6 6 0 0 1-1.2 4c-.8.9-1.9 1.3-3.2 1.3s-2.4-.4-3.2-1.3a6 6 0 0 1-1.2-4v-9c0-1.8.4-3 1.2-4 .8-.9 1.9-1.3 3.2-1.3s2.4.4 3.2 1.3a6 6 0 0 1 1.2 4zm-2.7 9.9V57.6c0-.8-.2-1.4-.8-1.7-.6-.4-1.2-.4-1.8 0-.5.3-.8.9-.8 1.7v10.6c0 .8.3 1.4.8 1.7s1.2.4 1.8 0c.6-.3.8-1 .8-1.7zm5.4-13v-1.5l.1-.4.4-.1h7.2l.5.1v2.4l-.5.1h-2.1V72l-.2.5h-2.5l-.2-.5V55.9l-.5-.1h-1.7l-.4-.1-.1-.5zm14-1.5V72c0 .2 0 .4-.2.5H173l-.1-.5V53.7l.1-.4.4-.1h1.7l.4.1.2.4zm10.8-.5h1.9l.2.1v.4L185.1 72l-.1.4h-2.4l-.2-.4-3.5-18.4v-.4l.5-.1h2l.2.1v.3l2 12h.2l2-12 .2-.3h.2l.3-.1zm12.8 19.4h-2l-.2-.1-.1-.3-.3-1.5-.1-.5h-3.4l-.2.5-.2 1.5-.1.3h-2.2a2 2 0 0 1-.3 0h-.1V72l3.4-18.4.2-.4.4-.1h2l.2.5 3.4 18.4v.4h-.4zm-4.5-12.4l-1.2 6.8v.4l.5.1h2V67l-1-6.8h-.3zm6.3-5v-1.5c0-.2 0-.3.2-.4l.4-.1h7.2l.4.1.1.4v2l-.5.1h-2.2V72c0 .2 0 .4-.2.5H204l-.1-.5V55.9l-.5-.1h-1.7l-.4-.1-.2-.5zm14-1.5V72l-.1.5h-2.5l-.1-.5V53.3l.5-.1h1.7l.4.1.1.4zm12.5 4.6v9.1a6 6 0 0 1-1.2 4c-.8.9-2 1.3-3.2 1.3s-2.4-.4-3.3-1.3a6 6 0 0 1-1.2-4v-9c0-1.8.4-3 1.2-4 .9-.9 2-1.3 3.3-1.3s2.4.4 3.2 1.3a6 6 0 0 1 1.2 4zm-2.8 9.9V57.6c0-.8-.2-1.4-.8-1.7-.6-.4-1.1-.4-1.7 0-.6.3-.9.9-.8 1.7v10.6c0 .8.2 1.4.8 1.7s1.1.4 1.7 0c.6-.3.9-1 .8-1.7zm14.8 4.4h-1.2c-.3 0-.5-.1-.6-.3l-3.6-10.4h-.1c-.1 0 0-.1 0 0h-.1V72c0 .2 0 .4-.2.5h-2.5l-.1-.5V53.7l.1-.4.4-.1h1.3c.3 0 .5.1.5.4l3.7 10.3v.1h.2V53.7c0-.2 0-.3.2-.4l.4-.1h1.6l.5.1.1.4V72l-.1.5h-.5z"/><path fill="#BABABA" d="M222.8 129.5H314v266.4h-91.2z"/><path fill="#4A4A4A" d="M222.8 301.2H314V396h-91.2z"/><path fill="#002CFF" d="M6.8 130H98v266.5H6.8z"/><path d="M222.8 367.2H314v29.4h-91.2z"/><path fill="#002CFF" d="M108 162v23"/><path fill="none" stroke="#002CFF" stroke-miterlimit="10" stroke-width="2" d="M108 168v17"/><path fill="#002CFF" d="M103.7 171.3l3.9-1.7 4 1.7-4-9.4zM108 275v23"/><path fill="none" stroke="#002CFF" stroke-miterlimit="10" stroke-width="2" d="M108 281v17"/><path fill="#002CFF" d="M103.7 284.3l3.9-1.7 4 1.7-4-9.4z"/><path fill="#4A4A4A" d="M108 191v77"/><path fill="none" stroke="#4A4A4A" stroke-miterlimit="10" stroke-width="2" d="M108 198v70"/><path fill="#4A4A4A" d="M103.7 200.6l3.9-1.7 4 1.7-4-9.4z"/><path fill="#002CFF" d="M52 408v33"/><path fill="none" stroke="#002CFF" stroke-miterlimit="10" stroke-width="6" d="M52 425v16"/><path fill="#002CFF" d="M42 432.9l10.3-4.4 10.3 4.4-10.3-24.4z"/><path fill="none" stroke="#4A4A4A" stroke-miterlimit="10" stroke-width="6" d="M269 425v16"/><path fill="#4A4A4A" d="M258.9 432.9l10.3-4.4 10.4 4.4-10.4-24.4z"/><path fill="none" stroke="#8A8B8D" stroke-linecap="round" stroke-linejoin="round" stroke-miterlimit="10" d="M217 272.5H104m113 71H104m113 23H104m113-179H104m113-27H104"/><path fill="#009BFF" d="M6.8 342.8H98v53.8H6.8z"/><path fill="none" stroke="#41D5CF" stroke-linecap="round" stroke-linejoin="round" stroke-miterlimit="10" stroke-width="2" d="M312 302H9"/><path fill="#4A4A4A" d="M127 347.6h2.6c1.1 0 2 .4 2.6 1.1.6.7 1 1.8 1 3.1v.6c0 1.7-.5 2.9-1.5 3.5v.1l1.3 6.6c.1.3 0 .4-.2.4h-1.4l-.1-.3-1.2-6-.3-.1h-1.3v6c0 .3-.2.4-.5.4h-1.3l-.1-.4v-15h.4zm1.4 2.2v5h1.2c1.2 0 1.7-.7 1.7-2.3v-.8c0-1.6-.5-2.3-1.7-2.3h-1.1v.4zm11.8 13.2h-5v-15.4h5.4v1.6h-3.2l-.4.1v4.7h3.2c.2 0 .3 0 .4.2v1.5h-3.2l-.4.1v5.5h3.2l.4.1v1.6l-.4.1zm-2-16.1h-.6l-.2-.2v-2.6h1.6c.3 0 .4.1.2.5l-.6 1.9c0 .2-.1.3-.2.3h-.2zm7.4 16.2c-1 0-1.9-.3-2.6-1-.6-.8-1-1.6-1-2.6l.1-.4h1.3c.3 0 .4 0 .4.4 0 .6.3 1.1.6 1.4.3.3.7.5 1.2.5.4 0 .8-.2 1.1-.5.3-.3.5-.6.6-1 0-1-.4-2.2-1.6-3.4l-.7-.8a176.3 176.3 0 0 1-2.1-2.8c-.2-.2-.3-.5-.4-.9l-.2-1a3.2 3.2 0 0 1 3.2-3.4 3 3 0 0 1 2.1.8c.6.5 1 1.2 1 2v.7h-1.5l-.2-.4c0-.5-.2-.8-.4-1-.3-.3-.6-.4-1-.4s-.8.1-1 .5c-.3.3-.5.7-.4 1.2 0 .5.3 1.2.8 1.8l1.6 1.9 1.6 2c.6.9.9 1.7 1 2.4 0 1-.2 2-.9 2.8-.7.8-1.5 1.2-2.6 1.2zm6.9-15.1v15l-.4.1h-1.3l-.1-.4V348l.1-.4h1.6l.1.4zm7.3 15h-5v-15.4h1.7v13.1l.1.5h3.2l.4.1v1.7l-.4.1zm3.7-15v15l-.4.1h-1.3l-.1-.4v-15.1h1.7l.1.4zm7.3 15h-5v-15.4h5.3l.1.4v1.3H168l-.4.1v4.6h3.2c.2 0 .3 0 .3.2l.1.3v1.2H168l-.4.1v5.5h3.2l.3.1.1.4v1.1l-.4.1zm9.2 0h-.9c-.2 0-.4 0-.4-.2l-3.5-9.2v-.1h-.1v9l-.1.4-.4.1h-1.3v-15.4h1.2c.2 0 .4 0 .4.2l3.4 9.2.1.1h.1V348l.1-.4h1.7V363l-.4.1zm4.2-11.4v7.4c0 1.6.5 2.4 1.7 2.4 1 0 1.5-.6 1.6-2l.1-.4h1.3c.3 0 .5.1.5.6-.1 1.1-.5 2-1.1 2.6-.7.6-1.5 1-2.4 1a3 3 0 0 1-2.6-1.2c-.6-.7-1-1.7-1-3v-7.3c0-1.3.4-2.4 1-3 .7-.8 1.5-1.1 2.6-1.1 1 0 1.7.3 2.4.9a4 4 0 0 1 1 2.6c0 .4 0 .7-.4.7h-1c-.1 0-.2 0-.3-.2v-.4c-.2-1.3-.7-2-1.7-2-1.2 0-1.7.9-1.7 2.4zm12.1 11.4h-5v-15.4h5.4v1.6h-3.2l-.4.1v4.7h3.2c.2 0 .3 0 .4.2v1.5h-3.2l-.4.1v5.5h3.2l.4.1v1.6l-.4.1z"/><path fill="#FFF" d="M23.6 221.3v6.6c0 1.5.5 2.2 1.6 2.2.9 0 1.4-.6 1.4-1.7l.1-.5H28c.2 0 .3.1.3.5 0 1-.4 1.9-1 2.4s-1.3.8-2.1.8a3 3 0 0 1-2.3-1c-.6-.6-1-1.5-1-2.7v-6.6c0-1.2.4-2.1 1-2.8a3 3 0 0 1 2.3-1c.8 0 1.6.3 2.1.9s1 1.3 1 2.4c0 .4 0 .6-.4.6H27l-.3-.1v-.4c-.1-1.2-.6-1.8-1.5-1.8-1 0-1.6.7-1.6 2.2zm12.2 3.9v2.8c0 1.2-.3 2.2-.9 2.8-.6.5-1.3.8-2.1.8s-1.5-.3-2.1-.8c-.6-.6-.9-1.6-.9-2.8v-2.8c0-1.3.3-2.2.9-2.8.6-.6 1.3-.9 2.1-.9s1.5.3 2.1 1c.6.5.9 1.4.9 2.7zm-1.7 3.3v-3.8c0-.4 0-.7-.2-1l-.7-.6h-.8l-.7.6-.2 1v3.8c0 .4 0 .7.2 1 .2.3.5.5.7.5.3.1.5.1.8 0 .2 0 .5-.2.7-.5l.2-1zm5.1-3.9v6.9h-1.6l-.1-.3v-9.5h1.7l.1.3v.3a2 2 0 0 1 1.5-.8c.8 0 1.5.3 2 .9.4.5.7 1.4.7 2.5v6.3l-.1.3h-1.6l-.1-.3v-6.6c0-.4 0-.7-.2-1a1 1 0 0 0-.7-.5h-.7a1 1 0 0 0-.6.5c-.2.3-.3.6-.3 1zm7.3 7h-.9l-.3-.1v-8c0-.1-.1-.2-.3-.2h-.3v-1.4h.3c.2 0 .2-.1.2-.3v-.4a5 5 0 0 1 .7-2.8c.5-.5 1.2-.7 2.2-.7h.4v1.4l-.4.1c-.5 0-.8.2-1 .5l-.2 1.5v.4c0 .2 0 .2.2.2h.8l.3.1v1.3l-.3.1H47c-.1 0-.2 0-.2.2v8h-.4zm3.3-11.1c-.2-.2-.3-.5-.3-.7s.1-.5.3-.7c.2-.2.4-.3.7-.3.2 0 .5.1.6.3.2.2.3.4.3.7s0 .5-.3.7a1 1 0 0 1-.6.2 1 1 0 0 1-.7-.2zm1.1 11h-1.2v-9.8h1.5l.1.3v9.5h-.4zm7.8.1H58c-.2 0-.3 0-.3-.2l-.1-.5c-.6.5-1.2.7-2 .7-.7 0-1.3-.2-1.8-.7-.4-.4-.7-1-.7-1.9v-.4c0-.6.2-1.1.4-1.6.3-.4.7-.7 1.1-.9l.7-.2a19.1 19.1 0 0 0 1.4-.6l.5-.4.2-.6c0-.3-.1-.6-.3-.8s-.6-.4-1-.4-.6.1-.8.4-.4.6-.4 1v.4h-1.6l-.1-.4c0-.8.2-1.5.8-2 .5-.7 1.2-1 2-1s1.5.3 2 .9c.6.6.9 1.3.9 2.2v5.6l.1 1c.1.2 0 .4-.4.4zM56 230c.9 0 1.3-.6 1.3-1.6v-2a25 25 0 0 1-1.7.7l-.5.4c-.3.2-.4.6-.4 1.2 0 .3 0 .6.2.8.2.3.6.5 1.1.5zm6.5-5.4v6.9H61l-.1-.3v-9.5h1.6v.6a2 2 0 0 1 1.5-.8c.8 0 1.5.3 2 .9.4.5.7 1.4.7 2.5v6.3l-.1.3H65l-.1-.3v-6.6c0-.4 0-.7-.2-1a1 1 0 0 0-.7-.5h-.7a1 1 0 0 0-.6.5c-.2.3-.3.6-.3 1zm7.5.1v3.8c0 .5.1.9.4 1.2.2.2.5.4 1 .4.3 0 .6-.1.8-.4.3-.2.4-.5.4-1l.1-.3.3-.2h.8l.3.1.1.3a3 3 0 0 1-.7 2c-.5.7-1.2 1-2.2 1-.8 0-1.5-.3-2-.8-.7-.6-1-1.6-1-2.8v-2.8c0-1.3.3-2.2 1-2.8.5-.6 1.2-.8 2-.8 1 0 1.7.3 2.2 1s.8 1.3.7 2v.3h-1.6v-.5c0-.4-.2-.7-.5-1-.2-.2-.5-.3-.9-.3s-.7.1-1 .4-.3.7-.3 1.2zm5.8 3.3v-2.8c0-1.3.3-2.2.9-2.8.6-.6 1.3-.9 2.1-.9s1.5.3 2.1 1c.6.5.9 1.4.9 2.7v1.3l-.1.4h-3.8l-.3.1-.1.3v1.2c0 .5.1.9.3 1.2.3.2.6.4 1 .4s.7-.1 1-.4c.1-.2.3-.5.3-1v-.3l.4-.2h.8l.3.1v.3a3 3 0 0 1-.6 2c-.5.7-1.2 1-2.2 1-.8 0-1.5-.3-2.1-.8-.6-.6-.9-1.6-.9-2.8zm4.3-3v-.3c0-.7-.1-1.1-.6-1.4-.5-.3-1-.3-1.4 0-.5.3-.7.7-.6 1.4v.7H80l.1-.3zm-45.9 18.2v-2.8c0-1.3.3-2.2.9-2.8.5-.6 1.2-.9 2-.9.9 0 1.6.3 2.2 1 .5.5.8 1.4.8 2.7v1.6l-.4.1h-3.5l-.3.1v1.5c0 .5 0 .9.3 1.2.2.2.6.4 1 .4.3 0 .6-.2.9-.4.2-.2.3-.6.3-1l.1-.4H40l.1.3a3 3 0 0 1-.7 2c-.4.7-1.2 1-2.1 1-.9 0-1.6-.3-2.1-.9-.6-.6-1-1.5-1-2.7zm4.3-3v-.3c0-.7-.2-1.2-.6-1.4-.5-.3-1-.3-1.4 0-.5.2-.7.7-.7 1.4v.3l.1.4h2.5v-.4zm5.1-.4v6.5l-.1.4H42v-9.8h1.5v.6a2 2 0 0 1 1.6-.8c.8 0 1.4.3 1.9.8.5.6.7 1.5.7 2.6v6.5l-.4.1h-1.2v-6.9c0-.4-.1-.7-.3-1a1 1 0 0 0-.6-.5h-.7a1 1 0 0 0-.7.5l-.2 1zm15.2 4c0 .8-.2 1.5-.8 2.1a3 3 0 0 1-2.1 1c-.9 0-1.6-.4-2.1-1-.6-.6-.8-1.2-.8-1.9v-.3h1.6l.1.3c0 .4.2.7.4.9a1.3 1.3 0 0 0 1.7 0c.2 0 .4-.3.4-.6.1-.4 0-.7-.2-1a2 2 0 0 0-.9-.9l-1.1-.8c-.4-.2-.8-.5-1.1-1s-.5-.7-.5-1.2c0-.8.2-1.4.7-1.9.5-.5 1.2-.8 1.9-.8s1.3.3 1.8.8c.5.6.7 1.2.7 2v.3H57l-.1-.4c0-.4-.1-.6-.3-.8a1 1 0 0 0-.8-.3c-.4 0-.7.2-.9.6 0 .4 0 .8.4 1.2l.9.6a73.7 73.7 0 0 1 2 1.7c.4.4.5.9.6 1.4zm7.2-3.4v2.8c0 1.2-.4 2.1-1 2.7-.5.6-1.2 1-2 1a3 3 0 0 1-2.2-1c-.5-.6-.8-1.5-.8-2.7v-2.8c0-1.3.3-2.2.8-2.8.6-.6 1.3-.9 2.1-.9.9 0 1.6.3 2.2 1 .5.5.8 1.4.8 2.7zm-1.7 3.2V240c0-.4-.1-.8-.3-1-.2-.3-.4-.5-.7-.6h-.7c-.3 0-.5.3-.7.5a2 2 0 0 0-.3 1.1v3.7c0 .5.1.8.3 1.1.2.3.4.5.7.5h.7c.3 0 .5-.2.7-.5.2-.3.3-.6.3-1zm3.6-8c-.2-.2-.3-.4-.3-.7s0-.4.3-.6l.6-.3c.3 0 .5 0 .7.3l.3.6c0 .2 0 .5-.3.7a1 1 0 0 1-.7.3 1 1 0 0 1-.6-.3zm1 11.1h-1.1c-.1 0 0-.2 0-.4v-9.4h1.5v9.7l-.3.1zM16.6 376.2H12l-.1-.4v-13.4H17v1.4h-3l-.3.1v4.2h2.9l.3.1v1.4H14l-.3.1v4.9h2.9l.3.2v1.3l-.3.1zm7.4-3c0 .9-.3 1.6-.8 2.2a3 3 0 0 1-2.2 1c-.8 0-1.5-.4-2-1-.6-.6-.9-1.2-.9-1.9l.1-.3h1.5v.3c0 .4.2.6.5.9.2.2.5.4.8.4.4 0 .6-.1.9-.3l.4-.7c0-.4 0-.7-.2-1-.2-.4-.5-.7-.9-1l-1.2-.7c-.4-.2-.7-.5-1-1s-.5-.8-.5-1.2c0-.8.2-1.4.7-2 .5-.4 1.1-.7 1.8-.7s1.4.3 1.9.8c.5.6.7 1.2.7 2v.2l-.4.1h-1.1v-.4c0-.4-.2-.6-.4-.8a1 1 0 0 0-.8-.3c-.4 0-.7.2-.8.6-.1.4 0 .8.4 1.2a73.7 73.7 0 0 1 3 2.4c.2.3.4.8.4 1.2zm3-5v4.6c0 .7 0 1.2.2 1.4.2.3.5.4 1 .5h.2l.1.4v1l-.4.1c-1 0-1.7-.3-2.1-.8-.4-.5-.7-1.4-.7-2.7v-4.5c0-.2 0-.2-.2-.2l-.3-.1v-1.3l.3-.1c.2 0 .2 0 .2-.2v-1.7l.1-.3.3-.1H27l.1.4v1.7c0 .1 0 .2.2.2h.8c.1 0 0 .3 0 .4v1h-.8c-.1 0-.2.1-.2.3zm3-3.1l-.2-.7c0-.3 0-.5.3-.6.1-.2.4-.3.6-.3.3 0 .5 0 .7.3.2.1.3.4.3.6s0 .5-.3.7a1 1 0 0 1-.7.3 1 1 0 0 1-.6-.3zm1.2 11.1H30l-.1-.4v-9.4l.4-.1h1.2v9.8l-.3.1zm4-6.9v6.8l-.4.1h-1.2v-9.8l.4-.1h1l.1.4v.3a2 2 0 0 1 1.5-.8c1 0 1.6.3 2 1 .7-.6 1.4-1 2.1-1 .8 0 1.5.3 2 .8s.7 1.5.7 2.6v6.2l-.1.3-.3.1h-1.2c-.1 0 0-.2 0-.4v-6.5c0-.4-.2-.7-.3-1s-.4-.4-.6-.5h-.8c-.2 0-.4.2-.6.5s-.3.6-.2 1v6.5l-.1.3-.3.1h-1.2l-.1-.4v-6.5c0-.4 0-.7-.3-1a1 1 0 0 0-.6-.5H36a1 1 0 0 0-.6.5c-.2.3-.3.6-.3 1zm10 3.4v-2.8c0-1.3.3-2.2.8-2.8.6-.6 1.3-.9 2.1-.9.9 0 1.6.3 2.1 1 .6.5 1 1.4 1 2.7v1.3c0 .2-.1.3-.2.3l-.3.1H47v1.6c0 .5 0 .9.3 1.1.2.3.5.5 1 .5.3 0 .6-.2.9-.4.2-.3.3-.6.3-1l.1-.4H51l.1.3a3 3 0 0 1-.7 2c-.5.7-1.2 1-2.2 1-.8 0-1.5-.3-2-.9-.6-.6-1-1.5-1-2.7zm4.3-3v-.4c0-.6-.2-1-.7-1.4-.4-.2-.9-.2-1.3 0-.5.3-.7.8-.7 1.4v.4l.1.3.3.1h2.2v-.4zm12.5 6.5h-1c-.1 0 0-.2 0-.4v-.2c-.4.4-1 .7-1.6.7-.8 0-1.4-.2-1.9-.8s-.7-1.4-.7-2.6v-3.3c0-1.1.2-2 .7-2.6s1.1-.8 2-.8a2 2 0 0 1 1.4.8v-4.3l.1-.3h1.5v13.7l-.3.1zm-1.2-3v-4c0-.3 0-.6-.2-.9s-.4-.4-.6-.5h-.8a1 1 0 0 0-.6.5c-.2.3-.3.6-.2 1v4c0 .3 0 .7.2 1 .2.2.4.4.6.4h.7c.3 0 .5-.2.7-.5s.2-.6.2-1zm3.5-.5v-2.8c0-1.3.3-2.2.8-2.8.6-.6 1.3-.9 2.1-.9.9 0 1.6.3 2.1 1 .6.5 1 1.4 1 2.7v1.3c0 .2-.1.3-.2.3l-.3.1H66v1.6c0 .5 0 .9.3 1.1.2.3.5.5 1 .5.3 0 .6-.2.9-.4.2-.3.3-.6.3-1l.1-.4H70l.1.3a3 3 0 0 1-.7 2c-.5.7-1.2 1-2.2 1-.8 0-1.5-.3-2-.9-.6-.6-1-1.5-1-2.7zm4.3-3v-.4c0-.6-.2-1-.7-1.4-.4-.2-.9-.2-1.3 0-.5.3-.7.8-.7 1.4v.4l.1.3.3.1h2.2v-.4zm12.6 3.5c0 .9-.2 1.6-.8 2.2a3 3 0 0 1-2.1 1c-.9 0-1.6-.4-2.1-1s-.8-1.2-.8-1.9v-.3H77l.1.3c0 .4.2.6.4.9a1.3 1.3 0 0 0 1.7 0c.2-.1.4-.3.4-.6.1-.4 0-.7-.2-1-.2-.4-.5-.7-.9-1l-1.1-.7c-.4-.2-.8-.5-1.1-1s-.5-.8-.5-1.2c0-.8.2-1.4.7-2 .5-.4 1.2-.7 1.9-.7s1.3.3 1.8.8c.5.6.7 1.2.7 2v.2l-.3.1h-1.1l-.1-.4c0-.4-.1-.6-.3-.8a1 1 0 0 0-.8-.3c-.4 0-.7.2-.8.6-.2.4 0 .8.3 1.2l.9.6a73.7 73.7 0 0 1 2 1.7c.4.4.5.9.6 1.3zm7.1-3.3v2.8c0 1.2-.3 2.1-.8 2.7a3 3 0 0 1-2.1 1 3 3 0 0 1-2.2-1c-.5-.6-.8-1.5-.8-2.7v-2.8c0-1.3.3-2.2.8-2.8a3 3 0 0 1 2.2-.9c.8 0 1.5.3 2 1 .6.5 1 1.4 1 2.7zm-1.6 3.2v-3.7c0-.4-.1-.8-.3-1-.2-.3-.4-.5-.7-.6H85c-.3 0-.5.3-.7.5a2 2 0 0 0-.3 1.1v3.7c0 .5.1.8.3 1 .2.4.4.6.7.6h.7c.3 0 .5-.2.7-.5.2-.3.3-.6.3-1zm3.6-8c-.2-.2-.3-.4-.3-.7s0-.5.3-.6c.2-.2.4-.3.7-.3.2 0 .4 0 .6.3.2.1.3.4.3.6s0 .5-.3.7a1 1 0 0 1-.6.3 1 1 0 0 1-.7-.3zm1 11.1h-1.1c-.1 0 0-.2 0-.4v-9.4l.3-.1h1.2c.1 0 0 .3 0 .4v9.4l-.3.1z"/><path fill="#002CFF" d="M14.3 471.7h-.6c-.3 0-.5 0-.6-.3l-2.1-8.6h-.1v8.4l-.2.4-.4.1H8.7l-.1-.5V453l.5-.2h1.4l.1.4 3.3 13.2v.1l.2-.1 3.3-13.2c0-.3.2-.4.5-.4h1c.2 0 .3 0 .4.2l.1.4v17.8l-.1.4-.4.1h-1.6l-.2-.5v-8.4H17l-2.1 8.6c-.1.2-.3.3-.6.3zm7.5-4.8V463c0-1.7.4-3 1.2-3.8a4 4 0 0 1 2.9-1.2c1.1 0 2 .4 2.9 1.2.8.8 1.1 2 1.1 3.8v2.2l-.5.1h-4.7c-.2 0-.4 0-.5.2v2c0 .7 0 1.2.4 1.6s.8.5 1.3.5 1-.1 1.2-.5c.4-.3.5-.7.5-1.3l.2-.5.4-.2h1l.5.1.1.5c0 .9-.3 1.8-1 2.7-.6.9-1.6 1.3-2.9 1.3-1.1 0-2-.4-2.9-1.1-.8-.9-1.2-2.1-1.2-3.8zm5.9-4v-.5c0-1-.2-1.5-.9-2a2 2 0 0 0-1.8 0c-.7.5-1 1-.9 2v.5l.1.4.5.1h2.9v-.5zm11.7 4.8c.1 1.1-.2 2-1 2.9a4 4 0 0 1-2.9 1.2c-1.2 0-2.1-.4-2.9-1.2-.7-.8-1-1.6-1-2.5v-.5h2.1v.5c.1.4.3.8.6 1.1.3.4.7.5 1.2.5.4 0 .8 0 1.1-.3.3-.3.5-.6.6-1 .1-.5 0-1-.2-1.4l-1.3-1.2-1.6-1c-.5-.3-1-.8-1.4-1.3s-.7-1.1-.7-1.8a3.5 3.5 0 0 1 3.5-3.6c1 0 1.8.4 2.5 1.1a4 4 0 0 1 1 2.6l-.1.4-.5.2h-1c-.2 0-.3 0-.4-.2l-.1-.5c0-.4-.2-.8-.5-1s-.6-.5-1-.5c-.6 0-1 .4-1.2.9-.1.5 0 1 .5 1.6l1.2.9 1.6 1c.4.3.9.7 1.2 1.3.4.5.7 1.1.7 1.8zm9 0c0 1.1-.3 2-1 2.9a4 4 0 0 1-3 1.2 3.8 3.8 0 0 1-3.8-3.7v-.5h2l.1.5c0 .4.2.8.6 1.1.3.4.7.5 1.2.5.4 0 .7 0 1-.3.4-.3.6-.6.7-1 .1-.5 0-1-.3-1.4l-1.2-1.2-1.6-1c-.6-.3-1-.8-1.5-1.3s-.6-1.1-.6-1.8c0-1 .2-1.8 1-2.5.7-.7 1.5-1 2.5-1s1.8.3 2.4 1c.7.7 1 1.6 1 2.6v.4l-.5.2h-1c-.2 0-.4 0-.4-.2-.1 0-.2-.2-.2-.5 0-.4-.1-.8-.4-1s-.6-.5-1-.5c-.6 0-1 .4-1.2.9-.2.5 0 1 .5 1.6l1.2.9 1.5 1c.5.3 1 .7 1.3 1.3.4.5.6 1.1.7 1.8zm9.3 4h-1.1l-.5-.1-.1-.7c-.7.6-1.6 1-2.6 1s-1.9-.4-2.5-1c-.6-.6-1-1.5-1-2.6v-.5c0-1 .2-1.6.6-2.2.4-.6.9-1 1.5-1.2l1-.4 1-.4c.3 0 .5-.2.8-.3l.7-.6.2-.8c0-.5-.1-.9-.4-1.2-.3-.3-.7-.5-1.2-.5s-.9.2-1.2.6a2 2 0 0 0-.5 1.4l-.1.4-.5.1h-1.4l-.1-.5c0-1.1.3-2 1-2.9.8-.8 1.7-1.2 2.8-1.2 1.1 0 2 .4 2.8 1.2a4 4 0 0 1 1.2 3v7.6c0 .4 0 .9.2 1.3 0 .4-.1.5-.6.5zm-3.7-2c1.2 0 1.8-.8 1.8-2.2v-2.7a33.3 33.3 0 0 1-2.4 1l-.6.5c-.4.4-.6 1-.6 1.7 0 .4 0 .7.4 1.1.2.4.7.6 1.4.6zm6.8 3.8l1.1-.3c.3-.1.6 0 .7.3.3.7.8 1 1.6 1 .5 0 1-.1 1.3-.5.3-.4.5-.9.5-1.6v-1.6c-.5.6-1.2 1-2 1-1.1 0-2-.3-2.7-1s-1-2-1-3.5v-4.6c0-1.5.4-2.7 1-3.5s1.6-1.1 2.7-1c.9 0 1.5.3 2 1v-.4l.1-.4.4-.2h1.2c.2 0 .4 0 .4.2l.2.4v13c0 1.6-.4 2.9-1.2 3.7a4 4 0 0 1-2.9 1.2c-1.8 0-3-.9-3.7-2.6 0-.3 0-.5.3-.6zm5.2-5.8v-5.4c0-.5-.1-1-.3-1.4s-.6-.5-.9-.6a2 2 0 0 0-1 0c-.3 0-.6.3-.8.6-.3.4-.4.9-.4 1.4v5.4c0 .5.1 1 .4 1.3.2.4.5.6.8.7h1c.3 0 .6-.3.9-.7s.3-.8.3-1.3zm4.7-.8V463c0-1.7.4-3 1.1-3.8a4 4 0 0 1 5.8 0c.8.8 1.2 2 1.2 3.8v1.8c0 .2 0 .4-.2.4l-.4.1h-4.7c-.2 0-.4 0-.5.2v2c0 .7 0 1.2.4 1.6s.8.5 1.3.5 1-.1 1.3-.5c.3-.3.4-.7.5-1.3v-.5l.5-.2h1l.5.1.1.5c0 .9-.2 1.8-1 2.7-.6.9-1.6 1.3-2.9 1.3-1.1 0-2-.4-2.9-1.1a6 6 0 0 1-1.1-3.8zm5.8-4v-.5c0-1-.2-1.5-.8-2-.7-.3-1.3-.3-2 0-.6.5-.8 1-.8 2v.5l.1.4.5.1h2.9v-.5zm15.8-7.6v2.6c0 .3.1.4.3.4H95l.5.1.1.5v1.3l-.1.5-.5.1h-2.4c-.2 0-.3.2-.3.4v2.6l-.1.6-.6.1h-1.2l-.5-.1-.2-.6v-2.6c0-.2 0-.4-.3-.4h-2.3l-.6-.1-.1-.5v-1.3l.1-.5.6-.1h2.3c.2 0 .3-.1.3-.4v-2.6c0-.3 0-.4.2-.5 0-.1.2-.2.5-.2h1.2c.3 0 .5 0 .6.2l.1.5z"/><path fill="#4A4A4A" d="M234.3 471.7h-.6c-.3 0-.5 0-.6-.3l-2.1-8.6h-.2v8.4l-.1.4-.4.1h-1.6l-.2-.5v-17.8c0-.2 0-.4.2-.4l.4-.2h1.4l.1.4 3.3 13.2v.1l.2-.1 3.2-13.2c.1-.3.3-.4.6-.4h1c.2 0 .3 0 .4.2l.1.4v17.8l-.1.4-.4.1h-1.6l-.2-.5v-8.4h-.1l-2.1 8.6c-.1.2-.3.3-.6.3zm7.5-4.8V463c0-1.7.4-3 1.2-3.8.8-.8 1.7-1.2 2.9-1.2 1.1 0 2 .4 2.8 1.2.8.8 1.2 2 1.2 3.8v2.2l-.5.1h-4.8c-.2 0-.3 0-.4.2l-.1.4v1.6c0 .7.2 1.2.5 1.6s.7.5 1.3.5c.5 0 .9-.1 1.2-.5.3-.3.5-.7.5-1.3 0-.2 0-.4.2-.5l.4-.2h1l.5.1v.5c.1.9-.2 1.8-.9 2.7-.6.9-1.6 1.3-3 1.3-1 0-2-.4-2.8-1.1-.8-.9-1.2-2.1-1.2-3.8zm5.9-4v-.5c0-1-.2-1.5-.9-2-.6-.3-1.2-.3-1.9 0-.6.5-.9 1-.8 2v.5l.1.4.4.1h2.9l.2-.5zm11.7 4.8a4 4 0 0 1-1 2.9 4 4 0 0 1-3 1.2 3.8 3.8 0 0 1-3.8-3.7v-.5h2l.2.5c0 .4.2.8.5 1.1.3.4.7.5 1.2.5.4 0 .8 0 1-.3.4-.3.6-.6.7-1 .1-.5 0-1-.3-1.4l-1.2-1.2-1.6-1c-.5-.3-1-.8-1.4-1.3s-.7-1.1-.7-1.8a3.5 3.5 0 0 1 3.5-3.6c1 0 1.8.4 2.4 1.1.7.7 1 1.6 1 2.6v.4l-.5.2h-1c-.2 0-.4 0-.4-.2l-.2-.5c0-.4-.1-.8-.4-1s-.6-.5-1-.5c-.6 0-1 .4-1.2.9-.2.5 0 1 .5 1.6l1.2.9 1.6 1c.4.3.8.7 1.2 1.3.4.5.7 1.1.7 1.8zm9 0c0 1.1-.3 2-1 2.9-.9.8-1.8 1.2-3 1.2a3.8 3.8 0 0 1-3.8-3.7v-.5h2l.1.5c0 .4.2.8.6 1.1.3.4.7.5 1.2.5.4 0 .7 0 1-.3.4-.3.6-.6.7-1 0-.5 0-1-.3-1.4l-1.2-1.2-1.6-1c-.6-.3-1-.8-1.5-1.3s-.6-1.1-.7-1.8a3.5 3.5 0 0 1 3.5-3.6c1 0 1.8.4 2.5 1.1.7.7 1 1.6 1 2.6v.4l-.5.2h-1c-.3 0-.4 0-.5-.2v-.5l-.5-1c-.2-.3-.6-.5-1-.5-.7 0-1 .4-1.2.9-.2.5 0 1 .4 1.6l1.3.9 1.5 1c.5.3.9.7 1.3 1.3.4.5.6 1.1.7 1.8zm9.3 4h-1.1l-.5-.1-.1-.7c-.8.6-1.6 1-2.6 1s-1.9-.4-2.5-1c-.6-.6-1-1.5-1-2.6v-.5c0-1 .2-1.6.6-2.2.4-.6.8-1 1.4-1.2l1-.4 1-.4 1-.3.6-.6.2-.8c0-.5-.1-.9-.4-1.2-.3-.3-.7-.5-1.2-.5s-.9.2-1.2.6a2 2 0 0 0-.5 1.4l-.1.4-.5.1h-1.4l-.1-.5c0-1.1.3-2 1-2.9.8-.8 1.7-1.2 2.8-1.2 1 0 2 .4 2.8 1.2a4 4 0 0 1 1.1 3v7.6c0 .4.1.9.3 1.3 0 .4-.1.5-.6.5zm-3.7-2c1.2 0 1.8-.8 1.8-2.2v-2.7a33.3 33.3 0 0 1-2.4 1l-.6.5c-.4.4-.6 1-.6 1.7 0 .4 0 .7.3 1.1.3.4.8.6 1.5.6zm6.8 3.8l1.1-.3c.3-.1.5 0 .7.3.3.7.8 1 1.6 1 .5 0 1-.1 1.3-.5.3-.4.5-.9.5-1.6v-1.6c-.5.6-1.2 1-2 1-1.1 0-2-.3-2.7-1s-1-2-1-3.5v-4.6c0-1.5.4-2.7 1-3.5s1.6-1.1 2.7-1c.9 0 1.5.3 2 1v-.8l.5-.2h1.2c.2 0 .3 0 .4.2l.1.4v13c0 1.6-.4 2.9-1.1 3.7a4 4 0 0 1-3 1.2c-1.7 0-2.9-.9-3.6-2.6-.1-.3 0-.5.3-.6zm5.2-5.8v-5.4c0-.5-.1-1-.4-1.4s-.5-.5-.8-.6a2 2 0 0 0-1 0c-.3 0-.6.3-.9.6-.2.4-.3.9-.3 1.4v5.4c0 .5.1 1 .3 1.3.3.4.6.6.9.7h1c.3 0 .6-.3.8-.7s.4-.8.4-1.3zm4.6-.8V463c0-1.7.4-3 1.2-3.8a4 4 0 0 1 2.9-1.2c1.1 0 2 .4 2.9 1.2.7.8 1.1 2 1.1 3.8v2.2l-.5.1h-4.7c-.2 0-.4 0-.5.2v2c0 .7 0 1.2.4 1.6s.8.5 1.3.5 1-.1 1.2-.5c.4-.3.5-.7.5-1.3l.2-.5.4-.2h1l.5.1.1.5c0 .9-.3 1.8-1 2.7-.6.9-1.6 1.3-3 1.3-1 0-2-.4-2.8-1.1-.8-.9-1.2-2.1-1.2-3.8zm5.9-4v-.5c0-1-.2-1.5-.9-2-.6-.3-1.2-.3-1.9 0-.6.5-.9 1-.8 2v.5l.1.4.5.1h2.9v-.5zm9.9.4V462c0-.4.1-.7.4-.7h6.2c.3 0 .4.3.4.7v1.3c0 .4-.1.6-.4.6h-6.2c-.3 0-.4-.2-.4-.6z"/><path fill="#FFF" d="M236.7 378v6.6c0 1.4.5 2.2 1.5 2.2s1.4-.6 1.5-1.8l.1-.4h1.2c.3 0 .4.1.4.5 0 1-.4 1.8-1 2.4s-1.3.8-2.2.8a3 3 0 0 1-2.3-1c-.5-.6-.8-1.5-.8-2.8V378c0-1.2.3-2.1.8-2.8a3 3 0 0 1 2.3-1c1 0 1.6.3 2.2.9s1 1.3 1 2.4c0 .3-.1.5-.4.5h-1.2v-.5c-.2-1.1-.7-1.7-1.6-1.7-1 0-1.5.7-1.5 2.1zm12.2 3.9v2.8c0 1.2-.3 2.1-1 2.7-.5.6-1.2 1-2 1s-1.5-.4-2.1-1c-.6-.6-.9-1.5-.9-2.7v-2.8c0-1.3.3-2.2.9-2.8.5-.6 1.2-.9 2-.9 1 0 1.6.3 2.2 1 .6.5.9 1.4.9 2.7zm-1.7 3.2v-3.7c0-.4 0-.8-.3-1l-.6-.6h-.8c-.3 0-.5.3-.7.5-.2.3-.2.7-.2 1.1v3.7c0 .5 0 .8.2 1 .2.4.4.6.7.6h.8c.2 0 .4-.2.6-.5.2-.3.3-.6.3-1zm5.1-3.8v6.8l-.4.1h-1.2v-9.8l.3-.1h1.2l.1.4v.3a2 2 0 0 1 1.5-.8c1 0 1.6.3 2 1 .7-.6 1.4-1 2.1-1 .8 0 1.5.3 2 .8s.7 1.5.7 2.6v6.2l-.1.3-.3.1H259c-.1 0 0-.2 0-.4v-6.5c0-.4-.2-.7-.3-1s-.4-.4-.7-.5h-.7c-.2 0-.4.2-.6.5s-.3.6-.3 1v6.8l-.3.1h-1.2l-.1-.4v-6.5c0-.4 0-.7-.3-1a1 1 0 0 0-.6-.5h-.7a1 1 0 0 0-.6.5c-.2.3-.3.6-.3 1zm10.6-3h1.1l.1.4v.3c.4-.5.8-.7 1.5-.8.8 0 1.5.3 2 .8.4.6.7 1.5.7 2.6v3.3c0 1.2-.3 2-.8 2.6-.4.6-1 .8-1.9.8a2 2 0 0 1-1.5-.7v4.1l-.4.1h-1.1l-.1-.4v-13l.4-.1zm1.2 3v4c0 .3 0 .7.3 1 .1.2.3.4.6.4h.7c.3 0 .5-.2.7-.5l.2-1v-4c0-.3 0-.6-.2-.9a1 1 0 0 0-.7-.5h-.7a1 1 0 0 0-.6.5c-.2.3-.3.6-.3 1zm7.5-6.6v10c0 .8 0 1.3.2 1.5.2.3.5.4 1 .5h.3v1.5l-.4.1c-1 0-1.7-.3-2.1-.8-.4-.5-.6-1.4-.7-2.7v-10l.1-.3h1.5l.1.3zm2.7 10v-2.8c0-1.3.3-2.2.9-2.8a2.8 2.8 0 0 1 4.2 0c.6.6.9 1.5.9 2.8v1.3l-.1.3-.3.1H276l-.1.4v1.2c0 .5.1.9.3 1.1.3.3.6.5 1 .5s.7-.2.9-.4c.2-.3.4-.6.4-1v-.4h1.7v.3a3 3 0 0 1-.6 2c-.5.7-1.2 1-2.2 1-.8 0-1.5-.3-2.1-.9-.6-.6-.9-1.5-.9-2.7zm4.3-3v-.4c0-.6-.2-1-.6-1.4-.5-.2-1-.2-1.4 0-.5.3-.7.8-.6 1.4v.7l.4.1h2.1l.1-.4zm8.4 6.5h-1.2l-.2-.4-1.1-2.6-1.2 2.6-.2.4H282c-.2 0-.3-.1-.2-.4l2-4.5-2-4.6c-.1-.3 0-.4.2-.4h1c.2 0 .3.1.4.4l1.2 2.6 1.1-2.6c.1-.3.3-.4.5-.4h1c.2 0 .3.1.2.4l-2 4.6 2 4.5c.1.3 0 .4-.2.4zm1.4-3.5v-2.8c0-1.3.3-2.2.9-2.8.5-.6 1.2-.9 2-.9.9 0 1.6.3 2.2 1 .6.5.8 1.4.8 2.7v1.6l-.4.1h-3.8v1.6c0 .5 0 .9.3 1.1.3.3.6.5 1 .5.3 0 .6-.2.9-.4l.4-1v-.4h1.4l.1.3a3 3 0 0 1-.6 2c-.5.7-1.3 1-2.2 1-.9 0-1.6-.3-2.1-.9-.6-.6-1-1.5-1-2.7zm4.3-3v-.4c0-.6-.2-1-.6-1.4-.5-.2-1-.2-1.4 0-.5.3-.7.8-.6 1.4v.7l.4.1h2.1v-.4zm8.6 3.5c0 .9-.2 1.6-.8 2.2-.5.6-1.2 1-2 1-1 0-1.6-.4-2.2-1a3 3 0 0 1-.8-1.9l.1-.3h1.5v.3c0 .4.2.6.5.9.2.2.5.4.8.4.3 0 .6-.1.8-.3.3-.2.4-.4.5-.7 0-.4 0-.7-.2-1-.2-.4-.5-.7-.9-1l-1.2-.7c-.4-.2-.7-.5-1-1s-.5-.8-.5-1.2c0-.8.2-1.4.7-2 .5-.4 1.1-.7 1.8-.7s1.4.3 1.8.8c.5.6.8 1.2.8 2v.2l-.4.1h-1.1v-.4c0-.4-.2-.6-.4-.8a1 1 0 0 0-.8-.3c-.4 0-.7.2-.8.6-.1.4 0 .8.3 1.2l1 .6a73.7 73.7 0 0 1 2 1.7c.3.4.5.9.5 1.3zM253 320.8h2.4c1 0 1.7.3 2.3 1s.9 1.6.9 2.8v6.4c0 1.2-.3 2.1-1 2.8s-1.3 1-2.2 1H253l-.3-.2v-13.7h.3zm1.3 2V333h1.1c1 0 1.5-.6 1.5-2v-6.6c0-1.4-.5-2.1-1.5-2.1h-1.1v.4zm11.8 5.6v2.8c0 1.2-.3 2.1-.9 2.7-.5.6-1.2 1-2 1a3 3 0 0 1-2.2-1c-.6-.6-.8-1.5-.8-2.7v-2.8c0-1.3.2-2.2.8-2.8.6-.6 1.3-.9 2.1-.9.9 0 1.6.3 2.1 1 .6.5 1 1.4 1 2.7zm-1.7 3.2V328c0-.4 0-.8-.2-1-.2-.3-.4-.5-.7-.6h-.8c-.2 0-.4.3-.6.5a2 2 0 0 0-.3 1.1v3.7c0 .5.1.8.3 1 .2.4.4.6.6.6h.8c.3 0 .5-.2.7-.5.2-.3.3-.6.2-1zm7.6.2v-6.9l.3-.1h1.2l.1.4v9.4l-.4.1H272v-.7a2 2 0 0 1-1.5.7c-.9 0-1.5-.2-2-.8-.5-.6-.7-1.4-.7-2.6v-6.5l.4-.1h1.2v7c0 .3.1.7.3 1s.4.4.6.4h.8c.2 0 .4-.2.6-.5s.2-.6.2-1zm5.3-5.1v4.6c0 .7 0 1.2.2 1.4.1.3.4.4.9.5h.3v1.5l-.3.1c-1 0-1.8-.3-2.2-.8-.4-.5-.6-1.4-.6-2.7v-4.5c0-.2 0-.2-.2-.2l-.3-.1-.1-.3v-1l.4-.1c.1 0 .2 0 .2-.2v-2l.4-.1h1.2v2.1l.2.2h.9v1.4h-.9l-.1.3zm2.7 4.5v-2.8c0-1.3.2-2.2.8-2.8.6-.6 1.3-.9 2.1-.9.9 0 1.6.3 2.1 1 .6.5 1 1.4 1 2.7v1.3c0 .2-.1.3-.2.3l-.3.1h-3.8v1.6c0 .5 0 .9.3 1.1s.5.5 1 .5c.3 0 .6-.2.8-.4.3-.3.4-.6.4-1l.1-.4h1.4l.1.3a3 3 0 0 1-.7 2c-.5.7-1.2 1-2.2 1-.8 0-1.5-.3-2-.9-.7-.6-1-1.5-1-2.7zm4.2-3v-.4c0-.6-.1-1-.6-1.4-.4-.2-.9-.2-1.4 0-.4.3-.6.8-.6 1.4v.4l.1.3.3.1h2.1l.1-.4zM254.8 347c0 .8-.2 1.5-.7 2-.6.7-1.3 1-2.2 1-.8 0-1.5-.3-2-.9-.6-.6-.9-1.2-.9-1.9l.1-.3h1.5v.3c0 .3.2.6.5.9s.5.3.8.3c.4 0 .6 0 .9-.2l.4-.7c0-.4 0-.8-.2-1l-.9-1a415.2 415.2 0 0 1-2.2-1.7c-.3-.3-.5-.8-.5-1.2 0-.8.2-1.4.7-2 .5-.4 1.1-.7 1.8-.7s1.4.3 1.9.8.7 1.2.7 2v.2l-.4.1H253v-.5c0-.3-.2-.6-.4-.8a1 1 0 0 0-.8-.2c-.4 0-.7.2-.8.6-.1.4 0 .8.4 1.1l.9.7a73.2 73.2 0 0 1 2 1.7c.3.4.5.9.5 1.3zm5.5 0v-6.9l.4-.1h1.1l.1.4v9.4l-.4.1h-1.1l-.1-.4v-.3a2 2 0 0 1-1.5.8c-.8 0-1.5-.3-2-.8-.4-.6-.7-1.4-.7-2.6v-6.2l.1-.3.3-.1h1.2l.1.4v6.5c0 .4 0 .7.2 1s.4.5.7.5h.7c.2 0 .5-.2.6-.5s.3-.6.3-1zm6.9-5.4h-.6c-.5 0-.8.2-.9.6l-.1 1.4v6l-.1.2-.3.1H264v-9.8l.3-.1h1.2v.7a2 2 0 0 1 1.5-.6h.5l.1.4v1.1h-.4zM278 347c.1.8-.1 1.5-.7 2-.6.7-1.3 1-2.1 1-.9 0-1.6-.3-2.1-.9-.6-.6-.8-1.2-.8-1.9v-.3h1.6l.1.3c0 .3.1.6.4.9s.5.3.9.3c.3 0 .5 0 .8-.2l.4-.7c.1-.4 0-.8-.2-1l-.9-1a415.2 415.2 0 0 1-2.2-1.7c-.3-.3-.5-.8-.5-1.2 0-.8.2-1.4.7-2 .5-.4 1.2-.7 1.9-.7s1.3.3 1.8.8.7 1.2.7 2v.2l-.4.1h-1l-.1-.5c0-.3-.1-.6-.3-.8a1 1 0 0 0-.8-.2c-.4 0-.7.2-.9.6 0 .4 0 .8.4 1.1l.9.7a73.2 73.2 0 0 1 2 1.7c.3.4.5.9.6 1.3zm7.2-3.4v2.7c0 1.3-.3 2.2-.9 2.8-.5.6-1.2.9-2 .9a3 3 0 0 1-2.2-.9c-.5-.6-.8-1.5-.8-2.8v-2.7c0-1.3.3-2.2.8-2.8.6-.6 1.3-.9 2.1-.9.9 0 1.6.3 2.1.9.6.6 1 1.5 1 2.8zm-1.6 3.2v-3.7c0-.4-.1-.8-.3-1a1 1 0 0 0-.7-.6h-.7c-.3 0-.5.2-.7.5a2 2 0 0 0-.3 1v3.8c0 .4.1.8.3 1 .2.4.4.5.7.6h.7c.3 0 .5-.2.7-.5.2-.3.3-.7.3-1zm3.6-8a1 1 0 0 1-.3-.7c0-.2 0-.5.3-.7l.6-.2c.3 0 .5 0 .7.2.2.2.3.5.3.7 0 .3 0 .5-.3.7a1 1 0 0 1-.7.3 1 1 0 0 1-.6-.3zm1 11.1h-1.1v-9.8l.3-.1h1.2v9.8l-.3.1z"/><path fill="#002CFF" d="M138.1 181h-4.9l-.1-.4v-14.8l.4-.1h5v1.6h-3.1l-.4.1v4.6h3.1l.4.2v1.5l-.4.1H135v5.6h3.1l.4.1v1.6h-.4zm6.9-3.2v-7.3l.1-.3.4-.1h1.3V181l-.4.1h-1.3v-.7c-.5.5-1 .8-1.7.8-1 0-1.6-.2-2.2-.9-.5-.6-.7-1.5-.7-2.8v-7.2l.4-.1h1.3l.1.4v7.3c0 .4 0 .7.3 1 .2.3.4.5.7.6h.8c.2 0 .5-.3.7-.6.2-.3.2-.6.2-1zm4.5-7.8h1c.1 0 .2 0 .3.2l.1.3v.3a2 2 0 0 1 1.6-.8c1 0 1.7.2 2.2.9.5.6.8 1.5.8 2.8v3.7c0 1.3-.3 2.2-.8 2.8-.5.7-1.3 1-2.2 1-.6-.1-1.2-.4-1.6-.9v4.6l-.4.1h-1.3l-.1-.4v-14.4l.4-.1zm1.4 3.4v4.4c0 .4 0 .7.3 1 .2.3.4.5.7.6h.8c.3 0 .5-.3.7-.6.2-.3.3-.6.2-1v-4.4c0-.5 0-.8-.2-1.1-.2-.3-.4-.5-.7-.6h-.8c-.3 0-.5.3-.7.6-.2.3-.3.6-.3 1zm8.4 0v7.5l-.4.1h-1.3l-.1-.4v-14.8l.4-.1h1.3l.1.4v4.7a2 2 0 0 1 1.6-.8c1 0 1.7.2 2.2.9.5.6.8 1.5.8 2.8v7l-.1.2-.4.1h-1.3v-7.7c0-.5-.1-.8-.3-1.1l-.7-.6h-.8c-.3 0-.5.3-.7.6-.2.3-.3.6-.3 1zm13 .6v3c0 1.5-.3 2.5-1 3.2a3 3 0 0 1-2.3 1c-.9 0-1.6-.4-2.3-1-.6-.7-1-1.7-1-3.1v-3c0-1.5.4-2.5 1-3.1.6-.7 1.4-1 2.3-1s1.7.3 2.4 1c.6.6 1 1.6 1 3zm-1.8 3.6v-4.1c0-.5 0-.9-.3-1.2-.2-.3-.4-.5-.7-.6h-.9c-.3.1-.5.3-.7.6a2 2 0 0 0-.3 1.2v4.1c0 .5 0 .9.3 1.2.2.3.4.5.7.6h.9c.3-.1.5-.3.7-.6.2-.3.3-.7.3-1.2zm7.5-5.7l-.7-.1c-.6 0-.9.2-1 .7l-.1 1.5v6.6l-.1.4h-1.7v-10.8l.4-.1h1.3v.7c.5-.5 1-.7 1.6-.7h.6l.1.4v1.3c-.2.1-.3.1-.4 0zm2-3.1a1.1 1.1 0 0 1 0-1.6c.2-.2.5-.3.8-.3.2 0 .5.1.7.3.2.3.3.5.3.8s0 .5-.3.8a1 1 0 0 1-.7.3 1 1 0 0 1-.8-.3zm1.2 12.2h-1.3v-10.8l.4-.1h1.3V181l-.4.1zm2.5-4v-3c0-1.4.3-2.4 1-3 .6-.7 1.3-1 2.3-1s1.7.3 2.3 1c.6.6 1 1.6 1 3v1.5l-.1.3-.4.1h-3.9l-.3.1-.1.4v1.3c0 .5.1 1 .4 1.3.3.3.6.4 1 .4.5 0 .8-.1 1-.4.3-.3.5-.6.5-1v-.5l.4-.1h1.2l.1.4c0 .8-.2 1.5-.7 2.3-.6.7-1.4 1-2.4 1s-1.7-.3-2.4-1c-.6-.6-1-1.6-1-3zm4.7-3.1v-.5c0-.7-.2-1.2-.7-1.5-.5-.3-1-.3-1.5 0s-.8.8-.7 1.5v.5l.1.3.3.1h2l.4-.1.1-.3z"/><path fill="#4A4A4A" d="M129.1 238.4h-.4c-.3 0-.4-.1-.5-.3l-1.7-7h-.1v6.8l-.2.4h-1.6l-.1-.4v-14.8h1.6v.2l2.7 10.7.1.1h.1l2.7-10.8c0-.2.1-.3.4-.3h.8l.3.1.1.3v14.9h-1.7l-.1-.4v-6.8h-.1l-1.8 7c0 .2-.2.3-.5.3zm13.2-11.4v7.3c0 1.4-.3 2.4-1 3.1-.6.7-1.4 1-2.5 1-1 0-1.9-.3-2.5-1-.7-.7-1-1.7-1-3.1v-7.2c0-1.4.3-2.4 1-3.1.6-.7 1.5-1 2.5-1s2 .3 2.6 1c.6.7 1 1.7 1 3zm-5.2 0v7.4c0 1.6.6 2.4 1.7 2.4s1.7-.8 1.7-2.4V227c0-1.6-.6-2.4-1.7-2.4s-1.7.8-1.7 2.4zm6.4-2.7v-.9l.1-.3.4-.1h5.7l.3.1.1.3v1.2l-.4.1h-1.9V238l-.1.4H146v-13.1l-.1-.4H144l-.4-.2v-.3zm9.9-.9v14.9h-1.7l-.1-.4v-14.8l.4-.1h1l.3.1.1.3zm7.7-.4h1.2l.1.1v.3l-2.7 14.6-.1.3H158l-.1-.3-2.8-14.6v-.3h1.7l.1.2 1.8 9.5h.2l1.7-9.5.1-.2h.4zm8.9 15.4h-1.2l-.1-.1-.1-.2-.3-1.4-.1-.4h-3.3l-.1.4-.3 1.4v.2h-1.8v-.3l2.8-14.6.1-.3.4-.1h1.5l.1.4 2.8 14.6v.3h-.4zm-3.5-11.7l-1.3 7.4v.4h2.8v-.4l-1.3-7.4v-.1h-.1zm4.1-2.4v-.9l.1-.3.4-.1h5.7l.3.1.1.3v1.2l-.4.1h-1.9V238l-.2.4h-1.6l-.1-.4v-13.1h-2l-.4-.2v-.3zm9.9-.9V238l-.1.4h-1.7v-15.2l.4-.1h1l.3.1v.3zm9 3.6v7.3c0 1.4-.3 2.4-1 3.1-.6.7-1.5 1-2.5 1s-2-.3-2.6-1c-.6-.7-1-1.7-1-3.1v-7.2c0-1.4.4-2.4 1-3.1.7-.7 1.5-1 2.6-1 1 0 1.9.3 2.5 1 .7.7 1 1.7 1 3zm-5.2 0v7.4c0 1.6.6 2.4 1.7 2.4s1.6-.8 1.6-2.4V227c0-1.6-.5-2.4-1.6-2.4s-1.7.8-1.7 2.4zm13.9 11.4h-.8c-.3 0-.4-.1-.5-.3l-3.4-9.2h-.1v9l-.2.4h-1.6l-.1-.4v-14.8l.4-.1h.8c.3 0 .4.1.5.3l3.4 9.2h.1v-9l.2-.4.3-.1h1l.3.1.1.3v14.9h-.4z"/><path fill="#002CFF" d="M121.3 294.3h-4.9l-.1-.4V279h5.4v1.5l-.4.1h-3.1v4.7h3.1l.4.1v1.6h-3.2l-.3.1v5.4h3.1l.4.2v1.5l-.4.1zm4.3-7.7v7.3l-.1.3-.3.1h-1.3l-.1-.4v-10.5h1.7l.1.4v.3c.4-.5 1-.8 1.6-.9 1 0 1.7.3 2.2 1s.8 1.5.8 2.8v6.9l-.1.3-.4.1h-1.3v-7.7c0-.4-.1-.8-.3-1-.2-.4-.5-.6-.7-.6h-.8c-.3 0-.5.2-.7.5a2 2 0 0 0-.3 1.1zm6.4 3.7v-3c0-1.4.4-2.4 1-3 .6-.7 1.4-1 2.3-1s1.7.3 2.4 1c.6.6 1 1.6 1 3v1.4l-.2.4h-4.2l-.3.2-.1.3v1.3c0 .6.1 1 .4 1.3s.6.5 1 .5.8-.2 1-.4c.3-.3.4-.7.5-1v-.5l.4-.2h.9l.3.1.1.4c0 .7-.2 1.5-.7 2.2-.6.7-1.4 1-2.5 1a3 3 0 0 1-2.3-.9c-.6-.6-1-1.7-1-3zm4.8-3.2v-.4c0-.7-.2-1.3-.7-1.6s-1-.3-1.5 0-.8.9-.7 1.6v.8h2.8v-.4zm7.5-2h-.7c-.6 0-1 .2-1 .7l-.1 1.5v6.6l-.1.3-.4.1h-1.3v-10.9h1.7v.6c.5-.4 1-.7 1.6-.7h.3l.3.1.1.4v.9l-.1.4h-.3zm1.7 10.7l1-.3c.2-.1.4 0 .5.2.3.6.7 1 1.3 1 .5 0 .8-.2 1-.5.3-.4.5-.8.5-1.3v-1.3c-.4.5-1 .7-1.6.8-1 0-1.7-.3-2.2-1-.5-.5-.8-1.5-.8-2.7V287c0-1.3.3-2.2.8-2.9.5-.6 1.2-.9 2.2-.9a2 2 0 0 1 1.6.8v-.6h1.7l.1.4v10.5c0 1.4-.3 2.4-1 3-.6.7-1.4 1-2.3 1-1.4 0-2.4-.7-3-2 0-.3 0-.4.3-.5zm4.3-4.8v-4.4c0-.4-.1-.8-.3-1-.2-.4-.4-.6-.7-.6h-.8c-.3 0-.5.2-.7.5-.2.3-.3.7-.2 1.1v4.4c0 .4 0 .8.2 1.1.2.3.4.5.7.5.3.1.6.1.8 0 .3 0 .5-.2.7-.5.2-.3.3-.7.3-1zm4.2-9a1.1 1.1 0 0 1 0-1.5c.2-.2.4-.3.7-.3.3 0 .6.1.8.3.2.2.3.5.3.8s-.1.5-.3.7a1 1 0 0 1-.8.3 1 1 0 0 1-.7-.3zm1.2 12.3h-1.3l-.1-.4v-10.1l.1-.4h1.6l.1.4v10.4l-.4.1zm2.4-4v-3c0-1.4.3-2.4 1-3 .6-.7 1.4-1 2.3-1s1.7.3 2.4 1c.6.6 1 1.6 1 3v1.4l-.2.4h-4.2c-.2 0-.3.1-.3.2l-.1.3v1.3c0 .6.1 1 .4 1.3s.6.5 1 .5.8-.2 1-.4c.3-.3.4-.7.4-1l.1-.5.4-.2h.9l.3.1.1.4c0 .7-.2 1.5-.8 2.2-.5.7-1.3 1-2.4 1-.9 0-1.7-.2-2.3-.9-.7-.6-1-1.7-1-3zm4.8-3.2v-.4c0-.7-.2-1.3-.7-1.6s-1-.3-1.5 0c-.6.3-.8.9-.7 1.6v.8h2.8v-.4zm12.5-3.8h1.2l.1.1v.3l-2 10.2-.1.3-.4.1h-1.5l-.2-.4-2-10.2v-.3h1.7l.1.2 1.2 6.7h.2l1.2-6.7.1-.2h.4zm3-1.3a1.1 1.1 0 0 1 0-1.5c.2-.2.5-.3.8-.3.3 0 .5.1.7.3.2.2.4.5.4.8s-.2.5-.4.7a1 1 0 0 1-.7.3 1 1 0 0 1-.8-.3zm1.3 12.3h-1.3l-.1-.4v-10.5h1.7l.1.4v10l-.1.4-.3.1zm4.4-8.9v5c0 .9.1 1.4.3 1.7.1.3.5.4 1 .5l.3.1.1.3v1.2l-.4.1c-1.1 0-2-.3-2.4-1-.4-.5-.7-1.5-.7-2.9v-5c0-.2 0-.2-.2-.2l-.4-.1v-1.5h.4c.1 0 .2-.1.2-.3v-1.9l.1-.3.3-.1h1.3l.1.4v2l.3.1h.5l.4.1v1.5h-.9c-.2 0-.3.1-.3.3zm9.3 8.9h-1l-.3-.1-.1-.6a3 3 0 0 1-2.1.8c-.9 0-1.6-.3-2-.8a3 3 0 0 1-.8-2.1v-.4c0-.7.1-1.3.4-1.8.3-.5.7-.8 1.2-1l.8-.3a21.5 21.5 0 0 0 1.5-.6c.3-.1.5-.3.6-.5l.2-.6c0-.4-.1-.7-.4-1s-.6-.4-1-.4-.7.2-1 .5-.4.7-.4 1.1v.4h-1.6v-.4c-.1-.9.2-1.7.8-2.3a3 3 0 0 1 2.3-1 3.3 3.3 0 0 1 3.2 3.4v6.2l.1 1c.1.4 0 .5-.4.5zm-3-1.6c1 0 1.4-.7 1.4-1.8v-2.2a30.9 30.9 0 0 1-1.9.8 6 6 0 0 0-.5.4c-.3.3-.5.7-.5 1.4 0 .3 0 .6.3.9.2.3.6.5 1.2.5zm7.1-13.3v11c0 .9 0 1.4.2 1.7.2.3.5.4 1 .5l.4.1v1.5l-.4.1c-1.1 0-1.9-.3-2.3-1-.5-.5-.8-1.5-.8-2.9v-11l.1-.4h1.7v.4zm3 10.9v-3c0-1.4.3-2.4 1-3 .6-.7 1.3-1 2.3-1s1.7.3 2.3 1c.6.6 1 1.6 1 3v1.4l-.1.4c-.1.1-.2 0-.4 0h-3.8l-.4.2v1.6c0 .6 0 1 .3 1.3s.6.5 1 .5c.5 0 .8-.2 1-.4.3-.3.5-.7.5-1v-.5l.4-.2h1l.2.1.2.4a4 4 0 0 1-.8 2.2c-.6.7-1.4 1-2.4 1s-1.7-.2-2.4-.9c-.6-.6-1-1.7-1-3zm4.7-3.2v-.4c0-.7-.2-1.3-.7-1.6s-1-.3-1.5 0-.7.9-.7 1.6v.4l.1.4h2.7l.1-.4z"/><path fill="#41D5CF" d="M110.6 317v5.2c0 1-.2 1.8-.7 2.3-.4.5-1 .8-1.8.8s-1.4-.3-1.9-.8-.7-1.3-.7-2.3V317c0-1 .3-1.8.7-2.3.5-.5 1.1-.8 1.9-.8.7 0 1.4.3 1.8.8.5.5.7 1.3.7 2.3zm-3.7 0v5.3c0 1.1.4 1.7 1.2 1.7s1.2-.6 1.2-1.7v-5.4c0-1.1-.4-1.7-1.2-1.7s-1.2.6-1.2 1.7zm8.3 5.3v-2.2c0-1 .2-1.8.7-2.3.5-.4 1-.7 1.7-.7s1.2.3 1.7.7c.5.5.7 1.3.7 2.3v1.3h-3.2l-.3.1v1.3c0 .3 0 .6.2.9.2.2.5.3.8.3.3 0 .5 0 .7-.3.2-.2.3-.4.3-.8l.1-.3h1.2l.1.2c0 .6-.1 1.1-.5 1.7-.4.5-1 .8-1.8.8-.7 0-1.2-.3-1.7-.7-.5-.5-.7-1.3-.7-2.3zm3.5-2.3v-.4c0-.5-.2-.9-.5-1a1 1 0 0 0-1.2 0c-.3.1-.5.5-.5 1v.4l.1.2h2v-.2zm-.9-3.6h-.4l-.2-.1v-1.9h1.2c.2 0 .3 0 .2.4l-.5 1.3-.1.3h-.2zm5 3.2v5.5h-1.3v-7.8l.3-.1h.9v.5c.4-.3.8-.5 1.3-.6.6 0 1.2.2 1.5.7.4.4.6 1.1.6 2v5.3h-1.3v-5.5c0-.3 0-.6-.2-.8l-.5-.4h-.6c-.2 0-.4.2-.5.4l-.2.8zm4.7 2.7v-2.2c0-1 .2-1.8.7-2.3.4-.4 1-.7 1.7-.7s1.2.3 1.7.7c.4.5.7 1.3.7 2.3v1l-.1.3h-3.1l-.2.1v1.3c0 .3 0 .6.2.9.2.2.5.3.8.3.3 0 .5 0 .7-.3.2-.2.3-.4.3-.8v-.3h1.2v.2c.1.6 0 1.1-.5 1.7-.4.5-1 .8-1.7.8s-1.3-.3-1.7-.7c-.5-.5-.7-1.3-.7-2.3zm3.4-2.3v-.4c0-.5 0-.9-.5-1a1 1 0 0 0-1 0c-.5.1-.6.5-.6 1v.6h2.1v-.2zm5.5-1.5h-.5c-.4 0-.7.1-.7.5l-.1 1v4.9l-.1.2h-1.2v-7.8l.2-.1h1v.5a2 2 0 0 1 1.2-.5h.4v1.3h-.2zm1.3 7.8l.6-.2c.2-.1.4 0 .4.1.2.5.5.7 1 .7.3 0 .6-.1.8-.4.2-.2.3-.5.3-.9v-1c-.3.4-.7.6-1.2.7-.7 0-1.2-.2-1.6-.7a3 3 0 0 1-.6-2v-2.8c0-.9.2-1.6.6-2a2 2 0 0 1 1.6-.7c.5 0 .9.3 1.2.6v-.4l.3-.1h.9l.1.3v7.7c0 1-.2 1.7-.7 2.2-.5.5-1 .7-1.7.7-1 0-1.8-.5-2.2-1.5 0-.2 0-.3.2-.3zm3-3.5v-3.2l-.1-.8a.8.8 0 0 0-.5-.4h-.6c-.2 0-.4.2-.5.4l-.2.8v3.2c0 .3 0 .6.2.8l.5.4h.6c.2 0 .3-.2.5-.4l.2-.8zm3.1-6.5a.8.8 0 0 1-.2-.6c0-.2 0-.4.2-.6l.6-.2.5.2c.2.2.2.4.2.6 0 .2 0 .4-.2.6l-.5.2c-.3 0-.4-.1-.6-.3zm.9 8.9h-.9l-.1-.3v-7.6l.3-.1h1v7.9h-.3zm1.8-2.9v-2.2c0-1 .2-1.8.7-2.3.4-.4 1-.7 1.7-.7s1.2.3 1.7.7c.4.5.7 1.3.7 2.3v1l-.1.3H148l-.2.1v1.3c0 .3 0 .6.2.9.2.2.4.3.8.3.3 0 .5 0 .7-.3.2-.2.3-.4.3-.8v-.3h1.2v.2c.1.6 0 1.1-.5 1.7-.4.5-1 .8-1.7.8s-1.3-.3-1.7-.7c-.5-.5-.7-1.3-.7-2.3zm3.4-2.3v-.4c0-.5-.1-.9-.5-1a1 1 0 0 0-1.1 0c-.4.1-.5.5-.5 1v.6h2l.1-.2zm5.8-1.7v-.8h4.7v1.1h-4.7v-.3zm0 2.5v-.8h4.7v1.1h-4.7v-.3zm13.5 4.4h-.9l-.1-.3v-.2c-.3.3-.7.5-1.2.6-.7 0-1.2-.2-1.6-.7-.3-.5-.5-1.1-.5-2v-2.7c0-1 .2-1.7.5-2.1a2 2 0 0 1 1.6-.7c.5 0 .9.3 1.2.6v-3.6l.3-.1h1v11.1h-.3zm-1-2.4v-3.2c0-.3 0-.6-.2-.8l-.5-.4h-.6c-.2 0-.4.2-.5.4l-.2.8v3.2c0 .3 0 .6.2.8l.5.4h.6c.2 0 .4-.2.5-.4l.2-.8zm2.8-.5v-2.2c0-1 .2-1.8.7-2.3.4-.4 1-.7 1.7-.7s1.2.3 1.7.7c.4.5.7 1.3.7 2.3v1l-.1.3h-3.1l-.2.1v1.3c0 .3 0 .6.2.9.2.2.5.3.8.3.3 0 .5 0 .7-.3.2-.2.3-.4.3-.8v-.3h1.2l.1.2a3 3 0 0 1-.6 1.7c-.4.5-1 .8-1.7.8s-1.3-.3-1.7-.7c-.5-.5-.7-1.3-.7-2.3zm3.4-2.3v-.4c0-.5 0-.9-.5-1a1 1 0 0 0-1 0c-.5.1-.6.5-.6 1v.6h2.1v-.2zm-.8-3.6h-.5l-.1-.1v-1.9h1.1c.3 0 .3 0 .2.4l-.4 1.3c0 .2-.1.2-.2.3h-.1zm3.9.8h1v.5c.3-.3.7-.5 1.2-.6.7 0 1.2.2 1.6.7.4.4.6 1.1.6 2v2.7c0 1-.2 1.6-.6 2.1s-.9.7-1.6.7c-.5 0-.9-.3-1.1-.7v3.2l-.1.2h-1.2v-10.7l.2-.1zm1 2.4v3.2c0 .3.1.6.3.8 0 .2.3.3.5.4s.3 0 .5 0 .4-.2.6-.4c0-.2.2-.5.1-.8v-3.2l-.1-.8a.8.8 0 0 0-.6-.4h-.5c-.2 0-.4.2-.5.4l-.2.8zm7.5-1.1h-.5c-.4 0-.7.1-.7.5l-.1 1v4.9l-.1.2h-1.2v-7.8l.2-.1h1v.5a2 2 0 0 1 1.2-.5h.4l.1.3v1h-.3zm1 3.8v-2.2c0-1 .3-1.8.7-2.3.5-.4 1-.7 1.7-.7s1.3.3 1.7.7c.5.5.7 1.3.7 2.3v1.3h-3.1l-.3.1v1.3c0 .3 0 .6.3.9.1.2.4.3.7.3.3 0 .6 0 .8-.3.2-.2.3-.4.3-.8v-.3h1.2v.2c0 .6-.1 1.1-.5 1.7-.4.5-1 .8-1.8.8-.6 0-1.2-.3-1.7-.7-.4-.5-.7-1.3-.7-2.3zm3.5-2.3v-.4c0-.5-.1-.9-.5-1a1 1 0 0 0-1.1 0c-.4.1-.6.5-.5 1v.6h2v-.2zm6.9 2.8c0 .7-.1 1.2-.6 1.7-.4.5-1 .8-1.7.8s-1.2-.3-1.7-.8c-.4-.4-.6-1-.6-1.5v-.2l.3-.1h.9v.3l.4.7c.2.2.4.3.7.3.3 0 .5 0 .7-.2l.3-.6a1 1 0 0 0-.1-.8c-.2-.3-.4-.5-.8-.7l-.9-.6-.9-.8-.4-1a2 2 0 0 1 2-2.1c.7 0 1.2.1 1.6.6.4.4.6 1 .6 1.5v.3H196v-.3a1 1 0 0 0-.3-.7.8.8 0 0 0-.7-.2c-.3 0-.5.2-.6.5-.1.3 0 .6.2 1 .2 0 .4.2.8.5a75.7 75.7 0 0 1 1.6 1.3c.3.4.4.7.4 1zm5.4 0c0 .7-.2 1.2-.7 1.7-.4.5-1 .8-1.7.8s-1.2-.3-1.7-.8c-.4-.4-.6-1-.6-1.5v-.2l.3-.1h.9l.1.3c0 .3.1.5.3.7.2.2.5.3.7.3.3 0 .5 0 .7-.2l.3-.6a1 1 0 0 0-.1-.8l-.7-.7-1-.6-.8-.8c-.3-.3-.4-.7-.4-1 0-.6.1-1.1.5-1.5a2 2 0 0 1 1.5-.7c.6 0 1 .2 1.5.7.4.4.6 1 .6 1.5v.3h-1.2v-.3a1 1 0 0 0-.3-.7.8.8 0 0 0-.6-.2c-.4 0-.6.2-.7.5-.1.3 0 .6.3 1l.7.5a75.7 75.7 0 0 1 1.7 1.3l.4 1zm1.2-6.5a.8.8 0 0 1-.2-.6c0-.2 0-.4.2-.6l.6-.2.5.2c.2.2.2.4.2.6 0 .2 0 .4-.2.6l-.5.2c-.3 0-.4-.1-.6-.3zm1 8.9h-1l-.1-.3v-7.6l.3-.1h1v7.9h-.3zm6.5-5.2v2.3c0 1-.3 1.8-.7 2.3-.5.4-1 .7-1.7.7s-1.3-.3-1.7-.7c-.5-.5-.7-1.3-.7-2.3v-2.2c0-1 .2-1.8.7-2.3.4-.4 1-.7 1.7-.7s1.2.3 1.7.7c.4.5.7 1.3.7 2.3zm-1.4 2.7v-3c0-.4 0-.6-.2-.9a1 1 0 0 0-.5-.4h-.6a1 1 0 0 0-.6.4l-.2.9v3c0 .3 0 .6.2.9s.4.3.6.4.4 0 .6 0 .4-.2.5-.4c.2-.3.2-.6.2-.9zm4.2-3.1v5.3l-.1.2H213v-7.8l.2-.1h1v.5c.3-.3.7-.5 1.2-.6.7 0 1.2.2 1.6.7.4.4.6 1.1.6 2v5.3h-1.3v-5.5c0-.3-.1-.6-.3-.8l-.5-.4h-.5c-.2 0-.4.2-.6.4s-.2.5-.1.8z"/></svg>