<svg xmlns="http://www.w3.org/2000/svg" viewBox="0 0 320 568"><path fill="#00659C" d="M178.8 209.2l15 15-8 7.9-14.9-15z"/><path fill="#00659C" d="M199.9 238.2l-19.9-8.4 9.1-2.4 2.5-9.2zM171 157l14.9-15 7.9 8-15 14.9z"/><path fill="#00659C" d="M199.9 135.9l-19.9 8.4 9.1 2.4 2.5 9.1zm-21 327.4l15 15-8 7.9-15-15z"/><path fill="#00659C" d="M199.9 492.4L180 484l9.1-2.5 2.5-9.1zM85.5 391.5l-31.9-32.1 7.9-7.9 31.9 32.1z"/><path fill="#00659C" d="M99.5 397.6l-20-8.4 9.2-2.4 2.4-9.2zm-14-158.4l-31.9 32.1 7.9 8 31.9-32.1z"/><path fill="#00659C" d="M99.5 233.1l-20 8.4 9.2 2.5 2.4 9.1zm71.5 178l14.9-14.9 8 8-15 14.9z"/><path fill="#00659C" d="M199.9 390l-19.9 8.4 9.1 2.4 2.5 9.2zM139 485.7a44.7 44.7 0 1 1 .2-89.3 44.7 44.7 0 0 1-.1 89.3z"/><path fill="#41D5CF" d="M139 399a42.1 42.1 0 1 1 0 84.2 42.1 42.1 0 0 1 0-84.2m0-5a47.1 47.1 0 1 0 .2 94.3 47.1 47.1 0 0 0-.1-94.3z"/><g clip-rule="evenodd"><path fill="none" stroke="#FFF" stroke-miterlimit="10" d="M173.8 436.5h-.3a858 858 0 0 1-5.4 2.5c-.2 0-.3.2-.3.5l-.1 5.1a28.2 28.2 0 0 1-10.1 18.6 28.6 28.6 0 0 1-45.2-12 28.6 28.6 0 0 1 44.2-32.8l3 2.6 6-2.7a34.8 34.8 0 0 0-58.3 37 34.8 34.8 0 0 0 66.5-18.8zm.1-17.3h-.1l-11.3 5.1-.4.4-1.8 4.4c0 .2-.2.4-.4.5l-4 1.8-6.7 3-6 2.7-4.9 2.3c-1 .5-1.2 1.6-.7 2.8.3.6 1.5 1.3 2.5.8l8.8-4 12.8-5.7c.1-.1.3-.1.4 0l4.4 1.4c.2.1.5.2.7 0l2.1-.9 7.3-3.3 2-1-7.7-2.7 3-7.6zm-30 13.2a10 10 0 0 0-13.6 13.3c2 4 6.2 6 10.4 5.4a9.8 9.8 0 0 0 8.2-7.6l-1.9.8-4.8 2.2c-1.8.9-3.7 1-5.6.2a6 6 0 0 1-3.4-5c-.3-2.2.6-4.2 2.5-5.5 1-.7 2.3-1.1 3.4-1.7l4.8-2.1z"/><path fill="#FFF" fill-rule="evenodd" d="M173.8 436.5a34.8 34.8 0 1 1-51.3-26c16.7-9 34.5-2.6 43 7.8l-5.8 2.7-3.1-2.6a28.1 28.1 0 0 0-28.4-3.7 28.6 28.6 0 1 0 39.5 30l.1-5.2c0-.3 0-.4.3-.5a832 832 0 0 0 5.4-2.4l.3-.1z"/><path fill="none" stroke="#FFF" stroke-miterlimit="10" d="M174 419.2l-3.1 7.6 7.8 2.8-2 .9-7.4 3.3-2 1h-.8l-4.4-1.6h-.4c-4.3 2-8.5 4-12.8 5.8l-8.8 4c-1 .5-2.2-.2-2.5-.8-.5-1.2-.3-2.3.7-2.8l5-2.3 5.9-2.7 6.7-3 4-1.8.4-.5 1.8-4.4.4-.4 11.3-5.1h.1z"/><path fill="#FFF" fill-rule="evenodd" d="M143.9 432.4l-4.8 2.1c-1.1.6-2.3 1-3.4 1.7a5.6 5.6 0 0 0-2.5 5.6 5.9 5.9 0 0 0 3.4 4.9c1.9.9 3.8.7 5.6-.2l4.8-2.2 2-.8a9.8 9.8 0 0 1-8.3 7.6 10 10 0 0 1-10.5-5.5 10 10 0 0 1 13.7-13.2z"/></g><path fill="#00659C" d="M139 231.8a44.7 44.7 0 1 1 .2-89.3 44.7 44.7 0 0 1-.1 89.3z"/><path fill="#41D5CF" d="M139 145a42.1 42.1 0 1 1 0 84.3 42.1 42.1 0 0 1 0-84.2m0-5a47.1 47.1 0 1 0 .2 94.3 47.1 47.1 0 0 0-.1-94.3z"/><g clip-rule="evenodd"><path fill="none" stroke="#FFF" stroke-miterlimit="10" d="M173.8 182.6h-.3l-5.4 2.5c-.2.1-.3.2-.3.5l-.1 5.2a28.2 28.2 0 0 1-10.1 18.6 28.6 28.6 0 0 1-47-21.2A28 28 0 0 1 118 168a28.6 28.6 0 0 1 38.6-3.5l3 2.6 6-2.7a34.8 34.8 0 0 0-58.3 37.1 34.8 34.8 0 0 0 66.5-19zm.1-17.3h-.1l-11.3 5.1-.4.4-1.8 4.4c0 .2-.2.4-.4.5l-4 1.8-6.7 3-6 2.7-4.9 2.3c-1 .5-1.2 1.6-.7 2.8.3.6 1.5 1.3 2.5.8l8.8-4 12.8-5.7s.3-.1.4 0c1.5.4 3 1 4.4 1.5h.7l2.1-1c2.5-1 4.9-2.2 7.3-3.3l2-1-7.7-2.7 3-7.6zm-30 13.2a10 10 0 0 0-13.6 13.3c2 4 6.2 6 10.4 5.4a9.8 9.8 0 0 0 8.2-7.6l-2 .9-4.7 2.2c-1.8.8-3.7 1-5.6 0-2-.9-3.2-2.6-3.4-4.8-.3-2.3.6-4.3 2.5-5.6 1-.7 2.3-1.1 3.4-1.7l4.8-2.1z"/><path fill="#FFF" fill-rule="evenodd" d="M173.8 182.6a34.8 34.8 0 1 1-51.3-26c16.7-9 34.5-2.5 43 7.8l-5.8 2.7-3.1-2.6a28.1 28.1 0 0 0-28.4-3.7 28.6 28.6 0 1 0 39.5 30l.1-5.2c0-.3 0-.4.3-.5l5.4-2.4.3-.1z"/><path fill="none" stroke="#FFF" stroke-miterlimit="10" d="M174 165.3l-3.1 7.6 7.8 2.8-2 1-7.4 3.2-2.1 1h-.7l-4.4-1.6h-.4c-4.3 2-8.5 4-12.8 5.8l-8.8 4c-1 .5-2.2-.2-2.5-.8-.5-1.2-.3-2.3.7-2.8l5-2.3 5.9-2.7 6.7-3 4-1.8.4-.5 1.8-4.4.4-.4 11.3-5h.1z"/><path fill="#FFF" fill-rule="evenodd" d="M143.9 178.5l-4.8 2.1c-1.1.6-2.3 1-3.4 1.7a5.7 5.7 0 0 0-2.5 5.6 5.9 5.9 0 0 0 3.4 4.9c2 .9 3.8.7 5.6-.1l4.8-2.2 2-1a9.8 9.8 0 0 1-8.3 7.7 10 10 0 0 1-10.5-5.5 10 10 0 0 1 13.7-13.2z"/></g><path fill="#00659C" d="M250.5 548.3a44.7 44.7 0 1 1 .1-89.3 44.7 44.7 0 0 1 0 89.3z"/><path fill="#41D5CF" d="M250.5 461.6a42.1 42.1 0 1 1 0 84.3 42.1 42.1 0 0 1 0-84.3m0-5a47.1 47.1 0 1 0 .1 94.3 47.1 47.1 0 0 0 0-94.3z"/><path fill="#4A4A4A" d="M236.6 71.4h-1.3v3.9h-.8v-11l.3-.1h1.8c.8 0 1.3.2 1.8.7.4.4.6 1.1.6 2v1.8c0 1-.2 1.6-.6 2-.5.5-1 .7-1.8.7zm-1.3-6.1v5.3h1.3c.5 0 .8 0 1.1-.4.3-.3.5-.8.5-1.5V67c0-.6-.2-1.1-.5-1.5s-.6-.4-1.1-.4h-1.3v.3zm7.3 3h-.4c-.3 0-.6 0-.7.4v6.4l-.1.2h-.7v-7.8l.2-.1h.5v.5a2 2 0 0 1 1.2-.5h.3v1h-.3zm2.1-1.6c-.2 0-.3-.1-.4-.3V66c0-.2.2-.3.4-.3s.4.1.5.3v.5c-.1.2-.3.3-.5.3zm.4 1v7.6h-.7v-7.8l.2-.1h.5v.3zm1.8 4.9v-2.5c0-1 .2-1.6.6-2a2 2 0 0 1 1.5-.8 2 2 0 0 1 1.6.7c.4.5.6 1.2.6 2.1v2.5c0 1-.2 1.7-.6 2.2a2 2 0 0 1-1.6.6 2 2 0 0 1-1.5-.7c-.4-.4-.6-1.1-.6-2zm3.5.4v-3.2c0-.6-.2-1-.4-1.3-.2-.3-.6-.4-1-.4s-.7.1-1 .4c-.1.3-.3.7-.3 1.3V73c0 .5.1 1 .4 1.3s.5.4 1 .4c.3 0 .7-.2.9-.4s.4-.8.4-1.3zm4.6-4.7h-.4c-.4 0-.6 0-.7.4l-.1 1.1v5.5h-.8v-7.8l.3-.1h.4v.5a2 2 0 0 1 1.2-.5h.3v1h-.2zm2-1.6l-.4-.3V66c.1-.2.3-.3.5-.3s.3.1.4.3v.5c0 .2-.2.3-.4.3zm.5 1v7.6h-.8v-7.8l.3-.1h.4v.3zm2.7-1.7v1.6c0 .1 0 .2.2.2h.5l.1.3v.4h-.6c-.1 0-.2 0-.2.2V74c.2.3.3.5.6.5h.3v.7h-.3c-.6 0-1-.1-1.1-.5-.2-.3-.2-.7-.3-1v-5.1c0-.1 0-.2-.2-.2h-.2v-.7h.2c.1 0 .2 0 .2-.2v-1.8h.8v.3zm2.2 6.6v-2.5c0-1 .2-1.6.6-2a2 2 0 0 1 1.6-.8 2 2 0 0 1 1.5.7c.4.5.6 1.2.6 2.1v1.1l-.3.1h-3.1V73c0 .5 0 1 .3 1.3s.5.4 1 .4c.3 0 .6-.1.9-.4.2-.2.3-.6.3-1l.1-.3.2-.1h.5v.3c0 .6-.1 1-.5 1.6-.3.4-.9.6-1.6.6a2 2 0 0 1-1.5-.6c-.4-.5-.6-1.2-.6-2.2zm.8-2.8v.7h2.6v-.7c0-.6 0-1-.3-1.3-.2-.3-.5-.4-1-.4-.4 0-.7.1-1 .4-.1.3-.3.7-.3 1.3zm1.4-3.2c-.2 0-.2 0-.2-.2v-1.7h.8v.3l-.3 1.5-.1.2h-.2zm6.9.4l1.1-2.7.3-.1h.4v11.1h-.7l-.1-.2v-7.6l-.2-.1h-.6c-.2 0-.3-.1-.2-.4zm-36.1 126.3H234v3.9h-.8v-11l.3-.1h1.8c.7 0 1.3.2 1.7.7.5.4.7 1.1.7 2v1.8c0 1-.2 1.6-.7 2-.4.5-1 .7-1.7.7zm-1.3-6.1v5.3h1.3c.4 0 .8 0 1.1-.4.3-.4.5-.8.5-1.5v-1.8c0-.6-.2-1.1-.5-1.5s-.7-.5-1.2-.5h-1.2v.4zm7.3 3h-.4c-.3 0-.6 0-.7.4v6.4l-.2.2h-.6l-.1-.2v-7.6l.3-.1h.4l.1.3v.2c.3-.3.7-.5 1.2-.5h.3v1h-.3zm2.1-1.6c-.2 0-.3-.1-.4-.3v-.5c0-.2.2-.3.4-.3s.4.1.4.3v.5c0 .2-.2.3-.4.3zm.4 1v7.6h-.7l-.1-.2v-7.6l.3-.1h.4l.1.3zm1.8 4.9V192c0-1 .2-1.6.6-2a2 2 0 0 1 1.5-.8 2 2 0 0 1 1.6.7c.4.5.6 1.2.6 2.1v2.5c0 1-.2 1.7-.6 2.1a2 2 0 0 1-1.6.7 2 2 0 0 1-1.5-.7c-.4-.4-.6-1.1-.6-2zm3.4.4v-3.2c0-.6 0-1-.3-1.3-.3-.3-.6-.4-1-.4s-.7.1-1 .4c-.2.3-.3.7-.3 1.3v3.2c0 .5.1 1 .4 1.3s.5.4 1 .4c.3 0 .6-.2.9-.4s.3-.8.3-1.3zm4.6-4.7h-.3c-.4 0-.6 0-.7.4l-.1 1.1v5.3l-.1.2h-.7v-7.8l.2-.1h.5v.5a2 2 0 0 1 1.2-.5h.3v1h-.3zm2.1-1.6c-.2 0-.3-.1-.4-.3v-.5c0-.2.2-.3.4-.3s.4.1.5.3v.5c-.1.2-.2.3-.5.3zm.5 1v7.4l-.1.2h-.7v-7.8l.2-.1h.5v.3zm2.7-1.7v1.6c0 .1 0 .2.2.2h.5v.7h-.5c-.1 0-.2 0-.2.2v5.4c.1.3.3.5.6.5h.2l.1.3v.4h-.3c-.6 0-1-.1-1.2-.5l-.2-1v-5.1c0-.1 0-.2-.2-.2h-.2l-.1-.3v-.4h.3c.1 0 .2 0 .2-.2v-1.9h.7l.1.3zm2.2 6.6V192c0-1 .2-1.6.6-2a2 2 0 0 1 1.5-.8 2 2 0 0 1 1.6.7c.4.5.6 1.2.6 2.1v.9l-.1.2-.3.1h-3v1.7c0 .5 0 1 .3 1.3s.5.4 1 .4c.3 0 .6-.2.8-.4.3-.3.4-.6.4-1v-.3l.3-.1h.5v.3c0 .6-.2 1-.5 1.6-.4.4-.9.6-1.6.6a2 2 0 0 1-1.5-.7c-.4-.4-.6-1.1-.6-2zm.8-2.8v.7h2.7v-.7c0-.6 0-1-.3-1.3-.2-.3-.6-.4-1-.4s-.7.1-1 .4c-.2.3-.3.7-.3 1.3zm1.4-3.2c-.2 0-.2 0-.2-.2v-1.8h.8v.3l-.4 1.5v.2h-.2zm7.7 6.5v1.5h3.4v.7h-4.1l-.1-.2v-2.2c0-.8.4-1.8 1.2-2.7l.5-.6.5-.6.5-.6a4.2 4.2 0 0 0 .6-1.2l.1-.6c0-1.2-.4-1.7-1.3-1.7-.4 0-.7.1-1 .4s-.3.7-.3 1.3v.5h-.7l-.1-.2c0-.9.2-1.5.5-2s.9-.8 1.6-.8c.4 0 .8.1 1 .3.4.1.6.4.8.6a3.1 3.1 0 0 1 .4 1.6c0 .9-.4 1.8-1.3 2.7l-.4.6a40.2 40.2 0 0 0-1.4 1.9l-.3.6a2 2 0 0 0 0 .7zm-34.5 130.6h-1.3v3.8l-.3.1h-.5v-11.1l.3-.1h1.8c.8 0 1.3.2 1.8.7.4.4.6 1.1.6 2v1.8c0 1-.2 1.6-.6 2-.5.5-1 .8-1.8.8zm-1.3-6.2v5.4h1.3c.5 0 .8-.2 1.1-.5.3-.3.5-.8.5-1.5V321a2 2 0 0 0-.5-1.4c-.3-.4-.6-.5-1.1-.5h-1.3v.3zm7.3 3h-.4c-.3 0-.6.1-.7.5v6.3l-.1.2-.3.1h-.4v-7.9l.2-.1h.5v.5a2 2 0 0 1 1.2-.5h.3v1h-.3zm2.1-1.6c-.2 0-.3-.1-.4-.3v-.5c0-.2.2-.2.4-.2s.4 0 .5.2v.5c0 .1-.3.3-.5.3zm.4 1v7.6l-.3.1h-.4v-7.9l.2-.1h.5v.3zm1.8 4.9v-2.5c0-.9.2-1.6.6-2a2 2 0 0 1 1.5-.8 2 2 0 0 1 1.6.7c.4.5.6 1.2.6 2.1v2.5c0 1-.2 1.7-.6 2.2a2 2 0 0 1-1.6.7 2 2 0 0 1-1.5-.7c-.4-.5-.6-1.2-.6-2.2zm3.5.4v-3.2c0-.6-.2-1-.4-1.3-.2-.3-.6-.4-1-.4s-.7.1-1 .4c-.1.3-.3.7-.3 1.3v3.2c0 .6.1 1 .4 1.3.2.3.5.4 1 .4.3 0 .7-.1.9-.4.2-.3.4-.7.4-1.3zm4.6-4.7h-.4c-.4 0-.6.1-.7.5l-.1 1v5.5l-.3.1h-.5v-7.9l.3-.1h.4v.5a2 2 0 0 1 1.2-.5h.3v1h-.2zm2-1.6l-.4-.3v-.5c.1-.2.3-.2.5-.2s.3 0 .4.2v.5c0 .1-.2.3-.4.3zm.5 1v7.6l-.3.1h-.5v-7.9l.3-.1h.4v.3zm2.7-1.7v1.6c0 .1 0 .2.2.2h.5l.1.3v.4h-.6l-.2.2v5.4c.2.3.3.5.6.5l.3.1v.6l-.3.1c-.6 0-1-.2-1.1-.6-.2-.3-.2-.6-.3-1v-5.1c0-.1 0-.2-.2-.2h-.2v-.6l.2-.1c.1 0 .2 0 .2-.2v-1.8l.3-.1h.5v.3zm2.2 6.6v-2.5c0-.9.2-1.6.6-2a2 2 0 0 1 1.6-.8 2 2 0 0 1 1.5.7c.4.5.6 1.2.6 2.1v1.2h-3.5v1.8c0 .6 0 1 .3 1.3.2.3.5.4 1 .4.3 0 .6-.1.9-.4.2-.2.3-.6.3-1l.1-.3h.7v.2c0 .6-.1 1.1-.5 1.6a2 2 0 0 1-1.6.7 2 2 0 0 1-1.5-.7c-.4-.5-.6-1.2-.6-2.2zm.8-2.8v.7h2.6v-.7c0-.6 0-1-.3-1.3-.2-.3-.5-.4-1-.4-.4 0-.7.1-1 .4-.1.3-.3.7-.3 1.3zm1.4-3.2l-.2-.1v-1.9h.8v.3l-.3 1.5-.1.2h-.2zm6.9.5l1.1-2.7.3-.2h.4v11.1l-.3.1h-.4l-.1-.3v-7.5c0-.1 0-.2-.2-.2h-.6c-.2 0-.3-.1-.2-.3zM118.1 83.1v6.6c0 1-.2 1.8-.7 2.3-.5.5-1.1.8-2 .8a3 3 0 0 1-2-.8c-.4-.5-.7-1.3-.7-2.3v-6.6c0-1 .3-1.8.8-2.3.5-.5 1.1-.8 2-.8a3 3 0 0 1 2 .8c.4.5.6 1.3.6 2.3zm-.9 6.7V83c0-.7-.2-1.2-.5-1.5-.3-.4-.7-.6-1.3-.6-.5 0-1 .2-1.2.6-.4.3-.5.8-.5 1.5v6.8c0 .7.1 1.2.5 1.6s.7.5 1.2.5c.6 0 1-.2 1.3-.5s.5-.9.5-1.6zm2.9 2.6v-12l.1-.2h.8v4.3a2 2 0 0 1 1.5-.9 2 2 0 0 1 1.7.8c.4.5.6 1.3.6 2.4v2.8c0 1.1-.2 2-.6 2.4a2 2 0 0 1-1.7.8c-.6 0-1.1-.3-1.4-.8v.4l-.1.2-.3.1h-.5v-.3zM124 90v-3.6c0-1.2-.5-1.9-1.4-1.9-1 0-1.4.7-1.4 2V90c0 1.3.4 2 1.4 2 .9 0 1.4-.7 1.4-2zm2 5.1c.3 0 .5-.2.6-.5l.2-1.4v-9.4h.8l.1.3v8.3l-.1 2.4c-.2.7-.8 1.1-1.6 1.2l-.3-.1v-.7l.3-.1zm.8-12.4a.5.5 0 0 1-.1-.5c0-.2.2-.4.4-.4l.5.1c.2.2.3.4.2.6 0 .2-.2.3-.4.4-.2 0-.4 0-.6-.2zm2.9 6.9v-2.8c0-1 .2-1.8.6-2.4.5-.5 1-.8 1.8-.8s1.3.3 1.8.8c.4.6.6 1.3.6 2.4v1.3h-3.8V90c0 .6 0 1.1.3 1.5.3.3.7.4 1.1.4.4 0 .8-.1 1-.4l.5-1.1V90h.8v.3a3 3 0 0 1-.5 1.7c-.4.5-1 .8-1.8.8-.7 0-1.3-.3-1.8-.8-.4-.5-.6-1.3-.6-2.4zm1-3.2v.8h2.8v-.8c0-.6 0-1-.3-1.4-.3-.3-.6-.5-1-.5s-1 .2-1.2.5c-.2.3-.4.8-.4 1.4zm8 6.4c-.7 0-1.3-.3-1.7-.8-.5-.5-.7-1.3-.7-2.4v-2.8c0-1 .2-1.8.7-2.4.4-.5 1-.8 1.7-.8.8 0 1.4.3 1.8.8.4.5.6 1.1.6 1.8v.2l-.3.1h-.5l-.1-.4c0-.5-.2-.9-.4-1.2-.3-.2-.6-.4-1-.4-.5 0-.9.2-1.1.5-.3.3-.4.8-.4 1.4V90c0 .6 0 1.1.4 1.4.2.4.6.5 1 .5.5 0 .8-.1 1-.4s.5-.7.5-1.1V90h.8v.3a3 3 0 0 1-.5 1.7c-.4.5-1 .8-1.8.8zm5.3-10.6V84s0 .2.2.2h.6v.7l-.3.1h-.3c-.1 0-.2 0-.2.2v6.1c.2.3.3.5.7.6h.2l.1.3v.4l-.3.1c-.7 0-1.1-.2-1.3-.7a2 2 0 0 1-.3-1v-5.9c0-.1 0-.2-.2-.2h-.3v-.8h.3l.2-.2v-2.1l.3-.1h.5l.1.4zm3.1.8c-.2 0-.4-.2-.5-.4a.6.6 0 0 1 0-.6l.5-.2c.2 0 .4 0 .5.2v.6c0 .2-.3.3-.5.3zm.5 1v8.4l-.1.2-.3.1h-.5v-9h.8v.3zm4.4-3c-.6 0-1 .2-1 .5-.3.3-.3.9-.3 1.7v.8l.1.1h.8l.2.1.1.3v.4l-.3.1h-.8l-.1.2v7.2l-.1.2-.3.1h-.5v-7.5l-.2-.2h-.3l-.1-.4v-.4h.4l.1-.2v-1.7a6.8 6.8 0 0 1 .4-1.4v.1l.2-.2a6.5 6.5 0 0 1 .3-.3c.3-.2.8-.3 1.4-.3l.2.1.1.3v.4h-.3zm5 2.3l1.2-3c0-.1.1-.2.3-.2h.1l.3.1v12.4l-.3.1h-.5v-8.8l-.2-.2h-.7c-.3 0-.3-.1-.2-.4zm-43.7 17.5c-.2 0-.4 0-.5-.2v-.5c.1-.2.3-.3.5-.3s.3.1.4.3v.5c0 .2-.2.2-.4.2zm.4 1v7.7h-.8v-7.9h.7v.3zm5.3 7.4V104c0-1.2-.5-1.7-1.3-1.7s-1.3.5-1.3 1.7v5.5h-.7v-7.9h.7v.6c.4-.5.8-.7 1.3-.7.7 0 1.2.2 1.5.7.4.4.6 1.1.6 2.1v5l-.1.2h-.7v-.3zm6.6-10.5v10.8h-.7l-.1-.3v-.3c-.3.5-.7.7-1.3.7a2 2 0 0 1-1.5-.6c-.4-.5-.5-1.2-.5-2.2v-2.5c0-1 .1-1.7.5-2.1.4-.5.9-.7 1.5-.7.5 0 1 .2 1.3.7v-3.8h.7l.1.3zm-3.3 5.3v3.1c0 1.2.4 1.8 1.2 1.8s1.3-.6 1.3-1.8V104c0-1.2-.4-1.7-1.3-1.7s-1.2.5-1.2 1.7zm5.7-3.2c-.3 0-.4 0-.5-.2v-.5c.1-.2.2-.3.5-.3.2 0 .3.1.4.3v.5c0 .2-.2.2-.5.2zm.4 1v7.4l-.1.3h-.7v-7.9h.7v.3zm3.9 7.8c-.7 0-1.2-.2-1.6-.7s-.6-1.1-.6-2.1v-2.5c0-1 .2-1.6.6-2.1s1-.7 1.6-.7c.7 0 1.2.2 1.5.7.4.4.6 1 .6 1.5v.3h-.8v-.3c0-.5-.2-.8-.4-1-.2-.3-.5-.4-1-.4-.3 0-.7.1-.9.4-.2.3-.3.7-.3 1.3v3.1c0 .6 0 1 .3 1.3.2.3.6.5 1 .5s.7-.2.9-.4l.4-1v-.4h.7v.3c0 .5-.1 1-.5 1.5-.3.5-.8.7-1.5.7zm5.8-7.3c-.7 0-1.2.4-1.2 1.4l-.1.3h-.7v-.3c0-.5.1-1 .5-1.5.3-.5.8-.7 1.5-.7 1.4 0 2.1 1 2.1 2.8v4l.1 1c0 .1 0 .3-.3.3h-.3l-.2-.1-.1-.5a2 2 0 0 1-1.5.6c-.6 0-1-.2-1.4-.5s-.6-1-.6-1.6v-.5c0-.5.1-.9.4-1.2l.8-.7 1-.4c.4 0 .7-.2 1-.4.1-.1.3-.3.3-.6 0-.4-.1-.7-.4-1s-.5-.4-.9-.4zm.1 6.6c.4 0 .7-.2.9-.5.2-.2.3-.6.3-1.1v-2.4a9 9 0 0 1-.8.3 5 5 0 0 0-.8.3c-.8.4-1.1 1-1 1.8 0 1.1.4 1.6 1.4 1.6zm4.7-8.7v1.6l.1.1h.3l.3.1v.6l-.3.1h-.3l-.1.2v5.4c.1.3.3.5.6.5h.2v.7h-.2c-.6 0-1-.2-1.2-.6l-.2-1v-5l-.2-.2h-.3v-.7h.3l.1-.2v-1.6l.1-.3h.7v.3zm2.1 6.6v-2.5c0-1 .2-1.6.6-2.1s1-.7 1.6-.7a2 2 0 0 1 1.6.7c.4.5.5 1.2.5 2.1v1.1h-3.1l-.3.1v1.6c0 .6.1 1 .3 1.3.3.3.6.5 1 .5s.7-.2 1-.4c.1-.3.3-.6.3-1v-.4h.7v.3c0 .5-.1 1-.4 1.5a2 2 0 0 1-1.6.7c-.7 0-1.2-.2-1.6-.7s-.5-1.1-.5-2.1zm.9-2.8v.7h2.6v-.7c0-.6-.1-1-.3-1.3-.3-.3-.6-.4-1-.4s-.7.1-1 .4c-.2.3-.3.7-.3 1.3zm6-2.1v5.2c0 1.2.4 1.8 1.2 1.8s1.3-.6 1.3-1.8v-5.4h.7v7.8h-.7v-.6c-.4.5-.8.7-1.3.7-.7 0-1.2-.2-1.5-.6-.4-.5-.6-1.2-.6-2.2v-5.2h.8v.3zm7.2.6l-.4-.1c-.3 0-.6.2-.7.5v6.3l-.1.3h-.7l-.1-.3v-7.5h.8v.5c.4-.4.7-.5 1.2-.5h.3v.8h-.3zm-36.2 15.9v1.5l.1.2h1.6l.1.3v.4H123l-.1.2v1.6l-.1.2h-.6l-.1-.2V121l-.2-.1h-1.3l-.3-.1v-.6h1.6c.1 0 .2-.1.2-.3v-1.7l.3-.1h.4v.3zm10.6-2.9v10.8h-.7l-.1-.2v-.3c-.3.4-.7.6-1.3.7-.6 0-1.1-.2-1.5-.7-.3-.5-.5-1.2-.5-2.2v-2.5c0-1 .2-1.6.5-2.1.4-.5.9-.7 1.5-.7s1 .3 1.3.7v-3.7l.3-.1h.5v.3zm-3.3 5.3v3.2c0 1.1.4 1.7 1.3 1.7s1.2-.6 1.2-1.7v-3.2c0-1.1-.4-1.7-1.2-1.7s-1.3.6-1.3 1.7zm5.1 2.8v-2.5c0-.9.2-1.6.6-2s.9-.8 1.5-.8a2 2 0 0 1 1.6.7c.4.5.6 1.2.6 2.1v1.2h-3.4v1.7c0 .6 0 1 .3 1.3.2.2.5.4 1 .4.3 0 .6-.1.9-.4.2-.2.3-.6.3-1l.1-.3h.7v.2a3 3 0 0 1-.5 1.6c-.4.4-.9.7-1.6.7-.6 0-1.1-.3-1.5-.7s-.6-1.2-.6-2.2zm.8-2.8v.7h2.7v-.7c0-.6 0-1-.3-1.3-.2-.3-.6-.4-1-.4s-.7.1-1 .4c-.2.3-.3.7-.3 1.3zm1.4-3.2c-.2 0-.2 0-.2-.2v-1.7h.8v.3l-.3 1.5-.1.2h-.2zm5.2 8l.2.1v.6h-.2c-.6 0-1-.1-1.2-.5l-.2-1v-9.5l.3-.1h.4v8.8l.2 1.1c0 .3.2.5.5.5zm3.7-6.5c-.7 0-1.1.5-1.2 1.4l-.1.3h-.7v-.2c0-.6.1-1.1.5-1.6.3-.4.8-.7 1.5-.7 1.4 0 2.1 1 2.1 2.8v4l.1 1c0 .2 0 .3-.3.3h-.3l-.2-.1-.1-.4a2 2 0 0 1-1.5.6c-.6 0-1-.2-1.4-.6s-.6-.9-.6-1.6v-.5c0-.4.1-.8.4-1.1.2-.4.5-.6.8-.7l1-.4 1-.4.3-.6c0-.4-.1-.8-.3-1s-.6-.5-1-.5zm.1 6.6c.4 0 .7-.2.9-.4.2-.3.3-.6.3-1.2v-2.3a9 9 0 0 1-.8.3 5 5 0 0 0-.8.3c-.8.4-1.1 1-1 1.7 0 1.1.4 1.7 1.4 1.6zm4.3-8a.5.5 0 0 1-.5-.3v-.5c.1-.2.3-.3.5-.3s.3.1.4.3v.5c0 .2-.2.3-.4.3zm.4 1v7.6h-.8v-7.8l.3-.1h.4v.3zm-34.4 221.5v6.6c0 1-.3 1.8-.8 2.3-.5.5-1.1.8-2 .8a3 3 0 0 1-2-.8c-.4-.5-.6-1.3-.6-2.3v-6.6c0-1 .2-1.8.7-2.3s1.1-.8 2-.8a3 3 0 0 1 2 .8c.4.5.7 1.3.7 2.3zm-1 6.7V340c0-.7-.1-1.2-.5-1.6-.3-.3-.7-.5-1.2-.5-.6 0-1 .2-1.3.5-.3.4-.5.9-.5 1.6v6.8c0 .7.2 1.2.5 1.5.3.4.7.6 1.3.6.5 0 1-.2 1.2-.6.4-.3.5-.8.5-1.5zm2.9 2.5v-11.9l.1-.2.3-.1h.5v4.3a2 2 0 0 1 1.5-.8 2 2 0 0 1 1.7.8c.4.5.6 1.3.6 2.4v2.8c0 1-.2 1.9-.6 2.4a2 2 0 0 1-1.7.8c-.6 0-1-.3-1.4-.8v.3l-.1.3h-.8v-.3zm3.8-2.3v-3.6c0-1.3-.5-2-1.4-2-1 0-1.4.7-1.4 2v3.6c0 1.2.4 1.9 1.4 1.9 1 0 1.4-.7 1.4-2zm2.1 5.1c.3 0 .5-.2.6-.5l.2-1.4v-9.5l.4-.1h.5v11.2c-.3.8-.8 1.2-1.7 1.2h-.3v-.8h.3zm.8-12.4a.5.5 0 0 1-.1-.5c0-.3.2-.4.4-.5.2 0 .4 0 .5.2.2.2.3.3.2.5 0 .3-.2.4-.4.4h-.6zm2.9 6.9v-2.8c0-1 .2-1.9.7-2.4.4-.5 1-.8 1.7-.8s1.4.3 1.8.8c.4.5.6 1.3.6 2.4v1.2l-.3.1h-3.5v1.9c0 .6 0 1 .4 1.4.2.3.6.5 1 .5.5 0 .8-.2 1-.4.3-.3.5-.7.5-1.2v-.3l.3-.1h.5v.3a3 3 0 0 1-.5 1.8c-.4.5-1 .8-1.8.8-.7 0-1.3-.3-1.7-.8-.5-.6-.7-1.3-.7-2.4zm1-3.2v.8h2.9v-.8c0-.6-.1-1.1-.4-1.5-.3-.3-.6-.4-1-.4s-.9.1-1.1.4c-.3.4-.4.9-.4 1.5zm8.1 6.4c-.8 0-1.4-.3-1.8-.8a4 4 0 0 1-.7-2.4v-2.8c0-1 .3-1.9.7-2.4.4-.5 1-.8 1.8-.8.7 0 1.3.3 1.7.8.4.5.6 1 .6 1.7v.3h-.8v-.4l-.5-1.1c-.2-.3-.6-.4-1-.4-.5 0-.9.1-1.1.4-.3.4-.4.9-.4 1.5v3.6c0 .6.1 1 .4 1.4.2.3.6.5 1 .5.5 0 .8-.2 1-.4.3-.3.5-.7.5-1.2v-.3l.3-.1h.5l.1.3a3 3 0 0 1-.6 1.8c-.4.5-1 .8-1.7.8zm5.2-10.7v1.8c0 .2 0 .2.2.2h.6v.8h-.6c-.1 0-.2.1-.2.3v4.7l.1 1.4c0 .3.3.5.6.5l.3.1v.7h-.3c-.7 0-1.1-.2-1.3-.6-.2-.3-.2-.7-.3-1.1v-5.7c0-.2 0-.2-.2-.2l-.3-.1v-.7h.3c.1 0 .2-.1.2-.3v-2.1h.8l.1.3zm3.1.8a.5.5 0 0 1-.5-.3.6.6 0 0 1 0-.6c.1-.2.3-.3.5-.3s.4.1.5.3v.6c0 .2-.2.3-.5.3zm.5 1.1v8.6h-1v-8.8l.3-.1h.5v.3zm4.4-3.1c-.6 0-1 .2-1 .5s-.3 1-.3 1.8v.7c0 .1 0 .2.2.2h1v.8h-1l-.2.2v7.5h-1v-7.5l-.2-.1-.3-.1v-.7l.3-.1s.2 0 .2-.2v-1.5a6.7 6.7 0 0 1 .3-1.4v-.1l.2-.2.1-.1a6.5 6.5 0 0 1 .3-.2c.2-.2.7-.3 1.3-.3h.3v.8h-.3zm5.9 9.2v1.7h3.5l.3.1v.7h-4.7V347c0-1 .4-2 1.3-3l.6-.7.6-.7a23.5 23.5 0 0 0 1-1.4l.2-.7.1-.6c0-1.3-.5-2-1.5-2-.4 0-.7.2-1 .5-.3.4-.4.9-.4 1.5v.6h-1v-.3c0-1 .2-1.7.6-2.3.3-.5 1-.8 1.8-.8l1.2.3c.4.2.6.4.7.7l.4 1v.8c0 1-.4 2-1.3 3a838 838 0 0 1-2.1 2.8l-.3.7-.1.8zm-43.2 10.7c-.2 0-.4 0-.5-.3v-.5l.5-.2c.2 0 .3 0 .4.2v.5c0 .2-.2.3-.4.3zm.4 1v7.6l-.3.1h-.5v-7.9h.7v.2zm5.3 7.4V361c0-1.1-.5-1.7-1.3-1.7s-1.3.6-1.3 1.7v5.5l-.3.1h-.4v-7.9h.7v.5c.4-.4.8-.6 1.3-.6.7 0 1.2.2 1.5.6.4.5.6 1.2.6 2.2v4.9l-.1.2-.2.1h-.5v-.3zm6.6-10.6v10.8l-.3.1h-.4l-.1-.3v-.3c-.3.4-.7.7-1.3.7-.6 0-1.1-.2-1.5-.7-.4-.4-.5-1.2-.5-2.1v-2.5c0-1 .1-1.7.5-2.2s.9-.7 1.5-.6c.5 0 1 .2 1.3.6v-3.7h.7l.1.2zm-3.3 5.3v3.2c0 1.1.4 1.7 1.2 1.7s1.3-.6 1.3-1.7V361c0-1.1-.4-1.7-1.3-1.7s-1.2.6-1.2 1.7zm5.7-3.1c-.3 0-.4 0-.5-.3v-.5c.1-.1.2-.2.5-.2.2 0 .3 0 .4.2v.5c0 .2-.2.3-.5.3zm.4 1v7.4l-.1.2-.3.1h-.4v-7.9h.7v.2zm3.9 7.8a2 2 0 0 1-1.6-.7c-.4-.5-.6-1.2-.6-2.1v-2.5c0-1 .2-1.7.6-2.2a2 2 0 0 1 1.6-.6c.7 0 1.2.2 1.5.6.4.5.6 1 .6 1.6v.2l-.3.1h-.5v-.4c0-.4-.2-.8-.4-1-.2-.3-.5-.4-1-.4-.3 0-.7.2-.9.4-.2.3-.3.8-.3 1.3v3.2c0 .6 0 1 .3 1.3.2.3.6.4 1 .4s.7-.1.9-.4c.2-.2.3-.6.4-1v-.3h.7v.2c0 .6-.1 1.1-.5 1.6-.3.5-.8.7-1.5.7zm5.8-7.4c-.7 0-1.2.5-1.2 1.4l-.1.3-.2.1h-.5v-.3c0-.6.1-1.1.5-1.6.3-.4.8-.6 1.5-.6 1.4 0 2.1.9 2.1 2.8v4l.1.9c0 .2 0 .3-.3.3h-.5l-.1-.5a2 2 0 0 1-1.5.6 2 2 0 0 1-1.4-.6c-.4-.3-.6-.9-.6-1.5v-.5c0-.5.1-1 .4-1.2.2-.3.5-.6.8-.7l1-.4 1-.4c.2-.1.3-.4.3-.6 0-.4-.1-.8-.4-1a1 1 0 0 0-.9-.5zm.1 6.6c.4 0 .7-.2.9-.4.2-.2.3-.6.3-1.1V362a9 9 0 0 1-.8.3 5 5 0 0 0-.8.3c-.8.4-1.1 1-1 1.7 0 1.2.4 1.7 1.4 1.6zm4.7-8.7v1.6l.1.2h.6v.7h-.6l-.1.2v5.5c.1.3.3.4.6.4l.2.1v.6l-.2.1c-.6 0-1-.2-1.2-.6l-.2-1v-5l-.2-.1-.3-.1v-.6l.3-.1.1-.2v-1.6l.1-.2.3-.1h.4v.3zm2.1 6.7v-2.5c0-1 .2-1.7.6-2.2a2 2 0 0 1 1.6-.6 2 2 0 0 1 1.6.6c.4.5.5 1.2.5 2.2v1.1h-3.4v1.8c0 .6.1 1 .3 1.3.3.3.6.4 1 .4s.7-.1 1-.4c.1-.2.3-.6.3-1v-.3h.7v.2a3 3 0 0 1-.4 1.6 2 2 0 0 1-1.6.7 2 2 0 0 1-1.6-.7c-.4-.5-.5-1.2-.5-2.1zm.9-2.9v.7h2.6v-.7c0-.5-.1-1-.3-1.3-.3-.2-.6-.4-1-.4s-.7.2-1 .4c-.2.3-.3.8-.3 1.3zm6-2v5.2c0 1.1.4 1.7 1.2 1.7s1.3-.6 1.3-1.7v-5.5h.7v7.8l-.2.1h-.5v-.6c-.4.4-.8.7-1.3.7-.7 0-1.2-.2-1.5-.7-.4-.4-.6-1.2-.6-2.1v-5.2h.8v.2zm7.2.5h-.4c-.3 0-.6.1-.7.5v6.3l-.1.2-.3.1h-.4l-.1-.3v-7.6h.8v.4c.4-.3.7-.5 1.2-.5h.3v1h-.3zm-36.2 16v1.5l.1.2h1.6l.1.3v.4H123l-.1.2v1.5l-.1.3h-.6l-.1-.3v-1.5c0-.1 0-.2-.2-.2h-1.6v-.7h1.6c.1 0 .2 0 .2-.2v-1.8h.7v.3zm10.6-2.9v10.8h-.7l-.1-.3v-.3c-.3.5-.7.7-1.3.7-.6 0-1.1-.2-1.5-.6s-.5-1.2-.5-2.2v-2.5c0-1 .2-1.7.5-2.1.4-.5.9-.7 1.5-.7s1 .2 1.3.7v-3.8h.8v.3zm-3.3 5.3v3.1c0 1.2.4 1.8 1.3 1.8s1.2-.6 1.2-1.8v-3c0-1.2-.4-1.7-1.2-1.7s-1.3.5-1.3 1.7zm5.1 2.8v-2.5c0-1 .2-1.7.6-2.1a2 2 0 0 1 1.5-.7 2 2 0 0 1 1.6.7c.4.4.6 1.2.6 2.1v1.1h-3.3l-.2.1v1.6c0 .6 0 1 .3 1.3.2.3.5.4 1 .4.3 0 .6 0 .9-.3.2-.3.3-.6.3-1l.1-.4h.7v.3c0 .5-.2 1-.5 1.5-.4.5-.9.7-1.6.7a2 2 0 0 1-1.5-.7c-.4-.4-.6-1.2-.6-2.1zm.8-2.8v.7h2.7v-.7c0-.6 0-1-.3-1.3-.2-.3-.6-.4-1-.4s-.7.1-1 .4c-.2.3-.3.7-.3 1.3zm1.4-3.2c-.2 0-.2 0-.2-.2v-1.7h.8v.3l-.3 1.4-.1.2h-.2zm5.2 8h.2v.7h-.2c-.6 0-1-.2-1.2-.6l-.2-1v-9.5h.7v8.7l.2 1.2c0 .3.2.5.5.5zm3.7-6.5c-.7 0-1.1.4-1.2 1.3l-.1.4h-.7v-.3c0-.6.1-1 .5-1.5.3-.5.8-.7 1.5-.7 1.4 0 2.1 1 2.1 2.8v4l.1 1c0 .1 0 .3-.3.3h-.3l-.2-.1-.1-.5a2 2 0 0 1-1.5.6 2 2 0 0 1-1.4-.5c-.4-.4-.6-1-.6-1.6v-.5c0-.5.1-.9.4-1.2l.8-.7 1-.4 1-.4c.1-.1.3-.3.3-.6 0-.4-.1-.7-.3-1-.3-.3-.6-.4-1-.4zm.1 6.6c.4 0 .7-.2.9-.5s.3-.6.3-1.1v-2.4a9 9 0 0 1-.8.3 5 5 0 0 0-.8.3c-.8.4-1.1 1-1 1.8 0 1.1.4 1.6 1.4 1.6zm4.3-8.1c-.2 0-.4 0-.5-.2v-.5c.1-.2.3-.3.5-.3s.3 0 .4.3v.5l-.4.2zm.4 1v7.7h-.8v-7.9h.7v.3zm84.2 71.8H234v3.8h-.8v-11l.3-.1h1.8c.7 0 1.3.2 1.7.7.5.4.7 1.1.7 2v1.8c0 1-.2 1.6-.7 2-.4.5-1 .8-1.7.8zm-1.3-6.2v5.4h1.3c.4 0 .8-.2 1.1-.5s.5-.8.5-1.5V443c0-.6-.2-1.1-.5-1.4s-.7-.5-1.2-.5h-1.2v.3zm7.3 3h-.4c-.3 0-.6.1-.7.5v6.3l-.2.2h-.6l-.1-.2v-7.6l.3-.1h.4l.1.3v.2c.3-.3.7-.5 1.2-.5h.3v1h-.3zm2.1-1.6c-.2 0-.3-.1-.4-.3v-.5c0-.2.2-.2.4-.2s.4 0 .4.2v.5c0 .2-.2.3-.4.3zm.4 1v7.6h-.7l-.1-.2v-7.6l.3-.1h.4l.1.3zm1.8 4.9v-2.5c0-.9.2-1.6.6-2a2 2 0 0 1 1.5-.8 2 2 0 0 1 1.6.7c.4.5.6 1.2.6 2.1v2.5c0 1-.2 1.7-.6 2.2a2 2 0 0 1-1.6.7 2 2 0 0 1-1.5-.7c-.4-.5-.6-1.2-.6-2.2zm3.4.4v-3.2c0-.6 0-1-.3-1.3s-.6-.4-1-.4-.7.1-1 .4-.3.7-.3 1.3v3.2c0 .6.1 1 .4 1.3.2.2.5.4 1 .4.3 0 .6-.2.9-.4.2-.3.3-.7.3-1.3zm4.6-4.7h-.3c-.4 0-.6.1-.7.5l-.1 1v5.3l-.1.2h-.7v-7.8l.2-.1h.5v.5a2 2 0 0 1 1.2-.5h.3v1h-.3zm2.1-1.6c-.2 0-.3-.1-.4-.3v-.5c0-.2.2-.2.4-.2s.4 0 .5.2v.5c-.1.2-.2.3-.5.3zm.5 1v7.4l-.1.2h-.7v-7.8l.2-.1h.5v.3zm2.7-1.7v1.6c0 .1 0 .2.2.2h.5v.7h-.5l-.2.2v5.4c.1.3.3.5.6.5l.2.1.1.2v.4h-.3c-.6 0-1-.1-1.2-.5l-.2-1v-5.1c0-.1 0-.2-.2-.2h-.2l-.1-.3v-.3l.3-.1c.1 0 .2 0 .2-.2v-1.8l.3-.1h.4l.1.3zm2.2 6.6v-2.5c0-.9.2-1.6.6-2a2 2 0 0 1 1.5-.8 2 2 0 0 1 1.6.7c.4.5.6 1.2.6 2.1v1l-.1.2h-3.3v1.7c0 .6 0 1 .3 1.3.2.2.5.4 1 .4.3 0 .6-.1.8-.4.3-.2.4-.6.4-1v-.3h.8v.2a3 3 0 0 1-.5 1.6c-.4.4-.9.7-1.6.7a2 2 0 0 1-1.5-.7c-.4-.5-.6-1.2-.6-2.2zm.8-2.8v.7h2.7v-.7c0-.6 0-1-.3-1.3s-.6-.4-1-.4-.7.1-1 .4-.3.7-.3 1.3zm1.4-3.2l-.2-.1v-1.9h.8v.3l-.4 1.5v.2h-.2zm7.7 6.4v1.6h3.3l.2.1v.6h-4.2l-.1-.2v-2.2c0-.8.4-1.7 1.2-2.7l.5-.6.5-.6.5-.6.4-.6.2-.6.1-.6c0-1.1-.4-1.7-1.3-1.7-.4 0-.7.1-1 .4-.2.3-.3.7-.3 1.3v.5h-.7l-.1-.2c0-.9.2-1.5.5-2s.9-.8 1.6-.8c.4 0 .8.1 1 .3l.8.6a3.1 3.1 0 0 1 .4 1.6c0 .9-.4 1.8-1.3 2.7l-.4.6a43.9 43.9 0 0 0-1.4 1.9l-.3.6v.7z"/><path fill="#00659C" d="M6 38c.6 0 1-.1 1.3-.5.2-.1.3-.3.3-.6l.1-1.7V21.8l.1-.4.5-.1h1.6l.5.1v13.7c0 2-.3 3.5-1 4.3-.7.9-1.8 1.3-3.5 1.3l-.4-.1-.1-.5v-1.5l.1-.4.4-.1zm14.6 2.7h-5.8l-.4-.1-.2-.5V21.8c0-.2 0-.3.2-.4l.4-.1h5.8l.5.1v2.4h-3.5c-.3 0-.5.1-.5.2l-.1.4v4.7h3.6l.5.2v2.3l-.5.2h-3.5l-.1.5V38h3.6l.5.2v2.4h-.5zM32 21.3h3.3c1.3 0 2.4.4 3.2 1.3s1.2 2.2 1.2 4v8.8c0 1.7-.4 3-1.2 4s-1.9 1.3-3.2 1.3H32l-.4-.1-.2-.5V21.8c0-.2 0-.3.2-.4l.4-.1zm2.2 3.1V38h1.1c.5 0 1 0 1.2-.4s.5-.8.5-1.5V25.9c0-.7-.2-1.2-.5-1.5s-.7-.5-1.2-.5h-1v.5zm17.8 2v9.1c0 1.7-.5 3-1.3 4s-1.9 1.3-3.2 1.3-2.4-.5-3.2-1.3-1.2-2.3-1.2-4v-9c0-1.8.4-3 1.2-4s1.9-1.3 3.2-1.3 2.4.4 3.2 1.3 1.2 2.2 1.2 4zm-2.8 9.9V25.7c0-.8-.2-1.4-.8-1.8a2 2 0 0 0-1.8 0c-.5.4-.8 1-.8 1.8v10.6c0 .8.3 1.4.8 1.7.6.4 1.2.4 1.8 0 .6-.3.8-1 .8-1.7zm9.1-14.5v18.3l-.1.5h-2.5l-.2-.5V21.8c0-.2 0-.3.2-.4l.4-.1h1.7l.4.1.1.4zm7.6 19a4 4 0 0 1-3.2-1.3c-.9-1-1.3-2-1.3-3.2 0-.3 0-.4.2-.5l.4-.2h1.6c.4 0 .6.3.6.7 0 .6.1 1 .4 1.4.3.4.7.5 1.3.5.5 0 .8-.1 1.2-.4s.4-.7.5-1.2c.2-1.1-.4-2.5-1.8-4a27 27 0 0 1-1.1-1.4l-.6-.7a24.6 24.6 0 0 0-1.6-2.4 58.3 58.3 0 0 0-.6-1.7l-.1-.8a4 4 0 0 1 4-4.4 4 4 0 0 1 4 3.7v.7l-.6.1h-1.9l-.1-.5c0-.5-.2-.8-.4-1.1-.2-.2-.6-.4-1-.4-.5 0-.9.2-1 .6a2 2 0 0 0-.3 1.2c0 .7.4 1.5 1 2.3.5.9 1.1 1.7 1.8 2.4s1.3 1.6 1.9 2.6c.6 1 1 2 1 3 .3 1.3-.1 2.4-1 3.5-.8 1-2 1.5-3.3 1.5zm14.8-19.5H84c1.3 0 2.4.4 3.2 1.3s1.2 2.2 1.2 4V29c0 1.7-.4 3-1.2 3.9s-1.9 1.3-3.2 1.3h-.8c-.2 0-.2 0-.3.2V40c0 .4-.2.6-.6.6h-1.6l-.5-.1V21.4l.5-.1zm2.2 3.1v7.2H84c.5 0 .9-.1 1.2-.5.3-.3.5-.8.5-1.5V26c0-.7-.2-1.2-.5-1.5s-.7-.5-1.2-.5h-1l-.1.5zm9.4-3.1H96c1.3 0 2.3.4 3 1.3s1.2 2.1 1.2 3.8v1c0 2.1-.6 3.6-1.7 4.4l1.6 8.3c.1.4 0 .6-.3.6h-2l-.2-.1-.1-.3-1.5-7.5c0-.1 0-.2-.3-.2h-1v7.5l-.2.5H92l-.1-.5V21.4l.5-.1zm3.6 2.4h-.8l-.5.1v6.3h1.3c1 0 1.4-.6 1.4-2v-2.4c0-1.3-.5-2-1.4-2zm14.2 17h-5.8l-.5-.1-.1-.5V21.8l.1-.4.5-.1h5.8l.4.1.2.4v1.5c0 .2 0 .4-.2.5h-3.4c-.4 0-.5.1-.6.2v5h3.6l.4.2.2.4v1.5c0 .2 0 .4-.2.4l-.4.2h-3.6V38h3.6l.4.2.2.4v1.5c0 .2 0 .4-.2.5h-.4zm-2.5-20.4h-1c-.2 0-.3 0-.3-.3v-2.7l.1-.4.5-.2h1.6c.5 0 .6.3.4.8l-.9 2.3-.1.5h-.3zM118 40.8a4 4 0 0 1-3.2-1.3c-.9-1-1.3-2-1.3-3.2l.1-.5c0-.1.2-.2.5-.2h1.6c.4 0 .6.3.6.7 0 .6.1 1 .4 1.4.3.4.7.5 1.2.5s1-.1 1.2-.4.5-.7.6-1.2c.1-1.1-.4-2.5-1.8-4l-.6-.7-.6-.7-.5-.7a8 8 0 0 1-.7-.8 22 22 0 0 0-1-1.6 36.5 36.5 0 0 0-.6-1.7v-.8a4 4 0 0 1 4-4.4 4 4 0 0 1 4 3.7v.7l-.6.1h-2v-.5c0-.5-.2-.8-.4-1.1-.3-.2-.6-.4-1-.4-.5 0-.9.2-1.1.6a2 2 0 0 0-.3 1.2 5 5 0 0 0 1 2.3c.6.9 1.2 1.7 1.9 2.4.6.7 1.3 1.6 1.9 2.6.6 1 1 2 1 3a4.3 4.3 0 0 1-4.4 5zm14-.1h-6l-.3-.1-.2-.5V21.8c0-.2 0-.3.2-.4l.4-.1h5.8l.5.1v2.4h-3.5c-.3 0-.5.1-.5.2v5h3.5l.5.2v2.3l-.5.2h-3.5V38h3.5l.5.2v2.4h-.5zm12.5 0h-1.2c-.3 0-.5-.1-.6-.3L139.1 30h-.1c-.1 0 0-.1-.1 0v10.1c0 .2 0 .4-.2.5h-2.5l-.1-.5V21.8l.1-.4.4-.1h1.3c.3 0 .5.1.5.4l3.7 10.3v.1c0 .1.2 0 .2 0V21.8l.1-.4.5-.1h1.6l.5.1.1.4v18.3l-.1.5h-.5zm3.5-17.4v-1.5l.1-.4.5-.1h7.2l.4.1.1.4v1.5l-.1.5H154c-.3 0-.4.1-.5.2v16l-.2.5H151l-.1-.5V24l-.6-.1h-1.6l-.5-.1-.1-.5zm17.6 17.4h-5.8l-.5-.1V21.4l.5-.1h5.8l.5.1v2.4h-3.5c-.3 0-.5.1-.5.2l-.1.4v4.7h3.6l.5.2v2.3l-.5.2h-3.5l-.1.5V38h3.6l.5.2v2.4h-.5zm4.7-19.4h3.6c1.4 0 2.4.4 3.1 1.3s1.1 2.1 1.1 3.8v1c0 2.1-.6 3.6-1.7 4.4l1.7 8.3c0 .4 0 .6-.4.6h-2l-.2-.1-.1-.3-1.4-7.5-.4-.2h-1v7.5c0 .2 0 .4-.2.5H170l-.1-.5V21.8l.1-.4.4-.1zm3.6 2.4h-.8l-.5.1v6.3h1.3c1 0 1.4-.6 1.4-2v-2.4c0-1.3-.4-2-1.4-2zm20.4 17h-.7c-.3 0-.5-.1-.6-.4l-1.7-7.1-.1-.1v7l-.2.5h-2.5l-.1-.5V21.8l.1-.4.4-.1h1.3c.3 0 .4.1.5.3l3.1 13 .1.2.2-.1 3-13c.1-.3.3-.4.6-.4h1.3l.4.1.1.4v18.3l-.1.5h-2.5l-.2-.5v-7h-.1l-1.7 7.2c-.1.3-.3.4-.7.4zm17.8 0h-1.6a2 2 0 0 1-.3 0l-.2-.1-.2-.3-.2-1.5c0-.3-.1-.5-.2-.5h-3.3c-.1 0-.2.2-.2.5l-.3 1.5v.3h-2.7v-.4l3.5-18.4c0-.2 0-.3.2-.4l.4-.1h1.9l.2.5 3.5 18.4v.4h-.5zm-4.5-12.4l-1.1 6.8v.4l.5.1h2V35l-1.1-6.8h-.2zm18.7 12.5a4 4 0 0 1-3.2-1.3c-.9-1-1.3-2-1.3-3.2l.1-.5.5-.2h1.6c.4 0 .6.3.6.7 0 .6.1 1 .4 1.4.3.4.7.5 1.3.5.4 0 .8-.1 1.1-.4s.5-.7.6-1.2c.2-1.1-.4-2.5-1.8-4l-.6-.7-.6-.7-.5-.7a8 8 0 0 1-.6-.8 22 22 0 0 0-1-1.6 36.5 36.5 0 0 0-.7-1.7v-.8a4 4 0 0 1 4-4.4 4 4 0 0 1 4 3.7v.7l-.6.1h-1.9l-.2-.5c0-.5 0-.8-.3-1.1-.3-.2-.6-.4-1-.4-.5 0-.9.2-1.1.6a2 2 0 0 0-.3 1.2c.1.7.5 1.5 1 2.3.6.9 1.2 1.7 1.9 2.4.6.7 1.3 1.6 1.9 2.6.6 1 1 2 1 3 .2 1.3-.1 2.4-1 3.5-.8 1-2 1.5-3.3 1.5zm6.6-17.5v-1.5l.1-.4.4-.1h7.2l.5.1v2.4H239c-.3 0-.5.1-.5.2v16l-.2.5h-2.5l-.2-.5V24l-.5-.1h-1.7l-.4-.1-.1-.5zm11.7-2h3.7c1.3 0 2.3.4 3 1.3s1.1 2.1 1.1 3.8v1c0 2.1-.6 3.6-1.7 4.4l1.7 8.3c0 .4 0 .6-.4.6h-2l-.2-.1-.1-.3-1.4-7.5-.4-.2h-1v7.5c0 .2 0 .4-.2.5h-2.5l-.1-.5V21.8l.1-.4.4-.1zm3.7 2.4h-.9l-.5.1v6.3h1.4c.9 0 1.3-.6 1.3-2v-2.4c0-1.3-.4-2-1.3-2zm16.5 17H263a2 2 0 0 1-.3 0l-.2-.1-.1-.3-.3-1.5-.1-.5h-3.4l-.2.5-.2 1.5-.1.3h-2.6v-.4l3.4-18.4.2-.4.4-.1h2l.1.5 3.5 18.4v.4h-.4zm-4.5-12.4l-1.2 6.8v.4l.5.1h2V35l-1.1-6.8h-.2zm6.3-5v-1.5l.1-.4.5-.1h7.2l.4.1.1.4v2h-2.2c-.3 0-.4.1-.5.2v16c0 .2 0 .4-.2.5h-2.5l-.1-.5V24l-.5-.1h-1.7l-.5-.1v-.5zm17.6 17.4h-5.8l-.4-.1-.2-.5V21.8c0-.2 0-.3.2-.4l.4-.1h5.8l.5.1.1.4v1.5l-.1.5h-3.5c-.3 0-.5.1-.5.2v5h3.5l.5.2.1.4v1.5l-.1.4-.5.2h-3.5V38h3.5l.5.2.1.4v1.5l-.1.5h-.5zm6.7-15v10.6c0 .8.2 1.4.8 1.7.6.4 1.1.4 1.7 0 .6-.3.9-1 .8-1.7v-4.5h-.8l-.4-.1-.1-.5v-1.5l.1-.4.4-.1h3.5v6.3c0 1.7-.3 3-1 3.9s-2 1.4-3.3 1.4c-1.4 0-2.4-.5-3.3-1.3s-1.2-2.3-1.2-4v-9c0-1.8.4-3 1.2-4s2-1.3 3.3-1.3c1.2 0 2.2.4 3 1.1s1.3 2 1.4 3.5c0 .4-.2.7-.6.7h-1.6c-.2 0-.4 0-.5-.2v-.6a2 2 0 0 0-.9-1.8c-.6-.3-1.1-.3-1.7 0-.6.4-.9 1-.8 1.8zm12.5-3.9v18.3c0 .2 0 .4-.2.5h-2.5l-.1-.5V21.8l.1-.4.4-.1h1.7l.4.1.2.4zm10.2 18.9h-5.8l-.4-.1-.2-.5V21.8c0-.2 0-.3.2-.4l.4-.1h5.8l.5.1.1.4v1.5l-.1.5h-3.5c-.3 0-.5.1-.5.2v5h3.5l.5.2.1.4v1.5l-.1.4-.5.2h-3.5V38h3.5l.5.2.1.4v1.5l-.1.5h-.5z"/><path fill="none" stroke="#FFF" stroke-miterlimit="10" stroke-width="2" d="M244.4 506.6l-10.5-11.4-11.5 11.6 21.7 21.7 36.8-36.7-8.4-8.6z"/><path fill="#00659C" d="M250.5 426.4a44.7 44.7 0 1 1 .1-89.4 44.7 44.7 0 0 1 0 89.4z"/><path fill="#41D5CF" d="M250.5 339.6a42.1 42.1 0 1 1 0 84.3 42.1 42.1 0 0 1 0-84.3m0-5a47.1 47.1 0 1 0 .1 94.3 47.1 47.1 0 0 0 0-94.2z"/><path fill="none" stroke="#FFF" stroke-miterlimit="10" stroke-width="2" d="M244.4 384.6l-10.5-11.4-11.5 11.6 21.7 21.7 36.8-36.7-8.4-8.6z"/><path fill="#00659C" d="M250.5 294.2a44.7 44.7 0 1 1 .1-89.3 44.7 44.7 0 0 1 0 89.3z"/><path fill="#41D5CF" d="M250.5 207.4a42.1 42.1 0 1 1 0 84.3 42.1 42.1 0 0 1 0-84.3m0-5a47.1 47.1 0 1 0 .1 94.4 47.1 47.1 0 0 0 0-94.3z"/><path fill="none" stroke="#FFF" stroke-miterlimit="10" stroke-width="2" d="M244.4 252.4l-10.5-11.3-11.5 11.5 21.7 21.7 36.8-36.7-8.4-8.5z"/><path fill="#00659C" d="M250.5 172.2a44.7 44.7 0 1 1 .1-89.3 44.7 44.7 0 0 1 0 89.3z"/><path fill="#41D5CF" d="M250.5 85.5a42.1 42.1 0 1 1 0 84.2 42.1 42.1 0 0 1 0-84.2m0-5a47.1 47.1 0 1 0 .1 94.3 47.1 47.1 0 0 0 0-94.3z"/><path fill="none" stroke="#FFF" stroke-miterlimit="10" stroke-width="2" d="M244.4 130.4l-10.5-11.3-11.5 11.5 21.7 21.7 36.8-36.7-8.4-8.5z"/><path fill="#41D5CF" d="M17.3 309.6c-1.5 0-2.8-.5-3.9-1.6a5.4 5.4 0 0 1-1.5-4l.1-.5.6-.2h2c.4 0 .7.3.7.8 0 .7.2 1.3.5 1.7s.9.7 1.5.7 1.1-.2 1.5-.6c.4-.3.6-.8.6-1.4.3-1.4-.4-3-2.1-5a30.6 30.6 0 0 1-2.1-2.5 32 32 0 0 0-2-3 57.5 57.5 0 0 0-.8-2l-.1-1a5 5 0 0 1 5-5.4c1.2 0 2.2.4 3.2 1.3a5 5 0 0 1 1.6 3.2v.9l-.6.2h-2c-.2 0-.3 0-.4-.2-.1 0-.2-.2-.2-.5 0-.6-.1-1-.4-1.3s-.7-.5-1.2-.5c-.7 0-1.1.2-1.4.7s-.4 1-.3 1.5c.1.9.5 1.8 1.2 2.8.7 1.1 1.5 2 2.3 3 .8.8 1.6 1.9 2.3 3.1a9.1 9.1 0 0 1 1.3 3.7c.2 1.6-.2 3-1.2 4.3a5 5 0 0 1-4.2 1.8zm16.2-11.5l-1.8 10.7c0 .4-.1.6-.3.6h-2.3l-.2-.6-4.3-22.4c-.1-.5 0-.7.6-.7h2l.6.1.2.6 2.3 12.7.2.1.1-.1 1.8-12.7c0-.3.1-.5.2-.5l.6-.2h1c.2 0 .3 0 .4.2l.3.5 1.7 12.7.2.1.1-.1 2.4-12.7.2-.6h2.6c.5 0 .7.1.6.6l-4.3 22.4-.2.6h-2.7l-.2-.1-.1-.5-1.4-10.7v-.2h-.3v.2zm22.1-6.1v11.2c0 2-.5 3.7-1.5 4.8s-2.3 1.6-3.9 1.6-3-.5-4-1.6-1.4-2.7-1.4-4.8V292a7 7 0 0 1 1.5-4.8 5 5 0 0 1 4-1.6 5 5 0 0 1 3.8 1.6c1 1.1 1.5 2.7 1.5 4.8zm-3.4 12v-12.8c.1-1-.2-1.8-1-2.2s-1.4-.4-2 0-1.1 1.1-1 2.2V304c-.1 1 .2 1.7 1 2.1s1.4.5 2 0 1.1-1.1 1-2.1zm5.3-15.8v-1.8c0-.2 0-.4.2-.5 0-.1.2-.2.5-.2H67c.3 0 .4 0 .5.2l.2.5v1.8c0 .3 0 .5-.2.6l-.5.1h-2l-.6.1-.1.6v19.2c0 .3 0 .4-.2.5 0 .1-.2.2-.5.2h-2c-.3 0-.4 0-.5-.2-.2 0-.2-.2-.2-.5V289h-2.7c-.3 0-.4-.1-.5-.2l-.2-.6zm19 10.5c-.3-.4-.5-.9-.5-1.4s.2-1 .5-1.4c.4-.3.9-.5 1.4-.5.5 0 1 .2 1.4.5.4.4.5.9.5 1.4s-.1 1-.5 1.4a2 2 0 0 1-1.4.5 2 2 0 0 1-1.4-.5zm0 10.2a2 2 0 0 1-.5-1.3 2 2 0 0 1 2-2 1.9 1.9 0 0 1 1.8 2c0 .5-.1 1-.5 1.3a2 2 0 0 1-1.4.6 2 2 0 0 1-1.4-.6zm-63.1 28.4v1.6c0 1.7.6 2.6 1.7 2.6.5 0 .8-.1 1.1-.4s.5-.8.5-1.4l.1-.5c.1-.1 0-.2.2-.3h2.9l.1.6a5 5 0 0 1-1.2 3.5c-.8 1-2 1.6-3.7 1.6-1.4 0-2.6-.5-3.6-1.5s-1.5-2.6-1.5-4.7v-4.8c0-2.1.5-3.7 1.5-4.7s2.2-1.5 3.6-1.5 2.6.5 3.6 1.5 1.5 2.6 1.5 4.7v2.3c0 .3 0 .5-.2.5 0 .1-.2.2-.5.2H14l-.5.1-.2.6zm3.4-4.4c0-1.6-.6-2.4-1.7-2.4-1 0-1.6.8-1.7 2.4v.6h3.4l.1-.6zm13.5 10.9v-10.7c0-1.7-.6-2.6-1.8-2.6-1.2 0-1.9.9-1.9 2.6v10.7l-.1.5-.5.2h-2c-.3 0-.5 0-.6-.2l-.1-.5v-15.6l.1-.5.5-.2h2c.2 0 .4 0 .5.2l.1.5v.6c.7-.9 1.5-1.4 2.7-1.4a4 4 0 0 1 3.3 1.4c.8 1 1.2 2.4 1.2 4.4v10.6l-.1.5-.6.2h-2c-.3 0-.4 0-.5-.2-.1 0-.2-.2-.2-.5zm5.5 3.6c.5 0 .9-.4 1-1.2l.1-2.5v-15.5c0-.3 0-.4.2-.5l.5-.2h2c.3 0 .5 0 .6.2l.1.5v16.4c0 4-1.5 6-4.5 6-.3 0-.4 0-.5-.2-.2 0-.2-.2-.2-.5v-1.8c0-.3 0-.4.2-.5 0-.1.2-.2.5-.2zm1-23.3a1.8 1.8 0 0 1 1.9-1.9c.5 0 .9.2 1.3.5.3.4.5.9.5 1.4 0 .5-.2 1-.5 1.3a2 2 0 0 1-1.4.6c-.5 0-1-.2-1.3-.6-.4-.3-.6-.8-.6-1.3zm10 13.2v1.6c0 1.7.5 2.6 1.7 2.6.4 0 .8-.1 1.1-.4s.5-.8.5-1.4v-.5l.2-.3h2.9l.2.6a5 5 0 0 1-1.2 3.5c-.9 1-2 1.6-3.7 1.6-1.4 0-2.6-.5-3.6-1.5s-1.5-2.6-1.5-4.7v-4.8c0-2.1.5-3.7 1.5-4.7s2.1-1.5 3.6-1.5 2.6.5 3.6 1.5 1.5 2.6 1.5 4.7v2.3c0 .3 0 .5-.2.5l-.5.2h-5.4l-.6.1-.1.6zm3.4-4.4c0-1.6-.6-2.4-1.7-2.4-1 0-1.7.8-1.7 2.4v.6h3.4v-.6zm9.6-4.7v10.7c0 1.7.7 2.6 1.9 2.6s1.8-.9 1.8-2.6v-10.7c0-.3 0-.4.2-.5 0-.1.2-.2.5-.2h2c.3 0 .5 0 .6.2l.1.5v15.6l-.1.5-.6.2h-2c-.2 0-.3 0-.4-.2-.1 0-.2-.2-.2-.5v-.6a3 3 0 0 1-2.6 1.4c-1.4 0-2.5-.4-3.3-1.4s-1.2-2.4-1.2-4.3v-10.7l.1-.5.5-.2h2c.3 0 .5 0 .6.2l.1.5zM76.4 344l-1.7-4-1.7 4-.3.4H70c-.5 0-.6-.2-.4-.6L73 336l-3.4-7.8v-.5l.4-.2h2.2l.5.1.2.4 1.8 4 1.7-4 .3-.4h2.6l.4.1v.5l-3.3 7.8 3.3 7.8c.2.4 0 .7-.4.7h-2.6l-.3-.5z"/></svg>