<svg xmlns="http://www.w3.org/2000/svg" xmlns:xlink="http://www.w3.org/1999/xlink" viewBox="0 0 78 57">
  <path id="a" fill="#fff" transform="translate(-65 -634)" d="M139.5 666a4 4 0 0 1-2.6 3.7v-11.3c0-.7-.6-1.3-1.3-1.3-.7 0-1.3.5-1.3 1.2v29.5h-4v-16.6c0-.7-.5-1.3-1.2-1.3s-1.3.5-1.3 1.3v16.6H124v-32l-.1-.6-6.1-11.8 1.5-3 8.7 16c.2.3.6.6 1 .6s.8-.1 1-.4l4.7-4.6 2.5.7c1.3.5 2.2 1.7 2.2 3zm-30.7-10.8l-.2.6v32h-4v-16.6c0-.7-.5-1.3-1.2-1.3s-1.3.6-1.3 1.3v16.7h-3.8v-32.1l-.2-.6-8.7-16.8c-.2-.3-.2-.6-.1-1 0-.3.3-.5.6-.7.7-.3 1.4 0 1.8.6l10.5 19.1c.4.8 1.8.8 2.2 0l10.6-19.2c.3-.6 1-.8 1.7-.5.3.2.5.4.6.8l-.1 1zm-25.7 0l-.2.6v32H79v-16.6c0-.7-.6-1.3-1.3-1.3-.7 0-1.3.6-1.3 1.3v16.7h-3.8v-29.5c0-.7-.6-1.3-1.3-1.3-.7 0-1.3.6-1.3 1.3v11.3a4 4 0 0 1-2.6-3.6v-10.3c0-1.4.9-2.6 2-3l2.7-.7 4.6 4.6c.3.3.7.4 1 .4.5 0 .8-.3 1-.7l8.7-15.9 1.5 3zm22.7-6.3l-2.4 4.2-2.3-4.2a5.9 5.9 0 0 0 4.6 0zm1.5-6a4 4 0 0 1-4 4c-2 0-3.8-1.8-3.8-4s1.7-3.8 3.8-3.8a4 4 0 0 1 3.9 3.9zm-29.6-3.8c2 0 3.8 1.8 3.8 3.9s-1.8 3.8-4 3.8a3.9 3.9 0 0 1 0-7.7zm55.2 3.9a4 4 0 0 1-4 3.8 3.9 3.9 0 0 1 0-7.7 4 4 0 0 1 3.8 3.9zm1.6 6.4c-.5 0-1 0-1.2.4l-4 3.9-2.7-4.8a6.4 6.4 0 0 0 8.7-6c0-3.5-3-6.4-6.4-6.4a6.3 6.3 0 0 0-6.3 5l-3.1-5.6-.2-.4c-.4-.5-.8-1-1.4-1.3a4 4 0 0 0-1.8-.4c-1.5 0-2.8.8-3.4 2l-3.2 5.7a6.4 6.4 0 0 0-12.6-.1l-3.2-5.7c-.7-1.3-2-2-3.4-2-.7 0-1.3 0-1.8.4a3 3 0 0 0-1.4 1.3l-.2.2-3.2 5.7a6.4 6.4 0 1 0-4 7.2l-2.6 4.7-3.9-3.9c-.3-.3-.8-.5-1.2-.4l-3.4 1c-2.4.7-4 3-4 5.4V666c0 3.1 2.2 5.7 5 6.3V689c0 .7.6 1.3 1.4 1.3h13c.7 0 1.2-.6 1.2-1.3v-33l5.2-10 5.1 10v33c0 .7.6 1.3 1.3 1.3h12.8c.7 0 1.3-.6 1.3-1.3v-33l5.1-9.9 5.1 9.9v33c0 .7.6 1.3 1.3 1.3h12.9c.7 0 1.3-.6 1.3-1.3v-16.8a6.4 6.4 0 0 0 5-6.3v-10.2c0-2.5-1.5-4.7-4-5.5z"/>
</svg>
