<svg xmlns="http://www.w3.org/2000/svg" xmlns:xlink="http://www.w3.org/1999/xlink" viewBox="0 0 78 57">
  <path id="a" fill="#fff" transform="translate(-612 -634)" d="M658.3 677.6h28c-.7 5.8-6.7 10.3-14 10.3s-13.2-4.5-14-10.3zM648 643c0-1.4 1.1-2.6 2.5-2.6 1.5 0 2.6 1.2 2.6 2.6a2.5 2.5 0 1 1-5 .1zm-33.3 34.6h28c-.8 5.8-6.7 10.3-14 10.3s-13.3-4.5-14.1-10.2zm14-31.5l13.4 29h-26.8zm57 29h-26.8l13.4-29zm3.2.7l-15.4-33.3-.3-.4h-.1l-.3-.2h-.2a1 1 0 0 0-.5-.2h-16.8a5.2 5.2 0 0 0-3.6-3.6v-2.8c0-.7-.6-1.2-1.3-1.2-.7 0-1.3.6-1.3 1.3v2.8a5.2 5.2 0 0 0-3.7 3.7h-16.8l-.5.1a1 1 0 0 0-.4.3l-.3.3L612 676v.2l-.1.2c0 7.8 7.5 14.2 16.7 14.2s16.7-6.4 16.7-14.1v-.3l-.1-.3-14.5-31.6h14.8a5.2 5.2 0 0 0 5 4c2.4 0 4.4-1.7 5-4h14.9L655.9 676v.3l-.1.2c0 7.8 7.5 14.2 16.7 14.2s16.7-6.4 16.7-14.1v-.4l-.1-.3z"/>
</svg>
