<svg xmlns="http://www.w3.org/2000/svg" version="1" viewBox="0 0 47 47"><path fill="#FFF" d="M40.5 12.7l-6.4-6.4 3.4-3.5 6.4 6.4-3.4 3.5zM22.1 31.1L13.7 33l2-8.4L33 7.3l6.4 6.4-17.3 17.4zm16-29.9a.8.8 0 0 0-1.1 0L14.5 23.7l-.2.4-2.3 9.7a.8.8 0 0 0 1 1l9.7-2.3.3-.2L45.5 9.8c.3-.3.3-.8 0-1l-7.4-7.6z"/><path fill="none" stroke="#FFF" stroke-miterlimit="50" stroke-width=".8" d="M40.5 12.7l-6.4-6.4 3.4-3.5 6.4 6.4-3.4 3.5zM22.1 31.1L13.7 33l2-8.4L33 7.3l6.4 6.4-17.3 17.4zm16-29.9a.8.8 0 0 0-1.1 0L14.5 23.7l-.2.4-2.3 9.7a.8.8 0 0 0 1 1l9.7-2.3.3-.2L45.5 9.8c.3-.3.3-.8 0-1l-7.4-7.6z"/><path fill="#FFF" d="M40 45.3v-18a.8.8 0 1 0-1.5 0v17.2h-36v-36h17.3a.8.8 0 1 0 .6-1.5H1.8c-.4 0-.8.4-.8.8v37.5c0 .4.3.7.8.7h37.4c.5 0 .8-.3.8-.8v.1z"/><path fill="none" stroke="#FFF" stroke-miterlimit="50" stroke-width=".8" d="M40 45.3v-18a.8.8 0 1 0-1.5 0v17.2h-36v-36h17.3a.8.8 0 1 0 .6-1.5H1.8c-.4 0-.8.4-.8.8v37.5c0 .4.3.7.8.7h37.4c.5 0 .8-.3.8-.8v.1z"/></svg>