<svg xmlns="http://www.w3.org/2000/svg" xmlns:xlink="http://www.w3.org/1999/xlink" viewBox="0 0 42 45"><defs><path id="a" d="M426 1264c.4 0 .7-.3.7-.7v-12.5c0-.4-.3-.7-.7-.7-.4 0-.7.3-.7.7v12.5c0 .4.3.7.7.7z"/><path id="b" d="M419.1 1264c.4 0 .7-.3.7-.7v-12.5c0-.4-.3-.7-.7-.7-.4 0-.7.3-.7.7v12.5c0 .4.3.7.7.7z"/><path id="c" d="M432.9 1264c.4 0 .7-.3.7-.7v-12.5c0-.4-.3-.7-.7-.7-.4 0-.7.3-.7.7v12.5c0 .4.3.7.7.7z"/><path id="d" d="M406.7 1235.5h11.7v-4.8c0-.4.3-.7.7-.7h13.8c.4 0 .7.3.7.7v4.8h11.7c.4 0 .7.4.7.7v5.6c0 .4-.3.7-.7.7H442v29.8c0 .4-.3.7-.7.7h-30.4a.7.7 0 0 1-.7-.7v-29.8h-3.4a.7.7 0 0 1-.7-.7v-5.6c0-.3.3-.7.7-.7zm33.8 7h-29v29.1h29zm-20.7-7h12.4v-4.1h-12.4zm-12.4 5.6h37.2v-4.2h-37.2z"/></defs><g fill="#fff" transform="translate(-405 -1229)"><use xlink:href="#a"/><use fill-opacity="0" stroke="#fff" stroke-miterlimit="50" stroke-width=".8" xlink:href="#a"/></g><g fill="#fff" transform="translate(-405 -1229)"><use xlink:href="#b"/><use fill-opacity="0" stroke="#fff" stroke-miterlimit="50" stroke-width=".8" xlink:href="#b"/></g><g fill="#fff" transform="translate(-405 -1229)"><use xlink:href="#c"/><use fill-opacity="0" stroke="#fff" stroke-miterlimit="50" stroke-width=".8" xlink:href="#c"/></g><g fill="#fff" transform="translate(-405 -1229)"><use xlink:href="#d"/><use fill-opacity="0" stroke="#fff" stroke-miterlimit="50" stroke-width=".8" xlink:href="#d"/></g></svg>